%FSLAX45Y45*%
G04 Gerber Fmt 4.5, Leading zero omitted, Abs format (unit mm)*
G04 Created by KiCad (PCBNEW 6.0.1-79c1e3a40b~116~ubuntu20.04.1) date 2022-01-29 01:29:51*
%MOMM*%
%LPD*%
G01*
G04 APERTURE LIST*
%TA.AperFunction,Profile*%
%ADD10C,0.100000*%
%TD*%
%ADD11C,0.200000*%
%ADD12C,0.040000*%
%ADD13C,0.220000*%
G04 APERTURE END LIST*
D10*
X15250000Y-10000000D02*
X15250000Y-8500000D01*
X16000000Y-10250000D02*
X15500000Y-10250000D01*
X16250000Y-8500000D02*
X16250000Y-10000000D01*
X15500000Y-8250000D02*
X16000000Y-8250000D01*
X16000000Y-10250000D02*
G75*
G03*
X16250000Y-10000000I0J250000D01*
G01*
X16250000Y-8500000D02*
G75*
G03*
X16000000Y-8250000I-250000J0D01*
G01*
X15250000Y-10000000D02*
G75*
G03*
X15500000Y-10250000I250000J0D01*
G01*
X15500000Y-8250000D02*
G75*
G03*
X15250000Y-8500000I0J-250000D01*
G01*
D11*
D12*
X15530000Y-9080000D02*
X15570000Y-9120000D01*
X15570000Y-9080000D02*
X15530000Y-9120000D01*
X15530000Y-9380000D02*
X15570000Y-9420000D01*
X15570000Y-9380000D02*
X15530000Y-9420000D01*
X15630000Y-9080000D02*
X15670000Y-9120000D01*
X15670000Y-9080000D02*
X15630000Y-9120000D01*
X15630000Y-9380000D02*
X15670000Y-9420000D01*
X15670000Y-9380000D02*
X15630000Y-9420000D01*
X15730000Y-9080000D02*
X15770000Y-9120000D01*
X15770000Y-9080000D02*
X15730000Y-9120000D01*
X15730000Y-9380000D02*
X15770000Y-9420000D01*
X15770000Y-9380000D02*
X15730000Y-9420000D01*
X15780000Y-9180000D02*
X15820000Y-9220000D01*
X15820000Y-9180000D02*
X15780000Y-9220000D01*
X15780000Y-9280000D02*
X15820000Y-9320000D01*
X15820000Y-9280000D02*
X15780000Y-9320000D01*
X15830000Y-9080000D02*
X15870000Y-9120000D01*
X15870000Y-9080000D02*
X15830000Y-9120000D01*
X15830000Y-9380000D02*
X15870000Y-9420000D01*
X15870000Y-9380000D02*
X15830000Y-9420000D01*
X15880000Y-9230000D02*
X15920000Y-9270000D01*
X15920000Y-9230000D02*
X15880000Y-9270000D01*
X15930000Y-9130000D02*
X15970000Y-9170000D01*
X15970000Y-9130000D02*
X15930000Y-9170000D01*
X15930000Y-9330000D02*
X15970000Y-9370000D01*
X15970000Y-9330000D02*
X15930000Y-9370000D01*
X15320000Y-9150000D02*
G75*
G03*
X15320000Y-9150000I-20000J0D01*
G01*
X15320000Y-9350000D02*
G75*
G03*
X15320000Y-9350000I-20000J0D01*
G01*
X15370000Y-9090000D02*
G75*
G03*
X15370000Y-9090000I-20000J0D01*
G01*
X15370000Y-9400000D02*
G75*
G03*
X15370000Y-9400000I-20000J0D01*
G01*
X15420000Y-9150000D02*
G75*
G03*
X15420000Y-9150000I-20000J0D01*
G01*
X15420000Y-9350000D02*
G75*
G03*
X15420000Y-9350000I-20000J0D01*
G01*
X15470000Y-9100000D02*
G75*
G03*
X15470000Y-9100000I-20000J0D01*
G01*
X15470000Y-9400000D02*
G75*
G03*
X15470000Y-9400000I-20000J0D01*
G01*
X15520000Y-9150000D02*
G75*
G03*
X15520000Y-9150000I-20000J0D01*
G01*
X15520000Y-9350000D02*
G75*
G03*
X15520000Y-9350000I-20000J0D01*
G01*
D13*
X15500000Y-8390000D02*
X15500000Y-8610000D01*
X15390000Y-8500000D02*
X15610000Y-8500000D01*
X15500000Y-9890000D02*
X15500000Y-10110000D01*
X15390000Y-10000000D02*
X15610000Y-10000000D01*
X16000000Y-8390000D02*
X16000000Y-8610000D01*
X15890000Y-8500000D02*
X16110000Y-8500000D01*
X16000000Y-9890000D02*
X16000000Y-10110000D01*
X15890000Y-10000000D02*
X16110000Y-10000000D01*
D11*
X15502619Y-10565476D02*
X15502619Y-10365476D01*
X15550238Y-10365476D01*
X15578809Y-10375000D01*
X15597857Y-10394048D01*
X15607381Y-10413095D01*
X15616905Y-10451190D01*
X15616905Y-10479762D01*
X15607381Y-10517857D01*
X15597857Y-10536905D01*
X15578809Y-10555952D01*
X15550238Y-10565476D01*
X15502619Y-10565476D01*
X15702619Y-10565476D02*
X15702619Y-10432143D01*
X15702619Y-10470238D02*
X15712143Y-10451190D01*
X15721667Y-10441667D01*
X15740714Y-10432143D01*
X15759762Y-10432143D01*
X15826428Y-10565476D02*
X15826428Y-10432143D01*
X15826428Y-10365476D02*
X15816905Y-10375000D01*
X15826428Y-10384524D01*
X15835952Y-10375000D01*
X15826428Y-10365476D01*
X15826428Y-10384524D01*
X15950238Y-10565476D02*
X15931190Y-10555952D01*
X15921667Y-10536905D01*
X15921667Y-10365476D01*
X16055000Y-10565476D02*
X16035952Y-10555952D01*
X16026428Y-10536905D01*
X16026428Y-10365476D01*
X16283571Y-10565476D02*
X16283571Y-10365476D01*
X16350238Y-10508333D01*
X16416905Y-10365476D01*
X16416905Y-10565476D01*
X16597857Y-10565476D02*
X16597857Y-10460714D01*
X16588333Y-10441667D01*
X16569286Y-10432143D01*
X16531190Y-10432143D01*
X16512143Y-10441667D01*
X16597857Y-10555952D02*
X16578809Y-10565476D01*
X16531190Y-10565476D01*
X16512143Y-10555952D01*
X16502619Y-10536905D01*
X16502619Y-10517857D01*
X16512143Y-10498810D01*
X16531190Y-10489286D01*
X16578809Y-10489286D01*
X16597857Y-10479762D01*
X16693095Y-10432143D02*
X16693095Y-10632143D01*
X16693095Y-10441667D02*
X16712143Y-10432143D01*
X16750238Y-10432143D01*
X16769286Y-10441667D01*
X16778810Y-10451190D01*
X16788333Y-10470238D01*
X16788333Y-10527381D01*
X16778810Y-10546429D01*
X16769286Y-10555952D01*
X16750238Y-10565476D01*
X16712143Y-10565476D01*
X16693095Y-10555952D01*
X16874048Y-10546429D02*
X16883571Y-10555952D01*
X16874048Y-10565476D01*
X16864524Y-10555952D01*
X16874048Y-10546429D01*
X16874048Y-10565476D01*
X16874048Y-10441667D02*
X16883571Y-10451190D01*
X16874048Y-10460714D01*
X16864524Y-10451190D01*
X16874048Y-10441667D01*
X16874048Y-10460714D01*
D12*
X15205000Y-10875000D02*
X15245000Y-10915000D01*
X15245000Y-10875000D02*
X15205000Y-10915000D01*
D11*
X15540714Y-10785476D02*
X15559762Y-10785476D01*
X15578809Y-10795000D01*
X15588333Y-10804524D01*
X15597857Y-10823571D01*
X15607381Y-10861667D01*
X15607381Y-10909286D01*
X15597857Y-10947381D01*
X15588333Y-10966429D01*
X15578809Y-10975952D01*
X15559762Y-10985476D01*
X15540714Y-10985476D01*
X15521667Y-10975952D01*
X15512143Y-10966429D01*
X15502619Y-10947381D01*
X15493095Y-10909286D01*
X15493095Y-10861667D01*
X15502619Y-10823571D01*
X15512143Y-10804524D01*
X15521667Y-10795000D01*
X15540714Y-10785476D01*
X15693095Y-10966429D02*
X15702619Y-10975952D01*
X15693095Y-10985476D01*
X15683571Y-10975952D01*
X15693095Y-10966429D01*
X15693095Y-10985476D01*
X15874048Y-10852143D02*
X15874048Y-10985476D01*
X15826428Y-10775952D02*
X15778809Y-10918810D01*
X15902619Y-10918810D01*
X16016905Y-10785476D02*
X16035952Y-10785476D01*
X16055000Y-10795000D01*
X16064524Y-10804524D01*
X16074048Y-10823571D01*
X16083571Y-10861667D01*
X16083571Y-10909286D01*
X16074048Y-10947381D01*
X16064524Y-10966429D01*
X16055000Y-10975952D01*
X16035952Y-10985476D01*
X16016905Y-10985476D01*
X15997857Y-10975952D01*
X15988333Y-10966429D01*
X15978809Y-10947381D01*
X15969286Y-10909286D01*
X15969286Y-10861667D01*
X15978809Y-10823571D01*
X15988333Y-10804524D01*
X15997857Y-10795000D01*
X16016905Y-10785476D01*
X16207381Y-10785476D02*
X16226428Y-10785476D01*
X16245476Y-10795000D01*
X16255000Y-10804524D01*
X16264524Y-10823571D01*
X16274048Y-10861667D01*
X16274048Y-10909286D01*
X16264524Y-10947381D01*
X16255000Y-10966429D01*
X16245476Y-10975952D01*
X16226428Y-10985476D01*
X16207381Y-10985476D01*
X16188333Y-10975952D01*
X16178809Y-10966429D01*
X16169286Y-10947381D01*
X16159762Y-10909286D01*
X16159762Y-10861667D01*
X16169286Y-10823571D01*
X16178809Y-10804524D01*
X16188333Y-10795000D01*
X16207381Y-10785476D01*
X16359762Y-10985476D02*
X16359762Y-10852143D01*
X16359762Y-10871190D02*
X16369286Y-10861667D01*
X16388333Y-10852143D01*
X16416905Y-10852143D01*
X16435952Y-10861667D01*
X16445476Y-10880714D01*
X16445476Y-10985476D01*
X16445476Y-10880714D02*
X16455000Y-10861667D01*
X16474048Y-10852143D01*
X16502619Y-10852143D01*
X16521667Y-10861667D01*
X16531190Y-10880714D01*
X16531190Y-10985476D01*
X16626428Y-10985476D02*
X16626428Y-10852143D01*
X16626428Y-10871190D02*
X16635952Y-10861667D01*
X16655000Y-10852143D01*
X16683571Y-10852143D01*
X16702619Y-10861667D01*
X16712143Y-10880714D01*
X16712143Y-10985476D01*
X16712143Y-10880714D02*
X16721667Y-10861667D01*
X16740714Y-10852143D01*
X16769286Y-10852143D01*
X16788333Y-10861667D01*
X16797857Y-10880714D01*
X16797857Y-10985476D01*
X17188333Y-10775952D02*
X17016905Y-11033095D01*
X17445476Y-10785476D02*
X17464524Y-10785476D01*
X17483571Y-10795000D01*
X17493095Y-10804524D01*
X17502619Y-10823571D01*
X17512143Y-10861667D01*
X17512143Y-10909286D01*
X17502619Y-10947381D01*
X17493095Y-10966429D01*
X17483571Y-10975952D01*
X17464524Y-10985476D01*
X17445476Y-10985476D01*
X17426429Y-10975952D01*
X17416905Y-10966429D01*
X17407381Y-10947381D01*
X17397857Y-10909286D01*
X17397857Y-10861667D01*
X17407381Y-10823571D01*
X17416905Y-10804524D01*
X17426429Y-10795000D01*
X17445476Y-10785476D01*
X17597857Y-10966429D02*
X17607381Y-10975952D01*
X17597857Y-10985476D01*
X17588333Y-10975952D01*
X17597857Y-10966429D01*
X17597857Y-10985476D01*
X17731190Y-10785476D02*
X17750238Y-10785476D01*
X17769286Y-10795000D01*
X17778810Y-10804524D01*
X17788333Y-10823571D01*
X17797857Y-10861667D01*
X17797857Y-10909286D01*
X17788333Y-10947381D01*
X17778810Y-10966429D01*
X17769286Y-10975952D01*
X17750238Y-10985476D01*
X17731190Y-10985476D01*
X17712143Y-10975952D01*
X17702619Y-10966429D01*
X17693095Y-10947381D01*
X17683571Y-10909286D01*
X17683571Y-10861667D01*
X17693095Y-10823571D01*
X17702619Y-10804524D01*
X17712143Y-10795000D01*
X17731190Y-10785476D01*
X17988333Y-10985476D02*
X17874048Y-10985476D01*
X17931190Y-10985476D02*
X17931190Y-10785476D01*
X17912143Y-10814048D01*
X17893095Y-10833095D01*
X17874048Y-10842619D01*
X18169286Y-10785476D02*
X18074048Y-10785476D01*
X18064524Y-10880714D01*
X18074048Y-10871190D01*
X18093095Y-10861667D01*
X18140714Y-10861667D01*
X18159762Y-10871190D01*
X18169286Y-10880714D01*
X18178810Y-10899762D01*
X18178810Y-10947381D01*
X18169286Y-10966429D01*
X18159762Y-10975952D01*
X18140714Y-10985476D01*
X18093095Y-10985476D01*
X18074048Y-10975952D01*
X18064524Y-10966429D01*
X18245476Y-10785476D02*
X18378810Y-10785476D01*
X18293095Y-10985476D01*
X18445476Y-10785476D02*
X18445476Y-10823571D01*
X18521667Y-10785476D02*
X18521667Y-10823571D01*
X18816905Y-11061667D02*
X18807381Y-11052143D01*
X18788333Y-11023571D01*
X18778810Y-11004524D01*
X18769286Y-10975952D01*
X18759762Y-10928333D01*
X18759762Y-10890238D01*
X18769286Y-10842619D01*
X18778810Y-10814048D01*
X18788333Y-10795000D01*
X18807381Y-10766429D01*
X18816905Y-10756905D01*
X18997857Y-10985476D02*
X18883571Y-10985476D01*
X18940714Y-10985476D02*
X18940714Y-10785476D01*
X18921667Y-10814048D01*
X18902619Y-10833095D01*
X18883571Y-10842619D01*
X19064524Y-10785476D02*
X19188333Y-10785476D01*
X19121667Y-10861667D01*
X19150238Y-10861667D01*
X19169286Y-10871190D01*
X19178810Y-10880714D01*
X19188333Y-10899762D01*
X19188333Y-10947381D01*
X19178810Y-10966429D01*
X19169286Y-10975952D01*
X19150238Y-10985476D01*
X19093095Y-10985476D01*
X19074048Y-10975952D01*
X19064524Y-10966429D01*
X19426429Y-10985476D02*
X19426429Y-10785476D01*
X19512143Y-10985476D02*
X19512143Y-10880714D01*
X19502619Y-10861667D01*
X19483571Y-10852143D01*
X19455000Y-10852143D01*
X19435952Y-10861667D01*
X19426429Y-10871190D01*
X19635952Y-10985476D02*
X19616905Y-10975952D01*
X19607381Y-10966429D01*
X19597857Y-10947381D01*
X19597857Y-10890238D01*
X19607381Y-10871190D01*
X19616905Y-10861667D01*
X19635952Y-10852143D01*
X19664524Y-10852143D01*
X19683571Y-10861667D01*
X19693095Y-10871190D01*
X19702619Y-10890238D01*
X19702619Y-10947381D01*
X19693095Y-10966429D01*
X19683571Y-10975952D01*
X19664524Y-10985476D01*
X19635952Y-10985476D01*
X19816905Y-10985476D02*
X19797857Y-10975952D01*
X19788333Y-10956905D01*
X19788333Y-10785476D01*
X19969286Y-10975952D02*
X19950238Y-10985476D01*
X19912143Y-10985476D01*
X19893095Y-10975952D01*
X19883571Y-10956905D01*
X19883571Y-10880714D01*
X19893095Y-10861667D01*
X19912143Y-10852143D01*
X19950238Y-10852143D01*
X19969286Y-10861667D01*
X19978810Y-10880714D01*
X19978810Y-10899762D01*
X19883571Y-10918810D01*
X20055000Y-10975952D02*
X20074048Y-10985476D01*
X20112143Y-10985476D01*
X20131190Y-10975952D01*
X20140714Y-10956905D01*
X20140714Y-10947381D01*
X20131190Y-10928333D01*
X20112143Y-10918810D01*
X20083571Y-10918810D01*
X20064524Y-10909286D01*
X20055000Y-10890238D01*
X20055000Y-10880714D01*
X20064524Y-10861667D01*
X20083571Y-10852143D01*
X20112143Y-10852143D01*
X20131190Y-10861667D01*
X20207381Y-11061667D02*
X20216905Y-11052143D01*
X20235952Y-11023571D01*
X20245476Y-11004524D01*
X20255000Y-10975952D01*
X20264524Y-10928333D01*
X20264524Y-10890238D01*
X20255000Y-10842619D01*
X20245476Y-10814048D01*
X20235952Y-10795000D01*
X20216905Y-10766429D01*
X20207381Y-10756905D01*
D12*
X15245000Y-11159000D02*
G75*
G03*
X15245000Y-11159000I-20000J0D01*
G01*
D11*
X15540714Y-11049476D02*
X15559762Y-11049476D01*
X15578809Y-11059000D01*
X15588333Y-11068524D01*
X15597857Y-11087571D01*
X15607381Y-11125667D01*
X15607381Y-11173286D01*
X15597857Y-11211381D01*
X15588333Y-11230428D01*
X15578809Y-11239952D01*
X15559762Y-11249476D01*
X15540714Y-11249476D01*
X15521667Y-11239952D01*
X15512143Y-11230428D01*
X15502619Y-11211381D01*
X15493095Y-11173286D01*
X15493095Y-11125667D01*
X15502619Y-11087571D01*
X15512143Y-11068524D01*
X15521667Y-11059000D01*
X15540714Y-11049476D01*
X15693095Y-11230428D02*
X15702619Y-11239952D01*
X15693095Y-11249476D01*
X15683571Y-11239952D01*
X15693095Y-11230428D01*
X15693095Y-11249476D01*
X15874048Y-11116143D02*
X15874048Y-11249476D01*
X15826428Y-11039952D02*
X15778809Y-11182810D01*
X15902619Y-11182810D01*
X16016905Y-11049476D02*
X16035952Y-11049476D01*
X16055000Y-11059000D01*
X16064524Y-11068524D01*
X16074048Y-11087571D01*
X16083571Y-11125667D01*
X16083571Y-11173286D01*
X16074048Y-11211381D01*
X16064524Y-11230428D01*
X16055000Y-11239952D01*
X16035952Y-11249476D01*
X16016905Y-11249476D01*
X15997857Y-11239952D01*
X15988333Y-11230428D01*
X15978809Y-11211381D01*
X15969286Y-11173286D01*
X15969286Y-11125667D01*
X15978809Y-11087571D01*
X15988333Y-11068524D01*
X15997857Y-11059000D01*
X16016905Y-11049476D01*
X16207381Y-11049476D02*
X16226428Y-11049476D01*
X16245476Y-11059000D01*
X16255000Y-11068524D01*
X16264524Y-11087571D01*
X16274048Y-11125667D01*
X16274048Y-11173286D01*
X16264524Y-11211381D01*
X16255000Y-11230428D01*
X16245476Y-11239952D01*
X16226428Y-11249476D01*
X16207381Y-11249476D01*
X16188333Y-11239952D01*
X16178809Y-11230428D01*
X16169286Y-11211381D01*
X16159762Y-11173286D01*
X16159762Y-11125667D01*
X16169286Y-11087571D01*
X16178809Y-11068524D01*
X16188333Y-11059000D01*
X16207381Y-11049476D01*
X16359762Y-11249476D02*
X16359762Y-11116143D01*
X16359762Y-11135190D02*
X16369286Y-11125667D01*
X16388333Y-11116143D01*
X16416905Y-11116143D01*
X16435952Y-11125667D01*
X16445476Y-11144714D01*
X16445476Y-11249476D01*
X16445476Y-11144714D02*
X16455000Y-11125667D01*
X16474048Y-11116143D01*
X16502619Y-11116143D01*
X16521667Y-11125667D01*
X16531190Y-11144714D01*
X16531190Y-11249476D01*
X16626428Y-11249476D02*
X16626428Y-11116143D01*
X16626428Y-11135190D02*
X16635952Y-11125667D01*
X16655000Y-11116143D01*
X16683571Y-11116143D01*
X16702619Y-11125667D01*
X16712143Y-11144714D01*
X16712143Y-11249476D01*
X16712143Y-11144714D02*
X16721667Y-11125667D01*
X16740714Y-11116143D01*
X16769286Y-11116143D01*
X16788333Y-11125667D01*
X16797857Y-11144714D01*
X16797857Y-11249476D01*
X17188333Y-11039952D02*
X17016905Y-11297095D01*
X17445476Y-11049476D02*
X17464524Y-11049476D01*
X17483571Y-11059000D01*
X17493095Y-11068524D01*
X17502619Y-11087571D01*
X17512143Y-11125667D01*
X17512143Y-11173286D01*
X17502619Y-11211381D01*
X17493095Y-11230428D01*
X17483571Y-11239952D01*
X17464524Y-11249476D01*
X17445476Y-11249476D01*
X17426429Y-11239952D01*
X17416905Y-11230428D01*
X17407381Y-11211381D01*
X17397857Y-11173286D01*
X17397857Y-11125667D01*
X17407381Y-11087571D01*
X17416905Y-11068524D01*
X17426429Y-11059000D01*
X17445476Y-11049476D01*
X17597857Y-11230428D02*
X17607381Y-11239952D01*
X17597857Y-11249476D01*
X17588333Y-11239952D01*
X17597857Y-11230428D01*
X17597857Y-11249476D01*
X17731190Y-11049476D02*
X17750238Y-11049476D01*
X17769286Y-11059000D01*
X17778810Y-11068524D01*
X17788333Y-11087571D01*
X17797857Y-11125667D01*
X17797857Y-11173286D01*
X17788333Y-11211381D01*
X17778810Y-11230428D01*
X17769286Y-11239952D01*
X17750238Y-11249476D01*
X17731190Y-11249476D01*
X17712143Y-11239952D01*
X17702619Y-11230428D01*
X17693095Y-11211381D01*
X17683571Y-11173286D01*
X17683571Y-11125667D01*
X17693095Y-11087571D01*
X17702619Y-11068524D01*
X17712143Y-11059000D01*
X17731190Y-11049476D01*
X17988333Y-11249476D02*
X17874048Y-11249476D01*
X17931190Y-11249476D02*
X17931190Y-11049476D01*
X17912143Y-11078048D01*
X17893095Y-11097095D01*
X17874048Y-11106619D01*
X18169286Y-11049476D02*
X18074048Y-11049476D01*
X18064524Y-11144714D01*
X18074048Y-11135190D01*
X18093095Y-11125667D01*
X18140714Y-11125667D01*
X18159762Y-11135190D01*
X18169286Y-11144714D01*
X18178810Y-11163762D01*
X18178810Y-11211381D01*
X18169286Y-11230428D01*
X18159762Y-11239952D01*
X18140714Y-11249476D01*
X18093095Y-11249476D01*
X18074048Y-11239952D01*
X18064524Y-11230428D01*
X18245476Y-11049476D02*
X18378810Y-11049476D01*
X18293095Y-11249476D01*
X18445476Y-11049476D02*
X18445476Y-11087571D01*
X18521667Y-11049476D02*
X18521667Y-11087571D01*
X18816905Y-11325667D02*
X18807381Y-11316143D01*
X18788333Y-11287571D01*
X18778810Y-11268524D01*
X18769286Y-11239952D01*
X18759762Y-11192333D01*
X18759762Y-11154238D01*
X18769286Y-11106619D01*
X18778810Y-11078048D01*
X18788333Y-11059000D01*
X18807381Y-11030429D01*
X18816905Y-11020905D01*
X18997857Y-11249476D02*
X18883571Y-11249476D01*
X18940714Y-11249476D02*
X18940714Y-11049476D01*
X18921667Y-11078048D01*
X18902619Y-11097095D01*
X18883571Y-11106619D01*
X19121667Y-11049476D02*
X19140714Y-11049476D01*
X19159762Y-11059000D01*
X19169286Y-11068524D01*
X19178810Y-11087571D01*
X19188333Y-11125667D01*
X19188333Y-11173286D01*
X19178810Y-11211381D01*
X19169286Y-11230428D01*
X19159762Y-11239952D01*
X19140714Y-11249476D01*
X19121667Y-11249476D01*
X19102619Y-11239952D01*
X19093095Y-11230428D01*
X19083571Y-11211381D01*
X19074048Y-11173286D01*
X19074048Y-11125667D01*
X19083571Y-11087571D01*
X19093095Y-11068524D01*
X19102619Y-11059000D01*
X19121667Y-11049476D01*
X19426429Y-11249476D02*
X19426429Y-11049476D01*
X19512143Y-11249476D02*
X19512143Y-11144714D01*
X19502619Y-11125667D01*
X19483571Y-11116143D01*
X19455000Y-11116143D01*
X19435952Y-11125667D01*
X19426429Y-11135190D01*
X19635952Y-11249476D02*
X19616905Y-11239952D01*
X19607381Y-11230428D01*
X19597857Y-11211381D01*
X19597857Y-11154238D01*
X19607381Y-11135190D01*
X19616905Y-11125667D01*
X19635952Y-11116143D01*
X19664524Y-11116143D01*
X19683571Y-11125667D01*
X19693095Y-11135190D01*
X19702619Y-11154238D01*
X19702619Y-11211381D01*
X19693095Y-11230428D01*
X19683571Y-11239952D01*
X19664524Y-11249476D01*
X19635952Y-11249476D01*
X19816905Y-11249476D02*
X19797857Y-11239952D01*
X19788333Y-11220905D01*
X19788333Y-11049476D01*
X19969286Y-11239952D02*
X19950238Y-11249476D01*
X19912143Y-11249476D01*
X19893095Y-11239952D01*
X19883571Y-11220905D01*
X19883571Y-11144714D01*
X19893095Y-11125667D01*
X19912143Y-11116143D01*
X19950238Y-11116143D01*
X19969286Y-11125667D01*
X19978810Y-11144714D01*
X19978810Y-11163762D01*
X19883571Y-11182810D01*
X20055000Y-11239952D02*
X20074048Y-11249476D01*
X20112143Y-11249476D01*
X20131190Y-11239952D01*
X20140714Y-11220905D01*
X20140714Y-11211381D01*
X20131190Y-11192333D01*
X20112143Y-11182810D01*
X20083571Y-11182810D01*
X20064524Y-11173286D01*
X20055000Y-11154238D01*
X20055000Y-11144714D01*
X20064524Y-11125667D01*
X20083571Y-11116143D01*
X20112143Y-11116143D01*
X20131190Y-11125667D01*
X20207381Y-11325667D02*
X20216905Y-11316143D01*
X20235952Y-11287571D01*
X20245476Y-11268524D01*
X20255000Y-11239952D01*
X20264524Y-11192333D01*
X20264524Y-11154238D01*
X20255000Y-11106619D01*
X20245476Y-11078048D01*
X20235952Y-11059000D01*
X20216905Y-11030429D01*
X20207381Y-11020905D01*
X15145000Y-11323000D02*
X15145000Y-11523000D01*
X15045000Y-11423000D02*
X15245000Y-11423000D01*
X15493095Y-11332524D02*
X15502619Y-11323000D01*
X15521667Y-11313476D01*
X15569286Y-11313476D01*
X15588333Y-11323000D01*
X15597857Y-11332524D01*
X15607381Y-11351571D01*
X15607381Y-11370619D01*
X15597857Y-11399190D01*
X15483571Y-11513476D01*
X15607381Y-11513476D01*
X15693095Y-11494428D02*
X15702619Y-11503952D01*
X15693095Y-11513476D01*
X15683571Y-11503952D01*
X15693095Y-11494428D01*
X15693095Y-11513476D01*
X15778809Y-11332524D02*
X15788333Y-11323000D01*
X15807381Y-11313476D01*
X15855000Y-11313476D01*
X15874048Y-11323000D01*
X15883571Y-11332524D01*
X15893095Y-11351571D01*
X15893095Y-11370619D01*
X15883571Y-11399190D01*
X15769286Y-11513476D01*
X15893095Y-11513476D01*
X16016905Y-11313476D02*
X16035952Y-11313476D01*
X16055000Y-11323000D01*
X16064524Y-11332524D01*
X16074048Y-11351571D01*
X16083571Y-11389667D01*
X16083571Y-11437286D01*
X16074048Y-11475381D01*
X16064524Y-11494428D01*
X16055000Y-11503952D01*
X16035952Y-11513476D01*
X16016905Y-11513476D01*
X15997857Y-11503952D01*
X15988333Y-11494428D01*
X15978809Y-11475381D01*
X15969286Y-11437286D01*
X15969286Y-11389667D01*
X15978809Y-11351571D01*
X15988333Y-11332524D01*
X15997857Y-11323000D01*
X16016905Y-11313476D01*
X16207381Y-11313476D02*
X16226428Y-11313476D01*
X16245476Y-11323000D01*
X16255000Y-11332524D01*
X16264524Y-11351571D01*
X16274048Y-11389667D01*
X16274048Y-11437286D01*
X16264524Y-11475381D01*
X16255000Y-11494428D01*
X16245476Y-11503952D01*
X16226428Y-11513476D01*
X16207381Y-11513476D01*
X16188333Y-11503952D01*
X16178809Y-11494428D01*
X16169286Y-11475381D01*
X16159762Y-11437286D01*
X16159762Y-11389667D01*
X16169286Y-11351571D01*
X16178809Y-11332524D01*
X16188333Y-11323000D01*
X16207381Y-11313476D01*
X16359762Y-11513476D02*
X16359762Y-11380143D01*
X16359762Y-11399190D02*
X16369286Y-11389667D01*
X16388333Y-11380143D01*
X16416905Y-11380143D01*
X16435952Y-11389667D01*
X16445476Y-11408714D01*
X16445476Y-11513476D01*
X16445476Y-11408714D02*
X16455000Y-11389667D01*
X16474048Y-11380143D01*
X16502619Y-11380143D01*
X16521667Y-11389667D01*
X16531190Y-11408714D01*
X16531190Y-11513476D01*
X16626428Y-11513476D02*
X16626428Y-11380143D01*
X16626428Y-11399190D02*
X16635952Y-11389667D01*
X16655000Y-11380143D01*
X16683571Y-11380143D01*
X16702619Y-11389667D01*
X16712143Y-11408714D01*
X16712143Y-11513476D01*
X16712143Y-11408714D02*
X16721667Y-11389667D01*
X16740714Y-11380143D01*
X16769286Y-11380143D01*
X16788333Y-11389667D01*
X16797857Y-11408714D01*
X16797857Y-11513476D01*
X17188333Y-11303952D02*
X17016905Y-11561095D01*
X17445476Y-11313476D02*
X17464524Y-11313476D01*
X17483571Y-11323000D01*
X17493095Y-11332524D01*
X17502619Y-11351571D01*
X17512143Y-11389667D01*
X17512143Y-11437286D01*
X17502619Y-11475381D01*
X17493095Y-11494428D01*
X17483571Y-11503952D01*
X17464524Y-11513476D01*
X17445476Y-11513476D01*
X17426429Y-11503952D01*
X17416905Y-11494428D01*
X17407381Y-11475381D01*
X17397857Y-11437286D01*
X17397857Y-11389667D01*
X17407381Y-11351571D01*
X17416905Y-11332524D01*
X17426429Y-11323000D01*
X17445476Y-11313476D01*
X17597857Y-11494428D02*
X17607381Y-11503952D01*
X17597857Y-11513476D01*
X17588333Y-11503952D01*
X17597857Y-11494428D01*
X17597857Y-11513476D01*
X17731190Y-11313476D02*
X17750238Y-11313476D01*
X17769286Y-11323000D01*
X17778810Y-11332524D01*
X17788333Y-11351571D01*
X17797857Y-11389667D01*
X17797857Y-11437286D01*
X17788333Y-11475381D01*
X17778810Y-11494428D01*
X17769286Y-11503952D01*
X17750238Y-11513476D01*
X17731190Y-11513476D01*
X17712143Y-11503952D01*
X17702619Y-11494428D01*
X17693095Y-11475381D01*
X17683571Y-11437286D01*
X17683571Y-11389667D01*
X17693095Y-11351571D01*
X17702619Y-11332524D01*
X17712143Y-11323000D01*
X17731190Y-11313476D01*
X17912143Y-11399190D02*
X17893095Y-11389667D01*
X17883571Y-11380143D01*
X17874048Y-11361095D01*
X17874048Y-11351571D01*
X17883571Y-11332524D01*
X17893095Y-11323000D01*
X17912143Y-11313476D01*
X17950238Y-11313476D01*
X17969286Y-11323000D01*
X17978810Y-11332524D01*
X17988333Y-11351571D01*
X17988333Y-11361095D01*
X17978810Y-11380143D01*
X17969286Y-11389667D01*
X17950238Y-11399190D01*
X17912143Y-11399190D01*
X17893095Y-11408714D01*
X17883571Y-11418238D01*
X17874048Y-11437286D01*
X17874048Y-11475381D01*
X17883571Y-11494428D01*
X17893095Y-11503952D01*
X17912143Y-11513476D01*
X17950238Y-11513476D01*
X17969286Y-11503952D01*
X17978810Y-11494428D01*
X17988333Y-11475381D01*
X17988333Y-11437286D01*
X17978810Y-11418238D01*
X17969286Y-11408714D01*
X17950238Y-11399190D01*
X18159762Y-11313476D02*
X18121667Y-11313476D01*
X18102619Y-11323000D01*
X18093095Y-11332524D01*
X18074048Y-11361095D01*
X18064524Y-11399190D01*
X18064524Y-11475381D01*
X18074048Y-11494428D01*
X18083571Y-11503952D01*
X18102619Y-11513476D01*
X18140714Y-11513476D01*
X18159762Y-11503952D01*
X18169286Y-11494428D01*
X18178810Y-11475381D01*
X18178810Y-11427762D01*
X18169286Y-11408714D01*
X18159762Y-11399190D01*
X18140714Y-11389667D01*
X18102619Y-11389667D01*
X18083571Y-11399190D01*
X18074048Y-11408714D01*
X18064524Y-11427762D01*
X18350238Y-11313476D02*
X18312143Y-11313476D01*
X18293095Y-11323000D01*
X18283571Y-11332524D01*
X18264524Y-11361095D01*
X18255000Y-11399190D01*
X18255000Y-11475381D01*
X18264524Y-11494428D01*
X18274048Y-11503952D01*
X18293095Y-11513476D01*
X18331190Y-11513476D01*
X18350238Y-11503952D01*
X18359762Y-11494428D01*
X18369286Y-11475381D01*
X18369286Y-11427762D01*
X18359762Y-11408714D01*
X18350238Y-11399190D01*
X18331190Y-11389667D01*
X18293095Y-11389667D01*
X18274048Y-11399190D01*
X18264524Y-11408714D01*
X18255000Y-11427762D01*
X18445476Y-11313476D02*
X18445476Y-11351571D01*
X18521667Y-11313476D02*
X18521667Y-11351571D01*
X18816905Y-11589667D02*
X18807381Y-11580143D01*
X18788333Y-11551571D01*
X18778810Y-11532524D01*
X18769286Y-11503952D01*
X18759762Y-11456333D01*
X18759762Y-11418238D01*
X18769286Y-11370619D01*
X18778810Y-11342048D01*
X18788333Y-11323000D01*
X18807381Y-11294428D01*
X18816905Y-11284905D01*
X18978810Y-11380143D02*
X18978810Y-11513476D01*
X18931190Y-11303952D02*
X18883571Y-11446809D01*
X19007381Y-11446809D01*
X19235952Y-11513476D02*
X19235952Y-11313476D01*
X19321667Y-11513476D02*
X19321667Y-11408714D01*
X19312143Y-11389667D01*
X19293095Y-11380143D01*
X19264524Y-11380143D01*
X19245476Y-11389667D01*
X19235952Y-11399190D01*
X19445476Y-11513476D02*
X19426429Y-11503952D01*
X19416905Y-11494428D01*
X19407381Y-11475381D01*
X19407381Y-11418238D01*
X19416905Y-11399190D01*
X19426429Y-11389667D01*
X19445476Y-11380143D01*
X19474048Y-11380143D01*
X19493095Y-11389667D01*
X19502619Y-11399190D01*
X19512143Y-11418238D01*
X19512143Y-11475381D01*
X19502619Y-11494428D01*
X19493095Y-11503952D01*
X19474048Y-11513476D01*
X19445476Y-11513476D01*
X19626429Y-11513476D02*
X19607381Y-11503952D01*
X19597857Y-11484905D01*
X19597857Y-11313476D01*
X19778810Y-11503952D02*
X19759762Y-11513476D01*
X19721667Y-11513476D01*
X19702619Y-11503952D01*
X19693095Y-11484905D01*
X19693095Y-11408714D01*
X19702619Y-11389667D01*
X19721667Y-11380143D01*
X19759762Y-11380143D01*
X19778810Y-11389667D01*
X19788333Y-11408714D01*
X19788333Y-11427762D01*
X19693095Y-11446809D01*
X19864524Y-11503952D02*
X19883571Y-11513476D01*
X19921667Y-11513476D01*
X19940714Y-11503952D01*
X19950238Y-11484905D01*
X19950238Y-11475381D01*
X19940714Y-11456333D01*
X19921667Y-11446809D01*
X19893095Y-11446809D01*
X19874048Y-11437286D01*
X19864524Y-11418238D01*
X19864524Y-11408714D01*
X19874048Y-11389667D01*
X19893095Y-11380143D01*
X19921667Y-11380143D01*
X19940714Y-11389667D01*
X20016905Y-11589667D02*
X20026429Y-11580143D01*
X20045476Y-11551571D01*
X20055000Y-11532524D01*
X20064524Y-11503952D01*
X20074048Y-11456333D01*
X20074048Y-11418238D01*
X20064524Y-11370619D01*
X20055000Y-11342048D01*
X20045476Y-11323000D01*
X20026429Y-11294428D01*
X20016905Y-11284905D01*
M02*
