M48
; DRILL file {KiCad 6.0.1-79c1e3a40b~116~ubuntu20.04.1} date Sat 29 Jan 2022 12:40:04 CET
; FORMAT={-:-/ absolute / metric / decimal}
; #@! TF.CreationDate,2022-01-29T12:40:04+01:00
; #@! TF.GenerationSoftware,Kicad,Pcbnew,6.0.1-79c1e3a40b~116~ubuntu20.04.1
; #@! TF.FileFunction,Plated,1,2,PTH
FMAT,2
METRIC
; #@! TA.AperFunction,Plated,PTH,ViaDrill
T1C0.400
; #@! TA.AperFunction,Plated,PTH,ComponentDrill
T2C0.400
; #@! TA.AperFunction,Plated,PTH,ComponentDrill
T3C2.200
%
G90
G05
T1
X155.5Y-91.0
X155.5Y-94.0
X156.5Y-91.0
X156.5Y-94.0
X157.5Y-91.0
X157.5Y-94.0
X158.0Y-92.0
X158.0Y-93.0
X158.5Y-91.0
X158.5Y-94.0
X159.0Y-92.5
X159.5Y-91.5
X159.5Y-93.5
T2
X153.0Y-91.5
X153.0Y-93.5
X153.5Y-91.0
X153.5Y-94.0
X154.0Y-91.5
X154.0Y-93.5
X154.5Y-91.0
X154.5Y-94.0
X155.0Y-91.5
X155.0Y-93.5
T3
X155.0Y-85.0
X155.0Y-100.0
X160.0Y-85.0
X160.0Y-100.0
T0
M30
