%TF.GenerationSoftware,KiCad,Pcbnew,6.0.1-79c1e3a40b~116~ubuntu20.04.1*%
%TF.CreationDate,2022-01-29T01:29:46+01:00*%
%TF.ProjectId,load,6c6f6164-2e6b-4696-9361-645f70636258,1*%
%TF.SameCoordinates,Original*%
%TF.FileFunction,Legend,Top*%
%TF.FilePolarity,Positive*%
%FSLAX46Y46*%
G04 Gerber Fmt 4.6, Leading zero omitted, Abs format (unit mm)*
G04 Created by KiCad (PCBNEW 6.0.1-79c1e3a40b~116~ubuntu20.04.1) date 2022-01-29 01:29:46*
%MOMM*%
%LPD*%
G01*
G04 APERTURE LIST*
%ADD10C,0.300000*%
%ADD11C,0.150000*%
%ADD12C,0.120000*%
G04 APERTURE END LIST*
D10*
X156000000Y-87178571D02*
X156142857Y-87178571D01*
X156285714Y-87250000D01*
X156357142Y-87321428D01*
X156428571Y-87464285D01*
X156500000Y-87750000D01*
X156500000Y-88107142D01*
X156428571Y-88392857D01*
X156357142Y-88535714D01*
X156285714Y-88607142D01*
X156142857Y-88678571D01*
X156000000Y-88678571D01*
X155857142Y-88607142D01*
X155785714Y-88535714D01*
X155714285Y-88392857D01*
X155642857Y-88107142D01*
X155642857Y-87750000D01*
X155714285Y-87464285D01*
X155785714Y-87321428D01*
X155857142Y-87250000D01*
X156000000Y-87178571D01*
X157428571Y-87178571D02*
X157571428Y-87178571D01*
X157714285Y-87250000D01*
X157785714Y-87321428D01*
X157857142Y-87464285D01*
X157928571Y-87750000D01*
X157928571Y-88107142D01*
X157857142Y-88392857D01*
X157785714Y-88535714D01*
X157714285Y-88607142D01*
X157571428Y-88678571D01*
X157428571Y-88678571D01*
X157285714Y-88607142D01*
X157214285Y-88535714D01*
X157142857Y-88392857D01*
X157071428Y-88107142D01*
X157071428Y-87750000D01*
X157142857Y-87464285D01*
X157214285Y-87321428D01*
X157285714Y-87250000D01*
X157428571Y-87178571D01*
X158428571Y-87178571D02*
X159428571Y-87178571D01*
X158785714Y-88678571D01*
D11*
%TO.C,R1*%
X160833333Y-92952380D02*
X160500000Y-92476190D01*
X160261904Y-92952380D02*
X160261904Y-91952380D01*
X160642857Y-91952380D01*
X160738095Y-92000000D01*
X160785714Y-92047619D01*
X160833333Y-92142857D01*
X160833333Y-92285714D01*
X160785714Y-92380952D01*
X160738095Y-92428571D01*
X160642857Y-92476190D01*
X160261904Y-92476190D01*
X161785714Y-92952380D02*
X161214285Y-92952380D01*
X161500000Y-92952380D02*
X161500000Y-91952380D01*
X161404761Y-92095238D01*
X161309523Y-92190476D01*
X161214285Y-92238095D01*
D12*
X157185436Y-91765000D02*
X157639564Y-91765000D01*
X157185436Y-93235000D02*
X157639564Y-93235000D01*
%TD*%
M02*
