%TF.GenerationSoftware,KiCad,Pcbnew,6.0.9+dfsg-1~bpo11+1*%
%TF.CreationDate,2022-11-06T17:06:22+01:00*%
%TF.ProjectId,load,6c6f6164-2e6b-4696-9361-645f70636258,2*%
%TF.SameCoordinates,Original*%
%TF.FileFunction,Copper,L2,Bot*%
%TF.FilePolarity,Positive*%
%FSLAX46Y46*%
G04 Gerber Fmt 4.6, Leading zero omitted, Abs format (unit mm)*
G04 Created by KiCad (PCBNEW 6.0.9+dfsg-1~bpo11+1) date 2022-11-06 17:06:22*
%MOMM*%
%LPD*%
G01*
G04 APERTURE LIST*
%TA.AperFunction,ComponentPad*%
%ADD10C,3.400000*%
%TD*%
%TA.AperFunction,ComponentPad*%
%ADD11C,0.800000*%
%TD*%
%TA.AperFunction,SMDPad,CuDef*%
%ADD12R,3.000000X5.200000*%
%TD*%
%TA.AperFunction,ViaPad*%
%ADD13C,0.800000*%
%TD*%
G04 APERTURE END LIST*
D10*
%TO.P,H1,1,1*%
%TO.N,GND*%
X155000000Y-100000000D03*
%TD*%
%TO.P,H3,1,1*%
%TO.N,GND*%
X155000000Y-85000000D03*
%TD*%
D11*
%TO.P,J1,2,Pin_2*%
%TO.N,GND*%
X154500000Y-91000000D03*
X153500000Y-91000000D03*
X153000000Y-93500000D03*
X155000000Y-93500000D03*
X153000000Y-91500000D03*
D12*
X154000000Y-92500000D03*
D11*
X154500000Y-94000000D03*
X153500000Y-94000000D03*
X154000000Y-93500000D03*
X155000000Y-91500000D03*
X154000000Y-91500000D03*
%TD*%
D10*
%TO.P,H2,1,1*%
%TO.N,GND*%
X160000000Y-100000000D03*
%TD*%
%TO.P,H4,1,1*%
%TO.N,GND*%
X160000000Y-85000000D03*
%TD*%
D13*
%TO.N,GND*%
X157500000Y-91000000D03*
X159500000Y-91500000D03*
X158000000Y-92000000D03*
X158500000Y-91000000D03*
X158000000Y-93000000D03*
X156500000Y-91000000D03*
X156500000Y-94000000D03*
X155500000Y-91000000D03*
X155500000Y-94000000D03*
X159500000Y-93500000D03*
X158500000Y-94000000D03*
X159000000Y-92500000D03*
X157500000Y-94000000D03*
%TD*%
%TA.AperFunction,Conductor*%
%TO.N,GND*%
G36*
X159988169Y-82703018D02*
G01*
X159999641Y-82705656D01*
X160010517Y-82703195D01*
X160021664Y-82703214D01*
X160021664Y-82703243D01*
X160031772Y-82702422D01*
X160161986Y-82710298D01*
X160271204Y-82716905D01*
X160283056Y-82718344D01*
X160544422Y-82766241D01*
X160556015Y-82769098D01*
X160762244Y-82833361D01*
X160809695Y-82848148D01*
X160820873Y-82852387D01*
X161063170Y-82961436D01*
X161073756Y-82966992D01*
X161301142Y-83104452D01*
X161310980Y-83111243D01*
X161520132Y-83275103D01*
X161529081Y-83283030D01*
X161716970Y-83470919D01*
X161724897Y-83479868D01*
X161888757Y-83689020D01*
X161895548Y-83698858D01*
X162033008Y-83926244D01*
X162038564Y-83936830D01*
X162147613Y-84179127D01*
X162151852Y-84190305D01*
X162230900Y-84443977D01*
X162233759Y-84455578D01*
X162281655Y-84716936D01*
X162283096Y-84728803D01*
X162297547Y-84967712D01*
X162296724Y-84977628D01*
X162296862Y-84977628D01*
X162296842Y-84988776D01*
X162294344Y-84999641D01*
X162296804Y-85010513D01*
X162297059Y-85011638D01*
X162299500Y-85033488D01*
X162299500Y-99965983D01*
X162296982Y-99988169D01*
X162294344Y-99999641D01*
X162296805Y-100010517D01*
X162296786Y-100021664D01*
X162296757Y-100021664D01*
X162297578Y-100031772D01*
X162283096Y-100271197D01*
X162281656Y-100283056D01*
X162233761Y-100544415D01*
X162230900Y-100556023D01*
X162151852Y-100809695D01*
X162147613Y-100820873D01*
X162038564Y-101063170D01*
X162033008Y-101073756D01*
X161895548Y-101301142D01*
X161888757Y-101310980D01*
X161724897Y-101520132D01*
X161716970Y-101529081D01*
X161529081Y-101716970D01*
X161520132Y-101724897D01*
X161310980Y-101888757D01*
X161301142Y-101895548D01*
X161073756Y-102033008D01*
X161063170Y-102038564D01*
X160820873Y-102147613D01*
X160809695Y-102151852D01*
X160556015Y-102230902D01*
X160544422Y-102233759D01*
X160283056Y-102281656D01*
X160271204Y-102283095D01*
X160032288Y-102297547D01*
X160022372Y-102296724D01*
X160022372Y-102296862D01*
X160011224Y-102296842D01*
X160000359Y-102294344D01*
X159988359Y-102297059D01*
X159966512Y-102299500D01*
X155034017Y-102299500D01*
X155011831Y-102296982D01*
X155011801Y-102296975D01*
X155000359Y-102294344D01*
X154989483Y-102296805D01*
X154978336Y-102296786D01*
X154978336Y-102296757D01*
X154968228Y-102297578D01*
X154838014Y-102289702D01*
X154728796Y-102283095D01*
X154716944Y-102281656D01*
X154455578Y-102233759D01*
X154443985Y-102230902D01*
X154190305Y-102151852D01*
X154179127Y-102147613D01*
X153936830Y-102038564D01*
X153926244Y-102033008D01*
X153698858Y-101895548D01*
X153689020Y-101888757D01*
X153479868Y-101724897D01*
X153470919Y-101716970D01*
X153283030Y-101529081D01*
X153275103Y-101520132D01*
X153111243Y-101310980D01*
X153104452Y-101301142D01*
X152966992Y-101073756D01*
X152961436Y-101063170D01*
X152852387Y-100820873D01*
X152848148Y-100809695D01*
X152769100Y-100556023D01*
X152766239Y-100544415D01*
X152718344Y-100283056D01*
X152716904Y-100271197D01*
X152702469Y-100032548D01*
X152704207Y-100011810D01*
X152703747Y-100011757D01*
X152704389Y-100006179D01*
X152705655Y-100000718D01*
X152705656Y-100000000D01*
X152704412Y-99994545D01*
X152702980Y-99988266D01*
X152700500Y-99966248D01*
X152700500Y-85034281D01*
X152703057Y-85011926D01*
X152703141Y-85011565D01*
X152705655Y-85000718D01*
X152705656Y-85000000D01*
X152704413Y-84994549D01*
X152703791Y-84988995D01*
X152704159Y-84988954D01*
X152702438Y-84967973D01*
X152716904Y-84728804D01*
X152718345Y-84716936D01*
X152766241Y-84455578D01*
X152769100Y-84443977D01*
X152848148Y-84190305D01*
X152852387Y-84179127D01*
X152961436Y-83936830D01*
X152966992Y-83926244D01*
X153104452Y-83698858D01*
X153111243Y-83689020D01*
X153275103Y-83479868D01*
X153283030Y-83470919D01*
X153470919Y-83283030D01*
X153479868Y-83275103D01*
X153689020Y-83111243D01*
X153698858Y-83104452D01*
X153926244Y-82966992D01*
X153936830Y-82961436D01*
X154179127Y-82852387D01*
X154190305Y-82848148D01*
X154237756Y-82833361D01*
X154443985Y-82769098D01*
X154455578Y-82766241D01*
X154716944Y-82718344D01*
X154728796Y-82716905D01*
X154967712Y-82702453D01*
X154977628Y-82703276D01*
X154977628Y-82703138D01*
X154988776Y-82703158D01*
X154999641Y-82705656D01*
X155011641Y-82702941D01*
X155033488Y-82700500D01*
X159965983Y-82700500D01*
X159988169Y-82703018D01*
G37*
%TD.AperFunction*%
%TD*%
M02*
