%TF.GenerationSoftware,KiCad,Pcbnew,7.0.5+dfsg-2*%
%TF.CreationDate,2023-08-19T10:49:19+02:00*%
%TF.ProjectId,023-lumped-wilkinson-splitter,3032332d-6c75-46d7-9065-642d77696c6b,1*%
%TF.SameCoordinates,Original*%
%TF.FileFunction,Drillmap*%
%TF.FilePolarity,Positive*%
%FSLAX45Y45*%
G04 Gerber Fmt 4.5, Leading zero omitted, Abs format (unit mm)*
G04 Created by KiCad (PCBNEW 7.0.5+dfsg-2) date 2023-08-19 10:49:19*
%MOMM*%
%LPD*%
G01*
G04 APERTURE LIST*
%ADD10C,0.100000*%
%ADD11C,0.200000*%
%ADD12C,0.040000*%
G04 APERTURE END LIST*
D10*
X13750000Y-8500000D02*
G75*
G03*
X14000000Y-8750000I250000J0D01*
G01*
X15500000Y-8750000D02*
X14000000Y-8750000D01*
X14000000Y-6750000D02*
X15500000Y-6750000D01*
X15750000Y-7000000D02*
X15750000Y-8500000D01*
X13750000Y-8500000D02*
X13750000Y-7000000D01*
X15500000Y-8750000D02*
G75*
G03*
X15750000Y-8500000I0J250000D01*
G01*
X15750000Y-7000000D02*
G75*
G03*
X15500000Y-6750000I-250000J0D01*
G01*
X14000000Y-6750000D02*
G75*
G03*
X13750000Y-7000000I0J-250000D01*
G01*
D11*
D12*
X13980000Y-7230000D02*
X14020000Y-7270000D01*
X14020000Y-7230000D02*
X13980000Y-7270000D01*
X13980000Y-7480000D02*
X14020000Y-7520000D01*
X14020000Y-7480000D02*
X13980000Y-7520000D01*
X13980000Y-7980000D02*
X14020000Y-8020000D01*
X14020000Y-7980000D02*
X13980000Y-8020000D01*
X13980000Y-8230000D02*
X14020000Y-8270000D01*
X14020000Y-8230000D02*
X13980000Y-8270000D01*
X14030000Y-7580000D02*
X14070000Y-7620000D01*
X14070000Y-7580000D02*
X14030000Y-7620000D01*
X14030000Y-7880000D02*
X14070000Y-7920000D01*
X14070000Y-7880000D02*
X14030000Y-7920000D01*
X14080000Y-7630000D02*
X14120000Y-7670000D01*
X14120000Y-7630000D02*
X14080000Y-7670000D01*
X14080000Y-7830000D02*
X14120000Y-7870000D01*
X14120000Y-7830000D02*
X14080000Y-7870000D01*
X14130000Y-7580000D02*
X14170000Y-7620000D01*
X14170000Y-7580000D02*
X14130000Y-7620000D01*
X14130000Y-7880000D02*
X14170000Y-7920000D01*
X14170000Y-7880000D02*
X14130000Y-7920000D01*
X14180000Y-7630000D02*
X14220000Y-7670000D01*
X14220000Y-7630000D02*
X14180000Y-7670000D01*
X14180000Y-7830000D02*
X14220000Y-7870000D01*
X14220000Y-7830000D02*
X14180000Y-7870000D01*
X14230000Y-6980000D02*
X14270000Y-7020000D01*
X14270000Y-6980000D02*
X14230000Y-7020000D01*
X14230000Y-7580000D02*
X14270000Y-7620000D01*
X14270000Y-7580000D02*
X14230000Y-7620000D01*
X14230000Y-7980000D02*
X14270000Y-8020000D01*
X14270000Y-7980000D02*
X14230000Y-8020000D01*
X14230000Y-8230000D02*
X14270000Y-8270000D01*
X14270000Y-8230000D02*
X14230000Y-8270000D01*
X14230000Y-8480000D02*
X14270000Y-8520000D01*
X14270000Y-8480000D02*
X14230000Y-8520000D01*
X14330000Y-7580000D02*
X14370000Y-7620000D01*
X14370000Y-7580000D02*
X14330000Y-7620000D01*
X14480000Y-6980000D02*
X14520000Y-7020000D01*
X14520000Y-6980000D02*
X14480000Y-7020000D01*
X14480000Y-7980000D02*
X14520000Y-8020000D01*
X14520000Y-7980000D02*
X14480000Y-8020000D01*
X14480000Y-8230000D02*
X14520000Y-8270000D01*
X14520000Y-8230000D02*
X14480000Y-8270000D01*
X14480000Y-8480000D02*
X14520000Y-8520000D01*
X14520000Y-8480000D02*
X14480000Y-8520000D01*
X14580000Y-8230000D02*
X14620000Y-8270000D01*
X14620000Y-8230000D02*
X14580000Y-8270000D01*
X14580000Y-8330000D02*
X14620000Y-8370000D01*
X14620000Y-8330000D02*
X14580000Y-8370000D01*
X14580000Y-8430000D02*
X14620000Y-8470000D01*
X14620000Y-8430000D02*
X14580000Y-8470000D01*
X14630000Y-8180000D02*
X14670000Y-8220000D01*
X14670000Y-8180000D02*
X14630000Y-8220000D01*
X14630000Y-8280000D02*
X14670000Y-8320000D01*
X14670000Y-8280000D02*
X14630000Y-8320000D01*
X14630000Y-8380000D02*
X14670000Y-8420000D01*
X14670000Y-8380000D02*
X14630000Y-8420000D01*
X14730000Y-6980000D02*
X14770000Y-7020000D01*
X14770000Y-6980000D02*
X14730000Y-7020000D01*
X14830000Y-8180000D02*
X14870000Y-8220000D01*
X14870000Y-8180000D02*
X14830000Y-8220000D01*
X14830000Y-8280000D02*
X14870000Y-8320000D01*
X14870000Y-8280000D02*
X14830000Y-8320000D01*
X14830000Y-8380000D02*
X14870000Y-8420000D01*
X14870000Y-8380000D02*
X14830000Y-8420000D01*
X14880000Y-8230000D02*
X14920000Y-8270000D01*
X14920000Y-8230000D02*
X14880000Y-8270000D01*
X14880000Y-8330000D02*
X14920000Y-8370000D01*
X14920000Y-8330000D02*
X14880000Y-8370000D01*
X14880000Y-8430000D02*
X14920000Y-8470000D01*
X14920000Y-8430000D02*
X14880000Y-8470000D01*
X14980000Y-6980000D02*
X15020000Y-7020000D01*
X15020000Y-6980000D02*
X14980000Y-7020000D01*
X14980000Y-7230000D02*
X15020000Y-7270000D01*
X15020000Y-7230000D02*
X14980000Y-7270000D01*
X14980000Y-7480000D02*
X15020000Y-7520000D01*
X15020000Y-7480000D02*
X14980000Y-7520000D01*
X14980000Y-7980000D02*
X15020000Y-8020000D01*
X15020000Y-7980000D02*
X14980000Y-8020000D01*
X14980000Y-8230000D02*
X15020000Y-8270000D01*
X15020000Y-8230000D02*
X14980000Y-8270000D01*
X14980000Y-8480000D02*
X15020000Y-8520000D01*
X15020000Y-8480000D02*
X14980000Y-8520000D01*
X15130000Y-7580000D02*
X15170000Y-7620000D01*
X15170000Y-7580000D02*
X15130000Y-7620000D01*
X15230000Y-6980000D02*
X15270000Y-7020000D01*
X15270000Y-6980000D02*
X15230000Y-7020000D01*
X15230000Y-7230000D02*
X15270000Y-7270000D01*
X15270000Y-7230000D02*
X15230000Y-7270000D01*
X15230000Y-7480000D02*
X15270000Y-7520000D01*
X15270000Y-7480000D02*
X15230000Y-7520000D01*
X15230000Y-7580000D02*
X15270000Y-7620000D01*
X15270000Y-7580000D02*
X15230000Y-7620000D01*
X15230000Y-7980000D02*
X15270000Y-8020000D01*
X15270000Y-7980000D02*
X15230000Y-8020000D01*
X15230000Y-8230000D02*
X15270000Y-8270000D01*
X15270000Y-8230000D02*
X15230000Y-8270000D01*
X15230000Y-8480000D02*
X15270000Y-8520000D01*
X15270000Y-8480000D02*
X15230000Y-8520000D01*
X15280000Y-7630000D02*
X15320000Y-7670000D01*
X15320000Y-7630000D02*
X15280000Y-7670000D01*
X15280000Y-7830000D02*
X15320000Y-7870000D01*
X15320000Y-7830000D02*
X15280000Y-7870000D01*
X15330000Y-7580000D02*
X15370000Y-7620000D01*
X15370000Y-7580000D02*
X15330000Y-7620000D01*
X15330000Y-7880000D02*
X15370000Y-7920000D01*
X15370000Y-7880000D02*
X15330000Y-7920000D01*
X15380000Y-7630000D02*
X15420000Y-7670000D01*
X15420000Y-7630000D02*
X15380000Y-7670000D01*
X15380000Y-7830000D02*
X15420000Y-7870000D01*
X15420000Y-7830000D02*
X15380000Y-7870000D01*
X15430000Y-7580000D02*
X15470000Y-7620000D01*
X15470000Y-7580000D02*
X15430000Y-7620000D01*
X15430000Y-7880000D02*
X15470000Y-7920000D01*
X15470000Y-7880000D02*
X15430000Y-7920000D01*
X15480000Y-7230000D02*
X15520000Y-7270000D01*
X15520000Y-7230000D02*
X15480000Y-7270000D01*
X15480000Y-7480000D02*
X15520000Y-7520000D01*
X15520000Y-7480000D02*
X15480000Y-7520000D01*
X15480000Y-7980000D02*
X15520000Y-8020000D01*
X15520000Y-7980000D02*
X15480000Y-8020000D01*
X15480000Y-8230000D02*
X15520000Y-8270000D01*
X15520000Y-8230000D02*
X15480000Y-8270000D01*
X13820000Y-7650000D02*
G75*
G03*
X13820000Y-7650000I-20000J0D01*
G01*
X13820000Y-7850000D02*
G75*
G03*
X13820000Y-7850000I-20000J0D01*
G01*
X13870000Y-7600000D02*
G75*
G03*
X13870000Y-7600000I-20000J0D01*
G01*
X13870000Y-7900000D02*
G75*
G03*
X13870000Y-7900000I-20000J0D01*
G01*
X13920000Y-7650000D02*
G75*
G03*
X13920000Y-7650000I-20000J0D01*
G01*
X13920000Y-7850000D02*
G75*
G03*
X13920000Y-7850000I-20000J0D01*
G01*
X13970000Y-7600000D02*
G75*
G03*
X13970000Y-7600000I-20000J0D01*
G01*
X13970000Y-7900000D02*
G75*
G03*
X13970000Y-7900000I-20000J0D01*
G01*
X14020000Y-7650000D02*
G75*
G03*
X14020000Y-7650000I-20000J0D01*
G01*
X14020000Y-7850000D02*
G75*
G03*
X14020000Y-7850000I-20000J0D01*
G01*
X14620000Y-8550000D02*
G75*
G03*
X14620000Y-8550000I-20000J0D01*
G01*
X14620000Y-8650000D02*
G75*
G03*
X14620000Y-8650000I-20000J0D01*
G01*
X14670000Y-8500000D02*
G75*
G03*
X14670000Y-8500000I-20000J0D01*
G01*
X14670000Y-8600000D02*
G75*
G03*
X14670000Y-8600000I-20000J0D01*
G01*
X14670000Y-8700000D02*
G75*
G03*
X14670000Y-8700000I-20000J0D01*
G01*
X14870000Y-8500000D02*
G75*
G03*
X14870000Y-8500000I-20000J0D01*
G01*
X14870000Y-8600000D02*
G75*
G03*
X14870000Y-8600000I-20000J0D01*
G01*
X14870000Y-8700000D02*
G75*
G03*
X14870000Y-8700000I-20000J0D01*
G01*
X14920000Y-8550000D02*
G75*
G03*
X14920000Y-8550000I-20000J0D01*
G01*
X14920000Y-8650000D02*
G75*
G03*
X14920000Y-8650000I-20000J0D01*
G01*
X15520000Y-7650000D02*
G75*
G03*
X15520000Y-7650000I-20000J0D01*
G01*
X15520000Y-7850000D02*
G75*
G03*
X15520000Y-7850000I-20000J0D01*
G01*
X15570000Y-7600000D02*
G75*
G03*
X15570000Y-7600000I-20000J0D01*
G01*
X15570000Y-7900000D02*
G75*
G03*
X15570000Y-7900000I-20000J0D01*
G01*
X15620000Y-7650000D02*
G75*
G03*
X15620000Y-7650000I-20000J0D01*
G01*
X15620000Y-7850000D02*
G75*
G03*
X15620000Y-7850000I-20000J0D01*
G01*
X15670000Y-7600000D02*
G75*
G03*
X15670000Y-7600000I-20000J0D01*
G01*
X15670000Y-7900000D02*
G75*
G03*
X15670000Y-7900000I-20000J0D01*
G01*
X15720000Y-7650000D02*
G75*
G03*
X15720000Y-7650000I-20000J0D01*
G01*
X15720000Y-7850000D02*
G75*
G03*
X15720000Y-7850000I-20000J0D01*
G01*
D11*
X14000000Y-6900000D02*
X14000000Y-7100000D01*
X13900000Y-7000000D02*
X14100000Y-7000000D01*
X14000000Y-8400000D02*
X14000000Y-8600000D01*
X13900000Y-8500000D02*
X14100000Y-8500000D01*
X15500000Y-6900000D02*
X15500000Y-7100000D01*
X15400000Y-7000000D02*
X15600000Y-7000000D01*
X15500000Y-8400000D02*
X15500000Y-8600000D01*
X15400000Y-8500000D02*
X15600000Y-8500000D01*
X14005777Y-9066484D02*
X14005777Y-8866484D01*
X14005777Y-8866484D02*
X14053396Y-8866484D01*
X14053396Y-8866484D02*
X14081967Y-8876008D01*
X14081967Y-8876008D02*
X14101015Y-8895055D01*
X14101015Y-8895055D02*
X14110539Y-8914103D01*
X14110539Y-8914103D02*
X14120062Y-8952198D01*
X14120062Y-8952198D02*
X14120062Y-8980770D01*
X14120062Y-8980770D02*
X14110539Y-9018865D01*
X14110539Y-9018865D02*
X14101015Y-9037912D01*
X14101015Y-9037912D02*
X14081967Y-9056960D01*
X14081967Y-9056960D02*
X14053396Y-9066484D01*
X14053396Y-9066484D02*
X14005777Y-9066484D01*
X14205777Y-9066484D02*
X14205777Y-8933150D01*
X14205777Y-8971246D02*
X14215301Y-8952198D01*
X14215301Y-8952198D02*
X14224824Y-8942674D01*
X14224824Y-8942674D02*
X14243872Y-8933150D01*
X14243872Y-8933150D02*
X14262920Y-8933150D01*
X14329586Y-9066484D02*
X14329586Y-8933150D01*
X14329586Y-8866484D02*
X14320062Y-8876008D01*
X14320062Y-8876008D02*
X14329586Y-8885531D01*
X14329586Y-8885531D02*
X14339110Y-8876008D01*
X14339110Y-8876008D02*
X14329586Y-8866484D01*
X14329586Y-8866484D02*
X14329586Y-8885531D01*
X14453396Y-9066484D02*
X14434348Y-9056960D01*
X14434348Y-9056960D02*
X14424824Y-9037912D01*
X14424824Y-9037912D02*
X14424824Y-8866484D01*
X14558158Y-9066484D02*
X14539110Y-9056960D01*
X14539110Y-9056960D02*
X14529586Y-9037912D01*
X14529586Y-9037912D02*
X14529586Y-8866484D01*
X14786729Y-9066484D02*
X14786729Y-8866484D01*
X14786729Y-8866484D02*
X14853396Y-9009341D01*
X14853396Y-9009341D02*
X14920062Y-8866484D01*
X14920062Y-8866484D02*
X14920062Y-9066484D01*
X15101015Y-9066484D02*
X15101015Y-8961722D01*
X15101015Y-8961722D02*
X15091491Y-8942674D01*
X15091491Y-8942674D02*
X15072443Y-8933150D01*
X15072443Y-8933150D02*
X15034348Y-8933150D01*
X15034348Y-8933150D02*
X15015301Y-8942674D01*
X15101015Y-9056960D02*
X15081967Y-9066484D01*
X15081967Y-9066484D02*
X15034348Y-9066484D01*
X15034348Y-9066484D02*
X15015301Y-9056960D01*
X15015301Y-9056960D02*
X15005777Y-9037912D01*
X15005777Y-9037912D02*
X15005777Y-9018865D01*
X15005777Y-9018865D02*
X15015301Y-8999817D01*
X15015301Y-8999817D02*
X15034348Y-8990293D01*
X15034348Y-8990293D02*
X15081967Y-8990293D01*
X15081967Y-8990293D02*
X15101015Y-8980770D01*
X15196253Y-8933150D02*
X15196253Y-9133150D01*
X15196253Y-8942674D02*
X15215301Y-8933150D01*
X15215301Y-8933150D02*
X15253396Y-8933150D01*
X15253396Y-8933150D02*
X15272443Y-8942674D01*
X15272443Y-8942674D02*
X15281967Y-8952198D01*
X15281967Y-8952198D02*
X15291491Y-8971246D01*
X15291491Y-8971246D02*
X15291491Y-9028389D01*
X15291491Y-9028389D02*
X15281967Y-9047436D01*
X15281967Y-9047436D02*
X15272443Y-9056960D01*
X15272443Y-9056960D02*
X15253396Y-9066484D01*
X15253396Y-9066484D02*
X15215301Y-9066484D01*
X15215301Y-9066484D02*
X15196253Y-9056960D01*
X15377205Y-9047436D02*
X15386729Y-9056960D01*
X15386729Y-9056960D02*
X15377205Y-9066484D01*
X15377205Y-9066484D02*
X15367682Y-9056960D01*
X15367682Y-9056960D02*
X15377205Y-9047436D01*
X15377205Y-9047436D02*
X15377205Y-9066484D01*
X15377205Y-8942674D02*
X15386729Y-8952198D01*
X15386729Y-8952198D02*
X15377205Y-8961722D01*
X15377205Y-8961722D02*
X15367682Y-8952198D01*
X15367682Y-8952198D02*
X15377205Y-8942674D01*
X15377205Y-8942674D02*
X15377205Y-8961722D01*
D12*
X13705000Y-9375000D02*
X13745000Y-9415000D01*
X13745000Y-9375000D02*
X13705000Y-9415000D01*
D11*
X14043872Y-9286484D02*
X14062920Y-9286484D01*
X14062920Y-9286484D02*
X14081967Y-9296008D01*
X14081967Y-9296008D02*
X14091491Y-9305531D01*
X14091491Y-9305531D02*
X14101015Y-9324579D01*
X14101015Y-9324579D02*
X14110539Y-9362674D01*
X14110539Y-9362674D02*
X14110539Y-9410293D01*
X14110539Y-9410293D02*
X14101015Y-9448389D01*
X14101015Y-9448389D02*
X14091491Y-9467436D01*
X14091491Y-9467436D02*
X14081967Y-9476960D01*
X14081967Y-9476960D02*
X14062920Y-9486484D01*
X14062920Y-9486484D02*
X14043872Y-9486484D01*
X14043872Y-9486484D02*
X14024824Y-9476960D01*
X14024824Y-9476960D02*
X14015301Y-9467436D01*
X14015301Y-9467436D02*
X14005777Y-9448389D01*
X14005777Y-9448389D02*
X13996253Y-9410293D01*
X13996253Y-9410293D02*
X13996253Y-9362674D01*
X13996253Y-9362674D02*
X14005777Y-9324579D01*
X14005777Y-9324579D02*
X14015301Y-9305531D01*
X14015301Y-9305531D02*
X14024824Y-9296008D01*
X14024824Y-9296008D02*
X14043872Y-9286484D01*
X14196253Y-9467436D02*
X14205777Y-9476960D01*
X14205777Y-9476960D02*
X14196253Y-9486484D01*
X14196253Y-9486484D02*
X14186729Y-9476960D01*
X14186729Y-9476960D02*
X14196253Y-9467436D01*
X14196253Y-9467436D02*
X14196253Y-9486484D01*
X14377205Y-9353150D02*
X14377205Y-9486484D01*
X14329586Y-9276960D02*
X14281967Y-9419817D01*
X14281967Y-9419817D02*
X14405777Y-9419817D01*
X14520062Y-9286484D02*
X14539110Y-9286484D01*
X14539110Y-9286484D02*
X14558158Y-9296008D01*
X14558158Y-9296008D02*
X14567682Y-9305531D01*
X14567682Y-9305531D02*
X14577205Y-9324579D01*
X14577205Y-9324579D02*
X14586729Y-9362674D01*
X14586729Y-9362674D02*
X14586729Y-9410293D01*
X14586729Y-9410293D02*
X14577205Y-9448389D01*
X14577205Y-9448389D02*
X14567682Y-9467436D01*
X14567682Y-9467436D02*
X14558158Y-9476960D01*
X14558158Y-9476960D02*
X14539110Y-9486484D01*
X14539110Y-9486484D02*
X14520062Y-9486484D01*
X14520062Y-9486484D02*
X14501015Y-9476960D01*
X14501015Y-9476960D02*
X14491491Y-9467436D01*
X14491491Y-9467436D02*
X14481967Y-9448389D01*
X14481967Y-9448389D02*
X14472443Y-9410293D01*
X14472443Y-9410293D02*
X14472443Y-9362674D01*
X14472443Y-9362674D02*
X14481967Y-9324579D01*
X14481967Y-9324579D02*
X14491491Y-9305531D01*
X14491491Y-9305531D02*
X14501015Y-9296008D01*
X14501015Y-9296008D02*
X14520062Y-9286484D01*
X14710539Y-9286484D02*
X14729586Y-9286484D01*
X14729586Y-9286484D02*
X14748634Y-9296008D01*
X14748634Y-9296008D02*
X14758158Y-9305531D01*
X14758158Y-9305531D02*
X14767682Y-9324579D01*
X14767682Y-9324579D02*
X14777205Y-9362674D01*
X14777205Y-9362674D02*
X14777205Y-9410293D01*
X14777205Y-9410293D02*
X14767682Y-9448389D01*
X14767682Y-9448389D02*
X14758158Y-9467436D01*
X14758158Y-9467436D02*
X14748634Y-9476960D01*
X14748634Y-9476960D02*
X14729586Y-9486484D01*
X14729586Y-9486484D02*
X14710539Y-9486484D01*
X14710539Y-9486484D02*
X14691491Y-9476960D01*
X14691491Y-9476960D02*
X14681967Y-9467436D01*
X14681967Y-9467436D02*
X14672443Y-9448389D01*
X14672443Y-9448389D02*
X14662920Y-9410293D01*
X14662920Y-9410293D02*
X14662920Y-9362674D01*
X14662920Y-9362674D02*
X14672443Y-9324579D01*
X14672443Y-9324579D02*
X14681967Y-9305531D01*
X14681967Y-9305531D02*
X14691491Y-9296008D01*
X14691491Y-9296008D02*
X14710539Y-9286484D01*
X14862920Y-9486484D02*
X14862920Y-9353150D01*
X14862920Y-9372198D02*
X14872443Y-9362674D01*
X14872443Y-9362674D02*
X14891491Y-9353150D01*
X14891491Y-9353150D02*
X14920063Y-9353150D01*
X14920063Y-9353150D02*
X14939110Y-9362674D01*
X14939110Y-9362674D02*
X14948634Y-9381722D01*
X14948634Y-9381722D02*
X14948634Y-9486484D01*
X14948634Y-9381722D02*
X14958158Y-9362674D01*
X14958158Y-9362674D02*
X14977205Y-9353150D01*
X14977205Y-9353150D02*
X15005777Y-9353150D01*
X15005777Y-9353150D02*
X15024824Y-9362674D01*
X15024824Y-9362674D02*
X15034348Y-9381722D01*
X15034348Y-9381722D02*
X15034348Y-9486484D01*
X15129586Y-9486484D02*
X15129586Y-9353150D01*
X15129586Y-9372198D02*
X15139110Y-9362674D01*
X15139110Y-9362674D02*
X15158158Y-9353150D01*
X15158158Y-9353150D02*
X15186729Y-9353150D01*
X15186729Y-9353150D02*
X15205777Y-9362674D01*
X15205777Y-9362674D02*
X15215301Y-9381722D01*
X15215301Y-9381722D02*
X15215301Y-9486484D01*
X15215301Y-9381722D02*
X15224824Y-9362674D01*
X15224824Y-9362674D02*
X15243872Y-9353150D01*
X15243872Y-9353150D02*
X15272443Y-9353150D01*
X15272443Y-9353150D02*
X15291491Y-9362674D01*
X15291491Y-9362674D02*
X15301015Y-9381722D01*
X15301015Y-9381722D02*
X15301015Y-9486484D01*
X15691491Y-9276960D02*
X15520063Y-9534103D01*
X15948634Y-9286484D02*
X15967682Y-9286484D01*
X15967682Y-9286484D02*
X15986729Y-9296008D01*
X15986729Y-9296008D02*
X15996253Y-9305531D01*
X15996253Y-9305531D02*
X16005777Y-9324579D01*
X16005777Y-9324579D02*
X16015301Y-9362674D01*
X16015301Y-9362674D02*
X16015301Y-9410293D01*
X16015301Y-9410293D02*
X16005777Y-9448389D01*
X16005777Y-9448389D02*
X15996253Y-9467436D01*
X15996253Y-9467436D02*
X15986729Y-9476960D01*
X15986729Y-9476960D02*
X15967682Y-9486484D01*
X15967682Y-9486484D02*
X15948634Y-9486484D01*
X15948634Y-9486484D02*
X15929586Y-9476960D01*
X15929586Y-9476960D02*
X15920063Y-9467436D01*
X15920063Y-9467436D02*
X15910539Y-9448389D01*
X15910539Y-9448389D02*
X15901015Y-9410293D01*
X15901015Y-9410293D02*
X15901015Y-9362674D01*
X15901015Y-9362674D02*
X15910539Y-9324579D01*
X15910539Y-9324579D02*
X15920063Y-9305531D01*
X15920063Y-9305531D02*
X15929586Y-9296008D01*
X15929586Y-9296008D02*
X15948634Y-9286484D01*
X16101015Y-9467436D02*
X16110539Y-9476960D01*
X16110539Y-9476960D02*
X16101015Y-9486484D01*
X16101015Y-9486484D02*
X16091491Y-9476960D01*
X16091491Y-9476960D02*
X16101015Y-9467436D01*
X16101015Y-9467436D02*
X16101015Y-9486484D01*
X16234348Y-9286484D02*
X16253396Y-9286484D01*
X16253396Y-9286484D02*
X16272444Y-9296008D01*
X16272444Y-9296008D02*
X16281967Y-9305531D01*
X16281967Y-9305531D02*
X16291491Y-9324579D01*
X16291491Y-9324579D02*
X16301015Y-9362674D01*
X16301015Y-9362674D02*
X16301015Y-9410293D01*
X16301015Y-9410293D02*
X16291491Y-9448389D01*
X16291491Y-9448389D02*
X16281967Y-9467436D01*
X16281967Y-9467436D02*
X16272444Y-9476960D01*
X16272444Y-9476960D02*
X16253396Y-9486484D01*
X16253396Y-9486484D02*
X16234348Y-9486484D01*
X16234348Y-9486484D02*
X16215301Y-9476960D01*
X16215301Y-9476960D02*
X16205777Y-9467436D01*
X16205777Y-9467436D02*
X16196253Y-9448389D01*
X16196253Y-9448389D02*
X16186729Y-9410293D01*
X16186729Y-9410293D02*
X16186729Y-9362674D01*
X16186729Y-9362674D02*
X16196253Y-9324579D01*
X16196253Y-9324579D02*
X16205777Y-9305531D01*
X16205777Y-9305531D02*
X16215301Y-9296008D01*
X16215301Y-9296008D02*
X16234348Y-9286484D01*
X16491491Y-9486484D02*
X16377206Y-9486484D01*
X16434348Y-9486484D02*
X16434348Y-9286484D01*
X16434348Y-9286484D02*
X16415301Y-9315055D01*
X16415301Y-9315055D02*
X16396253Y-9334103D01*
X16396253Y-9334103D02*
X16377206Y-9343627D01*
X16672444Y-9286484D02*
X16577206Y-9286484D01*
X16577206Y-9286484D02*
X16567682Y-9381722D01*
X16567682Y-9381722D02*
X16577206Y-9372198D01*
X16577206Y-9372198D02*
X16596253Y-9362674D01*
X16596253Y-9362674D02*
X16643872Y-9362674D01*
X16643872Y-9362674D02*
X16662920Y-9372198D01*
X16662920Y-9372198D02*
X16672444Y-9381722D01*
X16672444Y-9381722D02*
X16681967Y-9400770D01*
X16681967Y-9400770D02*
X16681967Y-9448389D01*
X16681967Y-9448389D02*
X16672444Y-9467436D01*
X16672444Y-9467436D02*
X16662920Y-9476960D01*
X16662920Y-9476960D02*
X16643872Y-9486484D01*
X16643872Y-9486484D02*
X16596253Y-9486484D01*
X16596253Y-9486484D02*
X16577206Y-9476960D01*
X16577206Y-9476960D02*
X16567682Y-9467436D01*
X16748634Y-9286484D02*
X16881968Y-9286484D01*
X16881968Y-9286484D02*
X16796253Y-9486484D01*
X16948634Y-9286484D02*
X16948634Y-9324579D01*
X17024825Y-9286484D02*
X17024825Y-9324579D01*
X17320063Y-9562674D02*
X17310539Y-9553150D01*
X17310539Y-9553150D02*
X17291491Y-9524579D01*
X17291491Y-9524579D02*
X17281968Y-9505531D01*
X17281968Y-9505531D02*
X17272444Y-9476960D01*
X17272444Y-9476960D02*
X17262920Y-9429341D01*
X17262920Y-9429341D02*
X17262920Y-9391246D01*
X17262920Y-9391246D02*
X17272444Y-9343627D01*
X17272444Y-9343627D02*
X17281968Y-9315055D01*
X17281968Y-9315055D02*
X17291491Y-9296008D01*
X17291491Y-9296008D02*
X17310539Y-9267436D01*
X17310539Y-9267436D02*
X17320063Y-9257912D01*
X17481968Y-9286484D02*
X17443872Y-9286484D01*
X17443872Y-9286484D02*
X17424825Y-9296008D01*
X17424825Y-9296008D02*
X17415301Y-9305531D01*
X17415301Y-9305531D02*
X17396253Y-9334103D01*
X17396253Y-9334103D02*
X17386730Y-9372198D01*
X17386730Y-9372198D02*
X17386730Y-9448389D01*
X17386730Y-9448389D02*
X17396253Y-9467436D01*
X17396253Y-9467436D02*
X17405777Y-9476960D01*
X17405777Y-9476960D02*
X17424825Y-9486484D01*
X17424825Y-9486484D02*
X17462920Y-9486484D01*
X17462920Y-9486484D02*
X17481968Y-9476960D01*
X17481968Y-9476960D02*
X17491491Y-9467436D01*
X17491491Y-9467436D02*
X17501015Y-9448389D01*
X17501015Y-9448389D02*
X17501015Y-9400770D01*
X17501015Y-9400770D02*
X17491491Y-9381722D01*
X17491491Y-9381722D02*
X17481968Y-9372198D01*
X17481968Y-9372198D02*
X17462920Y-9362674D01*
X17462920Y-9362674D02*
X17424825Y-9362674D01*
X17424825Y-9362674D02*
X17405777Y-9372198D01*
X17405777Y-9372198D02*
X17396253Y-9381722D01*
X17396253Y-9381722D02*
X17386730Y-9400770D01*
X17691491Y-9486484D02*
X17577206Y-9486484D01*
X17634349Y-9486484D02*
X17634349Y-9286484D01*
X17634349Y-9286484D02*
X17615301Y-9315055D01*
X17615301Y-9315055D02*
X17596253Y-9334103D01*
X17596253Y-9334103D02*
X17577206Y-9343627D01*
X17929587Y-9486484D02*
X17929587Y-9286484D01*
X18015301Y-9486484D02*
X18015301Y-9381722D01*
X18015301Y-9381722D02*
X18005777Y-9362674D01*
X18005777Y-9362674D02*
X17986730Y-9353150D01*
X17986730Y-9353150D02*
X17958158Y-9353150D01*
X17958158Y-9353150D02*
X17939111Y-9362674D01*
X17939111Y-9362674D02*
X17929587Y-9372198D01*
X18139111Y-9486484D02*
X18120063Y-9476960D01*
X18120063Y-9476960D02*
X18110539Y-9467436D01*
X18110539Y-9467436D02*
X18101015Y-9448389D01*
X18101015Y-9448389D02*
X18101015Y-9391246D01*
X18101015Y-9391246D02*
X18110539Y-9372198D01*
X18110539Y-9372198D02*
X18120063Y-9362674D01*
X18120063Y-9362674D02*
X18139111Y-9353150D01*
X18139111Y-9353150D02*
X18167682Y-9353150D01*
X18167682Y-9353150D02*
X18186730Y-9362674D01*
X18186730Y-9362674D02*
X18196253Y-9372198D01*
X18196253Y-9372198D02*
X18205777Y-9391246D01*
X18205777Y-9391246D02*
X18205777Y-9448389D01*
X18205777Y-9448389D02*
X18196253Y-9467436D01*
X18196253Y-9467436D02*
X18186730Y-9476960D01*
X18186730Y-9476960D02*
X18167682Y-9486484D01*
X18167682Y-9486484D02*
X18139111Y-9486484D01*
X18320063Y-9486484D02*
X18301015Y-9476960D01*
X18301015Y-9476960D02*
X18291492Y-9457912D01*
X18291492Y-9457912D02*
X18291492Y-9286484D01*
X18472444Y-9476960D02*
X18453396Y-9486484D01*
X18453396Y-9486484D02*
X18415301Y-9486484D01*
X18415301Y-9486484D02*
X18396253Y-9476960D01*
X18396253Y-9476960D02*
X18386730Y-9457912D01*
X18386730Y-9457912D02*
X18386730Y-9381722D01*
X18386730Y-9381722D02*
X18396253Y-9362674D01*
X18396253Y-9362674D02*
X18415301Y-9353150D01*
X18415301Y-9353150D02*
X18453396Y-9353150D01*
X18453396Y-9353150D02*
X18472444Y-9362674D01*
X18472444Y-9362674D02*
X18481968Y-9381722D01*
X18481968Y-9381722D02*
X18481968Y-9400770D01*
X18481968Y-9400770D02*
X18386730Y-9419817D01*
X18558158Y-9476960D02*
X18577206Y-9486484D01*
X18577206Y-9486484D02*
X18615301Y-9486484D01*
X18615301Y-9486484D02*
X18634349Y-9476960D01*
X18634349Y-9476960D02*
X18643873Y-9457912D01*
X18643873Y-9457912D02*
X18643873Y-9448389D01*
X18643873Y-9448389D02*
X18634349Y-9429341D01*
X18634349Y-9429341D02*
X18615301Y-9419817D01*
X18615301Y-9419817D02*
X18586730Y-9419817D01*
X18586730Y-9419817D02*
X18567682Y-9410293D01*
X18567682Y-9410293D02*
X18558158Y-9391246D01*
X18558158Y-9391246D02*
X18558158Y-9381722D01*
X18558158Y-9381722D02*
X18567682Y-9362674D01*
X18567682Y-9362674D02*
X18586730Y-9353150D01*
X18586730Y-9353150D02*
X18615301Y-9353150D01*
X18615301Y-9353150D02*
X18634349Y-9362674D01*
X18710539Y-9562674D02*
X18720063Y-9553150D01*
X18720063Y-9553150D02*
X18739111Y-9524579D01*
X18739111Y-9524579D02*
X18748634Y-9505531D01*
X18748634Y-9505531D02*
X18758158Y-9476960D01*
X18758158Y-9476960D02*
X18767682Y-9429341D01*
X18767682Y-9429341D02*
X18767682Y-9391246D01*
X18767682Y-9391246D02*
X18758158Y-9343627D01*
X18758158Y-9343627D02*
X18748634Y-9315055D01*
X18748634Y-9315055D02*
X18739111Y-9296008D01*
X18739111Y-9296008D02*
X18720063Y-9267436D01*
X18720063Y-9267436D02*
X18710539Y-9257912D01*
D12*
X13745000Y-9659000D02*
G75*
G03*
X13745000Y-9659000I-20000J0D01*
G01*
D11*
X14043872Y-9550484D02*
X14062920Y-9550484D01*
X14062920Y-9550484D02*
X14081967Y-9560008D01*
X14081967Y-9560008D02*
X14091491Y-9569531D01*
X14091491Y-9569531D02*
X14101015Y-9588579D01*
X14101015Y-9588579D02*
X14110539Y-9626674D01*
X14110539Y-9626674D02*
X14110539Y-9674293D01*
X14110539Y-9674293D02*
X14101015Y-9712389D01*
X14101015Y-9712389D02*
X14091491Y-9731436D01*
X14091491Y-9731436D02*
X14081967Y-9740960D01*
X14081967Y-9740960D02*
X14062920Y-9750484D01*
X14062920Y-9750484D02*
X14043872Y-9750484D01*
X14043872Y-9750484D02*
X14024824Y-9740960D01*
X14024824Y-9740960D02*
X14015301Y-9731436D01*
X14015301Y-9731436D02*
X14005777Y-9712389D01*
X14005777Y-9712389D02*
X13996253Y-9674293D01*
X13996253Y-9674293D02*
X13996253Y-9626674D01*
X13996253Y-9626674D02*
X14005777Y-9588579D01*
X14005777Y-9588579D02*
X14015301Y-9569531D01*
X14015301Y-9569531D02*
X14024824Y-9560008D01*
X14024824Y-9560008D02*
X14043872Y-9550484D01*
X14196253Y-9731436D02*
X14205777Y-9740960D01*
X14205777Y-9740960D02*
X14196253Y-9750484D01*
X14196253Y-9750484D02*
X14186729Y-9740960D01*
X14186729Y-9740960D02*
X14196253Y-9731436D01*
X14196253Y-9731436D02*
X14196253Y-9750484D01*
X14377205Y-9617150D02*
X14377205Y-9750484D01*
X14329586Y-9540960D02*
X14281967Y-9683817D01*
X14281967Y-9683817D02*
X14405777Y-9683817D01*
X14520062Y-9550484D02*
X14539110Y-9550484D01*
X14539110Y-9550484D02*
X14558158Y-9560008D01*
X14558158Y-9560008D02*
X14567682Y-9569531D01*
X14567682Y-9569531D02*
X14577205Y-9588579D01*
X14577205Y-9588579D02*
X14586729Y-9626674D01*
X14586729Y-9626674D02*
X14586729Y-9674293D01*
X14586729Y-9674293D02*
X14577205Y-9712389D01*
X14577205Y-9712389D02*
X14567682Y-9731436D01*
X14567682Y-9731436D02*
X14558158Y-9740960D01*
X14558158Y-9740960D02*
X14539110Y-9750484D01*
X14539110Y-9750484D02*
X14520062Y-9750484D01*
X14520062Y-9750484D02*
X14501015Y-9740960D01*
X14501015Y-9740960D02*
X14491491Y-9731436D01*
X14491491Y-9731436D02*
X14481967Y-9712389D01*
X14481967Y-9712389D02*
X14472443Y-9674293D01*
X14472443Y-9674293D02*
X14472443Y-9626674D01*
X14472443Y-9626674D02*
X14481967Y-9588579D01*
X14481967Y-9588579D02*
X14491491Y-9569531D01*
X14491491Y-9569531D02*
X14501015Y-9560008D01*
X14501015Y-9560008D02*
X14520062Y-9550484D01*
X14710539Y-9550484D02*
X14729586Y-9550484D01*
X14729586Y-9550484D02*
X14748634Y-9560008D01*
X14748634Y-9560008D02*
X14758158Y-9569531D01*
X14758158Y-9569531D02*
X14767682Y-9588579D01*
X14767682Y-9588579D02*
X14777205Y-9626674D01*
X14777205Y-9626674D02*
X14777205Y-9674293D01*
X14777205Y-9674293D02*
X14767682Y-9712389D01*
X14767682Y-9712389D02*
X14758158Y-9731436D01*
X14758158Y-9731436D02*
X14748634Y-9740960D01*
X14748634Y-9740960D02*
X14729586Y-9750484D01*
X14729586Y-9750484D02*
X14710539Y-9750484D01*
X14710539Y-9750484D02*
X14691491Y-9740960D01*
X14691491Y-9740960D02*
X14681967Y-9731436D01*
X14681967Y-9731436D02*
X14672443Y-9712389D01*
X14672443Y-9712389D02*
X14662920Y-9674293D01*
X14662920Y-9674293D02*
X14662920Y-9626674D01*
X14662920Y-9626674D02*
X14672443Y-9588579D01*
X14672443Y-9588579D02*
X14681967Y-9569531D01*
X14681967Y-9569531D02*
X14691491Y-9560008D01*
X14691491Y-9560008D02*
X14710539Y-9550484D01*
X14862920Y-9750484D02*
X14862920Y-9617150D01*
X14862920Y-9636198D02*
X14872443Y-9626674D01*
X14872443Y-9626674D02*
X14891491Y-9617150D01*
X14891491Y-9617150D02*
X14920063Y-9617150D01*
X14920063Y-9617150D02*
X14939110Y-9626674D01*
X14939110Y-9626674D02*
X14948634Y-9645722D01*
X14948634Y-9645722D02*
X14948634Y-9750484D01*
X14948634Y-9645722D02*
X14958158Y-9626674D01*
X14958158Y-9626674D02*
X14977205Y-9617150D01*
X14977205Y-9617150D02*
X15005777Y-9617150D01*
X15005777Y-9617150D02*
X15024824Y-9626674D01*
X15024824Y-9626674D02*
X15034348Y-9645722D01*
X15034348Y-9645722D02*
X15034348Y-9750484D01*
X15129586Y-9750484D02*
X15129586Y-9617150D01*
X15129586Y-9636198D02*
X15139110Y-9626674D01*
X15139110Y-9626674D02*
X15158158Y-9617150D01*
X15158158Y-9617150D02*
X15186729Y-9617150D01*
X15186729Y-9617150D02*
X15205777Y-9626674D01*
X15205777Y-9626674D02*
X15215301Y-9645722D01*
X15215301Y-9645722D02*
X15215301Y-9750484D01*
X15215301Y-9645722D02*
X15224824Y-9626674D01*
X15224824Y-9626674D02*
X15243872Y-9617150D01*
X15243872Y-9617150D02*
X15272443Y-9617150D01*
X15272443Y-9617150D02*
X15291491Y-9626674D01*
X15291491Y-9626674D02*
X15301015Y-9645722D01*
X15301015Y-9645722D02*
X15301015Y-9750484D01*
X15691491Y-9540960D02*
X15520063Y-9798103D01*
X15948634Y-9550484D02*
X15967682Y-9550484D01*
X15967682Y-9550484D02*
X15986729Y-9560008D01*
X15986729Y-9560008D02*
X15996253Y-9569531D01*
X15996253Y-9569531D02*
X16005777Y-9588579D01*
X16005777Y-9588579D02*
X16015301Y-9626674D01*
X16015301Y-9626674D02*
X16015301Y-9674293D01*
X16015301Y-9674293D02*
X16005777Y-9712389D01*
X16005777Y-9712389D02*
X15996253Y-9731436D01*
X15996253Y-9731436D02*
X15986729Y-9740960D01*
X15986729Y-9740960D02*
X15967682Y-9750484D01*
X15967682Y-9750484D02*
X15948634Y-9750484D01*
X15948634Y-9750484D02*
X15929586Y-9740960D01*
X15929586Y-9740960D02*
X15920063Y-9731436D01*
X15920063Y-9731436D02*
X15910539Y-9712389D01*
X15910539Y-9712389D02*
X15901015Y-9674293D01*
X15901015Y-9674293D02*
X15901015Y-9626674D01*
X15901015Y-9626674D02*
X15910539Y-9588579D01*
X15910539Y-9588579D02*
X15920063Y-9569531D01*
X15920063Y-9569531D02*
X15929586Y-9560008D01*
X15929586Y-9560008D02*
X15948634Y-9550484D01*
X16101015Y-9731436D02*
X16110539Y-9740960D01*
X16110539Y-9740960D02*
X16101015Y-9750484D01*
X16101015Y-9750484D02*
X16091491Y-9740960D01*
X16091491Y-9740960D02*
X16101015Y-9731436D01*
X16101015Y-9731436D02*
X16101015Y-9750484D01*
X16234348Y-9550484D02*
X16253396Y-9550484D01*
X16253396Y-9550484D02*
X16272444Y-9560008D01*
X16272444Y-9560008D02*
X16281967Y-9569531D01*
X16281967Y-9569531D02*
X16291491Y-9588579D01*
X16291491Y-9588579D02*
X16301015Y-9626674D01*
X16301015Y-9626674D02*
X16301015Y-9674293D01*
X16301015Y-9674293D02*
X16291491Y-9712389D01*
X16291491Y-9712389D02*
X16281967Y-9731436D01*
X16281967Y-9731436D02*
X16272444Y-9740960D01*
X16272444Y-9740960D02*
X16253396Y-9750484D01*
X16253396Y-9750484D02*
X16234348Y-9750484D01*
X16234348Y-9750484D02*
X16215301Y-9740960D01*
X16215301Y-9740960D02*
X16205777Y-9731436D01*
X16205777Y-9731436D02*
X16196253Y-9712389D01*
X16196253Y-9712389D02*
X16186729Y-9674293D01*
X16186729Y-9674293D02*
X16186729Y-9626674D01*
X16186729Y-9626674D02*
X16196253Y-9588579D01*
X16196253Y-9588579D02*
X16205777Y-9569531D01*
X16205777Y-9569531D02*
X16215301Y-9560008D01*
X16215301Y-9560008D02*
X16234348Y-9550484D01*
X16491491Y-9750484D02*
X16377206Y-9750484D01*
X16434348Y-9750484D02*
X16434348Y-9550484D01*
X16434348Y-9550484D02*
X16415301Y-9579055D01*
X16415301Y-9579055D02*
X16396253Y-9598103D01*
X16396253Y-9598103D02*
X16377206Y-9607627D01*
X16672444Y-9550484D02*
X16577206Y-9550484D01*
X16577206Y-9550484D02*
X16567682Y-9645722D01*
X16567682Y-9645722D02*
X16577206Y-9636198D01*
X16577206Y-9636198D02*
X16596253Y-9626674D01*
X16596253Y-9626674D02*
X16643872Y-9626674D01*
X16643872Y-9626674D02*
X16662920Y-9636198D01*
X16662920Y-9636198D02*
X16672444Y-9645722D01*
X16672444Y-9645722D02*
X16681967Y-9664770D01*
X16681967Y-9664770D02*
X16681967Y-9712389D01*
X16681967Y-9712389D02*
X16672444Y-9731436D01*
X16672444Y-9731436D02*
X16662920Y-9740960D01*
X16662920Y-9740960D02*
X16643872Y-9750484D01*
X16643872Y-9750484D02*
X16596253Y-9750484D01*
X16596253Y-9750484D02*
X16577206Y-9740960D01*
X16577206Y-9740960D02*
X16567682Y-9731436D01*
X16748634Y-9550484D02*
X16881968Y-9550484D01*
X16881968Y-9550484D02*
X16796253Y-9750484D01*
X16948634Y-9550484D02*
X16948634Y-9588579D01*
X17024825Y-9550484D02*
X17024825Y-9588579D01*
X17320063Y-9826674D02*
X17310539Y-9817150D01*
X17310539Y-9817150D02*
X17291491Y-9788579D01*
X17291491Y-9788579D02*
X17281968Y-9769531D01*
X17281968Y-9769531D02*
X17272444Y-9740960D01*
X17272444Y-9740960D02*
X17262920Y-9693341D01*
X17262920Y-9693341D02*
X17262920Y-9655246D01*
X17262920Y-9655246D02*
X17272444Y-9607627D01*
X17272444Y-9607627D02*
X17281968Y-9579055D01*
X17281968Y-9579055D02*
X17291491Y-9560008D01*
X17291491Y-9560008D02*
X17310539Y-9531436D01*
X17310539Y-9531436D02*
X17320063Y-9521912D01*
X17377206Y-9550484D02*
X17501015Y-9550484D01*
X17501015Y-9550484D02*
X17434349Y-9626674D01*
X17434349Y-9626674D02*
X17462920Y-9626674D01*
X17462920Y-9626674D02*
X17481968Y-9636198D01*
X17481968Y-9636198D02*
X17491491Y-9645722D01*
X17491491Y-9645722D02*
X17501015Y-9664770D01*
X17501015Y-9664770D02*
X17501015Y-9712389D01*
X17501015Y-9712389D02*
X17491491Y-9731436D01*
X17491491Y-9731436D02*
X17481968Y-9740960D01*
X17481968Y-9740960D02*
X17462920Y-9750484D01*
X17462920Y-9750484D02*
X17405777Y-9750484D01*
X17405777Y-9750484D02*
X17386730Y-9740960D01*
X17386730Y-9740960D02*
X17377206Y-9731436D01*
X17624825Y-9550484D02*
X17643872Y-9550484D01*
X17643872Y-9550484D02*
X17662920Y-9560008D01*
X17662920Y-9560008D02*
X17672444Y-9569531D01*
X17672444Y-9569531D02*
X17681968Y-9588579D01*
X17681968Y-9588579D02*
X17691491Y-9626674D01*
X17691491Y-9626674D02*
X17691491Y-9674293D01*
X17691491Y-9674293D02*
X17681968Y-9712389D01*
X17681968Y-9712389D02*
X17672444Y-9731436D01*
X17672444Y-9731436D02*
X17662920Y-9740960D01*
X17662920Y-9740960D02*
X17643872Y-9750484D01*
X17643872Y-9750484D02*
X17624825Y-9750484D01*
X17624825Y-9750484D02*
X17605777Y-9740960D01*
X17605777Y-9740960D02*
X17596253Y-9731436D01*
X17596253Y-9731436D02*
X17586730Y-9712389D01*
X17586730Y-9712389D02*
X17577206Y-9674293D01*
X17577206Y-9674293D02*
X17577206Y-9626674D01*
X17577206Y-9626674D02*
X17586730Y-9588579D01*
X17586730Y-9588579D02*
X17596253Y-9569531D01*
X17596253Y-9569531D02*
X17605777Y-9560008D01*
X17605777Y-9560008D02*
X17624825Y-9550484D01*
X17929587Y-9750484D02*
X17929587Y-9550484D01*
X18015301Y-9750484D02*
X18015301Y-9645722D01*
X18015301Y-9645722D02*
X18005777Y-9626674D01*
X18005777Y-9626674D02*
X17986730Y-9617150D01*
X17986730Y-9617150D02*
X17958158Y-9617150D01*
X17958158Y-9617150D02*
X17939111Y-9626674D01*
X17939111Y-9626674D02*
X17929587Y-9636198D01*
X18139111Y-9750484D02*
X18120063Y-9740960D01*
X18120063Y-9740960D02*
X18110539Y-9731436D01*
X18110539Y-9731436D02*
X18101015Y-9712389D01*
X18101015Y-9712389D02*
X18101015Y-9655246D01*
X18101015Y-9655246D02*
X18110539Y-9636198D01*
X18110539Y-9636198D02*
X18120063Y-9626674D01*
X18120063Y-9626674D02*
X18139111Y-9617150D01*
X18139111Y-9617150D02*
X18167682Y-9617150D01*
X18167682Y-9617150D02*
X18186730Y-9626674D01*
X18186730Y-9626674D02*
X18196253Y-9636198D01*
X18196253Y-9636198D02*
X18205777Y-9655246D01*
X18205777Y-9655246D02*
X18205777Y-9712389D01*
X18205777Y-9712389D02*
X18196253Y-9731436D01*
X18196253Y-9731436D02*
X18186730Y-9740960D01*
X18186730Y-9740960D02*
X18167682Y-9750484D01*
X18167682Y-9750484D02*
X18139111Y-9750484D01*
X18320063Y-9750484D02*
X18301015Y-9740960D01*
X18301015Y-9740960D02*
X18291492Y-9721912D01*
X18291492Y-9721912D02*
X18291492Y-9550484D01*
X18472444Y-9740960D02*
X18453396Y-9750484D01*
X18453396Y-9750484D02*
X18415301Y-9750484D01*
X18415301Y-9750484D02*
X18396253Y-9740960D01*
X18396253Y-9740960D02*
X18386730Y-9721912D01*
X18386730Y-9721912D02*
X18386730Y-9645722D01*
X18386730Y-9645722D02*
X18396253Y-9626674D01*
X18396253Y-9626674D02*
X18415301Y-9617150D01*
X18415301Y-9617150D02*
X18453396Y-9617150D01*
X18453396Y-9617150D02*
X18472444Y-9626674D01*
X18472444Y-9626674D02*
X18481968Y-9645722D01*
X18481968Y-9645722D02*
X18481968Y-9664770D01*
X18481968Y-9664770D02*
X18386730Y-9683817D01*
X18558158Y-9740960D02*
X18577206Y-9750484D01*
X18577206Y-9750484D02*
X18615301Y-9750484D01*
X18615301Y-9750484D02*
X18634349Y-9740960D01*
X18634349Y-9740960D02*
X18643873Y-9721912D01*
X18643873Y-9721912D02*
X18643873Y-9712389D01*
X18643873Y-9712389D02*
X18634349Y-9693341D01*
X18634349Y-9693341D02*
X18615301Y-9683817D01*
X18615301Y-9683817D02*
X18586730Y-9683817D01*
X18586730Y-9683817D02*
X18567682Y-9674293D01*
X18567682Y-9674293D02*
X18558158Y-9655246D01*
X18558158Y-9655246D02*
X18558158Y-9645722D01*
X18558158Y-9645722D02*
X18567682Y-9626674D01*
X18567682Y-9626674D02*
X18586730Y-9617150D01*
X18586730Y-9617150D02*
X18615301Y-9617150D01*
X18615301Y-9617150D02*
X18634349Y-9626674D01*
X18710539Y-9826674D02*
X18720063Y-9817150D01*
X18720063Y-9817150D02*
X18739111Y-9788579D01*
X18739111Y-9788579D02*
X18748634Y-9769531D01*
X18748634Y-9769531D02*
X18758158Y-9740960D01*
X18758158Y-9740960D02*
X18767682Y-9693341D01*
X18767682Y-9693341D02*
X18767682Y-9655246D01*
X18767682Y-9655246D02*
X18758158Y-9607627D01*
X18758158Y-9607627D02*
X18748634Y-9579055D01*
X18748634Y-9579055D02*
X18739111Y-9560008D01*
X18739111Y-9560008D02*
X18720063Y-9531436D01*
X18720063Y-9531436D02*
X18710539Y-9521912D01*
X13645000Y-9823000D02*
X13645000Y-10023000D01*
X13545000Y-9923000D02*
X13745000Y-9923000D01*
X13996253Y-9833531D02*
X14005777Y-9824008D01*
X14005777Y-9824008D02*
X14024824Y-9814484D01*
X14024824Y-9814484D02*
X14072443Y-9814484D01*
X14072443Y-9814484D02*
X14091491Y-9824008D01*
X14091491Y-9824008D02*
X14101015Y-9833531D01*
X14101015Y-9833531D02*
X14110539Y-9852579D01*
X14110539Y-9852579D02*
X14110539Y-9871627D01*
X14110539Y-9871627D02*
X14101015Y-9900198D01*
X14101015Y-9900198D02*
X13986729Y-10014484D01*
X13986729Y-10014484D02*
X14110539Y-10014484D01*
X14196253Y-9995436D02*
X14205777Y-10004960D01*
X14205777Y-10004960D02*
X14196253Y-10014484D01*
X14196253Y-10014484D02*
X14186729Y-10004960D01*
X14186729Y-10004960D02*
X14196253Y-9995436D01*
X14196253Y-9995436D02*
X14196253Y-10014484D01*
X14329586Y-9814484D02*
X14348634Y-9814484D01*
X14348634Y-9814484D02*
X14367682Y-9824008D01*
X14367682Y-9824008D02*
X14377205Y-9833531D01*
X14377205Y-9833531D02*
X14386729Y-9852579D01*
X14386729Y-9852579D02*
X14396253Y-9890674D01*
X14396253Y-9890674D02*
X14396253Y-9938293D01*
X14396253Y-9938293D02*
X14386729Y-9976389D01*
X14386729Y-9976389D02*
X14377205Y-9995436D01*
X14377205Y-9995436D02*
X14367682Y-10004960D01*
X14367682Y-10004960D02*
X14348634Y-10014484D01*
X14348634Y-10014484D02*
X14329586Y-10014484D01*
X14329586Y-10014484D02*
X14310539Y-10004960D01*
X14310539Y-10004960D02*
X14301015Y-9995436D01*
X14301015Y-9995436D02*
X14291491Y-9976389D01*
X14291491Y-9976389D02*
X14281967Y-9938293D01*
X14281967Y-9938293D02*
X14281967Y-9890674D01*
X14281967Y-9890674D02*
X14291491Y-9852579D01*
X14291491Y-9852579D02*
X14301015Y-9833531D01*
X14301015Y-9833531D02*
X14310539Y-9824008D01*
X14310539Y-9824008D02*
X14329586Y-9814484D01*
X14520062Y-9814484D02*
X14539110Y-9814484D01*
X14539110Y-9814484D02*
X14558158Y-9824008D01*
X14558158Y-9824008D02*
X14567682Y-9833531D01*
X14567682Y-9833531D02*
X14577205Y-9852579D01*
X14577205Y-9852579D02*
X14586729Y-9890674D01*
X14586729Y-9890674D02*
X14586729Y-9938293D01*
X14586729Y-9938293D02*
X14577205Y-9976389D01*
X14577205Y-9976389D02*
X14567682Y-9995436D01*
X14567682Y-9995436D02*
X14558158Y-10004960D01*
X14558158Y-10004960D02*
X14539110Y-10014484D01*
X14539110Y-10014484D02*
X14520062Y-10014484D01*
X14520062Y-10014484D02*
X14501015Y-10004960D01*
X14501015Y-10004960D02*
X14491491Y-9995436D01*
X14491491Y-9995436D02*
X14481967Y-9976389D01*
X14481967Y-9976389D02*
X14472443Y-9938293D01*
X14472443Y-9938293D02*
X14472443Y-9890674D01*
X14472443Y-9890674D02*
X14481967Y-9852579D01*
X14481967Y-9852579D02*
X14491491Y-9833531D01*
X14491491Y-9833531D02*
X14501015Y-9824008D01*
X14501015Y-9824008D02*
X14520062Y-9814484D01*
X14710539Y-9814484D02*
X14729586Y-9814484D01*
X14729586Y-9814484D02*
X14748634Y-9824008D01*
X14748634Y-9824008D02*
X14758158Y-9833531D01*
X14758158Y-9833531D02*
X14767682Y-9852579D01*
X14767682Y-9852579D02*
X14777205Y-9890674D01*
X14777205Y-9890674D02*
X14777205Y-9938293D01*
X14777205Y-9938293D02*
X14767682Y-9976389D01*
X14767682Y-9976389D02*
X14758158Y-9995436D01*
X14758158Y-9995436D02*
X14748634Y-10004960D01*
X14748634Y-10004960D02*
X14729586Y-10014484D01*
X14729586Y-10014484D02*
X14710539Y-10014484D01*
X14710539Y-10014484D02*
X14691491Y-10004960D01*
X14691491Y-10004960D02*
X14681967Y-9995436D01*
X14681967Y-9995436D02*
X14672443Y-9976389D01*
X14672443Y-9976389D02*
X14662920Y-9938293D01*
X14662920Y-9938293D02*
X14662920Y-9890674D01*
X14662920Y-9890674D02*
X14672443Y-9852579D01*
X14672443Y-9852579D02*
X14681967Y-9833531D01*
X14681967Y-9833531D02*
X14691491Y-9824008D01*
X14691491Y-9824008D02*
X14710539Y-9814484D01*
X14862920Y-10014484D02*
X14862920Y-9881150D01*
X14862920Y-9900198D02*
X14872443Y-9890674D01*
X14872443Y-9890674D02*
X14891491Y-9881150D01*
X14891491Y-9881150D02*
X14920063Y-9881150D01*
X14920063Y-9881150D02*
X14939110Y-9890674D01*
X14939110Y-9890674D02*
X14948634Y-9909722D01*
X14948634Y-9909722D02*
X14948634Y-10014484D01*
X14948634Y-9909722D02*
X14958158Y-9890674D01*
X14958158Y-9890674D02*
X14977205Y-9881150D01*
X14977205Y-9881150D02*
X15005777Y-9881150D01*
X15005777Y-9881150D02*
X15024824Y-9890674D01*
X15024824Y-9890674D02*
X15034348Y-9909722D01*
X15034348Y-9909722D02*
X15034348Y-10014484D01*
X15129586Y-10014484D02*
X15129586Y-9881150D01*
X15129586Y-9900198D02*
X15139110Y-9890674D01*
X15139110Y-9890674D02*
X15158158Y-9881150D01*
X15158158Y-9881150D02*
X15186729Y-9881150D01*
X15186729Y-9881150D02*
X15205777Y-9890674D01*
X15205777Y-9890674D02*
X15215301Y-9909722D01*
X15215301Y-9909722D02*
X15215301Y-10014484D01*
X15215301Y-9909722D02*
X15224824Y-9890674D01*
X15224824Y-9890674D02*
X15243872Y-9881150D01*
X15243872Y-9881150D02*
X15272443Y-9881150D01*
X15272443Y-9881150D02*
X15291491Y-9890674D01*
X15291491Y-9890674D02*
X15301015Y-9909722D01*
X15301015Y-9909722D02*
X15301015Y-10014484D01*
X15691491Y-9804960D02*
X15520063Y-10062103D01*
X15948634Y-9814484D02*
X15967682Y-9814484D01*
X15967682Y-9814484D02*
X15986729Y-9824008D01*
X15986729Y-9824008D02*
X15996253Y-9833531D01*
X15996253Y-9833531D02*
X16005777Y-9852579D01*
X16005777Y-9852579D02*
X16015301Y-9890674D01*
X16015301Y-9890674D02*
X16015301Y-9938293D01*
X16015301Y-9938293D02*
X16005777Y-9976389D01*
X16005777Y-9976389D02*
X15996253Y-9995436D01*
X15996253Y-9995436D02*
X15986729Y-10004960D01*
X15986729Y-10004960D02*
X15967682Y-10014484D01*
X15967682Y-10014484D02*
X15948634Y-10014484D01*
X15948634Y-10014484D02*
X15929586Y-10004960D01*
X15929586Y-10004960D02*
X15920063Y-9995436D01*
X15920063Y-9995436D02*
X15910539Y-9976389D01*
X15910539Y-9976389D02*
X15901015Y-9938293D01*
X15901015Y-9938293D02*
X15901015Y-9890674D01*
X15901015Y-9890674D02*
X15910539Y-9852579D01*
X15910539Y-9852579D02*
X15920063Y-9833531D01*
X15920063Y-9833531D02*
X15929586Y-9824008D01*
X15929586Y-9824008D02*
X15948634Y-9814484D01*
X16101015Y-9995436D02*
X16110539Y-10004960D01*
X16110539Y-10004960D02*
X16101015Y-10014484D01*
X16101015Y-10014484D02*
X16091491Y-10004960D01*
X16091491Y-10004960D02*
X16101015Y-9995436D01*
X16101015Y-9995436D02*
X16101015Y-10014484D01*
X16234348Y-9814484D02*
X16253396Y-9814484D01*
X16253396Y-9814484D02*
X16272444Y-9824008D01*
X16272444Y-9824008D02*
X16281967Y-9833531D01*
X16281967Y-9833531D02*
X16291491Y-9852579D01*
X16291491Y-9852579D02*
X16301015Y-9890674D01*
X16301015Y-9890674D02*
X16301015Y-9938293D01*
X16301015Y-9938293D02*
X16291491Y-9976389D01*
X16291491Y-9976389D02*
X16281967Y-9995436D01*
X16281967Y-9995436D02*
X16272444Y-10004960D01*
X16272444Y-10004960D02*
X16253396Y-10014484D01*
X16253396Y-10014484D02*
X16234348Y-10014484D01*
X16234348Y-10014484D02*
X16215301Y-10004960D01*
X16215301Y-10004960D02*
X16205777Y-9995436D01*
X16205777Y-9995436D02*
X16196253Y-9976389D01*
X16196253Y-9976389D02*
X16186729Y-9938293D01*
X16186729Y-9938293D02*
X16186729Y-9890674D01*
X16186729Y-9890674D02*
X16196253Y-9852579D01*
X16196253Y-9852579D02*
X16205777Y-9833531D01*
X16205777Y-9833531D02*
X16215301Y-9824008D01*
X16215301Y-9824008D02*
X16234348Y-9814484D01*
X16367682Y-9814484D02*
X16501015Y-9814484D01*
X16501015Y-9814484D02*
X16415301Y-10014484D01*
X16605777Y-9900198D02*
X16586729Y-9890674D01*
X16586729Y-9890674D02*
X16577206Y-9881150D01*
X16577206Y-9881150D02*
X16567682Y-9862103D01*
X16567682Y-9862103D02*
X16567682Y-9852579D01*
X16567682Y-9852579D02*
X16577206Y-9833531D01*
X16577206Y-9833531D02*
X16586729Y-9824008D01*
X16586729Y-9824008D02*
X16605777Y-9814484D01*
X16605777Y-9814484D02*
X16643872Y-9814484D01*
X16643872Y-9814484D02*
X16662920Y-9824008D01*
X16662920Y-9824008D02*
X16672444Y-9833531D01*
X16672444Y-9833531D02*
X16681967Y-9852579D01*
X16681967Y-9852579D02*
X16681967Y-9862103D01*
X16681967Y-9862103D02*
X16672444Y-9881150D01*
X16672444Y-9881150D02*
X16662920Y-9890674D01*
X16662920Y-9890674D02*
X16643872Y-9900198D01*
X16643872Y-9900198D02*
X16605777Y-9900198D01*
X16605777Y-9900198D02*
X16586729Y-9909722D01*
X16586729Y-9909722D02*
X16577206Y-9919246D01*
X16577206Y-9919246D02*
X16567682Y-9938293D01*
X16567682Y-9938293D02*
X16567682Y-9976389D01*
X16567682Y-9976389D02*
X16577206Y-9995436D01*
X16577206Y-9995436D02*
X16586729Y-10004960D01*
X16586729Y-10004960D02*
X16605777Y-10014484D01*
X16605777Y-10014484D02*
X16643872Y-10014484D01*
X16643872Y-10014484D02*
X16662920Y-10004960D01*
X16662920Y-10004960D02*
X16672444Y-9995436D01*
X16672444Y-9995436D02*
X16681967Y-9976389D01*
X16681967Y-9976389D02*
X16681967Y-9938293D01*
X16681967Y-9938293D02*
X16672444Y-9919246D01*
X16672444Y-9919246D02*
X16662920Y-9909722D01*
X16662920Y-9909722D02*
X16643872Y-9900198D01*
X16748634Y-9814484D02*
X16881968Y-9814484D01*
X16881968Y-9814484D02*
X16796253Y-10014484D01*
X16948634Y-9814484D02*
X16948634Y-9852579D01*
X17024825Y-9814484D02*
X17024825Y-9852579D01*
X17320063Y-10090674D02*
X17310539Y-10081150D01*
X17310539Y-10081150D02*
X17291491Y-10052579D01*
X17291491Y-10052579D02*
X17281968Y-10033531D01*
X17281968Y-10033531D02*
X17272444Y-10004960D01*
X17272444Y-10004960D02*
X17262920Y-9957341D01*
X17262920Y-9957341D02*
X17262920Y-9919246D01*
X17262920Y-9919246D02*
X17272444Y-9871627D01*
X17272444Y-9871627D02*
X17281968Y-9843055D01*
X17281968Y-9843055D02*
X17291491Y-9824008D01*
X17291491Y-9824008D02*
X17310539Y-9795436D01*
X17310539Y-9795436D02*
X17320063Y-9785912D01*
X17481968Y-9881150D02*
X17481968Y-10014484D01*
X17434349Y-9804960D02*
X17386730Y-9947817D01*
X17386730Y-9947817D02*
X17510539Y-9947817D01*
X17739111Y-10014484D02*
X17739111Y-9814484D01*
X17824825Y-10014484D02*
X17824825Y-9909722D01*
X17824825Y-9909722D02*
X17815301Y-9890674D01*
X17815301Y-9890674D02*
X17796253Y-9881150D01*
X17796253Y-9881150D02*
X17767682Y-9881150D01*
X17767682Y-9881150D02*
X17748634Y-9890674D01*
X17748634Y-9890674D02*
X17739111Y-9900198D01*
X17948634Y-10014484D02*
X17929587Y-10004960D01*
X17929587Y-10004960D02*
X17920063Y-9995436D01*
X17920063Y-9995436D02*
X17910539Y-9976389D01*
X17910539Y-9976389D02*
X17910539Y-9919246D01*
X17910539Y-9919246D02*
X17920063Y-9900198D01*
X17920063Y-9900198D02*
X17929587Y-9890674D01*
X17929587Y-9890674D02*
X17948634Y-9881150D01*
X17948634Y-9881150D02*
X17977206Y-9881150D01*
X17977206Y-9881150D02*
X17996253Y-9890674D01*
X17996253Y-9890674D02*
X18005777Y-9900198D01*
X18005777Y-9900198D02*
X18015301Y-9919246D01*
X18015301Y-9919246D02*
X18015301Y-9976389D01*
X18015301Y-9976389D02*
X18005777Y-9995436D01*
X18005777Y-9995436D02*
X17996253Y-10004960D01*
X17996253Y-10004960D02*
X17977206Y-10014484D01*
X17977206Y-10014484D02*
X17948634Y-10014484D01*
X18129587Y-10014484D02*
X18110539Y-10004960D01*
X18110539Y-10004960D02*
X18101015Y-9985912D01*
X18101015Y-9985912D02*
X18101015Y-9814484D01*
X18281968Y-10004960D02*
X18262920Y-10014484D01*
X18262920Y-10014484D02*
X18224825Y-10014484D01*
X18224825Y-10014484D02*
X18205777Y-10004960D01*
X18205777Y-10004960D02*
X18196253Y-9985912D01*
X18196253Y-9985912D02*
X18196253Y-9909722D01*
X18196253Y-9909722D02*
X18205777Y-9890674D01*
X18205777Y-9890674D02*
X18224825Y-9881150D01*
X18224825Y-9881150D02*
X18262920Y-9881150D01*
X18262920Y-9881150D02*
X18281968Y-9890674D01*
X18281968Y-9890674D02*
X18291492Y-9909722D01*
X18291492Y-9909722D02*
X18291492Y-9928770D01*
X18291492Y-9928770D02*
X18196253Y-9947817D01*
X18367682Y-10004960D02*
X18386730Y-10014484D01*
X18386730Y-10014484D02*
X18424825Y-10014484D01*
X18424825Y-10014484D02*
X18443873Y-10004960D01*
X18443873Y-10004960D02*
X18453396Y-9985912D01*
X18453396Y-9985912D02*
X18453396Y-9976389D01*
X18453396Y-9976389D02*
X18443873Y-9957341D01*
X18443873Y-9957341D02*
X18424825Y-9947817D01*
X18424825Y-9947817D02*
X18396253Y-9947817D01*
X18396253Y-9947817D02*
X18377206Y-9938293D01*
X18377206Y-9938293D02*
X18367682Y-9919246D01*
X18367682Y-9919246D02*
X18367682Y-9909722D01*
X18367682Y-9909722D02*
X18377206Y-9890674D01*
X18377206Y-9890674D02*
X18396253Y-9881150D01*
X18396253Y-9881150D02*
X18424825Y-9881150D01*
X18424825Y-9881150D02*
X18443873Y-9890674D01*
X18520063Y-10090674D02*
X18529587Y-10081150D01*
X18529587Y-10081150D02*
X18548634Y-10052579D01*
X18548634Y-10052579D02*
X18558158Y-10033531D01*
X18558158Y-10033531D02*
X18567682Y-10004960D01*
X18567682Y-10004960D02*
X18577206Y-9957341D01*
X18577206Y-9957341D02*
X18577206Y-9919246D01*
X18577206Y-9919246D02*
X18567682Y-9871627D01*
X18567682Y-9871627D02*
X18558158Y-9843055D01*
X18558158Y-9843055D02*
X18548634Y-9824008D01*
X18548634Y-9824008D02*
X18529587Y-9795436D01*
X18529587Y-9795436D02*
X18520063Y-9785912D01*
M02*
