M48
; DRILL file {KiCad 7.0.5+dfsg-2} date sob, 19 sie 2023, 10:49:18
; FORMAT={-:-/ absolute / inch / decimal}
; #@! TF.CreationDate,2023-08-19T10:49:18+02:00
; #@! TF.GenerationSoftware,Kicad,Pcbnew,7.0.5+dfsg-2
; #@! TF.FileFunction,Plated,1,2,PTH
FMAT,2
INCH
; #@! TA.AperFunction,Plated,PTH,ViaDrill
T1C0.0157
; #@! TA.AperFunction,Plated,PTH,ComponentDrill
T2C0.0157
; #@! TA.AperFunction,Plated,PTH,ComponentDrill
T3C0.0787
%
G90
G05
T1
X5.5118Y-2.8543
X5.5118Y-2.9528
X5.5118Y-3.1496
X5.5118Y-3.248
X5.5315Y-2.9921
X5.5315Y-3.1102
X5.5512Y-3.0118
X5.5512Y-3.0906
X5.5709Y-2.9921
X5.5709Y-3.1102
X5.5906Y-3.0118
X5.5906Y-3.0906
X5.6102Y-2.7559
X5.6102Y-2.9921
X5.6102Y-3.1496
X5.6102Y-3.248
X5.6102Y-3.3465
X5.6496Y-2.9921
X5.7087Y-2.7559
X5.7087Y-3.1496
X5.7087Y-3.248
X5.7087Y-3.3465
X5.748Y-3.248
X5.748Y-3.2874
X5.748Y-3.3268
X5.7677Y-3.2283
X5.7677Y-3.2677
X5.7677Y-3.3071
X5.8071Y-2.7559
X5.8465Y-3.2283
X5.8465Y-3.2677
X5.8465Y-3.3071
X5.8661Y-3.248
X5.8661Y-3.2874
X5.8661Y-3.3268
X5.9055Y-2.7559
X5.9055Y-2.8543
X5.9055Y-2.9528
X5.9055Y-3.1496
X5.9055Y-3.248
X5.9055Y-3.3465
X5.9646Y-2.9921
X6.0039Y-2.7559
X6.0039Y-2.8543
X6.0039Y-2.9528
X6.0039Y-2.9921
X6.0039Y-3.1496
X6.0039Y-3.248
X6.0039Y-3.3465
X6.0236Y-3.0118
X6.0236Y-3.0906
X6.0433Y-2.9921
X6.0433Y-3.1102
X6.063Y-3.0118
X6.063Y-3.0906
X6.0827Y-2.9921
X6.0827Y-3.1102
X6.1024Y-2.8543
X6.1024Y-2.9528
X6.1024Y-3.1496
X6.1024Y-3.248
T2
X5.4331Y-3.0118
X5.4331Y-3.0906
X5.4528Y-2.9921
X5.4528Y-3.1102
X5.4724Y-3.0118
X5.4724Y-3.0906
X5.4921Y-2.9921
X5.4921Y-3.1102
X5.5118Y-3.0118
X5.5118Y-3.0906
X5.748Y-3.3661
X5.748Y-3.4055
X5.7677Y-3.3465
X5.7677Y-3.3858
X5.7677Y-3.4252
X5.8465Y-3.3465
X5.8465Y-3.3858
X5.8465Y-3.4252
X5.8661Y-3.3661
X5.8661Y-3.4055
X6.1024Y-3.0118
X6.1024Y-3.0906
X6.122Y-2.9921
X6.122Y-3.1102
X6.1417Y-3.0118
X6.1417Y-3.0906
X6.1614Y-2.9921
X6.1614Y-3.1102
X6.1811Y-3.0118
X6.1811Y-3.0906
T3
X5.5118Y-2.7559
X5.5118Y-3.3465
X6.1024Y-2.7559
X6.1024Y-3.3465
T0
M30
