%TF.GenerationSoftware,KiCad,Pcbnew,6.0.1-79c1e3a40b~116~ubuntu20.04.1*%
%TF.CreationDate,2022-01-31T13:36:18+01:00*%
%TF.ProjectId,pcb-connector,7063622d-636f-46e6-9e65-63746f722e6b,1*%
%TF.SameCoordinates,Original*%
%TF.FileFunction,Soldermask,Bot*%
%TF.FilePolarity,Negative*%
%FSLAX46Y46*%
G04 Gerber Fmt 4.6, Leading zero omitted, Abs format (unit mm)*
G04 Created by KiCad (PCBNEW 6.0.1-79c1e3a40b~116~ubuntu20.04.1) date 2022-01-31 13:36:18*
%MOMM*%
%LPD*%
G01*
G04 APERTURE LIST*
%ADD10C,3.400000*%
G04 APERTURE END LIST*
D10*
%TO.C,H1*%
X145000000Y-75000000D03*
%TD*%
%TO.C,H4*%
X145000000Y-90000000D03*
%TD*%
%TO.C,H3*%
X150000000Y-75000000D03*
%TD*%
%TO.C,H2*%
X150000000Y-90000000D03*
%TD*%
G36*
X149942121Y-78756187D02*
G01*
X149988614Y-78809843D01*
X150000000Y-78862185D01*
X150000000Y-87981885D01*
X150004475Y-87997124D01*
X150007518Y-87999761D01*
X150011442Y-88000750D01*
X150252810Y-88016570D01*
X150269150Y-88018721D01*
X150509540Y-88066537D01*
X150525460Y-88070803D01*
X150757542Y-88149584D01*
X150772770Y-88155891D01*
X150992596Y-88264298D01*
X151006869Y-88272539D01*
X151210658Y-88408706D01*
X151223733Y-88418739D01*
X151313070Y-88497085D01*
X151351098Y-88557038D01*
X151350676Y-88628034D01*
X151319088Y-88680912D01*
X148536905Y-91463095D01*
X148474593Y-91497121D01*
X148447810Y-91500000D01*
X146552190Y-91500000D01*
X146484069Y-91479998D01*
X146463095Y-91463095D01*
X143680912Y-88680912D01*
X143646886Y-88618600D01*
X143651951Y-88547785D01*
X143686930Y-88497085D01*
X143776267Y-88418739D01*
X143789342Y-88408706D01*
X143993134Y-88272537D01*
X144007408Y-88264296D01*
X144227226Y-88155894D01*
X144242452Y-88149587D01*
X144474541Y-88070803D01*
X144490462Y-88066537D01*
X144730850Y-88018721D01*
X144747190Y-88016570D01*
X144981921Y-88001185D01*
X144996838Y-87995722D01*
X144999271Y-87992513D01*
X145000000Y-87988537D01*
X145000000Y-79116185D01*
X145020002Y-79048064D01*
X145073658Y-79001571D01*
X145126000Y-78990185D01*
X148981885Y-78990185D01*
X148997124Y-78985710D01*
X148998329Y-78984320D01*
X149000000Y-78976637D01*
X149000000Y-78862185D01*
X149020002Y-78794064D01*
X149073658Y-78747571D01*
X149126000Y-78736185D01*
X149874000Y-78736185D01*
X149942121Y-78756187D01*
G37*
G36*
X150094514Y-76766002D02*
G01*
X150141007Y-76819658D01*
X150151111Y-76889932D01*
X150121617Y-76954512D01*
X150061891Y-76992896D01*
X150034634Y-76997730D01*
X150018079Y-76998815D01*
X150003162Y-77004278D01*
X150000729Y-77007487D01*
X150000000Y-77011463D01*
X150000000Y-79128000D01*
X149979998Y-79196121D01*
X149926342Y-79242614D01*
X149874000Y-79254000D01*
X149003088Y-79254000D01*
X148996906Y-79253848D01*
X148981291Y-79253081D01*
X148968985Y-79251869D01*
X148956574Y-79250028D01*
X148944448Y-79247616D01*
X148932267Y-79244565D01*
X148920435Y-79240976D01*
X148908629Y-79236752D01*
X148897194Y-79232015D01*
X148893110Y-79230083D01*
X148840085Y-79182872D01*
X148821002Y-79114488D01*
X148841920Y-79046643D01*
X148896197Y-79000877D01*
X148946991Y-78990185D01*
X148981885Y-78990185D01*
X148997124Y-78985710D01*
X148998329Y-78984320D01*
X149000000Y-78976637D01*
X149000000Y-77018115D01*
X148995525Y-77002876D01*
X148994135Y-77001671D01*
X148986452Y-77000000D01*
X148979162Y-77000000D01*
X148911041Y-76979998D01*
X148864548Y-76926342D01*
X148854444Y-76856068D01*
X148883938Y-76791488D01*
X148943664Y-76753104D01*
X148960671Y-76749364D01*
X148968982Y-76748131D01*
X148981291Y-76746919D01*
X148996906Y-76746152D01*
X149003088Y-76746000D01*
X150026393Y-76746000D01*
X150094514Y-76766002D01*
G37*
G36*
X148515931Y-73520002D02*
G01*
X148536905Y-73536905D01*
X151319088Y-76319088D01*
X151353114Y-76381400D01*
X151348049Y-76452215D01*
X151313070Y-76502915D01*
X151223733Y-76581261D01*
X151210658Y-76591294D01*
X151006866Y-76727463D01*
X150992592Y-76735704D01*
X150772774Y-76844106D01*
X150757548Y-76850413D01*
X150525459Y-76929197D01*
X150509538Y-76933463D01*
X150269150Y-76981279D01*
X150252810Y-76983430D01*
X150018079Y-76998815D01*
X150003162Y-77004278D01*
X150000729Y-77007487D01*
X150000000Y-77011463D01*
X150000000Y-77128000D01*
X149979998Y-77196121D01*
X149926342Y-77242614D01*
X149874000Y-77254000D01*
X149126000Y-77254000D01*
X149057879Y-77233998D01*
X149011386Y-77180342D01*
X149000000Y-77128000D01*
X149000000Y-77018115D01*
X148995525Y-77002876D01*
X148994135Y-77001671D01*
X148986452Y-77000000D01*
X146018115Y-77000000D01*
X146002876Y-77004475D01*
X146001671Y-77005865D01*
X146000000Y-77013548D01*
X146000000Y-77128000D01*
X145979998Y-77196121D01*
X145926342Y-77242614D01*
X145874000Y-77254000D01*
X145126000Y-77254000D01*
X145057879Y-77233998D01*
X145011386Y-77180342D01*
X145000000Y-77128000D01*
X145000000Y-77018115D01*
X144995525Y-77002876D01*
X144992482Y-77000239D01*
X144988558Y-76999250D01*
X144747190Y-76983430D01*
X144730850Y-76981279D01*
X144490460Y-76933463D01*
X144474540Y-76929197D01*
X144242458Y-76850416D01*
X144227230Y-76844109D01*
X144007404Y-76735702D01*
X143993131Y-76727461D01*
X143789342Y-76591294D01*
X143776267Y-76581261D01*
X143686930Y-76502915D01*
X143648902Y-76442962D01*
X143649324Y-76371966D01*
X143680912Y-76319088D01*
X146463095Y-73536905D01*
X146525407Y-73502879D01*
X146552190Y-73500000D01*
X148447810Y-73500000D01*
X148515931Y-73520002D01*
G37*
G36*
X146003094Y-76746152D02*
G01*
X146018709Y-76746919D01*
X146031018Y-76748131D01*
X146039329Y-76749364D01*
X146103777Y-76779146D01*
X146141892Y-76839044D01*
X146141574Y-76910040D01*
X146102923Y-76969593D01*
X146038210Y-76998797D01*
X146020838Y-77000000D01*
X146018115Y-77000000D01*
X146002876Y-77004475D01*
X146001671Y-77005865D01*
X146000000Y-77013548D01*
X146000000Y-78972070D01*
X146004475Y-78987309D01*
X146005865Y-78988514D01*
X146013548Y-78990185D01*
X146053009Y-78990185D01*
X146121130Y-79010187D01*
X146167623Y-79063843D01*
X146177727Y-79134117D01*
X146148233Y-79198697D01*
X146106890Y-79230083D01*
X146102806Y-79232015D01*
X146091371Y-79236752D01*
X146079565Y-79240976D01*
X146067733Y-79244565D01*
X146055552Y-79247616D01*
X146043426Y-79250028D01*
X146031015Y-79251869D01*
X146018709Y-79253081D01*
X146003094Y-79253848D01*
X145996912Y-79254000D01*
X145126000Y-79254000D01*
X145057879Y-79233998D01*
X145011386Y-79180342D01*
X145000000Y-79128000D01*
X145000000Y-77018115D01*
X144995525Y-77002876D01*
X144992482Y-77000239D01*
X144988558Y-76999250D01*
X144965366Y-76997730D01*
X144898700Y-76973316D01*
X144855815Y-76916734D01*
X144850329Y-76845950D01*
X144883983Y-76783436D01*
X144946092Y-76749041D01*
X144973607Y-76746000D01*
X145996912Y-76746000D01*
X146003094Y-76746152D01*
G37*
M02*
