M48
; DRILL file {KiCad 6.0.1-79c1e3a40b~116~ubuntu20.04.1} date Mon 31 Jan 2022 13:36:20 CET
; FORMAT={-:-/ absolute / inch / decimal}
; #@! TF.CreationDate,2022-01-31T13:36:20+01:00
; #@! TF.GenerationSoftware,Kicad,Pcbnew,6.0.1-79c1e3a40b~116~ubuntu20.04.1
; #@! TF.FileFunction,Plated,1,2,PTH
FMAT,2
INCH
; #@! TA.AperFunction,Plated,PTH,ViaDrill
T1C0.0157
; #@! TA.AperFunction,Plated,PTH,ComponentDrill
T2C0.0157
; #@! TA.AperFunction,Plated,PTH,ComponentDrill
T3C0.0866
%
G90
G05
T1
X5.7874Y-2.9134
X5.7874Y-2.9528
X5.7874Y-3.5433
X5.7874Y-3.5827
X5.8071Y-2.9331
X5.8071Y-3.563
X5.8268Y-2.9134
X5.8268Y-2.9528
X5.8268Y-3.5433
X5.8268Y-3.5827
T2
X5.7283Y-3.2087
X5.7283Y-3.2874
X5.748Y-3.189
X5.748Y-3.3071
X5.7677Y-3.2087
X5.7677Y-3.2874
X5.7874Y-3.189
X5.7874Y-3.3071
X5.8071Y-3.2087
X5.8071Y-3.2087
X5.8071Y-3.2874
X5.8071Y-3.2874
X5.8268Y-3.189
X5.8268Y-3.3071
X5.8465Y-3.2087
X5.8465Y-3.2874
X5.8661Y-3.189
X5.8661Y-3.3071
X5.8858Y-3.2087
X5.8858Y-3.2874
T3
X5.7087Y-2.9528
X5.7087Y-3.5433
X5.9055Y-2.9528
X5.9055Y-3.5433
T0
M30
