%TF.GenerationSoftware,KiCad,Pcbnew,6.0.9+dfsg-1~bpo11+1*%
%TF.CreationDate,2022-11-07T06:27:51+01:00*%
%TF.ProjectId,pcb-connector,7063622d-636f-46e6-9e65-63746f722e6b,2*%
%TF.SameCoordinates,Original*%
%TF.FileFunction,Drillmap*%
%TF.FilePolarity,Positive*%
%FSLAX45Y45*%
G04 Gerber Fmt 4.5, Leading zero omitted, Abs format (unit mm)*
G04 Created by KiCad (PCBNEW 6.0.9+dfsg-1~bpo11+1) date 2022-11-07 06:27:51*
%MOMM*%
%LPD*%
G01*
G04 APERTURE LIST*
%ADD10C,0.100000*%
%ADD11C,0.200000*%
%ADD12C,0.040000*%
G04 APERTURE END LIST*
D10*
X15141421Y-8858579D02*
G75*
G03*
X15000000Y-8800000I-141421J-141421D01*
G01*
X15000000Y-7700000D02*
G75*
G03*
X15141421Y-7641421I0J200000D01*
G01*
X14500000Y-7950000D02*
X14500000Y-8550000D01*
X14650000Y-7350000D02*
X14358579Y-7641421D01*
X14850000Y-7350000D02*
X14650000Y-7350000D01*
X14358579Y-8858579D02*
X14650000Y-9150000D01*
X15000000Y-7700000D02*
X15000000Y-8800000D01*
X14500000Y-8550000D02*
X14500000Y-8800000D01*
X14500000Y-8800000D02*
G75*
G03*
X14358579Y-8858579I0J-200000D01*
G01*
X14850000Y-9150000D02*
X15141421Y-8858579D01*
X14500000Y-7700000D02*
X14500000Y-7950000D01*
X14650000Y-9150000D02*
X14850000Y-9150000D01*
X14358579Y-7641421D02*
G75*
G03*
X14500000Y-7700000I141421J141421D01*
G01*
X15141421Y-7641421D02*
X14850000Y-7350000D01*
D11*
D12*
X14680000Y-7380000D02*
X14720000Y-7420000D01*
X14720000Y-7380000D02*
X14680000Y-7420000D01*
X14680000Y-7480000D02*
X14720000Y-7520000D01*
X14720000Y-7480000D02*
X14680000Y-7520000D01*
X14680000Y-8980000D02*
X14720000Y-9020000D01*
X14720000Y-8980000D02*
X14680000Y-9020000D01*
X14680000Y-9080000D02*
X14720000Y-9120000D01*
X14720000Y-9080000D02*
X14680000Y-9120000D01*
X14730000Y-7430000D02*
X14770000Y-7470000D01*
X14770000Y-7430000D02*
X14730000Y-7470000D01*
X14730000Y-9030000D02*
X14770000Y-9070000D01*
X14770000Y-9030000D02*
X14730000Y-9070000D01*
X14780000Y-7380000D02*
X14820000Y-7420000D01*
X14820000Y-7380000D02*
X14780000Y-7420000D01*
X14780000Y-7480000D02*
X14820000Y-7520000D01*
X14820000Y-7480000D02*
X14780000Y-7520000D01*
X14780000Y-8980000D02*
X14820000Y-9020000D01*
X14820000Y-8980000D02*
X14780000Y-9020000D01*
X14780000Y-9080000D02*
X14820000Y-9120000D01*
X14820000Y-9080000D02*
X14780000Y-9120000D01*
X14570000Y-8150000D02*
G75*
G03*
X14570000Y-8150000I-20000J0D01*
G01*
X14570000Y-8350000D02*
G75*
G03*
X14570000Y-8350000I-20000J0D01*
G01*
X14620000Y-8100000D02*
G75*
G03*
X14620000Y-8100000I-20000J0D01*
G01*
X14620000Y-8400000D02*
G75*
G03*
X14620000Y-8400000I-20000J0D01*
G01*
X14670000Y-8150000D02*
G75*
G03*
X14670000Y-8150000I-20000J0D01*
G01*
X14670000Y-8350000D02*
G75*
G03*
X14670000Y-8350000I-20000J0D01*
G01*
X14720000Y-8100000D02*
G75*
G03*
X14720000Y-8100000I-20000J0D01*
G01*
X14720000Y-8400000D02*
G75*
G03*
X14720000Y-8400000I-20000J0D01*
G01*
X14770000Y-8150000D02*
G75*
G03*
X14770000Y-8150000I-20000J0D01*
G01*
X14770000Y-8150000D02*
G75*
G03*
X14770000Y-8150000I-20000J0D01*
G01*
X14770000Y-8350000D02*
G75*
G03*
X14770000Y-8350000I-20000J0D01*
G01*
X14770000Y-8350000D02*
G75*
G03*
X14770000Y-8350000I-20000J0D01*
G01*
X14820000Y-8100000D02*
G75*
G03*
X14820000Y-8100000I-20000J0D01*
G01*
X14820000Y-8400000D02*
G75*
G03*
X14820000Y-8400000I-20000J0D01*
G01*
X14870000Y-8150000D02*
G75*
G03*
X14870000Y-8150000I-20000J0D01*
G01*
X14870000Y-8350000D02*
G75*
G03*
X14870000Y-8350000I-20000J0D01*
G01*
X14920000Y-8100000D02*
G75*
G03*
X14920000Y-8100000I-20000J0D01*
G01*
X14920000Y-8400000D02*
G75*
G03*
X14920000Y-8400000I-20000J0D01*
G01*
X14970000Y-8150000D02*
G75*
G03*
X14970000Y-8150000I-20000J0D01*
G01*
X14970000Y-8350000D02*
G75*
G03*
X14970000Y-8350000I-20000J0D01*
G01*
D11*
X14611198Y-9465476D02*
X14611198Y-9265476D01*
X14658817Y-9265476D01*
X14687388Y-9275000D01*
X14706436Y-9294048D01*
X14715959Y-9313095D01*
X14725483Y-9351190D01*
X14725483Y-9379762D01*
X14715959Y-9417857D01*
X14706436Y-9436905D01*
X14687388Y-9455952D01*
X14658817Y-9465476D01*
X14611198Y-9465476D01*
X14811198Y-9465476D02*
X14811198Y-9332143D01*
X14811198Y-9370238D02*
X14820721Y-9351190D01*
X14830245Y-9341667D01*
X14849293Y-9332143D01*
X14868340Y-9332143D01*
X14935007Y-9465476D02*
X14935007Y-9332143D01*
X14935007Y-9265476D02*
X14925483Y-9275000D01*
X14935007Y-9284524D01*
X14944531Y-9275000D01*
X14935007Y-9265476D01*
X14935007Y-9284524D01*
X15058817Y-9465476D02*
X15039769Y-9455952D01*
X15030245Y-9436905D01*
X15030245Y-9265476D01*
X15163579Y-9465476D02*
X15144531Y-9455952D01*
X15135007Y-9436905D01*
X15135007Y-9265476D01*
X15392150Y-9465476D02*
X15392150Y-9265476D01*
X15458817Y-9408333D01*
X15525483Y-9265476D01*
X15525483Y-9465476D01*
X15706436Y-9465476D02*
X15706436Y-9360714D01*
X15696912Y-9341667D01*
X15677864Y-9332143D01*
X15639769Y-9332143D01*
X15620721Y-9341667D01*
X15706436Y-9455952D02*
X15687388Y-9465476D01*
X15639769Y-9465476D01*
X15620721Y-9455952D01*
X15611198Y-9436905D01*
X15611198Y-9417857D01*
X15620721Y-9398810D01*
X15639769Y-9389286D01*
X15687388Y-9389286D01*
X15706436Y-9379762D01*
X15801674Y-9332143D02*
X15801674Y-9532143D01*
X15801674Y-9341667D02*
X15820721Y-9332143D01*
X15858817Y-9332143D01*
X15877864Y-9341667D01*
X15887388Y-9351190D01*
X15896912Y-9370238D01*
X15896912Y-9427381D01*
X15887388Y-9446429D01*
X15877864Y-9455952D01*
X15858817Y-9465476D01*
X15820721Y-9465476D01*
X15801674Y-9455952D01*
X15982626Y-9446429D02*
X15992150Y-9455952D01*
X15982626Y-9465476D01*
X15973102Y-9455952D01*
X15982626Y-9446429D01*
X15982626Y-9465476D01*
X15982626Y-9341667D02*
X15992150Y-9351190D01*
X15982626Y-9360714D01*
X15973102Y-9351190D01*
X15982626Y-9341667D01*
X15982626Y-9360714D01*
D12*
X14313579Y-9775000D02*
X14353579Y-9815000D01*
X14353579Y-9775000D02*
X14313579Y-9815000D01*
D11*
X14649293Y-9685476D02*
X14668340Y-9685476D01*
X14687388Y-9695000D01*
X14696912Y-9704524D01*
X14706436Y-9723571D01*
X14715959Y-9761667D01*
X14715959Y-9809286D01*
X14706436Y-9847381D01*
X14696912Y-9866429D01*
X14687388Y-9875952D01*
X14668340Y-9885476D01*
X14649293Y-9885476D01*
X14630245Y-9875952D01*
X14620721Y-9866429D01*
X14611198Y-9847381D01*
X14601674Y-9809286D01*
X14601674Y-9761667D01*
X14611198Y-9723571D01*
X14620721Y-9704524D01*
X14630245Y-9695000D01*
X14649293Y-9685476D01*
X14801674Y-9866429D02*
X14811198Y-9875952D01*
X14801674Y-9885476D01*
X14792150Y-9875952D01*
X14801674Y-9866429D01*
X14801674Y-9885476D01*
X14982626Y-9752143D02*
X14982626Y-9885476D01*
X14935007Y-9675952D02*
X14887388Y-9818810D01*
X15011198Y-9818810D01*
X15125483Y-9685476D02*
X15144531Y-9685476D01*
X15163579Y-9695000D01*
X15173102Y-9704524D01*
X15182626Y-9723571D01*
X15192150Y-9761667D01*
X15192150Y-9809286D01*
X15182626Y-9847381D01*
X15173102Y-9866429D01*
X15163579Y-9875952D01*
X15144531Y-9885476D01*
X15125483Y-9885476D01*
X15106436Y-9875952D01*
X15096912Y-9866429D01*
X15087388Y-9847381D01*
X15077864Y-9809286D01*
X15077864Y-9761667D01*
X15087388Y-9723571D01*
X15096912Y-9704524D01*
X15106436Y-9695000D01*
X15125483Y-9685476D01*
X15315959Y-9685476D02*
X15335007Y-9685476D01*
X15354055Y-9695000D01*
X15363579Y-9704524D01*
X15373102Y-9723571D01*
X15382626Y-9761667D01*
X15382626Y-9809286D01*
X15373102Y-9847381D01*
X15363579Y-9866429D01*
X15354055Y-9875952D01*
X15335007Y-9885476D01*
X15315959Y-9885476D01*
X15296912Y-9875952D01*
X15287388Y-9866429D01*
X15277864Y-9847381D01*
X15268340Y-9809286D01*
X15268340Y-9761667D01*
X15277864Y-9723571D01*
X15287388Y-9704524D01*
X15296912Y-9695000D01*
X15315959Y-9685476D01*
X15468340Y-9885476D02*
X15468340Y-9752143D01*
X15468340Y-9771190D02*
X15477864Y-9761667D01*
X15496912Y-9752143D01*
X15525483Y-9752143D01*
X15544531Y-9761667D01*
X15554055Y-9780714D01*
X15554055Y-9885476D01*
X15554055Y-9780714D02*
X15563579Y-9761667D01*
X15582626Y-9752143D01*
X15611198Y-9752143D01*
X15630245Y-9761667D01*
X15639769Y-9780714D01*
X15639769Y-9885476D01*
X15735007Y-9885476D02*
X15735007Y-9752143D01*
X15735007Y-9771190D02*
X15744531Y-9761667D01*
X15763579Y-9752143D01*
X15792150Y-9752143D01*
X15811198Y-9761667D01*
X15820721Y-9780714D01*
X15820721Y-9885476D01*
X15820721Y-9780714D02*
X15830245Y-9761667D01*
X15849293Y-9752143D01*
X15877864Y-9752143D01*
X15896912Y-9761667D01*
X15906436Y-9780714D01*
X15906436Y-9885476D01*
X16296912Y-9675952D02*
X16125483Y-9933095D01*
X16554055Y-9685476D02*
X16573102Y-9685476D01*
X16592150Y-9695000D01*
X16601674Y-9704524D01*
X16611198Y-9723571D01*
X16620721Y-9761667D01*
X16620721Y-9809286D01*
X16611198Y-9847381D01*
X16601674Y-9866429D01*
X16592150Y-9875952D01*
X16573102Y-9885476D01*
X16554055Y-9885476D01*
X16535007Y-9875952D01*
X16525483Y-9866429D01*
X16515959Y-9847381D01*
X16506436Y-9809286D01*
X16506436Y-9761667D01*
X16515959Y-9723571D01*
X16525483Y-9704524D01*
X16535007Y-9695000D01*
X16554055Y-9685476D01*
X16706436Y-9866429D02*
X16715959Y-9875952D01*
X16706436Y-9885476D01*
X16696912Y-9875952D01*
X16706436Y-9866429D01*
X16706436Y-9885476D01*
X16839769Y-9685476D02*
X16858817Y-9685476D01*
X16877864Y-9695000D01*
X16887388Y-9704524D01*
X16896912Y-9723571D01*
X16906436Y-9761667D01*
X16906436Y-9809286D01*
X16896912Y-9847381D01*
X16887388Y-9866429D01*
X16877864Y-9875952D01*
X16858817Y-9885476D01*
X16839769Y-9885476D01*
X16820721Y-9875952D01*
X16811198Y-9866429D01*
X16801674Y-9847381D01*
X16792150Y-9809286D01*
X16792150Y-9761667D01*
X16801674Y-9723571D01*
X16811198Y-9704524D01*
X16820721Y-9695000D01*
X16839769Y-9685476D01*
X17096912Y-9885476D02*
X16982626Y-9885476D01*
X17039769Y-9885476D02*
X17039769Y-9685476D01*
X17020721Y-9714048D01*
X17001674Y-9733095D01*
X16982626Y-9742619D01*
X17277864Y-9685476D02*
X17182626Y-9685476D01*
X17173102Y-9780714D01*
X17182626Y-9771190D01*
X17201674Y-9761667D01*
X17249293Y-9761667D01*
X17268341Y-9771190D01*
X17277864Y-9780714D01*
X17287388Y-9799762D01*
X17287388Y-9847381D01*
X17277864Y-9866429D01*
X17268341Y-9875952D01*
X17249293Y-9885476D01*
X17201674Y-9885476D01*
X17182626Y-9875952D01*
X17173102Y-9866429D01*
X17354055Y-9685476D02*
X17487388Y-9685476D01*
X17401674Y-9885476D01*
X17554055Y-9685476D02*
X17554055Y-9723571D01*
X17630245Y-9685476D02*
X17630245Y-9723571D01*
X17925483Y-9961667D02*
X17915960Y-9952143D01*
X17896912Y-9923571D01*
X17887388Y-9904524D01*
X17877864Y-9875952D01*
X17868341Y-9828333D01*
X17868341Y-9790238D01*
X17877864Y-9742619D01*
X17887388Y-9714048D01*
X17896912Y-9695000D01*
X17915960Y-9666429D01*
X17925483Y-9656905D01*
X18106436Y-9885476D02*
X17992150Y-9885476D01*
X18049293Y-9885476D02*
X18049293Y-9685476D01*
X18030245Y-9714048D01*
X18011198Y-9733095D01*
X17992150Y-9742619D01*
X18230245Y-9685476D02*
X18249293Y-9685476D01*
X18268341Y-9695000D01*
X18277864Y-9704524D01*
X18287388Y-9723571D01*
X18296912Y-9761667D01*
X18296912Y-9809286D01*
X18287388Y-9847381D01*
X18277864Y-9866429D01*
X18268341Y-9875952D01*
X18249293Y-9885476D01*
X18230245Y-9885476D01*
X18211198Y-9875952D01*
X18201674Y-9866429D01*
X18192150Y-9847381D01*
X18182626Y-9809286D01*
X18182626Y-9761667D01*
X18192150Y-9723571D01*
X18201674Y-9704524D01*
X18211198Y-9695000D01*
X18230245Y-9685476D01*
X18535007Y-9885476D02*
X18535007Y-9685476D01*
X18620721Y-9885476D02*
X18620721Y-9780714D01*
X18611198Y-9761667D01*
X18592150Y-9752143D01*
X18563579Y-9752143D01*
X18544531Y-9761667D01*
X18535007Y-9771190D01*
X18744531Y-9885476D02*
X18725483Y-9875952D01*
X18715960Y-9866429D01*
X18706436Y-9847381D01*
X18706436Y-9790238D01*
X18715960Y-9771190D01*
X18725483Y-9761667D01*
X18744531Y-9752143D01*
X18773102Y-9752143D01*
X18792150Y-9761667D01*
X18801674Y-9771190D01*
X18811198Y-9790238D01*
X18811198Y-9847381D01*
X18801674Y-9866429D01*
X18792150Y-9875952D01*
X18773102Y-9885476D01*
X18744531Y-9885476D01*
X18925483Y-9885476D02*
X18906436Y-9875952D01*
X18896912Y-9856905D01*
X18896912Y-9685476D01*
X19077864Y-9875952D02*
X19058817Y-9885476D01*
X19020721Y-9885476D01*
X19001674Y-9875952D01*
X18992150Y-9856905D01*
X18992150Y-9780714D01*
X19001674Y-9761667D01*
X19020721Y-9752143D01*
X19058817Y-9752143D01*
X19077864Y-9761667D01*
X19087388Y-9780714D01*
X19087388Y-9799762D01*
X18992150Y-9818810D01*
X19163579Y-9875952D02*
X19182626Y-9885476D01*
X19220721Y-9885476D01*
X19239769Y-9875952D01*
X19249293Y-9856905D01*
X19249293Y-9847381D01*
X19239769Y-9828333D01*
X19220721Y-9818810D01*
X19192150Y-9818810D01*
X19173102Y-9809286D01*
X19163579Y-9790238D01*
X19163579Y-9780714D01*
X19173102Y-9761667D01*
X19192150Y-9752143D01*
X19220721Y-9752143D01*
X19239769Y-9761667D01*
X19315960Y-9961667D02*
X19325483Y-9952143D01*
X19344531Y-9923571D01*
X19354055Y-9904524D01*
X19363579Y-9875952D01*
X19373102Y-9828333D01*
X19373102Y-9790238D01*
X19363579Y-9742619D01*
X19354055Y-9714048D01*
X19344531Y-9695000D01*
X19325483Y-9666429D01*
X19315960Y-9656905D01*
D12*
X14353579Y-10059000D02*
G75*
G03*
X14353579Y-10059000I-20000J0D01*
G01*
D11*
X14649293Y-9949476D02*
X14668340Y-9949476D01*
X14687388Y-9959000D01*
X14696912Y-9968524D01*
X14706436Y-9987571D01*
X14715959Y-10025667D01*
X14715959Y-10073286D01*
X14706436Y-10111381D01*
X14696912Y-10130429D01*
X14687388Y-10139952D01*
X14668340Y-10149476D01*
X14649293Y-10149476D01*
X14630245Y-10139952D01*
X14620721Y-10130429D01*
X14611198Y-10111381D01*
X14601674Y-10073286D01*
X14601674Y-10025667D01*
X14611198Y-9987571D01*
X14620721Y-9968524D01*
X14630245Y-9959000D01*
X14649293Y-9949476D01*
X14801674Y-10130429D02*
X14811198Y-10139952D01*
X14801674Y-10149476D01*
X14792150Y-10139952D01*
X14801674Y-10130429D01*
X14801674Y-10149476D01*
X14982626Y-10016143D02*
X14982626Y-10149476D01*
X14935007Y-9939952D02*
X14887388Y-10082810D01*
X15011198Y-10082810D01*
X15125483Y-9949476D02*
X15144531Y-9949476D01*
X15163579Y-9959000D01*
X15173102Y-9968524D01*
X15182626Y-9987571D01*
X15192150Y-10025667D01*
X15192150Y-10073286D01*
X15182626Y-10111381D01*
X15173102Y-10130429D01*
X15163579Y-10139952D01*
X15144531Y-10149476D01*
X15125483Y-10149476D01*
X15106436Y-10139952D01*
X15096912Y-10130429D01*
X15087388Y-10111381D01*
X15077864Y-10073286D01*
X15077864Y-10025667D01*
X15087388Y-9987571D01*
X15096912Y-9968524D01*
X15106436Y-9959000D01*
X15125483Y-9949476D01*
X15315959Y-9949476D02*
X15335007Y-9949476D01*
X15354055Y-9959000D01*
X15363579Y-9968524D01*
X15373102Y-9987571D01*
X15382626Y-10025667D01*
X15382626Y-10073286D01*
X15373102Y-10111381D01*
X15363579Y-10130429D01*
X15354055Y-10139952D01*
X15335007Y-10149476D01*
X15315959Y-10149476D01*
X15296912Y-10139952D01*
X15287388Y-10130429D01*
X15277864Y-10111381D01*
X15268340Y-10073286D01*
X15268340Y-10025667D01*
X15277864Y-9987571D01*
X15287388Y-9968524D01*
X15296912Y-9959000D01*
X15315959Y-9949476D01*
X15468340Y-10149476D02*
X15468340Y-10016143D01*
X15468340Y-10035190D02*
X15477864Y-10025667D01*
X15496912Y-10016143D01*
X15525483Y-10016143D01*
X15544531Y-10025667D01*
X15554055Y-10044714D01*
X15554055Y-10149476D01*
X15554055Y-10044714D02*
X15563579Y-10025667D01*
X15582626Y-10016143D01*
X15611198Y-10016143D01*
X15630245Y-10025667D01*
X15639769Y-10044714D01*
X15639769Y-10149476D01*
X15735007Y-10149476D02*
X15735007Y-10016143D01*
X15735007Y-10035190D02*
X15744531Y-10025667D01*
X15763579Y-10016143D01*
X15792150Y-10016143D01*
X15811198Y-10025667D01*
X15820721Y-10044714D01*
X15820721Y-10149476D01*
X15820721Y-10044714D02*
X15830245Y-10025667D01*
X15849293Y-10016143D01*
X15877864Y-10016143D01*
X15896912Y-10025667D01*
X15906436Y-10044714D01*
X15906436Y-10149476D01*
X16296912Y-9939952D02*
X16125483Y-10197095D01*
X16554055Y-9949476D02*
X16573102Y-9949476D01*
X16592150Y-9959000D01*
X16601674Y-9968524D01*
X16611198Y-9987571D01*
X16620721Y-10025667D01*
X16620721Y-10073286D01*
X16611198Y-10111381D01*
X16601674Y-10130429D01*
X16592150Y-10139952D01*
X16573102Y-10149476D01*
X16554055Y-10149476D01*
X16535007Y-10139952D01*
X16525483Y-10130429D01*
X16515959Y-10111381D01*
X16506436Y-10073286D01*
X16506436Y-10025667D01*
X16515959Y-9987571D01*
X16525483Y-9968524D01*
X16535007Y-9959000D01*
X16554055Y-9949476D01*
X16706436Y-10130429D02*
X16715959Y-10139952D01*
X16706436Y-10149476D01*
X16696912Y-10139952D01*
X16706436Y-10130429D01*
X16706436Y-10149476D01*
X16839769Y-9949476D02*
X16858817Y-9949476D01*
X16877864Y-9959000D01*
X16887388Y-9968524D01*
X16896912Y-9987571D01*
X16906436Y-10025667D01*
X16906436Y-10073286D01*
X16896912Y-10111381D01*
X16887388Y-10130429D01*
X16877864Y-10139952D01*
X16858817Y-10149476D01*
X16839769Y-10149476D01*
X16820721Y-10139952D01*
X16811198Y-10130429D01*
X16801674Y-10111381D01*
X16792150Y-10073286D01*
X16792150Y-10025667D01*
X16801674Y-9987571D01*
X16811198Y-9968524D01*
X16820721Y-9959000D01*
X16839769Y-9949476D01*
X17096912Y-10149476D02*
X16982626Y-10149476D01*
X17039769Y-10149476D02*
X17039769Y-9949476D01*
X17020721Y-9978048D01*
X17001674Y-9997095D01*
X16982626Y-10006619D01*
X17277864Y-9949476D02*
X17182626Y-9949476D01*
X17173102Y-10044714D01*
X17182626Y-10035190D01*
X17201674Y-10025667D01*
X17249293Y-10025667D01*
X17268341Y-10035190D01*
X17277864Y-10044714D01*
X17287388Y-10063762D01*
X17287388Y-10111381D01*
X17277864Y-10130429D01*
X17268341Y-10139952D01*
X17249293Y-10149476D01*
X17201674Y-10149476D01*
X17182626Y-10139952D01*
X17173102Y-10130429D01*
X17354055Y-9949476D02*
X17487388Y-9949476D01*
X17401674Y-10149476D01*
X17554055Y-9949476D02*
X17554055Y-9987571D01*
X17630245Y-9949476D02*
X17630245Y-9987571D01*
X17925483Y-10225667D02*
X17915960Y-10216143D01*
X17896912Y-10187571D01*
X17887388Y-10168524D01*
X17877864Y-10139952D01*
X17868341Y-10092333D01*
X17868341Y-10054238D01*
X17877864Y-10006619D01*
X17887388Y-9978048D01*
X17896912Y-9959000D01*
X17915960Y-9930429D01*
X17925483Y-9920905D01*
X17992150Y-9968524D02*
X18001674Y-9959000D01*
X18020721Y-9949476D01*
X18068341Y-9949476D01*
X18087388Y-9959000D01*
X18096912Y-9968524D01*
X18106436Y-9987571D01*
X18106436Y-10006619D01*
X18096912Y-10035190D01*
X17982626Y-10149476D01*
X18106436Y-10149476D01*
X18230245Y-9949476D02*
X18249293Y-9949476D01*
X18268341Y-9959000D01*
X18277864Y-9968524D01*
X18287388Y-9987571D01*
X18296912Y-10025667D01*
X18296912Y-10073286D01*
X18287388Y-10111381D01*
X18277864Y-10130429D01*
X18268341Y-10139952D01*
X18249293Y-10149476D01*
X18230245Y-10149476D01*
X18211198Y-10139952D01*
X18201674Y-10130429D01*
X18192150Y-10111381D01*
X18182626Y-10073286D01*
X18182626Y-10025667D01*
X18192150Y-9987571D01*
X18201674Y-9968524D01*
X18211198Y-9959000D01*
X18230245Y-9949476D01*
X18535007Y-10149476D02*
X18535007Y-9949476D01*
X18620721Y-10149476D02*
X18620721Y-10044714D01*
X18611198Y-10025667D01*
X18592150Y-10016143D01*
X18563579Y-10016143D01*
X18544531Y-10025667D01*
X18535007Y-10035190D01*
X18744531Y-10149476D02*
X18725483Y-10139952D01*
X18715960Y-10130429D01*
X18706436Y-10111381D01*
X18706436Y-10054238D01*
X18715960Y-10035190D01*
X18725483Y-10025667D01*
X18744531Y-10016143D01*
X18773102Y-10016143D01*
X18792150Y-10025667D01*
X18801674Y-10035190D01*
X18811198Y-10054238D01*
X18811198Y-10111381D01*
X18801674Y-10130429D01*
X18792150Y-10139952D01*
X18773102Y-10149476D01*
X18744531Y-10149476D01*
X18925483Y-10149476D02*
X18906436Y-10139952D01*
X18896912Y-10120905D01*
X18896912Y-9949476D01*
X19077864Y-10139952D02*
X19058817Y-10149476D01*
X19020721Y-10149476D01*
X19001674Y-10139952D01*
X18992150Y-10120905D01*
X18992150Y-10044714D01*
X19001674Y-10025667D01*
X19020721Y-10016143D01*
X19058817Y-10016143D01*
X19077864Y-10025667D01*
X19087388Y-10044714D01*
X19087388Y-10063762D01*
X18992150Y-10082810D01*
X19163579Y-10139952D02*
X19182626Y-10149476D01*
X19220721Y-10149476D01*
X19239769Y-10139952D01*
X19249293Y-10120905D01*
X19249293Y-10111381D01*
X19239769Y-10092333D01*
X19220721Y-10082810D01*
X19192150Y-10082810D01*
X19173102Y-10073286D01*
X19163579Y-10054238D01*
X19163579Y-10044714D01*
X19173102Y-10025667D01*
X19192150Y-10016143D01*
X19220721Y-10016143D01*
X19239769Y-10025667D01*
X19315960Y-10225667D02*
X19325483Y-10216143D01*
X19344531Y-10187571D01*
X19354055Y-10168524D01*
X19363579Y-10139952D01*
X19373102Y-10092333D01*
X19373102Y-10054238D01*
X19363579Y-10006619D01*
X19354055Y-9978048D01*
X19344531Y-9959000D01*
X19325483Y-9930429D01*
X19315960Y-9920905D01*
M02*
