%FSLAX45Y45*%
G04 Gerber Fmt 4.5, Leading zero omitted, Abs format (unit mm)*
G04 Created by KiCad (PCBNEW 6.0.1-79c1e3a40b~116~ubuntu20.04.1) date 2022-01-29 11:37:02*
%MOMM*%
%LPD*%
G01*
G04 APERTURE LIST*
%TA.AperFunction,Profile*%
%ADD10C,0.100000*%
%TD*%
%ADD11C,0.200000*%
G04 APERTURE END LIST*
D10*
X12650000Y-7150000D02*
G75*
G03*
X12850000Y-7350000I200000J0D01*
G01*
X13950000Y-7350000D02*
X12850000Y-7350000D01*
X12650000Y-7150000D02*
X12650000Y-5550000D01*
X14150000Y-5550000D02*
X14150000Y-7150000D01*
X13950000Y-7350000D02*
G75*
G03*
X14150000Y-7150000I0J200000D01*
G01*
X12850000Y-5350000D02*
G75*
G03*
X12650000Y-5550000I0J-200000D01*
G01*
X12850000Y-5350000D02*
X13950000Y-5350000D01*
X14150000Y-5550000D02*
G75*
G03*
X13950000Y-5350000I-200000J0D01*
G01*
D11*
X12902619Y-7665476D02*
X12902619Y-7465476D01*
X12950238Y-7465476D01*
X12978809Y-7475000D01*
X12997857Y-7494048D01*
X13007381Y-7513095D01*
X13016905Y-7551190D01*
X13016905Y-7579762D01*
X13007381Y-7617857D01*
X12997857Y-7636905D01*
X12978809Y-7655952D01*
X12950238Y-7665476D01*
X12902619Y-7665476D01*
X13102619Y-7665476D02*
X13102619Y-7532143D01*
X13102619Y-7570238D02*
X13112143Y-7551190D01*
X13121667Y-7541667D01*
X13140714Y-7532143D01*
X13159762Y-7532143D01*
X13226428Y-7665476D02*
X13226428Y-7532143D01*
X13226428Y-7465476D02*
X13216905Y-7475000D01*
X13226428Y-7484524D01*
X13235952Y-7475000D01*
X13226428Y-7465476D01*
X13226428Y-7484524D01*
X13350238Y-7665476D02*
X13331190Y-7655952D01*
X13321667Y-7636905D01*
X13321667Y-7465476D01*
X13455000Y-7665476D02*
X13435952Y-7655952D01*
X13426428Y-7636905D01*
X13426428Y-7465476D01*
X13683571Y-7665476D02*
X13683571Y-7465476D01*
X13750238Y-7608333D01*
X13816905Y-7465476D01*
X13816905Y-7665476D01*
X13997857Y-7665476D02*
X13997857Y-7560714D01*
X13988333Y-7541667D01*
X13969286Y-7532143D01*
X13931190Y-7532143D01*
X13912143Y-7541667D01*
X13997857Y-7655952D02*
X13978809Y-7665476D01*
X13931190Y-7665476D01*
X13912143Y-7655952D01*
X13902619Y-7636905D01*
X13902619Y-7617857D01*
X13912143Y-7598809D01*
X13931190Y-7589286D01*
X13978809Y-7589286D01*
X13997857Y-7579762D01*
X14093095Y-7532143D02*
X14093095Y-7732143D01*
X14093095Y-7541667D02*
X14112143Y-7532143D01*
X14150238Y-7532143D01*
X14169286Y-7541667D01*
X14178809Y-7551190D01*
X14188333Y-7570238D01*
X14188333Y-7627381D01*
X14178809Y-7646428D01*
X14169286Y-7655952D01*
X14150238Y-7665476D01*
X14112143Y-7665476D01*
X14093095Y-7655952D01*
X14274048Y-7646428D02*
X14283571Y-7655952D01*
X14274048Y-7665476D01*
X14264524Y-7655952D01*
X14274048Y-7646428D01*
X14274048Y-7665476D01*
X14274048Y-7541667D02*
X14283571Y-7551190D01*
X14274048Y-7560714D01*
X14264524Y-7551190D01*
X14274048Y-7541667D01*
X14274048Y-7560714D01*
M02*
