%TF.GenerationSoftware,KiCad,Pcbnew,6.0.9+dfsg-1~bpo11+1*%
%TF.CreationDate,2022-11-06T14:36:49+01:00*%
%TF.ProjectId,sma-connector,736d612d-636f-46e6-9e65-63746f722e6b,2*%
%TF.SameCoordinates,Original*%
%TF.FileFunction,Copper,L2,Bot*%
%TF.FilePolarity,Positive*%
%FSLAX46Y46*%
G04 Gerber Fmt 4.6, Leading zero omitted, Abs format (unit mm)*
G04 Created by KiCad (PCBNEW 6.0.9+dfsg-1~bpo11+1) date 2022-11-06 14:36:49*
%MOMM*%
%LPD*%
G01*
G04 APERTURE LIST*
%TA.AperFunction,ComponentPad*%
%ADD10C,0.800000*%
%TD*%
%TA.AperFunction,SMDPad,CuDef*%
%ADD11R,3.000000X5.200000*%
%TD*%
%TA.AperFunction,ComponentPad*%
%ADD12C,3.400000*%
%TD*%
%TA.AperFunction,ViaPad*%
%ADD13C,0.800000*%
%TD*%
G04 APERTURE END LIST*
D10*
%TO.P,J2,2,Pin_2*%
%TO.N,GND*%
X139500000Y-65000000D03*
X140500000Y-65000000D03*
X141000000Y-62500000D03*
X139000000Y-62500000D03*
X141000000Y-64500000D03*
D11*
X140000000Y-63500000D03*
D10*
X139500000Y-62000000D03*
X140500000Y-62000000D03*
X140000000Y-62500000D03*
X139000000Y-64500000D03*
X140000000Y-64500000D03*
%TD*%
D12*
%TO.P,H3,1,1*%
%TO.N,GND*%
X129000000Y-56000000D03*
%TD*%
%TO.P,H4,1,1*%
%TO.N,GND*%
X139000000Y-71000000D03*
%TD*%
%TO.P,H2,1,1*%
%TO.N,GND*%
X139000000Y-56000000D03*
%TD*%
%TO.P,H1,1,1*%
%TO.N,GND*%
X129000000Y-71000000D03*
%TD*%
D13*
%TO.N,GND*%
X134500000Y-65000000D03*
X133000000Y-61500000D03*
X132500000Y-65000000D03*
X133000000Y-65500000D03*
X131500000Y-65000000D03*
X137500000Y-65000000D03*
X130500000Y-65000000D03*
X137000000Y-64500000D03*
X132000000Y-61500000D03*
X135000000Y-62500000D03*
X134000000Y-62500000D03*
X138500000Y-65000000D03*
X130000000Y-64500000D03*
X133500000Y-65000000D03*
X132000000Y-65500000D03*
X136000000Y-62500000D03*
X132500000Y-62000000D03*
X130500000Y-62000000D03*
X137000000Y-62500000D03*
X130500000Y-64000000D03*
X131000000Y-61500000D03*
X138500000Y-62000000D03*
X135000000Y-64500000D03*
X130000000Y-62500000D03*
X130000000Y-63500000D03*
X133500000Y-62000000D03*
X134500000Y-62000000D03*
X136500000Y-62000000D03*
X134000000Y-64500000D03*
X130500000Y-63000000D03*
X136000000Y-64500000D03*
X131500000Y-62000000D03*
X131000000Y-65500000D03*
X138000000Y-64500000D03*
X136500000Y-65000000D03*
X138000000Y-62500000D03*
X135500000Y-62000000D03*
X137500000Y-62000000D03*
X135500000Y-65000000D03*
%TD*%
%TA.AperFunction,Conductor*%
%TO.N,GND*%
G36*
X139488169Y-53703018D02*
G01*
X139499641Y-53705656D01*
X139510516Y-53703195D01*
X139521662Y-53703215D01*
X139521662Y-53703369D01*
X139531712Y-53702579D01*
X139613994Y-53707972D01*
X139728410Y-53715471D01*
X139741237Y-53717159D01*
X139959387Y-53760551D01*
X139971887Y-53763901D01*
X140182500Y-53835395D01*
X140194449Y-53840344D01*
X140393944Y-53938724D01*
X140405137Y-53945187D01*
X140542444Y-54036933D01*
X140590072Y-54068757D01*
X140600345Y-54076640D01*
X140767560Y-54223283D01*
X140776717Y-54232440D01*
X140923360Y-54399655D01*
X140931243Y-54409928D01*
X141054813Y-54594863D01*
X141061276Y-54606056D01*
X141159656Y-54805551D01*
X141164605Y-54817500D01*
X141236098Y-55028109D01*
X141239450Y-55040618D01*
X141282840Y-55258756D01*
X141284530Y-55271595D01*
X141297388Y-55467772D01*
X141296595Y-55477628D01*
X141296862Y-55477628D01*
X141296842Y-55488776D01*
X141294344Y-55499641D01*
X141296804Y-55510513D01*
X141297059Y-55511638D01*
X141299500Y-55533488D01*
X141299500Y-71465983D01*
X141296982Y-71488169D01*
X141294344Y-71499641D01*
X141296805Y-71510516D01*
X141296785Y-71521662D01*
X141296631Y-71521662D01*
X141297421Y-71531712D01*
X141284530Y-71728404D01*
X141282840Y-71741244D01*
X141239450Y-71959382D01*
X141236098Y-71971891D01*
X141164605Y-72182500D01*
X141159656Y-72194449D01*
X141061276Y-72393944D01*
X141054813Y-72405137D01*
X140975063Y-72524492D01*
X140931243Y-72590072D01*
X140923360Y-72600345D01*
X140776717Y-72767560D01*
X140767560Y-72776717D01*
X140600345Y-72923360D01*
X140590072Y-72931243D01*
X140405137Y-73054813D01*
X140393944Y-73061276D01*
X140194449Y-73159656D01*
X140182501Y-73164605D01*
X139971887Y-73236099D01*
X139959387Y-73239449D01*
X139741237Y-73282841D01*
X139728412Y-73284529D01*
X139532225Y-73297388D01*
X139522372Y-73296595D01*
X139522372Y-73296862D01*
X139511224Y-73296842D01*
X139500359Y-73294344D01*
X139488359Y-73297059D01*
X139466512Y-73299500D01*
X128534017Y-73299500D01*
X128511831Y-73296982D01*
X128511813Y-73296978D01*
X128500359Y-73294344D01*
X128489484Y-73296805D01*
X128478338Y-73296785D01*
X128478338Y-73296631D01*
X128468288Y-73297421D01*
X128386006Y-73292028D01*
X128271590Y-73284529D01*
X128258763Y-73282841D01*
X128040613Y-73239449D01*
X128028113Y-73236099D01*
X127817499Y-73164605D01*
X127805551Y-73159656D01*
X127606056Y-73061276D01*
X127594863Y-73054813D01*
X127409928Y-72931243D01*
X127399655Y-72923360D01*
X127232440Y-72776717D01*
X127223283Y-72767560D01*
X127076640Y-72600345D01*
X127068757Y-72590072D01*
X127024937Y-72524492D01*
X126945187Y-72405137D01*
X126938724Y-72393944D01*
X126840344Y-72194449D01*
X126835395Y-72182500D01*
X126763902Y-71971891D01*
X126760550Y-71959382D01*
X126717160Y-71741244D01*
X126715470Y-71728405D01*
X126702629Y-71532485D01*
X126704311Y-71511819D01*
X126703747Y-71511754D01*
X126704388Y-71506182D01*
X126705655Y-71500718D01*
X126705656Y-71500000D01*
X126703096Y-71488776D01*
X126702980Y-71488266D01*
X126700500Y-71466248D01*
X126700500Y-55534281D01*
X126703057Y-55511926D01*
X126703141Y-55511565D01*
X126705655Y-55500718D01*
X126705656Y-55500000D01*
X126704413Y-55494551D01*
X126703791Y-55488992D01*
X126704259Y-55488940D01*
X126702596Y-55468031D01*
X126715470Y-55271596D01*
X126717160Y-55258756D01*
X126760550Y-55040618D01*
X126763902Y-55028109D01*
X126835395Y-54817500D01*
X126840344Y-54805551D01*
X126938724Y-54606056D01*
X126945187Y-54594863D01*
X127068757Y-54409928D01*
X127076640Y-54399655D01*
X127223283Y-54232440D01*
X127232440Y-54223283D01*
X127399655Y-54076640D01*
X127409928Y-54068757D01*
X127457556Y-54036933D01*
X127594863Y-53945187D01*
X127606056Y-53938724D01*
X127805551Y-53840344D01*
X127817500Y-53835395D01*
X128028113Y-53763901D01*
X128040613Y-53760551D01*
X128258763Y-53717159D01*
X128271588Y-53715471D01*
X128467775Y-53702612D01*
X128477628Y-53703405D01*
X128477628Y-53703138D01*
X128488776Y-53703158D01*
X128499641Y-53705656D01*
X128511641Y-53702941D01*
X128533488Y-53700500D01*
X139465983Y-53700500D01*
X139488169Y-53703018D01*
G37*
%TD.AperFunction*%
%TD*%
M02*
