%TF.GenerationSoftware,KiCad,Pcbnew,6.0.9+dfsg-1~bpo11+1*%
%TF.CreationDate,2022-11-06T14:36:54+01:00*%
%TF.ProjectId,sma-connector,736d612d-636f-46e6-9e65-63746f722e6b,2*%
%TF.SameCoordinates,Original*%
%TF.FileFunction,Plated,1,2,PTH,Drill*%
%TF.FilePolarity,Positive*%
%FSLAX46Y46*%
G04 Gerber Fmt 4.6, Leading zero omitted, Abs format (unit mm)*
G04 Created by KiCad (PCBNEW 6.0.9+dfsg-1~bpo11+1) date 2022-11-06 14:36:54*
%MOMM*%
%LPD*%
G01*
G04 APERTURE LIST*
%TA.AperFunction,ViaDrill*%
%ADD10C,0.400000*%
%TD*%
%TA.AperFunction,ComponentDrill*%
%ADD11C,0.400000*%
%TD*%
%TA.AperFunction,ComponentDrill*%
%ADD12C,2.000000*%
%TD*%
G04 APERTURE END LIST*
D10*
X130000000Y-62500000D03*
X130000000Y-63500000D03*
X130000000Y-64500000D03*
X130500000Y-62000000D03*
X130500000Y-63000000D03*
X130500000Y-64000000D03*
X130500000Y-65000000D03*
X131000000Y-61500000D03*
X131000000Y-65500000D03*
X131500000Y-62000000D03*
X131500000Y-65000000D03*
X132000000Y-61500000D03*
X132000000Y-65500000D03*
X132500000Y-62000000D03*
X132500000Y-65000000D03*
X133000000Y-61500000D03*
X133000000Y-65500000D03*
X133500000Y-62000000D03*
X133500000Y-65000000D03*
X134000000Y-62500000D03*
X134000000Y-64500000D03*
X134500000Y-62000000D03*
X134500000Y-65000000D03*
X135000000Y-62500000D03*
X135000000Y-64500000D03*
X135500000Y-62000000D03*
X135500000Y-65000000D03*
X136000000Y-62500000D03*
X136000000Y-64500000D03*
X136500000Y-62000000D03*
X136500000Y-65000000D03*
X137000000Y-62500000D03*
X137000000Y-64500000D03*
X137500000Y-62000000D03*
X137500000Y-65000000D03*
X138000000Y-62500000D03*
X138000000Y-64500000D03*
X138500000Y-62000000D03*
X138500000Y-65000000D03*
D11*
%TO.C,J2*%
X139000000Y-62500000D03*
X139000000Y-64500000D03*
X139500000Y-62000000D03*
X139500000Y-65000000D03*
X140000000Y-62500000D03*
X140000000Y-64500000D03*
X140500000Y-62000000D03*
X140500000Y-65000000D03*
X141000000Y-62500000D03*
X141000000Y-64500000D03*
D12*
%TO.C,H3*%
X129000000Y-56000000D03*
%TO.C,H1*%
X129000000Y-71000000D03*
%TO.C,H2*%
X139000000Y-56000000D03*
%TO.C,H4*%
X139000000Y-71000000D03*
M02*
