%TF.GenerationSoftware,KiCad,Pcbnew,6.0.1-79c1e3a40b~116~ubuntu20.04.1*%
%TF.CreationDate,2022-01-29T11:36:58+01:00*%
%TF.ProjectId,sma-connector,736d612d-636f-46e6-9e65-63746f722e6b,1*%
%TF.SameCoordinates,Original*%
%TF.FileFunction,Copper,L2,Bot*%
%TF.FilePolarity,Positive*%
%FSLAX46Y46*%
G04 Gerber Fmt 4.6, Leading zero omitted, Abs format (unit mm)*
G04 Created by KiCad (PCBNEW 6.0.1-79c1e3a40b~116~ubuntu20.04.1) date 2022-01-29 11:36:58*
%MOMM*%
%LPD*%
G01*
G04 APERTURE LIST*
%TA.AperFunction,ComponentPad*%
%ADD10C,0.800000*%
%TD*%
%TA.AperFunction,SMDPad,CuDef*%
%ADD11R,3.000000X5.200000*%
%TD*%
%TA.AperFunction,ComponentPad*%
%ADD12C,3.400000*%
%TD*%
%TA.AperFunction,ViaPad*%
%ADD13C,0.800000*%
%TD*%
G04 APERTURE END LIST*
D10*
%TO.P,J2,2,Pin_2*%
%TO.N,GND*%
X139500000Y-62000000D03*
X140500000Y-65100000D03*
X140500000Y-62000000D03*
X140000000Y-62500000D03*
X139500000Y-65000000D03*
D11*
X140000000Y-63500000D03*
D10*
X141000000Y-62500000D03*
X139000000Y-64500000D03*
X139000000Y-62500000D03*
X140000000Y-64500000D03*
X141000000Y-64500000D03*
%TD*%
D12*
%TO.P,H3,1,1*%
%TO.N,GND*%
X129000000Y-56000000D03*
%TD*%
%TO.P,H4,1,1*%
%TO.N,GND*%
X139000000Y-71000000D03*
%TD*%
%TO.P,H2,1,1*%
%TO.N,GND*%
X139000000Y-56000000D03*
%TD*%
%TO.P,H1,1,1*%
%TO.N,GND*%
X129000000Y-71000000D03*
%TD*%
D13*
%TO.N,GND*%
X134500000Y-65000000D03*
X133000000Y-61500000D03*
X132500000Y-65000000D03*
X133000000Y-65500000D03*
X131500000Y-65000000D03*
X137500000Y-65000000D03*
X130500000Y-65000000D03*
X137000000Y-64500000D03*
X132000000Y-61500000D03*
X135000000Y-62500000D03*
X134000000Y-62500000D03*
X138500000Y-65000000D03*
X130000000Y-64500000D03*
X133500000Y-65000000D03*
X132000000Y-65500000D03*
X136000000Y-62500000D03*
X132500000Y-62000000D03*
X130500000Y-62000000D03*
X137000000Y-62500000D03*
X130500000Y-64000000D03*
X131000000Y-61500000D03*
X138500000Y-62000000D03*
X135000000Y-64500000D03*
X130000000Y-62500000D03*
X130000000Y-63500000D03*
X133500000Y-62000000D03*
X134500000Y-62000000D03*
X136500000Y-62000000D03*
X134000000Y-64500000D03*
X130500000Y-63000000D03*
X136000000Y-64500000D03*
X131500000Y-62000000D03*
X131000000Y-65500000D03*
X138000000Y-64500000D03*
X136500000Y-65000000D03*
X138000000Y-62500000D03*
X135500000Y-62000000D03*
X137500000Y-62000000D03*
X135500000Y-65000000D03*
%TD*%
%TA.AperFunction,Conductor*%
%TO.N,GND*%
G36*
X139488227Y-53702518D02*
G01*
X139499642Y-53705143D01*
X139510517Y-53702682D01*
X139521664Y-53702702D01*
X139521664Y-53702863D01*
X139531669Y-53702076D01*
X139603759Y-53706801D01*
X139728475Y-53714975D01*
X139741302Y-53716663D01*
X139959516Y-53760068D01*
X139972016Y-53763418D01*
X140182691Y-53834933D01*
X140194653Y-53839889D01*
X140276954Y-53880475D01*
X140394180Y-53938284D01*
X140405386Y-53944753D01*
X140590385Y-54068365D01*
X140600639Y-54076233D01*
X140767914Y-54222930D01*
X140777069Y-54232085D01*
X140923767Y-54399361D01*
X140931635Y-54409615D01*
X141055247Y-54594614D01*
X141061716Y-54605820D01*
X141160111Y-54805346D01*
X141165067Y-54817309D01*
X141236581Y-55027980D01*
X141239933Y-55040489D01*
X141283336Y-55258691D01*
X141285026Y-55271530D01*
X141297891Y-55467816D01*
X141297101Y-55477628D01*
X141297375Y-55477628D01*
X141297355Y-55488778D01*
X141294857Y-55499642D01*
X141297317Y-55510514D01*
X141297317Y-55510516D01*
X141297559Y-55511583D01*
X141300000Y-55533432D01*
X141300000Y-71466040D01*
X141297482Y-71488227D01*
X141294857Y-71499642D01*
X141297318Y-71510517D01*
X141297298Y-71521664D01*
X141297137Y-71521664D01*
X141297924Y-71531669D01*
X141285026Y-71728469D01*
X141283336Y-71741309D01*
X141239933Y-71959511D01*
X141236581Y-71972020D01*
X141165067Y-72182691D01*
X141160111Y-72194654D01*
X141061716Y-72394180D01*
X141055247Y-72405386D01*
X140931635Y-72590385D01*
X140923767Y-72600639D01*
X140791003Y-72752027D01*
X140777070Y-72767914D01*
X140767915Y-72777069D01*
X140600639Y-72923767D01*
X140590385Y-72931635D01*
X140405386Y-73055247D01*
X140394180Y-73061716D01*
X140215697Y-73149734D01*
X140194654Y-73160111D01*
X140182692Y-73165067D01*
X139972016Y-73236582D01*
X139959516Y-73239932D01*
X139741302Y-73283337D01*
X139728477Y-73285025D01*
X139532181Y-73297891D01*
X139522372Y-73297101D01*
X139522372Y-73297375D01*
X139511222Y-73297355D01*
X139500358Y-73294857D01*
X139489486Y-73297317D01*
X139489484Y-73297317D01*
X139488417Y-73297559D01*
X139466568Y-73300000D01*
X128533960Y-73300000D01*
X128511773Y-73297482D01*
X128500358Y-73294857D01*
X128489483Y-73297318D01*
X128478336Y-73297298D01*
X128478336Y-73297137D01*
X128468331Y-73297924D01*
X128396241Y-73293199D01*
X128271525Y-73285025D01*
X128258698Y-73283337D01*
X128040484Y-73239932D01*
X128027984Y-73236582D01*
X127817308Y-73165067D01*
X127805346Y-73160111D01*
X127784304Y-73149734D01*
X127605820Y-73061716D01*
X127594614Y-73055247D01*
X127409615Y-72931635D01*
X127399361Y-72923767D01*
X127232085Y-72777069D01*
X127222930Y-72767914D01*
X127208997Y-72752027D01*
X127076233Y-72600639D01*
X127068365Y-72590385D01*
X126944753Y-72405386D01*
X126938284Y-72394180D01*
X126839889Y-72194654D01*
X126834933Y-72182691D01*
X126763419Y-71972020D01*
X126760067Y-71959511D01*
X126716664Y-71741309D01*
X126714974Y-71728470D01*
X126702109Y-71532184D01*
X126702899Y-71522372D01*
X126702625Y-71522372D01*
X126702645Y-71511222D01*
X126705143Y-71500358D01*
X126702683Y-71489486D01*
X126702683Y-71489484D01*
X126702441Y-71488417D01*
X126700000Y-71466568D01*
X126700000Y-55533960D01*
X126702518Y-55511773D01*
X126702562Y-55511583D01*
X126705143Y-55500358D01*
X126702682Y-55489483D01*
X126702702Y-55478336D01*
X126702863Y-55478336D01*
X126702076Y-55468331D01*
X126714974Y-55271531D01*
X126716664Y-55258691D01*
X126760067Y-55040489D01*
X126763419Y-55027980D01*
X126834933Y-54817309D01*
X126839889Y-54805346D01*
X126938284Y-54605820D01*
X126944753Y-54594614D01*
X127068365Y-54409615D01*
X127076233Y-54399361D01*
X127222931Y-54232085D01*
X127232086Y-54222930D01*
X127399361Y-54076233D01*
X127409615Y-54068365D01*
X127594614Y-53944753D01*
X127605820Y-53938284D01*
X127723046Y-53880475D01*
X127805347Y-53839889D01*
X127817309Y-53834933D01*
X128027984Y-53763418D01*
X128040484Y-53760068D01*
X128258698Y-53716663D01*
X128271523Y-53714975D01*
X128467819Y-53702109D01*
X128477628Y-53702899D01*
X128477628Y-53702625D01*
X128488778Y-53702645D01*
X128499642Y-53705143D01*
X128510514Y-53702683D01*
X128510516Y-53702683D01*
X128511583Y-53702441D01*
X128533432Y-53700000D01*
X139466040Y-53700000D01*
X139488227Y-53702518D01*
G37*
%TD.AperFunction*%
%TD*%
M02*
