%TF.GenerationSoftware,KiCad,Pcbnew,6.0.9+dfsg-1~bpo11+1*%
%TF.CreationDate,2022-11-06T14:36:49+01:00*%
%TF.ProjectId,sma-connector,736d612d-636f-46e6-9e65-63746f722e6b,2*%
%TF.SameCoordinates,Original*%
%TF.FileFunction,Soldermask,Top*%
%TF.FilePolarity,Negative*%
%FSLAX46Y46*%
G04 Gerber Fmt 4.6, Leading zero omitted, Abs format (unit mm)*
G04 Created by KiCad (PCBNEW 6.0.9+dfsg-1~bpo11+1) date 2022-11-06 14:36:49*
%MOMM*%
%LPD*%
G01*
G04 APERTURE LIST*
G04 Aperture macros list*
%AMFreePoly0*
4,1,25,-1.500000,1.420000,-1.360000,1.280000,-1.205000,1.155000,-1.035000,1.045000,-0.860000,0.950000,-0.675000,0.875000,-0.480000,0.820000,-0.280000,0.780000,-0.085000,0.765000,0.085000,0.765000,0.280000,0.780000,0.480000,0.820000,0.675000,0.875000,0.860000,0.950000,1.035000,1.045000,1.205000,1.155000,1.360000,1.280000,1.500000,1.420000,1.645000,1.595000,3.555000,1.595000,
3.555000,-0.755000,-3.555000,-0.755000,-3.555000,1.595000,-1.645000,1.595000,-1.500000,1.420000,-1.500000,1.420000,$1*%
G04 Aperture macros list end*
%ADD10C,3.400000*%
%ADD11C,1.730000*%
%ADD12FreePoly0,0.000000*%
%ADD13FreePoly0,180.000000*%
G04 APERTURE END LIST*
%TO.C,J2*%
G36*
X141500000Y-66500000D02*
G01*
X138500000Y-66500000D01*
X138500000Y-60500000D01*
X141500000Y-60500000D01*
X141500000Y-66500000D01*
G37*
%TD*%
D10*
%TO.C,H3*%
X129000000Y-56000000D03*
%TD*%
D11*
%TO.C,J1*%
X132000000Y-63500000D03*
D12*
X132000000Y-66300000D03*
D13*
X132000000Y-60700000D03*
%TD*%
D10*
%TO.C,H4*%
X139000000Y-71000000D03*
%TD*%
%TO.C,H2*%
X139000000Y-56000000D03*
%TD*%
%TO.C,H1*%
X129000000Y-71000000D03*
%TD*%
G36*
X132503094Y-55246152D02*
G01*
X132518709Y-55246919D01*
X132531018Y-55248131D01*
X132539329Y-55249364D01*
X132603777Y-55279146D01*
X132641892Y-55339044D01*
X132641574Y-55410040D01*
X132602923Y-55469593D01*
X132538210Y-55498797D01*
X132520838Y-55500000D01*
X132518115Y-55500000D01*
X132502876Y-55504475D01*
X132501671Y-55505865D01*
X132500000Y-55513548D01*
X132500000Y-57480951D01*
X132504475Y-57496190D01*
X132505865Y-57497395D01*
X132513548Y-57499066D01*
X132526238Y-57499066D01*
X132594359Y-57519068D01*
X132640852Y-57572724D01*
X132650956Y-57642998D01*
X132621462Y-57707578D01*
X132556886Y-57747282D01*
X132555586Y-57747608D01*
X132543426Y-57750028D01*
X132531015Y-57751869D01*
X132518709Y-57753081D01*
X132503094Y-57753848D01*
X132496912Y-57754000D01*
X126626000Y-57754000D01*
X126557879Y-57733998D01*
X126511386Y-57680342D01*
X126500000Y-57628000D01*
X126500000Y-55504501D01*
X126500321Y-55495513D01*
X126509797Y-55363012D01*
X126534607Y-55296492D01*
X126591443Y-55253945D01*
X126635476Y-55246000D01*
X132496912Y-55246000D01*
X132503094Y-55246152D01*
G37*
G36*
X139504487Y-53500321D02*
G01*
X139775645Y-53519714D01*
X139793440Y-53522273D01*
X140054654Y-53579097D01*
X140071903Y-53584161D01*
X140322386Y-53677586D01*
X140338740Y-53685055D01*
X140573375Y-53813176D01*
X140588498Y-53822895D01*
X140802510Y-53983103D01*
X140816096Y-53994876D01*
X141005124Y-54183904D01*
X141016897Y-54197490D01*
X141177105Y-54411502D01*
X141186824Y-54426625D01*
X141314945Y-54661260D01*
X141322414Y-54677614D01*
X141415839Y-54928097D01*
X141420903Y-54945346D01*
X141477727Y-55206560D01*
X141480286Y-55224355D01*
X141499679Y-55495513D01*
X141500000Y-55504501D01*
X141500000Y-55628000D01*
X141479998Y-55696121D01*
X141426342Y-55742614D01*
X141374000Y-55754000D01*
X135626000Y-55754000D01*
X135557879Y-55733998D01*
X135511386Y-55680342D01*
X135500000Y-55628000D01*
X135500000Y-55518115D01*
X135495525Y-55502876D01*
X135494135Y-55501671D01*
X135486452Y-55500000D01*
X132518115Y-55500000D01*
X132502876Y-55504475D01*
X132501671Y-55505865D01*
X132500000Y-55513548D01*
X132500000Y-55628000D01*
X132479998Y-55696121D01*
X132426342Y-55742614D01*
X132374000Y-55754000D01*
X126626000Y-55754000D01*
X126557879Y-55733998D01*
X126511386Y-55680342D01*
X126500000Y-55628000D01*
X126500000Y-55504501D01*
X126500321Y-55495513D01*
X126519714Y-55224355D01*
X126522273Y-55206560D01*
X126579097Y-54945346D01*
X126584161Y-54928097D01*
X126677586Y-54677614D01*
X126685055Y-54661260D01*
X126813176Y-54426625D01*
X126822895Y-54411502D01*
X126983103Y-54197490D01*
X126994876Y-54183904D01*
X127183904Y-53994876D01*
X127197490Y-53983103D01*
X127411502Y-53822895D01*
X127426625Y-53813176D01*
X127661260Y-53685055D01*
X127677614Y-53677586D01*
X127928097Y-53584161D01*
X127945346Y-53579097D01*
X128206560Y-53522273D01*
X128224355Y-53519714D01*
X128495513Y-53500321D01*
X128504501Y-53500000D01*
X139495499Y-53500000D01*
X139504487Y-53500321D01*
G37*
G36*
X141432645Y-55266002D02*
G01*
X141479138Y-55319658D01*
X141490203Y-55363012D01*
X141499679Y-55495513D01*
X141500000Y-55504501D01*
X141500000Y-57453225D01*
X141497121Y-57480008D01*
X141489825Y-57513548D01*
X141489825Y-57628000D01*
X141469823Y-57696121D01*
X141416167Y-57742614D01*
X141363825Y-57754000D01*
X135503088Y-57754000D01*
X135496906Y-57753848D01*
X135481291Y-57753081D01*
X135468985Y-57751869D01*
X135456574Y-57750028D01*
X135444414Y-57747608D01*
X135443114Y-57747282D01*
X135381904Y-57711311D01*
X135349859Y-57647958D01*
X135357152Y-57577337D01*
X135401468Y-57521869D01*
X135473762Y-57499066D01*
X135481885Y-57499066D01*
X135497124Y-57494591D01*
X135498329Y-57493201D01*
X135500000Y-57485518D01*
X135500000Y-55518115D01*
X135495525Y-55502876D01*
X135494135Y-55501671D01*
X135486452Y-55500000D01*
X135479162Y-55500000D01*
X135411041Y-55479998D01*
X135364548Y-55426342D01*
X135354444Y-55356068D01*
X135383938Y-55291488D01*
X135443664Y-55253104D01*
X135460671Y-55249364D01*
X135468982Y-55248131D01*
X135481291Y-55246919D01*
X135496906Y-55246152D01*
X135503088Y-55246000D01*
X141364524Y-55246000D01*
X141432645Y-55266002D01*
G37*
G36*
X141442121Y-57265068D02*
G01*
X141488614Y-57318724D01*
X141500000Y-57371066D01*
X141500000Y-57453225D01*
X141497121Y-57480008D01*
X141489825Y-57513548D01*
X141489825Y-71637765D01*
X141489504Y-71646753D01*
X141480286Y-71775645D01*
X141477727Y-71793440D01*
X141420903Y-72054654D01*
X141415839Y-72071903D01*
X141322414Y-72322386D01*
X141314945Y-72338740D01*
X141186824Y-72573375D01*
X141177105Y-72588498D01*
X141016897Y-72802510D01*
X141005124Y-72816096D01*
X140816096Y-73005124D01*
X140802510Y-73016897D01*
X140588498Y-73177105D01*
X140573375Y-73186824D01*
X140338740Y-73314945D01*
X140322386Y-73322414D01*
X140071903Y-73415839D01*
X140054654Y-73420903D01*
X139793440Y-73477727D01*
X139775645Y-73480286D01*
X139517546Y-73498745D01*
X139508558Y-73499066D01*
X128491442Y-73499066D01*
X128482454Y-73498745D01*
X128224355Y-73480286D01*
X128206560Y-73477727D01*
X127945346Y-73420903D01*
X127928097Y-73415839D01*
X127677614Y-73322414D01*
X127661260Y-73314945D01*
X127426625Y-73186824D01*
X127411502Y-73177105D01*
X127197490Y-73016897D01*
X127183904Y-73005124D01*
X126994876Y-72816096D01*
X126983103Y-72802510D01*
X126822895Y-72588498D01*
X126813176Y-72573375D01*
X126685055Y-72338740D01*
X126677586Y-72322386D01*
X126584161Y-72071903D01*
X126579097Y-72054654D01*
X126522273Y-71793440D01*
X126519714Y-71775645D01*
X126500321Y-71504487D01*
X126500000Y-71495499D01*
X126500000Y-57625066D01*
X126520002Y-57556945D01*
X126573658Y-57510452D01*
X126626000Y-57499066D01*
X135481885Y-57499066D01*
X135497124Y-57494591D01*
X135498329Y-57493201D01*
X135500000Y-57485518D01*
X135500000Y-57371066D01*
X135520002Y-57302945D01*
X135573658Y-57256452D01*
X135626000Y-57245066D01*
X141374000Y-57245066D01*
X141442121Y-57265068D01*
G37*
M02*
