%TF.GenerationSoftware,KiCad,Pcbnew,6.0.1-79c1e3a40b~116~ubuntu20.04.1*%
%TF.CreationDate,2022-01-22T19:05:20+01:00*%
%TF.ProjectId,sma-connector,736d612d-636f-46e6-9e65-63746f722e6b,rev?*%
%TF.SameCoordinates,Original*%
%TF.FileFunction,Copper,L1,Top*%
%TF.FilePolarity,Positive*%
%FSLAX46Y46*%
G04 Gerber Fmt 4.6, Leading zero omitted, Abs format (unit mm)*
G04 Created by KiCad (PCBNEW 6.0.1-79c1e3a40b~116~ubuntu20.04.1) date 2022-01-22 19:05:20*
%MOMM*%
%LPD*%
G01*
G04 APERTURE LIST*
G04 Aperture macros list*
%AMFreePoly0*
4,1,25,-1.500000,1.420000,-1.360000,1.280000,-1.205000,1.155000,-1.035000,1.045000,-0.860000,0.950000,-0.675000,0.875000,-0.480000,0.820000,-0.280000,0.780000,-0.085000,0.765000,0.085000,0.765000,0.280000,0.780000,0.480000,0.820000,0.675000,0.875000,0.860000,0.950000,1.035000,1.045000,1.205000,1.155000,1.360000,1.280000,1.500000,1.420000,1.645000,1.595000,3.555000,1.595000,
3.555000,-0.755000,-3.555000,-0.755000,-3.555000,1.595000,-1.645000,1.595000,-1.500000,1.420000,-1.500000,1.420000,$1*%
G04 Aperture macros list end*
%TA.AperFunction,SMDPad,CuDef*%
%ADD10FreePoly0,180.000000*%
%TD*%
%TA.AperFunction,SMDPad,CuDef*%
%ADD11FreePoly0,0.000000*%
%TD*%
%TA.AperFunction,SMDPad,CuDef*%
%ADD12C,1.730000*%
%TD*%
%TA.AperFunction,SMDPad,CuDef*%
%ADD13R,3.000000X1.078010*%
%TD*%
%TA.AperFunction,SMDPad,CuDef*%
%ADD14R,3.000000X2.000000*%
%TD*%
%TA.AperFunction,ComponentPad*%
%ADD15C,3.400000*%
%TD*%
%TA.AperFunction,ViaPad*%
%ADD16C,0.800000*%
%TD*%
%TA.AperFunction,Conductor*%
%ADD17C,1.078010*%
%TD*%
G04 APERTURE END LIST*
%TO.C,G\u002A\u002A\u002A*%
G36*
X136548983Y-67137435D02*
G01*
X136566473Y-67146707D01*
X136573503Y-67166088D01*
X136570320Y-67198790D01*
X136557169Y-67248027D01*
X136534626Y-67316053D01*
X136514960Y-67372108D01*
X136497923Y-67419130D01*
X136485257Y-67452422D01*
X136478702Y-67467282D01*
X136478505Y-67467523D01*
X136485289Y-67476203D01*
X136508581Y-67493470D01*
X136543354Y-67515601D01*
X136543685Y-67515799D01*
X136619165Y-67568229D01*
X136676569Y-67623171D01*
X136714749Y-67678522D01*
X136732557Y-67732182D01*
X136728846Y-67782047D01*
X136708983Y-67818579D01*
X136685545Y-67847524D01*
X136753433Y-67888419D01*
X136801659Y-67919701D01*
X136851482Y-67955428D01*
X136877115Y-67975570D01*
X136908385Y-68002788D01*
X136924089Y-68022811D01*
X136928248Y-68043662D01*
X136925187Y-68071435D01*
X136919157Y-68119141D01*
X136915014Y-68167505D01*
X136914860Y-68170268D01*
X136908443Y-68207889D01*
X136891939Y-68229077D01*
X136885142Y-68233029D01*
X136857212Y-68252835D01*
X136833532Y-68276823D01*
X136821457Y-68289767D01*
X136806748Y-68298692D01*
X136784526Y-68304627D01*
X136749913Y-68308603D01*
X136698027Y-68311651D01*
X136660954Y-68313281D01*
X136589353Y-68317603D01*
X136535454Y-68323662D01*
X136502094Y-68331085D01*
X136494013Y-68335184D01*
X136479580Y-68357384D01*
X136468714Y-68391433D01*
X136467661Y-68397195D01*
X136458828Y-68428500D01*
X136441324Y-68474186D01*
X136418152Y-68526750D01*
X136404454Y-68555127D01*
X136383847Y-68597750D01*
X136367793Y-68635518D01*
X136354826Y-68673761D01*
X136343479Y-68717806D01*
X136332287Y-68772983D01*
X136319782Y-68844620D01*
X136312299Y-68889990D01*
X136298626Y-68980404D01*
X136285306Y-69080321D01*
X136273533Y-69179974D01*
X136264499Y-69269594D01*
X136261540Y-69305468D01*
X136244458Y-69484936D01*
X136221201Y-69644064D01*
X136191090Y-69786699D01*
X136153933Y-69915225D01*
X136119233Y-70008557D01*
X136079816Y-70089949D01*
X136031473Y-70166239D01*
X135969997Y-70244263D01*
X135911002Y-70309890D01*
X135793005Y-70450410D01*
X135692761Y-70602053D01*
X135617818Y-70745544D01*
X135584000Y-70813616D01*
X135553544Y-70864591D01*
X135522177Y-70904969D01*
X135494341Y-70933276D01*
X135461129Y-70962697D01*
X135434053Y-70983815D01*
X135418831Y-70992180D01*
X135418623Y-70992187D01*
X135404288Y-71000024D01*
X135390448Y-71024687D01*
X135376613Y-71067901D01*
X135362291Y-71131393D01*
X135346992Y-71216890D01*
X135337379Y-71277894D01*
X135319656Y-71389529D01*
X135302573Y-71484193D01*
X135284372Y-71569602D01*
X135263293Y-71653474D01*
X135237580Y-71743526D01*
X135213093Y-71823278D01*
X135188507Y-71906831D01*
X135172034Y-71978473D01*
X135163316Y-72044883D01*
X135161994Y-72112742D01*
X135167710Y-72188728D01*
X135180105Y-72279521D01*
X135186483Y-72319238D01*
X135198350Y-72393059D01*
X135209432Y-72465411D01*
X135218727Y-72529510D01*
X135225234Y-72578572D01*
X135226791Y-72592090D01*
X135235591Y-72646104D01*
X135251763Y-72690710D01*
X135280132Y-72738801D01*
X135283636Y-72744018D01*
X135331881Y-72815332D01*
X134969318Y-72815332D01*
X134977699Y-72775024D01*
X134988079Y-72739306D01*
X135000592Y-72711884D01*
X135006425Y-72695629D01*
X135003571Y-72673531D01*
X134990624Y-72639765D01*
X134975343Y-72607174D01*
X134951334Y-72552338D01*
X134930892Y-72492520D01*
X134912691Y-72422682D01*
X134895405Y-72337789D01*
X134879083Y-72241499D01*
X134866988Y-72178939D01*
X134849142Y-72103484D01*
X134828158Y-72025587D01*
X134810901Y-71968647D01*
X134787294Y-71893226D01*
X134769065Y-71828083D01*
X134755108Y-71767061D01*
X134744317Y-71704005D01*
X134735586Y-71632758D01*
X134727809Y-71547164D01*
X134722374Y-71475879D01*
X134716044Y-71352073D01*
X134715081Y-71233563D01*
X134719371Y-71126298D01*
X134728798Y-71036226D01*
X134731216Y-71021223D01*
X134737981Y-70982046D01*
X134515676Y-70988913D01*
X134370694Y-70990737D01*
X134244557Y-70986229D01*
X134132001Y-70974887D01*
X134027762Y-70956211D01*
X133942311Y-70934353D01*
X133814531Y-70887707D01*
X133707319Y-70827643D01*
X133620148Y-70753786D01*
X133552489Y-70665762D01*
X133545166Y-70653375D01*
X133510927Y-70593616D01*
X133502204Y-70628369D01*
X133478365Y-70697004D01*
X133441469Y-70772732D01*
X133396836Y-70845988D01*
X133349790Y-70907210D01*
X133342803Y-70914817D01*
X133301993Y-70959259D01*
X133274619Y-70994404D01*
X133256421Y-71028335D01*
X133243139Y-71069138D01*
X133230513Y-71124897D01*
X133229482Y-71129871D01*
X133206493Y-71217050D01*
X133173878Y-71296687D01*
X133128669Y-71373894D01*
X133067897Y-71453780D01*
X132993229Y-71536617D01*
X132940532Y-71592762D01*
X132902655Y-71635946D01*
X132876498Y-71670355D01*
X132858962Y-71700180D01*
X132846946Y-71729607D01*
X132844311Y-71737815D01*
X132827668Y-71812698D01*
X132817915Y-71900830D01*
X132815708Y-71991447D01*
X132821707Y-72073788D01*
X132823167Y-72083593D01*
X132845949Y-72222991D01*
X132866117Y-72339479D01*
X132884067Y-72434771D01*
X132900193Y-72510580D01*
X132914893Y-72568617D01*
X132928560Y-72610596D01*
X132941591Y-72638229D01*
X132954381Y-72653229D01*
X132954792Y-72653520D01*
X132991397Y-72683848D01*
X133024435Y-72719415D01*
X133047134Y-72752465D01*
X133052433Y-72765393D01*
X133054058Y-72776810D01*
X133048887Y-72784118D01*
X133032661Y-72788229D01*
X133001120Y-72790059D01*
X132950004Y-72790519D01*
X132935209Y-72790527D01*
X132811411Y-72790527D01*
X132814264Y-72756421D01*
X132811768Y-72734561D01*
X132798532Y-72709668D01*
X132771441Y-72676955D01*
X132743613Y-72647900D01*
X132692227Y-72588998D01*
X132645461Y-72519928D01*
X132601544Y-72437267D01*
X132558705Y-72337595D01*
X132515172Y-72217490D01*
X132504923Y-72186759D01*
X132463141Y-72052764D01*
X132432802Y-71936645D01*
X132413967Y-71834241D01*
X132406694Y-71741389D01*
X132411044Y-71653926D01*
X132427077Y-71567692D01*
X132454853Y-71478524D01*
X132494430Y-71382260D01*
X132517187Y-71333252D01*
X132535573Y-71293298D01*
X132547500Y-71260886D01*
X132554325Y-71228602D01*
X132557404Y-71189034D01*
X132558092Y-71134770D01*
X132558014Y-71110009D01*
X132548526Y-70976620D01*
X132521426Y-70827354D01*
X132476994Y-70663515D01*
X132435241Y-70539502D01*
X132413485Y-70474467D01*
X132393059Y-70404948D01*
X132377146Y-70342116D01*
X132372181Y-70318331D01*
X132356944Y-70250082D01*
X132340420Y-70198304D01*
X132323680Y-70164656D01*
X132307797Y-70150796D01*
X132293841Y-70158384D01*
X132284408Y-70182482D01*
X132278682Y-70202440D01*
X132273410Y-70204268D01*
X132265112Y-70185910D01*
X132258185Y-70166979D01*
X132245107Y-70109030D01*
X132240320Y-70037013D01*
X132243593Y-69960157D01*
X132254693Y-69887689D01*
X132266241Y-69846612D01*
X132322965Y-69723134D01*
X132400947Y-69610445D01*
X132498711Y-69509411D01*
X132614783Y-69420898D01*
X132747688Y-69345772D01*
X132895949Y-69284897D01*
X133058094Y-69239141D01*
X133232645Y-69209368D01*
X133371386Y-69198023D01*
X133476743Y-69195578D01*
X133577648Y-69198650D01*
X133679998Y-69207893D01*
X133789687Y-69223960D01*
X133912612Y-69247505D01*
X134009974Y-69268851D01*
X134125308Y-69294699D01*
X134221050Y-69314928D01*
X134301618Y-69330146D01*
X134371429Y-69340960D01*
X134434904Y-69347978D01*
X134496458Y-69351810D01*
X134560511Y-69353062D01*
X134618374Y-69352584D01*
X134685716Y-69351793D01*
X134738854Y-69352601D01*
X134784830Y-69355874D01*
X134830687Y-69362478D01*
X134883469Y-69373280D01*
X134950217Y-69389146D01*
X134984403Y-69397600D01*
X135070839Y-69418162D01*
X135137639Y-69431327D01*
X135188847Y-69437079D01*
X135228509Y-69435406D01*
X135260669Y-69426290D01*
X135289372Y-69409719D01*
X135306331Y-69396432D01*
X135331601Y-69371905D01*
X135353018Y-69342447D01*
X135372123Y-69304296D01*
X135390455Y-69253687D01*
X135409556Y-69186855D01*
X135430967Y-69100037D01*
X135435367Y-69081213D01*
X135456442Y-68995160D01*
X135481837Y-68898595D01*
X135508531Y-68802654D01*
X135533499Y-68718473D01*
X135536311Y-68709450D01*
X135554945Y-68648715D01*
X135569737Y-68596126D01*
X135581647Y-68546496D01*
X135591634Y-68494644D01*
X135600657Y-68435383D01*
X135609676Y-68363531D01*
X135619649Y-68273902D01*
X135623385Y-68238867D01*
X135636703Y-68116285D01*
X135648553Y-68015365D01*
X135659505Y-67933049D01*
X135670125Y-67866278D01*
X135680981Y-67811993D01*
X135692643Y-67767135D01*
X135705677Y-67728646D01*
X135720651Y-67693467D01*
X135727185Y-67679893D01*
X135752076Y-67632849D01*
X135777417Y-67594250D01*
X135807496Y-67559715D01*
X135846599Y-67524862D01*
X135899012Y-67485310D01*
X135957275Y-67444692D01*
X136016903Y-67401539D01*
X136078903Y-67352737D01*
X136134573Y-67305315D01*
X136164539Y-67277278D01*
X136202207Y-67242003D01*
X136234668Y-67215432D01*
X136257254Y-67201203D01*
X136263758Y-67199950D01*
X136280048Y-67217495D01*
X136281983Y-67253480D01*
X136269588Y-67306135D01*
X136262002Y-67327816D01*
X136248222Y-67365970D01*
X136238903Y-67394305D01*
X136236328Y-67404851D01*
X136243925Y-67402553D01*
X136264266Y-67385423D01*
X136293674Y-67357220D01*
X136328473Y-67321704D01*
X136364988Y-67282633D01*
X136399541Y-67243769D01*
X136428456Y-67208870D01*
X136430408Y-67206372D01*
X136463047Y-67167073D01*
X136487876Y-67144927D01*
X136509995Y-67135908D01*
X136520788Y-67135058D01*
X136548983Y-67137435D01*
G37*
%TD*%
D10*
%TO.P,J1,2,Ext*%
%TO.N,GND*%
X132000000Y-60700000D03*
D11*
X132000000Y-66300000D03*
D12*
%TO.P,J1,1,In*%
%TO.N,Net-(J1-Pad1)*%
X132000000Y-63500000D03*
%TD*%
D13*
%TO.P,J2,1,Pin_1*%
%TO.N,Net-(J1-Pad1)*%
X140000000Y-63500000D03*
D14*
%TO.P,J2,2,Pin_2*%
%TO.N,GND*%
X140000000Y-61760995D03*
X140000000Y-65239005D03*
%TD*%
D15*
%TO.P,H4,1,1*%
%TO.N,GND*%
X139000000Y-71000000D03*
%TD*%
%TO.P,H3,1,1*%
%TO.N,GND*%
X129000000Y-56000000D03*
%TD*%
%TO.P,H2,1,1*%
%TO.N,GND*%
X139000000Y-56000000D03*
%TD*%
%TO.P,H1,1,1*%
%TO.N,GND*%
X129000000Y-71000000D03*
%TD*%
D16*
%TO.N,GND*%
X141000000Y-65000000D03*
X140000000Y-65000000D03*
X140500000Y-65500000D03*
X141000000Y-66000000D03*
X141000000Y-61000000D03*
X140500000Y-61500000D03*
X141000000Y-62000000D03*
X140000000Y-62000000D03*
X134000000Y-60000000D03*
X134000000Y-67000000D03*
X130000000Y-67000000D03*
X128500000Y-65500000D03*
X128500000Y-61500000D03*
X130000000Y-60000000D03*
X132500000Y-67500000D03*
X131500000Y-67500000D03*
X128000000Y-64000000D03*
X128000000Y-63000000D03*
X131500000Y-59500000D03*
X132500000Y-59500000D03*
X133000000Y-67000000D03*
X131000000Y-67000000D03*
X132000000Y-67000000D03*
X128500000Y-64500000D03*
X128500000Y-63500000D03*
X128500000Y-62500000D03*
X133000000Y-60000000D03*
X131000000Y-60000000D03*
X132000000Y-60000000D03*
X130000000Y-62000000D03*
X130500000Y-61500000D03*
X133500000Y-61500000D03*
X134000000Y-62000000D03*
X135000000Y-62000000D03*
X134500000Y-61500000D03*
X135500000Y-61500000D03*
X139000000Y-65000000D03*
X139500000Y-65500000D03*
X139000000Y-62000000D03*
X139500000Y-61500000D03*
X140000000Y-61000000D03*
X139000000Y-61000000D03*
X138500000Y-61500000D03*
X138500000Y-60500000D03*
X139500000Y-60500000D03*
X140500000Y-60500000D03*
X138500000Y-65500000D03*
X139000000Y-66000000D03*
X140000000Y-66000000D03*
X140500000Y-66500000D03*
X139500000Y-66500000D03*
X138500000Y-66500000D03*
X137500000Y-66500000D03*
X136500000Y-66500000D03*
X135500000Y-66500000D03*
X134500000Y-66500000D03*
X133500000Y-66500000D03*
X132500000Y-66500000D03*
X131500000Y-66500000D03*
X130500000Y-66500000D03*
X129500000Y-66500000D03*
X137500000Y-60500000D03*
X136500000Y-60500000D03*
X135500000Y-60500000D03*
X135000000Y-61000000D03*
X134500000Y-60500000D03*
X134000000Y-61000000D03*
X133500000Y-60500000D03*
X133000000Y-61000000D03*
X132500000Y-60500000D03*
X132000000Y-61000000D03*
X131500000Y-60500000D03*
X131000000Y-61000000D03*
X130500000Y-60500000D03*
X130000000Y-61000000D03*
X129500000Y-60500000D03*
X129000000Y-61000000D03*
X129500000Y-61500000D03*
X129000000Y-62000000D03*
X129500000Y-62500000D03*
X129000000Y-63000000D03*
X129500000Y-63500000D03*
X129000000Y-64000000D03*
X129500000Y-64500000D03*
X130000000Y-65000000D03*
X129000000Y-65000000D03*
X129000000Y-66000000D03*
X129500000Y-65500000D03*
X130500000Y-65500000D03*
X130000000Y-66000000D03*
X135000000Y-66000000D03*
X131000000Y-66000000D03*
X132000000Y-66000000D03*
X133000000Y-66000000D03*
X134000000Y-66000000D03*
X133500000Y-65500000D03*
X134000000Y-65000000D03*
X134500000Y-65500000D03*
X135000000Y-65000000D03*
X135500000Y-65500000D03*
X138000000Y-61000000D03*
X137000000Y-61000000D03*
X136000000Y-61000000D03*
X136000000Y-66000000D03*
X137000000Y-66000000D03*
X138000000Y-66000000D03*
X137500000Y-65500000D03*
X136500000Y-65500000D03*
X136000000Y-65000000D03*
X137000000Y-65000000D03*
X138000000Y-65000000D03*
X137500000Y-61500000D03*
X136500000Y-61500000D03*
X136000000Y-62000000D03*
X137000000Y-62000000D03*
X138000000Y-62000000D03*
%TD*%
D17*
%TO.N,Net-(J1-Pad1)*%
X140000000Y-63500000D02*
X132000000Y-63500000D01*
%TD*%
%TA.AperFunction,Conductor*%
%TO.N,GND*%
G36*
X139488227Y-53702518D02*
G01*
X139499642Y-53705143D01*
X139510517Y-53702682D01*
X139521664Y-53702702D01*
X139521664Y-53702863D01*
X139531669Y-53702076D01*
X139603759Y-53706801D01*
X139728475Y-53714975D01*
X139741302Y-53716663D01*
X139959516Y-53760068D01*
X139972016Y-53763418D01*
X140182691Y-53834933D01*
X140194653Y-53839889D01*
X140276954Y-53880475D01*
X140394180Y-53938284D01*
X140405386Y-53944753D01*
X140590385Y-54068365D01*
X140600639Y-54076233D01*
X140767914Y-54222930D01*
X140777069Y-54232085D01*
X140923767Y-54399361D01*
X140931635Y-54409615D01*
X141055247Y-54594614D01*
X141061716Y-54605820D01*
X141160111Y-54805346D01*
X141165067Y-54817309D01*
X141236581Y-55027980D01*
X141239933Y-55040489D01*
X141283336Y-55258691D01*
X141285026Y-55271530D01*
X141297891Y-55467816D01*
X141297101Y-55477628D01*
X141297375Y-55477628D01*
X141297355Y-55488778D01*
X141294857Y-55499642D01*
X141297317Y-55510514D01*
X141297317Y-55510516D01*
X141297559Y-55511583D01*
X141300000Y-55533432D01*
X141300000Y-62661495D01*
X141281093Y-62719686D01*
X141231593Y-62755650D01*
X141201000Y-62760495D01*
X132813377Y-62760495D01*
X132755186Y-62741588D01*
X132750272Y-62737776D01*
X132602430Y-62615470D01*
X132602428Y-62615469D01*
X132598703Y-62612387D01*
X132414896Y-62513003D01*
X132350405Y-62493040D01*
X132219906Y-62452643D01*
X132219902Y-62452642D01*
X132215285Y-62451213D01*
X132210477Y-62450708D01*
X132210474Y-62450707D01*
X132012291Y-62429877D01*
X132012289Y-62429877D01*
X132007475Y-62429371D01*
X131938196Y-62435676D01*
X131804199Y-62447870D01*
X131804195Y-62447871D01*
X131799379Y-62448309D01*
X131794737Y-62449675D01*
X131794733Y-62449676D01*
X131603573Y-62505938D01*
X131603570Y-62505939D01*
X131598926Y-62507306D01*
X131413749Y-62604114D01*
X131409980Y-62607144D01*
X131409979Y-62607145D01*
X131254675Y-62732012D01*
X131254673Y-62732014D01*
X131250902Y-62735046D01*
X131247788Y-62738757D01*
X131247787Y-62738758D01*
X131229548Y-62760495D01*
X131116588Y-62895115D01*
X131015923Y-63078224D01*
X130952741Y-63277398D01*
X130929449Y-63485051D01*
X130946934Y-63693274D01*
X131004530Y-63894134D01*
X131100043Y-64079983D01*
X131229835Y-64243739D01*
X131233515Y-64246871D01*
X131233517Y-64246873D01*
X131305238Y-64307912D01*
X131388963Y-64379168D01*
X131393185Y-64381528D01*
X131393190Y-64381531D01*
X131437272Y-64406167D01*
X131571364Y-64481108D01*
X131575962Y-64482602D01*
X131765488Y-64544183D01*
X131765490Y-64544184D01*
X131770093Y-64545679D01*
X131977578Y-64570420D01*
X131982400Y-64570049D01*
X131982403Y-64570049D01*
X132181089Y-64554761D01*
X132181094Y-64554760D01*
X132185917Y-64554389D01*
X132387175Y-64498197D01*
X132391488Y-64496018D01*
X132391494Y-64496016D01*
X132569365Y-64406167D01*
X132569367Y-64406165D01*
X132573686Y-64403984D01*
X132657495Y-64338505D01*
X132734534Y-64278316D01*
X132734537Y-64278313D01*
X132738345Y-64275338D01*
X132741506Y-64271676D01*
X132745014Y-64268335D01*
X132746365Y-64269753D01*
X132791998Y-64242120D01*
X132814601Y-64239505D01*
X141201000Y-64239505D01*
X141259191Y-64258412D01*
X141295155Y-64307912D01*
X141300000Y-64338505D01*
X141300000Y-71466040D01*
X141297482Y-71488227D01*
X141294857Y-71499642D01*
X141297318Y-71510517D01*
X141297298Y-71521664D01*
X141297137Y-71521664D01*
X141297924Y-71531669D01*
X141294439Y-71584849D01*
X141285112Y-71727164D01*
X141285026Y-71728469D01*
X141283337Y-71741302D01*
X141239933Y-71959511D01*
X141236582Y-71972016D01*
X141169151Y-72170661D01*
X141165067Y-72182691D01*
X141160111Y-72194654D01*
X141061716Y-72394180D01*
X141055247Y-72405386D01*
X140931635Y-72590385D01*
X140923767Y-72600639D01*
X140777949Y-72766912D01*
X140777070Y-72767914D01*
X140767915Y-72777069D01*
X140600639Y-72923767D01*
X140590385Y-72931635D01*
X140405386Y-73055247D01*
X140394180Y-73061716D01*
X140215697Y-73149734D01*
X140194654Y-73160111D01*
X140182692Y-73165067D01*
X139972016Y-73236582D01*
X139959516Y-73239932D01*
X139741302Y-73283337D01*
X139728477Y-73285025D01*
X139532181Y-73297891D01*
X139522372Y-73297101D01*
X139522372Y-73297375D01*
X139511222Y-73297355D01*
X139500358Y-73294857D01*
X139489486Y-73297317D01*
X139489484Y-73297317D01*
X139488417Y-73297559D01*
X139466568Y-73300000D01*
X128533960Y-73300000D01*
X128511773Y-73297482D01*
X128500358Y-73294857D01*
X128489483Y-73297318D01*
X128478336Y-73297298D01*
X128478336Y-73297137D01*
X128468331Y-73297924D01*
X128396241Y-73293199D01*
X128271525Y-73285025D01*
X128258698Y-73283337D01*
X128040484Y-73239932D01*
X128027984Y-73236582D01*
X127817308Y-73165067D01*
X127805346Y-73160111D01*
X127784304Y-73149734D01*
X127605820Y-73061716D01*
X127594614Y-73055247D01*
X127409615Y-72931635D01*
X127399361Y-72923767D01*
X127232085Y-72777069D01*
X127222930Y-72767914D01*
X127222051Y-72766912D01*
X127076233Y-72600639D01*
X127068365Y-72590385D01*
X126944753Y-72405386D01*
X126938284Y-72394180D01*
X126839889Y-72194654D01*
X126834933Y-72182691D01*
X126830849Y-72170661D01*
X126763418Y-71972016D01*
X126760067Y-71959511D01*
X126716663Y-71741302D01*
X126714974Y-71728470D01*
X126714889Y-71727164D01*
X126702109Y-71532181D01*
X126702899Y-71522372D01*
X126702625Y-71522372D01*
X126702645Y-71511222D01*
X126705143Y-71500358D01*
X126702683Y-71489486D01*
X126702683Y-71489484D01*
X126702441Y-71488417D01*
X126700000Y-71466568D01*
X126700000Y-70027605D01*
X132039253Y-70027605D01*
X132039624Y-70033191D01*
X132039624Y-70033196D01*
X132039679Y-70034025D01*
X132039808Y-70044783D01*
X132039542Y-70051029D01*
X132040548Y-70056503D01*
X132040568Y-70056794D01*
X132041908Y-70067541D01*
X132043213Y-70087165D01*
X132044844Y-70111704D01*
X132045061Y-70118669D01*
X132045011Y-70130893D01*
X132046246Y-70136365D01*
X132046387Y-70137652D01*
X132046675Y-70139246D01*
X132047043Y-70144791D01*
X132048636Y-70150117D01*
X132050567Y-70156573D01*
X132052289Y-70163140D01*
X132059879Y-70196770D01*
X132061535Y-70206227D01*
X132062555Y-70214365D01*
X132064481Y-70219628D01*
X132065155Y-70222410D01*
X132065810Y-70224635D01*
X132066832Y-70227579D01*
X132068055Y-70233000D01*
X132070452Y-70238011D01*
X132071529Y-70241113D01*
X132072895Y-70244545D01*
X132073506Y-70247581D01*
X132075811Y-70252681D01*
X132075812Y-70252683D01*
X132078321Y-70258233D01*
X132081080Y-70264992D01*
X132085038Y-70275809D01*
X132086880Y-70278651D01*
X132090412Y-70287055D01*
X132099294Y-70312744D01*
X132107148Y-70320660D01*
X132107149Y-70320662D01*
X132117437Y-70331032D01*
X132126039Y-70340936D01*
X132141610Y-70361470D01*
X132151529Y-70366552D01*
X132154870Y-70369353D01*
X132156975Y-70371288D01*
X132158436Y-70372358D01*
X132159699Y-70373630D01*
X132159941Y-70374016D01*
X132161544Y-70375490D01*
X132163559Y-70377521D01*
X132162685Y-70378388D01*
X132191743Y-70424686D01*
X132194277Y-70434688D01*
X132194553Y-70435979D01*
X132194765Y-70439527D01*
X132196345Y-70444904D01*
X132199583Y-70455923D01*
X132200559Y-70459489D01*
X132204716Y-70475906D01*
X132206331Y-70479069D01*
X132206750Y-70480320D01*
X132215962Y-70511674D01*
X132216271Y-70512895D01*
X132216608Y-70516367D01*
X132218385Y-70521679D01*
X132222060Y-70532664D01*
X132223159Y-70536166D01*
X132227952Y-70552479D01*
X132229657Y-70555527D01*
X132230108Y-70556725D01*
X132238423Y-70581579D01*
X132238426Y-70581592D01*
X132238445Y-70581783D01*
X132245561Y-70602920D01*
X132245563Y-70603117D01*
X132245621Y-70603098D01*
X132252725Y-70624333D01*
X132252826Y-70624499D01*
X132252831Y-70624511D01*
X132281031Y-70708268D01*
X132284587Y-70718831D01*
X132286311Y-70724508D01*
X132325063Y-70867404D01*
X132326922Y-70875630D01*
X132348843Y-70996372D01*
X132350183Y-71007012D01*
X132357798Y-71114069D01*
X132358047Y-71120769D01*
X132358078Y-71130499D01*
X132358086Y-71133064D01*
X132358078Y-71134584D01*
X132357645Y-71168724D01*
X132357543Y-71176784D01*
X132357252Y-71183212D01*
X132356829Y-71188645D01*
X132348063Y-71222345D01*
X132335662Y-71249294D01*
X132335518Y-71249605D01*
X132321378Y-71280055D01*
X132320491Y-71281807D01*
X132318093Y-71285194D01*
X132315963Y-71290375D01*
X132315962Y-71290377D01*
X132311991Y-71300036D01*
X132310227Y-71304071D01*
X132303537Y-71318477D01*
X132302672Y-71322525D01*
X132301978Y-71324390D01*
X132277744Y-71383336D01*
X132275713Y-71387446D01*
X132273480Y-71392514D01*
X132270661Y-71397348D01*
X132267822Y-71406463D01*
X132264870Y-71414650D01*
X132261303Y-71423327D01*
X132260385Y-71428809D01*
X132258940Y-71433875D01*
X132257827Y-71438543D01*
X132240941Y-71492755D01*
X132237224Y-71502754D01*
X132234600Y-71508793D01*
X132233576Y-71514299D01*
X132233398Y-71514882D01*
X132231217Y-71523682D01*
X132231072Y-71524435D01*
X132229421Y-71529736D01*
X132228990Y-71535273D01*
X132228903Y-71536389D01*
X132227534Y-71546796D01*
X132216937Y-71603795D01*
X132214865Y-71612652D01*
X132213945Y-71615902D01*
X132213943Y-71615911D01*
X132212420Y-71621296D01*
X132212142Y-71626889D01*
X132211576Y-71630338D01*
X132211308Y-71634069D01*
X132210292Y-71639534D01*
X132210517Y-71645090D01*
X132210659Y-71648605D01*
X132210618Y-71657525D01*
X132209362Y-71682774D01*
X132207743Y-71715344D01*
X132207674Y-71716724D01*
X132206715Y-71726396D01*
X132206406Y-71728469D01*
X132205530Y-71734353D01*
X132205967Y-71739933D01*
X132205875Y-71742575D01*
X132205917Y-71745551D01*
X132206097Y-71748427D01*
X132205821Y-71753972D01*
X132206786Y-71759442D01*
X132206786Y-71759446D01*
X132207231Y-71761966D01*
X132208434Y-71771427D01*
X132213102Y-71831012D01*
X132213145Y-71831566D01*
X132213306Y-71841080D01*
X132213403Y-71842483D01*
X132213156Y-71848072D01*
X132214167Y-71853571D01*
X132214168Y-71853579D01*
X132214459Y-71855159D01*
X132215788Y-71865326D01*
X132215802Y-71865498D01*
X132216338Y-71872336D01*
X132217993Y-71877641D01*
X132218227Y-71878855D01*
X132220538Y-71888208D01*
X132231647Y-71948602D01*
X132232026Y-71950665D01*
X132232655Y-71954509D01*
X132233388Y-71959621D01*
X132233554Y-71965218D01*
X132234969Y-71970633D01*
X132234970Y-71970642D01*
X132236511Y-71976539D01*
X132238092Y-71983651D01*
X132239172Y-71989524D01*
X132239175Y-71989533D01*
X132240180Y-71994998D01*
X132242378Y-72000107D01*
X132243955Y-72005315D01*
X132244987Y-72008977D01*
X132264098Y-72082122D01*
X132264632Y-72084167D01*
X132265115Y-72086303D01*
X132265444Y-72090607D01*
X132267111Y-72095953D01*
X132270124Y-72105616D01*
X132271398Y-72110065D01*
X132273931Y-72119761D01*
X132273933Y-72119766D01*
X132275336Y-72125136D01*
X132277327Y-72128962D01*
X132278060Y-72131067D01*
X132307741Y-72226255D01*
X132307824Y-72226574D01*
X132308007Y-72228478D01*
X132314286Y-72247307D01*
X132314858Y-72249081D01*
X132319271Y-72263232D01*
X132318543Y-72263459D01*
X132318983Y-72264430D01*
X132319399Y-72264279D01*
X132319399Y-72264280D01*
X132325662Y-72281557D01*
X132325824Y-72282005D01*
X132326661Y-72284412D01*
X132332578Y-72302153D01*
X132333871Y-72304281D01*
X132334090Y-72304813D01*
X132363808Y-72386800D01*
X132365048Y-72390538D01*
X132365985Y-72395693D01*
X132368194Y-72400833D01*
X132368195Y-72400836D01*
X132371524Y-72408582D01*
X132373643Y-72413937D01*
X132378358Y-72426944D01*
X132381189Y-72431342D01*
X132382871Y-72434982D01*
X132383422Y-72436264D01*
X132409292Y-72496454D01*
X132410679Y-72500449D01*
X132410758Y-72500418D01*
X132412810Y-72505626D01*
X132414263Y-72511037D01*
X132416891Y-72515983D01*
X132419140Y-72520216D01*
X132422666Y-72527570D01*
X132426700Y-72536955D01*
X132429974Y-72541444D01*
X132432724Y-72546269D01*
X132432661Y-72546305D01*
X132434903Y-72549887D01*
X132458381Y-72594077D01*
X132460447Y-72597966D01*
X132464720Y-72607312D01*
X132465089Y-72608016D01*
X132467111Y-72613243D01*
X132470251Y-72617880D01*
X132470251Y-72617881D01*
X132470892Y-72618827D01*
X132476333Y-72627867D01*
X132479419Y-72633675D01*
X132483049Y-72637876D01*
X132483418Y-72638414D01*
X132489733Y-72646652D01*
X132517883Y-72688230D01*
X132523182Y-72697003D01*
X132526580Y-72703354D01*
X132530259Y-72707571D01*
X132531034Y-72708693D01*
X132535128Y-72714009D01*
X132536141Y-72715194D01*
X132539258Y-72719798D01*
X132544574Y-72724764D01*
X132551592Y-72732025D01*
X132554644Y-72735523D01*
X132579885Y-72764456D01*
X132581255Y-72766136D01*
X132583457Y-72769828D01*
X132587331Y-72773873D01*
X132590723Y-72778327D01*
X132589201Y-72779486D01*
X132609752Y-72817679D01*
X132611376Y-72824827D01*
X132611366Y-72835976D01*
X132616192Y-72846027D01*
X132616970Y-72849450D01*
X132618224Y-72852731D01*
X132619789Y-72863770D01*
X132633356Y-72884060D01*
X132640296Y-72896223D01*
X132650864Y-72918232D01*
X132659569Y-72925194D01*
X132661754Y-72927941D01*
X132664312Y-72930358D01*
X132670507Y-72939623D01*
X132680107Y-72945285D01*
X132680110Y-72945288D01*
X132691527Y-72952022D01*
X132703061Y-72959976D01*
X132713417Y-72968257D01*
X132713418Y-72968258D01*
X132722126Y-72975221D01*
X132732990Y-72977719D01*
X132736151Y-72979247D01*
X132739502Y-72980315D01*
X132749103Y-72985978D01*
X132760211Y-72986917D01*
X132773414Y-72988033D01*
X132777659Y-72988697D01*
X132777665Y-72988640D01*
X132783227Y-72989271D01*
X132788688Y-72990527D01*
X132798741Y-72990527D01*
X132807080Y-72990879D01*
X132840026Y-72993664D01*
X132847533Y-72990802D01*
X132851459Y-72990527D01*
X132912543Y-72990527D01*
X132912594Y-72990539D01*
X132912750Y-72990539D01*
X132924333Y-72990533D01*
X132928195Y-72990531D01*
X132928262Y-72990535D01*
X132929082Y-72990715D01*
X132931350Y-72990695D01*
X132931358Y-72990695D01*
X132949091Y-72990535D01*
X132949539Y-72990531D01*
X132950427Y-72990527D01*
X132957755Y-72990527D01*
X132957808Y-72990515D01*
X132957839Y-72990515D01*
X132972658Y-72990507D01*
X132973477Y-72990319D01*
X132973554Y-72990314D01*
X132983116Y-72990229D01*
X132985580Y-72990286D01*
X132990020Y-72991039D01*
X132995606Y-72990715D01*
X132995607Y-72990715D01*
X132998640Y-72990539D01*
X133005402Y-72990147D01*
X133010231Y-72989985D01*
X133025465Y-72989848D01*
X133029842Y-72988808D01*
X133032355Y-72988583D01*
X133038742Y-72988213D01*
X133042275Y-72988071D01*
X133045456Y-72988001D01*
X133045459Y-72988000D01*
X133053790Y-72987816D01*
X133060401Y-72988938D01*
X133099770Y-72977598D01*
X133102838Y-72976768D01*
X133119863Y-72972455D01*
X133122586Y-72971063D01*
X133123418Y-72970787D01*
X133148084Y-72963683D01*
X133156400Y-72956256D01*
X133161172Y-72953620D01*
X133166407Y-72950033D01*
X133170592Y-72946532D01*
X133180523Y-72941457D01*
X133190524Y-72928297D01*
X133194688Y-72923388D01*
X133203112Y-72917760D01*
X133216103Y-72895749D01*
X133222531Y-72886180D01*
X133224148Y-72884052D01*
X133235733Y-72868808D01*
X133237600Y-72859658D01*
X133239051Y-72856867D01*
X133249490Y-72839179D01*
X133250432Y-72828078D01*
X133251499Y-72824734D01*
X133252085Y-72821265D01*
X133256339Y-72810960D01*
X133254910Y-72785937D01*
X133254910Y-72785726D01*
X133257191Y-72777960D01*
X133255375Y-72766912D01*
X133253851Y-72757648D01*
X133252700Y-72747227D01*
X133251138Y-72719862D01*
X133246158Y-72710867D01*
X133246109Y-72710566D01*
X133245300Y-72708594D01*
X133245029Y-72707654D01*
X133244250Y-72706031D01*
X133238905Y-72692990D01*
X133238053Y-72690842D01*
X133226888Y-72661680D01*
X133222903Y-72651271D01*
X133215708Y-72644479D01*
X133211326Y-72638253D01*
X133210827Y-72637535D01*
X133197328Y-72617881D01*
X133196053Y-72616024D01*
X133191873Y-72609389D01*
X133189233Y-72604805D01*
X133189229Y-72604800D01*
X133186435Y-72599948D01*
X133182622Y-72595843D01*
X133181319Y-72594077D01*
X133179678Y-72592183D01*
X133176532Y-72587602D01*
X133172445Y-72583835D01*
X133172442Y-72583831D01*
X133168476Y-72580175D01*
X133163047Y-72574767D01*
X133147705Y-72558252D01*
X133141596Y-72551010D01*
X133136493Y-72544337D01*
X133132177Y-72540761D01*
X133128300Y-72536730D01*
X133129736Y-72535349D01*
X133101436Y-72490550D01*
X133095695Y-72467886D01*
X133095474Y-72467013D01*
X133094616Y-72463326D01*
X133093579Y-72458447D01*
X133080420Y-72396589D01*
X133079966Y-72394328D01*
X133079517Y-72391941D01*
X133075197Y-72369011D01*
X133063074Y-72304651D01*
X133062814Y-72303214D01*
X133043251Y-72190220D01*
X133043096Y-72189299D01*
X133027840Y-72095953D01*
X133021356Y-72056277D01*
X133020322Y-72047504D01*
X133018862Y-72027457D01*
X133016235Y-71991407D01*
X133016002Y-71981801D01*
X133017544Y-71918526D01*
X133018114Y-71910063D01*
X133024669Y-71850822D01*
X133026425Y-71840248D01*
X133033228Y-71809642D01*
X133051059Y-71771207D01*
X133055533Y-71765322D01*
X133059914Y-71759960D01*
X133087577Y-71728421D01*
X133089818Y-71725951D01*
X133124708Y-71688777D01*
X133124963Y-71688530D01*
X133126572Y-71687402D01*
X133139833Y-71672691D01*
X133141122Y-71671290D01*
X133154487Y-71657050D01*
X133155476Y-71655360D01*
X133155702Y-71655085D01*
X133202109Y-71603600D01*
X133205191Y-71600637D01*
X133205139Y-71600587D01*
X133209013Y-71596539D01*
X133213315Y-71592956D01*
X133216703Y-71588502D01*
X133216707Y-71588498D01*
X133219538Y-71584776D01*
X133224794Y-71578433D01*
X133227829Y-71575066D01*
X133231549Y-71570939D01*
X133234258Y-71566088D01*
X133237494Y-71561569D01*
X133237543Y-71561604D01*
X133239877Y-71558040D01*
X133278268Y-71507574D01*
X133285004Y-71499627D01*
X133285933Y-71498641D01*
X133289776Y-71494563D01*
X133292606Y-71489729D01*
X133293242Y-71488880D01*
X133297488Y-71482541D01*
X133298135Y-71481458D01*
X133301495Y-71477041D01*
X133304403Y-71470634D01*
X133309121Y-71461526D01*
X133334497Y-71418190D01*
X133340008Y-71408778D01*
X133344561Y-71401709D01*
X133347119Y-71398086D01*
X133347121Y-71398082D01*
X133350346Y-71393514D01*
X133352468Y-71388332D01*
X133353804Y-71385896D01*
X133355048Y-71383093D01*
X133357859Y-71378292D01*
X133360901Y-71368643D01*
X133363700Y-71360906D01*
X133370139Y-71345184D01*
X133386163Y-71306060D01*
X133390132Y-71297547D01*
X133394088Y-71290018D01*
X133395516Y-71284603D01*
X133396746Y-71281440D01*
X133397023Y-71280612D01*
X133398012Y-71277129D01*
X133400118Y-71271985D01*
X133401526Y-71263500D01*
X133403462Y-71254468D01*
X133403881Y-71252880D01*
X133417796Y-71200112D01*
X133418676Y-71197137D01*
X133420707Y-71192714D01*
X133423696Y-71178295D01*
X133424907Y-71173150D01*
X133427202Y-71164447D01*
X133427203Y-71164441D01*
X133428620Y-71159067D01*
X133428742Y-71155432D01*
X133429116Y-71153426D01*
X133434391Y-71130132D01*
X133458027Y-71085036D01*
X133483054Y-71057782D01*
X133486321Y-71054684D01*
X133486318Y-71054681D01*
X133490208Y-71050655D01*
X133494529Y-71047092D01*
X133497940Y-71042654D01*
X133497947Y-71042646D01*
X133500386Y-71039472D01*
X133505946Y-71032856D01*
X133506783Y-71031944D01*
X133560059Y-71001856D01*
X133620846Y-71008830D01*
X133628104Y-71012513D01*
X133703381Y-71054684D01*
X133708179Y-71057372D01*
X133713718Y-71060718D01*
X133724603Y-71067788D01*
X133729868Y-71069710D01*
X133730702Y-71070127D01*
X133731099Y-71070283D01*
X133731599Y-71070493D01*
X133736449Y-71073210D01*
X133741782Y-71074781D01*
X133741783Y-71074781D01*
X133748990Y-71076904D01*
X133754966Y-71078873D01*
X133855907Y-71115721D01*
X133863619Y-71119102D01*
X133865760Y-71119916D01*
X133870733Y-71122483D01*
X133876151Y-71123869D01*
X133876157Y-71123871D01*
X133878315Y-71124423D01*
X133887722Y-71127335D01*
X133894907Y-71129958D01*
X133900419Y-71130655D01*
X133902466Y-71131151D01*
X133910873Y-71132751D01*
X133945804Y-71141686D01*
X133956508Y-71144424D01*
X133960307Y-71145477D01*
X133964975Y-71146872D01*
X133970124Y-71149069D01*
X133975633Y-71150056D01*
X133981717Y-71151146D01*
X133988784Y-71152681D01*
X133991698Y-71153426D01*
X134000041Y-71155560D01*
X134005595Y-71155705D01*
X134010704Y-71156416D01*
X134014519Y-71157023D01*
X134036277Y-71160921D01*
X134074705Y-71167806D01*
X134078529Y-71168792D01*
X134078566Y-71168620D01*
X134084041Y-71169807D01*
X134089341Y-71171601D01*
X134100515Y-71172727D01*
X134108036Y-71173778D01*
X134118922Y-71175728D01*
X134124468Y-71175467D01*
X134130019Y-71175829D01*
X134130009Y-71175990D01*
X134133957Y-71176097D01*
X134203821Y-71183137D01*
X134208567Y-71183731D01*
X134209291Y-71183840D01*
X134214705Y-71185290D01*
X134220305Y-71185490D01*
X134227743Y-71185756D01*
X134234131Y-71186192D01*
X134241407Y-71186925D01*
X134241410Y-71186925D01*
X134246937Y-71187482D01*
X134252447Y-71186796D01*
X134253404Y-71186785D01*
X134258095Y-71186841D01*
X134293238Y-71188097D01*
X134343775Y-71189903D01*
X134346138Y-71190064D01*
X134350489Y-71191007D01*
X134365981Y-71190812D01*
X134370748Y-71190867D01*
X134374668Y-71191007D01*
X134380535Y-71191217D01*
X134380538Y-71191217D01*
X134386083Y-71191415D01*
X134390448Y-71190582D01*
X134392876Y-71190474D01*
X134399656Y-71190389D01*
X134415277Y-71190192D01*
X134473701Y-71208365D01*
X134510285Y-71257409D01*
X134515520Y-71288378D01*
X134515686Y-71308903D01*
X134515889Y-71333866D01*
X134515841Y-71335652D01*
X134515145Y-71339592D01*
X134515431Y-71345184D01*
X134515977Y-71355867D01*
X134516103Y-71360118D01*
X134516169Y-71368193D01*
X134516234Y-71376243D01*
X134517156Y-71380138D01*
X134517309Y-71381928D01*
X134521380Y-71461526D01*
X134521583Y-71465501D01*
X134521587Y-71466034D01*
X134521225Y-71468426D01*
X134522668Y-71487342D01*
X134522825Y-71489812D01*
X134523488Y-71502770D01*
X134523786Y-71508608D01*
X134524443Y-71510931D01*
X134524507Y-71511465D01*
X134526761Y-71541031D01*
X134526766Y-71541217D01*
X134526573Y-71542632D01*
X134528445Y-71563238D01*
X134528544Y-71564419D01*
X134530102Y-71584849D01*
X134530525Y-71586213D01*
X134530549Y-71586384D01*
X134534564Y-71630569D01*
X134534575Y-71630689D01*
X134534618Y-71631556D01*
X134534307Y-71634531D01*
X134534989Y-71640092D01*
X134536504Y-71652457D01*
X134536833Y-71655543D01*
X134538447Y-71673309D01*
X134539371Y-71676146D01*
X134539511Y-71677001D01*
X134543395Y-71708689D01*
X134543598Y-71710964D01*
X134543350Y-71715344D01*
X134545655Y-71728813D01*
X134545980Y-71730711D01*
X134546664Y-71735370D01*
X134547752Y-71744245D01*
X134548544Y-71750711D01*
X134550032Y-71754835D01*
X134550498Y-71757115D01*
X134554601Y-71781088D01*
X134555082Y-71784486D01*
X134555076Y-71789503D01*
X134556325Y-71794963D01*
X134558299Y-71803595D01*
X134559371Y-71808960D01*
X134561777Y-71823021D01*
X134563701Y-71827652D01*
X134564565Y-71830988D01*
X134569681Y-71853353D01*
X134570133Y-71855675D01*
X134570340Y-71860096D01*
X134571850Y-71865492D01*
X134571851Y-71865498D01*
X134574533Y-71875083D01*
X134575704Y-71879689D01*
X134577887Y-71889235D01*
X134577889Y-71889239D01*
X134579127Y-71894654D01*
X134581046Y-71898635D01*
X134581759Y-71900902D01*
X134589226Y-71927587D01*
X134589414Y-71928383D01*
X134589638Y-71931283D01*
X134591310Y-71936624D01*
X134595059Y-71948602D01*
X134595917Y-71951497D01*
X134600768Y-71968833D01*
X134602157Y-71971392D01*
X134602437Y-71972173D01*
X134616990Y-72018666D01*
X134619623Y-72027079D01*
X134619888Y-72027939D01*
X134635411Y-72079161D01*
X134636256Y-72082115D01*
X134654837Y-72151090D01*
X134655567Y-72153979D01*
X134663921Y-72189299D01*
X134670938Y-72218966D01*
X134671796Y-72222962D01*
X134682063Y-72276073D01*
X134682470Y-72278316D01*
X134694847Y-72351327D01*
X134694972Y-72352298D01*
X134694893Y-72355428D01*
X134696011Y-72360917D01*
X134696011Y-72360920D01*
X134698441Y-72372855D01*
X134699040Y-72376062D01*
X134701986Y-72393443D01*
X134703183Y-72396339D01*
X134703416Y-72397286D01*
X134712736Y-72443057D01*
X134713283Y-72446218D01*
X134713425Y-72451132D01*
X134714836Y-72456548D01*
X134714837Y-72456552D01*
X134717118Y-72465307D01*
X134718325Y-72470512D01*
X134720101Y-72479232D01*
X134720102Y-72479237D01*
X134721211Y-72484680D01*
X134723236Y-72489153D01*
X134724150Y-72492282D01*
X134731633Y-72520998D01*
X134732518Y-72524683D01*
X134733712Y-72530117D01*
X134734290Y-72535693D01*
X134736102Y-72540996D01*
X134736103Y-72541000D01*
X134738040Y-72546668D01*
X134740158Y-72553711D01*
X134741640Y-72559397D01*
X134741643Y-72559405D01*
X134743043Y-72564776D01*
X134745603Y-72569703D01*
X134747597Y-72574889D01*
X134747395Y-72574967D01*
X134748909Y-72578473D01*
X134752029Y-72587602D01*
X134755160Y-72596764D01*
X134756253Y-72600905D01*
X134756318Y-72600885D01*
X134757972Y-72606237D01*
X134759011Y-72611738D01*
X134761257Y-72616867D01*
X134761258Y-72616871D01*
X134763126Y-72621137D01*
X134766114Y-72628817D01*
X134769371Y-72638347D01*
X134772292Y-72643074D01*
X134774667Y-72648099D01*
X134774615Y-72648124D01*
X134776596Y-72651901D01*
X134779128Y-72657684D01*
X134785371Y-72717557D01*
X134784256Y-72722920D01*
X134782400Y-72730377D01*
X134779353Y-72740861D01*
X134779323Y-72741369D01*
X134775899Y-72752057D01*
X134774195Y-72759495D01*
X134769353Y-72769534D01*
X134769343Y-72780680D01*
X134769343Y-72780681D01*
X134769331Y-72794423D01*
X134769314Y-72794775D01*
X134768916Y-72796692D01*
X134769006Y-72801360D01*
X134769292Y-72816213D01*
X134769310Y-72818206D01*
X134769273Y-72860781D01*
X134770188Y-72862687D01*
X134770229Y-72864801D01*
X134779955Y-72884052D01*
X134789444Y-72902834D01*
X134790322Y-72904618D01*
X134808771Y-72943037D01*
X134810423Y-72944358D01*
X134811376Y-72946244D01*
X134819367Y-72952375D01*
X134819368Y-72952376D01*
X134819375Y-72952381D01*
X134845198Y-72972193D01*
X134846661Y-72973338D01*
X134880033Y-73000026D01*
X134882095Y-73000500D01*
X134883772Y-73001787D01*
X134893636Y-73003847D01*
X134925446Y-73010490D01*
X134927392Y-73010917D01*
X134942034Y-73014284D01*
X134942046Y-73014286D01*
X134946595Y-73015332D01*
X134948554Y-73015332D01*
X134948893Y-73015387D01*
X134973092Y-73020440D01*
X134983913Y-73017761D01*
X134986220Y-73017719D01*
X135005797Y-73015332D01*
X135286292Y-73015332D01*
X135294096Y-73015640D01*
X135305070Y-73016508D01*
X135315710Y-73019836D01*
X135339343Y-73016376D01*
X135343362Y-73016083D01*
X135343347Y-73015954D01*
X135348871Y-73015332D01*
X135354427Y-73015332D01*
X135359842Y-73014097D01*
X135359848Y-73014096D01*
X135364865Y-73012951D01*
X135372544Y-73011515D01*
X135376628Y-73010917D01*
X135405995Y-73006618D01*
X135412814Y-73002013D01*
X135420843Y-73000182D01*
X135447301Y-72979099D01*
X135453594Y-72974479D01*
X135472376Y-72961797D01*
X135472379Y-72961794D01*
X135481617Y-72955556D01*
X135485767Y-72948447D01*
X135492204Y-72943317D01*
X135497045Y-72933281D01*
X135497047Y-72933278D01*
X135506895Y-72912859D01*
X135510552Y-72905982D01*
X135527615Y-72876750D01*
X135528271Y-72868541D01*
X135531846Y-72861130D01*
X135531856Y-72849450D01*
X135531876Y-72827311D01*
X135532191Y-72819511D01*
X135533998Y-72796907D01*
X135533998Y-72796905D01*
X135534886Y-72785793D01*
X135531919Y-72778115D01*
X135531926Y-72769883D01*
X135521047Y-72747227D01*
X135517291Y-72739404D01*
X135514193Y-72732241D01*
X135512288Y-72727313D01*
X135512285Y-72727308D01*
X135510267Y-72722085D01*
X135507130Y-72717448D01*
X135504535Y-72712485D01*
X135504660Y-72712419D01*
X135502655Y-72708924D01*
X135497254Y-72697677D01*
X135497253Y-72697676D01*
X135492428Y-72687627D01*
X135483721Y-72680664D01*
X135476781Y-72671939D01*
X135477427Y-72671425D01*
X135472083Y-72665644D01*
X135451138Y-72634684D01*
X135447881Y-72629533D01*
X135440265Y-72616622D01*
X135427824Y-72582247D01*
X135426169Y-72572092D01*
X135425739Y-72569181D01*
X135423836Y-72554829D01*
X135423627Y-72553141D01*
X135423382Y-72551010D01*
X135421341Y-72533289D01*
X135420782Y-72531701D01*
X135420737Y-72531454D01*
X135419831Y-72524624D01*
X135419820Y-72524488D01*
X135419918Y-72523296D01*
X135416918Y-72502604D01*
X135416761Y-72501479D01*
X135416625Y-72500449D01*
X135414027Y-72480864D01*
X135413609Y-72479741D01*
X135413581Y-72479597D01*
X135410514Y-72458447D01*
X135410508Y-72458384D01*
X135410567Y-72457592D01*
X135407268Y-72436059D01*
X135407219Y-72435727D01*
X135404126Y-72414397D01*
X135403840Y-72413657D01*
X135403830Y-72413606D01*
X135399377Y-72384531D01*
X135399372Y-72384481D01*
X135399421Y-72383751D01*
X135395999Y-72362466D01*
X135395899Y-72361828D01*
X135392937Y-72342488D01*
X135392936Y-72342484D01*
X135392631Y-72340492D01*
X135392360Y-72339808D01*
X135392345Y-72339737D01*
X135386706Y-72304651D01*
X135384157Y-72288796D01*
X135378127Y-72251249D01*
X135377788Y-72248969D01*
X135377678Y-72248161D01*
X135367096Y-72170644D01*
X135366467Y-72164696D01*
X135363807Y-72129329D01*
X135362491Y-72111838D01*
X135362231Y-72102487D01*
X135362359Y-72095953D01*
X135362954Y-72065397D01*
X135363777Y-72054441D01*
X135368473Y-72018666D01*
X135370149Y-72009366D01*
X135370237Y-72008987D01*
X135380150Y-71965874D01*
X135381402Y-71960428D01*
X135382910Y-71954667D01*
X135404485Y-71881346D01*
X135404820Y-71880234D01*
X135422610Y-71822294D01*
X135422726Y-71821972D01*
X135423655Y-71820288D01*
X135429075Y-71801306D01*
X135429630Y-71799433D01*
X135434038Y-71785078D01*
X135434040Y-71785070D01*
X135435389Y-71780676D01*
X135435530Y-71778753D01*
X135435608Y-71778427D01*
X135450056Y-71727825D01*
X135450339Y-71726966D01*
X135451722Y-71724260D01*
X135453088Y-71718826D01*
X135453091Y-71718817D01*
X135456099Y-71706847D01*
X135456918Y-71703795D01*
X135460269Y-71692058D01*
X135461797Y-71686707D01*
X135461961Y-71683669D01*
X135462148Y-71682774D01*
X135465035Y-71671290D01*
X135473455Y-71637784D01*
X135473796Y-71636617D01*
X135475244Y-71633511D01*
X135478856Y-71616563D01*
X135479667Y-71613069D01*
X135482482Y-71601870D01*
X135482482Y-71601867D01*
X135483835Y-71596485D01*
X135483911Y-71593066D01*
X135484118Y-71591872D01*
X135493964Y-71545668D01*
X135494180Y-71544824D01*
X135495358Y-71542073D01*
X135498564Y-71524306D01*
X135499153Y-71521317D01*
X135501722Y-71509265D01*
X135501723Y-71509257D01*
X135502880Y-71503827D01*
X135502837Y-71500833D01*
X135502960Y-71499946D01*
X135507083Y-71477100D01*
X135512768Y-71445596D01*
X135512852Y-71445232D01*
X135513619Y-71443330D01*
X135516683Y-71424028D01*
X135517033Y-71421968D01*
X135519621Y-71407627D01*
X135519622Y-71407621D01*
X135520481Y-71402860D01*
X135520387Y-71400811D01*
X135520431Y-71400420D01*
X135521528Y-71393514D01*
X135531358Y-71331591D01*
X135531361Y-71331578D01*
X135531404Y-71331472D01*
X135534978Y-71308795D01*
X135536103Y-71301706D01*
X135538388Y-71287316D01*
X135538389Y-71287310D01*
X135538440Y-71286986D01*
X135538432Y-71286871D01*
X135544074Y-71251069D01*
X135544415Y-71249044D01*
X135557709Y-71174749D01*
X135557984Y-71173213D01*
X135558885Y-71168767D01*
X135558982Y-71168340D01*
X135593579Y-71113870D01*
X135593552Y-71113842D01*
X135593669Y-71113727D01*
X135594633Y-71112210D01*
X135597524Y-71109955D01*
X135601909Y-71106535D01*
X135605425Y-71102223D01*
X135605433Y-71102215D01*
X135609034Y-71098862D01*
X135610907Y-71097203D01*
X135614240Y-71094379D01*
X135616284Y-71092724D01*
X135621012Y-71089708D01*
X135629736Y-71080837D01*
X135634666Y-71076157D01*
X135639679Y-71071716D01*
X135639681Y-71071714D01*
X135643836Y-71068033D01*
X135647067Y-71063522D01*
X135648993Y-71061386D01*
X135651916Y-71058281D01*
X135652062Y-71058132D01*
X135653246Y-71056928D01*
X135661264Y-71049620D01*
X135661842Y-71049149D01*
X135661847Y-71049144D01*
X135666180Y-71045609D01*
X135669613Y-71041190D01*
X135669851Y-71040946D01*
X135676388Y-71033474D01*
X135676693Y-71033085D01*
X135680588Y-71029124D01*
X135683504Y-71024397D01*
X135683508Y-71024392D01*
X135683969Y-71023645D01*
X135690040Y-71014895D01*
X135700169Y-71001856D01*
X135701900Y-70999628D01*
X135708631Y-70991836D01*
X135709705Y-70990716D01*
X135713579Y-70986677D01*
X135716448Y-70981875D01*
X135717247Y-70980827D01*
X135721130Y-70975145D01*
X135721911Y-70973866D01*
X135725318Y-70969481D01*
X135727663Y-70964451D01*
X135727667Y-70964444D01*
X135728375Y-70962924D01*
X135733120Y-70953971D01*
X135744263Y-70935322D01*
X135746549Y-70932069D01*
X135746412Y-70931981D01*
X135749454Y-70927277D01*
X135753004Y-70922950D01*
X135757963Y-70912968D01*
X135761623Y-70906267D01*
X135767254Y-70896841D01*
X135768970Y-70891562D01*
X135771271Y-70886498D01*
X135771408Y-70886560D01*
X135772916Y-70882871D01*
X135795588Y-70837235D01*
X135796497Y-70835450D01*
X135854440Y-70724508D01*
X135862926Y-70708261D01*
X135868088Y-70699506D01*
X135950402Y-70574987D01*
X135957173Y-70565918D01*
X136060926Y-70442361D01*
X136063116Y-70439840D01*
X136104816Y-70393452D01*
X136108083Y-70389989D01*
X136108669Y-70389397D01*
X136113030Y-70385889D01*
X136121078Y-70375674D01*
X136125223Y-70370750D01*
X136130096Y-70365330D01*
X136133807Y-70361202D01*
X136136507Y-70356351D01*
X136137118Y-70355496D01*
X136139924Y-70351756D01*
X136177100Y-70304573D01*
X136183248Y-70297689D01*
X136184271Y-70296419D01*
X136188248Y-70292484D01*
X136192205Y-70286239D01*
X136198056Y-70277975D01*
X136202522Y-70272307D01*
X136204905Y-70267286D01*
X136205684Y-70266029D01*
X136210189Y-70257861D01*
X136239747Y-70211217D01*
X136246199Y-70202195D01*
X136246410Y-70201933D01*
X136249914Y-70197573D01*
X136252393Y-70192453D01*
X136257837Y-70182674D01*
X136257852Y-70182643D01*
X136260822Y-70177956D01*
X136262676Y-70172725D01*
X136262679Y-70172718D01*
X136262836Y-70172274D01*
X136267047Y-70162195D01*
X136290673Y-70113411D01*
X136294154Y-70107282D01*
X136295702Y-70104227D01*
X136298777Y-70099553D01*
X136301746Y-70091569D01*
X136305436Y-70082926D01*
X136306638Y-70080443D01*
X136309062Y-70075438D01*
X136310312Y-70070020D01*
X136311383Y-70066981D01*
X136313452Y-70060083D01*
X136333476Y-70006224D01*
X136335121Y-70002765D01*
X136334881Y-70002665D01*
X136337033Y-69997493D01*
X136339754Y-69992600D01*
X136342972Y-69981467D01*
X136345280Y-69974475D01*
X136347317Y-69968997D01*
X136347318Y-69968995D01*
X136349253Y-69963789D01*
X136349982Y-69958284D01*
X136351325Y-69952887D01*
X136351524Y-69952937D01*
X136352305Y-69949186D01*
X136353209Y-69946062D01*
X136376985Y-69863821D01*
X136378148Y-69860077D01*
X136379727Y-69855328D01*
X136382084Y-69850243D01*
X136384511Y-69838747D01*
X136386269Y-69831707D01*
X136387939Y-69825929D01*
X136389484Y-69820586D01*
X136389802Y-69815031D01*
X136390694Y-69809814D01*
X136391414Y-69806046D01*
X136396151Y-69783611D01*
X136412640Y-69705502D01*
X136413783Y-69700686D01*
X136415812Y-69695471D01*
X136417740Y-69682277D01*
X136418823Y-69676208D01*
X136421545Y-69663314D01*
X136421455Y-69657755D01*
X136421474Y-69657557D01*
X136422060Y-69652721D01*
X136422973Y-69646479D01*
X136439486Y-69533492D01*
X136439952Y-69530877D01*
X136441405Y-69526507D01*
X136441936Y-69520931D01*
X136441937Y-69520925D01*
X136442849Y-69511348D01*
X136443444Y-69506413D01*
X136444812Y-69497052D01*
X136444812Y-69497051D01*
X136445616Y-69491550D01*
X136445252Y-69486960D01*
X136445422Y-69484295D01*
X136445541Y-69483052D01*
X136458597Y-69345874D01*
X136458617Y-69345742D01*
X136458995Y-69344555D01*
X136460710Y-69323751D01*
X136460821Y-69322509D01*
X136462472Y-69305169D01*
X136462472Y-69305166D01*
X136462776Y-69301974D01*
X136462616Y-69300745D01*
X136462620Y-69300610D01*
X136463596Y-69288775D01*
X136463760Y-69286983D01*
X136472271Y-69202553D01*
X136472456Y-69200867D01*
X136482730Y-69113900D01*
X136483660Y-69106028D01*
X136483843Y-69104568D01*
X136484647Y-69098537D01*
X136496538Y-69009337D01*
X136496758Y-69007793D01*
X136509757Y-68921838D01*
X136509964Y-68920531D01*
X136516890Y-68878539D01*
X136517045Y-68877625D01*
X136528612Y-68811367D01*
X136529113Y-68808712D01*
X136537939Y-68765198D01*
X136539092Y-68760185D01*
X136545710Y-68734491D01*
X136547819Y-68727410D01*
X136553597Y-68710369D01*
X136556241Y-68703439D01*
X136565085Y-68682632D01*
X136567059Y-68678284D01*
X136574651Y-68662582D01*
X136574689Y-68662534D01*
X136584125Y-68642985D01*
X136589607Y-68631648D01*
X136590040Y-68630834D01*
X136591993Y-68628218D01*
X136594252Y-68623094D01*
X136594254Y-68623090D01*
X136599083Y-68612135D01*
X136600515Y-68609033D01*
X136605647Y-68598400D01*
X136608066Y-68593389D01*
X136608797Y-68590203D01*
X136609190Y-68589207D01*
X136616338Y-68572993D01*
X136617427Y-68570722D01*
X136619956Y-68566960D01*
X136620984Y-68564276D01*
X136663858Y-68522032D01*
X136702349Y-68511742D01*
X136707580Y-68511435D01*
X136709030Y-68511361D01*
X136725680Y-68510629D01*
X136725684Y-68510629D01*
X136729336Y-68510468D01*
X136730734Y-68510084D01*
X136730917Y-68510064D01*
X136741672Y-68509432D01*
X136745149Y-68509328D01*
X136750162Y-68509890D01*
X136755723Y-68509251D01*
X136755724Y-68509251D01*
X136756775Y-68509130D01*
X136764475Y-68508245D01*
X136769953Y-68507771D01*
X136772088Y-68507645D01*
X136778605Y-68507263D01*
X136778610Y-68507262D01*
X136784148Y-68506937D01*
X136788985Y-68505530D01*
X136792473Y-68505029D01*
X136795482Y-68504683D01*
X136803315Y-68504098D01*
X136808577Y-68503914D01*
X136808587Y-68503913D01*
X136814179Y-68503717D01*
X136819590Y-68502272D01*
X136820400Y-68502151D01*
X136826225Y-68502908D01*
X136861354Y-68491291D01*
X136866856Y-68489649D01*
X136880137Y-68486102D01*
X136885331Y-68483363D01*
X136885347Y-68483394D01*
X136885945Y-68483160D01*
X136889763Y-68481897D01*
X136890349Y-68481811D01*
X136890363Y-68481848D01*
X136890439Y-68481798D01*
X136895606Y-68481041D01*
X136912038Y-68469941D01*
X136921257Y-68464418D01*
X136940395Y-68454327D01*
X136944142Y-68449263D01*
X136944481Y-68449057D01*
X136947995Y-68445652D01*
X136952202Y-68442810D01*
X136956020Y-68438718D01*
X136956025Y-68438713D01*
X136962484Y-68431788D01*
X136965989Y-68428216D01*
X136975218Y-68419274D01*
X136983259Y-68413604D01*
X136982778Y-68413013D01*
X137001830Y-68397511D01*
X137005287Y-68394823D01*
X137007153Y-68393437D01*
X137011958Y-68390643D01*
X137020972Y-68382230D01*
X137026040Y-68377812D01*
X137031412Y-68373441D01*
X137035758Y-68369905D01*
X137039202Y-68365484D01*
X137040688Y-68363966D01*
X137043882Y-68360848D01*
X137061760Y-68344162D01*
X137063653Y-68339301D01*
X137067167Y-68334370D01*
X137075495Y-68326958D01*
X137090609Y-68290704D01*
X137092306Y-68286866D01*
X137104218Y-68261398D01*
X137104219Y-68261394D01*
X137108941Y-68251298D01*
X137108759Y-68234885D01*
X137111453Y-68215095D01*
X137110790Y-68214982D01*
X137111730Y-68209465D01*
X137113286Y-68204086D01*
X137113598Y-68198496D01*
X137113599Y-68198488D01*
X137113609Y-68198310D01*
X137114864Y-68187183D01*
X137114868Y-68187161D01*
X137114869Y-68187151D01*
X137115803Y-68181672D01*
X137115495Y-68176119D01*
X137115810Y-68170579D01*
X137115826Y-68170580D01*
X137115900Y-68165719D01*
X137117912Y-68142224D01*
X137118332Y-68138259D01*
X137120939Y-68117629D01*
X137120977Y-68117411D01*
X137121494Y-68115932D01*
X137122649Y-68105453D01*
X137123293Y-68101945D01*
X137126839Y-68095095D01*
X137127442Y-68074403D01*
X137127819Y-68061479D01*
X137128373Y-68053521D01*
X137128905Y-68048693D01*
X137128905Y-68048687D01*
X137129514Y-68043162D01*
X137128879Y-68037641D01*
X137128873Y-68034879D01*
X137128666Y-68032421D01*
X137128829Y-68026824D01*
X137126808Y-68016693D01*
X137125544Y-68008645D01*
X137125040Y-68004266D01*
X137124395Y-67992004D01*
X137124403Y-67991249D01*
X137124518Y-67979085D01*
X137106235Y-67940157D01*
X137105521Y-67938599D01*
X137087966Y-67899409D01*
X137079450Y-67892220D01*
X137079447Y-67892216D01*
X137077808Y-67890833D01*
X137061594Y-67873399D01*
X137056833Y-67866849D01*
X137054029Y-67864409D01*
X137051843Y-67861621D01*
X137038267Y-67850611D01*
X137035658Y-67848418D01*
X137023380Y-67837729D01*
X137021443Y-67835933D01*
X137018553Y-67832351D01*
X137006577Y-67822941D01*
X137002777Y-67819798D01*
X136991418Y-67809910D01*
X136989147Y-67808693D01*
X136987828Y-67807649D01*
X136986496Y-67806138D01*
X136981945Y-67802875D01*
X136981943Y-67802873D01*
X136974146Y-67797282D01*
X136937874Y-67748007D01*
X136933663Y-67724751D01*
X136933679Y-67724541D01*
X136931556Y-67710491D01*
X136930887Y-67705041D01*
X136929534Y-67690754D01*
X136927952Y-67685987D01*
X136927344Y-67682618D01*
X136925166Y-67668208D01*
X136923500Y-67657184D01*
X136917482Y-67648360D01*
X136917412Y-67648100D01*
X136917479Y-67647149D01*
X136903781Y-67612635D01*
X136901838Y-67607297D01*
X136899220Y-67599409D01*
X136897468Y-67594129D01*
X136894796Y-67589720D01*
X136894534Y-67589108D01*
X136894234Y-67588581D01*
X136892284Y-67583667D01*
X136884451Y-67572311D01*
X136881291Y-67567428D01*
X136862169Y-67535865D01*
X136857320Y-67532705D01*
X136856129Y-67531251D01*
X136843265Y-67512601D01*
X136842020Y-67510752D01*
X136834087Y-67498678D01*
X136834085Y-67498675D01*
X136831274Y-67494397D01*
X136829608Y-67492803D01*
X136828400Y-67491051D01*
X136813894Y-67477734D01*
X136812439Y-67476370D01*
X136766375Y-67432282D01*
X136737412Y-67378390D01*
X136742614Y-67325211D01*
X136744532Y-67321590D01*
X136748121Y-67308150D01*
X136749793Y-67302559D01*
X136752361Y-67294810D01*
X136754108Y-67289539D01*
X136754614Y-67284269D01*
X136755581Y-67280221D01*
X136761128Y-67259455D01*
X136762895Y-67253576D01*
X136765400Y-67246092D01*
X136767178Y-67240781D01*
X136767714Y-67235268D01*
X136767878Y-67234587D01*
X136767971Y-67233832D01*
X136769364Y-67228618D01*
X136769568Y-67223065D01*
X136770392Y-67217572D01*
X136770650Y-67217611D01*
X136773578Y-67201672D01*
X136773996Y-67197605D01*
X136777573Y-67187044D01*
X136776217Y-67175976D01*
X136774699Y-67163586D01*
X136774696Y-67163546D01*
X136774747Y-67163023D01*
X136771949Y-67141152D01*
X136769265Y-67119252D01*
X136769083Y-67118750D01*
X136768721Y-67115919D01*
X136768721Y-67115916D01*
X136768067Y-67110804D01*
X136769045Y-67110679D01*
X136768090Y-67108073D01*
X136767723Y-67108120D01*
X136767517Y-67106513D01*
X136766102Y-67095451D01*
X136759873Y-67085857D01*
X136749845Y-67065712D01*
X136746799Y-67057315D01*
X136743869Y-67052767D01*
X136742005Y-67048748D01*
X136736299Y-67035575D01*
X136736298Y-67035573D01*
X136731867Y-67025345D01*
X136723437Y-67018049D01*
X136720048Y-67013430D01*
X136715949Y-67009421D01*
X136709910Y-67000045D01*
X136688413Y-66986865D01*
X136684418Y-66984273D01*
X136680226Y-66980645D01*
X136675285Y-66978026D01*
X136670657Y-66974856D01*
X136671024Y-66974320D01*
X136669812Y-66973448D01*
X136661556Y-66968562D01*
X136653468Y-66960895D01*
X136642855Y-66957493D01*
X136642854Y-66957493D01*
X136637936Y-66955917D01*
X136638053Y-66955553D01*
X136637029Y-66955361D01*
X136632119Y-66952351D01*
X136625603Y-66951688D01*
X136622740Y-66950170D01*
X136617369Y-66948723D01*
X136617367Y-66948722D01*
X136607790Y-66946141D01*
X136603336Y-66944829D01*
X136593760Y-66941760D01*
X136593759Y-66941760D01*
X136588427Y-66940051D01*
X136584112Y-66939687D01*
X136581986Y-66939189D01*
X136556964Y-66932447D01*
X136546007Y-66934502D01*
X136534866Y-66934068D01*
X136534870Y-66933958D01*
X136532787Y-66934086D01*
X136522937Y-66931174D01*
X136511931Y-66932963D01*
X136511930Y-66932963D01*
X136490036Y-66936522D01*
X136481924Y-66937499D01*
X136477360Y-66937858D01*
X136477356Y-66937859D01*
X136471816Y-66938295D01*
X136466511Y-66939953D01*
X136461052Y-66941007D01*
X136461038Y-66940934D01*
X136460428Y-66941077D01*
X136458895Y-66941584D01*
X136455522Y-66942132D01*
X136454967Y-66942358D01*
X136447669Y-66943388D01*
X136442117Y-66947095D01*
X136431568Y-66947663D01*
X136421799Y-66953029D01*
X136420847Y-66953301D01*
X136417432Y-66955289D01*
X136406795Y-66958613D01*
X136400927Y-66964095D01*
X136397399Y-66965831D01*
X136396633Y-66966144D01*
X136391485Y-66968243D01*
X136386430Y-66971787D01*
X136377268Y-66977491D01*
X136376613Y-66977851D01*
X136376611Y-66977853D01*
X136371706Y-66980547D01*
X136368467Y-66983436D01*
X136308211Y-67001405D01*
X136287940Y-67000681D01*
X136276720Y-66999638D01*
X136248464Y-66995378D01*
X136240013Y-66997982D01*
X136234349Y-66997343D01*
X136223827Y-67001020D01*
X136223824Y-67001020D01*
X136211862Y-67005200D01*
X136208002Y-67006241D01*
X136208043Y-67006373D01*
X136202739Y-67008028D01*
X136197281Y-67009079D01*
X136187413Y-67013422D01*
X136180221Y-67016256D01*
X136178340Y-67016913D01*
X136174846Y-67018062D01*
X136161262Y-67022248D01*
X136159380Y-67023992D01*
X136154704Y-67024984D01*
X136155749Y-67027357D01*
X136134930Y-67036520D01*
X136127683Y-67044991D01*
X136126724Y-67045704D01*
X136125569Y-67046276D01*
X136122443Y-67048835D01*
X136121926Y-67049193D01*
X136119919Y-67050759D01*
X136118719Y-67051650D01*
X136118604Y-67051495D01*
X136118055Y-67051876D01*
X136117419Y-67052286D01*
X136113689Y-67055268D01*
X136108985Y-67058231D01*
X136103680Y-67063548D01*
X136096309Y-67070227D01*
X136091818Y-67073903D01*
X136088200Y-67076727D01*
X136086928Y-67077673D01*
X136082084Y-67080489D01*
X136076349Y-67085860D01*
X136072776Y-67089206D01*
X136067811Y-67093554D01*
X136058079Y-67101520D01*
X136054667Y-67105911D01*
X136053410Y-67107201D01*
X136050192Y-67110355D01*
X136028522Y-67130648D01*
X136028491Y-67130677D01*
X136003010Y-67154518D01*
X135999569Y-67157590D01*
X135953621Y-67196731D01*
X135950655Y-67199160D01*
X135897950Y-67240645D01*
X135894770Y-67243046D01*
X135842067Y-67281188D01*
X135840735Y-67282133D01*
X135801006Y-67309830D01*
X135799922Y-67310527D01*
X135796678Y-67311977D01*
X135782998Y-67322300D01*
X135780011Y-67324467D01*
X135766139Y-67334138D01*
X135763759Y-67336756D01*
X135762739Y-67337587D01*
X135743427Y-67352161D01*
X135739916Y-67354433D01*
X135739973Y-67354514D01*
X135735397Y-67357746D01*
X135730487Y-67360441D01*
X135722617Y-67367455D01*
X135716401Y-67372556D01*
X135708130Y-67378798D01*
X135704550Y-67383048D01*
X135700516Y-67386871D01*
X135700456Y-67386808D01*
X135697541Y-67389805D01*
X135685605Y-67400444D01*
X135677915Y-67406638D01*
X135676138Y-67407929D01*
X135676136Y-67407931D01*
X135671604Y-67411223D01*
X135667925Y-67415447D01*
X135666256Y-67416975D01*
X135663382Y-67419882D01*
X135661736Y-67421719D01*
X135657590Y-67425414D01*
X135654370Y-67429939D01*
X135653017Y-67431840D01*
X135647010Y-67439461D01*
X135635522Y-67452651D01*
X135629343Y-67459129D01*
X135622699Y-67465492D01*
X135619624Y-67470176D01*
X135617484Y-67472748D01*
X135615440Y-67475709D01*
X135611793Y-67479895D01*
X135607397Y-67488093D01*
X135602919Y-67495621D01*
X135595953Y-67506232D01*
X135595732Y-67506568D01*
X135591637Y-67511991D01*
X135589584Y-67514994D01*
X135585923Y-67519230D01*
X135583307Y-67524175D01*
X135583306Y-67524176D01*
X135581898Y-67526838D01*
X135577144Y-67534880D01*
X135575563Y-67537288D01*
X135575561Y-67537292D01*
X135572514Y-67541933D01*
X135570575Y-67547138D01*
X135569041Y-67550166D01*
X135566176Y-67556552D01*
X135559741Y-67568714D01*
X135559070Y-67569875D01*
X135556832Y-67572673D01*
X135549023Y-67588896D01*
X135548044Y-67590767D01*
X135545527Y-67594230D01*
X135543333Y-67599384D01*
X135543036Y-67599909D01*
X135542458Y-67601379D01*
X135539861Y-67606287D01*
X135538948Y-67609687D01*
X135538591Y-67610527D01*
X135538398Y-67610969D01*
X135530663Y-67627036D01*
X135529940Y-67630207D01*
X135527982Y-67634997D01*
X135526474Y-67638205D01*
X135523533Y-67642974D01*
X135521736Y-67648281D01*
X135521735Y-67648283D01*
X135519891Y-67653729D01*
X135517211Y-67660754D01*
X135514999Y-67665950D01*
X135514998Y-67665955D01*
X135512824Y-67671061D01*
X135511840Y-67676522D01*
X135510599Y-67680678D01*
X135508137Y-67687894D01*
X135507381Y-67689858D01*
X135504795Y-67694821D01*
X135503387Y-67700237D01*
X135503385Y-67700242D01*
X135501792Y-67706371D01*
X135499753Y-67713194D01*
X135495979Y-67724340D01*
X135495411Y-67729869D01*
X135494432Y-67734366D01*
X135493510Y-67738226D01*
X135492464Y-67742247D01*
X135491433Y-67745800D01*
X135489320Y-67750491D01*
X135486532Y-67764431D01*
X135485272Y-67769914D01*
X135481743Y-67783491D01*
X135481589Y-67788626D01*
X135480955Y-67792320D01*
X135477910Y-67807544D01*
X135477569Y-67808975D01*
X135476177Y-67812422D01*
X135474747Y-67821415D01*
X135473541Y-67828996D01*
X135472847Y-67832862D01*
X135470676Y-67843717D01*
X135470675Y-67843723D01*
X135469587Y-67849166D01*
X135469687Y-67852877D01*
X135469506Y-67854360D01*
X135465220Y-67881307D01*
X135465109Y-67881849D01*
X135464249Y-67884148D01*
X135463519Y-67889631D01*
X135463518Y-67889638D01*
X135461755Y-67902892D01*
X135461398Y-67905341D01*
X135458446Y-67923900D01*
X135458610Y-67926350D01*
X135458559Y-67926918D01*
X135453112Y-67967853D01*
X135453076Y-67968052D01*
X135452568Y-67969474D01*
X135450457Y-67987456D01*
X135450188Y-67989742D01*
X135449999Y-67991249D01*
X135447827Y-68007576D01*
X135447327Y-68011337D01*
X135447466Y-68012839D01*
X135447451Y-68013048D01*
X135442699Y-68053521D01*
X135440623Y-68071199D01*
X135440609Y-68071280D01*
X135440327Y-68072093D01*
X135440076Y-68074403D01*
X135438013Y-68093389D01*
X135437917Y-68094238D01*
X135437062Y-68101523D01*
X135435438Y-68115353D01*
X135435530Y-68116205D01*
X135435525Y-68116287D01*
X135432923Y-68140241D01*
X135426988Y-68194875D01*
X135426922Y-68195065D01*
X135424564Y-68217181D01*
X135422120Y-68239679D01*
X135422143Y-68239879D01*
X135420822Y-68252271D01*
X135411130Y-68339366D01*
X135410968Y-68340729D01*
X135408478Y-68360565D01*
X135402702Y-68406581D01*
X135402345Y-68409152D01*
X135394793Y-68458753D01*
X135394140Y-68462543D01*
X135386531Y-68502053D01*
X135385591Y-68506399D01*
X135376603Y-68543853D01*
X135375637Y-68547559D01*
X135363367Y-68591179D01*
X135362712Y-68593408D01*
X135348860Y-68638558D01*
X135348736Y-68638898D01*
X135348217Y-68639817D01*
X135347259Y-68643047D01*
X135342345Y-68659614D01*
X135341948Y-68660919D01*
X135336880Y-68677180D01*
X135336877Y-68677192D01*
X135335849Y-68680491D01*
X135335744Y-68681843D01*
X135335706Y-68682000D01*
X135325801Y-68715392D01*
X135322816Y-68725457D01*
X135322733Y-68725695D01*
X135321941Y-68727153D01*
X135320841Y-68731106D01*
X135320839Y-68731112D01*
X135316527Y-68746607D01*
X135316065Y-68748217D01*
X135310376Y-68767398D01*
X135310270Y-68769055D01*
X135310214Y-68769300D01*
X135294899Y-68824344D01*
X135294842Y-68824514D01*
X135294193Y-68825753D01*
X135293290Y-68829188D01*
X135293287Y-68829196D01*
X135288949Y-68845691D01*
X135288582Y-68847047D01*
X135284067Y-68863276D01*
X135283113Y-68866706D01*
X135283047Y-68868101D01*
X135283010Y-68868275D01*
X135268409Y-68923795D01*
X135268337Y-68924025D01*
X135267588Y-68925514D01*
X135266611Y-68929505D01*
X135266610Y-68929507D01*
X135262777Y-68945160D01*
X135262379Y-68946729D01*
X135257285Y-68966097D01*
X135257230Y-68967759D01*
X135257184Y-68967994D01*
X135246279Y-69012524D01*
X135246248Y-69012628D01*
X135245788Y-69013565D01*
X135245158Y-69016260D01*
X135245156Y-69016267D01*
X135240976Y-69034153D01*
X135240733Y-69035169D01*
X135235745Y-69055536D01*
X135235737Y-69056074D01*
X135235484Y-69057423D01*
X135216683Y-69133654D01*
X135215753Y-69137150D01*
X135212355Y-69149041D01*
X135178186Y-69199797D01*
X135120710Y-69220776D01*
X135094257Y-69218151D01*
X135051202Y-69207909D01*
X135032016Y-69203345D01*
X135031170Y-69203140D01*
X135019467Y-69200247D01*
X135019383Y-69200221D01*
X135018576Y-69199822D01*
X134997802Y-69194884D01*
X134996930Y-69194673D01*
X134978692Y-69190163D01*
X134978694Y-69190163D01*
X134976343Y-69189582D01*
X134975445Y-69189565D01*
X134975367Y-69189551D01*
X134949411Y-69183382D01*
X134948563Y-69183144D01*
X134945830Y-69181897D01*
X134928118Y-69178273D01*
X134925170Y-69177621D01*
X134907785Y-69173488D01*
X134904788Y-69173461D01*
X134903918Y-69173319D01*
X134890577Y-69170589D01*
X134886616Y-69169666D01*
X134881686Y-69167759D01*
X134867894Y-69165773D01*
X134862159Y-69164774D01*
X134860867Y-69164510D01*
X134848698Y-69162019D01*
X134843421Y-69162137D01*
X134839333Y-69161659D01*
X134835210Y-69161065D01*
X134831209Y-69160405D01*
X134827048Y-69159630D01*
X134821697Y-69157992D01*
X134816114Y-69157595D01*
X134816111Y-69157594D01*
X134809771Y-69157143D01*
X134802693Y-69156382D01*
X134796529Y-69155494D01*
X134796520Y-69155494D01*
X134791023Y-69154702D01*
X134785485Y-69155153D01*
X134780964Y-69155013D01*
X134777025Y-69154812D01*
X134773004Y-69154526D01*
X134769522Y-69154177D01*
X134764615Y-69152970D01*
X134750232Y-69152751D01*
X134744722Y-69152512D01*
X134730567Y-69151505D01*
X134725576Y-69152276D01*
X134722013Y-69152321D01*
X134709238Y-69152126D01*
X134708616Y-69152090D01*
X134706089Y-69151540D01*
X134689926Y-69151730D01*
X134687431Y-69151759D01*
X134684764Y-69151755D01*
X134671766Y-69151557D01*
X134671762Y-69151557D01*
X134666213Y-69151473D01*
X134663679Y-69152011D01*
X134663031Y-69152046D01*
X134616825Y-69152589D01*
X134616480Y-69152593D01*
X134592375Y-69152792D01*
X134562983Y-69153035D01*
X134560264Y-69153019D01*
X134538136Y-69152587D01*
X134506755Y-69151973D01*
X134502541Y-69151801D01*
X134472501Y-69149931D01*
X134454489Y-69148810D01*
X134449786Y-69148404D01*
X134399847Y-69142883D01*
X134395615Y-69142322D01*
X134337092Y-69133256D01*
X134333914Y-69132710D01*
X134261306Y-69118995D01*
X134259234Y-69118580D01*
X134168426Y-69099393D01*
X134167242Y-69099136D01*
X134123670Y-69089371D01*
X134075443Y-69078563D01*
X134075422Y-69078557D01*
X134075002Y-69078358D01*
X134053365Y-69073614D01*
X134053232Y-69073584D01*
X134031712Y-69068762D01*
X134031251Y-69068764D01*
X134031221Y-69068759D01*
X133979514Y-69057423D01*
X133975482Y-69056539D01*
X133974896Y-69056384D01*
X133972554Y-69055351D01*
X133954128Y-69051821D01*
X133951602Y-69051303D01*
X133933420Y-69047317D01*
X133930861Y-69047339D01*
X133930260Y-69047250D01*
X133846769Y-69031257D01*
X133844953Y-69030844D01*
X133841156Y-69029365D01*
X133825153Y-69027021D01*
X133820902Y-69026303D01*
X133805167Y-69023289D01*
X133801093Y-69023431D01*
X133799228Y-69023223D01*
X133747655Y-69015669D01*
X133728772Y-69012903D01*
X133725388Y-69012307D01*
X133720618Y-69010747D01*
X133706231Y-69009448D01*
X133700787Y-69008804D01*
X133697981Y-69008393D01*
X133686676Y-69006737D01*
X133681681Y-69007132D01*
X133678218Y-69006918D01*
X133615816Y-69001283D01*
X133611617Y-69000790D01*
X133606447Y-68999434D01*
X133592650Y-68999014D01*
X133586760Y-68998659D01*
X133580900Y-68998130D01*
X133573182Y-68997433D01*
X133567888Y-68998148D01*
X133563600Y-68998130D01*
X133502737Y-68996277D01*
X133499599Y-68996088D01*
X133494819Y-68995105D01*
X133489219Y-68995235D01*
X133480124Y-68995446D01*
X133474815Y-68995427D01*
X133465851Y-68995154D01*
X133465849Y-68995154D01*
X133460294Y-68994985D01*
X133455511Y-68995924D01*
X133452327Y-68996091D01*
X133386924Y-68997608D01*
X133382932Y-68997592D01*
X133377734Y-68996836D01*
X133372158Y-68997292D01*
X133372155Y-68997292D01*
X133363783Y-68997977D01*
X133358008Y-68998280D01*
X133349765Y-68998471D01*
X133349764Y-68998471D01*
X133344206Y-68998600D01*
X133339120Y-68999885D01*
X133335121Y-69000321D01*
X133237073Y-69008338D01*
X133232598Y-69008393D01*
X133232598Y-69008401D01*
X133227007Y-69008714D01*
X133221416Y-69008395D01*
X133215894Y-69009337D01*
X133215893Y-69009337D01*
X133211907Y-69010017D01*
X133203329Y-69011098D01*
X133199411Y-69011418D01*
X133199408Y-69011419D01*
X133193874Y-69011871D01*
X133188576Y-69013544D01*
X133183154Y-69014608D01*
X133178772Y-69015669D01*
X133162942Y-69018369D01*
X133042197Y-69038963D01*
X133032163Y-69040062D01*
X133031243Y-69040212D01*
X133025646Y-69040487D01*
X133019056Y-69042347D01*
X133008826Y-69044656D01*
X133002241Y-69045779D01*
X132997109Y-69047908D01*
X132996356Y-69048125D01*
X132986712Y-69051473D01*
X132950293Y-69061750D01*
X132857734Y-69087870D01*
X132846971Y-69090269D01*
X132846534Y-69090341D01*
X132846529Y-69090342D01*
X132841005Y-69091254D01*
X132835824Y-69093381D01*
X132835807Y-69093386D01*
X132825434Y-69096965D01*
X132825278Y-69097028D01*
X132819933Y-69098537D01*
X132815058Y-69101196D01*
X132815055Y-69101197D01*
X132814551Y-69101472D01*
X132804752Y-69106139D01*
X132685767Y-69154994D01*
X132676334Y-69158320D01*
X132669052Y-69160481D01*
X132664173Y-69163239D01*
X132662401Y-69163991D01*
X132657892Y-69166180D01*
X132656012Y-69167211D01*
X132650867Y-69169324D01*
X132646321Y-69172528D01*
X132644592Y-69173746D01*
X132636279Y-69179006D01*
X132616542Y-69190163D01*
X132528006Y-69240208D01*
X132520162Y-69244193D01*
X132511576Y-69248084D01*
X132507123Y-69251480D01*
X132504377Y-69253120D01*
X132501574Y-69255149D01*
X132496738Y-69257883D01*
X132489696Y-69264296D01*
X132483080Y-69269813D01*
X132386487Y-69343473D01*
X132380362Y-69347787D01*
X132370784Y-69354005D01*
X132366886Y-69358033D01*
X132365469Y-69359200D01*
X132363927Y-69360677D01*
X132359507Y-69364047D01*
X132355949Y-69368314D01*
X132355947Y-69368316D01*
X132352128Y-69372896D01*
X132347240Y-69378336D01*
X132263772Y-69464597D01*
X132259337Y-69468903D01*
X132249416Y-69477951D01*
X132246245Y-69482534D01*
X132245768Y-69483052D01*
X132245319Y-69483667D01*
X132241541Y-69487571D01*
X132235798Y-69497052D01*
X132234541Y-69499127D01*
X132231275Y-69504166D01*
X132162931Y-69602927D01*
X132159936Y-69607026D01*
X132154129Y-69614560D01*
X132154126Y-69614566D01*
X132150710Y-69618997D01*
X132148589Y-69623614D01*
X132148463Y-69623835D01*
X132145674Y-69627865D01*
X132143609Y-69633019D01*
X132143608Y-69633021D01*
X132140021Y-69641974D01*
X132138085Y-69646479D01*
X132088866Y-69753620D01*
X132085782Y-69759761D01*
X132079854Y-69770610D01*
X132078337Y-69776008D01*
X132077892Y-69777099D01*
X132077412Y-69778556D01*
X132075089Y-69783611D01*
X132073949Y-69789057D01*
X132072540Y-69795787D01*
X132070945Y-69802300D01*
X132066379Y-69818541D01*
X132063083Y-69828288D01*
X132062506Y-69829742D01*
X132060439Y-69834947D01*
X132059592Y-69840475D01*
X132059238Y-69841780D01*
X132057808Y-69848392D01*
X132057559Y-69849915D01*
X132056055Y-69855266D01*
X132055778Y-69860819D01*
X132055778Y-69860821D01*
X132055694Y-69862511D01*
X132054676Y-69872570D01*
X132048547Y-69912584D01*
X132046283Y-69923191D01*
X132046228Y-69923544D01*
X132044741Y-69928945D01*
X132044503Y-69934540D01*
X132044471Y-69935283D01*
X132043421Y-69946047D01*
X132042485Y-69952162D01*
X132042887Y-69957708D01*
X132042878Y-69957925D01*
X132043041Y-69968865D01*
X132042802Y-69974475D01*
X132041249Y-70010944D01*
X132040163Y-70021654D01*
X132040143Y-70022076D01*
X132039253Y-70027605D01*
X126700000Y-70027605D01*
X126700000Y-55533960D01*
X126702518Y-55511773D01*
X126702562Y-55511583D01*
X126705143Y-55500358D01*
X126702682Y-55489483D01*
X126702702Y-55478336D01*
X126702863Y-55478336D01*
X126702076Y-55468331D01*
X126714974Y-55271531D01*
X126716664Y-55258691D01*
X126760067Y-55040489D01*
X126763419Y-55027980D01*
X126834933Y-54817309D01*
X126839889Y-54805346D01*
X126938284Y-54605820D01*
X126944753Y-54594614D01*
X127068365Y-54409615D01*
X127076233Y-54399361D01*
X127222931Y-54232085D01*
X127232086Y-54222930D01*
X127399361Y-54076233D01*
X127409615Y-54068365D01*
X127594614Y-53944753D01*
X127605820Y-53938284D01*
X127723046Y-53880475D01*
X127805347Y-53839889D01*
X127817309Y-53834933D01*
X128027984Y-53763418D01*
X128040484Y-53760068D01*
X128258698Y-53716663D01*
X128271523Y-53714975D01*
X128467819Y-53702109D01*
X128477628Y-53702899D01*
X128477628Y-53702625D01*
X128488778Y-53702645D01*
X128499642Y-53705143D01*
X128510514Y-53702683D01*
X128510516Y-53702683D01*
X128511583Y-53702441D01*
X128533432Y-53700000D01*
X139466040Y-53700000D01*
X139488227Y-53702518D01*
G37*
%TD.AperFunction*%
%TD*%
M02*
