M48
; DRILL file {KiCad 6.0.1-79c1e3a40b~116~ubuntu20.04.1} date sob, 22 sty 2022, 19:05:26
; FORMAT={-:-/ absolute / metric / decimal}
; #@! TF.CreationDate,2022-01-22T19:05:26+01:00
; #@! TF.GenerationSoftware,Kicad,Pcbnew,6.0.1-79c1e3a40b~116~ubuntu20.04.1
; #@! TF.FileFunction,Plated,1,2,PTH
FMAT,2
METRIC
; #@! TA.AperFunction,Plated,PTH,ViaDrill
T1C0.400
; #@! TA.AperFunction,Plated,PTH,ComponentDrill
T2C2.200
%
G90
G05
T1
X128.0Y-63.0
X128.0Y-64.0
X128.5Y-61.5
X128.5Y-62.5
X128.5Y-63.5
X128.5Y-64.5
X128.5Y-65.5
X129.0Y-61.0
X129.0Y-62.0
X129.0Y-63.0
X129.0Y-64.0
X129.0Y-65.0
X129.0Y-66.0
X129.5Y-60.5
X129.5Y-61.5
X129.5Y-62.5
X129.5Y-63.5
X129.5Y-64.5
X129.5Y-65.5
X129.5Y-66.5
X130.0Y-60.0
X130.0Y-61.0
X130.0Y-62.0
X130.0Y-65.0
X130.0Y-66.0
X130.0Y-67.0
X130.5Y-60.5
X130.5Y-61.5
X130.5Y-65.5
X130.5Y-66.5
X131.0Y-60.0
X131.0Y-61.0
X131.0Y-66.0
X131.0Y-67.0
X131.5Y-59.5
X131.5Y-60.5
X131.5Y-66.5
X131.5Y-67.5
X132.0Y-60.0
X132.0Y-61.0
X132.0Y-66.0
X132.0Y-67.0
X132.5Y-59.5
X132.5Y-60.5
X132.5Y-66.5
X132.5Y-67.5
X133.0Y-60.0
X133.0Y-61.0
X133.0Y-66.0
X133.0Y-67.0
X133.5Y-60.5
X133.5Y-61.5
X133.5Y-65.5
X133.5Y-66.5
X134.0Y-60.0
X134.0Y-61.0
X134.0Y-62.0
X134.0Y-65.0
X134.0Y-66.0
X134.0Y-67.0
X134.5Y-60.5
X134.5Y-61.5
X134.5Y-65.5
X134.5Y-66.5
X135.0Y-61.0
X135.0Y-62.0
X135.0Y-65.0
X135.0Y-66.0
X135.5Y-60.5
X135.5Y-61.5
X135.5Y-65.5
X135.5Y-66.5
X136.0Y-61.0
X136.0Y-62.0
X136.0Y-65.0
X136.0Y-66.0
X136.5Y-60.5
X136.5Y-61.5
X136.5Y-65.5
X136.5Y-66.5
X137.0Y-61.0
X137.0Y-62.0
X137.0Y-65.0
X137.0Y-66.0
X137.5Y-60.5
X137.5Y-61.5
X137.5Y-65.5
X137.5Y-66.5
X138.0Y-61.0
X138.0Y-62.0
X138.0Y-65.0
X138.0Y-66.0
X138.5Y-60.5
X138.5Y-61.5
X138.5Y-65.5
X138.5Y-66.5
X139.0Y-61.0
X139.0Y-62.0
X139.0Y-65.0
X139.0Y-66.0
X139.5Y-60.5
X139.5Y-61.5
X139.5Y-65.5
X139.5Y-66.5
X140.0Y-61.0
X140.0Y-62.0
X140.0Y-65.0
X140.0Y-66.0
X140.5Y-60.5
X140.5Y-61.5
X140.5Y-65.5
X140.5Y-66.5
X141.0Y-61.0
X141.0Y-62.0
X141.0Y-65.0
X141.0Y-66.0
T2
X129.0Y-56.0
X129.0Y-71.0
X139.0Y-56.0
X139.0Y-71.0
T0
M30
