%TF.GenerationSoftware,KiCad,Pcbnew,6.0.9+dfsg-1~bpo11+1*%
%TF.CreationDate,2022-11-11T16:08:21+01:00*%
%TF.ProjectId,015-3-port-resistive-splitter,3031352d-332d-4706-9f72-742d72657369,1*%
%TF.SameCoordinates,Original*%
%TF.FileFunction,Soldermask,Top*%
%TF.FilePolarity,Negative*%
%FSLAX46Y46*%
G04 Gerber Fmt 4.6, Leading zero omitted, Abs format (unit mm)*
G04 Created by KiCad (PCBNEW 6.0.9+dfsg-1~bpo11+1) date 2022-11-11 16:08:21*
%MOMM*%
%LPD*%
G01*
G04 APERTURE LIST*
G04 Aperture macros list*
%AMRoundRect*
0 Rectangle with rounded corners*
0 $1 Rounding radius*
0 $2 $3 $4 $5 $6 $7 $8 $9 X,Y pos of 4 corners*
0 Add a 4 corners polygon primitive as box body*
4,1,4,$2,$3,$4,$5,$6,$7,$8,$9,$2,$3,0*
0 Add four circle primitives for the rounded corners*
1,1,$1+$1,$2,$3*
1,1,$1+$1,$4,$5*
1,1,$1+$1,$6,$7*
1,1,$1+$1,$8,$9*
0 Add four rect primitives between the rounded corners*
20,1,$1+$1,$2,$3,$4,$5,0*
20,1,$1+$1,$4,$5,$6,$7,0*
20,1,$1+$1,$6,$7,$8,$9,0*
20,1,$1+$1,$8,$9,$2,$3,0*%
G04 Aperture macros list end*
%ADD10RoundRect,0.135000X0.185000X-0.135000X0.185000X0.135000X-0.185000X0.135000X-0.185000X-0.135000X0*%
%ADD11RoundRect,0.135000X-0.135000X-0.185000X0.135000X-0.185000X0.135000X0.185000X-0.135000X0.185000X0*%
%ADD12C,3.400000*%
G04 APERTURE END LIST*
%TO.C,J2*%
G36*
X150500000Y-87500000D02*
G01*
X144500000Y-87500000D01*
X144500000Y-84500000D01*
X150500000Y-84500000D01*
X150500000Y-87500000D01*
G37*
%TO.C,J3*%
G36*
X157500000Y-80500000D02*
G01*
X154500000Y-80500000D01*
X154500000Y-74500000D01*
X157500000Y-74500000D01*
X157500000Y-80500000D01*
G37*
%TO.C,J1*%
G36*
X140500000Y-80500000D02*
G01*
X137500000Y-80500000D01*
X137500000Y-74500000D01*
X140500000Y-74500000D01*
X140500000Y-80500000D01*
G37*
%TD*%
D10*
%TO.C,R3*%
X148000000Y-79510000D03*
X148000000Y-78490000D03*
%TD*%
D11*
%TO.C,R2*%
X146990000Y-77500000D03*
X148010000Y-77500000D03*
%TD*%
D10*
%TO.C,R1*%
X147000000Y-79510000D03*
X147000000Y-78490000D03*
%TD*%
D12*
%TO.C,H3*%
X140000000Y-70000000D03*
%TD*%
%TO.C,H1*%
X155000000Y-85000000D03*
%TD*%
%TO.C,H2*%
X155000000Y-70000000D03*
%TD*%
%TO.C,H4*%
X140000000Y-85000000D03*
%TD*%
G36*
X146708512Y-70883938D02*
G01*
X146746896Y-70943664D01*
X146750636Y-70960671D01*
X146751869Y-70968982D01*
X146753081Y-70981291D01*
X146753848Y-70996906D01*
X146754000Y-71003088D01*
X146754000Y-75374000D01*
X146733998Y-75442121D01*
X146680342Y-75488614D01*
X146628000Y-75500000D01*
X146518115Y-75500000D01*
X146502876Y-75504475D01*
X146501671Y-75505865D01*
X146500000Y-75513548D01*
X146500000Y-76981885D01*
X146504475Y-76997124D01*
X146505865Y-76998329D01*
X146513548Y-77000000D01*
X146628000Y-77000000D01*
X146696121Y-77020002D01*
X146742614Y-77073658D01*
X146754000Y-77126000D01*
X146754000Y-77996912D01*
X146753848Y-78003094D01*
X146753081Y-78018709D01*
X146751869Y-78031015D01*
X146750028Y-78043426D01*
X146747616Y-78055552D01*
X146744565Y-78067733D01*
X146740976Y-78079565D01*
X146736752Y-78091371D01*
X146732019Y-78102798D01*
X146726654Y-78114141D01*
X146720822Y-78125052D01*
X146714373Y-78135810D01*
X146707511Y-78146079D01*
X146700033Y-78156163D01*
X146692179Y-78165733D01*
X146683756Y-78175025D01*
X146675025Y-78183756D01*
X146665733Y-78192179D01*
X146656163Y-78200033D01*
X146646079Y-78207511D01*
X146635810Y-78214373D01*
X146625052Y-78220822D01*
X146614141Y-78226654D01*
X146602798Y-78232019D01*
X146591371Y-78236752D01*
X146579565Y-78240976D01*
X146567733Y-78244565D01*
X146555552Y-78247616D01*
X146543426Y-78250028D01*
X146531015Y-78251869D01*
X146518709Y-78253081D01*
X146503094Y-78253848D01*
X146496912Y-78254000D01*
X146427882Y-78254000D01*
X146359761Y-78233998D01*
X146313268Y-78180342D01*
X146301882Y-78128000D01*
X146301882Y-78018115D01*
X146297407Y-78002876D01*
X146296017Y-78001671D01*
X146288334Y-78000000D01*
X144716233Y-78000000D01*
X144700994Y-78004475D01*
X144699789Y-78005865D01*
X144698118Y-78013548D01*
X144698118Y-78128000D01*
X144678116Y-78196121D01*
X144624460Y-78242614D01*
X144572118Y-78254000D01*
X143503088Y-78254000D01*
X143496906Y-78253848D01*
X143481291Y-78253081D01*
X143468985Y-78251869D01*
X143456574Y-78250028D01*
X143444448Y-78247616D01*
X143432267Y-78244565D01*
X143420435Y-78240976D01*
X143408629Y-78236752D01*
X143397202Y-78232019D01*
X143385859Y-78226654D01*
X143374948Y-78220822D01*
X143364190Y-78214373D01*
X143353921Y-78207511D01*
X143343837Y-78200033D01*
X143334267Y-78192179D01*
X143324975Y-78183756D01*
X143316244Y-78175025D01*
X143307821Y-78165733D01*
X143299967Y-78156163D01*
X143292489Y-78146079D01*
X143285627Y-78135810D01*
X143279178Y-78125052D01*
X143273346Y-78114141D01*
X143267981Y-78102798D01*
X143263248Y-78091371D01*
X143259024Y-78079565D01*
X143255435Y-78067733D01*
X143252384Y-78055552D01*
X143249972Y-78043426D01*
X143248131Y-78031015D01*
X143246919Y-78018709D01*
X143246152Y-78003094D01*
X143246000Y-77996912D01*
X143246000Y-71003088D01*
X143246152Y-70996906D01*
X143246919Y-70981291D01*
X143248131Y-70968982D01*
X143249364Y-70960671D01*
X143279146Y-70896223D01*
X143339044Y-70858108D01*
X143410040Y-70858426D01*
X143469593Y-70897077D01*
X143498797Y-70961790D01*
X143500000Y-70979162D01*
X143500000Y-70981885D01*
X143504475Y-70997124D01*
X143505865Y-70998329D01*
X143513548Y-71000000D01*
X146481885Y-71000000D01*
X146497124Y-70995525D01*
X146498329Y-70994135D01*
X146500000Y-70986452D01*
X146500000Y-70979162D01*
X146520002Y-70911041D01*
X146573658Y-70864548D01*
X146643932Y-70854444D01*
X146708512Y-70883938D01*
G37*
G36*
X155004119Y-67500270D02*
G01*
X155318073Y-67520848D01*
X155334413Y-67522999D01*
X155638950Y-67583574D01*
X155654871Y-67587840D01*
X155948888Y-67687646D01*
X155964114Y-67693953D01*
X156242592Y-67831283D01*
X156256866Y-67839524D01*
X156515034Y-68012027D01*
X156528109Y-68022060D01*
X156761557Y-68226788D01*
X156773212Y-68238443D01*
X156977940Y-68471891D01*
X156987973Y-68484966D01*
X157160476Y-68743134D01*
X157168717Y-68757408D01*
X157306047Y-69035886D01*
X157312354Y-69051111D01*
X157324706Y-69087497D01*
X157327663Y-69158432D01*
X157291800Y-69219705D01*
X157228504Y-69251862D01*
X157205393Y-69254000D01*
X146626000Y-69254000D01*
X146557879Y-69233998D01*
X146511386Y-69180342D01*
X146500000Y-69128000D01*
X146500000Y-69018115D01*
X146495525Y-69002876D01*
X146494135Y-69001671D01*
X146486452Y-69000000D01*
X143518115Y-69000000D01*
X143502876Y-69004475D01*
X143501671Y-69005865D01*
X143500000Y-69013548D01*
X143500000Y-69128000D01*
X143479998Y-69196121D01*
X143426342Y-69242614D01*
X143374000Y-69254000D01*
X137794607Y-69254000D01*
X137726486Y-69233998D01*
X137679993Y-69180342D01*
X137669889Y-69110068D01*
X137675294Y-69087497D01*
X137687646Y-69051111D01*
X137693953Y-69035886D01*
X137831283Y-68757408D01*
X137839524Y-68743134D01*
X138012027Y-68484966D01*
X138022060Y-68471891D01*
X138226788Y-68238443D01*
X138238443Y-68226788D01*
X138471891Y-68022060D01*
X138484966Y-68012027D01*
X138743134Y-67839524D01*
X138757408Y-67831283D01*
X139035886Y-67693953D01*
X139051112Y-67687646D01*
X139345129Y-67587840D01*
X139361050Y-67583574D01*
X139665587Y-67522999D01*
X139681927Y-67520848D01*
X139995881Y-67500270D01*
X140004122Y-67500000D01*
X154995878Y-67500000D01*
X155004119Y-67500270D01*
G37*
G36*
X143503094Y-68746152D02*
G01*
X143518709Y-68746919D01*
X143531018Y-68748131D01*
X143539329Y-68749364D01*
X143603777Y-68779146D01*
X143641892Y-68839044D01*
X143641574Y-68910040D01*
X143602923Y-68969593D01*
X143538210Y-68998797D01*
X143520838Y-69000000D01*
X143518115Y-69000000D01*
X143502876Y-69004475D01*
X143501671Y-69005865D01*
X143500000Y-69013548D01*
X143500000Y-79981885D01*
X143504475Y-79997124D01*
X143505865Y-79998329D01*
X143513548Y-80000000D01*
X143628000Y-80000000D01*
X143696121Y-80020002D01*
X143742614Y-80073658D01*
X143754000Y-80126000D01*
X143754000Y-87374000D01*
X143733998Y-87442121D01*
X143680342Y-87488614D01*
X143628000Y-87500000D01*
X140004122Y-87500000D01*
X139995881Y-87499730D01*
X139681927Y-87479152D01*
X139665587Y-87477001D01*
X139361050Y-87416426D01*
X139345129Y-87412160D01*
X139051112Y-87312354D01*
X139035886Y-87306047D01*
X138757408Y-87168717D01*
X138743134Y-87160476D01*
X138484966Y-86987973D01*
X138471891Y-86977940D01*
X138238443Y-86773212D01*
X138226788Y-86761557D01*
X138022060Y-86528109D01*
X138012027Y-86515034D01*
X137839524Y-86256866D01*
X137831283Y-86242592D01*
X137693953Y-85964114D01*
X137687646Y-85948888D01*
X137587840Y-85654871D01*
X137583574Y-85638950D01*
X137522999Y-85334413D01*
X137520848Y-85318073D01*
X137500270Y-85004119D01*
X137500000Y-84995878D01*
X137500000Y-70004122D01*
X137500270Y-69995881D01*
X137520848Y-69681927D01*
X137522999Y-69665587D01*
X137583574Y-69361050D01*
X137587840Y-69345129D01*
X137687646Y-69051112D01*
X137693953Y-69035886D01*
X137802254Y-68816272D01*
X137850322Y-68764023D01*
X137915260Y-68746000D01*
X143496912Y-68746000D01*
X143503094Y-68746152D01*
G37*
G36*
X157152861Y-68766002D02*
G01*
X157197746Y-68816272D01*
X157306047Y-69035886D01*
X157312354Y-69051112D01*
X157412160Y-69345129D01*
X157416426Y-69361050D01*
X157477001Y-69665587D01*
X157479152Y-69681927D01*
X157499730Y-69995881D01*
X157500000Y-70004122D01*
X157500000Y-75628000D01*
X157479998Y-75696121D01*
X157426342Y-75742614D01*
X157374000Y-75754000D01*
X148626000Y-75754000D01*
X148557879Y-75733998D01*
X148511386Y-75680342D01*
X148500000Y-75628000D01*
X148500000Y-75518115D01*
X148495525Y-75502876D01*
X148494135Y-75501671D01*
X148486452Y-75500000D01*
X146518115Y-75500000D01*
X146502876Y-75504475D01*
X146501671Y-75505865D01*
X146500000Y-75513548D01*
X146500000Y-75520838D01*
X146479998Y-75588959D01*
X146426342Y-75635452D01*
X146356068Y-75645556D01*
X146291488Y-75616062D01*
X146253104Y-75556336D01*
X146249364Y-75539329D01*
X146248131Y-75531018D01*
X146246919Y-75518709D01*
X146246152Y-75503094D01*
X146246000Y-75496912D01*
X146246000Y-71126000D01*
X146266002Y-71057879D01*
X146319658Y-71011386D01*
X146372000Y-71000000D01*
X146481885Y-71000000D01*
X146497124Y-70995525D01*
X146498329Y-70994135D01*
X146500000Y-70986452D01*
X146500000Y-69018115D01*
X146495525Y-69002876D01*
X146494135Y-69001671D01*
X146486452Y-69000000D01*
X146479162Y-69000000D01*
X146411041Y-68979998D01*
X146364548Y-68926342D01*
X146354444Y-68856068D01*
X146383938Y-68791488D01*
X146443664Y-68753104D01*
X146460671Y-68749364D01*
X146468982Y-68748131D01*
X146481291Y-68746919D01*
X146496906Y-68746152D01*
X146503088Y-68746000D01*
X157084740Y-68746000D01*
X157152861Y-68766002D01*
G37*
G36*
X157442121Y-75266002D02*
G01*
X157488614Y-75319658D01*
X157500000Y-75372000D01*
X157500000Y-78128000D01*
X157479998Y-78196121D01*
X157426342Y-78242614D01*
X157374000Y-78254000D01*
X150414281Y-78254000D01*
X150346160Y-78233998D01*
X150299667Y-78180342D01*
X150288281Y-78128000D01*
X150288281Y-78018115D01*
X150283806Y-78002876D01*
X150282416Y-78001671D01*
X150274733Y-78000000D01*
X148644383Y-78000000D01*
X148629144Y-78004475D01*
X148627939Y-78005865D01*
X148626268Y-78013548D01*
X148626268Y-78127861D01*
X148606266Y-78195982D01*
X148552610Y-78242475D01*
X148494091Y-78253710D01*
X148481296Y-78253082D01*
X148468985Y-78251869D01*
X148456574Y-78250028D01*
X148444448Y-78247616D01*
X148432267Y-78244565D01*
X148420435Y-78240976D01*
X148408629Y-78236752D01*
X148397202Y-78232019D01*
X148385859Y-78226654D01*
X148374948Y-78220822D01*
X148364190Y-78214373D01*
X148353921Y-78207511D01*
X148343837Y-78200033D01*
X148334267Y-78192179D01*
X148324975Y-78183756D01*
X148316244Y-78175025D01*
X148307821Y-78165733D01*
X148299967Y-78156163D01*
X148292489Y-78146079D01*
X148285627Y-78135810D01*
X148279178Y-78125052D01*
X148273346Y-78114141D01*
X148267981Y-78102798D01*
X148263248Y-78091371D01*
X148259024Y-78079565D01*
X148255435Y-78067733D01*
X148252384Y-78055552D01*
X148249972Y-78043426D01*
X148248131Y-78031015D01*
X148246919Y-78018709D01*
X148246152Y-78003094D01*
X148246000Y-77996912D01*
X148246000Y-77126000D01*
X148266002Y-77057879D01*
X148319658Y-77011386D01*
X148372000Y-77000000D01*
X148481885Y-77000000D01*
X148497124Y-76995525D01*
X148498329Y-76994135D01*
X148500000Y-76986452D01*
X148500000Y-75518115D01*
X148495525Y-75502876D01*
X148494135Y-75501671D01*
X148486452Y-75500000D01*
X148479162Y-75500000D01*
X148411041Y-75479998D01*
X148364548Y-75426342D01*
X148354444Y-75356068D01*
X148383938Y-75291488D01*
X148443664Y-75253104D01*
X148460671Y-75249364D01*
X148468982Y-75248131D01*
X148481291Y-75246919D01*
X148496906Y-75246152D01*
X148503088Y-75246000D01*
X157374000Y-75246000D01*
X157442121Y-75266002D01*
G37*
G36*
X157442121Y-77766002D02*
G01*
X157488614Y-77819658D01*
X157500000Y-77872000D01*
X157500000Y-84995878D01*
X157499730Y-85004119D01*
X157479152Y-85318073D01*
X157477001Y-85334413D01*
X157416426Y-85638950D01*
X157412160Y-85654871D01*
X157312354Y-85948888D01*
X157306047Y-85964114D01*
X157168717Y-86242592D01*
X157160476Y-86256866D01*
X156987973Y-86515034D01*
X156977940Y-86528109D01*
X156773212Y-86761557D01*
X156761557Y-86773212D01*
X156528109Y-86977940D01*
X156515034Y-86987973D01*
X156256866Y-87160476D01*
X156242592Y-87168717D01*
X155964114Y-87306047D01*
X155948888Y-87312354D01*
X155654871Y-87412160D01*
X155638950Y-87416426D01*
X155334413Y-87477001D01*
X155318073Y-87479152D01*
X155004119Y-87499730D01*
X154995878Y-87500000D01*
X150160281Y-87500000D01*
X150092160Y-87479998D01*
X150045667Y-87426342D01*
X150034281Y-87374000D01*
X150034281Y-80126001D01*
X150054283Y-80057880D01*
X150107939Y-80011387D01*
X150160281Y-80000001D01*
X150270166Y-80000001D01*
X150285405Y-79995526D01*
X150286610Y-79994136D01*
X150288281Y-79986453D01*
X150288281Y-78018115D01*
X150283806Y-78002876D01*
X150282416Y-78001671D01*
X150274733Y-78000000D01*
X150267443Y-78000000D01*
X150199322Y-77979998D01*
X150152829Y-77926342D01*
X150142725Y-77856068D01*
X150172219Y-77791488D01*
X150231945Y-77753104D01*
X150248952Y-77749364D01*
X150257263Y-77748131D01*
X150269572Y-77746919D01*
X150285187Y-77746152D01*
X150291369Y-77746000D01*
X157374000Y-77746000D01*
X157442121Y-77766002D01*
G37*
G36*
X144640239Y-79766002D02*
G01*
X144686732Y-79819658D01*
X144698118Y-79872000D01*
X144698118Y-79874000D01*
X144678116Y-79942121D01*
X144624460Y-79988614D01*
X144572118Y-80000000D01*
X143518115Y-80000000D01*
X150270166Y-80000001D01*
X150285405Y-79995526D01*
X150286610Y-79994136D01*
X150288281Y-79986453D01*
X150288281Y-79880888D01*
X150308283Y-79812767D01*
X150361939Y-79766274D01*
X150432213Y-79756170D01*
X150456724Y-79762252D01*
X150459508Y-79763248D01*
X150470938Y-79767982D01*
X150482281Y-79773347D01*
X150493192Y-79779179D01*
X150503950Y-79785628D01*
X150514219Y-79792490D01*
X150524303Y-79799968D01*
X150533873Y-79807822D01*
X150543165Y-79816245D01*
X150551896Y-79824976D01*
X150560319Y-79834268D01*
X150568173Y-79843838D01*
X150575651Y-79853922D01*
X150582513Y-79864191D01*
X150588962Y-79874949D01*
X150594794Y-79885860D01*
X150600159Y-79897203D01*
X150604892Y-79908630D01*
X150609116Y-79920436D01*
X150612705Y-79932268D01*
X150615756Y-79944449D01*
X150618168Y-79956575D01*
X150620009Y-79968986D01*
X150621221Y-79981292D01*
X150621988Y-79996907D01*
X150622140Y-80003089D01*
X150622140Y-87374000D01*
X150602138Y-87442121D01*
X150548482Y-87488614D01*
X150496140Y-87500000D01*
X143372000Y-87500000D01*
X143303879Y-87479998D01*
X143257386Y-87426342D01*
X143246000Y-87374000D01*
X143246000Y-80003088D01*
X143246152Y-79996906D01*
X143246919Y-79981291D01*
X143248131Y-79968985D01*
X143249972Y-79956574D01*
X143252384Y-79944448D01*
X143255435Y-79932267D01*
X143259024Y-79920435D01*
X143263248Y-79908629D01*
X143267981Y-79897202D01*
X143273346Y-79885859D01*
X143279178Y-79874948D01*
X143285627Y-79864190D01*
X143292489Y-79853921D01*
X143299967Y-79843837D01*
X143307821Y-79834267D01*
X143316244Y-79824975D01*
X143324975Y-79816244D01*
X143334267Y-79807821D01*
X143343837Y-79799967D01*
X143353921Y-79792489D01*
X143364190Y-79785627D01*
X143374948Y-79779178D01*
X143385859Y-79773346D01*
X143397202Y-79767981D01*
X143408629Y-79763248D01*
X143420435Y-79759024D01*
X143432267Y-79755435D01*
X143444448Y-79752384D01*
X143456574Y-79749972D01*
X143468985Y-79748131D01*
X143481291Y-79746919D01*
X143496906Y-79746152D01*
X143503088Y-79746000D01*
X144572118Y-79746000D01*
X144640239Y-79766002D01*
G37*
G36*
X144701212Y-77746152D02*
G01*
X144716827Y-77746919D01*
X144729136Y-77748131D01*
X144737447Y-77749364D01*
X144801895Y-77779146D01*
X144840010Y-77839044D01*
X144839692Y-77910040D01*
X144801041Y-77969593D01*
X144736328Y-77998797D01*
X144718956Y-78000000D01*
X144716233Y-78000000D01*
X144700994Y-78004475D01*
X144699789Y-78005865D01*
X144698118Y-78013548D01*
X144698118Y-79981885D01*
X144702593Y-79997124D01*
X144703983Y-79998329D01*
X144711666Y-80000000D01*
X144718956Y-80000000D01*
X144787077Y-80020002D01*
X144833570Y-80073658D01*
X144843674Y-80143932D01*
X144814180Y-80208512D01*
X144754454Y-80246896D01*
X144737447Y-80250636D01*
X144729136Y-80251869D01*
X144716827Y-80253081D01*
X144701212Y-80253848D01*
X144695030Y-80254000D01*
X143503088Y-80254000D01*
X143496906Y-80253848D01*
X143481291Y-80253081D01*
X143468985Y-80251869D01*
X143456574Y-80250028D01*
X143444448Y-80247616D01*
X143432267Y-80244565D01*
X143420435Y-80240976D01*
X143408629Y-80236752D01*
X143397202Y-80232019D01*
X143385859Y-80226654D01*
X143374948Y-80220822D01*
X143364190Y-80214373D01*
X143353921Y-80207511D01*
X143343837Y-80200033D01*
X143334267Y-80192179D01*
X143324975Y-80183756D01*
X143316244Y-80175025D01*
X143307821Y-80165733D01*
X143299967Y-80156163D01*
X143292489Y-80146079D01*
X143285627Y-80135810D01*
X143279178Y-80125052D01*
X143273346Y-80114141D01*
X143267981Y-80102798D01*
X143263248Y-80091371D01*
X143259024Y-80079565D01*
X143255435Y-80067733D01*
X143252384Y-80055552D01*
X143249972Y-80043426D01*
X143248131Y-80031015D01*
X143246919Y-80018709D01*
X143246152Y-80003094D01*
X143246000Y-79996912D01*
X143246000Y-78003088D01*
X143246152Y-77996906D01*
X143246919Y-77981291D01*
X143248131Y-77968985D01*
X143249972Y-77956574D01*
X143252384Y-77944448D01*
X143255435Y-77932267D01*
X143259024Y-77920435D01*
X143263248Y-77908629D01*
X143267981Y-77897202D01*
X143273346Y-77885859D01*
X143279178Y-77874948D01*
X143285627Y-77864190D01*
X143292489Y-77853921D01*
X143299967Y-77843837D01*
X143307821Y-77834267D01*
X143316244Y-77824975D01*
X143324975Y-77816244D01*
X143334267Y-77807821D01*
X143343837Y-77799967D01*
X143353921Y-77792489D01*
X143364190Y-77785627D01*
X143374948Y-77779178D01*
X143385859Y-77773346D01*
X143397202Y-77767981D01*
X143408629Y-77763248D01*
X143420435Y-77759024D01*
X143432267Y-77755435D01*
X143444448Y-77752384D01*
X143456574Y-77749972D01*
X143468985Y-77748131D01*
X143481291Y-77746919D01*
X143496906Y-77746152D01*
X143503088Y-77746000D01*
X144695030Y-77746000D01*
X144701212Y-77746152D01*
G37*
G36*
X146442121Y-76766002D02*
G01*
X146488614Y-76819658D01*
X146500000Y-76872000D01*
X146500000Y-76981885D01*
X146504475Y-76997124D01*
X146505865Y-76998329D01*
X146513548Y-77000000D01*
X148481885Y-77000000D01*
X148497124Y-76995525D01*
X148498329Y-76994135D01*
X148500000Y-76986452D01*
X148500000Y-76872139D01*
X148520002Y-76804018D01*
X148573658Y-76757525D01*
X148632177Y-76746290D01*
X148644972Y-76746918D01*
X148657283Y-76748131D01*
X148669694Y-76749972D01*
X148681820Y-76752384D01*
X148694001Y-76755435D01*
X148705833Y-76759024D01*
X148717639Y-76763248D01*
X148729066Y-76767981D01*
X148740409Y-76773346D01*
X148751320Y-76779178D01*
X148762078Y-76785627D01*
X148772347Y-76792489D01*
X148782431Y-76799967D01*
X148792001Y-76807821D01*
X148801293Y-76816244D01*
X148810024Y-76824975D01*
X148818447Y-76834267D01*
X148826301Y-76843837D01*
X148833779Y-76853921D01*
X148840641Y-76864190D01*
X148847090Y-76874948D01*
X148852922Y-76885859D01*
X148858287Y-76897202D01*
X148863020Y-76908629D01*
X148867244Y-76920435D01*
X148870833Y-76932267D01*
X148873884Y-76944448D01*
X148876296Y-76956574D01*
X148878137Y-76968985D01*
X148879349Y-76981291D01*
X148880116Y-76996906D01*
X148880268Y-77003088D01*
X148880268Y-77874000D01*
X148860266Y-77942121D01*
X148806610Y-77988614D01*
X148754268Y-78000000D01*
X148644383Y-78000000D01*
X148629144Y-78004475D01*
X148627939Y-78005865D01*
X148626268Y-78013548D01*
X148626268Y-79981886D01*
X148630743Y-79997125D01*
X148632133Y-79998330D01*
X148639816Y-80000001D01*
X148754268Y-80000001D01*
X148822389Y-80020003D01*
X148868882Y-80073659D01*
X148880268Y-80126001D01*
X148880268Y-80496912D01*
X148880116Y-80503094D01*
X148879349Y-80518709D01*
X148878137Y-80531015D01*
X148876296Y-80543426D01*
X148873884Y-80555552D01*
X148870833Y-80567733D01*
X148867244Y-80579565D01*
X148863020Y-80591371D01*
X148858287Y-80602798D01*
X148852922Y-80614141D01*
X148847090Y-80625052D01*
X148840641Y-80635810D01*
X148833779Y-80646079D01*
X148826301Y-80656163D01*
X148818447Y-80665733D01*
X148810024Y-80675025D01*
X148801293Y-80683756D01*
X148792001Y-80692179D01*
X148782431Y-80700033D01*
X148772347Y-80707511D01*
X148762078Y-80714373D01*
X148751320Y-80720822D01*
X148740409Y-80726654D01*
X148729066Y-80732019D01*
X148717639Y-80736752D01*
X148705833Y-80740976D01*
X148694001Y-80744565D01*
X148681820Y-80747616D01*
X148669694Y-80750028D01*
X148657283Y-80751869D01*
X148644977Y-80753081D01*
X148629362Y-80753848D01*
X148623180Y-80754000D01*
X146304970Y-80754000D01*
X146298788Y-80753848D01*
X146283173Y-80753081D01*
X146270867Y-80751869D01*
X146258456Y-80750028D01*
X146246330Y-80747616D01*
X146234149Y-80744565D01*
X146222317Y-80740976D01*
X146210511Y-80736752D01*
X146199084Y-80732019D01*
X146187741Y-80726654D01*
X146176830Y-80720822D01*
X146166072Y-80714373D01*
X146155803Y-80707511D01*
X146145719Y-80700033D01*
X146136149Y-80692179D01*
X146126857Y-80683756D01*
X146118126Y-80675025D01*
X146109703Y-80665733D01*
X146101849Y-80656163D01*
X146094371Y-80646079D01*
X146087509Y-80635810D01*
X146081060Y-80625052D01*
X146075228Y-80614141D01*
X146069863Y-80602798D01*
X146065130Y-80591371D01*
X146060906Y-80579565D01*
X146057317Y-80567733D01*
X146054266Y-80555552D01*
X146051854Y-80543426D01*
X146050013Y-80531015D01*
X146048801Y-80518709D01*
X146048034Y-80503094D01*
X146047882Y-80496912D01*
X146047882Y-80126000D01*
X146067884Y-80057879D01*
X146121540Y-80011386D01*
X146173882Y-80000000D01*
X146283767Y-80000000D01*
X146299006Y-79995525D01*
X146300211Y-79994135D01*
X146301882Y-79986452D01*
X146301882Y-78018115D01*
X146297407Y-78002876D01*
X146296017Y-78001671D01*
X146288334Y-78000000D01*
X146173882Y-78000000D01*
X146105761Y-77979998D01*
X146059268Y-77926342D01*
X146047882Y-77874000D01*
X146047882Y-77003088D01*
X146048034Y-76996906D01*
X146048801Y-76981291D01*
X146050013Y-76968985D01*
X146051854Y-76956574D01*
X146054266Y-76944448D01*
X146057317Y-76932267D01*
X146060906Y-76920435D01*
X146065130Y-76908629D01*
X146069863Y-76897202D01*
X146075228Y-76885859D01*
X146081060Y-76874948D01*
X146087509Y-76864190D01*
X146094371Y-76853921D01*
X146101849Y-76843837D01*
X146109703Y-76834267D01*
X146118126Y-76824975D01*
X146126857Y-76816244D01*
X146136149Y-76807821D01*
X146145719Y-76799967D01*
X146155803Y-76792489D01*
X146166072Y-76785627D01*
X146176830Y-76779178D01*
X146187741Y-76773346D01*
X146199084Y-76767981D01*
X146210511Y-76763248D01*
X146222317Y-76759024D01*
X146234149Y-76755435D01*
X146246330Y-76752384D01*
X146258456Y-76749972D01*
X146270867Y-76748131D01*
X146283173Y-76746919D01*
X146298788Y-76746152D01*
X146304970Y-76746000D01*
X146374000Y-76746000D01*
X146442121Y-76766002D01*
G37*
M02*
