%TF.GenerationSoftware,KiCad,Pcbnew,6.0.9+dfsg-1~bpo11+1*%
%TF.CreationDate,2022-11-11T16:08:24+01:00*%
%TF.ProjectId,015-3-port-resistive-splitter,3031352d-332d-4706-9f72-742d72657369,1*%
%TF.SameCoordinates,Original*%
%TF.FileFunction,Drillmap*%
%TF.FilePolarity,Positive*%
%FSLAX45Y45*%
G04 Gerber Fmt 4.5, Leading zero omitted, Abs format (unit mm)*
G04 Created by KiCad (PCBNEW 6.0.9+dfsg-1~bpo11+1) date 2022-11-11 16:08:24*
%MOMM*%
%LPD*%
G01*
G04 APERTURE LIST*
%ADD10C,0.100000*%
%ADD11C,0.200000*%
%ADD12C,0.040000*%
G04 APERTURE END LIST*
D10*
X13750000Y-8500000D02*
G75*
G03*
X14000000Y-8750000I250000J0D01*
G01*
X15500000Y-8750000D02*
X14000000Y-8750000D01*
X14000000Y-6750000D02*
X15500000Y-6750000D01*
X15750000Y-7000000D02*
X15750000Y-8500000D01*
X13750000Y-8500000D02*
X13750000Y-7000000D01*
X15500000Y-8750000D02*
G75*
G03*
X15750000Y-8500000I0J250000D01*
G01*
X15750000Y-7000000D02*
G75*
G03*
X15500000Y-6750000I-250000J0D01*
G01*
X14000000Y-6750000D02*
G75*
G03*
X13750000Y-7000000I0J-250000D01*
G01*
D11*
D12*
X13980000Y-7230000D02*
X14020000Y-7270000D01*
X14020000Y-7230000D02*
X13980000Y-7270000D01*
X13980000Y-7480000D02*
X14020000Y-7520000D01*
X14020000Y-7480000D02*
X13980000Y-7520000D01*
X13980000Y-7980000D02*
X14020000Y-8020000D01*
X14020000Y-7980000D02*
X13980000Y-8020000D01*
X13980000Y-8230000D02*
X14020000Y-8270000D01*
X14020000Y-8230000D02*
X13980000Y-8270000D01*
X14030000Y-7580000D02*
X14070000Y-7620000D01*
X14070000Y-7580000D02*
X14030000Y-7620000D01*
X14030000Y-7880000D02*
X14070000Y-7920000D01*
X14070000Y-7880000D02*
X14030000Y-7920000D01*
X14080000Y-7630000D02*
X14120000Y-7670000D01*
X14120000Y-7630000D02*
X14080000Y-7670000D01*
X14080000Y-7830000D02*
X14120000Y-7870000D01*
X14120000Y-7830000D02*
X14080000Y-7870000D01*
X14130000Y-7580000D02*
X14170000Y-7620000D01*
X14170000Y-7580000D02*
X14130000Y-7620000D01*
X14130000Y-7880000D02*
X14170000Y-7920000D01*
X14170000Y-7880000D02*
X14130000Y-7920000D01*
X14180000Y-7630000D02*
X14220000Y-7670000D01*
X14220000Y-7630000D02*
X14180000Y-7670000D01*
X14180000Y-7830000D02*
X14220000Y-7870000D01*
X14220000Y-7830000D02*
X14180000Y-7870000D01*
X14230000Y-6980000D02*
X14270000Y-7020000D01*
X14270000Y-6980000D02*
X14230000Y-7020000D01*
X14230000Y-7230000D02*
X14270000Y-7270000D01*
X14270000Y-7230000D02*
X14230000Y-7270000D01*
X14230000Y-7480000D02*
X14270000Y-7520000D01*
X14270000Y-7480000D02*
X14230000Y-7520000D01*
X14230000Y-7580000D02*
X14270000Y-7620000D01*
X14270000Y-7580000D02*
X14230000Y-7620000D01*
X14230000Y-7880000D02*
X14270000Y-7920000D01*
X14270000Y-7880000D02*
X14230000Y-7920000D01*
X14230000Y-7980000D02*
X14270000Y-8020000D01*
X14270000Y-7980000D02*
X14230000Y-8020000D01*
X14230000Y-8230000D02*
X14270000Y-8270000D01*
X14270000Y-8230000D02*
X14230000Y-8270000D01*
X14230000Y-8480000D02*
X14270000Y-8520000D01*
X14270000Y-8480000D02*
X14230000Y-8520000D01*
X14280000Y-7630000D02*
X14320000Y-7670000D01*
X14320000Y-7630000D02*
X14280000Y-7670000D01*
X14280000Y-7830000D02*
X14320000Y-7870000D01*
X14320000Y-7830000D02*
X14280000Y-7870000D01*
X14330000Y-7580000D02*
X14370000Y-7620000D01*
X14370000Y-7580000D02*
X14330000Y-7620000D01*
X14330000Y-7880000D02*
X14370000Y-7920000D01*
X14370000Y-7880000D02*
X14330000Y-7920000D01*
X14380000Y-7630000D02*
X14420000Y-7670000D01*
X14420000Y-7630000D02*
X14380000Y-7670000D01*
X14380000Y-7830000D02*
X14420000Y-7870000D01*
X14420000Y-7830000D02*
X14380000Y-7870000D01*
X14430000Y-7580000D02*
X14470000Y-7620000D01*
X14470000Y-7580000D02*
X14430000Y-7620000D01*
X14430000Y-7880000D02*
X14470000Y-7920000D01*
X14470000Y-7880000D02*
X14430000Y-7920000D01*
X14480000Y-7230000D02*
X14520000Y-7270000D01*
X14520000Y-7230000D02*
X14480000Y-7270000D01*
X14480000Y-7480000D02*
X14520000Y-7520000D01*
X14520000Y-7480000D02*
X14480000Y-7520000D01*
X14480000Y-7630000D02*
X14520000Y-7670000D01*
X14520000Y-7630000D02*
X14480000Y-7670000D01*
X14480000Y-7830000D02*
X14520000Y-7870000D01*
X14520000Y-7830000D02*
X14480000Y-7870000D01*
X14480000Y-7930000D02*
X14520000Y-7970000D01*
X14520000Y-7930000D02*
X14480000Y-7970000D01*
X14480000Y-8230000D02*
X14520000Y-8270000D01*
X14520000Y-8230000D02*
X14480000Y-8270000D01*
X14480000Y-8480000D02*
X14520000Y-8520000D01*
X14520000Y-8480000D02*
X14480000Y-8520000D01*
X14530000Y-7580000D02*
X14570000Y-7620000D01*
X14570000Y-7580000D02*
X14530000Y-7620000D01*
X14530000Y-7880000D02*
X14570000Y-7920000D01*
X14570000Y-7880000D02*
X14530000Y-7920000D01*
X14530000Y-7980000D02*
X14570000Y-8020000D01*
X14570000Y-7980000D02*
X14530000Y-8020000D01*
X14530000Y-8080000D02*
X14570000Y-8120000D01*
X14570000Y-8080000D02*
X14530000Y-8120000D01*
X14580000Y-7630000D02*
X14620000Y-7670000D01*
X14620000Y-7630000D02*
X14580000Y-7670000D01*
X14580000Y-7830000D02*
X14620000Y-7870000D01*
X14620000Y-7830000D02*
X14580000Y-7870000D01*
X14580000Y-7930000D02*
X14620000Y-7970000D01*
X14620000Y-7930000D02*
X14580000Y-7970000D01*
X14580000Y-8030000D02*
X14620000Y-8070000D01*
X14620000Y-8030000D02*
X14580000Y-8070000D01*
X14580000Y-8130000D02*
X14620000Y-8170000D01*
X14620000Y-8130000D02*
X14580000Y-8170000D01*
X14580000Y-8230000D02*
X14620000Y-8270000D01*
X14620000Y-8230000D02*
X14580000Y-8270000D01*
X14580000Y-8330000D02*
X14620000Y-8370000D01*
X14620000Y-8330000D02*
X14580000Y-8370000D01*
X14580000Y-8430000D02*
X14620000Y-8470000D01*
X14620000Y-8430000D02*
X14580000Y-8470000D01*
X14630000Y-7580000D02*
X14670000Y-7620000D01*
X14670000Y-7580000D02*
X14630000Y-7620000D01*
X14630000Y-8080000D02*
X14670000Y-8120000D01*
X14670000Y-8080000D02*
X14630000Y-8120000D01*
X14630000Y-8180000D02*
X14670000Y-8220000D01*
X14670000Y-8180000D02*
X14630000Y-8220000D01*
X14630000Y-8280000D02*
X14670000Y-8320000D01*
X14670000Y-8280000D02*
X14630000Y-8320000D01*
X14630000Y-8380000D02*
X14670000Y-8420000D01*
X14670000Y-8380000D02*
X14630000Y-8420000D01*
X14680000Y-7630000D02*
X14720000Y-7670000D01*
X14720000Y-7630000D02*
X14680000Y-7670000D01*
X14730000Y-6980000D02*
X14770000Y-7020000D01*
X14770000Y-6980000D02*
X14730000Y-7020000D01*
X14730000Y-7230000D02*
X14770000Y-7270000D01*
X14770000Y-7230000D02*
X14730000Y-7270000D01*
X14730000Y-7480000D02*
X14770000Y-7520000D01*
X14770000Y-7480000D02*
X14730000Y-7520000D01*
X14730000Y-7580000D02*
X14770000Y-7620000D01*
X14770000Y-7580000D02*
X14730000Y-7620000D01*
X14780000Y-7630000D02*
X14820000Y-7670000D01*
X14820000Y-7630000D02*
X14780000Y-7670000D01*
X14830000Y-7580000D02*
X14870000Y-7620000D01*
X14870000Y-7580000D02*
X14830000Y-7620000D01*
X14830000Y-8080000D02*
X14870000Y-8120000D01*
X14870000Y-8080000D02*
X14830000Y-8120000D01*
X14830000Y-8180000D02*
X14870000Y-8220000D01*
X14870000Y-8180000D02*
X14830000Y-8220000D01*
X14830000Y-8280000D02*
X14870000Y-8320000D01*
X14870000Y-8280000D02*
X14830000Y-8320000D01*
X14830000Y-8380000D02*
X14870000Y-8420000D01*
X14870000Y-8380000D02*
X14830000Y-8420000D01*
X14880000Y-7630000D02*
X14920000Y-7670000D01*
X14920000Y-7630000D02*
X14880000Y-7670000D01*
X14880000Y-7830000D02*
X14920000Y-7870000D01*
X14920000Y-7830000D02*
X14880000Y-7870000D01*
X14880000Y-7930000D02*
X14920000Y-7970000D01*
X14920000Y-7930000D02*
X14880000Y-7970000D01*
X14880000Y-8030000D02*
X14920000Y-8070000D01*
X14920000Y-8030000D02*
X14880000Y-8070000D01*
X14880000Y-8130000D02*
X14920000Y-8170000D01*
X14920000Y-8130000D02*
X14880000Y-8170000D01*
X14880000Y-8230000D02*
X14920000Y-8270000D01*
X14920000Y-8230000D02*
X14880000Y-8270000D01*
X14880000Y-8330000D02*
X14920000Y-8370000D01*
X14920000Y-8330000D02*
X14880000Y-8370000D01*
X14880000Y-8430000D02*
X14920000Y-8470000D01*
X14920000Y-8430000D02*
X14880000Y-8470000D01*
X14930000Y-7580000D02*
X14970000Y-7620000D01*
X14970000Y-7580000D02*
X14930000Y-7620000D01*
X14930000Y-7880000D02*
X14970000Y-7920000D01*
X14970000Y-7880000D02*
X14930000Y-7920000D01*
X14930000Y-7980000D02*
X14970000Y-8020000D01*
X14970000Y-7980000D02*
X14930000Y-8020000D01*
X14930000Y-8080000D02*
X14970000Y-8120000D01*
X14970000Y-8080000D02*
X14930000Y-8120000D01*
X14980000Y-6980000D02*
X15020000Y-7020000D01*
X15020000Y-6980000D02*
X14980000Y-7020000D01*
X14980000Y-7480000D02*
X15020000Y-7520000D01*
X15020000Y-7480000D02*
X14980000Y-7520000D01*
X14980000Y-7630000D02*
X15020000Y-7670000D01*
X15020000Y-7630000D02*
X14980000Y-7670000D01*
X14980000Y-7830000D02*
X15020000Y-7870000D01*
X15020000Y-7830000D02*
X14980000Y-7870000D01*
X14980000Y-7930000D02*
X15020000Y-7970000D01*
X15020000Y-7930000D02*
X14980000Y-7970000D01*
X14980000Y-8230000D02*
X15020000Y-8270000D01*
X15020000Y-8230000D02*
X14980000Y-8270000D01*
X14980000Y-8480000D02*
X15020000Y-8520000D01*
X15020000Y-8480000D02*
X14980000Y-8520000D01*
X15030000Y-7580000D02*
X15070000Y-7620000D01*
X15070000Y-7580000D02*
X15030000Y-7620000D01*
X15030000Y-7880000D02*
X15070000Y-7920000D01*
X15070000Y-7880000D02*
X15030000Y-7920000D01*
X15080000Y-7630000D02*
X15120000Y-7670000D01*
X15120000Y-7630000D02*
X15080000Y-7670000D01*
X15080000Y-7830000D02*
X15120000Y-7870000D01*
X15120000Y-7830000D02*
X15080000Y-7870000D01*
X15130000Y-7580000D02*
X15170000Y-7620000D01*
X15170000Y-7580000D02*
X15130000Y-7620000D01*
X15130000Y-7880000D02*
X15170000Y-7920000D01*
X15170000Y-7880000D02*
X15130000Y-7920000D01*
X15180000Y-7630000D02*
X15220000Y-7670000D01*
X15220000Y-7630000D02*
X15180000Y-7670000D01*
X15180000Y-7830000D02*
X15220000Y-7870000D01*
X15220000Y-7830000D02*
X15180000Y-7870000D01*
X15230000Y-6980000D02*
X15270000Y-7020000D01*
X15270000Y-6980000D02*
X15230000Y-7020000D01*
X15230000Y-7230000D02*
X15270000Y-7270000D01*
X15270000Y-7230000D02*
X15230000Y-7270000D01*
X15230000Y-7480000D02*
X15270000Y-7520000D01*
X15270000Y-7480000D02*
X15230000Y-7520000D01*
X15230000Y-7580000D02*
X15270000Y-7620000D01*
X15270000Y-7580000D02*
X15230000Y-7620000D01*
X15230000Y-7880000D02*
X15270000Y-7920000D01*
X15270000Y-7880000D02*
X15230000Y-7920000D01*
X15230000Y-7980000D02*
X15270000Y-8020000D01*
X15270000Y-7980000D02*
X15230000Y-8020000D01*
X15230000Y-8230000D02*
X15270000Y-8270000D01*
X15270000Y-8230000D02*
X15230000Y-8270000D01*
X15230000Y-8480000D02*
X15270000Y-8520000D01*
X15270000Y-8480000D02*
X15230000Y-8520000D01*
X15280000Y-7630000D02*
X15320000Y-7670000D01*
X15320000Y-7630000D02*
X15280000Y-7670000D01*
X15280000Y-7830000D02*
X15320000Y-7870000D01*
X15320000Y-7830000D02*
X15280000Y-7870000D01*
X15330000Y-7580000D02*
X15370000Y-7620000D01*
X15370000Y-7580000D02*
X15330000Y-7620000D01*
X15330000Y-7880000D02*
X15370000Y-7920000D01*
X15370000Y-7880000D02*
X15330000Y-7920000D01*
X15380000Y-7630000D02*
X15420000Y-7670000D01*
X15420000Y-7630000D02*
X15380000Y-7670000D01*
X15380000Y-7830000D02*
X15420000Y-7870000D01*
X15420000Y-7830000D02*
X15380000Y-7870000D01*
X15430000Y-7580000D02*
X15470000Y-7620000D01*
X15470000Y-7580000D02*
X15430000Y-7620000D01*
X15430000Y-7880000D02*
X15470000Y-7920000D01*
X15470000Y-7880000D02*
X15430000Y-7920000D01*
X15480000Y-7230000D02*
X15520000Y-7270000D01*
X15520000Y-7230000D02*
X15480000Y-7270000D01*
X15480000Y-7480000D02*
X15520000Y-7520000D01*
X15520000Y-7480000D02*
X15480000Y-7520000D01*
X15480000Y-7980000D02*
X15520000Y-8020000D01*
X15520000Y-7980000D02*
X15480000Y-8020000D01*
X15480000Y-8230000D02*
X15520000Y-8270000D01*
X15520000Y-8230000D02*
X15480000Y-8270000D01*
X13820000Y-7650000D02*
G75*
G03*
X13820000Y-7650000I-20000J0D01*
G01*
X13820000Y-7850000D02*
G75*
G03*
X13820000Y-7850000I-20000J0D01*
G01*
X13870000Y-7600000D02*
G75*
G03*
X13870000Y-7600000I-20000J0D01*
G01*
X13870000Y-7900000D02*
G75*
G03*
X13870000Y-7900000I-20000J0D01*
G01*
X13920000Y-7650000D02*
G75*
G03*
X13920000Y-7650000I-20000J0D01*
G01*
X13920000Y-7850000D02*
G75*
G03*
X13920000Y-7850000I-20000J0D01*
G01*
X13970000Y-7600000D02*
G75*
G03*
X13970000Y-7600000I-20000J0D01*
G01*
X13970000Y-7900000D02*
G75*
G03*
X13970000Y-7900000I-20000J0D01*
G01*
X14020000Y-7650000D02*
G75*
G03*
X14020000Y-7650000I-20000J0D01*
G01*
X14020000Y-7850000D02*
G75*
G03*
X14020000Y-7850000I-20000J0D01*
G01*
X14620000Y-8550000D02*
G75*
G03*
X14620000Y-8550000I-20000J0D01*
G01*
X14620000Y-8650000D02*
G75*
G03*
X14620000Y-8650000I-20000J0D01*
G01*
X14670000Y-8500000D02*
G75*
G03*
X14670000Y-8500000I-20000J0D01*
G01*
X14670000Y-8600000D02*
G75*
G03*
X14670000Y-8600000I-20000J0D01*
G01*
X14670000Y-8700000D02*
G75*
G03*
X14670000Y-8700000I-20000J0D01*
G01*
X14870000Y-8500000D02*
G75*
G03*
X14870000Y-8500000I-20000J0D01*
G01*
X14870000Y-8600000D02*
G75*
G03*
X14870000Y-8600000I-20000J0D01*
G01*
X14870000Y-8700000D02*
G75*
G03*
X14870000Y-8700000I-20000J0D01*
G01*
X14920000Y-8550000D02*
G75*
G03*
X14920000Y-8550000I-20000J0D01*
G01*
X14920000Y-8650000D02*
G75*
G03*
X14920000Y-8650000I-20000J0D01*
G01*
X15520000Y-7650000D02*
G75*
G03*
X15520000Y-7650000I-20000J0D01*
G01*
X15520000Y-7850000D02*
G75*
G03*
X15520000Y-7850000I-20000J0D01*
G01*
X15570000Y-7600000D02*
G75*
G03*
X15570000Y-7600000I-20000J0D01*
G01*
X15570000Y-7900000D02*
G75*
G03*
X15570000Y-7900000I-20000J0D01*
G01*
X15620000Y-7650000D02*
G75*
G03*
X15620000Y-7650000I-20000J0D01*
G01*
X15620000Y-7850000D02*
G75*
G03*
X15620000Y-7850000I-20000J0D01*
G01*
X15670000Y-7600000D02*
G75*
G03*
X15670000Y-7600000I-20000J0D01*
G01*
X15670000Y-7900000D02*
G75*
G03*
X15670000Y-7900000I-20000J0D01*
G01*
X15720000Y-7650000D02*
G75*
G03*
X15720000Y-7650000I-20000J0D01*
G01*
X15720000Y-7850000D02*
G75*
G03*
X15720000Y-7850000I-20000J0D01*
G01*
D11*
X14000000Y-6900000D02*
X14000000Y-7100000D01*
X13900000Y-7000000D02*
X14100000Y-7000000D01*
X14000000Y-8400000D02*
X14000000Y-8600000D01*
X13900000Y-8500000D02*
X14100000Y-8500000D01*
X15500000Y-6900000D02*
X15500000Y-7100000D01*
X15400000Y-7000000D02*
X15600000Y-7000000D01*
X15500000Y-8400000D02*
X15500000Y-8600000D01*
X15400000Y-8500000D02*
X15600000Y-8500000D01*
X14002619Y-9065476D02*
X14002619Y-8865476D01*
X14050238Y-8865476D01*
X14078809Y-8875000D01*
X14097857Y-8894048D01*
X14107381Y-8913095D01*
X14116905Y-8951190D01*
X14116905Y-8979762D01*
X14107381Y-9017857D01*
X14097857Y-9036905D01*
X14078809Y-9055952D01*
X14050238Y-9065476D01*
X14002619Y-9065476D01*
X14202619Y-9065476D02*
X14202619Y-8932143D01*
X14202619Y-8970238D02*
X14212143Y-8951190D01*
X14221667Y-8941667D01*
X14240714Y-8932143D01*
X14259762Y-8932143D01*
X14326428Y-9065476D02*
X14326428Y-8932143D01*
X14326428Y-8865476D02*
X14316905Y-8875000D01*
X14326428Y-8884524D01*
X14335952Y-8875000D01*
X14326428Y-8865476D01*
X14326428Y-8884524D01*
X14450238Y-9065476D02*
X14431190Y-9055952D01*
X14421667Y-9036905D01*
X14421667Y-8865476D01*
X14555000Y-9065476D02*
X14535952Y-9055952D01*
X14526428Y-9036905D01*
X14526428Y-8865476D01*
X14783571Y-9065476D02*
X14783571Y-8865476D01*
X14850238Y-9008333D01*
X14916905Y-8865476D01*
X14916905Y-9065476D01*
X15097857Y-9065476D02*
X15097857Y-8960714D01*
X15088333Y-8941667D01*
X15069286Y-8932143D01*
X15031190Y-8932143D01*
X15012143Y-8941667D01*
X15097857Y-9055952D02*
X15078809Y-9065476D01*
X15031190Y-9065476D01*
X15012143Y-9055952D01*
X15002619Y-9036905D01*
X15002619Y-9017857D01*
X15012143Y-8998810D01*
X15031190Y-8989286D01*
X15078809Y-8989286D01*
X15097857Y-8979762D01*
X15193095Y-8932143D02*
X15193095Y-9132143D01*
X15193095Y-8941667D02*
X15212143Y-8932143D01*
X15250238Y-8932143D01*
X15269286Y-8941667D01*
X15278809Y-8951190D01*
X15288333Y-8970238D01*
X15288333Y-9027381D01*
X15278809Y-9046429D01*
X15269286Y-9055952D01*
X15250238Y-9065476D01*
X15212143Y-9065476D01*
X15193095Y-9055952D01*
X15374048Y-9046429D02*
X15383571Y-9055952D01*
X15374048Y-9065476D01*
X15364524Y-9055952D01*
X15374048Y-9046429D01*
X15374048Y-9065476D01*
X15374048Y-8941667D02*
X15383571Y-8951190D01*
X15374048Y-8960714D01*
X15364524Y-8951190D01*
X15374048Y-8941667D01*
X15374048Y-8960714D01*
D12*
X13705000Y-9375000D02*
X13745000Y-9415000D01*
X13745000Y-9375000D02*
X13705000Y-9415000D01*
D11*
X14040714Y-9285476D02*
X14059762Y-9285476D01*
X14078809Y-9295000D01*
X14088333Y-9304524D01*
X14097857Y-9323571D01*
X14107381Y-9361667D01*
X14107381Y-9409286D01*
X14097857Y-9447381D01*
X14088333Y-9466429D01*
X14078809Y-9475952D01*
X14059762Y-9485476D01*
X14040714Y-9485476D01*
X14021667Y-9475952D01*
X14012143Y-9466429D01*
X14002619Y-9447381D01*
X13993095Y-9409286D01*
X13993095Y-9361667D01*
X14002619Y-9323571D01*
X14012143Y-9304524D01*
X14021667Y-9295000D01*
X14040714Y-9285476D01*
X14193095Y-9466429D02*
X14202619Y-9475952D01*
X14193095Y-9485476D01*
X14183571Y-9475952D01*
X14193095Y-9466429D01*
X14193095Y-9485476D01*
X14374048Y-9352143D02*
X14374048Y-9485476D01*
X14326428Y-9275952D02*
X14278809Y-9418810D01*
X14402619Y-9418810D01*
X14516905Y-9285476D02*
X14535952Y-9285476D01*
X14555000Y-9295000D01*
X14564524Y-9304524D01*
X14574048Y-9323571D01*
X14583571Y-9361667D01*
X14583571Y-9409286D01*
X14574048Y-9447381D01*
X14564524Y-9466429D01*
X14555000Y-9475952D01*
X14535952Y-9485476D01*
X14516905Y-9485476D01*
X14497857Y-9475952D01*
X14488333Y-9466429D01*
X14478809Y-9447381D01*
X14469286Y-9409286D01*
X14469286Y-9361667D01*
X14478809Y-9323571D01*
X14488333Y-9304524D01*
X14497857Y-9295000D01*
X14516905Y-9285476D01*
X14707381Y-9285476D02*
X14726428Y-9285476D01*
X14745476Y-9295000D01*
X14755000Y-9304524D01*
X14764524Y-9323571D01*
X14774048Y-9361667D01*
X14774048Y-9409286D01*
X14764524Y-9447381D01*
X14755000Y-9466429D01*
X14745476Y-9475952D01*
X14726428Y-9485476D01*
X14707381Y-9485476D01*
X14688333Y-9475952D01*
X14678809Y-9466429D01*
X14669286Y-9447381D01*
X14659762Y-9409286D01*
X14659762Y-9361667D01*
X14669286Y-9323571D01*
X14678809Y-9304524D01*
X14688333Y-9295000D01*
X14707381Y-9285476D01*
X14859762Y-9485476D02*
X14859762Y-9352143D01*
X14859762Y-9371190D02*
X14869286Y-9361667D01*
X14888333Y-9352143D01*
X14916905Y-9352143D01*
X14935952Y-9361667D01*
X14945476Y-9380714D01*
X14945476Y-9485476D01*
X14945476Y-9380714D02*
X14955000Y-9361667D01*
X14974048Y-9352143D01*
X15002619Y-9352143D01*
X15021667Y-9361667D01*
X15031190Y-9380714D01*
X15031190Y-9485476D01*
X15126428Y-9485476D02*
X15126428Y-9352143D01*
X15126428Y-9371190D02*
X15135952Y-9361667D01*
X15155000Y-9352143D01*
X15183571Y-9352143D01*
X15202619Y-9361667D01*
X15212143Y-9380714D01*
X15212143Y-9485476D01*
X15212143Y-9380714D02*
X15221667Y-9361667D01*
X15240714Y-9352143D01*
X15269286Y-9352143D01*
X15288333Y-9361667D01*
X15297857Y-9380714D01*
X15297857Y-9485476D01*
X15688333Y-9275952D02*
X15516905Y-9533095D01*
X15945476Y-9285476D02*
X15964524Y-9285476D01*
X15983571Y-9295000D01*
X15993095Y-9304524D01*
X16002619Y-9323571D01*
X16012143Y-9361667D01*
X16012143Y-9409286D01*
X16002619Y-9447381D01*
X15993095Y-9466429D01*
X15983571Y-9475952D01*
X15964524Y-9485476D01*
X15945476Y-9485476D01*
X15926428Y-9475952D01*
X15916905Y-9466429D01*
X15907381Y-9447381D01*
X15897857Y-9409286D01*
X15897857Y-9361667D01*
X15907381Y-9323571D01*
X15916905Y-9304524D01*
X15926428Y-9295000D01*
X15945476Y-9285476D01*
X16097857Y-9466429D02*
X16107381Y-9475952D01*
X16097857Y-9485476D01*
X16088333Y-9475952D01*
X16097857Y-9466429D01*
X16097857Y-9485476D01*
X16231190Y-9285476D02*
X16250238Y-9285476D01*
X16269286Y-9295000D01*
X16278809Y-9304524D01*
X16288333Y-9323571D01*
X16297857Y-9361667D01*
X16297857Y-9409286D01*
X16288333Y-9447381D01*
X16278809Y-9466429D01*
X16269286Y-9475952D01*
X16250238Y-9485476D01*
X16231190Y-9485476D01*
X16212143Y-9475952D01*
X16202619Y-9466429D01*
X16193095Y-9447381D01*
X16183571Y-9409286D01*
X16183571Y-9361667D01*
X16193095Y-9323571D01*
X16202619Y-9304524D01*
X16212143Y-9295000D01*
X16231190Y-9285476D01*
X16488333Y-9485476D02*
X16374048Y-9485476D01*
X16431190Y-9485476D02*
X16431190Y-9285476D01*
X16412143Y-9314048D01*
X16393095Y-9333095D01*
X16374048Y-9342619D01*
X16669286Y-9285476D02*
X16574048Y-9285476D01*
X16564524Y-9380714D01*
X16574048Y-9371190D01*
X16593095Y-9361667D01*
X16640714Y-9361667D01*
X16659762Y-9371190D01*
X16669286Y-9380714D01*
X16678809Y-9399762D01*
X16678809Y-9447381D01*
X16669286Y-9466429D01*
X16659762Y-9475952D01*
X16640714Y-9485476D01*
X16593095Y-9485476D01*
X16574048Y-9475952D01*
X16564524Y-9466429D01*
X16745476Y-9285476D02*
X16878810Y-9285476D01*
X16793095Y-9485476D01*
X16945476Y-9285476D02*
X16945476Y-9323571D01*
X17021667Y-9285476D02*
X17021667Y-9323571D01*
X17316905Y-9561667D02*
X17307381Y-9552143D01*
X17288333Y-9523571D01*
X17278810Y-9504524D01*
X17269286Y-9475952D01*
X17259762Y-9428333D01*
X17259762Y-9390238D01*
X17269286Y-9342619D01*
X17278810Y-9314048D01*
X17288333Y-9295000D01*
X17307381Y-9266429D01*
X17316905Y-9256905D01*
X17497857Y-9485476D02*
X17383571Y-9485476D01*
X17440714Y-9485476D02*
X17440714Y-9285476D01*
X17421667Y-9314048D01*
X17402619Y-9333095D01*
X17383571Y-9342619D01*
X17688333Y-9485476D02*
X17574048Y-9485476D01*
X17631190Y-9485476D02*
X17631190Y-9285476D01*
X17612143Y-9314048D01*
X17593095Y-9333095D01*
X17574048Y-9342619D01*
X17812143Y-9285476D02*
X17831190Y-9285476D01*
X17850238Y-9295000D01*
X17859762Y-9304524D01*
X17869286Y-9323571D01*
X17878810Y-9361667D01*
X17878810Y-9409286D01*
X17869286Y-9447381D01*
X17859762Y-9466429D01*
X17850238Y-9475952D01*
X17831190Y-9485476D01*
X17812143Y-9485476D01*
X17793095Y-9475952D01*
X17783571Y-9466429D01*
X17774048Y-9447381D01*
X17764524Y-9409286D01*
X17764524Y-9361667D01*
X17774048Y-9323571D01*
X17783571Y-9304524D01*
X17793095Y-9295000D01*
X17812143Y-9285476D01*
X18116905Y-9485476D02*
X18116905Y-9285476D01*
X18202619Y-9485476D02*
X18202619Y-9380714D01*
X18193095Y-9361667D01*
X18174048Y-9352143D01*
X18145476Y-9352143D01*
X18126429Y-9361667D01*
X18116905Y-9371190D01*
X18326429Y-9485476D02*
X18307381Y-9475952D01*
X18297857Y-9466429D01*
X18288333Y-9447381D01*
X18288333Y-9390238D01*
X18297857Y-9371190D01*
X18307381Y-9361667D01*
X18326429Y-9352143D01*
X18355000Y-9352143D01*
X18374048Y-9361667D01*
X18383571Y-9371190D01*
X18393095Y-9390238D01*
X18393095Y-9447381D01*
X18383571Y-9466429D01*
X18374048Y-9475952D01*
X18355000Y-9485476D01*
X18326429Y-9485476D01*
X18507381Y-9485476D02*
X18488333Y-9475952D01*
X18478810Y-9456905D01*
X18478810Y-9285476D01*
X18659762Y-9475952D02*
X18640714Y-9485476D01*
X18602619Y-9485476D01*
X18583571Y-9475952D01*
X18574048Y-9456905D01*
X18574048Y-9380714D01*
X18583571Y-9361667D01*
X18602619Y-9352143D01*
X18640714Y-9352143D01*
X18659762Y-9361667D01*
X18669286Y-9380714D01*
X18669286Y-9399762D01*
X18574048Y-9418810D01*
X18745476Y-9475952D02*
X18764524Y-9485476D01*
X18802619Y-9485476D01*
X18821667Y-9475952D01*
X18831190Y-9456905D01*
X18831190Y-9447381D01*
X18821667Y-9428333D01*
X18802619Y-9418810D01*
X18774048Y-9418810D01*
X18755000Y-9409286D01*
X18745476Y-9390238D01*
X18745476Y-9380714D01*
X18755000Y-9361667D01*
X18774048Y-9352143D01*
X18802619Y-9352143D01*
X18821667Y-9361667D01*
X18897857Y-9561667D02*
X18907381Y-9552143D01*
X18926429Y-9523571D01*
X18935952Y-9504524D01*
X18945476Y-9475952D01*
X18955000Y-9428333D01*
X18955000Y-9390238D01*
X18945476Y-9342619D01*
X18935952Y-9314048D01*
X18926429Y-9295000D01*
X18907381Y-9266429D01*
X18897857Y-9256905D01*
D12*
X13745000Y-9659000D02*
G75*
G03*
X13745000Y-9659000I-20000J0D01*
G01*
D11*
X14040714Y-9549476D02*
X14059762Y-9549476D01*
X14078809Y-9559000D01*
X14088333Y-9568524D01*
X14097857Y-9587571D01*
X14107381Y-9625667D01*
X14107381Y-9673286D01*
X14097857Y-9711381D01*
X14088333Y-9730429D01*
X14078809Y-9739952D01*
X14059762Y-9749476D01*
X14040714Y-9749476D01*
X14021667Y-9739952D01*
X14012143Y-9730429D01*
X14002619Y-9711381D01*
X13993095Y-9673286D01*
X13993095Y-9625667D01*
X14002619Y-9587571D01*
X14012143Y-9568524D01*
X14021667Y-9559000D01*
X14040714Y-9549476D01*
X14193095Y-9730429D02*
X14202619Y-9739952D01*
X14193095Y-9749476D01*
X14183571Y-9739952D01*
X14193095Y-9730429D01*
X14193095Y-9749476D01*
X14374048Y-9616143D02*
X14374048Y-9749476D01*
X14326428Y-9539952D02*
X14278809Y-9682810D01*
X14402619Y-9682810D01*
X14516905Y-9549476D02*
X14535952Y-9549476D01*
X14555000Y-9559000D01*
X14564524Y-9568524D01*
X14574048Y-9587571D01*
X14583571Y-9625667D01*
X14583571Y-9673286D01*
X14574048Y-9711381D01*
X14564524Y-9730429D01*
X14555000Y-9739952D01*
X14535952Y-9749476D01*
X14516905Y-9749476D01*
X14497857Y-9739952D01*
X14488333Y-9730429D01*
X14478809Y-9711381D01*
X14469286Y-9673286D01*
X14469286Y-9625667D01*
X14478809Y-9587571D01*
X14488333Y-9568524D01*
X14497857Y-9559000D01*
X14516905Y-9549476D01*
X14707381Y-9549476D02*
X14726428Y-9549476D01*
X14745476Y-9559000D01*
X14755000Y-9568524D01*
X14764524Y-9587571D01*
X14774048Y-9625667D01*
X14774048Y-9673286D01*
X14764524Y-9711381D01*
X14755000Y-9730429D01*
X14745476Y-9739952D01*
X14726428Y-9749476D01*
X14707381Y-9749476D01*
X14688333Y-9739952D01*
X14678809Y-9730429D01*
X14669286Y-9711381D01*
X14659762Y-9673286D01*
X14659762Y-9625667D01*
X14669286Y-9587571D01*
X14678809Y-9568524D01*
X14688333Y-9559000D01*
X14707381Y-9549476D01*
X14859762Y-9749476D02*
X14859762Y-9616143D01*
X14859762Y-9635190D02*
X14869286Y-9625667D01*
X14888333Y-9616143D01*
X14916905Y-9616143D01*
X14935952Y-9625667D01*
X14945476Y-9644714D01*
X14945476Y-9749476D01*
X14945476Y-9644714D02*
X14955000Y-9625667D01*
X14974048Y-9616143D01*
X15002619Y-9616143D01*
X15021667Y-9625667D01*
X15031190Y-9644714D01*
X15031190Y-9749476D01*
X15126428Y-9749476D02*
X15126428Y-9616143D01*
X15126428Y-9635190D02*
X15135952Y-9625667D01*
X15155000Y-9616143D01*
X15183571Y-9616143D01*
X15202619Y-9625667D01*
X15212143Y-9644714D01*
X15212143Y-9749476D01*
X15212143Y-9644714D02*
X15221667Y-9625667D01*
X15240714Y-9616143D01*
X15269286Y-9616143D01*
X15288333Y-9625667D01*
X15297857Y-9644714D01*
X15297857Y-9749476D01*
X15688333Y-9539952D02*
X15516905Y-9797095D01*
X15945476Y-9549476D02*
X15964524Y-9549476D01*
X15983571Y-9559000D01*
X15993095Y-9568524D01*
X16002619Y-9587571D01*
X16012143Y-9625667D01*
X16012143Y-9673286D01*
X16002619Y-9711381D01*
X15993095Y-9730429D01*
X15983571Y-9739952D01*
X15964524Y-9749476D01*
X15945476Y-9749476D01*
X15926428Y-9739952D01*
X15916905Y-9730429D01*
X15907381Y-9711381D01*
X15897857Y-9673286D01*
X15897857Y-9625667D01*
X15907381Y-9587571D01*
X15916905Y-9568524D01*
X15926428Y-9559000D01*
X15945476Y-9549476D01*
X16097857Y-9730429D02*
X16107381Y-9739952D01*
X16097857Y-9749476D01*
X16088333Y-9739952D01*
X16097857Y-9730429D01*
X16097857Y-9749476D01*
X16231190Y-9549476D02*
X16250238Y-9549476D01*
X16269286Y-9559000D01*
X16278809Y-9568524D01*
X16288333Y-9587571D01*
X16297857Y-9625667D01*
X16297857Y-9673286D01*
X16288333Y-9711381D01*
X16278809Y-9730429D01*
X16269286Y-9739952D01*
X16250238Y-9749476D01*
X16231190Y-9749476D01*
X16212143Y-9739952D01*
X16202619Y-9730429D01*
X16193095Y-9711381D01*
X16183571Y-9673286D01*
X16183571Y-9625667D01*
X16193095Y-9587571D01*
X16202619Y-9568524D01*
X16212143Y-9559000D01*
X16231190Y-9549476D01*
X16488333Y-9749476D02*
X16374048Y-9749476D01*
X16431190Y-9749476D02*
X16431190Y-9549476D01*
X16412143Y-9578048D01*
X16393095Y-9597095D01*
X16374048Y-9606619D01*
X16669286Y-9549476D02*
X16574048Y-9549476D01*
X16564524Y-9644714D01*
X16574048Y-9635190D01*
X16593095Y-9625667D01*
X16640714Y-9625667D01*
X16659762Y-9635190D01*
X16669286Y-9644714D01*
X16678809Y-9663762D01*
X16678809Y-9711381D01*
X16669286Y-9730429D01*
X16659762Y-9739952D01*
X16640714Y-9749476D01*
X16593095Y-9749476D01*
X16574048Y-9739952D01*
X16564524Y-9730429D01*
X16745476Y-9549476D02*
X16878810Y-9549476D01*
X16793095Y-9749476D01*
X16945476Y-9549476D02*
X16945476Y-9587571D01*
X17021667Y-9549476D02*
X17021667Y-9587571D01*
X17316905Y-9825667D02*
X17307381Y-9816143D01*
X17288333Y-9787571D01*
X17278810Y-9768524D01*
X17269286Y-9739952D01*
X17259762Y-9692333D01*
X17259762Y-9654238D01*
X17269286Y-9606619D01*
X17278810Y-9578048D01*
X17288333Y-9559000D01*
X17307381Y-9530429D01*
X17316905Y-9520905D01*
X17374048Y-9549476D02*
X17497857Y-9549476D01*
X17431190Y-9625667D01*
X17459762Y-9625667D01*
X17478810Y-9635190D01*
X17488333Y-9644714D01*
X17497857Y-9663762D01*
X17497857Y-9711381D01*
X17488333Y-9730429D01*
X17478810Y-9739952D01*
X17459762Y-9749476D01*
X17402619Y-9749476D01*
X17383571Y-9739952D01*
X17374048Y-9730429D01*
X17621667Y-9549476D02*
X17640714Y-9549476D01*
X17659762Y-9559000D01*
X17669286Y-9568524D01*
X17678810Y-9587571D01*
X17688333Y-9625667D01*
X17688333Y-9673286D01*
X17678810Y-9711381D01*
X17669286Y-9730429D01*
X17659762Y-9739952D01*
X17640714Y-9749476D01*
X17621667Y-9749476D01*
X17602619Y-9739952D01*
X17593095Y-9730429D01*
X17583571Y-9711381D01*
X17574048Y-9673286D01*
X17574048Y-9625667D01*
X17583571Y-9587571D01*
X17593095Y-9568524D01*
X17602619Y-9559000D01*
X17621667Y-9549476D01*
X17926429Y-9749476D02*
X17926429Y-9549476D01*
X18012143Y-9749476D02*
X18012143Y-9644714D01*
X18002619Y-9625667D01*
X17983571Y-9616143D01*
X17955000Y-9616143D01*
X17935952Y-9625667D01*
X17926429Y-9635190D01*
X18135952Y-9749476D02*
X18116905Y-9739952D01*
X18107381Y-9730429D01*
X18097857Y-9711381D01*
X18097857Y-9654238D01*
X18107381Y-9635190D01*
X18116905Y-9625667D01*
X18135952Y-9616143D01*
X18164524Y-9616143D01*
X18183571Y-9625667D01*
X18193095Y-9635190D01*
X18202619Y-9654238D01*
X18202619Y-9711381D01*
X18193095Y-9730429D01*
X18183571Y-9739952D01*
X18164524Y-9749476D01*
X18135952Y-9749476D01*
X18316905Y-9749476D02*
X18297857Y-9739952D01*
X18288333Y-9720905D01*
X18288333Y-9549476D01*
X18469286Y-9739952D02*
X18450238Y-9749476D01*
X18412143Y-9749476D01*
X18393095Y-9739952D01*
X18383571Y-9720905D01*
X18383571Y-9644714D01*
X18393095Y-9625667D01*
X18412143Y-9616143D01*
X18450238Y-9616143D01*
X18469286Y-9625667D01*
X18478810Y-9644714D01*
X18478810Y-9663762D01*
X18383571Y-9682810D01*
X18555000Y-9739952D02*
X18574048Y-9749476D01*
X18612143Y-9749476D01*
X18631190Y-9739952D01*
X18640714Y-9720905D01*
X18640714Y-9711381D01*
X18631190Y-9692333D01*
X18612143Y-9682810D01*
X18583571Y-9682810D01*
X18564524Y-9673286D01*
X18555000Y-9654238D01*
X18555000Y-9644714D01*
X18564524Y-9625667D01*
X18583571Y-9616143D01*
X18612143Y-9616143D01*
X18631190Y-9625667D01*
X18707381Y-9825667D02*
X18716905Y-9816143D01*
X18735952Y-9787571D01*
X18745476Y-9768524D01*
X18755000Y-9739952D01*
X18764524Y-9692333D01*
X18764524Y-9654238D01*
X18755000Y-9606619D01*
X18745476Y-9578048D01*
X18735952Y-9559000D01*
X18716905Y-9530429D01*
X18707381Y-9520905D01*
X13645000Y-9823000D02*
X13645000Y-10023000D01*
X13545000Y-9923000D02*
X13745000Y-9923000D01*
X13993095Y-9832524D02*
X14002619Y-9823000D01*
X14021667Y-9813476D01*
X14069286Y-9813476D01*
X14088333Y-9823000D01*
X14097857Y-9832524D01*
X14107381Y-9851571D01*
X14107381Y-9870619D01*
X14097857Y-9899190D01*
X13983571Y-10013476D01*
X14107381Y-10013476D01*
X14193095Y-9994429D02*
X14202619Y-10003952D01*
X14193095Y-10013476D01*
X14183571Y-10003952D01*
X14193095Y-9994429D01*
X14193095Y-10013476D01*
X14326428Y-9813476D02*
X14345476Y-9813476D01*
X14364524Y-9823000D01*
X14374048Y-9832524D01*
X14383571Y-9851571D01*
X14393095Y-9889667D01*
X14393095Y-9937286D01*
X14383571Y-9975381D01*
X14374048Y-9994429D01*
X14364524Y-10003952D01*
X14345476Y-10013476D01*
X14326428Y-10013476D01*
X14307381Y-10003952D01*
X14297857Y-9994429D01*
X14288333Y-9975381D01*
X14278809Y-9937286D01*
X14278809Y-9889667D01*
X14288333Y-9851571D01*
X14297857Y-9832524D01*
X14307381Y-9823000D01*
X14326428Y-9813476D01*
X14516905Y-9813476D02*
X14535952Y-9813476D01*
X14555000Y-9823000D01*
X14564524Y-9832524D01*
X14574048Y-9851571D01*
X14583571Y-9889667D01*
X14583571Y-9937286D01*
X14574048Y-9975381D01*
X14564524Y-9994429D01*
X14555000Y-10003952D01*
X14535952Y-10013476D01*
X14516905Y-10013476D01*
X14497857Y-10003952D01*
X14488333Y-9994429D01*
X14478809Y-9975381D01*
X14469286Y-9937286D01*
X14469286Y-9889667D01*
X14478809Y-9851571D01*
X14488333Y-9832524D01*
X14497857Y-9823000D01*
X14516905Y-9813476D01*
X14707381Y-9813476D02*
X14726428Y-9813476D01*
X14745476Y-9823000D01*
X14755000Y-9832524D01*
X14764524Y-9851571D01*
X14774048Y-9889667D01*
X14774048Y-9937286D01*
X14764524Y-9975381D01*
X14755000Y-9994429D01*
X14745476Y-10003952D01*
X14726428Y-10013476D01*
X14707381Y-10013476D01*
X14688333Y-10003952D01*
X14678809Y-9994429D01*
X14669286Y-9975381D01*
X14659762Y-9937286D01*
X14659762Y-9889667D01*
X14669286Y-9851571D01*
X14678809Y-9832524D01*
X14688333Y-9823000D01*
X14707381Y-9813476D01*
X14859762Y-10013476D02*
X14859762Y-9880143D01*
X14859762Y-9899190D02*
X14869286Y-9889667D01*
X14888333Y-9880143D01*
X14916905Y-9880143D01*
X14935952Y-9889667D01*
X14945476Y-9908714D01*
X14945476Y-10013476D01*
X14945476Y-9908714D02*
X14955000Y-9889667D01*
X14974048Y-9880143D01*
X15002619Y-9880143D01*
X15021667Y-9889667D01*
X15031190Y-9908714D01*
X15031190Y-10013476D01*
X15126428Y-10013476D02*
X15126428Y-9880143D01*
X15126428Y-9899190D02*
X15135952Y-9889667D01*
X15155000Y-9880143D01*
X15183571Y-9880143D01*
X15202619Y-9889667D01*
X15212143Y-9908714D01*
X15212143Y-10013476D01*
X15212143Y-9908714D02*
X15221667Y-9889667D01*
X15240714Y-9880143D01*
X15269286Y-9880143D01*
X15288333Y-9889667D01*
X15297857Y-9908714D01*
X15297857Y-10013476D01*
X15688333Y-9803952D02*
X15516905Y-10061095D01*
X15945476Y-9813476D02*
X15964524Y-9813476D01*
X15983571Y-9823000D01*
X15993095Y-9832524D01*
X16002619Y-9851571D01*
X16012143Y-9889667D01*
X16012143Y-9937286D01*
X16002619Y-9975381D01*
X15993095Y-9994429D01*
X15983571Y-10003952D01*
X15964524Y-10013476D01*
X15945476Y-10013476D01*
X15926428Y-10003952D01*
X15916905Y-9994429D01*
X15907381Y-9975381D01*
X15897857Y-9937286D01*
X15897857Y-9889667D01*
X15907381Y-9851571D01*
X15916905Y-9832524D01*
X15926428Y-9823000D01*
X15945476Y-9813476D01*
X16097857Y-9994429D02*
X16107381Y-10003952D01*
X16097857Y-10013476D01*
X16088333Y-10003952D01*
X16097857Y-9994429D01*
X16097857Y-10013476D01*
X16231190Y-9813476D02*
X16250238Y-9813476D01*
X16269286Y-9823000D01*
X16278809Y-9832524D01*
X16288333Y-9851571D01*
X16297857Y-9889667D01*
X16297857Y-9937286D01*
X16288333Y-9975381D01*
X16278809Y-9994429D01*
X16269286Y-10003952D01*
X16250238Y-10013476D01*
X16231190Y-10013476D01*
X16212143Y-10003952D01*
X16202619Y-9994429D01*
X16193095Y-9975381D01*
X16183571Y-9937286D01*
X16183571Y-9889667D01*
X16193095Y-9851571D01*
X16202619Y-9832524D01*
X16212143Y-9823000D01*
X16231190Y-9813476D01*
X16364524Y-9813476D02*
X16497857Y-9813476D01*
X16412143Y-10013476D01*
X16602619Y-9899190D02*
X16583571Y-9889667D01*
X16574048Y-9880143D01*
X16564524Y-9861095D01*
X16564524Y-9851571D01*
X16574048Y-9832524D01*
X16583571Y-9823000D01*
X16602619Y-9813476D01*
X16640714Y-9813476D01*
X16659762Y-9823000D01*
X16669286Y-9832524D01*
X16678809Y-9851571D01*
X16678809Y-9861095D01*
X16669286Y-9880143D01*
X16659762Y-9889667D01*
X16640714Y-9899190D01*
X16602619Y-9899190D01*
X16583571Y-9908714D01*
X16574048Y-9918238D01*
X16564524Y-9937286D01*
X16564524Y-9975381D01*
X16574048Y-9994429D01*
X16583571Y-10003952D01*
X16602619Y-10013476D01*
X16640714Y-10013476D01*
X16659762Y-10003952D01*
X16669286Y-9994429D01*
X16678809Y-9975381D01*
X16678809Y-9937286D01*
X16669286Y-9918238D01*
X16659762Y-9908714D01*
X16640714Y-9899190D01*
X16745476Y-9813476D02*
X16878810Y-9813476D01*
X16793095Y-10013476D01*
X16945476Y-9813476D02*
X16945476Y-9851571D01*
X17021667Y-9813476D02*
X17021667Y-9851571D01*
X17316905Y-10089667D02*
X17307381Y-10080143D01*
X17288333Y-10051571D01*
X17278810Y-10032524D01*
X17269286Y-10003952D01*
X17259762Y-9956333D01*
X17259762Y-9918238D01*
X17269286Y-9870619D01*
X17278810Y-9842048D01*
X17288333Y-9823000D01*
X17307381Y-9794429D01*
X17316905Y-9784905D01*
X17478810Y-9880143D02*
X17478810Y-10013476D01*
X17431190Y-9803952D02*
X17383571Y-9946810D01*
X17507381Y-9946810D01*
X17735952Y-10013476D02*
X17735952Y-9813476D01*
X17821667Y-10013476D02*
X17821667Y-9908714D01*
X17812143Y-9889667D01*
X17793095Y-9880143D01*
X17764524Y-9880143D01*
X17745476Y-9889667D01*
X17735952Y-9899190D01*
X17945476Y-10013476D02*
X17926429Y-10003952D01*
X17916905Y-9994429D01*
X17907381Y-9975381D01*
X17907381Y-9918238D01*
X17916905Y-9899190D01*
X17926429Y-9889667D01*
X17945476Y-9880143D01*
X17974048Y-9880143D01*
X17993095Y-9889667D01*
X18002619Y-9899190D01*
X18012143Y-9918238D01*
X18012143Y-9975381D01*
X18002619Y-9994429D01*
X17993095Y-10003952D01*
X17974048Y-10013476D01*
X17945476Y-10013476D01*
X18126429Y-10013476D02*
X18107381Y-10003952D01*
X18097857Y-9984905D01*
X18097857Y-9813476D01*
X18278810Y-10003952D02*
X18259762Y-10013476D01*
X18221667Y-10013476D01*
X18202619Y-10003952D01*
X18193095Y-9984905D01*
X18193095Y-9908714D01*
X18202619Y-9889667D01*
X18221667Y-9880143D01*
X18259762Y-9880143D01*
X18278810Y-9889667D01*
X18288333Y-9908714D01*
X18288333Y-9927762D01*
X18193095Y-9946810D01*
X18364524Y-10003952D02*
X18383571Y-10013476D01*
X18421667Y-10013476D01*
X18440714Y-10003952D01*
X18450238Y-9984905D01*
X18450238Y-9975381D01*
X18440714Y-9956333D01*
X18421667Y-9946810D01*
X18393095Y-9946810D01*
X18374048Y-9937286D01*
X18364524Y-9918238D01*
X18364524Y-9908714D01*
X18374048Y-9889667D01*
X18393095Y-9880143D01*
X18421667Y-9880143D01*
X18440714Y-9889667D01*
X18516905Y-10089667D02*
X18526429Y-10080143D01*
X18545476Y-10051571D01*
X18555000Y-10032524D01*
X18564524Y-10003952D01*
X18574048Y-9956333D01*
X18574048Y-9918238D01*
X18564524Y-9870619D01*
X18555000Y-9842048D01*
X18545476Y-9823000D01*
X18526429Y-9794429D01*
X18516905Y-9784905D01*
M02*
