M48
; DRILL file {KiCad 6.0.1-79c1e3a40b~116~ubuntu20.04.1} date Sat 29 Jan 2022 12:04:32 CET
; FORMAT={-:-/ absolute / metric / decimal}
; #@! TF.CreationDate,2022-01-29T12:04:32+01:00
; #@! TF.GenerationSoftware,Kicad,Pcbnew,6.0.1-79c1e3a40b~116~ubuntu20.04.1
; #@! TF.FileFunction,Plated,1,2,PTH
FMAT,2
METRIC
; #@! TA.AperFunction,Plated,PTH,ViaDrill
T1C0.400
; #@! TA.AperFunction,Plated,PTH,ComponentDrill
T2C0.400
; #@! TA.AperFunction,Plated,PTH,ComponentDrill
T3C2.200
%
G90
G05
T1
X152.5Y-80.0
X152.5Y-82.5
X152.5Y-87.5
X152.5Y-90.0
X153.0Y-83.5
X153.0Y-86.5
X153.5Y-84.0
X153.5Y-86.0
X154.0Y-83.5
X154.0Y-86.5
X154.5Y-84.0
X154.5Y-86.0
X154.5Y-87.0
X155.0Y-77.5
X155.0Y-80.0
X155.0Y-82.5
X155.0Y-83.5
X155.0Y-86.5
X155.0Y-87.5
X155.0Y-90.0
X155.0Y-92.5
X155.5Y-84.0
X155.5Y-87.0
X156.0Y-83.5
X156.0Y-86.5
X156.0Y-87.5
X156.5Y-84.0
X156.5Y-87.0
X157.0Y-83.5
X157.0Y-87.5
X157.5Y-77.5
X157.5Y-80.0
X157.5Y-82.5
X157.5Y-84.0
X157.5Y-87.0
X157.5Y-88.0
X157.5Y-89.0
X157.5Y-90.0
X157.5Y-92.5
X158.0Y-83.5
X158.0Y-84.5
X158.0Y-87.5
X158.0Y-88.5
X158.0Y-89.5
X158.0Y-90.5
X158.5Y-84.0
X158.5Y-85.0
X158.5Y-89.0
X158.5Y-90.0
X158.5Y-91.0
X158.5Y-92.0
X159.0Y-84.5
X159.0Y-85.5
X159.0Y-90.5
X159.0Y-91.5
X159.5Y-85.0
X159.5Y-86.0
X160.0Y-82.5
X160.0Y-85.5
X160.0Y-86.5
X160.5Y-86.0
X160.5Y-87.0
X161.0Y-86.5
X161.0Y-87.5
X161.0Y-88.5
X161.0Y-89.5
X161.0Y-90.5
X161.0Y-91.5
X161.5Y-87.0
X161.5Y-88.0
X161.5Y-89.0
X161.5Y-90.0
X161.5Y-91.0
X161.5Y-92.0
X162.5Y-77.5
X162.5Y-80.0
X162.5Y-82.5
X162.5Y-85.0
X162.5Y-87.5
X162.5Y-90.0
X162.5Y-92.5
X165.0Y-77.5
X165.0Y-80.0
X165.0Y-82.5
X165.0Y-85.0
X165.0Y-87.5
X165.0Y-90.0
X165.0Y-92.5
X167.5Y-80.0
X167.5Y-82.5
X167.5Y-85.0
X167.5Y-87.5
X167.5Y-90.0
T2
X150.5Y-84.0
X150.5Y-86.0
X151.0Y-83.5
X151.0Y-86.5
X151.5Y-84.0
X151.5Y-86.0
X152.0Y-83.5
X152.0Y-86.5
X152.5Y-84.0
X152.5Y-86.0
X158.5Y-93.0
X158.5Y-94.0
X159.0Y-92.5
X159.0Y-93.5
X159.0Y-94.5
X161.0Y-92.5
X161.0Y-93.5
X161.0Y-94.5
X161.5Y-93.0
X161.5Y-94.0
T3
X152.5Y-77.5
X152.5Y-92.5
X167.5Y-77.5
X167.5Y-92.5
T0
M30
