%TF.GenerationSoftware,KiCad,Pcbnew,6.0.1-79c1e3a40b~116~ubuntu20.04.1*%
%TF.CreationDate,2022-01-29T12:04:30+01:00*%
%TF.ProjectId,pcb-turn-45,7063622d-7475-4726-9e2d-34352e6b6963,1*%
%TF.SameCoordinates,Original*%
%TF.FileFunction,Legend,Top*%
%TF.FilePolarity,Positive*%
%FSLAX46Y46*%
G04 Gerber Fmt 4.6, Leading zero omitted, Abs format (unit mm)*
G04 Created by KiCad (PCBNEW 6.0.1-79c1e3a40b~116~ubuntu20.04.1) date 2022-01-29 12:04:30*
%MOMM*%
%LPD*%
G01*
G04 APERTURE LIST*
%ADD10C,0.150000*%
G04 APERTURE END LIST*
D10*
X167952380Y-86000000D02*
X167952380Y-85904761D01*
X168000000Y-85809523D01*
X168047619Y-85761904D01*
X168142857Y-85714285D01*
X168333333Y-85666666D01*
X168571428Y-85666666D01*
X168761904Y-85714285D01*
X168857142Y-85761904D01*
X168904761Y-85809523D01*
X168952380Y-85904761D01*
X168952380Y-86000000D01*
X168904761Y-86095238D01*
X168857142Y-86142857D01*
X168761904Y-86190476D01*
X168571428Y-86238095D01*
X168333333Y-86238095D01*
X168142857Y-86190476D01*
X168047619Y-86142857D01*
X168000000Y-86095238D01*
X167952380Y-86000000D01*
X167952380Y-85047619D02*
X167952380Y-84952380D01*
X168000000Y-84857142D01*
X168047619Y-84809523D01*
X168142857Y-84761904D01*
X168333333Y-84714285D01*
X168571428Y-84714285D01*
X168761904Y-84761904D01*
X168857142Y-84809523D01*
X168904761Y-84857142D01*
X168952380Y-84952380D01*
X168952380Y-85047619D01*
X168904761Y-85142857D01*
X168857142Y-85190476D01*
X168761904Y-85238095D01*
X168571428Y-85285714D01*
X168333333Y-85285714D01*
X168142857Y-85238095D01*
X168047619Y-85190476D01*
X168000000Y-85142857D01*
X167952380Y-85047619D01*
X168285714Y-83857142D02*
X168952380Y-83857142D01*
X167904761Y-84095238D02*
X168619047Y-84333333D01*
X168619047Y-83714285D01*
M02*
