%TF.GenerationSoftware,KiCad,Pcbnew,6.0.9+dfsg-1~bpo11+1*%
%TF.CreationDate,2022-11-06T14:45:48+01:00*%
%TF.ProjectId,pcb-turn-45,7063622d-7475-4726-9e2d-34352e6b6963,2*%
%TF.SameCoordinates,Original*%
%TF.FileFunction,Copper,L1,Top*%
%TF.FilePolarity,Positive*%
%FSLAX46Y46*%
G04 Gerber Fmt 4.6, Leading zero omitted, Abs format (unit mm)*
G04 Created by KiCad (PCBNEW 6.0.9+dfsg-1~bpo11+1) date 2022-11-06 14:45:48*
%MOMM*%
%LPD*%
G01*
G04 APERTURE LIST*
%TA.AperFunction,ComponentPad*%
%ADD10C,3.400000*%
%TD*%
%TA.AperFunction,SMDPad,CuDef*%
%ADD11R,3.000000X0.800000*%
%TD*%
%TA.AperFunction,ComponentPad*%
%ADD12C,0.800000*%
%TD*%
%TA.AperFunction,SMDPad,CuDef*%
%ADD13R,3.000000X2.000000*%
%TD*%
%TA.AperFunction,SMDPad,CuDef*%
%ADD14R,0.800000X3.000000*%
%TD*%
%TA.AperFunction,SMDPad,CuDef*%
%ADD15R,2.000000X3.000000*%
%TD*%
%TA.AperFunction,ViaPad*%
%ADD16C,0.800000*%
%TD*%
%TA.AperFunction,Conductor*%
%ADD17C,0.800000*%
%TD*%
G04 APERTURE END LIST*
%TO.C,G\u002A\u002A\u002A*%
G36*
X161707208Y-76114917D02*
G01*
X161721780Y-76122643D01*
X161727638Y-76138791D01*
X161724986Y-76166038D01*
X161714028Y-76207062D01*
X161695246Y-76263741D01*
X161678860Y-76310446D01*
X161664665Y-76349625D01*
X161654112Y-76377364D01*
X161648650Y-76389745D01*
X161648486Y-76389946D01*
X161654138Y-76397178D01*
X161673545Y-76411565D01*
X161702518Y-76430004D01*
X161702794Y-76430170D01*
X161765684Y-76473854D01*
X161813512Y-76519631D01*
X161845324Y-76565750D01*
X161860162Y-76610459D01*
X161857070Y-76652007D01*
X161840520Y-76682445D01*
X161820991Y-76706562D01*
X161877555Y-76740636D01*
X161917737Y-76766699D01*
X161959250Y-76796467D01*
X161980607Y-76813250D01*
X162006661Y-76835927D01*
X162019745Y-76852611D01*
X162023211Y-76869984D01*
X162020661Y-76893124D01*
X162015636Y-76932872D01*
X162012184Y-76973169D01*
X162012056Y-76975472D01*
X162006709Y-77006817D01*
X161992958Y-77024471D01*
X161987295Y-77027764D01*
X161964024Y-77044266D01*
X161944294Y-77064253D01*
X161934232Y-77075038D01*
X161921977Y-77082474D01*
X161903462Y-77087419D01*
X161874622Y-77090732D01*
X161831391Y-77093272D01*
X161800502Y-77094630D01*
X161740844Y-77098231D01*
X161695936Y-77103279D01*
X161668140Y-77109464D01*
X161661407Y-77112879D01*
X161649381Y-77131376D01*
X161640328Y-77159745D01*
X161639450Y-77164547D01*
X161632091Y-77190629D01*
X161617507Y-77228695D01*
X161598200Y-77272492D01*
X161586787Y-77296135D01*
X161569617Y-77331648D01*
X161556241Y-77363117D01*
X161545437Y-77394981D01*
X161535983Y-77431679D01*
X161526657Y-77477652D01*
X161516238Y-77537340D01*
X161510003Y-77575142D01*
X161498611Y-77650475D01*
X161487513Y-77733726D01*
X161477703Y-77816757D01*
X161470177Y-77891427D01*
X161467711Y-77921318D01*
X161453479Y-78070850D01*
X161434101Y-78203435D01*
X161409013Y-78322278D01*
X161378053Y-78429366D01*
X161349141Y-78507130D01*
X161316299Y-78574946D01*
X161276020Y-78638510D01*
X161224798Y-78703520D01*
X161175643Y-78758199D01*
X161077329Y-78875280D01*
X160993806Y-79001629D01*
X160931364Y-79121186D01*
X160903186Y-79177903D01*
X160877811Y-79220375D01*
X160851675Y-79254018D01*
X160828482Y-79277604D01*
X160800811Y-79302117D01*
X160778251Y-79319713D01*
X160765568Y-79326682D01*
X160765395Y-79326688D01*
X160753451Y-79333218D01*
X160741919Y-79353767D01*
X160730392Y-79389773D01*
X160718459Y-79442674D01*
X160705712Y-79513910D01*
X160697702Y-79564739D01*
X160682935Y-79657753D01*
X160668702Y-79736626D01*
X160653537Y-79807789D01*
X160635974Y-79877671D01*
X160614550Y-79952702D01*
X160594147Y-80019151D01*
X160573662Y-80088767D01*
X160559937Y-80148459D01*
X160552673Y-80203792D01*
X160551572Y-80260332D01*
X160556334Y-80323643D01*
X160566662Y-80399292D01*
X160571976Y-80432384D01*
X160581863Y-80493891D01*
X160591097Y-80554175D01*
X160598842Y-80607582D01*
X160604263Y-80648460D01*
X160605561Y-80659723D01*
X160612893Y-80704728D01*
X160626368Y-80741894D01*
X160650004Y-80781963D01*
X160652923Y-80786310D01*
X160693121Y-80845728D01*
X160391035Y-80845728D01*
X160398018Y-80812144D01*
X160406666Y-80782384D01*
X160417092Y-80759536D01*
X160421952Y-80745992D01*
X160419574Y-80727580D01*
X160408787Y-80699446D01*
X160396054Y-80672292D01*
X160376050Y-80626603D01*
X160359018Y-80576762D01*
X160343853Y-80518573D01*
X160329451Y-80447840D01*
X160315851Y-80367612D01*
X160305774Y-80315487D01*
X160290904Y-80252618D01*
X160273420Y-80187715D01*
X160259042Y-80140272D01*
X160239373Y-80077432D01*
X160224185Y-80023154D01*
X160212556Y-79972312D01*
X160203565Y-79919774D01*
X160196290Y-79860411D01*
X160189810Y-79789094D01*
X160185282Y-79729699D01*
X160180007Y-79626544D01*
X160179205Y-79527802D01*
X160182780Y-79438429D01*
X160190634Y-79363381D01*
X160192649Y-79350881D01*
X160198285Y-79318238D01*
X160013062Y-79323960D01*
X159892262Y-79325480D01*
X159787165Y-79321724D01*
X159693384Y-79312274D01*
X159606532Y-79296713D01*
X159535335Y-79278501D01*
X159428868Y-79239636D01*
X159339540Y-79189590D01*
X159266909Y-79128052D01*
X159210536Y-79054711D01*
X159204435Y-79044391D01*
X159175907Y-78994600D01*
X159168639Y-79023556D01*
X159148777Y-79080742D01*
X159118034Y-79143838D01*
X159080847Y-79204875D01*
X159041648Y-79255885D01*
X159035826Y-79262224D01*
X159001823Y-79299253D01*
X158979015Y-79328535D01*
X158963853Y-79356807D01*
X158952786Y-79390804D01*
X158942267Y-79437262D01*
X158941407Y-79441406D01*
X158922253Y-79514043D01*
X158895078Y-79580397D01*
X158857410Y-79644725D01*
X158806775Y-79711286D01*
X158744562Y-79780306D01*
X158700655Y-79827086D01*
X158669096Y-79863066D01*
X158647302Y-79891736D01*
X158632691Y-79916586D01*
X158622679Y-79941105D01*
X158620484Y-79947943D01*
X158606617Y-80010336D01*
X158598490Y-80083767D01*
X158596652Y-80159269D01*
X158601650Y-80227875D01*
X158602867Y-80236045D01*
X158621849Y-80352191D01*
X158638653Y-80449249D01*
X158653608Y-80528646D01*
X158667045Y-80591809D01*
X158679292Y-80640166D01*
X158690680Y-80675143D01*
X158701537Y-80698166D01*
X158712194Y-80710664D01*
X158712536Y-80710907D01*
X158743036Y-80736176D01*
X158770562Y-80765811D01*
X158789476Y-80793348D01*
X158793891Y-80804120D01*
X158795244Y-80813632D01*
X158790936Y-80819721D01*
X158777416Y-80823146D01*
X158751136Y-80824671D01*
X158708547Y-80825054D01*
X158696219Y-80825061D01*
X158593072Y-80825061D01*
X158595449Y-80796643D01*
X158593369Y-80778430D01*
X158582341Y-80757689D01*
X158559769Y-80730433D01*
X158536582Y-80706224D01*
X158493768Y-80657147D01*
X158454802Y-80599598D01*
X158418211Y-80530726D01*
X158382517Y-80447679D01*
X158346246Y-80347608D01*
X158337706Y-80322003D01*
X158302894Y-80210358D01*
X158277616Y-80113609D01*
X158261922Y-80028285D01*
X158255862Y-79950921D01*
X158259487Y-79878048D01*
X158272846Y-79806198D01*
X158295988Y-79731903D01*
X158328964Y-79651696D01*
X158347925Y-79610862D01*
X158363244Y-79577573D01*
X158373181Y-79550567D01*
X158378868Y-79523669D01*
X158381433Y-79490701D01*
X158382007Y-79445488D01*
X158381942Y-79424857D01*
X158374037Y-79313717D01*
X158351457Y-79189349D01*
X158314436Y-79052839D01*
X158279648Y-78949512D01*
X158261521Y-78895325D01*
X158244501Y-78837402D01*
X158231243Y-78785050D01*
X158227106Y-78765233D01*
X158214411Y-78708368D01*
X158200643Y-78665227D01*
X158186695Y-78637191D01*
X158173461Y-78625643D01*
X158161834Y-78631965D01*
X158153974Y-78652044D01*
X158149203Y-78668673D01*
X158144810Y-78670196D01*
X158137896Y-78654900D01*
X158132125Y-78639127D01*
X158121228Y-78590843D01*
X158117240Y-78530839D01*
X158119967Y-78466803D01*
X158129216Y-78406422D01*
X158138838Y-78372197D01*
X158186099Y-78269316D01*
X158251074Y-78175424D01*
X158332531Y-78091243D01*
X158429242Y-78017494D01*
X158539977Y-77954898D01*
X158663509Y-77904178D01*
X158798607Y-77866054D01*
X158944042Y-77841248D01*
X159059642Y-77831795D01*
X159147425Y-77829758D01*
X159231499Y-77832317D01*
X159316776Y-77840018D01*
X159408169Y-77853405D01*
X159510590Y-77873023D01*
X159591711Y-77890808D01*
X159687807Y-77912345D01*
X159767579Y-77929200D01*
X159834708Y-77941879D01*
X159892875Y-77950889D01*
X159945762Y-77956737D01*
X159997049Y-77959929D01*
X160050417Y-77960973D01*
X160098629Y-77960575D01*
X160154738Y-77959915D01*
X160199013Y-77960589D01*
X160237320Y-77963316D01*
X160275528Y-77968818D01*
X160319505Y-77977819D01*
X160375120Y-77991038D01*
X160403604Y-77998082D01*
X160475622Y-78015214D01*
X160531279Y-78026183D01*
X160573946Y-78030976D01*
X160606992Y-78029581D01*
X160633788Y-78021987D01*
X160657703Y-78008180D01*
X160671833Y-77997109D01*
X160692889Y-77976673D01*
X160710733Y-77952129D01*
X160726651Y-77920341D01*
X160741925Y-77878173D01*
X160757840Y-77822489D01*
X160775680Y-77750153D01*
X160779346Y-77734469D01*
X160796905Y-77662770D01*
X160818065Y-77582312D01*
X160840306Y-77502374D01*
X160861109Y-77432234D01*
X160863452Y-77424717D01*
X160878978Y-77374113D01*
X160891303Y-77330295D01*
X160901226Y-77288944D01*
X160909547Y-77245741D01*
X160917065Y-77196365D01*
X160924579Y-77136498D01*
X160932889Y-77061819D01*
X160936002Y-77032628D01*
X160947098Y-76930493D01*
X160956972Y-76846407D01*
X160966097Y-76777821D01*
X160974945Y-76722188D01*
X160983991Y-76676957D01*
X160993707Y-76639582D01*
X161004567Y-76607513D01*
X161017044Y-76578202D01*
X161022488Y-76566892D01*
X161043227Y-76527695D01*
X161064341Y-76495534D01*
X161089403Y-76466760D01*
X161121983Y-76437721D01*
X161165654Y-76404766D01*
X161214198Y-76370923D01*
X161263880Y-76334968D01*
X161315539Y-76294307D01*
X161361923Y-76254795D01*
X161386890Y-76231435D01*
X161418275Y-76202043D01*
X161445322Y-76179904D01*
X161464140Y-76168049D01*
X161469559Y-76167005D01*
X161483132Y-76181623D01*
X161484744Y-76211606D01*
X161474416Y-76255478D01*
X161468097Y-76273543D01*
X161456615Y-76305332D01*
X161448850Y-76328941D01*
X161446704Y-76337728D01*
X161453034Y-76335813D01*
X161469982Y-76321540D01*
X161494485Y-76298042D01*
X161523480Y-76268450D01*
X161553903Y-76235896D01*
X161582693Y-76203515D01*
X161606785Y-76174437D01*
X161608411Y-76172355D01*
X161635607Y-76139612D01*
X161656294Y-76121160D01*
X161674724Y-76113645D01*
X161683716Y-76112937D01*
X161707208Y-76114917D01*
G37*
%TD*%
D10*
%TO.P,H1,1,1*%
%TO.N,GND*%
X152500000Y-77500000D03*
%TD*%
%TO.P,H2,1,1*%
%TO.N,GND*%
X152500000Y-92500000D03*
%TD*%
%TO.P,H4,1,1*%
%TO.N,GND*%
X167500000Y-77500000D03*
%TD*%
D11*
%TO.P,J2,1,Pin_1*%
%TO.N,Net-(J1-Pad1)*%
X151500000Y-85000000D03*
D12*
%TO.P,J2,2,Pin_2*%
%TO.N,GND*%
X152000000Y-83500000D03*
X151000000Y-83500000D03*
X150500000Y-86000000D03*
X152500000Y-86000000D03*
X150500000Y-84000000D03*
D13*
X151500000Y-86600000D03*
X151500000Y-83400000D03*
D12*
X152000000Y-86500000D03*
X151000000Y-86500000D03*
X151500000Y-86000000D03*
X152500000Y-84000000D03*
X151500000Y-84000000D03*
%TD*%
D10*
%TO.P,H3,1,1*%
%TO.N,GND*%
X167500000Y-92500000D03*
%TD*%
D14*
%TO.P,J1,1,Pin_1*%
%TO.N,Net-(J1-Pad1)*%
X160000000Y-93500000D03*
D12*
%TO.P,J1,2,Pin_2*%
%TO.N,GND*%
X158500000Y-93000000D03*
X158500000Y-94000000D03*
X161000000Y-94500000D03*
X161000000Y-92500000D03*
X159000000Y-94500000D03*
D15*
X161600000Y-93500000D03*
X158400000Y-93500000D03*
D12*
X161500000Y-93000000D03*
X161500000Y-94000000D03*
X161000000Y-93500000D03*
X159000000Y-92500000D03*
X159000000Y-93500000D03*
%TD*%
D16*
%TO.N,GND*%
X155000000Y-87500000D03*
X157500000Y-80000000D03*
X165000000Y-87500000D03*
X160000000Y-86500000D03*
X161000000Y-87500000D03*
X156000000Y-86500000D03*
X161500000Y-88000000D03*
X167500000Y-82500000D03*
X161000000Y-86500000D03*
X167500000Y-90000000D03*
X158000000Y-88500000D03*
X167500000Y-87500000D03*
X158500000Y-92000000D03*
X158500000Y-89000000D03*
X158000000Y-90500000D03*
X159000000Y-84500000D03*
X157500000Y-92500000D03*
X157500000Y-90000000D03*
X158500000Y-91000000D03*
X162500000Y-92500000D03*
X162500000Y-85000000D03*
X158000000Y-87500000D03*
X154000000Y-83500000D03*
X159500000Y-86000000D03*
X165000000Y-92500000D03*
X160500000Y-87000000D03*
X167500000Y-85000000D03*
X161000000Y-89500000D03*
X158500000Y-84000000D03*
X158000000Y-84500000D03*
X161500000Y-90000000D03*
X153000000Y-86500000D03*
X156000000Y-87500000D03*
X156000000Y-83500000D03*
X165000000Y-90000000D03*
X155500000Y-87000000D03*
X155500000Y-84000000D03*
X159000000Y-85500000D03*
X160000000Y-85500000D03*
X159000000Y-91500000D03*
X167500000Y-80000000D03*
X161500000Y-87000000D03*
X165000000Y-82500000D03*
X160000000Y-82500000D03*
X158500000Y-85000000D03*
X154500000Y-84000000D03*
X157000000Y-87500000D03*
X157500000Y-88000000D03*
X152500000Y-82500000D03*
X161000000Y-91500000D03*
X162500000Y-87500000D03*
X158000000Y-83500000D03*
X154500000Y-87000000D03*
X159500000Y-85000000D03*
X157500000Y-77500000D03*
X156500000Y-87000000D03*
X161500000Y-91000000D03*
X165000000Y-85000000D03*
X153500000Y-84000000D03*
X152500000Y-90000000D03*
X165000000Y-77500000D03*
X154500000Y-86000000D03*
X155000000Y-82500000D03*
X158500000Y-90000000D03*
X154000000Y-86500000D03*
X161000000Y-88500000D03*
X161500000Y-89000000D03*
X157500000Y-87000000D03*
X153000000Y-83500000D03*
X161000000Y-90500000D03*
X161500000Y-92000000D03*
X162500000Y-82500000D03*
X152500000Y-80000000D03*
X159000000Y-90500000D03*
X162500000Y-90000000D03*
X155000000Y-92500000D03*
X165000000Y-80000000D03*
X157500000Y-82500000D03*
X155000000Y-80000000D03*
X162500000Y-80000000D03*
X155000000Y-77500000D03*
X155000000Y-90000000D03*
X157500000Y-89000000D03*
X162500000Y-77500000D03*
X158000000Y-89500000D03*
X155000000Y-83500000D03*
X157000000Y-83500000D03*
X156500000Y-84000000D03*
X157500000Y-84000000D03*
X155000000Y-86500000D03*
X152500000Y-87500000D03*
X160500000Y-86000000D03*
X153500000Y-86000000D03*
%TD*%
D17*
%TO.N,Net-(J1-Pad1)*%
X160000000Y-90000000D02*
X160000000Y-93500000D01*
X151500000Y-85000000D02*
X155000000Y-85000000D01*
X155000000Y-85000000D02*
G75*
G02*
X160000000Y-90000000I0J-5000000D01*
G01*
%TD*%
%TA.AperFunction,Conductor*%
%TO.N,GND*%
G36*
X154967072Y-85601347D02*
G01*
X155000000Y-85605682D01*
X155020418Y-85602994D01*
X155037912Y-85602253D01*
X155093763Y-85604835D01*
X155401359Y-85619055D01*
X155410455Y-85619898D01*
X155699508Y-85660219D01*
X155803882Y-85674779D01*
X155812872Y-85676460D01*
X156199526Y-85767400D01*
X156208311Y-85769899D01*
X156584947Y-85896135D01*
X156593467Y-85899436D01*
X156956837Y-86059881D01*
X156965023Y-86063956D01*
X157194043Y-86191519D01*
X157312050Y-86257248D01*
X157319813Y-86262056D01*
X157460647Y-86358529D01*
X157647513Y-86486535D01*
X157654811Y-86492046D01*
X157960398Y-86745802D01*
X157967156Y-86751962D01*
X158248038Y-87032844D01*
X158254198Y-87039602D01*
X158507954Y-87345189D01*
X158513465Y-87352487D01*
X158585216Y-87457230D01*
X158737941Y-87680182D01*
X158742755Y-87687956D01*
X158936044Y-88034977D01*
X158940119Y-88043163D01*
X159100564Y-88406533D01*
X159103865Y-88415053D01*
X159196548Y-88691581D01*
X159230099Y-88791684D01*
X159232601Y-88800479D01*
X159323540Y-89187130D01*
X159325221Y-89196118D01*
X159380102Y-89589540D01*
X159380945Y-89598646D01*
X159397747Y-89962088D01*
X159397006Y-89979582D01*
X159394318Y-90000000D01*
X159395165Y-90006433D01*
X159398653Y-90032927D01*
X159399500Y-90045849D01*
X159399500Y-94700500D01*
X159380593Y-94758691D01*
X159331093Y-94794655D01*
X159300500Y-94799500D01*
X152534017Y-94799500D01*
X152511831Y-94796982D01*
X152511801Y-94796975D01*
X152500359Y-94794344D01*
X152489483Y-94796805D01*
X152478336Y-94796786D01*
X152478336Y-94796757D01*
X152468228Y-94797578D01*
X152338014Y-94789702D01*
X152228796Y-94783095D01*
X152216944Y-94781656D01*
X151955578Y-94733759D01*
X151943985Y-94730902D01*
X151690305Y-94651852D01*
X151679127Y-94647613D01*
X151436830Y-94538564D01*
X151426244Y-94533008D01*
X151198858Y-94395548D01*
X151189020Y-94388757D01*
X150979868Y-94224897D01*
X150970919Y-94216970D01*
X150783030Y-94029081D01*
X150775103Y-94020132D01*
X150611243Y-93810980D01*
X150604452Y-93801142D01*
X150466992Y-93573756D01*
X150461436Y-93563170D01*
X150352387Y-93320873D01*
X150348148Y-93309695D01*
X150269100Y-93056023D01*
X150266239Y-93044415D01*
X150218344Y-92783056D01*
X150216904Y-92771197D01*
X150202469Y-92532548D01*
X150204207Y-92511810D01*
X150203747Y-92511757D01*
X150204389Y-92506179D01*
X150205655Y-92500718D01*
X150205656Y-92500000D01*
X150204412Y-92494545D01*
X150202980Y-92488266D01*
X150200500Y-92466248D01*
X150200500Y-85699500D01*
X150219407Y-85641309D01*
X150268907Y-85605345D01*
X150299500Y-85600500D01*
X154954151Y-85600500D01*
X154967072Y-85601347D01*
G37*
%TD.AperFunction*%
%TA.AperFunction,Conductor*%
G36*
X167488169Y-75203018D02*
G01*
X167499641Y-75205656D01*
X167510517Y-75203195D01*
X167521664Y-75203214D01*
X167521664Y-75203243D01*
X167531772Y-75202422D01*
X167661986Y-75210298D01*
X167771204Y-75216905D01*
X167783056Y-75218344D01*
X168044422Y-75266241D01*
X168056015Y-75269098D01*
X168262244Y-75333361D01*
X168309695Y-75348148D01*
X168320873Y-75352387D01*
X168563170Y-75461436D01*
X168573756Y-75466992D01*
X168801142Y-75604452D01*
X168810980Y-75611243D01*
X169020132Y-75775103D01*
X169029081Y-75783030D01*
X169216970Y-75970919D01*
X169224897Y-75979868D01*
X169388757Y-76189020D01*
X169395548Y-76198858D01*
X169522465Y-76408803D01*
X169533008Y-76426244D01*
X169538563Y-76436827D01*
X169574812Y-76517369D01*
X169647613Y-76679127D01*
X169651852Y-76690305D01*
X169657694Y-76709053D01*
X169726701Y-76930501D01*
X169730900Y-76943977D01*
X169733759Y-76955578D01*
X169781655Y-77216936D01*
X169783095Y-77228796D01*
X169792432Y-77383149D01*
X169797547Y-77467712D01*
X169796724Y-77477628D01*
X169796862Y-77477628D01*
X169796842Y-77488776D01*
X169794344Y-77499641D01*
X169796804Y-77510513D01*
X169797059Y-77511638D01*
X169799500Y-77533488D01*
X169799500Y-92465983D01*
X169796982Y-92488169D01*
X169794344Y-92499641D01*
X169796805Y-92510517D01*
X169796786Y-92521664D01*
X169796757Y-92521664D01*
X169797578Y-92531772D01*
X169783096Y-92771197D01*
X169781656Y-92783056D01*
X169733761Y-93044415D01*
X169730900Y-93056023D01*
X169651852Y-93309695D01*
X169647613Y-93320873D01*
X169538564Y-93563170D01*
X169533008Y-93573756D01*
X169395548Y-93801142D01*
X169388757Y-93810980D01*
X169224897Y-94020132D01*
X169216970Y-94029081D01*
X169029081Y-94216970D01*
X169020132Y-94224897D01*
X168810980Y-94388757D01*
X168801142Y-94395548D01*
X168573756Y-94533008D01*
X168563170Y-94538564D01*
X168320873Y-94647613D01*
X168309695Y-94651852D01*
X168056015Y-94730902D01*
X168044422Y-94733759D01*
X167783056Y-94781656D01*
X167771204Y-94783095D01*
X167532288Y-94797547D01*
X167522372Y-94796724D01*
X167522372Y-94796862D01*
X167511224Y-94796842D01*
X167500359Y-94794344D01*
X167488359Y-94797059D01*
X167466512Y-94799500D01*
X160699500Y-94799500D01*
X160641309Y-94780593D01*
X160605345Y-94731093D01*
X160600500Y-94700500D01*
X160600500Y-90045849D01*
X160601347Y-90032927D01*
X160604835Y-90006433D01*
X160605682Y-90000000D01*
X160604835Y-89993565D01*
X160604835Y-89992693D01*
X160604277Y-89986153D01*
X160604019Y-89979582D01*
X160587543Y-89560251D01*
X160535816Y-89123213D01*
X160449959Y-88691581D01*
X160330502Y-88268015D01*
X160178179Y-87855128D01*
X160101112Y-87687956D01*
X159994746Y-87457230D01*
X159994743Y-87457223D01*
X159993932Y-87455465D01*
X159934146Y-87348709D01*
X159779845Y-87073185D01*
X159779843Y-87073181D01*
X159778895Y-87071489D01*
X159534395Y-86705569D01*
X159261939Y-86359960D01*
X158963207Y-86036793D01*
X158640040Y-85738061D01*
X158294431Y-85465605D01*
X157928511Y-85221105D01*
X157544535Y-85006068D01*
X157542777Y-85005257D01*
X157542770Y-85005254D01*
X157146644Y-84822638D01*
X157144872Y-84821821D01*
X156731985Y-84669498D01*
X156730128Y-84668974D01*
X156730121Y-84668972D01*
X156310288Y-84550568D01*
X156310285Y-84550567D01*
X156308419Y-84550041D01*
X156306532Y-84549666D01*
X156306521Y-84549663D01*
X156091340Y-84506861D01*
X155876787Y-84464184D01*
X155439749Y-84412457D01*
X155013842Y-84395723D01*
X155007307Y-84395165D01*
X155006435Y-84395165D01*
X155000000Y-84394318D01*
X154967073Y-84398653D01*
X154954151Y-84399500D01*
X150299500Y-84399500D01*
X150241309Y-84380593D01*
X150205345Y-84331093D01*
X150200500Y-84300500D01*
X150200500Y-78521404D01*
X157915671Y-78521404D01*
X157916042Y-78526986D01*
X157916042Y-78526988D01*
X157916099Y-78527842D01*
X157916227Y-78538623D01*
X157915960Y-78544891D01*
X157916965Y-78550358D01*
X157916983Y-78550621D01*
X157918332Y-78561436D01*
X157920254Y-78590353D01*
X157920465Y-78593534D01*
X157920682Y-78600498D01*
X157920632Y-78612761D01*
X157921863Y-78618215D01*
X157922007Y-78619529D01*
X157922300Y-78621156D01*
X157922668Y-78626692D01*
X157924259Y-78632009D01*
X157924259Y-78632012D01*
X157926209Y-78638530D01*
X157927929Y-78645092D01*
X157930722Y-78657468D01*
X157933324Y-78668997D01*
X157934982Y-78678471D01*
X157935307Y-78681061D01*
X157935308Y-78681065D01*
X157936005Y-78686625D01*
X157937930Y-78691885D01*
X157938596Y-78694635D01*
X157939296Y-78697014D01*
X157940299Y-78699903D01*
X157941520Y-78705315D01*
X157943915Y-78710322D01*
X157945358Y-78714479D01*
X157945810Y-78716725D01*
X157948114Y-78721821D01*
X157950640Y-78727409D01*
X157953401Y-78734171D01*
X157957370Y-78745019D01*
X157958733Y-78747121D01*
X157961681Y-78754138D01*
X157970254Y-78778936D01*
X157988466Y-78797295D01*
X157997054Y-78807184D01*
X158012682Y-78827792D01*
X158017470Y-78830245D01*
X158046423Y-78874493D01*
X158050540Y-78888505D01*
X158051525Y-78892108D01*
X158054320Y-78903145D01*
X158054322Y-78903152D01*
X158055686Y-78908536D01*
X158057306Y-78911707D01*
X158057734Y-78912984D01*
X158063502Y-78932615D01*
X158063813Y-78933843D01*
X158064151Y-78937329D01*
X158069617Y-78953666D01*
X158070714Y-78957160D01*
X158075526Y-78973536D01*
X158077233Y-78976587D01*
X158077686Y-78977790D01*
X158082341Y-78991704D01*
X158082360Y-78991897D01*
X158089473Y-79013023D01*
X158096676Y-79034556D01*
X158096780Y-79034726D01*
X158096782Y-79034731D01*
X158121548Y-79108294D01*
X158123272Y-79113969D01*
X158149925Y-79212245D01*
X158154607Y-79229510D01*
X158156464Y-79237727D01*
X158173856Y-79333524D01*
X158175196Y-79344164D01*
X158181227Y-79428953D01*
X158181475Y-79435633D01*
X158181501Y-79443786D01*
X158181493Y-79445279D01*
X158181279Y-79462189D01*
X158181146Y-79472716D01*
X158181139Y-79473231D01*
X158172082Y-79513361D01*
X158165963Y-79526659D01*
X158155971Y-79548178D01*
X158155486Y-79549223D01*
X158154588Y-79550995D01*
X158152187Y-79554386D01*
X158146074Y-79569254D01*
X158144305Y-79573297D01*
X158139935Y-79582709D01*
X158139933Y-79582716D01*
X158137593Y-79587755D01*
X158136727Y-79591810D01*
X158136026Y-79593693D01*
X158118427Y-79636499D01*
X158116387Y-79640626D01*
X158114159Y-79645683D01*
X158111335Y-79650525D01*
X158108484Y-79659679D01*
X158105534Y-79667861D01*
X158101954Y-79676567D01*
X158101037Y-79682048D01*
X158099602Y-79687077D01*
X158098473Y-79691818D01*
X158086243Y-79731080D01*
X158082524Y-79741083D01*
X158079888Y-79747151D01*
X158078865Y-79752651D01*
X158078694Y-79753211D01*
X158076488Y-79762114D01*
X158076346Y-79762853D01*
X158074696Y-79768151D01*
X158074265Y-79773688D01*
X158074176Y-79774828D01*
X158072807Y-79785235D01*
X158064895Y-79827792D01*
X158062825Y-79836642D01*
X158060366Y-79845334D01*
X158060088Y-79850928D01*
X158059522Y-79854375D01*
X158059251Y-79858152D01*
X158058234Y-79863620D01*
X158058602Y-79872720D01*
X158058561Y-79881616D01*
X158056344Y-79926206D01*
X158055385Y-79935875D01*
X158054195Y-79943867D01*
X158054632Y-79949448D01*
X158054542Y-79952036D01*
X158054587Y-79955169D01*
X158054763Y-79957987D01*
X158054487Y-79963535D01*
X158055451Y-79969001D01*
X158055451Y-79969004D01*
X158055903Y-79971565D01*
X158057105Y-79981024D01*
X158060599Y-80025621D01*
X158060761Y-80035184D01*
X158060856Y-80036558D01*
X158060609Y-80042150D01*
X158061622Y-80047657D01*
X158061622Y-80047661D01*
X158061918Y-80049271D01*
X158063247Y-80059430D01*
X158063799Y-80066476D01*
X158065455Y-80071782D01*
X158065683Y-80072967D01*
X158068007Y-80082368D01*
X158075101Y-80120932D01*
X158076332Y-80127627D01*
X158076961Y-80131476D01*
X158077704Y-80136653D01*
X158077869Y-80142252D01*
X158079285Y-80147669D01*
X158080840Y-80153622D01*
X158082423Y-80160743D01*
X158084513Y-80172109D01*
X158086711Y-80177220D01*
X158088304Y-80182479D01*
X158089338Y-80186147D01*
X158103883Y-80241819D01*
X158104373Y-80243984D01*
X158104702Y-80248293D01*
X158109407Y-80263384D01*
X158110671Y-80267797D01*
X158114620Y-80282911D01*
X158116613Y-80286740D01*
X158117353Y-80288866D01*
X158140032Y-80361601D01*
X158140114Y-80361915D01*
X158140298Y-80363829D01*
X158141755Y-80368198D01*
X158141756Y-80368201D01*
X158146576Y-80382653D01*
X158147174Y-80384506D01*
X158149782Y-80392870D01*
X158149208Y-80393049D01*
X158149274Y-80393198D01*
X158149691Y-80394240D01*
X158149843Y-80394493D01*
X158149865Y-80394543D01*
X158149979Y-80394502D01*
X158149983Y-80394513D01*
X158151888Y-80399771D01*
X158151890Y-80399777D01*
X158152207Y-80400650D01*
X158152159Y-80400668D01*
X158152912Y-80402908D01*
X158153054Y-80403365D01*
X158152770Y-80403453D01*
X158152909Y-80404036D01*
X158153373Y-80403868D01*
X158156431Y-80412303D01*
X158157271Y-80414716D01*
X158163198Y-80432487D01*
X158164489Y-80434611D01*
X158164711Y-80435150D01*
X158187121Y-80496976D01*
X158188376Y-80500759D01*
X158189315Y-80505922D01*
X158191526Y-80511066D01*
X158191527Y-80511070D01*
X158194870Y-80518849D01*
X158196987Y-80524199D01*
X158199822Y-80532021D01*
X158199827Y-80532030D01*
X158201719Y-80537251D01*
X158204556Y-80541658D01*
X158206247Y-80545316D01*
X158224746Y-80588356D01*
X158225487Y-80590081D01*
X158226879Y-80594091D01*
X158226956Y-80594061D01*
X158229009Y-80599270D01*
X158230461Y-80604679D01*
X158233087Y-80609621D01*
X158233088Y-80609624D01*
X158235352Y-80613884D01*
X158238883Y-80621248D01*
X158242930Y-80630665D01*
X158246204Y-80635153D01*
X158248960Y-80639988D01*
X158248897Y-80640024D01*
X158251152Y-80643625D01*
X158269334Y-80677848D01*
X158273623Y-80687231D01*
X158273987Y-80687927D01*
X158276007Y-80693147D01*
X158279146Y-80697782D01*
X158279149Y-80697789D01*
X158279803Y-80698755D01*
X158285249Y-80707803D01*
X158288345Y-80713630D01*
X158291981Y-80717838D01*
X158292336Y-80718356D01*
X158298682Y-80726635D01*
X158301288Y-80730484D01*
X158318987Y-80756626D01*
X158324295Y-80765416D01*
X158325060Y-80766846D01*
X158325064Y-80766852D01*
X158327705Y-80771787D01*
X158331386Y-80776007D01*
X158332146Y-80777107D01*
X158336302Y-80782504D01*
X158337301Y-80783673D01*
X158340418Y-80788276D01*
X158345758Y-80793264D01*
X158352771Y-80800520D01*
X158366907Y-80816723D01*
X158372020Y-80822584D01*
X158392534Y-80862930D01*
X158392527Y-80870624D01*
X158397354Y-80880677D01*
X158398141Y-80884141D01*
X158399406Y-80887450D01*
X158400971Y-80898489D01*
X158414582Y-80918846D01*
X158421524Y-80931011D01*
X158427298Y-80943036D01*
X158427299Y-80943038D01*
X158432124Y-80953085D01*
X158440829Y-80960046D01*
X158443038Y-80962824D01*
X158445621Y-80965265D01*
X158451817Y-80974531D01*
X158461419Y-80980194D01*
X158461420Y-80980195D01*
X158472905Y-80986969D01*
X158484442Y-80994925D01*
X158494521Y-81002985D01*
X158503564Y-81010217D01*
X158514429Y-81012716D01*
X158517616Y-81014256D01*
X158521004Y-81015336D01*
X158530609Y-81021001D01*
X158545425Y-81022253D01*
X158554994Y-81023062D01*
X158559260Y-81023729D01*
X158559266Y-81023674D01*
X158564836Y-81024306D01*
X158570291Y-81025561D01*
X158580379Y-81025561D01*
X158588718Y-81025913D01*
X158604654Y-81027260D01*
X158621760Y-81028706D01*
X158629280Y-81025839D01*
X158633249Y-81025561D01*
X158673495Y-81025561D01*
X158673552Y-81025574D01*
X158673728Y-81025574D01*
X158683299Y-81025568D01*
X158686672Y-81025566D01*
X158686752Y-81025570D01*
X158687570Y-81025751D01*
X158689835Y-81025731D01*
X158689842Y-81025731D01*
X158708256Y-81025565D01*
X158709146Y-81025561D01*
X158718822Y-81025561D01*
X158718878Y-81025548D01*
X158718922Y-81025548D01*
X158731264Y-81025541D01*
X158732077Y-81025355D01*
X158732159Y-81025350D01*
X158733080Y-81025342D01*
X158735559Y-81025399D01*
X158740009Y-81026154D01*
X158745593Y-81025830D01*
X158745595Y-81025830D01*
X158750554Y-81025542D01*
X158755436Y-81025259D01*
X158760270Y-81025097D01*
X158765527Y-81025050D01*
X158769989Y-81025010D01*
X158769990Y-81025010D01*
X158775541Y-81024960D01*
X158779895Y-81023926D01*
X158782552Y-81023689D01*
X158783827Y-81023617D01*
X158787217Y-81023484D01*
X158792555Y-81023366D01*
X158802489Y-81025052D01*
X158841946Y-81013686D01*
X158845036Y-81012850D01*
X158856698Y-81009896D01*
X158856702Y-81009895D01*
X158862084Y-81008531D01*
X158864812Y-81007137D01*
X158865677Y-81006850D01*
X158879677Y-81002817D01*
X158879681Y-81002815D01*
X158890390Y-80999730D01*
X158898703Y-80992305D01*
X158903438Y-80989689D01*
X158908822Y-80986000D01*
X158912970Y-80982530D01*
X158922897Y-80977457D01*
X158931699Y-80965875D01*
X158936147Y-80960633D01*
X158944658Y-80954948D01*
X158957922Y-80932480D01*
X158964346Y-80922918D01*
X158971500Y-80913505D01*
X158971501Y-80913504D01*
X158978246Y-80904628D01*
X158980161Y-80895245D01*
X158982072Y-80891570D01*
X158991160Y-80876174D01*
X158992103Y-80865069D01*
X158993186Y-80861678D01*
X158993779Y-80858161D01*
X158998033Y-80847856D01*
X158997111Y-80831716D01*
X158996792Y-80826143D01*
X158996795Y-80824780D01*
X158999161Y-80816723D01*
X158995557Y-80794803D01*
X158994406Y-80784389D01*
X158993450Y-80767660D01*
X158992814Y-80756531D01*
X158987414Y-80746778D01*
X158987112Y-80745732D01*
X158983922Y-80739083D01*
X158981932Y-80734229D01*
X158980827Y-80731534D01*
X158979988Y-80729416D01*
X158978925Y-80726637D01*
X158964797Y-80689727D01*
X158956690Y-80682072D01*
X158952209Y-80675378D01*
X158949571Y-80672297D01*
X158942597Y-80662142D01*
X158938426Y-80655524D01*
X158932971Y-80646051D01*
X158929159Y-80641947D01*
X158927834Y-80640150D01*
X158926179Y-80638239D01*
X158923035Y-80633663D01*
X158918953Y-80629901D01*
X158918951Y-80629898D01*
X158914942Y-80626203D01*
X158909508Y-80620790D01*
X158899729Y-80610262D01*
X158893638Y-80603041D01*
X158888494Y-80596315D01*
X158887709Y-80595665D01*
X158864073Y-80553107D01*
X158862821Y-80548163D01*
X158861959Y-80544459D01*
X158850449Y-80490353D01*
X158849993Y-80488079D01*
X158836104Y-80414342D01*
X158835844Y-80412906D01*
X158819647Y-80319356D01*
X158819492Y-80318435D01*
X158801776Y-80210037D01*
X158800744Y-80201284D01*
X158797679Y-80159199D01*
X158797447Y-80149614D01*
X158798618Y-80101504D01*
X158799190Y-80093024D01*
X158804111Y-80048557D01*
X158805867Y-80037973D01*
X158808340Y-80026847D01*
X158830554Y-79983050D01*
X158844828Y-79966776D01*
X158848068Y-79963083D01*
X158850296Y-79960627D01*
X158858360Y-79952036D01*
X158866647Y-79943206D01*
X158876372Y-79932845D01*
X158876630Y-79932595D01*
X158878238Y-79931468D01*
X158891475Y-79916783D01*
X158892824Y-79915316D01*
X158899924Y-79907751D01*
X158906224Y-79901039D01*
X158907214Y-79899347D01*
X158907443Y-79899068D01*
X158924520Y-79880122D01*
X158941342Y-79861460D01*
X158944434Y-79858487D01*
X158944383Y-79858438D01*
X158948248Y-79854399D01*
X158952557Y-79850810D01*
X158958800Y-79842604D01*
X158964055Y-79836262D01*
X158964212Y-79836088D01*
X158970837Y-79828738D01*
X158973546Y-79823887D01*
X158976782Y-79819369D01*
X158976830Y-79819403D01*
X158979182Y-79815812D01*
X159007389Y-79778733D01*
X159014131Y-79770778D01*
X159015074Y-79769777D01*
X159015077Y-79769774D01*
X159018918Y-79765697D01*
X159021751Y-79760860D01*
X159022366Y-79760038D01*
X159026692Y-79753579D01*
X159027304Y-79752554D01*
X159030670Y-79748129D01*
X159033598Y-79741677D01*
X159038312Y-79732576D01*
X159061624Y-79692767D01*
X159066174Y-79685702D01*
X159068758Y-79682042D01*
X159068761Y-79682037D01*
X159071987Y-79677467D01*
X159074109Y-79672285D01*
X159075450Y-79669840D01*
X159076706Y-79667010D01*
X159079519Y-79662206D01*
X159082570Y-79652531D01*
X159085370Y-79644789D01*
X159102373Y-79603272D01*
X159106348Y-79594748D01*
X159110317Y-79587194D01*
X159111746Y-79581775D01*
X159112968Y-79578632D01*
X159113272Y-79577724D01*
X159114257Y-79574255D01*
X159116362Y-79569114D01*
X159117773Y-79560611D01*
X159119708Y-79551582D01*
X159130188Y-79511836D01*
X159131067Y-79508867D01*
X159133095Y-79504453D01*
X159136106Y-79489944D01*
X159137310Y-79484831D01*
X159139627Y-79476045D01*
X159139628Y-79476040D01*
X159141043Y-79470673D01*
X159141163Y-79467090D01*
X159141508Y-79465238D01*
X159142198Y-79462189D01*
X159165842Y-79417074D01*
X159170459Y-79412047D01*
X159223747Y-79381979D01*
X159284531Y-79388975D01*
X159291763Y-79392646D01*
X159322264Y-79409735D01*
X159327795Y-79413076D01*
X159332881Y-79416379D01*
X159338715Y-79420168D01*
X159343978Y-79422090D01*
X159344816Y-79422508D01*
X159345204Y-79422661D01*
X159345738Y-79422886D01*
X159350589Y-79425603D01*
X159355922Y-79427173D01*
X159355923Y-79427174D01*
X159363172Y-79429309D01*
X159369149Y-79431278D01*
X159448723Y-79460326D01*
X159456488Y-79463730D01*
X159458604Y-79464535D01*
X159463577Y-79467101D01*
X159469003Y-79468489D01*
X159469006Y-79468490D01*
X159471184Y-79469047D01*
X159480594Y-79471960D01*
X159482594Y-79472690D01*
X159482599Y-79472691D01*
X159487814Y-79474595D01*
X159493324Y-79475292D01*
X159495325Y-79475777D01*
X159503799Y-79477390D01*
X159535065Y-79485387D01*
X159538862Y-79486440D01*
X159543597Y-79487855D01*
X159548748Y-79490053D01*
X159554259Y-79491040D01*
X159554264Y-79491042D01*
X159560396Y-79492141D01*
X159567461Y-79493675D01*
X159573361Y-79495184D01*
X159573364Y-79495184D01*
X159578742Y-79496560D01*
X159584290Y-79496705D01*
X159589481Y-79497428D01*
X159593289Y-79498034D01*
X159635956Y-79505678D01*
X159639801Y-79506668D01*
X159639838Y-79506498D01*
X159645314Y-79507685D01*
X159650616Y-79509480D01*
X159661221Y-79510549D01*
X159661829Y-79510610D01*
X159669353Y-79511662D01*
X159680273Y-79513618D01*
X159685822Y-79513357D01*
X159691373Y-79513719D01*
X159691363Y-79513878D01*
X159695329Y-79513986D01*
X159746300Y-79519122D01*
X159751046Y-79519716D01*
X159751830Y-79519833D01*
X159757238Y-79521282D01*
X159768541Y-79521686D01*
X159770322Y-79521750D01*
X159776679Y-79522183D01*
X159789552Y-79523480D01*
X159795058Y-79522795D01*
X159796098Y-79522783D01*
X159800784Y-79522839D01*
X159852536Y-79524688D01*
X159865231Y-79525141D01*
X159867646Y-79525306D01*
X159872005Y-79526251D01*
X159878793Y-79526166D01*
X159879431Y-79526364D01*
X159883180Y-79526742D01*
X159883103Y-79527506D01*
X159937216Y-79544334D01*
X159973804Y-79593375D01*
X159978915Y-79620097D01*
X159979440Y-79630356D01*
X159979566Y-79634613D01*
X159979615Y-79640626D01*
X159979697Y-79650774D01*
X159980621Y-79654677D01*
X159980776Y-79656484D01*
X159983354Y-79706897D01*
X159983987Y-79719280D01*
X159983991Y-79719834D01*
X159983630Y-79722225D01*
X159984047Y-79727696D01*
X159984047Y-79727697D01*
X159985078Y-79741227D01*
X159985235Y-79743691D01*
X159986198Y-79762512D01*
X159986853Y-79764832D01*
X159986920Y-79765389D01*
X159988258Y-79782934D01*
X159988263Y-79783137D01*
X159988071Y-79784550D01*
X159989940Y-79805116D01*
X159990052Y-79806459D01*
X159991608Y-79826872D01*
X159992031Y-79828238D01*
X159992059Y-79828433D01*
X159994416Y-79854375D01*
X159994775Y-79858331D01*
X159994819Y-79859211D01*
X159994508Y-79862188D01*
X159996710Y-79880163D01*
X159997034Y-79883191D01*
X159998658Y-79901065D01*
X159999584Y-79903906D01*
X159999729Y-79904793D01*
X160002137Y-79924442D01*
X160002344Y-79926754D01*
X160002095Y-79931140D01*
X160003040Y-79936660D01*
X160004737Y-79946576D01*
X160005421Y-79951238D01*
X160007303Y-79966598D01*
X160008794Y-79970729D01*
X160009265Y-79973034D01*
X160010634Y-79981030D01*
X160011544Y-79986349D01*
X160012030Y-79989782D01*
X160012024Y-79994810D01*
X160013273Y-80000270D01*
X160013273Y-80000272D01*
X160015255Y-80008938D01*
X160016326Y-80014302D01*
X160017804Y-80022933D01*
X160018742Y-80028412D01*
X160020667Y-80033045D01*
X160021546Y-80036441D01*
X160024301Y-80048486D01*
X160024756Y-80050821D01*
X160024963Y-80055244D01*
X160026471Y-80060633D01*
X160029162Y-80070252D01*
X160030331Y-80074853D01*
X160032531Y-80084471D01*
X160032533Y-80084478D01*
X160033772Y-80089893D01*
X160035693Y-80093880D01*
X160036418Y-80096182D01*
X160040804Y-80111857D01*
X160040997Y-80112675D01*
X160041222Y-80115583D01*
X160042895Y-80120929D01*
X160042896Y-80120932D01*
X160046668Y-80132983D01*
X160047512Y-80135830D01*
X160052380Y-80153227D01*
X160053773Y-80155795D01*
X160054052Y-80156572D01*
X160066520Y-80196406D01*
X160067286Y-80198854D01*
X160067549Y-80199708D01*
X160080201Y-80241453D01*
X160081014Y-80244294D01*
X160096118Y-80300364D01*
X160096848Y-80303251D01*
X160109236Y-80355627D01*
X160110094Y-80359621D01*
X160110523Y-80361841D01*
X160118341Y-80402280D01*
X160118749Y-80404527D01*
X160128390Y-80461403D01*
X160128516Y-80462382D01*
X160128437Y-80465520D01*
X160129554Y-80471006D01*
X160132002Y-80483033D01*
X160132599Y-80486235D01*
X160135549Y-80503636D01*
X160136748Y-80506534D01*
X160136984Y-80507498D01*
X160143394Y-80538981D01*
X160143946Y-80542171D01*
X160144089Y-80547093D01*
X160147796Y-80561317D01*
X160148999Y-80566506D01*
X160151894Y-80580724D01*
X160153923Y-80585206D01*
X160154839Y-80588342D01*
X160158668Y-80603034D01*
X160159251Y-80605269D01*
X160159740Y-80609087D01*
X160160145Y-80608998D01*
X160161347Y-80614468D01*
X160161924Y-80620040D01*
X160165695Y-80631074D01*
X160167803Y-80638086D01*
X160170699Y-80649199D01*
X160173260Y-80654127D01*
X160175255Y-80659317D01*
X160175062Y-80659391D01*
X160176577Y-80662922D01*
X160178511Y-80668581D01*
X160179394Y-80671165D01*
X160180490Y-80675318D01*
X160180554Y-80675298D01*
X160182206Y-80680646D01*
X160183246Y-80686150D01*
X160185492Y-80691279D01*
X160187369Y-80695566D01*
X160190363Y-80703262D01*
X160193232Y-80711659D01*
X160193232Y-80711660D01*
X160193632Y-80712830D01*
X160193392Y-80712912D01*
X160200801Y-80770794D01*
X160197384Y-80781171D01*
X160195414Y-80789771D01*
X160190570Y-80799815D01*
X160190560Y-80810965D01*
X160190560Y-80810966D01*
X160190548Y-80824760D01*
X160190531Y-80825123D01*
X160190132Y-80827041D01*
X160190222Y-80831715D01*
X160190222Y-80831716D01*
X160190509Y-80846619D01*
X160190527Y-80848611D01*
X160190490Y-80891291D01*
X160191407Y-80893201D01*
X160191448Y-80895321D01*
X160210765Y-80933554D01*
X160211560Y-80935169D01*
X160230087Y-80973752D01*
X160231743Y-80975076D01*
X160232698Y-80976967D01*
X160240699Y-80983105D01*
X160240700Y-80983107D01*
X160266608Y-81002985D01*
X160268176Y-81004213D01*
X160293033Y-81024091D01*
X160301527Y-81030884D01*
X160303593Y-81031359D01*
X160305274Y-81032649D01*
X160315136Y-81034708D01*
X160315137Y-81034709D01*
X160347053Y-81041374D01*
X160348999Y-81041801D01*
X160363681Y-81045177D01*
X160363690Y-81045178D01*
X160368254Y-81046228D01*
X160370219Y-81046228D01*
X160370555Y-81046282D01*
X160394818Y-81051349D01*
X160405639Y-81048670D01*
X160407889Y-81048629D01*
X160427575Y-81046228D01*
X160647350Y-81046228D01*
X160655081Y-81047483D01*
X160655156Y-81046537D01*
X160666272Y-81047416D01*
X160676911Y-81050744D01*
X160687941Y-81049129D01*
X160700625Y-81047272D01*
X160704658Y-81046978D01*
X160704644Y-81046850D01*
X160710166Y-81046228D01*
X160715724Y-81046228D01*
X160726198Y-81043838D01*
X160733866Y-81042405D01*
X160767422Y-81037492D01*
X160774258Y-81032876D01*
X160782306Y-81031040D01*
X160791026Y-81024092D01*
X160791027Y-81024091D01*
X160808840Y-81009896D01*
X160815133Y-81005275D01*
X160833994Y-80992539D01*
X160833995Y-80992538D01*
X160843233Y-80986300D01*
X160847391Y-80979176D01*
X160853845Y-80974033D01*
X160858687Y-80963995D01*
X160858689Y-80963992D01*
X160868581Y-80943483D01*
X160872248Y-80936589D01*
X160883724Y-80916927D01*
X160883725Y-80916924D01*
X160889344Y-80907297D01*
X160890001Y-80899073D01*
X160893586Y-80891641D01*
X160893596Y-80880490D01*
X160893616Y-80857720D01*
X160893931Y-80849920D01*
X160895745Y-80827227D01*
X160895745Y-80827225D01*
X160896633Y-80816113D01*
X160893659Y-80808417D01*
X160893666Y-80800165D01*
X160887957Y-80788276D01*
X160878982Y-80769584D01*
X160875883Y-80762419D01*
X160873973Y-80757476D01*
X160873970Y-80757470D01*
X160871952Y-80752248D01*
X160868815Y-80747610D01*
X160866220Y-80742647D01*
X160866344Y-80742582D01*
X160864332Y-80739076D01*
X160863234Y-80736790D01*
X160854069Y-80717704D01*
X160845363Y-80710741D01*
X160838423Y-80702017D01*
X160839066Y-80701506D01*
X160833693Y-80695695D01*
X160821402Y-80677527D01*
X160818139Y-80672367D01*
X160817467Y-80671228D01*
X160804592Y-80633936D01*
X160804210Y-80631052D01*
X160803353Y-80624589D01*
X160803154Y-80622980D01*
X160802901Y-80620780D01*
X160801553Y-80609087D01*
X160800857Y-80603049D01*
X160801046Y-80603027D01*
X160800823Y-80601309D01*
X160800536Y-80601351D01*
X160797523Y-80580577D01*
X160797357Y-80579381D01*
X160796526Y-80573114D01*
X160794630Y-80558817D01*
X160794212Y-80557691D01*
X160794187Y-80557566D01*
X160792684Y-80547207D01*
X160792677Y-80547126D01*
X160792735Y-80546336D01*
X160792410Y-80544213D01*
X160792408Y-80544193D01*
X160789449Y-80524880D01*
X160789332Y-80524097D01*
X160788955Y-80521493D01*
X160786813Y-80506726D01*
X160786587Y-80505165D01*
X160786585Y-80505157D01*
X160786277Y-80503031D01*
X160785992Y-80502292D01*
X160785979Y-80502230D01*
X160783393Y-80485346D01*
X160783388Y-80485296D01*
X160783437Y-80484563D01*
X160781258Y-80471006D01*
X160780012Y-80463255D01*
X160779898Y-80462533D01*
X160776934Y-80443182D01*
X160776934Y-80443181D01*
X160776629Y-80441191D01*
X160776359Y-80440508D01*
X160776345Y-80440441D01*
X160770303Y-80402854D01*
X160770301Y-80402841D01*
X160765187Y-80371000D01*
X160764844Y-80368692D01*
X160763061Y-80355627D01*
X160756219Y-80305513D01*
X160755588Y-80299549D01*
X160754652Y-80287111D01*
X160752569Y-80259411D01*
X160752309Y-80250060D01*
X160752344Y-80248293D01*
X160752811Y-80224337D01*
X160753634Y-80213384D01*
X160756869Y-80188740D01*
X160758545Y-80179439D01*
X160767038Y-80142504D01*
X160768546Y-80136744D01*
X160785993Y-80077450D01*
X160786327Y-80076339D01*
X160800041Y-80031672D01*
X160800158Y-80031346D01*
X160801090Y-80029657D01*
X160806533Y-80010597D01*
X160807089Y-80008721D01*
X160811497Y-79994364D01*
X160811498Y-79994358D01*
X160812853Y-79989946D01*
X160812995Y-79988020D01*
X160813073Y-79987694D01*
X160823202Y-79952216D01*
X160823488Y-79951348D01*
X160824874Y-79948636D01*
X160829268Y-79931154D01*
X160830082Y-79928121D01*
X160834975Y-79910986D01*
X160835139Y-79907942D01*
X160835327Y-79907041D01*
X160835892Y-79904793D01*
X160843098Y-79876123D01*
X160843435Y-79874973D01*
X160844886Y-79871858D01*
X160848499Y-79854902D01*
X160849311Y-79851406D01*
X160852145Y-79840131D01*
X160852146Y-79840120D01*
X160853499Y-79834739D01*
X160853574Y-79831313D01*
X160853785Y-79830101D01*
X160860566Y-79798280D01*
X160860789Y-79797410D01*
X160861970Y-79794651D01*
X160862964Y-79789140D01*
X160862966Y-79789135D01*
X160865184Y-79776846D01*
X160865784Y-79773794D01*
X160868351Y-79761746D01*
X160869510Y-79756308D01*
X160869467Y-79753307D01*
X160869591Y-79752413D01*
X160870364Y-79748129D01*
X160876531Y-79713960D01*
X160876614Y-79713597D01*
X160877383Y-79711690D01*
X160880459Y-79692316D01*
X160880806Y-79690267D01*
X160881012Y-79689129D01*
X160884262Y-79671115D01*
X160884168Y-79669066D01*
X160884213Y-79668667D01*
X160892168Y-79618563D01*
X160892212Y-79618453D01*
X160893586Y-79609738D01*
X160895813Y-79595603D01*
X160895830Y-79595494D01*
X160896167Y-79593375D01*
X160899266Y-79573853D01*
X160899258Y-79573738D01*
X160903286Y-79548178D01*
X160903627Y-79546153D01*
X160911088Y-79504453D01*
X160911761Y-79500693D01*
X160939540Y-79448188D01*
X160941944Y-79446313D01*
X160945023Y-79442537D01*
X160950731Y-79437453D01*
X160950756Y-79437432D01*
X160955470Y-79434426D01*
X160959390Y-79430439D01*
X160959393Y-79430437D01*
X160964205Y-79425543D01*
X160969155Y-79420844D01*
X160973362Y-79417117D01*
X160978353Y-79412696D01*
X160981456Y-79408363D01*
X160990807Y-79399462D01*
X160991693Y-79398555D01*
X160996034Y-79395013D01*
X160999474Y-79390585D01*
X160999689Y-79390365D01*
X161006308Y-79382799D01*
X161006586Y-79382444D01*
X161010484Y-79378480D01*
X161013404Y-79373747D01*
X161013876Y-79372982D01*
X161019955Y-79364221D01*
X161026543Y-79355741D01*
X161033271Y-79347953D01*
X161034372Y-79346805D01*
X161038247Y-79342765D01*
X161041117Y-79337961D01*
X161041896Y-79336940D01*
X161045836Y-79331174D01*
X161046599Y-79329924D01*
X161050013Y-79325530D01*
X161053084Y-79318942D01*
X161057828Y-79309991D01*
X161063856Y-79299902D01*
X161066156Y-79296631D01*
X161066019Y-79296543D01*
X161069057Y-79291846D01*
X161072611Y-79287514D01*
X161077585Y-79277502D01*
X161081259Y-79270773D01*
X161084050Y-79266101D01*
X161086899Y-79261333D01*
X161088617Y-79256049D01*
X161090914Y-79250993D01*
X161091050Y-79251055D01*
X161092560Y-79247362D01*
X161109562Y-79213138D01*
X161110471Y-79211353D01*
X161164398Y-79108098D01*
X161169565Y-79099335D01*
X161235131Y-79000152D01*
X161241901Y-78991083D01*
X161325934Y-78891009D01*
X161328127Y-78888486D01*
X161359935Y-78853104D01*
X161363198Y-78849644D01*
X161363824Y-78849011D01*
X161368188Y-78845501D01*
X161376282Y-78835228D01*
X161380410Y-78830326D01*
X161385301Y-78824886D01*
X161385302Y-78824884D01*
X161389016Y-78820753D01*
X161391720Y-78815895D01*
X161392356Y-78815005D01*
X161395152Y-78811278D01*
X161422020Y-78777178D01*
X161428185Y-78770276D01*
X161429202Y-78769012D01*
X161433186Y-78765072D01*
X161436182Y-78760344D01*
X161436185Y-78760340D01*
X161437152Y-78758813D01*
X161443020Y-78750525D01*
X161444057Y-78749209D01*
X161447498Y-78744842D01*
X161449884Y-78739815D01*
X161450640Y-78738595D01*
X161455171Y-78730378D01*
X161476630Y-78696514D01*
X161483084Y-78687491D01*
X161483315Y-78687203D01*
X161486823Y-78682839D01*
X161489262Y-78677804D01*
X161489264Y-78677800D01*
X161489317Y-78677690D01*
X161494773Y-78667886D01*
X161494781Y-78667870D01*
X161497757Y-78663173D01*
X161499779Y-78657468D01*
X161503990Y-78647392D01*
X161521015Y-78612237D01*
X161524518Y-78606067D01*
X161526055Y-78603034D01*
X161529134Y-78598354D01*
X161532111Y-78590345D01*
X161535800Y-78581707D01*
X161537021Y-78579185D01*
X161537022Y-78579182D01*
X161539446Y-78574177D01*
X161540695Y-78568764D01*
X161541749Y-78565774D01*
X161543841Y-78558797D01*
X161558050Y-78520578D01*
X161559654Y-78517081D01*
X161559463Y-78517002D01*
X161561613Y-78511836D01*
X161564338Y-78506936D01*
X161565896Y-78501547D01*
X161567566Y-78495772D01*
X161569877Y-78488767D01*
X161571923Y-78483263D01*
X161573861Y-78478051D01*
X161574591Y-78472542D01*
X161575933Y-78467148D01*
X161576129Y-78467197D01*
X161576915Y-78463434D01*
X161595362Y-78399629D01*
X161596525Y-78395885D01*
X161598128Y-78391063D01*
X161600484Y-78385981D01*
X161602918Y-78374452D01*
X161604678Y-78367404D01*
X161604764Y-78367109D01*
X161607903Y-78356250D01*
X161608221Y-78350697D01*
X161609126Y-78345401D01*
X161609846Y-78341633D01*
X161615579Y-78314476D01*
X161626011Y-78265061D01*
X161627153Y-78260247D01*
X161627167Y-78260195D01*
X161629199Y-78254973D01*
X161631132Y-78241748D01*
X161632222Y-78235639D01*
X161634946Y-78222733D01*
X161634856Y-78217172D01*
X161634879Y-78216935D01*
X161635465Y-78212100D01*
X161638334Y-78192474D01*
X161648991Y-78119554D01*
X161649463Y-78116907D01*
X161650919Y-78112526D01*
X161652366Y-78097321D01*
X161652962Y-78092386D01*
X161654336Y-78082982D01*
X161654336Y-78082980D01*
X161655140Y-78077480D01*
X161654776Y-78072885D01*
X161654948Y-78070197D01*
X161665262Y-77961831D01*
X161665283Y-77961688D01*
X161665659Y-77960507D01*
X161667271Y-77940966D01*
X161667374Y-77939722D01*
X161667484Y-77938484D01*
X161669145Y-77921026D01*
X161669451Y-77917814D01*
X161669290Y-77916579D01*
X161669295Y-77916436D01*
X161669782Y-77910539D01*
X161669930Y-77908919D01*
X161675896Y-77849723D01*
X161676937Y-77839397D01*
X161677122Y-77837709D01*
X161686359Y-77759528D01*
X161686543Y-77758062D01*
X161697010Y-77679547D01*
X161697255Y-77677828D01*
X161706993Y-77613424D01*
X161707948Y-77607111D01*
X161708140Y-77605894D01*
X161713841Y-77571333D01*
X161713995Y-77570427D01*
X161723468Y-77516154D01*
X161723970Y-77513496D01*
X161730932Y-77479173D01*
X161732086Y-77474155D01*
X161736801Y-77455853D01*
X161738914Y-77448760D01*
X161742517Y-77438134D01*
X161745158Y-77431212D01*
X161751305Y-77416751D01*
X161753279Y-77412402D01*
X161757401Y-77403875D01*
X161757410Y-77403860D01*
X161757447Y-77403813D01*
X161767391Y-77383212D01*
X161767422Y-77383149D01*
X161770056Y-77377702D01*
X161770516Y-77376838D01*
X161772475Y-77374214D01*
X161774730Y-77369100D01*
X161774733Y-77369094D01*
X161779586Y-77358085D01*
X161781011Y-77354999D01*
X161784452Y-77347868D01*
X161826769Y-77303676D01*
X161872179Y-77292220D01*
X161874872Y-77292522D01*
X161880434Y-77291883D01*
X161880442Y-77291883D01*
X161889214Y-77290875D01*
X161894702Y-77290399D01*
X161903387Y-77289889D01*
X161903400Y-77289887D01*
X161908946Y-77289561D01*
X161912751Y-77288455D01*
X161923480Y-77287347D01*
X161933189Y-77287007D01*
X161935421Y-77286411D01*
X161941503Y-77287201D01*
X161976738Y-77275549D01*
X161982240Y-77273907D01*
X161995551Y-77270352D01*
X161999890Y-77268064D01*
X162008556Y-77266794D01*
X162026375Y-77254758D01*
X162035599Y-77249234D01*
X162046099Y-77243697D01*
X162055959Y-77238498D01*
X162061462Y-77231060D01*
X162065295Y-77228471D01*
X162075614Y-77217411D01*
X162079109Y-77213850D01*
X162082369Y-77210692D01*
X162088769Y-77205007D01*
X162103087Y-77193357D01*
X162106535Y-77190676D01*
X162108487Y-77189226D01*
X162113286Y-77186435D01*
X162122344Y-77177981D01*
X162127396Y-77173577D01*
X162131723Y-77170056D01*
X162137137Y-77165651D01*
X162140579Y-77161232D01*
X162142117Y-77159661D01*
X162145310Y-77156543D01*
X162155059Y-77147443D01*
X162163209Y-77139836D01*
X162165384Y-77134252D01*
X162165850Y-77133598D01*
X162174177Y-77126186D01*
X162189332Y-77089834D01*
X162191016Y-77086024D01*
X162207709Y-77050331D01*
X162207543Y-77035285D01*
X162208940Y-77017586D01*
X162209405Y-77014851D01*
X162210008Y-77012980D01*
X162210040Y-77012604D01*
X162210983Y-77009344D01*
X162211303Y-77003583D01*
X162212562Y-76992416D01*
X162212568Y-76992382D01*
X162212568Y-76992379D01*
X162213502Y-76986906D01*
X162213195Y-76981358D01*
X162213510Y-76975810D01*
X162213530Y-76975811D01*
X162213603Y-76971026D01*
X162214891Y-76955983D01*
X162215312Y-76952010D01*
X162216901Y-76939443D01*
X162216941Y-76939215D01*
X162217459Y-76937730D01*
X162218097Y-76931938D01*
X162218747Y-76928403D01*
X162222301Y-76921536D01*
X162223282Y-76887827D01*
X162223836Y-76879863D01*
X162224371Y-76875011D01*
X162224371Y-76875004D01*
X162224980Y-76869479D01*
X162224345Y-76863956D01*
X162224338Y-76861172D01*
X162224130Y-76858697D01*
X162224293Y-76853097D01*
X162222445Y-76843834D01*
X162220537Y-76823524D01*
X162220571Y-76819937D01*
X162220571Y-76819936D01*
X162220677Y-76808785D01*
X162202007Y-76769027D01*
X162195739Y-76755037D01*
X162195738Y-76755029D01*
X162195732Y-76755021D01*
X162184027Y-76728893D01*
X162174331Y-76720709D01*
X162162682Y-76708183D01*
X162162551Y-76708303D01*
X162158772Y-76704177D01*
X162155479Y-76699647D01*
X162152674Y-76697205D01*
X162150484Y-76694413D01*
X162136872Y-76683372D01*
X162134243Y-76681162D01*
X162127248Y-76675074D01*
X162125294Y-76673262D01*
X162122403Y-76669678D01*
X162118004Y-76666221D01*
X162118002Y-76666219D01*
X162114079Y-76663137D01*
X162110398Y-76660244D01*
X162106607Y-76657108D01*
X162095192Y-76647173D01*
X162095191Y-76647173D01*
X162096341Y-76645852D01*
X162063831Y-76603308D01*
X162058660Y-76579781D01*
X162057632Y-76568926D01*
X162056047Y-76564149D01*
X162055431Y-76560740D01*
X162053248Y-76546297D01*
X162051582Y-76535273D01*
X162045300Y-76526062D01*
X162041426Y-76516200D01*
X162041235Y-76515840D01*
X162034820Y-76499677D01*
X162032889Y-76494371D01*
X162030847Y-76488220D01*
X162028498Y-76481143D01*
X162025824Y-76476729D01*
X162025560Y-76476114D01*
X162025258Y-76475584D01*
X162023303Y-76470658D01*
X162015444Y-76459265D01*
X162012276Y-76454368D01*
X162010350Y-76451189D01*
X161993111Y-76422734D01*
X161988253Y-76419569D01*
X161987042Y-76418091D01*
X161980616Y-76408773D01*
X161979391Y-76406954D01*
X161979136Y-76406565D01*
X161968605Y-76390537D01*
X161966933Y-76388937D01*
X161965722Y-76387181D01*
X161951200Y-76373849D01*
X161949698Y-76372441D01*
X161934732Y-76358116D01*
X161905768Y-76304221D01*
X161908929Y-76259458D01*
X161908566Y-76259381D01*
X161909120Y-76256756D01*
X161909211Y-76255462D01*
X161909711Y-76253954D01*
X161909712Y-76253949D01*
X161911460Y-76248674D01*
X161911967Y-76243399D01*
X161912935Y-76239347D01*
X161916274Y-76226843D01*
X161918036Y-76220979D01*
X161922336Y-76208135D01*
X161922873Y-76202613D01*
X161923036Y-76201933D01*
X161923130Y-76201177D01*
X161924528Y-76195943D01*
X161924732Y-76190382D01*
X161925556Y-76184891D01*
X161926446Y-76185025D01*
X161928014Y-76176469D01*
X161928642Y-76170353D01*
X161932219Y-76159791D01*
X161929337Y-76136281D01*
X161929334Y-76136240D01*
X161929385Y-76135717D01*
X161929199Y-76134260D01*
X161929198Y-76134251D01*
X161926610Y-76114019D01*
X161926546Y-76113509D01*
X161924568Y-76097381D01*
X161923888Y-76091832D01*
X161923706Y-76091330D01*
X161923695Y-76091246D01*
X161923947Y-76084926D01*
X161923875Y-76084761D01*
X161923939Y-76083960D01*
X161922993Y-76081381D01*
X161922442Y-76081451D01*
X161922133Y-76079037D01*
X161920718Y-76067977D01*
X161914453Y-76058326D01*
X161906929Y-76043212D01*
X161906914Y-76043220D01*
X161904448Y-76038243D01*
X161902553Y-76033020D01*
X161899622Y-76028471D01*
X161897736Y-76024405D01*
X161892024Y-76011217D01*
X161892023Y-76011215D01*
X161887592Y-76000985D01*
X161879163Y-75993689D01*
X161875743Y-75989027D01*
X161871607Y-75984982D01*
X161865569Y-75975609D01*
X161851583Y-75967035D01*
X161844049Y-75962416D01*
X161840022Y-75959805D01*
X161835826Y-75956172D01*
X161830877Y-75953548D01*
X161828507Y-75951925D01*
X161822434Y-75947018D01*
X161820040Y-75945601D01*
X161811950Y-75937933D01*
X161795531Y-75932672D01*
X161787583Y-75927799D01*
X161780908Y-75927120D01*
X161773472Y-75925116D01*
X161773471Y-75925115D01*
X161766155Y-75923143D01*
X161761716Y-75921834D01*
X161752085Y-75918748D01*
X161752073Y-75918746D01*
X161746747Y-75917039D01*
X161742437Y-75916676D01*
X161740282Y-75916171D01*
X161725984Y-75912318D01*
X161725982Y-75912318D01*
X161715218Y-75909417D01*
X161704260Y-75911471D01*
X161697153Y-75911194D01*
X161687696Y-75908399D01*
X161676690Y-75910188D01*
X161654696Y-75913763D01*
X161646586Y-75914740D01*
X161645548Y-75914822D01*
X161636453Y-75915538D01*
X161631151Y-75917195D01*
X161625690Y-75918249D01*
X161625676Y-75918177D01*
X161621828Y-75919086D01*
X161621734Y-75919122D01*
X161620114Y-75919385D01*
X161619984Y-75919438D01*
X161610410Y-75920789D01*
X161607079Y-75923013D01*
X161599844Y-75923403D01*
X161590077Y-75928769D01*
X161587112Y-75929615D01*
X161586711Y-75929786D01*
X161581911Y-75932580D01*
X161571268Y-75935905D01*
X161564814Y-75941934D01*
X161559660Y-75944036D01*
X161555106Y-75947229D01*
X161555102Y-75947231D01*
X161554583Y-75947595D01*
X161545450Y-75953283D01*
X161542827Y-75954725D01*
X161480377Y-75965865D01*
X161465937Y-75963688D01*
X161465241Y-75963583D01*
X161454222Y-75961922D01*
X161446553Y-75964285D01*
X161441180Y-75963679D01*
X161430657Y-75967356D01*
X161430656Y-75967356D01*
X161418622Y-75971561D01*
X161414743Y-75972607D01*
X161414783Y-75972737D01*
X161409471Y-75974394D01*
X161404015Y-75975445D01*
X161398931Y-75977683D01*
X161398927Y-75977684D01*
X161394502Y-75979632D01*
X161383781Y-75983629D01*
X161366803Y-75988861D01*
X161364598Y-75990905D01*
X161360610Y-75991751D01*
X161360660Y-75991819D01*
X161359815Y-75992447D01*
X161360719Y-75994501D01*
X161341509Y-76002955D01*
X161334264Y-76011423D01*
X161328161Y-76015956D01*
X161327644Y-76016456D01*
X161324025Y-76019349D01*
X161319326Y-76022309D01*
X161314291Y-76027355D01*
X161303297Y-76036862D01*
X161302691Y-76037313D01*
X161297851Y-76040126D01*
X161293768Y-76043949D01*
X161293766Y-76043951D01*
X161288515Y-76048869D01*
X161283559Y-76053209D01*
X161273787Y-76061208D01*
X161270380Y-76065593D01*
X161269036Y-76066971D01*
X161265826Y-76070117D01*
X161250780Y-76084208D01*
X161230035Y-76103616D01*
X161226610Y-76106674D01*
X161189930Y-76137921D01*
X161186962Y-76140352D01*
X161144604Y-76173692D01*
X161141414Y-76176100D01*
X161098810Y-76206932D01*
X161097389Y-76207941D01*
X161067428Y-76228830D01*
X161066307Y-76229550D01*
X161063066Y-76230999D01*
X161058592Y-76234376D01*
X161058591Y-76234376D01*
X161049379Y-76241328D01*
X161046361Y-76243518D01*
X161032447Y-76253218D01*
X161030063Y-76255841D01*
X161029027Y-76256685D01*
X161018547Y-76264594D01*
X161015013Y-76266881D01*
X161015069Y-76266960D01*
X161010491Y-76270194D01*
X161005582Y-76272888D01*
X161001402Y-76276614D01*
X160997700Y-76279914D01*
X160991461Y-76285034D01*
X160983168Y-76291292D01*
X160979586Y-76295544D01*
X160975555Y-76299364D01*
X160975496Y-76299302D01*
X160972570Y-76302311D01*
X160967201Y-76307097D01*
X160959510Y-76313292D01*
X160953174Y-76317895D01*
X160949495Y-76322118D01*
X160947856Y-76323619D01*
X160944882Y-76326627D01*
X160943266Y-76328430D01*
X160939122Y-76332124D01*
X160934527Y-76338580D01*
X160928528Y-76346191D01*
X160922085Y-76353588D01*
X160915916Y-76360056D01*
X160909235Y-76366455D01*
X160906160Y-76371138D01*
X160904006Y-76373728D01*
X160901950Y-76376705D01*
X160898304Y-76380891D01*
X160895679Y-76385785D01*
X160895676Y-76385790D01*
X160893887Y-76389125D01*
X160889404Y-76396663D01*
X160886490Y-76401102D01*
X160882350Y-76406584D01*
X160880318Y-76409556D01*
X160876658Y-76413791D01*
X160874042Y-76418736D01*
X160874036Y-76418744D01*
X160872602Y-76421454D01*
X160867862Y-76429474D01*
X160866268Y-76431903D01*
X160863215Y-76436554D01*
X160861273Y-76441765D01*
X160859738Y-76444797D01*
X160856871Y-76451189D01*
X160854628Y-76455428D01*
X160853949Y-76456603D01*
X160851708Y-76459405D01*
X160849282Y-76464446D01*
X160849279Y-76464450D01*
X160844998Y-76473344D01*
X160844000Y-76475251D01*
X160841485Y-76478712D01*
X160839290Y-76483869D01*
X160838966Y-76484441D01*
X160837831Y-76486824D01*
X160837292Y-76488195D01*
X160834695Y-76493103D01*
X160833765Y-76496563D01*
X160833216Y-76497822D01*
X160826580Y-76511609D01*
X160826022Y-76514055D01*
X160824815Y-76517008D01*
X160821968Y-76521625D01*
X160820172Y-76526930D01*
X160820171Y-76526931D01*
X160818309Y-76532428D01*
X160815633Y-76539443D01*
X160813407Y-76544672D01*
X160813405Y-76544678D01*
X160811233Y-76549781D01*
X160810250Y-76555241D01*
X160810047Y-76555920D01*
X160807846Y-76562373D01*
X160805388Y-76567089D01*
X160802372Y-76578691D01*
X160800332Y-76585514D01*
X160796551Y-76596680D01*
X160795984Y-76602202D01*
X160795451Y-76604650D01*
X160793683Y-76611234D01*
X160791852Y-76615298D01*
X160790754Y-76620789D01*
X160790753Y-76620792D01*
X160789057Y-76629274D01*
X160787800Y-76634749D01*
X160784254Y-76648388D01*
X160784099Y-76653531D01*
X160783459Y-76657264D01*
X160782256Y-76663281D01*
X160781908Y-76664741D01*
X160780512Y-76668198D01*
X160779632Y-76673730D01*
X160779632Y-76673731D01*
X160777867Y-76684830D01*
X160777173Y-76688697D01*
X160773906Y-76705032D01*
X160774006Y-76708756D01*
X160773823Y-76710254D01*
X160771326Y-76725948D01*
X160771214Y-76726497D01*
X160770353Y-76728797D01*
X160769622Y-76734293D01*
X160767854Y-76747579D01*
X160767490Y-76750069D01*
X160765405Y-76763176D01*
X160765404Y-76763187D01*
X160764535Y-76768651D01*
X160764699Y-76771106D01*
X160764647Y-76771685D01*
X160761043Y-76798768D01*
X160761005Y-76798974D01*
X160760497Y-76800398D01*
X160758515Y-76817279D01*
X160758111Y-76820715D01*
X160757924Y-76822213D01*
X160755242Y-76842370D01*
X160755381Y-76843873D01*
X160755366Y-76844094D01*
X160750529Y-76885287D01*
X160750514Y-76885377D01*
X160750231Y-76886190D01*
X160749980Y-76888500D01*
X160749979Y-76888506D01*
X160747910Y-76907550D01*
X160747814Y-76908398D01*
X160746272Y-76921536D01*
X160745330Y-76929558D01*
X160745422Y-76930415D01*
X160745417Y-76930498D01*
X160743953Y-76943977D01*
X160739115Y-76988510D01*
X160739112Y-76988529D01*
X160739048Y-76988714D01*
X160737462Y-77003583D01*
X160736635Y-77011339D01*
X160736614Y-77011529D01*
X160736202Y-77015321D01*
X160734234Y-77033444D01*
X160734256Y-77033636D01*
X160734256Y-77033641D01*
X160733596Y-77039832D01*
X160733547Y-77040285D01*
X160728249Y-77087906D01*
X160725535Y-77112294D01*
X160725373Y-77113657D01*
X160718848Y-77165651D01*
X160718618Y-77167480D01*
X160718266Y-77170021D01*
X160714712Y-77193357D01*
X160712214Y-77209763D01*
X160711556Y-77213580D01*
X160705626Y-77244371D01*
X160704679Y-77248751D01*
X160697687Y-77277887D01*
X160696722Y-77281589D01*
X160686925Y-77316422D01*
X160686282Y-77318613D01*
X160675977Y-77352197D01*
X160675877Y-77352471D01*
X160675363Y-77353381D01*
X160669465Y-77373268D01*
X160669082Y-77374528D01*
X160662966Y-77394150D01*
X160662860Y-77395508D01*
X160662820Y-77395671D01*
X160654126Y-77424984D01*
X160654043Y-77425221D01*
X160653249Y-77426684D01*
X160652147Y-77430644D01*
X160652144Y-77430653D01*
X160647822Y-77446185D01*
X160647360Y-77447794D01*
X160642822Y-77463095D01*
X160642820Y-77463104D01*
X160641655Y-77467032D01*
X160641549Y-77468690D01*
X160641490Y-77468949D01*
X160630660Y-77507872D01*
X160630602Y-77508048D01*
X160629953Y-77509284D01*
X160629047Y-77512728D01*
X160629047Y-77512729D01*
X160624702Y-77529251D01*
X160624333Y-77530614D01*
X160618843Y-77550345D01*
X160618777Y-77551740D01*
X160618737Y-77551930D01*
X160608405Y-77591217D01*
X160608328Y-77591462D01*
X160607579Y-77592950D01*
X160602744Y-77612694D01*
X160602358Y-77614211D01*
X160597250Y-77633633D01*
X160597195Y-77635298D01*
X160597146Y-77635549D01*
X160594943Y-77644543D01*
X160589784Y-77665609D01*
X160589752Y-77665715D01*
X160589294Y-77666651D01*
X160587687Y-77673525D01*
X160584481Y-77687239D01*
X160584239Y-77688248D01*
X160581350Y-77700048D01*
X160579224Y-77708730D01*
X160579217Y-77709153D01*
X160579008Y-77710274D01*
X160573762Y-77731545D01*
X160541472Y-77783514D01*
X160484800Y-77806579D01*
X160454716Y-77804146D01*
X160451222Y-77803315D01*
X160450482Y-77803135D01*
X160444529Y-77801662D01*
X160444459Y-77801641D01*
X160443648Y-77801240D01*
X160434046Y-77798958D01*
X160422813Y-77796288D01*
X160421941Y-77796076D01*
X160403669Y-77791558D01*
X160403667Y-77791558D01*
X160401311Y-77790975D01*
X160400412Y-77790958D01*
X160400328Y-77790943D01*
X160385623Y-77787448D01*
X160384763Y-77787206D01*
X160382028Y-77785959D01*
X160376545Y-77784837D01*
X160376543Y-77784836D01*
X160364308Y-77782332D01*
X160361269Y-77781660D01*
X160349286Y-77778812D01*
X160343879Y-77777527D01*
X160340879Y-77777500D01*
X160339981Y-77777353D01*
X160337183Y-77776781D01*
X160335584Y-77776453D01*
X160331599Y-77775524D01*
X160326654Y-77773612D01*
X160321111Y-77772814D01*
X160321108Y-77772813D01*
X160312828Y-77771621D01*
X160307098Y-77770623D01*
X160293588Y-77767858D01*
X160288920Y-77767962D01*
X160281758Y-77766975D01*
X160279637Y-77766580D01*
X160274281Y-77764940D01*
X160268694Y-77764542D01*
X160268693Y-77764542D01*
X160265973Y-77764348D01*
X160262309Y-77764088D01*
X160255246Y-77763329D01*
X160243525Y-77761641D01*
X160237978Y-77762093D01*
X160235689Y-77762022D01*
X160229042Y-77761492D01*
X160224843Y-77760459D01*
X160219240Y-77760374D01*
X160219236Y-77760373D01*
X160210429Y-77760239D01*
X160204914Y-77760001D01*
X160198264Y-77759528D01*
X160190704Y-77758990D01*
X160185701Y-77759763D01*
X160182141Y-77759809D01*
X160178330Y-77759751D01*
X160177701Y-77759714D01*
X160175159Y-77759161D01*
X160157443Y-77759369D01*
X160156453Y-77759381D01*
X160153782Y-77759377D01*
X160153041Y-77759366D01*
X160135189Y-77759094D01*
X160132649Y-77759633D01*
X160131988Y-77759669D01*
X160096998Y-77760080D01*
X160096654Y-77760084D01*
X160083399Y-77760194D01*
X160052886Y-77760446D01*
X160050168Y-77760430D01*
X160031128Y-77760058D01*
X160007355Y-77759592D01*
X160003143Y-77759420D01*
X159965384Y-77757070D01*
X159960655Y-77756661D01*
X159949833Y-77755465D01*
X159921380Y-77752318D01*
X159917109Y-77751751D01*
X159870307Y-77744502D01*
X159867086Y-77743949D01*
X159807985Y-77732786D01*
X159805893Y-77732368D01*
X159730910Y-77716525D01*
X159729821Y-77716288D01*
X159657337Y-77700042D01*
X159657329Y-77700040D01*
X159656902Y-77699838D01*
X159635386Y-77695121D01*
X159634986Y-77695032D01*
X159614785Y-77690505D01*
X159614780Y-77690504D01*
X159613503Y-77690218D01*
X159613042Y-77690220D01*
X159613006Y-77690214D01*
X159573636Y-77681583D01*
X159573028Y-77681422D01*
X159570683Y-77680388D01*
X159565179Y-77679334D01*
X159565170Y-77679331D01*
X159552185Y-77676844D01*
X159549619Y-77676318D01*
X159531449Y-77672334D01*
X159528887Y-77672356D01*
X159528278Y-77672266D01*
X159465422Y-77660227D01*
X159463569Y-77659805D01*
X159459768Y-77658324D01*
X159454236Y-77657514D01*
X159454230Y-77657512D01*
X159443719Y-77655973D01*
X159439444Y-77655251D01*
X159435420Y-77654480D01*
X159429145Y-77653278D01*
X159429144Y-77653278D01*
X159423688Y-77652233D01*
X159419616Y-77652376D01*
X159417708Y-77652163D01*
X159365688Y-77644543D01*
X159362279Y-77643943D01*
X159357498Y-77642379D01*
X159351920Y-77641875D01*
X159351918Y-77641875D01*
X159348124Y-77641533D01*
X159343066Y-77641076D01*
X159337623Y-77640432D01*
X159328968Y-77639164D01*
X159328964Y-77639164D01*
X159323470Y-77638359D01*
X159318466Y-77638754D01*
X159314962Y-77638538D01*
X159311163Y-77638195D01*
X159269766Y-77634457D01*
X159265553Y-77633962D01*
X159260369Y-77632603D01*
X159247888Y-77632223D01*
X159246535Y-77632182D01*
X159240643Y-77631827D01*
X159232557Y-77631097D01*
X159227021Y-77630597D01*
X159221718Y-77631313D01*
X159217393Y-77631295D01*
X159173509Y-77629959D01*
X159170340Y-77629768D01*
X159165549Y-77628783D01*
X159159946Y-77628913D01*
X159150801Y-77629125D01*
X159145495Y-77629106D01*
X159136491Y-77628832D01*
X159136489Y-77628832D01*
X159130932Y-77628663D01*
X159126139Y-77629604D01*
X159122933Y-77629772D01*
X159075226Y-77630879D01*
X159071215Y-77630863D01*
X159066006Y-77630105D01*
X159060427Y-77630561D01*
X159060424Y-77630561D01*
X159052008Y-77631249D01*
X159046244Y-77631551D01*
X159039233Y-77631714D01*
X159032394Y-77631873D01*
X159027301Y-77633160D01*
X159023259Y-77633601D01*
X159017426Y-77634078D01*
X158948473Y-77639716D01*
X158943974Y-77639772D01*
X158943974Y-77639778D01*
X158938377Y-77640092D01*
X158932787Y-77639772D01*
X158923234Y-77641402D01*
X158914664Y-77642481D01*
X158914350Y-77642507D01*
X158905173Y-77643257D01*
X158899874Y-77644930D01*
X158894498Y-77645985D01*
X158890050Y-77647062D01*
X158831649Y-77657023D01*
X158782665Y-77665377D01*
X158772555Y-77666483D01*
X158771664Y-77666629D01*
X158766078Y-77666903D01*
X158760697Y-77668421D01*
X158760687Y-77668423D01*
X158759447Y-77668773D01*
X158749222Y-77671082D01*
X158748451Y-77671213D01*
X158748089Y-77671275D01*
X158748088Y-77671275D01*
X158742615Y-77672209D01*
X158737486Y-77674336D01*
X158736757Y-77674547D01*
X158727064Y-77677913D01*
X158649368Y-77699838D01*
X158625186Y-77706662D01*
X158614421Y-77709061D01*
X158613960Y-77709137D01*
X158613958Y-77709137D01*
X158608430Y-77710050D01*
X158603239Y-77712182D01*
X158592781Y-77715790D01*
X158592646Y-77715845D01*
X158587302Y-77717353D01*
X158581900Y-77720300D01*
X158572108Y-77724963D01*
X158532034Y-77741417D01*
X158477899Y-77763644D01*
X158468465Y-77766971D01*
X158466517Y-77767549D01*
X158466512Y-77767551D01*
X158461144Y-77769144D01*
X158456272Y-77771898D01*
X158454506Y-77772648D01*
X158449921Y-77774875D01*
X158448060Y-77775896D01*
X158442915Y-77778008D01*
X158438372Y-77781210D01*
X158438369Y-77781211D01*
X158436604Y-77782455D01*
X158428298Y-77787711D01*
X158400657Y-77803336D01*
X158342256Y-77836349D01*
X158334400Y-77840340D01*
X158325778Y-77844247D01*
X158321325Y-77847643D01*
X158318579Y-77849283D01*
X158315742Y-77851337D01*
X158310900Y-77854074D01*
X158305075Y-77859379D01*
X158303844Y-77860500D01*
X158297218Y-77866025D01*
X158220032Y-77924885D01*
X158213914Y-77929195D01*
X158208983Y-77932397D01*
X158208980Y-77932399D01*
X158204286Y-77935447D01*
X158200392Y-77939471D01*
X158198961Y-77940649D01*
X158197396Y-77942147D01*
X158192979Y-77945516D01*
X158189421Y-77949783D01*
X158185576Y-77954394D01*
X158180686Y-77959836D01*
X158113557Y-78029210D01*
X158109124Y-78033514D01*
X158099166Y-78042596D01*
X158095991Y-78047185D01*
X158095511Y-78047706D01*
X158095054Y-78048332D01*
X158091269Y-78052243D01*
X158088387Y-78057001D01*
X158084247Y-78063835D01*
X158080979Y-78068878D01*
X158025662Y-78148814D01*
X158022665Y-78152916D01*
X158013413Y-78164919D01*
X158011292Y-78169537D01*
X158011154Y-78169777D01*
X158008365Y-78173808D01*
X158006301Y-78178959D01*
X158006299Y-78178963D01*
X158002691Y-78187968D01*
X158000763Y-78192456D01*
X157969313Y-78260919D01*
X157961016Y-78278980D01*
X157957934Y-78285116D01*
X157951987Y-78296001D01*
X157950471Y-78301394D01*
X157950008Y-78302530D01*
X157949525Y-78303995D01*
X157947207Y-78309040D01*
X157946069Y-78314476D01*
X157944646Y-78321273D01*
X157943050Y-78327788D01*
X157940428Y-78337113D01*
X157937136Y-78346849D01*
X157934477Y-78353546D01*
X157933629Y-78359078D01*
X157933286Y-78360343D01*
X157931823Y-78367109D01*
X157931585Y-78368567D01*
X157930081Y-78373917D01*
X157929805Y-78379465D01*
X157929718Y-78381202D01*
X157928702Y-78391249D01*
X157924429Y-78419138D01*
X157922150Y-78429815D01*
X157922102Y-78430118D01*
X157920618Y-78435512D01*
X157920380Y-78441104D01*
X157920347Y-78441874D01*
X157919295Y-78452654D01*
X157918356Y-78458787D01*
X157918757Y-78464324D01*
X157918750Y-78464494D01*
X157918914Y-78475524D01*
X157918350Y-78488767D01*
X157917671Y-78504715D01*
X157916579Y-78515477D01*
X157916560Y-78515884D01*
X157915671Y-78521404D01*
X150200500Y-78521404D01*
X150200500Y-77534281D01*
X150203057Y-77511926D01*
X150203141Y-77511565D01*
X150205655Y-77500718D01*
X150205656Y-77500000D01*
X150204413Y-77494549D01*
X150203791Y-77488995D01*
X150204159Y-77488954D01*
X150202438Y-77467973D01*
X150211469Y-77318656D01*
X150216905Y-77228797D01*
X150218345Y-77216936D01*
X150266241Y-76955578D01*
X150269100Y-76943977D01*
X150273300Y-76930501D01*
X150342306Y-76709053D01*
X150348148Y-76690305D01*
X150352387Y-76679127D01*
X150425188Y-76517369D01*
X150461437Y-76436827D01*
X150466992Y-76426244D01*
X150477536Y-76408803D01*
X150604452Y-76198858D01*
X150611243Y-76189020D01*
X150775103Y-75979868D01*
X150783030Y-75970919D01*
X150970919Y-75783030D01*
X150979868Y-75775103D01*
X151189020Y-75611243D01*
X151198858Y-75604452D01*
X151426244Y-75466992D01*
X151436830Y-75461436D01*
X151679127Y-75352387D01*
X151690305Y-75348148D01*
X151737756Y-75333361D01*
X151943985Y-75269098D01*
X151955578Y-75266241D01*
X152216944Y-75218344D01*
X152228796Y-75216905D01*
X152467712Y-75202453D01*
X152477628Y-75203276D01*
X152477628Y-75203138D01*
X152488776Y-75203158D01*
X152499641Y-75205656D01*
X152511641Y-75202941D01*
X152533488Y-75200500D01*
X167465983Y-75200500D01*
X167488169Y-75203018D01*
G37*
%TD.AperFunction*%
%TD*%
M02*
