%FSLAX45Y45*%
G04 Gerber Fmt 4.5, Leading zero omitted, Abs format (unit mm)*
G04 Created by KiCad (PCBNEW 6.0.1-79c1e3a40b~116~ubuntu20.04.1) date 2022-01-27 22:25:32*
%MOMM*%
%LPD*%
G01*
G04 APERTURE LIST*
%TA.AperFunction,Profile*%
%ADD10C,0.100000*%
%TD*%
%ADD11C,0.200000*%
%ADD12C,0.040000*%
%ADD13C,0.220000*%
G04 APERTURE END LIST*
D10*
X15250000Y-7500000D02*
X16750000Y-7500000D01*
X15000000Y-9250000D02*
X15000000Y-7750000D01*
X16750000Y-9500000D02*
X15250000Y-9500000D01*
X17000000Y-7750000D02*
X17000000Y-9250000D01*
X15000000Y-9250000D02*
G75*
G03*
X15250000Y-9500000I250000J0D01*
G01*
X16750000Y-9500000D02*
G75*
G03*
X17000000Y-9250000I0J250000D01*
G01*
X17000000Y-7750000D02*
G75*
G03*
X16750000Y-7500000I-250000J0D01*
G01*
X15250000Y-7500000D02*
G75*
G03*
X15000000Y-7750000I0J-250000D01*
G01*
D11*
D12*
X15230000Y-7980000D02*
X15270000Y-8020000D01*
X15270000Y-7980000D02*
X15230000Y-8020000D01*
X15230000Y-8230000D02*
X15270000Y-8270000D01*
X15270000Y-8230000D02*
X15230000Y-8270000D01*
X15230000Y-8730000D02*
X15270000Y-8770000D01*
X15270000Y-8730000D02*
X15230000Y-8770000D01*
X15230000Y-8980000D02*
X15270000Y-9020000D01*
X15270000Y-8980000D02*
X15230000Y-9020000D01*
X15280000Y-8330000D02*
X15320000Y-8370000D01*
X15320000Y-8330000D02*
X15280000Y-8370000D01*
X15280000Y-8630000D02*
X15320000Y-8670000D01*
X15320000Y-8630000D02*
X15280000Y-8670000D01*
X15330000Y-8380000D02*
X15370000Y-8420000D01*
X15370000Y-8380000D02*
X15330000Y-8420000D01*
X15330000Y-8580000D02*
X15370000Y-8620000D01*
X15370000Y-8580000D02*
X15330000Y-8620000D01*
X15380000Y-8330000D02*
X15420000Y-8370000D01*
X15420000Y-8330000D02*
X15380000Y-8370000D01*
X15380000Y-8630000D02*
X15420000Y-8670000D01*
X15420000Y-8630000D02*
X15380000Y-8670000D01*
X15430000Y-8380000D02*
X15470000Y-8420000D01*
X15470000Y-8380000D02*
X15430000Y-8420000D01*
X15430000Y-8580000D02*
X15470000Y-8620000D01*
X15470000Y-8580000D02*
X15430000Y-8620000D01*
X15480000Y-7730000D02*
X15520000Y-7770000D01*
X15520000Y-7730000D02*
X15480000Y-7770000D01*
X15480000Y-7980000D02*
X15520000Y-8020000D01*
X15520000Y-7980000D02*
X15480000Y-8020000D01*
X15480000Y-8230000D02*
X15520000Y-8270000D01*
X15520000Y-8230000D02*
X15480000Y-8270000D01*
X15480000Y-8330000D02*
X15520000Y-8370000D01*
X15520000Y-8330000D02*
X15480000Y-8370000D01*
X15480000Y-8630000D02*
X15520000Y-8670000D01*
X15520000Y-8630000D02*
X15480000Y-8670000D01*
X15480000Y-8730000D02*
X15520000Y-8770000D01*
X15520000Y-8730000D02*
X15480000Y-8770000D01*
X15480000Y-8980000D02*
X15520000Y-9020000D01*
X15520000Y-8980000D02*
X15480000Y-9020000D01*
X15480000Y-9230000D02*
X15520000Y-9270000D01*
X15520000Y-9230000D02*
X15480000Y-9270000D01*
X15530000Y-8380000D02*
X15570000Y-8420000D01*
X15570000Y-8380000D02*
X15530000Y-8420000D01*
X15530000Y-8580000D02*
X15570000Y-8620000D01*
X15570000Y-8580000D02*
X15530000Y-8620000D01*
X15580000Y-8330000D02*
X15620000Y-8370000D01*
X15620000Y-8330000D02*
X15580000Y-8370000D01*
X15580000Y-8630000D02*
X15620000Y-8670000D01*
X15620000Y-8630000D02*
X15580000Y-8670000D01*
X15630000Y-8380000D02*
X15670000Y-8420000D01*
X15670000Y-8380000D02*
X15630000Y-8420000D01*
X15630000Y-8580000D02*
X15670000Y-8620000D01*
X15670000Y-8580000D02*
X15630000Y-8620000D01*
X15680000Y-8330000D02*
X15720000Y-8370000D01*
X15720000Y-8330000D02*
X15680000Y-8370000D01*
X15680000Y-8630000D02*
X15720000Y-8670000D01*
X15720000Y-8630000D02*
X15680000Y-8670000D01*
X15730000Y-7730000D02*
X15770000Y-7770000D01*
X15770000Y-7730000D02*
X15730000Y-7770000D01*
X15730000Y-7980000D02*
X15770000Y-8020000D01*
X15770000Y-7980000D02*
X15730000Y-8020000D01*
X15730000Y-8230000D02*
X15770000Y-8270000D01*
X15770000Y-8230000D02*
X15730000Y-8270000D01*
X15730000Y-8380000D02*
X15770000Y-8420000D01*
X15770000Y-8380000D02*
X15730000Y-8420000D01*
X15730000Y-8580000D02*
X15770000Y-8620000D01*
X15770000Y-8580000D02*
X15730000Y-8620000D01*
X15730000Y-8730000D02*
X15770000Y-8770000D01*
X15770000Y-8730000D02*
X15730000Y-8770000D01*
X15730000Y-8980000D02*
X15770000Y-9020000D01*
X15770000Y-8980000D02*
X15730000Y-9020000D01*
X15730000Y-9230000D02*
X15770000Y-9270000D01*
X15770000Y-9230000D02*
X15730000Y-9270000D01*
X15780000Y-8330000D02*
X15820000Y-8370000D01*
X15820000Y-8330000D02*
X15780000Y-8370000D01*
X15780000Y-8630000D02*
X15820000Y-8670000D01*
X15820000Y-8630000D02*
X15780000Y-8670000D01*
X15830000Y-8380000D02*
X15870000Y-8420000D01*
X15870000Y-8380000D02*
X15830000Y-8420000D01*
X15830000Y-8580000D02*
X15870000Y-8620000D01*
X15870000Y-8580000D02*
X15830000Y-8620000D01*
X15830000Y-8680000D02*
X15870000Y-8720000D01*
X15870000Y-8680000D02*
X15830000Y-8720000D01*
X15830000Y-8780000D02*
X15870000Y-8820000D01*
X15870000Y-8780000D02*
X15830000Y-8820000D01*
X15830000Y-8880000D02*
X15870000Y-8920000D01*
X15870000Y-8880000D02*
X15830000Y-8920000D01*
X15830000Y-8980000D02*
X15870000Y-9020000D01*
X15870000Y-8980000D02*
X15830000Y-9020000D01*
X15830000Y-9080000D02*
X15870000Y-9120000D01*
X15870000Y-9080000D02*
X15830000Y-9120000D01*
X15830000Y-9180000D02*
X15870000Y-9220000D01*
X15870000Y-9180000D02*
X15830000Y-9220000D01*
X15880000Y-8330000D02*
X15920000Y-8370000D01*
X15920000Y-8330000D02*
X15880000Y-8370000D01*
X15880000Y-8630000D02*
X15920000Y-8670000D01*
X15920000Y-8630000D02*
X15880000Y-8670000D01*
X15880000Y-8730000D02*
X15920000Y-8770000D01*
X15920000Y-8730000D02*
X15880000Y-8770000D01*
X15880000Y-8830000D02*
X15920000Y-8870000D01*
X15920000Y-8830000D02*
X15880000Y-8870000D01*
X15880000Y-8930000D02*
X15920000Y-8970000D01*
X15920000Y-8930000D02*
X15880000Y-8970000D01*
X15880000Y-9030000D02*
X15920000Y-9070000D01*
X15920000Y-9030000D02*
X15880000Y-9070000D01*
X15880000Y-9130000D02*
X15920000Y-9170000D01*
X15920000Y-9130000D02*
X15880000Y-9170000D01*
X15930000Y-8380000D02*
X15970000Y-8420000D01*
X15970000Y-8380000D02*
X15930000Y-8420000D01*
X15980000Y-8230000D02*
X16020000Y-8270000D01*
X16020000Y-8230000D02*
X15980000Y-8270000D01*
X15980000Y-8330000D02*
X16020000Y-8370000D01*
X16020000Y-8330000D02*
X15980000Y-8370000D01*
X16030000Y-8380000D02*
X16070000Y-8420000D01*
X16070000Y-8380000D02*
X16030000Y-8420000D01*
X16080000Y-8330000D02*
X16120000Y-8370000D01*
X16120000Y-8330000D02*
X16080000Y-8370000D01*
X16080000Y-8430000D02*
X16120000Y-8470000D01*
X16120000Y-8430000D02*
X16080000Y-8470000D01*
X16080000Y-8530000D02*
X16120000Y-8570000D01*
X16120000Y-8530000D02*
X16080000Y-8570000D01*
X16080000Y-8630000D02*
X16120000Y-8670000D01*
X16120000Y-8630000D02*
X16080000Y-8670000D01*
X16080000Y-8730000D02*
X16120000Y-8770000D01*
X16120000Y-8730000D02*
X16080000Y-8770000D01*
X16080000Y-8830000D02*
X16120000Y-8870000D01*
X16120000Y-8830000D02*
X16080000Y-8870000D01*
X16080000Y-8930000D02*
X16120000Y-8970000D01*
X16120000Y-8930000D02*
X16080000Y-8970000D01*
X16080000Y-9030000D02*
X16120000Y-9070000D01*
X16120000Y-9030000D02*
X16080000Y-9070000D01*
X16080000Y-9130000D02*
X16120000Y-9170000D01*
X16120000Y-9130000D02*
X16080000Y-9170000D01*
X16130000Y-8380000D02*
X16170000Y-8420000D01*
X16170000Y-8380000D02*
X16130000Y-8420000D01*
X16130000Y-8480000D02*
X16170000Y-8520000D01*
X16170000Y-8480000D02*
X16130000Y-8520000D01*
X16130000Y-8580000D02*
X16170000Y-8620000D01*
X16170000Y-8580000D02*
X16130000Y-8620000D01*
X16130000Y-8680000D02*
X16170000Y-8720000D01*
X16170000Y-8680000D02*
X16130000Y-8720000D01*
X16130000Y-8780000D02*
X16170000Y-8820000D01*
X16170000Y-8780000D02*
X16130000Y-8820000D01*
X16130000Y-8880000D02*
X16170000Y-8920000D01*
X16170000Y-8880000D02*
X16130000Y-8920000D01*
X16130000Y-8980000D02*
X16170000Y-9020000D01*
X16170000Y-8980000D02*
X16130000Y-9020000D01*
X16130000Y-9080000D02*
X16170000Y-9120000D01*
X16170000Y-9080000D02*
X16130000Y-9120000D01*
X16130000Y-9180000D02*
X16170000Y-9220000D01*
X16170000Y-9180000D02*
X16130000Y-9220000D01*
X16230000Y-7730000D02*
X16270000Y-7770000D01*
X16270000Y-7730000D02*
X16230000Y-7770000D01*
X16230000Y-7980000D02*
X16270000Y-8020000D01*
X16270000Y-7980000D02*
X16230000Y-8020000D01*
X16230000Y-8230000D02*
X16270000Y-8270000D01*
X16270000Y-8230000D02*
X16230000Y-8270000D01*
X16230000Y-8480000D02*
X16270000Y-8520000D01*
X16270000Y-8480000D02*
X16230000Y-8520000D01*
X16230000Y-8730000D02*
X16270000Y-8770000D01*
X16270000Y-8730000D02*
X16230000Y-8770000D01*
X16230000Y-8980000D02*
X16270000Y-9020000D01*
X16270000Y-8980000D02*
X16230000Y-9020000D01*
X16230000Y-9230000D02*
X16270000Y-9270000D01*
X16270000Y-9230000D02*
X16230000Y-9270000D01*
X16480000Y-7730000D02*
X16520000Y-7770000D01*
X16520000Y-7730000D02*
X16480000Y-7770000D01*
X16480000Y-7980000D02*
X16520000Y-8020000D01*
X16520000Y-7980000D02*
X16480000Y-8020000D01*
X16480000Y-8230000D02*
X16520000Y-8270000D01*
X16520000Y-8230000D02*
X16480000Y-8270000D01*
X16480000Y-8480000D02*
X16520000Y-8520000D01*
X16520000Y-8480000D02*
X16480000Y-8520000D01*
X16480000Y-8730000D02*
X16520000Y-8770000D01*
X16520000Y-8730000D02*
X16480000Y-8770000D01*
X16480000Y-8980000D02*
X16520000Y-9020000D01*
X16520000Y-8980000D02*
X16480000Y-9020000D01*
X16480000Y-9230000D02*
X16520000Y-9270000D01*
X16520000Y-9230000D02*
X16480000Y-9270000D01*
X16730000Y-7980000D02*
X16770000Y-8020000D01*
X16770000Y-7980000D02*
X16730000Y-8020000D01*
X16730000Y-8230000D02*
X16770000Y-8270000D01*
X16770000Y-8230000D02*
X16730000Y-8270000D01*
X16730000Y-8480000D02*
X16770000Y-8520000D01*
X16770000Y-8480000D02*
X16730000Y-8520000D01*
X16730000Y-8730000D02*
X16770000Y-8770000D01*
X16770000Y-8730000D02*
X16730000Y-8770000D01*
X16730000Y-8980000D02*
X16770000Y-9020000D01*
X16770000Y-8980000D02*
X16730000Y-9020000D01*
X15070000Y-8400000D02*
G75*
G03*
X15070000Y-8400000I-20000J0D01*
G01*
X15070000Y-8600000D02*
G75*
G03*
X15070000Y-8600000I-20000J0D01*
G01*
X15120000Y-8340000D02*
G75*
G03*
X15120000Y-8340000I-20000J0D01*
G01*
X15120000Y-8650000D02*
G75*
G03*
X15120000Y-8650000I-20000J0D01*
G01*
X15170000Y-8400000D02*
G75*
G03*
X15170000Y-8400000I-20000J0D01*
G01*
X15170000Y-8600000D02*
G75*
G03*
X15170000Y-8600000I-20000J0D01*
G01*
X15220000Y-8350000D02*
G75*
G03*
X15220000Y-8350000I-20000J0D01*
G01*
X15220000Y-8650000D02*
G75*
G03*
X15220000Y-8650000I-20000J0D01*
G01*
X15270000Y-8400000D02*
G75*
G03*
X15270000Y-8400000I-20000J0D01*
G01*
X15270000Y-8600000D02*
G75*
G03*
X15270000Y-8600000I-20000J0D01*
G01*
X15860000Y-9400000D02*
G75*
G03*
X15860000Y-9400000I-20000J0D01*
G01*
X15870000Y-9300000D02*
G75*
G03*
X15870000Y-9300000I-20000J0D01*
G01*
X15920000Y-9250000D02*
G75*
G03*
X15920000Y-9250000I-20000J0D01*
G01*
X15920000Y-9350000D02*
G75*
G03*
X15920000Y-9350000I-20000J0D01*
G01*
X15920000Y-9450000D02*
G75*
G03*
X15920000Y-9450000I-20000J0D01*
G01*
X16120000Y-9250000D02*
G75*
G03*
X16120000Y-9250000I-20000J0D01*
G01*
X16120000Y-9350000D02*
G75*
G03*
X16120000Y-9350000I-20000J0D01*
G01*
X16120000Y-9450000D02*
G75*
G03*
X16120000Y-9450000I-20000J0D01*
G01*
X16170000Y-9300000D02*
G75*
G03*
X16170000Y-9300000I-20000J0D01*
G01*
X16170000Y-9400000D02*
G75*
G03*
X16170000Y-9400000I-20000J0D01*
G01*
D13*
X15250000Y-7640000D02*
X15250000Y-7860000D01*
X15140000Y-7750000D02*
X15360000Y-7750000D01*
X15250000Y-9140000D02*
X15250000Y-9360000D01*
X15140000Y-9250000D02*
X15360000Y-9250000D01*
X16750000Y-7640000D02*
X16750000Y-7860000D01*
X16640000Y-7750000D02*
X16860000Y-7750000D01*
X16750000Y-9140000D02*
X16750000Y-9360000D01*
X16640000Y-9250000D02*
X16860000Y-9250000D01*
D11*
X15252619Y-9815476D02*
X15252619Y-9615476D01*
X15300238Y-9615476D01*
X15328809Y-9625000D01*
X15347857Y-9644048D01*
X15357381Y-9663095D01*
X15366905Y-9701190D01*
X15366905Y-9729762D01*
X15357381Y-9767857D01*
X15347857Y-9786905D01*
X15328809Y-9805952D01*
X15300238Y-9815476D01*
X15252619Y-9815476D01*
X15452619Y-9815476D02*
X15452619Y-9682143D01*
X15452619Y-9720238D02*
X15462143Y-9701190D01*
X15471667Y-9691667D01*
X15490714Y-9682143D01*
X15509762Y-9682143D01*
X15576428Y-9815476D02*
X15576428Y-9682143D01*
X15576428Y-9615476D02*
X15566905Y-9625000D01*
X15576428Y-9634524D01*
X15585952Y-9625000D01*
X15576428Y-9615476D01*
X15576428Y-9634524D01*
X15700238Y-9815476D02*
X15681190Y-9805952D01*
X15671667Y-9786905D01*
X15671667Y-9615476D01*
X15805000Y-9815476D02*
X15785952Y-9805952D01*
X15776428Y-9786905D01*
X15776428Y-9615476D01*
X16033571Y-9815476D02*
X16033571Y-9615476D01*
X16100238Y-9758333D01*
X16166905Y-9615476D01*
X16166905Y-9815476D01*
X16347857Y-9815476D02*
X16347857Y-9710714D01*
X16338333Y-9691667D01*
X16319286Y-9682143D01*
X16281190Y-9682143D01*
X16262143Y-9691667D01*
X16347857Y-9805952D02*
X16328809Y-9815476D01*
X16281190Y-9815476D01*
X16262143Y-9805952D01*
X16252619Y-9786905D01*
X16252619Y-9767857D01*
X16262143Y-9748810D01*
X16281190Y-9739286D01*
X16328809Y-9739286D01*
X16347857Y-9729762D01*
X16443095Y-9682143D02*
X16443095Y-9882143D01*
X16443095Y-9691667D02*
X16462143Y-9682143D01*
X16500238Y-9682143D01*
X16519286Y-9691667D01*
X16528809Y-9701190D01*
X16538333Y-9720238D01*
X16538333Y-9777381D01*
X16528809Y-9796429D01*
X16519286Y-9805952D01*
X16500238Y-9815476D01*
X16462143Y-9815476D01*
X16443095Y-9805952D01*
X16624048Y-9796429D02*
X16633571Y-9805952D01*
X16624048Y-9815476D01*
X16614524Y-9805952D01*
X16624048Y-9796429D01*
X16624048Y-9815476D01*
X16624048Y-9691667D02*
X16633571Y-9701190D01*
X16624048Y-9710714D01*
X16614524Y-9701190D01*
X16624048Y-9691667D01*
X16624048Y-9710714D01*
D12*
X14955000Y-10125000D02*
X14995000Y-10165000D01*
X14995000Y-10125000D02*
X14955000Y-10165000D01*
D11*
X15290714Y-10035476D02*
X15309762Y-10035476D01*
X15328809Y-10045000D01*
X15338333Y-10054524D01*
X15347857Y-10073571D01*
X15357381Y-10111667D01*
X15357381Y-10159286D01*
X15347857Y-10197381D01*
X15338333Y-10216429D01*
X15328809Y-10225952D01*
X15309762Y-10235476D01*
X15290714Y-10235476D01*
X15271667Y-10225952D01*
X15262143Y-10216429D01*
X15252619Y-10197381D01*
X15243095Y-10159286D01*
X15243095Y-10111667D01*
X15252619Y-10073571D01*
X15262143Y-10054524D01*
X15271667Y-10045000D01*
X15290714Y-10035476D01*
X15443095Y-10216429D02*
X15452619Y-10225952D01*
X15443095Y-10235476D01*
X15433571Y-10225952D01*
X15443095Y-10216429D01*
X15443095Y-10235476D01*
X15624048Y-10102143D02*
X15624048Y-10235476D01*
X15576428Y-10025952D02*
X15528809Y-10168810D01*
X15652619Y-10168810D01*
X15766905Y-10035476D02*
X15785952Y-10035476D01*
X15805000Y-10045000D01*
X15814524Y-10054524D01*
X15824048Y-10073571D01*
X15833571Y-10111667D01*
X15833571Y-10159286D01*
X15824048Y-10197381D01*
X15814524Y-10216429D01*
X15805000Y-10225952D01*
X15785952Y-10235476D01*
X15766905Y-10235476D01*
X15747857Y-10225952D01*
X15738333Y-10216429D01*
X15728809Y-10197381D01*
X15719286Y-10159286D01*
X15719286Y-10111667D01*
X15728809Y-10073571D01*
X15738333Y-10054524D01*
X15747857Y-10045000D01*
X15766905Y-10035476D01*
X15957381Y-10035476D02*
X15976428Y-10035476D01*
X15995476Y-10045000D01*
X16005000Y-10054524D01*
X16014524Y-10073571D01*
X16024048Y-10111667D01*
X16024048Y-10159286D01*
X16014524Y-10197381D01*
X16005000Y-10216429D01*
X15995476Y-10225952D01*
X15976428Y-10235476D01*
X15957381Y-10235476D01*
X15938333Y-10225952D01*
X15928809Y-10216429D01*
X15919286Y-10197381D01*
X15909762Y-10159286D01*
X15909762Y-10111667D01*
X15919286Y-10073571D01*
X15928809Y-10054524D01*
X15938333Y-10045000D01*
X15957381Y-10035476D01*
X16109762Y-10235476D02*
X16109762Y-10102143D01*
X16109762Y-10121190D02*
X16119286Y-10111667D01*
X16138333Y-10102143D01*
X16166905Y-10102143D01*
X16185952Y-10111667D01*
X16195476Y-10130714D01*
X16195476Y-10235476D01*
X16195476Y-10130714D02*
X16205000Y-10111667D01*
X16224048Y-10102143D01*
X16252619Y-10102143D01*
X16271667Y-10111667D01*
X16281190Y-10130714D01*
X16281190Y-10235476D01*
X16376428Y-10235476D02*
X16376428Y-10102143D01*
X16376428Y-10121190D02*
X16385952Y-10111667D01*
X16405000Y-10102143D01*
X16433571Y-10102143D01*
X16452619Y-10111667D01*
X16462143Y-10130714D01*
X16462143Y-10235476D01*
X16462143Y-10130714D02*
X16471667Y-10111667D01*
X16490714Y-10102143D01*
X16519286Y-10102143D01*
X16538333Y-10111667D01*
X16547857Y-10130714D01*
X16547857Y-10235476D01*
X16938333Y-10025952D02*
X16766905Y-10283095D01*
X17195476Y-10035476D02*
X17214524Y-10035476D01*
X17233571Y-10045000D01*
X17243095Y-10054524D01*
X17252619Y-10073571D01*
X17262143Y-10111667D01*
X17262143Y-10159286D01*
X17252619Y-10197381D01*
X17243095Y-10216429D01*
X17233571Y-10225952D01*
X17214524Y-10235476D01*
X17195476Y-10235476D01*
X17176429Y-10225952D01*
X17166905Y-10216429D01*
X17157381Y-10197381D01*
X17147857Y-10159286D01*
X17147857Y-10111667D01*
X17157381Y-10073571D01*
X17166905Y-10054524D01*
X17176429Y-10045000D01*
X17195476Y-10035476D01*
X17347857Y-10216429D02*
X17357381Y-10225952D01*
X17347857Y-10235476D01*
X17338333Y-10225952D01*
X17347857Y-10216429D01*
X17347857Y-10235476D01*
X17481190Y-10035476D02*
X17500238Y-10035476D01*
X17519286Y-10045000D01*
X17528810Y-10054524D01*
X17538333Y-10073571D01*
X17547857Y-10111667D01*
X17547857Y-10159286D01*
X17538333Y-10197381D01*
X17528810Y-10216429D01*
X17519286Y-10225952D01*
X17500238Y-10235476D01*
X17481190Y-10235476D01*
X17462143Y-10225952D01*
X17452619Y-10216429D01*
X17443095Y-10197381D01*
X17433571Y-10159286D01*
X17433571Y-10111667D01*
X17443095Y-10073571D01*
X17452619Y-10054524D01*
X17462143Y-10045000D01*
X17481190Y-10035476D01*
X17738333Y-10235476D02*
X17624048Y-10235476D01*
X17681190Y-10235476D02*
X17681190Y-10035476D01*
X17662143Y-10064048D01*
X17643095Y-10083095D01*
X17624048Y-10092619D01*
X17919286Y-10035476D02*
X17824048Y-10035476D01*
X17814524Y-10130714D01*
X17824048Y-10121190D01*
X17843095Y-10111667D01*
X17890714Y-10111667D01*
X17909762Y-10121190D01*
X17919286Y-10130714D01*
X17928810Y-10149762D01*
X17928810Y-10197381D01*
X17919286Y-10216429D01*
X17909762Y-10225952D01*
X17890714Y-10235476D01*
X17843095Y-10235476D01*
X17824048Y-10225952D01*
X17814524Y-10216429D01*
X17995476Y-10035476D02*
X18128810Y-10035476D01*
X18043095Y-10235476D01*
X18195476Y-10035476D02*
X18195476Y-10073571D01*
X18271667Y-10035476D02*
X18271667Y-10073571D01*
X18566905Y-10311667D02*
X18557381Y-10302143D01*
X18538333Y-10273571D01*
X18528810Y-10254524D01*
X18519286Y-10225952D01*
X18509762Y-10178333D01*
X18509762Y-10140238D01*
X18519286Y-10092619D01*
X18528810Y-10064048D01*
X18538333Y-10045000D01*
X18557381Y-10016429D01*
X18566905Y-10006905D01*
X18652619Y-10235476D02*
X18690714Y-10235476D01*
X18709762Y-10225952D01*
X18719286Y-10216429D01*
X18738333Y-10187857D01*
X18747857Y-10149762D01*
X18747857Y-10073571D01*
X18738333Y-10054524D01*
X18728810Y-10045000D01*
X18709762Y-10035476D01*
X18671667Y-10035476D01*
X18652619Y-10045000D01*
X18643095Y-10054524D01*
X18633571Y-10073571D01*
X18633571Y-10121190D01*
X18643095Y-10140238D01*
X18652619Y-10149762D01*
X18671667Y-10159286D01*
X18709762Y-10159286D01*
X18728810Y-10149762D01*
X18738333Y-10140238D01*
X18747857Y-10121190D01*
X18919286Y-10102143D02*
X18919286Y-10235476D01*
X18871667Y-10025952D02*
X18824048Y-10168810D01*
X18947857Y-10168810D01*
X19176429Y-10235476D02*
X19176429Y-10035476D01*
X19262143Y-10235476D02*
X19262143Y-10130714D01*
X19252619Y-10111667D01*
X19233571Y-10102143D01*
X19205000Y-10102143D01*
X19185952Y-10111667D01*
X19176429Y-10121190D01*
X19385952Y-10235476D02*
X19366905Y-10225952D01*
X19357381Y-10216429D01*
X19347857Y-10197381D01*
X19347857Y-10140238D01*
X19357381Y-10121190D01*
X19366905Y-10111667D01*
X19385952Y-10102143D01*
X19414524Y-10102143D01*
X19433571Y-10111667D01*
X19443095Y-10121190D01*
X19452619Y-10140238D01*
X19452619Y-10197381D01*
X19443095Y-10216429D01*
X19433571Y-10225952D01*
X19414524Y-10235476D01*
X19385952Y-10235476D01*
X19566905Y-10235476D02*
X19547857Y-10225952D01*
X19538333Y-10206905D01*
X19538333Y-10035476D01*
X19719286Y-10225952D02*
X19700238Y-10235476D01*
X19662143Y-10235476D01*
X19643095Y-10225952D01*
X19633571Y-10206905D01*
X19633571Y-10130714D01*
X19643095Y-10111667D01*
X19662143Y-10102143D01*
X19700238Y-10102143D01*
X19719286Y-10111667D01*
X19728810Y-10130714D01*
X19728810Y-10149762D01*
X19633571Y-10168810D01*
X19805000Y-10225952D02*
X19824048Y-10235476D01*
X19862143Y-10235476D01*
X19881190Y-10225952D01*
X19890714Y-10206905D01*
X19890714Y-10197381D01*
X19881190Y-10178333D01*
X19862143Y-10168810D01*
X19833571Y-10168810D01*
X19814524Y-10159286D01*
X19805000Y-10140238D01*
X19805000Y-10130714D01*
X19814524Y-10111667D01*
X19833571Y-10102143D01*
X19862143Y-10102143D01*
X19881190Y-10111667D01*
X19957381Y-10311667D02*
X19966905Y-10302143D01*
X19985952Y-10273571D01*
X19995476Y-10254524D01*
X20005000Y-10225952D01*
X20014524Y-10178333D01*
X20014524Y-10140238D01*
X20005000Y-10092619D01*
X19995476Y-10064048D01*
X19985952Y-10045000D01*
X19966905Y-10016429D01*
X19957381Y-10006905D01*
D12*
X14995000Y-10409000D02*
G75*
G03*
X14995000Y-10409000I-20000J0D01*
G01*
D11*
X15290714Y-10299476D02*
X15309762Y-10299476D01*
X15328809Y-10309000D01*
X15338333Y-10318524D01*
X15347857Y-10337571D01*
X15357381Y-10375667D01*
X15357381Y-10423286D01*
X15347857Y-10461381D01*
X15338333Y-10480429D01*
X15328809Y-10489952D01*
X15309762Y-10499476D01*
X15290714Y-10499476D01*
X15271667Y-10489952D01*
X15262143Y-10480429D01*
X15252619Y-10461381D01*
X15243095Y-10423286D01*
X15243095Y-10375667D01*
X15252619Y-10337571D01*
X15262143Y-10318524D01*
X15271667Y-10309000D01*
X15290714Y-10299476D01*
X15443095Y-10480429D02*
X15452619Y-10489952D01*
X15443095Y-10499476D01*
X15433571Y-10489952D01*
X15443095Y-10480429D01*
X15443095Y-10499476D01*
X15624048Y-10366143D02*
X15624048Y-10499476D01*
X15576428Y-10289952D02*
X15528809Y-10432810D01*
X15652619Y-10432810D01*
X15766905Y-10299476D02*
X15785952Y-10299476D01*
X15805000Y-10309000D01*
X15814524Y-10318524D01*
X15824048Y-10337571D01*
X15833571Y-10375667D01*
X15833571Y-10423286D01*
X15824048Y-10461381D01*
X15814524Y-10480429D01*
X15805000Y-10489952D01*
X15785952Y-10499476D01*
X15766905Y-10499476D01*
X15747857Y-10489952D01*
X15738333Y-10480429D01*
X15728809Y-10461381D01*
X15719286Y-10423286D01*
X15719286Y-10375667D01*
X15728809Y-10337571D01*
X15738333Y-10318524D01*
X15747857Y-10309000D01*
X15766905Y-10299476D01*
X15957381Y-10299476D02*
X15976428Y-10299476D01*
X15995476Y-10309000D01*
X16005000Y-10318524D01*
X16014524Y-10337571D01*
X16024048Y-10375667D01*
X16024048Y-10423286D01*
X16014524Y-10461381D01*
X16005000Y-10480429D01*
X15995476Y-10489952D01*
X15976428Y-10499476D01*
X15957381Y-10499476D01*
X15938333Y-10489952D01*
X15928809Y-10480429D01*
X15919286Y-10461381D01*
X15909762Y-10423286D01*
X15909762Y-10375667D01*
X15919286Y-10337571D01*
X15928809Y-10318524D01*
X15938333Y-10309000D01*
X15957381Y-10299476D01*
X16109762Y-10499476D02*
X16109762Y-10366143D01*
X16109762Y-10385190D02*
X16119286Y-10375667D01*
X16138333Y-10366143D01*
X16166905Y-10366143D01*
X16185952Y-10375667D01*
X16195476Y-10394714D01*
X16195476Y-10499476D01*
X16195476Y-10394714D02*
X16205000Y-10375667D01*
X16224048Y-10366143D01*
X16252619Y-10366143D01*
X16271667Y-10375667D01*
X16281190Y-10394714D01*
X16281190Y-10499476D01*
X16376428Y-10499476D02*
X16376428Y-10366143D01*
X16376428Y-10385190D02*
X16385952Y-10375667D01*
X16405000Y-10366143D01*
X16433571Y-10366143D01*
X16452619Y-10375667D01*
X16462143Y-10394714D01*
X16462143Y-10499476D01*
X16462143Y-10394714D02*
X16471667Y-10375667D01*
X16490714Y-10366143D01*
X16519286Y-10366143D01*
X16538333Y-10375667D01*
X16547857Y-10394714D01*
X16547857Y-10499476D01*
X16938333Y-10289952D02*
X16766905Y-10547095D01*
X17195476Y-10299476D02*
X17214524Y-10299476D01*
X17233571Y-10309000D01*
X17243095Y-10318524D01*
X17252619Y-10337571D01*
X17262143Y-10375667D01*
X17262143Y-10423286D01*
X17252619Y-10461381D01*
X17243095Y-10480429D01*
X17233571Y-10489952D01*
X17214524Y-10499476D01*
X17195476Y-10499476D01*
X17176429Y-10489952D01*
X17166905Y-10480429D01*
X17157381Y-10461381D01*
X17147857Y-10423286D01*
X17147857Y-10375667D01*
X17157381Y-10337571D01*
X17166905Y-10318524D01*
X17176429Y-10309000D01*
X17195476Y-10299476D01*
X17347857Y-10480429D02*
X17357381Y-10489952D01*
X17347857Y-10499476D01*
X17338333Y-10489952D01*
X17347857Y-10480429D01*
X17347857Y-10499476D01*
X17481190Y-10299476D02*
X17500238Y-10299476D01*
X17519286Y-10309000D01*
X17528810Y-10318524D01*
X17538333Y-10337571D01*
X17547857Y-10375667D01*
X17547857Y-10423286D01*
X17538333Y-10461381D01*
X17528810Y-10480429D01*
X17519286Y-10489952D01*
X17500238Y-10499476D01*
X17481190Y-10499476D01*
X17462143Y-10489952D01*
X17452619Y-10480429D01*
X17443095Y-10461381D01*
X17433571Y-10423286D01*
X17433571Y-10375667D01*
X17443095Y-10337571D01*
X17452619Y-10318524D01*
X17462143Y-10309000D01*
X17481190Y-10299476D01*
X17738333Y-10499476D02*
X17624048Y-10499476D01*
X17681190Y-10499476D02*
X17681190Y-10299476D01*
X17662143Y-10328048D01*
X17643095Y-10347095D01*
X17624048Y-10356619D01*
X17919286Y-10299476D02*
X17824048Y-10299476D01*
X17814524Y-10394714D01*
X17824048Y-10385190D01*
X17843095Y-10375667D01*
X17890714Y-10375667D01*
X17909762Y-10385190D01*
X17919286Y-10394714D01*
X17928810Y-10413762D01*
X17928810Y-10461381D01*
X17919286Y-10480429D01*
X17909762Y-10489952D01*
X17890714Y-10499476D01*
X17843095Y-10499476D01*
X17824048Y-10489952D01*
X17814524Y-10480429D01*
X17995476Y-10299476D02*
X18128810Y-10299476D01*
X18043095Y-10499476D01*
X18195476Y-10299476D02*
X18195476Y-10337571D01*
X18271667Y-10299476D02*
X18271667Y-10337571D01*
X18566905Y-10575667D02*
X18557381Y-10566143D01*
X18538333Y-10537571D01*
X18528810Y-10518524D01*
X18519286Y-10489952D01*
X18509762Y-10442333D01*
X18509762Y-10404238D01*
X18519286Y-10356619D01*
X18528810Y-10328048D01*
X18538333Y-10309000D01*
X18557381Y-10280429D01*
X18566905Y-10270905D01*
X18633571Y-10318524D02*
X18643095Y-10309000D01*
X18662143Y-10299476D01*
X18709762Y-10299476D01*
X18728810Y-10309000D01*
X18738333Y-10318524D01*
X18747857Y-10337571D01*
X18747857Y-10356619D01*
X18738333Y-10385190D01*
X18624048Y-10499476D01*
X18747857Y-10499476D01*
X18871667Y-10299476D02*
X18890714Y-10299476D01*
X18909762Y-10309000D01*
X18919286Y-10318524D01*
X18928810Y-10337571D01*
X18938333Y-10375667D01*
X18938333Y-10423286D01*
X18928810Y-10461381D01*
X18919286Y-10480429D01*
X18909762Y-10489952D01*
X18890714Y-10499476D01*
X18871667Y-10499476D01*
X18852619Y-10489952D01*
X18843095Y-10480429D01*
X18833571Y-10461381D01*
X18824048Y-10423286D01*
X18824048Y-10375667D01*
X18833571Y-10337571D01*
X18843095Y-10318524D01*
X18852619Y-10309000D01*
X18871667Y-10299476D01*
X19176429Y-10499476D02*
X19176429Y-10299476D01*
X19262143Y-10499476D02*
X19262143Y-10394714D01*
X19252619Y-10375667D01*
X19233571Y-10366143D01*
X19205000Y-10366143D01*
X19185952Y-10375667D01*
X19176429Y-10385190D01*
X19385952Y-10499476D02*
X19366905Y-10489952D01*
X19357381Y-10480429D01*
X19347857Y-10461381D01*
X19347857Y-10404238D01*
X19357381Y-10385190D01*
X19366905Y-10375667D01*
X19385952Y-10366143D01*
X19414524Y-10366143D01*
X19433571Y-10375667D01*
X19443095Y-10385190D01*
X19452619Y-10404238D01*
X19452619Y-10461381D01*
X19443095Y-10480429D01*
X19433571Y-10489952D01*
X19414524Y-10499476D01*
X19385952Y-10499476D01*
X19566905Y-10499476D02*
X19547857Y-10489952D01*
X19538333Y-10470905D01*
X19538333Y-10299476D01*
X19719286Y-10489952D02*
X19700238Y-10499476D01*
X19662143Y-10499476D01*
X19643095Y-10489952D01*
X19633571Y-10470905D01*
X19633571Y-10394714D01*
X19643095Y-10375667D01*
X19662143Y-10366143D01*
X19700238Y-10366143D01*
X19719286Y-10375667D01*
X19728810Y-10394714D01*
X19728810Y-10413762D01*
X19633571Y-10432810D01*
X19805000Y-10489952D02*
X19824048Y-10499476D01*
X19862143Y-10499476D01*
X19881190Y-10489952D01*
X19890714Y-10470905D01*
X19890714Y-10461381D01*
X19881190Y-10442333D01*
X19862143Y-10432810D01*
X19833571Y-10432810D01*
X19814524Y-10423286D01*
X19805000Y-10404238D01*
X19805000Y-10394714D01*
X19814524Y-10375667D01*
X19833571Y-10366143D01*
X19862143Y-10366143D01*
X19881190Y-10375667D01*
X19957381Y-10575667D02*
X19966905Y-10566143D01*
X19985952Y-10537571D01*
X19995476Y-10518524D01*
X20005000Y-10489952D01*
X20014524Y-10442333D01*
X20014524Y-10404238D01*
X20005000Y-10356619D01*
X19995476Y-10328048D01*
X19985952Y-10309000D01*
X19966905Y-10280429D01*
X19957381Y-10270905D01*
X14895000Y-10573000D02*
X14895000Y-10773000D01*
X14795000Y-10673000D02*
X14995000Y-10673000D01*
X15243095Y-10582524D02*
X15252619Y-10573000D01*
X15271667Y-10563476D01*
X15319286Y-10563476D01*
X15338333Y-10573000D01*
X15347857Y-10582524D01*
X15357381Y-10601571D01*
X15357381Y-10620619D01*
X15347857Y-10649190D01*
X15233571Y-10763476D01*
X15357381Y-10763476D01*
X15443095Y-10744429D02*
X15452619Y-10753952D01*
X15443095Y-10763476D01*
X15433571Y-10753952D01*
X15443095Y-10744429D01*
X15443095Y-10763476D01*
X15528809Y-10582524D02*
X15538333Y-10573000D01*
X15557381Y-10563476D01*
X15605000Y-10563476D01*
X15624048Y-10573000D01*
X15633571Y-10582524D01*
X15643095Y-10601571D01*
X15643095Y-10620619D01*
X15633571Y-10649190D01*
X15519286Y-10763476D01*
X15643095Y-10763476D01*
X15766905Y-10563476D02*
X15785952Y-10563476D01*
X15805000Y-10573000D01*
X15814524Y-10582524D01*
X15824048Y-10601571D01*
X15833571Y-10639667D01*
X15833571Y-10687286D01*
X15824048Y-10725381D01*
X15814524Y-10744429D01*
X15805000Y-10753952D01*
X15785952Y-10763476D01*
X15766905Y-10763476D01*
X15747857Y-10753952D01*
X15738333Y-10744429D01*
X15728809Y-10725381D01*
X15719286Y-10687286D01*
X15719286Y-10639667D01*
X15728809Y-10601571D01*
X15738333Y-10582524D01*
X15747857Y-10573000D01*
X15766905Y-10563476D01*
X15957381Y-10563476D02*
X15976428Y-10563476D01*
X15995476Y-10573000D01*
X16005000Y-10582524D01*
X16014524Y-10601571D01*
X16024048Y-10639667D01*
X16024048Y-10687286D01*
X16014524Y-10725381D01*
X16005000Y-10744429D01*
X15995476Y-10753952D01*
X15976428Y-10763476D01*
X15957381Y-10763476D01*
X15938333Y-10753952D01*
X15928809Y-10744429D01*
X15919286Y-10725381D01*
X15909762Y-10687286D01*
X15909762Y-10639667D01*
X15919286Y-10601571D01*
X15928809Y-10582524D01*
X15938333Y-10573000D01*
X15957381Y-10563476D01*
X16109762Y-10763476D02*
X16109762Y-10630143D01*
X16109762Y-10649190D02*
X16119286Y-10639667D01*
X16138333Y-10630143D01*
X16166905Y-10630143D01*
X16185952Y-10639667D01*
X16195476Y-10658714D01*
X16195476Y-10763476D01*
X16195476Y-10658714D02*
X16205000Y-10639667D01*
X16224048Y-10630143D01*
X16252619Y-10630143D01*
X16271667Y-10639667D01*
X16281190Y-10658714D01*
X16281190Y-10763476D01*
X16376428Y-10763476D02*
X16376428Y-10630143D01*
X16376428Y-10649190D02*
X16385952Y-10639667D01*
X16405000Y-10630143D01*
X16433571Y-10630143D01*
X16452619Y-10639667D01*
X16462143Y-10658714D01*
X16462143Y-10763476D01*
X16462143Y-10658714D02*
X16471667Y-10639667D01*
X16490714Y-10630143D01*
X16519286Y-10630143D01*
X16538333Y-10639667D01*
X16547857Y-10658714D01*
X16547857Y-10763476D01*
X16938333Y-10553952D02*
X16766905Y-10811095D01*
X17195476Y-10563476D02*
X17214524Y-10563476D01*
X17233571Y-10573000D01*
X17243095Y-10582524D01*
X17252619Y-10601571D01*
X17262143Y-10639667D01*
X17262143Y-10687286D01*
X17252619Y-10725381D01*
X17243095Y-10744429D01*
X17233571Y-10753952D01*
X17214524Y-10763476D01*
X17195476Y-10763476D01*
X17176429Y-10753952D01*
X17166905Y-10744429D01*
X17157381Y-10725381D01*
X17147857Y-10687286D01*
X17147857Y-10639667D01*
X17157381Y-10601571D01*
X17166905Y-10582524D01*
X17176429Y-10573000D01*
X17195476Y-10563476D01*
X17347857Y-10744429D02*
X17357381Y-10753952D01*
X17347857Y-10763476D01*
X17338333Y-10753952D01*
X17347857Y-10744429D01*
X17347857Y-10763476D01*
X17481190Y-10563476D02*
X17500238Y-10563476D01*
X17519286Y-10573000D01*
X17528810Y-10582524D01*
X17538333Y-10601571D01*
X17547857Y-10639667D01*
X17547857Y-10687286D01*
X17538333Y-10725381D01*
X17528810Y-10744429D01*
X17519286Y-10753952D01*
X17500238Y-10763476D01*
X17481190Y-10763476D01*
X17462143Y-10753952D01*
X17452619Y-10744429D01*
X17443095Y-10725381D01*
X17433571Y-10687286D01*
X17433571Y-10639667D01*
X17443095Y-10601571D01*
X17452619Y-10582524D01*
X17462143Y-10573000D01*
X17481190Y-10563476D01*
X17662143Y-10649190D02*
X17643095Y-10639667D01*
X17633571Y-10630143D01*
X17624048Y-10611095D01*
X17624048Y-10601571D01*
X17633571Y-10582524D01*
X17643095Y-10573000D01*
X17662143Y-10563476D01*
X17700238Y-10563476D01*
X17719286Y-10573000D01*
X17728810Y-10582524D01*
X17738333Y-10601571D01*
X17738333Y-10611095D01*
X17728810Y-10630143D01*
X17719286Y-10639667D01*
X17700238Y-10649190D01*
X17662143Y-10649190D01*
X17643095Y-10658714D01*
X17633571Y-10668238D01*
X17624048Y-10687286D01*
X17624048Y-10725381D01*
X17633571Y-10744429D01*
X17643095Y-10753952D01*
X17662143Y-10763476D01*
X17700238Y-10763476D01*
X17719286Y-10753952D01*
X17728810Y-10744429D01*
X17738333Y-10725381D01*
X17738333Y-10687286D01*
X17728810Y-10668238D01*
X17719286Y-10658714D01*
X17700238Y-10649190D01*
X17909762Y-10563476D02*
X17871667Y-10563476D01*
X17852619Y-10573000D01*
X17843095Y-10582524D01*
X17824048Y-10611095D01*
X17814524Y-10649190D01*
X17814524Y-10725381D01*
X17824048Y-10744429D01*
X17833571Y-10753952D01*
X17852619Y-10763476D01*
X17890714Y-10763476D01*
X17909762Y-10753952D01*
X17919286Y-10744429D01*
X17928810Y-10725381D01*
X17928810Y-10677762D01*
X17919286Y-10658714D01*
X17909762Y-10649190D01*
X17890714Y-10639667D01*
X17852619Y-10639667D01*
X17833571Y-10649190D01*
X17824048Y-10658714D01*
X17814524Y-10677762D01*
X18100238Y-10563476D02*
X18062143Y-10563476D01*
X18043095Y-10573000D01*
X18033571Y-10582524D01*
X18014524Y-10611095D01*
X18005000Y-10649190D01*
X18005000Y-10725381D01*
X18014524Y-10744429D01*
X18024048Y-10753952D01*
X18043095Y-10763476D01*
X18081190Y-10763476D01*
X18100238Y-10753952D01*
X18109762Y-10744429D01*
X18119286Y-10725381D01*
X18119286Y-10677762D01*
X18109762Y-10658714D01*
X18100238Y-10649190D01*
X18081190Y-10639667D01*
X18043095Y-10639667D01*
X18024048Y-10649190D01*
X18014524Y-10658714D01*
X18005000Y-10677762D01*
X18195476Y-10563476D02*
X18195476Y-10601571D01*
X18271667Y-10563476D02*
X18271667Y-10601571D01*
X18566905Y-10839667D02*
X18557381Y-10830143D01*
X18538333Y-10801571D01*
X18528810Y-10782524D01*
X18519286Y-10753952D01*
X18509762Y-10706333D01*
X18509762Y-10668238D01*
X18519286Y-10620619D01*
X18528810Y-10592048D01*
X18538333Y-10573000D01*
X18557381Y-10544429D01*
X18566905Y-10534905D01*
X18728810Y-10630143D02*
X18728810Y-10763476D01*
X18681190Y-10553952D02*
X18633571Y-10696810D01*
X18757381Y-10696810D01*
X18985952Y-10763476D02*
X18985952Y-10563476D01*
X19071667Y-10763476D02*
X19071667Y-10658714D01*
X19062143Y-10639667D01*
X19043095Y-10630143D01*
X19014524Y-10630143D01*
X18995476Y-10639667D01*
X18985952Y-10649190D01*
X19195476Y-10763476D02*
X19176429Y-10753952D01*
X19166905Y-10744429D01*
X19157381Y-10725381D01*
X19157381Y-10668238D01*
X19166905Y-10649190D01*
X19176429Y-10639667D01*
X19195476Y-10630143D01*
X19224048Y-10630143D01*
X19243095Y-10639667D01*
X19252619Y-10649190D01*
X19262143Y-10668238D01*
X19262143Y-10725381D01*
X19252619Y-10744429D01*
X19243095Y-10753952D01*
X19224048Y-10763476D01*
X19195476Y-10763476D01*
X19376429Y-10763476D02*
X19357381Y-10753952D01*
X19347857Y-10734905D01*
X19347857Y-10563476D01*
X19528810Y-10753952D02*
X19509762Y-10763476D01*
X19471667Y-10763476D01*
X19452619Y-10753952D01*
X19443095Y-10734905D01*
X19443095Y-10658714D01*
X19452619Y-10639667D01*
X19471667Y-10630143D01*
X19509762Y-10630143D01*
X19528810Y-10639667D01*
X19538333Y-10658714D01*
X19538333Y-10677762D01*
X19443095Y-10696810D01*
X19614524Y-10753952D02*
X19633571Y-10763476D01*
X19671667Y-10763476D01*
X19690714Y-10753952D01*
X19700238Y-10734905D01*
X19700238Y-10725381D01*
X19690714Y-10706333D01*
X19671667Y-10696810D01*
X19643095Y-10696810D01*
X19624048Y-10687286D01*
X19614524Y-10668238D01*
X19614524Y-10658714D01*
X19624048Y-10639667D01*
X19643095Y-10630143D01*
X19671667Y-10630143D01*
X19690714Y-10639667D01*
X19766905Y-10839667D02*
X19776429Y-10830143D01*
X19795476Y-10801571D01*
X19805000Y-10782524D01*
X19814524Y-10753952D01*
X19824048Y-10706333D01*
X19824048Y-10668238D01*
X19814524Y-10620619D01*
X19805000Y-10592048D01*
X19795476Y-10573000D01*
X19776429Y-10544429D01*
X19766905Y-10534905D01*
M02*
