%TF.GenerationSoftware,KiCad,Pcbnew,6.0.9+dfsg-1~bpo11+1*%
%TF.CreationDate,2022-11-06T14:45:51+01:00*%
%TF.ProjectId,pcb-turn-45,7063622d-7475-4726-9e2d-34352e6b6963,2*%
%TF.SameCoordinates,Original*%
%TF.FileFunction,Plated,1,2,PTH,Drill*%
%TF.FilePolarity,Positive*%
%FSLAX46Y46*%
G04 Gerber Fmt 4.6, Leading zero omitted, Abs format (unit mm)*
G04 Created by KiCad (PCBNEW 6.0.9+dfsg-1~bpo11+1) date 2022-11-06 14:45:51*
%MOMM*%
%LPD*%
G01*
G04 APERTURE LIST*
%TA.AperFunction,ViaDrill*%
%ADD10C,0.400000*%
%TD*%
%TA.AperFunction,ComponentDrill*%
%ADD11C,0.400000*%
%TD*%
%TA.AperFunction,ComponentDrill*%
%ADD12C,2.000000*%
%TD*%
G04 APERTURE END LIST*
D10*
X152500000Y-80000000D03*
X152500000Y-82500000D03*
X152500000Y-87500000D03*
X152500000Y-90000000D03*
X153000000Y-83500000D03*
X153000000Y-86500000D03*
X153500000Y-84000000D03*
X153500000Y-86000000D03*
X154000000Y-83500000D03*
X154000000Y-86500000D03*
X154500000Y-84000000D03*
X154500000Y-86000000D03*
X154500000Y-87000000D03*
X155000000Y-77500000D03*
X155000000Y-80000000D03*
X155000000Y-82500000D03*
X155000000Y-83500000D03*
X155000000Y-86500000D03*
X155000000Y-87500000D03*
X155000000Y-90000000D03*
X155000000Y-92500000D03*
X155500000Y-84000000D03*
X155500000Y-87000000D03*
X156000000Y-83500000D03*
X156000000Y-86500000D03*
X156000000Y-87500000D03*
X156500000Y-84000000D03*
X156500000Y-87000000D03*
X157000000Y-83500000D03*
X157000000Y-87500000D03*
X157500000Y-77500000D03*
X157500000Y-80000000D03*
X157500000Y-82500000D03*
X157500000Y-84000000D03*
X157500000Y-87000000D03*
X157500000Y-88000000D03*
X157500000Y-89000000D03*
X157500000Y-90000000D03*
X157500000Y-92500000D03*
X158000000Y-83500000D03*
X158000000Y-84500000D03*
X158000000Y-87500000D03*
X158000000Y-88500000D03*
X158000000Y-89500000D03*
X158000000Y-90500000D03*
X158500000Y-84000000D03*
X158500000Y-85000000D03*
X158500000Y-89000000D03*
X158500000Y-90000000D03*
X158500000Y-91000000D03*
X158500000Y-92000000D03*
X159000000Y-84500000D03*
X159000000Y-85500000D03*
X159000000Y-90500000D03*
X159000000Y-91500000D03*
X159500000Y-85000000D03*
X159500000Y-86000000D03*
X160000000Y-82500000D03*
X160000000Y-85500000D03*
X160000000Y-86500000D03*
X160500000Y-86000000D03*
X160500000Y-87000000D03*
X161000000Y-86500000D03*
X161000000Y-87500000D03*
X161000000Y-88500000D03*
X161000000Y-89500000D03*
X161000000Y-90500000D03*
X161000000Y-91500000D03*
X161500000Y-87000000D03*
X161500000Y-88000000D03*
X161500000Y-89000000D03*
X161500000Y-90000000D03*
X161500000Y-91000000D03*
X161500000Y-92000000D03*
X162500000Y-77500000D03*
X162500000Y-80000000D03*
X162500000Y-82500000D03*
X162500000Y-85000000D03*
X162500000Y-87500000D03*
X162500000Y-90000000D03*
X162500000Y-92500000D03*
X165000000Y-77500000D03*
X165000000Y-80000000D03*
X165000000Y-82500000D03*
X165000000Y-85000000D03*
X165000000Y-87500000D03*
X165000000Y-90000000D03*
X165000000Y-92500000D03*
X167500000Y-80000000D03*
X167500000Y-82500000D03*
X167500000Y-85000000D03*
X167500000Y-87500000D03*
X167500000Y-90000000D03*
D11*
%TO.C,J2*%
X150500000Y-84000000D03*
X150500000Y-86000000D03*
X151000000Y-83500000D03*
X151000000Y-86500000D03*
X151500000Y-84000000D03*
X151500000Y-86000000D03*
X152000000Y-83500000D03*
X152000000Y-86500000D03*
X152500000Y-84000000D03*
X152500000Y-86000000D03*
%TO.C,J1*%
X158500000Y-93000000D03*
X158500000Y-94000000D03*
X159000000Y-92500000D03*
X159000000Y-93500000D03*
X159000000Y-94500000D03*
X161000000Y-92500000D03*
X161000000Y-93500000D03*
X161000000Y-94500000D03*
X161500000Y-93000000D03*
X161500000Y-94000000D03*
D12*
%TO.C,H1*%
X152500000Y-77500000D03*
%TO.C,H2*%
X152500000Y-92500000D03*
%TO.C,H4*%
X167500000Y-77500000D03*
%TO.C,H3*%
X167500000Y-92500000D03*
M02*
