%TF.GenerationSoftware,KiCad,Pcbnew,6.0.1-79c1e3a40b~116~ubuntu20.04.1*%
%TF.CreationDate,2022-01-29T11:27:01+01:00*%
%TF.ProjectId,base,62617365-2e6b-4696-9361-645f70636258,1*%
%TF.SameCoordinates,Original*%
%TF.FileFunction,Soldermask,Top*%
%TF.FilePolarity,Negative*%
%FSLAX46Y46*%
G04 Gerber Fmt 4.6, Leading zero omitted, Abs format (unit mm)*
G04 Created by KiCad (PCBNEW 6.0.1-79c1e3a40b~116~ubuntu20.04.1) date 2022-01-29 11:27:01*
%MOMM*%
%LPD*%
G01*
G04 APERTURE LIST*
%ADD10C,3.400000*%
G04 APERTURE END LIST*
D10*
%TO.C,REF\u002A\u002A*%
X124000000Y-129000000D03*
%TD*%
%TO.C,REF\u002A\u002A*%
X154000000Y-134000000D03*
%TD*%
%TO.C,REF\u002A\u002A*%
X104000000Y-99000000D03*
%TD*%
%TO.C,REF\u002A\u002A*%
X169000000Y-74000000D03*
%TD*%
%TO.C,REF\u002A\u002A*%
X99000000Y-64000000D03*
%TD*%
%TO.C,REF\u002A\u002A*%
X104000000Y-144000000D03*
%TD*%
%TO.C,REF\u002A\u002A*%
X144000000Y-84000000D03*
%TD*%
%TO.C,REF\u002A\u002A*%
X134000000Y-84000000D03*
%TD*%
%TO.C,REF\u002A\u002A*%
X154000000Y-84000000D03*
%TD*%
%TO.C,REF\u002A\u002A*%
X179000000Y-134000000D03*
%TD*%
%TO.C,REF\u002A\u002A*%
X194000000Y-144000000D03*
%TD*%
%TO.C,REF\u002A\u002A*%
X169000000Y-54000000D03*
%TD*%
%TO.C,REF\u002A\u002A*%
X119000000Y-114000000D03*
%TD*%
%TO.C,REF\u002A\u002A*%
X99000000Y-124000000D03*
%TD*%
%TO.C,REF\u002A\u002A*%
X189000000Y-64000000D03*
%TD*%
%TO.C,REF\u002A\u002A*%
X134000000Y-79000000D03*
%TD*%
%TO.C,REF\u002A\u002A*%
X184000000Y-104000000D03*
%TD*%
%TO.C,REF\u002A\u002A*%
X99000000Y-144000000D03*
%TD*%
%TO.C,REF\u002A\u002A*%
X99000000Y-74000000D03*
%TD*%
%TO.C,REF\u002A\u002A*%
X144000000Y-59000000D03*
%TD*%
%TO.C,REF\u002A\u002A*%
X194000000Y-124000000D03*
%TD*%
%TO.C,REF\u002A\u002A*%
X184000000Y-99000000D03*
%TD*%
%TO.C,REF\u002A\u002A*%
X124000000Y-59000000D03*
%TD*%
%TO.C,REF\u002A\u002A*%
X149000000Y-54000000D03*
%TD*%
%TO.C,REF\u002A\u002A*%
X139000000Y-94000000D03*
%TD*%
%TO.C,REF\u002A\u002A*%
X129000000Y-89000000D03*
%TD*%
%TO.C,REF\u002A\u002A*%
X179000000Y-99000000D03*
%TD*%
%TO.C,REF\u002A\u002A*%
X104000000Y-94000000D03*
%TD*%
%TO.C,REF\u002A\u002A*%
X189000000Y-124000000D03*
%TD*%
%TO.C,REF\u002A\u002A*%
X174000000Y-144000000D03*
%TD*%
%TO.C,REF\u002A\u002A*%
X159000000Y-84000000D03*
%TD*%
%TO.C,REF\u002A\u002A*%
X149000000Y-49000000D03*
%TD*%
%TO.C,REF\u002A\u002A*%
X144000000Y-119000000D03*
%TD*%
%TO.C,REF\u002A\u002A*%
X184000000Y-139000000D03*
%TD*%
%TO.C,REF\u002A\u002A*%
X164000000Y-104000000D03*
%TD*%
%TO.C,REF\u002A\u002A*%
X99000000Y-49000000D03*
%TD*%
%TO.C,REF\u002A\u002A*%
X109000000Y-89000000D03*
%TD*%
%TO.C,REF\u002A\u002A*%
X189000000Y-89000000D03*
%TD*%
%TO.C,REF\u002A\u002A*%
X164000000Y-94000000D03*
%TD*%
%TO.C,REF\u002A\u002A*%
X154000000Y-109000000D03*
%TD*%
%TO.C,REF\u002A\u002A*%
X134000000Y-89000000D03*
%TD*%
%TO.C,REF\u002A\u002A*%
X144000000Y-74000000D03*
%TD*%
%TO.C,REF\u002A\u002A*%
X144000000Y-54000000D03*
%TD*%
%TO.C,REF\u002A\u002A*%
X114000000Y-129000000D03*
%TD*%
%TO.C,REF\u002A\u002A*%
X124000000Y-134000000D03*
%TD*%
%TO.C,REF\u002A\u002A*%
X139000000Y-134000000D03*
%TD*%
%TO.C,REF\u002A\u002A*%
X169000000Y-124000000D03*
%TD*%
%TO.C,REF\u002A\u002A*%
X134000000Y-114000000D03*
%TD*%
%TO.C,REF\u002A\u002A*%
X99000000Y-129000000D03*
%TD*%
%TO.C,REF\u002A\u002A*%
X139000000Y-129000000D03*
%TD*%
%TO.C,REF\u002A\u002A*%
X104000000Y-79000000D03*
%TD*%
%TO.C,REF\u002A\u002A*%
X189000000Y-74000000D03*
%TD*%
%TO.C,REF\u002A\u002A*%
X189000000Y-139000000D03*
%TD*%
%TO.C,REF\u002A\u002A*%
X104000000Y-74000000D03*
%TD*%
%TO.C,REF\u002A\u002A*%
X109000000Y-64000000D03*
%TD*%
%TO.C,REF\u002A\u002A*%
X184000000Y-79000000D03*
%TD*%
%TO.C,REF\u002A\u002A*%
X99000000Y-54000000D03*
%TD*%
%TO.C,REF\u002A\u002A*%
X124000000Y-124000000D03*
%TD*%
%TO.C,REF\u002A\u002A*%
X104000000Y-69000000D03*
%TD*%
%TO.C,REF\u002A\u002A*%
X179000000Y-94000000D03*
%TD*%
%TO.C,REF\u002A\u002A*%
X174000000Y-134000000D03*
%TD*%
%TO.C,REF\u002A\u002A*%
X154000000Y-79000000D03*
%TD*%
%TO.C,REF\u002A\u002A*%
X194000000Y-64000000D03*
%TD*%
%TO.C,REF\u002A\u002A*%
X174000000Y-129000000D03*
%TD*%
%TO.C,REF\u002A\u002A*%
X184000000Y-69000000D03*
%TD*%
%TO.C,REF\u002A\u002A*%
X109000000Y-49000000D03*
%TD*%
%TO.C,REF\u002A\u002A*%
X134000000Y-74000000D03*
%TD*%
%TO.C,REF\u002A\u002A*%
X134000000Y-109000000D03*
%TD*%
%TO.C,REF\u002A\u002A*%
X124000000Y-99000000D03*
%TD*%
%TO.C,REF\u002A\u002A*%
X134000000Y-129000000D03*
%TD*%
%TO.C,REF\u002A\u002A*%
X119000000Y-59000000D03*
%TD*%
%TO.C,REF\u002A\u002A*%
X129000000Y-129000000D03*
%TD*%
%TO.C,REF\u002A\u002A*%
X149000000Y-119000000D03*
%TD*%
%TO.C,REF\u002A\u002A*%
X184000000Y-94000000D03*
%TD*%
%TO.C,REF\u002A\u002A*%
X124000000Y-104000000D03*
%TD*%
%TO.C,REF\u002A\u002A*%
X144000000Y-94000000D03*
%TD*%
%TO.C,REF\u002A\u002A*%
X154000000Y-119000000D03*
%TD*%
%TO.C,REF\u002A\u002A*%
X134000000Y-54000000D03*
%TD*%
%TO.C,REF\u002A\u002A*%
X144000000Y-124000000D03*
%TD*%
%TO.C,REF\u002A\u002A*%
X139000000Y-54000000D03*
%TD*%
%TO.C,REF\u002A\u002A*%
X139000000Y-99000000D03*
%TD*%
%TO.C,REF\u002A\u002A*%
X104000000Y-119000000D03*
%TD*%
%TO.C,REF\u002A\u002A*%
X154000000Y-69000000D03*
%TD*%
%TO.C,REF\u002A\u002A*%
X159000000Y-64000000D03*
%TD*%
%TO.C,REF\u002A\u002A*%
X124000000Y-79000000D03*
%TD*%
%TO.C,REF\u002A\u002A*%
X104000000Y-84000000D03*
%TD*%
%TO.C,REF\u002A\u002A*%
X194000000Y-84000000D03*
%TD*%
%TO.C,REF\u002A\u002A*%
X189000000Y-119000000D03*
%TD*%
%TO.C,REF\u002A\u002A*%
X129000000Y-119000000D03*
%TD*%
%TO.C,REF\u002A\u002A*%
X109000000Y-129000000D03*
%TD*%
%TO.C,REF\u002A\u002A*%
X139000000Y-84000000D03*
%TD*%
%TO.C,REF\u002A\u002A*%
X174000000Y-69000000D03*
%TD*%
%TO.C,REF\u002A\u002A*%
X164000000Y-59000000D03*
%TD*%
%TO.C,REF\u002A\u002A*%
X149000000Y-144000000D03*
%TD*%
%TO.C,REF\u002A\u002A*%
X109000000Y-69000000D03*
%TD*%
%TO.C,REF\u002A\u002A*%
X149000000Y-124000000D03*
%TD*%
%TO.C,REF\u002A\u002A*%
X184000000Y-109000000D03*
%TD*%
%TO.C,REF\u002A\u002A*%
X189000000Y-144000000D03*
%TD*%
%TO.C,REF\u002A\u002A*%
X184000000Y-49000000D03*
%TD*%
%TO.C,REF\u002A\u002A*%
X194000000Y-74000000D03*
%TD*%
%TO.C,REF\u002A\u002A*%
X134000000Y-119000000D03*
%TD*%
%TO.C,REF\u002A\u002A*%
X149000000Y-79000000D03*
%TD*%
%TO.C,REF\u002A\u002A*%
X179000000Y-104000000D03*
%TD*%
%TO.C,REF\u002A\u002A*%
X174000000Y-139000000D03*
%TD*%
%TO.C,REF\u002A\u002A*%
X189000000Y-94000000D03*
%TD*%
%TO.C,REF\u002A\u002A*%
X184000000Y-64000000D03*
%TD*%
%TO.C,REF\u002A\u002A*%
X194000000Y-109000000D03*
%TD*%
%TO.C,REF\u002A\u002A*%
X119000000Y-99000000D03*
%TD*%
%TO.C,REF\u002A\u002A*%
X159000000Y-129000000D03*
%TD*%
%TO.C,REF\u002A\u002A*%
X184000000Y-84000000D03*
%TD*%
%TO.C,REF\u002A\u002A*%
X189000000Y-134000000D03*
%TD*%
%TO.C,REF\u002A\u002A*%
X144000000Y-114000000D03*
%TD*%
%TO.C,REF\u002A\u002A*%
X174000000Y-64000000D03*
%TD*%
%TO.C,REF\u002A\u002A*%
X144000000Y-64000000D03*
%TD*%
%TO.C,REF\u002A\u002A*%
X164000000Y-114000000D03*
%TD*%
%TO.C,REF\u002A\u002A*%
X114000000Y-104000000D03*
%TD*%
%TO.C,REF\u002A\u002A*%
X189000000Y-99000000D03*
%TD*%
%TO.C,REF\u002A\u002A*%
X159000000Y-59000000D03*
%TD*%
%TO.C,REF\u002A\u002A*%
X139000000Y-89000000D03*
%TD*%
%TO.C,REF\u002A\u002A*%
X104000000Y-124000000D03*
%TD*%
%TO.C,REF\u002A\u002A*%
X99000000Y-139000000D03*
%TD*%
%TO.C,REF\u002A\u002A*%
X104000000Y-49000000D03*
%TD*%
%TO.C,REF\u002A\u002A*%
X149000000Y-89000000D03*
%TD*%
%TO.C,REF\u002A\u002A*%
X159000000Y-124000000D03*
%TD*%
%TO.C,REF\u002A\u002A*%
X139000000Y-139000000D03*
%TD*%
%TO.C,REF\u002A\u002A*%
X169000000Y-89000000D03*
%TD*%
%TO.C,REF\u002A\u002A*%
X159000000Y-139000000D03*
%TD*%
%TO.C,REF\u002A\u002A*%
X124000000Y-109000000D03*
%TD*%
%TO.C,REF\u002A\u002A*%
X134000000Y-69000000D03*
%TD*%
%TO.C,REF\u002A\u002A*%
X109000000Y-94000000D03*
%TD*%
%TO.C,REF\u002A\u002A*%
X169000000Y-109000000D03*
%TD*%
%TO.C,REF\u002A\u002A*%
X129000000Y-64000000D03*
%TD*%
%TO.C,REF\u002A\u002A*%
X139000000Y-144000000D03*
%TD*%
%TO.C,REF\u002A\u002A*%
X129000000Y-109000000D03*
%TD*%
%TO.C,REF\u002A\u002A*%
X99000000Y-89000000D03*
%TD*%
%TO.C,REF\u002A\u002A*%
X119000000Y-124000000D03*
%TD*%
%TO.C,REF\u002A\u002A*%
X149000000Y-134000000D03*
%TD*%
%TO.C,REF\u002A\u002A*%
X179000000Y-109000000D03*
%TD*%
%TO.C,REF\u002A\u002A*%
X169000000Y-144000000D03*
%TD*%
%TO.C,REF\u002A\u002A*%
X184000000Y-124000000D03*
%TD*%
%TO.C,REF\u002A\u002A*%
X144000000Y-144000000D03*
%TD*%
%TO.C,REF\u002A\u002A*%
X149000000Y-69000000D03*
%TD*%
%TO.C,REF\u002A\u002A*%
X174000000Y-59000000D03*
%TD*%
%TO.C,REF\u002A\u002A*%
X169000000Y-99000000D03*
%TD*%
%TO.C,REF\u002A\u002A*%
X119000000Y-129000000D03*
%TD*%
%TO.C,REF\u002A\u002A*%
X119000000Y-94000000D03*
%TD*%
%TO.C,REF\u002A\u002A*%
X149000000Y-84000000D03*
%TD*%
%TO.C,REF\u002A\u002A*%
X139000000Y-59000000D03*
%TD*%
%TO.C,REF\u002A\u002A*%
X179000000Y-49000000D03*
%TD*%
%TO.C,REF\u002A\u002A*%
X184000000Y-129000000D03*
%TD*%
%TO.C,REF\u002A\u002A*%
X144000000Y-79000000D03*
%TD*%
%TO.C,REF\u002A\u002A*%
X119000000Y-144000000D03*
%TD*%
%TO.C,REF\u002A\u002A*%
X124000000Y-89000000D03*
%TD*%
%TO.C,REF\u002A\u002A*%
X154000000Y-49000000D03*
%TD*%
%TO.C,REF\u002A\u002A*%
X154000000Y-99000000D03*
%TD*%
%TO.C,REF\u002A\u002A*%
X144000000Y-139000000D03*
%TD*%
%TO.C,REF\u002A\u002A*%
X164000000Y-69000000D03*
%TD*%
%TO.C,REF\u002A\u002A*%
X119000000Y-49000000D03*
%TD*%
%TO.C,REF\u002A\u002A*%
X124000000Y-74000000D03*
%TD*%
%TO.C,REF\u002A\u002A*%
X154000000Y-139000000D03*
%TD*%
%TO.C,REF\u002A\u002A*%
X194000000Y-104000000D03*
%TD*%
%TO.C,REF\u002A\u002A*%
X114000000Y-109000000D03*
%TD*%
%TO.C,REF\u002A\u002A*%
X109000000Y-124000000D03*
%TD*%
%TO.C,REF\u002A\u002A*%
X109000000Y-104000000D03*
%TD*%
%TO.C,REF\u002A\u002A*%
X154000000Y-59000000D03*
%TD*%
%TO.C,REF\u002A\u002A*%
X119000000Y-109000000D03*
%TD*%
%TO.C,REF\u002A\u002A*%
X184000000Y-89000000D03*
%TD*%
%TO.C,REF\u002A\u002A*%
X159000000Y-94000000D03*
%TD*%
%TO.C,REF\u002A\u002A*%
X189000000Y-79000000D03*
%TD*%
%TO.C,REF\u002A\u002A*%
X114000000Y-134000000D03*
%TD*%
%TO.C,REF\u002A\u002A*%
X169000000Y-134000000D03*
%TD*%
%TO.C,REF\u002A\u002A*%
X139000000Y-124000000D03*
%TD*%
%TO.C,REF\u002A\u002A*%
X114000000Y-74000000D03*
%TD*%
%TO.C,REF\u002A\u002A*%
X119000000Y-84000000D03*
%TD*%
%TO.C,REF\u002A\u002A*%
X179000000Y-129000000D03*
%TD*%
%TO.C,REF\u002A\u002A*%
X99000000Y-84000000D03*
%TD*%
%TO.C,REF\u002A\u002A*%
X194000000Y-99000000D03*
%TD*%
%TO.C,REF\u002A\u002A*%
X174000000Y-119000000D03*
%TD*%
%TO.C,REF\u002A\u002A*%
X189000000Y-49000000D03*
%TD*%
%TO.C,REF\u002A\u002A*%
X169000000Y-69000000D03*
%TD*%
%TO.C,REF\u002A\u002A*%
X164000000Y-89000000D03*
%TD*%
%TO.C,REF\u002A\u002A*%
X184000000Y-74000000D03*
%TD*%
%TO.C,REF\u002A\u002A*%
X139000000Y-114000000D03*
%TD*%
%TO.C,REF\u002A\u002A*%
X149000000Y-104000000D03*
%TD*%
%TO.C,REF\u002A\u002A*%
X169000000Y-114000000D03*
%TD*%
%TO.C,REF\u002A\u002A*%
X109000000Y-79000000D03*
%TD*%
%TO.C,REF\u002A\u002A*%
X159000000Y-144000000D03*
%TD*%
%TO.C,REF\u002A\u002A*%
X159000000Y-119000000D03*
%TD*%
%TO.C,REF\u002A\u002A*%
X194000000Y-119000000D03*
%TD*%
%TO.C,REF\u002A\u002A*%
X109000000Y-144000000D03*
%TD*%
%TO.C,REF\u002A\u002A*%
X99000000Y-119000000D03*
%TD*%
%TO.C,REF\u002A\u002A*%
X164000000Y-99000000D03*
%TD*%
%TO.C,REF\u002A\u002A*%
X119000000Y-74000000D03*
%TD*%
%TO.C,REF\u002A\u002A*%
X179000000Y-69000000D03*
%TD*%
%TO.C,REF\u002A\u002A*%
X174000000Y-94000000D03*
%TD*%
%TO.C,REF\u002A\u002A*%
X164000000Y-119000000D03*
%TD*%
%TO.C,REF\u002A\u002A*%
X159000000Y-69000000D03*
%TD*%
%TO.C,REF\u002A\u002A*%
X134000000Y-99000000D03*
%TD*%
%TO.C,REF\u002A\u002A*%
X114000000Y-119000000D03*
%TD*%
%TO.C,REF\u002A\u002A*%
X114000000Y-124000000D03*
%TD*%
%TO.C,REF\u002A\u002A*%
X169000000Y-64000000D03*
%TD*%
%TO.C,REF\u002A\u002A*%
X174000000Y-84000000D03*
%TD*%
%TO.C,REF\u002A\u002A*%
X164000000Y-64000000D03*
%TD*%
%TO.C,REF\u002A\u002A*%
X104000000Y-104000000D03*
%TD*%
%TO.C,REF\u002A\u002A*%
X194000000Y-94000000D03*
%TD*%
%TO.C,REF\u002A\u002A*%
X184000000Y-54000000D03*
%TD*%
%TO.C,REF\u002A\u002A*%
X99000000Y-134000000D03*
%TD*%
%TO.C,REF\u002A\u002A*%
X174000000Y-104000000D03*
%TD*%
%TO.C,REF\u002A\u002A*%
X194000000Y-69000000D03*
%TD*%
%TO.C,REF\u002A\u002A*%
X114000000Y-59000000D03*
%TD*%
%TO.C,REF\u002A\u002A*%
X164000000Y-54000000D03*
%TD*%
%TO.C,REF\u002A\u002A*%
X174000000Y-54000000D03*
%TD*%
%TO.C,REF\u002A\u002A*%
X109000000Y-74000000D03*
%TD*%
%TO.C,REF\u002A\u002A*%
X159000000Y-104000000D03*
%TD*%
%TO.C,REF\u002A\u002A*%
X109000000Y-114000000D03*
%TD*%
%TO.C,REF\u002A\u002A*%
X109000000Y-59000000D03*
%TD*%
%TO.C,REF\u002A\u002A*%
X184000000Y-134000000D03*
%TD*%
%TO.C,REF\u002A\u002A*%
X134000000Y-49000000D03*
%TD*%
%TO.C,REF\u002A\u002A*%
X149000000Y-74000000D03*
%TD*%
%TO.C,REF\u002A\u002A*%
X124000000Y-94000000D03*
%TD*%
%TO.C,REF\u002A\u002A*%
X119000000Y-134000000D03*
%TD*%
%TO.C,REF\u002A\u002A*%
X149000000Y-139000000D03*
%TD*%
%TO.C,REF\u002A\u002A*%
X179000000Y-79000000D03*
%TD*%
%TO.C,REF\u002A\u002A*%
X179000000Y-54000000D03*
%TD*%
%TO.C,REF\u002A\u002A*%
X194000000Y-54000000D03*
%TD*%
%TO.C,REF\u002A\u002A*%
X129000000Y-74000000D03*
%TD*%
%TO.C,REF\u002A\u002A*%
X189000000Y-104000000D03*
%TD*%
%TO.C,REF\u002A\u002A*%
X159000000Y-79000000D03*
%TD*%
%TO.C,REF\u002A\u002A*%
X164000000Y-124000000D03*
%TD*%
%TO.C,REF\u002A\u002A*%
X194000000Y-134000000D03*
%TD*%
%TO.C,REF\u002A\u002A*%
X179000000Y-119000000D03*
%TD*%
%TO.C,REF\u002A\u002A*%
X169000000Y-94000000D03*
%TD*%
%TO.C,REF\u002A\u002A*%
X104000000Y-54000000D03*
%TD*%
%TO.C,REF\u002A\u002A*%
X134000000Y-94000000D03*
%TD*%
%TO.C,REF\u002A\u002A*%
X159000000Y-109000000D03*
%TD*%
%TO.C,REF\u002A\u002A*%
X124000000Y-84000000D03*
%TD*%
%TO.C,REF\u002A\u002A*%
X119000000Y-104000000D03*
%TD*%
%TO.C,REF\u002A\u002A*%
X114000000Y-89000000D03*
%TD*%
%TO.C,REF\u002A\u002A*%
X144000000Y-89000000D03*
%TD*%
%TO.C,REF\u002A\u002A*%
X134000000Y-59000000D03*
%TD*%
%TO.C,REF\u002A\u002A*%
X184000000Y-114000000D03*
%TD*%
%TO.C,REF\u002A\u002A*%
X174000000Y-79000000D03*
%TD*%
%TO.C,REF\u002A\u002A*%
X179000000Y-124000000D03*
%TD*%
%TO.C,REF\u002A\u002A*%
X144000000Y-69000000D03*
%TD*%
%TO.C,REF\u002A\u002A*%
X144000000Y-134000000D03*
%TD*%
%TO.C,REF\u002A\u002A*%
X159000000Y-114000000D03*
%TD*%
%TO.C,REF\u002A\u002A*%
X174000000Y-124000000D03*
%TD*%
%TO.C,REF\u002A\u002A*%
X134000000Y-124000000D03*
%TD*%
%TO.C,REF\u002A\u002A*%
X184000000Y-144000000D03*
%TD*%
%TO.C,REF\u002A\u002A*%
X194000000Y-114000000D03*
%TD*%
%TO.C,REF\u002A\u002A*%
X119000000Y-89000000D03*
%TD*%
%TO.C,REF\u002A\u002A*%
X169000000Y-104000000D03*
%TD*%
%TO.C,REF\u002A\u002A*%
X124000000Y-54000000D03*
%TD*%
%TO.C,REF\u002A\u002A*%
X154000000Y-104000000D03*
%TD*%
%TO.C,REF\u002A\u002A*%
X179000000Y-114000000D03*
%TD*%
%TO.C,REF\u002A\u002A*%
X124000000Y-69000000D03*
%TD*%
%TO.C,REF\u002A\u002A*%
X129000000Y-59000000D03*
%TD*%
%TO.C,REF\u002A\u002A*%
X194000000Y-129000000D03*
%TD*%
%TO.C,REF\u002A\u002A*%
X119000000Y-139000000D03*
%TD*%
%TO.C,REF\u002A\u002A*%
X154000000Y-129000000D03*
%TD*%
%TO.C,REF\u002A\u002A*%
X194000000Y-89000000D03*
%TD*%
%TO.C,REF\u002A\u002A*%
X114000000Y-54000000D03*
%TD*%
%TO.C,REF\u002A\u002A*%
X174000000Y-74000000D03*
%TD*%
%TO.C,REF\u002A\u002A*%
X119000000Y-119000000D03*
%TD*%
%TO.C,REF\u002A\u002A*%
X174000000Y-109000000D03*
%TD*%
%TO.C,REF\u002A\u002A*%
X104000000Y-64000000D03*
%TD*%
%TO.C,REF\u002A\u002A*%
X104000000Y-129000000D03*
%TD*%
%TO.C,REF\u002A\u002A*%
X119000000Y-79000000D03*
%TD*%
%TO.C,REF\u002A\u002A*%
X194000000Y-59000000D03*
%TD*%
%TO.C,REF\u002A\u002A*%
X159000000Y-89000000D03*
%TD*%
%TO.C,REF\u002A\u002A*%
X154000000Y-114000000D03*
%TD*%
%TO.C,REF\u002A\u002A*%
X169000000Y-129000000D03*
%TD*%
%TO.C,REF\u002A\u002A*%
X159000000Y-99000000D03*
%TD*%
%TO.C,REF\u002A\u002A*%
X114000000Y-49000000D03*
%TD*%
%TO.C,REF\u002A\u002A*%
X174000000Y-49000000D03*
%TD*%
%TO.C,REF\u002A\u002A*%
X154000000Y-94000000D03*
%TD*%
%TO.C,REF\u002A\u002A*%
X169000000Y-119000000D03*
%TD*%
%TO.C,REF\u002A\u002A*%
X194000000Y-49000000D03*
%TD*%
%TO.C,REF\u002A\u002A*%
X129000000Y-54000000D03*
%TD*%
%TO.C,REF\u002A\u002A*%
X184000000Y-59000000D03*
%TD*%
%TO.C,REF\u002A\u002A*%
X179000000Y-74000000D03*
%TD*%
%TO.C,REF\u002A\u002A*%
X99000000Y-79000000D03*
%TD*%
%TO.C,REF\u002A\u002A*%
X114000000Y-139000000D03*
%TD*%
%TO.C,REF\u002A\u002A*%
X189000000Y-109000000D03*
%TD*%
%TO.C,REF\u002A\u002A*%
X114000000Y-84000000D03*
%TD*%
%TO.C,REF\u002A\u002A*%
X109000000Y-119000000D03*
%TD*%
%TO.C,REF\u002A\u002A*%
X104000000Y-109000000D03*
%TD*%
%TO.C,REF\u002A\u002A*%
X159000000Y-74000000D03*
%TD*%
%TO.C,REF\u002A\u002A*%
X129000000Y-114000000D03*
%TD*%
%TO.C,REF\u002A\u002A*%
X169000000Y-84000000D03*
%TD*%
%TO.C,REF\u002A\u002A*%
X174000000Y-99000000D03*
%TD*%
%TO.C,REF\u002A\u002A*%
X99000000Y-94000000D03*
%TD*%
%TO.C,REF\u002A\u002A*%
X154000000Y-144000000D03*
%TD*%
%TO.C,REF\u002A\u002A*%
X124000000Y-64000000D03*
%TD*%
%TO.C,REF\u002A\u002A*%
X144000000Y-109000000D03*
%TD*%
%TO.C,REF\u002A\u002A*%
X134000000Y-139000000D03*
%TD*%
%TO.C,REF\u002A\u002A*%
X129000000Y-104000000D03*
%TD*%
%TO.C,REF\u002A\u002A*%
X149000000Y-99000000D03*
%TD*%
%TO.C,REF\u002A\u002A*%
X119000000Y-64000000D03*
%TD*%
%TO.C,REF\u002A\u002A*%
X149000000Y-109000000D03*
%TD*%
%TO.C,REF\u002A\u002A*%
X169000000Y-59000000D03*
%TD*%
%TO.C,REF\u002A\u002A*%
X154000000Y-124000000D03*
%TD*%
%TO.C,REF\u002A\u002A*%
X99000000Y-99000000D03*
%TD*%
%TO.C,REF\u002A\u002A*%
X114000000Y-114000000D03*
%TD*%
%TO.C,REF\u002A\u002A*%
X114000000Y-144000000D03*
%TD*%
%TO.C,REF\u002A\u002A*%
X139000000Y-119000000D03*
%TD*%
%TO.C,REF\u002A\u002A*%
X129000000Y-49000000D03*
%TD*%
%TO.C,REF\u002A\u002A*%
X129000000Y-124000000D03*
%TD*%
%TO.C,REF\u002A\u002A*%
X134000000Y-104000000D03*
%TD*%
%TO.C,REF\u002A\u002A*%
X129000000Y-99000000D03*
%TD*%
%TO.C,REF\u002A\u002A*%
X129000000Y-94000000D03*
%TD*%
%TO.C,REF\u002A\u002A*%
X179000000Y-139000000D03*
%TD*%
%TO.C,REF\u002A\u002A*%
X99000000Y-69000000D03*
%TD*%
%TO.C,REF\u002A\u002A*%
X149000000Y-64000000D03*
%TD*%
%TO.C,REF\u002A\u002A*%
X164000000Y-129000000D03*
%TD*%
%TO.C,REF\u002A\u002A*%
X164000000Y-84000000D03*
%TD*%
%TO.C,REF\u002A\u002A*%
X149000000Y-59000000D03*
%TD*%
%TO.C,REF\u002A\u002A*%
X109000000Y-109000000D03*
%TD*%
%TO.C,REF\u002A\u002A*%
X189000000Y-54000000D03*
%TD*%
%TO.C,REF\u002A\u002A*%
X164000000Y-49000000D03*
%TD*%
%TO.C,REF\u002A\u002A*%
X174000000Y-114000000D03*
%TD*%
%TO.C,REF\u002A\u002A*%
X99000000Y-59000000D03*
%TD*%
%TO.C,REF\u002A\u002A*%
X124000000Y-49000000D03*
%TD*%
%TO.C,REF\u002A\u002A*%
X134000000Y-134000000D03*
%TD*%
%TO.C,REF\u002A\u002A*%
X149000000Y-114000000D03*
%TD*%
%TO.C,REF\u002A\u002A*%
X139000000Y-104000000D03*
%TD*%
%TO.C,REF\u002A\u002A*%
X114000000Y-99000000D03*
%TD*%
%TO.C,REF\u002A\u002A*%
X139000000Y-79000000D03*
%TD*%
%TO.C,REF\u002A\u002A*%
X99000000Y-109000000D03*
%TD*%
%TO.C,REF\u002A\u002A*%
X164000000Y-144000000D03*
%TD*%
%TO.C,REF\u002A\u002A*%
X154000000Y-54000000D03*
%TD*%
%TO.C,REF\u002A\u002A*%
X144000000Y-99000000D03*
%TD*%
%TO.C,REF\u002A\u002A*%
X154000000Y-64000000D03*
%TD*%
%TO.C,REF\u002A\u002A*%
X139000000Y-74000000D03*
%TD*%
%TO.C,REF\u002A\u002A*%
X124000000Y-139000000D03*
%TD*%
%TO.C,REF\u002A\u002A*%
X134000000Y-144000000D03*
%TD*%
%TO.C,REF\u002A\u002A*%
X124000000Y-114000000D03*
%TD*%
%TO.C,REF\u002A\u002A*%
X129000000Y-69000000D03*
%TD*%
%TO.C,REF\u002A\u002A*%
X114000000Y-94000000D03*
%TD*%
%TO.C,REF\u002A\u002A*%
X104000000Y-59000000D03*
%TD*%
%TO.C,REF\u002A\u002A*%
X119000000Y-54000000D03*
%TD*%
%TO.C,REF\u002A\u002A*%
X129000000Y-144000000D03*
%TD*%
%TO.C,REF\u002A\u002A*%
X169000000Y-139000000D03*
%TD*%
%TO.C,REF\u002A\u002A*%
X129000000Y-134000000D03*
%TD*%
%TO.C,REF\u002A\u002A*%
X99000000Y-104000000D03*
%TD*%
%TO.C,REF\u002A\u002A*%
X179000000Y-89000000D03*
%TD*%
%TO.C,REF\u002A\u002A*%
X104000000Y-114000000D03*
%TD*%
%TO.C,REF\u002A\u002A*%
X159000000Y-134000000D03*
%TD*%
%TO.C,REF\u002A\u002A*%
X104000000Y-89000000D03*
%TD*%
%TO.C,REF\u002A\u002A*%
X164000000Y-79000000D03*
%TD*%
%TO.C,REF\u002A\u002A*%
X109000000Y-99000000D03*
%TD*%
%TO.C,REF\u002A\u002A*%
X144000000Y-104000000D03*
%TD*%
%TO.C,REF\u002A\u002A*%
X164000000Y-109000000D03*
%TD*%
%TO.C,REF\u002A\u002A*%
X129000000Y-79000000D03*
%TD*%
%TO.C,REF\u002A\u002A*%
X114000000Y-69000000D03*
%TD*%
%TO.C,REF\u002A\u002A*%
X169000000Y-79000000D03*
%TD*%
%TO.C,REF\u002A\u002A*%
X139000000Y-64000000D03*
%TD*%
%TO.C,REF\u002A\u002A*%
X139000000Y-69000000D03*
%TD*%
%TO.C,REF\u002A\u002A*%
X164000000Y-139000000D03*
%TD*%
%TO.C,REF\u002A\u002A*%
X154000000Y-74000000D03*
%TD*%
%TO.C,REF\u002A\u002A*%
X189000000Y-59000000D03*
%TD*%
%TO.C,REF\u002A\u002A*%
X164000000Y-134000000D03*
%TD*%
%TO.C,REF\u002A\u002A*%
X149000000Y-94000000D03*
%TD*%
%TO.C,REF\u002A\u002A*%
X109000000Y-54000000D03*
%TD*%
%TO.C,REF\u002A\u002A*%
X144000000Y-129000000D03*
%TD*%
%TO.C,REF\u002A\u002A*%
X189000000Y-84000000D03*
%TD*%
%TO.C,REF\u002A\u002A*%
X184000000Y-119000000D03*
%TD*%
%TO.C,REF\u002A\u002A*%
X159000000Y-49000000D03*
%TD*%
%TO.C,REF\u002A\u002A*%
X174000000Y-89000000D03*
%TD*%
%TO.C,REF\u002A\u002A*%
X124000000Y-119000000D03*
%TD*%
%TO.C,REF\u002A\u002A*%
X179000000Y-144000000D03*
%TD*%
%TO.C,REF\u002A\u002A*%
X189000000Y-114000000D03*
%TD*%
%TO.C,REF\u002A\u002A*%
X134000000Y-64000000D03*
%TD*%
%TO.C,REF\u002A\u002A*%
X179000000Y-59000000D03*
%TD*%
%TO.C,REF\u002A\u002A*%
X114000000Y-64000000D03*
%TD*%
%TO.C,REF\u002A\u002A*%
X119000000Y-69000000D03*
%TD*%
%TO.C,REF\u002A\u002A*%
X149000000Y-129000000D03*
%TD*%
%TO.C,REF\u002A\u002A*%
X109000000Y-84000000D03*
%TD*%
%TO.C,REF\u002A\u002A*%
X139000000Y-109000000D03*
%TD*%
%TO.C,REF\u002A\u002A*%
X194000000Y-139000000D03*
%TD*%
%TO.C,REF\u002A\u002A*%
X114000000Y-79000000D03*
%TD*%
%TO.C,REF\u002A\u002A*%
X139000000Y-49000000D03*
%TD*%
%TO.C,REF\u002A\u002A*%
X164000000Y-74000000D03*
%TD*%
%TO.C,REF\u002A\u002A*%
X99000000Y-114000000D03*
%TD*%
%TO.C,REF\u002A\u002A*%
X189000000Y-69000000D03*
%TD*%
%TO.C,REF\u002A\u002A*%
X189000000Y-129000000D03*
%TD*%
%TO.C,REF\u002A\u002A*%
X129000000Y-84000000D03*
%TD*%
%TO.C,REF\u002A\u002A*%
X169000000Y-49000000D03*
%TD*%
%TO.C,REF\u002A\u002A*%
X154000000Y-89000000D03*
%TD*%
%TO.C,REF\u002A\u002A*%
X194000000Y-79000000D03*
%TD*%
%TO.C,REF\u002A\u002A*%
X129000000Y-139000000D03*
%TD*%
%TO.C,REF\u002A\u002A*%
X124000000Y-144000000D03*
%TD*%
%TO.C,REF\u002A\u002A*%
X144000000Y-49000000D03*
%TD*%
%TO.C,REF\u002A\u002A*%
X179000000Y-64000000D03*
%TD*%
%TO.C,REF\u002A\u002A*%
X159000000Y-54000000D03*
%TD*%
%TO.C,REF\u002A\u002A*%
X179000000Y-84000000D03*
%TD*%
G36*
X194004487Y-47000321D02*
G01*
X194275645Y-47019714D01*
X194293440Y-47022273D01*
X194554654Y-47079097D01*
X194571903Y-47084161D01*
X194822386Y-47177586D01*
X194838740Y-47185055D01*
X195073375Y-47313176D01*
X195088498Y-47322895D01*
X195302511Y-47483103D01*
X195316097Y-47494876D01*
X195505124Y-47683903D01*
X195516897Y-47697489D01*
X195677105Y-47911502D01*
X195686824Y-47926625D01*
X195814945Y-48161260D01*
X195822414Y-48177614D01*
X195915839Y-48428097D01*
X195920903Y-48445346D01*
X195977727Y-48706560D01*
X195980286Y-48724355D01*
X195999679Y-48995513D01*
X196000000Y-49004501D01*
X196000000Y-143995499D01*
X195999679Y-144004487D01*
X195980286Y-144275645D01*
X195977727Y-144293440D01*
X195920903Y-144554654D01*
X195915839Y-144571903D01*
X195822414Y-144822386D01*
X195814945Y-144838740D01*
X195686824Y-145073375D01*
X195677105Y-145088498D01*
X195516897Y-145302511D01*
X195505124Y-145316097D01*
X195316097Y-145505124D01*
X195302511Y-145516897D01*
X195088498Y-145677105D01*
X195073375Y-145686824D01*
X194838740Y-145814945D01*
X194822386Y-145822414D01*
X194571903Y-145915839D01*
X194554654Y-145920904D01*
X194355988Y-145964121D01*
X194329205Y-145967000D01*
X98670795Y-145967000D01*
X98644012Y-145964121D01*
X98445346Y-145920904D01*
X98428097Y-145915839D01*
X98177614Y-145822414D01*
X98161260Y-145814945D01*
X97926625Y-145686824D01*
X97911502Y-145677105D01*
X97697489Y-145516897D01*
X97683903Y-145505124D01*
X97494876Y-145316097D01*
X97483103Y-145302511D01*
X97322895Y-145088498D01*
X97313176Y-145073375D01*
X97185055Y-144838740D01*
X97177586Y-144822386D01*
X97084161Y-144571903D01*
X97079097Y-144554654D01*
X97022273Y-144293440D01*
X97019714Y-144275645D01*
X97000321Y-144004487D01*
X97000000Y-143995499D01*
X97000000Y-49004501D01*
X97000321Y-48995513D01*
X97019714Y-48724355D01*
X97022273Y-48706560D01*
X97079097Y-48445346D01*
X97084161Y-48428097D01*
X97177586Y-48177614D01*
X97185055Y-48161260D01*
X97313176Y-47926625D01*
X97322895Y-47911502D01*
X97483103Y-47697489D01*
X97494876Y-47683903D01*
X97683903Y-47494876D01*
X97697489Y-47483103D01*
X97911502Y-47322895D01*
X97926625Y-47313176D01*
X98161260Y-47185055D01*
X98177614Y-47177586D01*
X98428097Y-47084161D01*
X98445346Y-47079097D01*
X98706560Y-47022273D01*
X98724355Y-47019714D01*
X98995513Y-47000321D01*
X99004501Y-47000000D01*
X193995499Y-47000000D01*
X194004487Y-47000321D01*
G37*
M02*
