M48
; DRILL file {KiCad 6.0.1-79c1e3a40b~116~ubuntu20.04.1} date Sat 29 Jan 2022 11:27:03 CET
; FORMAT={-:-/ absolute / metric / decimal}
; #@! TF.CreationDate,2022-01-29T11:27:03+01:00
; #@! TF.GenerationSoftware,Kicad,Pcbnew,6.0.1-79c1e3a40b~116~ubuntu20.04.1
; #@! TF.FileFunction,Plated,1,2,PTH
FMAT,2
METRIC
; #@! TA.AperFunction,Plated,PTH,ViaDrill
T1C0.400
; #@! TA.AperFunction,Plated,PTH,ComponentDrill
T2C2.200
%
G90
G05
T1
X98.0Y-51.0
X98.0Y-52.0
X98.0Y-56.0
X98.0Y-57.0
X98.0Y-61.0
X98.0Y-62.0
X98.0Y-66.0
X98.0Y-67.0
X98.0Y-71.0
X98.0Y-72.0
X98.0Y-76.0
X98.0Y-77.0
X98.0Y-81.0
X98.0Y-82.0
X98.0Y-86.0
X98.0Y-87.0
X98.0Y-91.0
X98.0Y-92.0
X98.0Y-96.0
X98.0Y-97.0
X98.0Y-101.0
X98.0Y-102.0
X98.0Y-106.0
X98.0Y-107.0
X98.0Y-111.0
X98.0Y-112.0
X98.0Y-116.0
X98.0Y-117.0
X98.0Y-121.0
X98.0Y-122.0
X98.0Y-126.0
X98.0Y-127.0
X98.0Y-131.0
X98.0Y-132.0
X98.0Y-136.0
X98.0Y-137.0
X98.0Y-141.0
X98.0Y-142.0
X99.0Y-51.0
X99.0Y-52.0
X99.0Y-56.0
X99.0Y-57.0
X99.0Y-61.0
X99.0Y-62.0
X99.0Y-66.0
X99.0Y-67.0
X99.0Y-71.0
X99.0Y-72.0
X99.0Y-76.0
X99.0Y-77.0
X99.0Y-81.0
X99.0Y-82.0
X99.0Y-86.0
X99.0Y-87.0
X99.0Y-91.0
X99.0Y-92.0
X99.0Y-96.0
X99.0Y-97.0
X99.0Y-101.0
X99.0Y-102.0
X99.0Y-106.0
X99.0Y-107.0
X99.0Y-111.0
X99.0Y-112.0
X99.0Y-116.0
X99.0Y-117.0
X99.0Y-121.0
X99.0Y-122.0
X99.0Y-126.0
X99.0Y-127.0
X99.0Y-131.0
X99.0Y-132.0
X99.0Y-136.0
X99.0Y-137.0
X99.0Y-141.0
X99.0Y-142.0
X100.0Y-51.0
X100.0Y-52.0
X100.0Y-56.0
X100.0Y-57.0
X100.0Y-61.0
X100.0Y-62.0
X100.0Y-66.0
X100.0Y-67.0
X100.0Y-71.0
X100.0Y-72.0
X100.0Y-76.0
X100.0Y-77.0
X100.0Y-81.0
X100.0Y-82.0
X100.0Y-86.0
X100.0Y-87.0
X100.0Y-91.0
X100.0Y-92.0
X100.0Y-96.0
X100.0Y-97.0
X100.0Y-101.0
X100.0Y-102.0
X100.0Y-106.0
X100.0Y-107.0
X100.0Y-111.0
X100.0Y-112.0
X100.0Y-116.0
X100.0Y-117.0
X100.0Y-121.0
X100.0Y-122.0
X100.0Y-126.0
X100.0Y-127.0
X100.0Y-131.0
X100.0Y-132.0
X100.0Y-136.0
X100.0Y-137.0
X100.0Y-141.0
X100.0Y-142.0
X101.0Y-48.0
X101.0Y-49.0
X101.0Y-50.0
X101.0Y-51.0
X101.0Y-52.0
X101.0Y-53.0
X101.0Y-54.0
X101.0Y-55.0
X101.0Y-56.0
X101.0Y-57.0
X101.0Y-58.0
X101.0Y-59.0
X101.0Y-60.0
X101.0Y-61.0
X101.0Y-62.0
X101.0Y-63.0
X101.0Y-64.0
X101.0Y-65.0
X101.0Y-66.0
X101.0Y-67.0
X101.0Y-68.0
X101.0Y-69.0
X101.0Y-70.0
X101.0Y-71.0
X101.0Y-72.0
X101.0Y-73.0
X101.0Y-74.0
X101.0Y-75.0
X101.0Y-76.0
X101.0Y-77.0
X101.0Y-78.0
X101.0Y-79.0
X101.0Y-80.0
X101.0Y-81.0
X101.0Y-82.0
X101.0Y-83.0
X101.0Y-84.0
X101.0Y-85.0
X101.0Y-86.0
X101.0Y-87.0
X101.0Y-88.0
X101.0Y-89.0
X101.0Y-90.0
X101.0Y-91.0
X101.0Y-92.0
X101.0Y-93.0
X101.0Y-94.0
X101.0Y-95.0
X101.0Y-96.0
X101.0Y-97.0
X101.0Y-98.0
X101.0Y-99.0
X101.0Y-100.0
X101.0Y-101.0
X101.0Y-102.0
X101.0Y-103.0
X101.0Y-104.0
X101.0Y-105.0
X101.0Y-106.0
X101.0Y-107.0
X101.0Y-108.0
X101.0Y-109.0
X101.0Y-110.0
X101.0Y-111.0
X101.0Y-112.0
X101.0Y-113.0
X101.0Y-114.0
X101.0Y-115.0
X101.0Y-116.0
X101.0Y-117.0
X101.0Y-118.0
X101.0Y-119.0
X101.0Y-120.0
X101.0Y-121.0
X101.0Y-122.0
X101.0Y-123.0
X101.0Y-124.0
X101.0Y-125.0
X101.0Y-126.0
X101.0Y-127.0
X101.0Y-128.0
X101.0Y-129.0
X101.0Y-130.0
X101.0Y-131.0
X101.0Y-132.0
X101.0Y-133.0
X101.0Y-134.0
X101.0Y-135.0
X101.0Y-136.0
X101.0Y-137.0
X101.0Y-138.0
X101.0Y-139.0
X101.0Y-140.0
X101.0Y-141.0
X101.0Y-142.0
X101.0Y-143.0
X101.0Y-144.0
X101.0Y-145.0
X102.0Y-48.0
X102.0Y-49.0
X102.0Y-50.0
X102.0Y-51.0
X102.0Y-52.0
X102.0Y-53.0
X102.0Y-54.0
X102.0Y-55.0
X102.0Y-56.0
X102.0Y-57.0
X102.0Y-58.0
X102.0Y-59.0
X102.0Y-60.0
X102.0Y-61.0
X102.0Y-62.0
X102.0Y-63.0
X102.0Y-64.0
X102.0Y-65.0
X102.0Y-66.0
X102.0Y-67.0
X102.0Y-68.0
X102.0Y-69.0
X102.0Y-70.0
X102.0Y-71.0
X102.0Y-72.0
X102.0Y-73.0
X102.0Y-74.0
X102.0Y-75.0
X102.0Y-76.0
X102.0Y-77.0
X102.0Y-78.0
X102.0Y-79.0
X102.0Y-80.0
X102.0Y-81.0
X102.0Y-82.0
X102.0Y-83.0
X102.0Y-84.0
X102.0Y-85.0
X102.0Y-86.0
X102.0Y-87.0
X102.0Y-88.0
X102.0Y-89.0
X102.0Y-90.0
X102.0Y-91.0
X102.0Y-92.0
X102.0Y-93.0
X102.0Y-94.0
X102.0Y-95.0
X102.0Y-96.0
X102.0Y-97.0
X102.0Y-98.0
X102.0Y-99.0
X102.0Y-100.0
X102.0Y-101.0
X102.0Y-102.0
X102.0Y-103.0
X102.0Y-104.0
X102.0Y-105.0
X102.0Y-106.0
X102.0Y-107.0
X102.0Y-108.0
X102.0Y-109.0
X102.0Y-110.0
X102.0Y-111.0
X102.0Y-112.0
X102.0Y-113.0
X102.0Y-114.0
X102.0Y-115.0
X102.0Y-116.0
X102.0Y-117.0
X102.0Y-118.0
X102.0Y-119.0
X102.0Y-120.0
X102.0Y-121.0
X102.0Y-122.0
X102.0Y-123.0
X102.0Y-124.0
X102.0Y-125.0
X102.0Y-126.0
X102.0Y-127.0
X102.0Y-128.0
X102.0Y-129.0
X102.0Y-130.0
X102.0Y-131.0
X102.0Y-132.0
X102.0Y-141.0
X102.0Y-142.0
X102.0Y-143.0
X102.0Y-144.0
X102.0Y-145.0
X103.0Y-51.0
X103.0Y-52.0
X103.0Y-56.0
X103.0Y-57.0
X103.0Y-61.0
X103.0Y-62.0
X103.0Y-66.0
X103.0Y-67.0
X103.0Y-71.0
X103.0Y-72.0
X103.0Y-76.0
X103.0Y-77.0
X103.0Y-81.0
X103.0Y-82.0
X103.0Y-86.0
X103.0Y-87.0
X103.0Y-91.0
X103.0Y-92.0
X103.0Y-96.0
X103.0Y-97.0
X103.0Y-101.0
X103.0Y-102.0
X103.0Y-106.0
X103.0Y-107.0
X103.0Y-111.0
X103.0Y-112.0
X103.0Y-116.0
X103.0Y-117.0
X103.0Y-121.0
X103.0Y-122.0
X103.0Y-126.0
X103.0Y-127.0
X103.0Y-131.0
X103.0Y-142.0
X104.0Y-51.0
X104.0Y-52.0
X104.0Y-56.0
X104.0Y-57.0
X104.0Y-61.0
X104.0Y-62.0
X104.0Y-66.0
X104.0Y-67.0
X104.0Y-71.0
X104.0Y-72.0
X104.0Y-76.0
X104.0Y-77.0
X104.0Y-81.0
X104.0Y-82.0
X104.0Y-86.0
X104.0Y-87.0
X104.0Y-91.0
X104.0Y-92.0
X104.0Y-96.0
X104.0Y-97.0
X104.0Y-101.0
X104.0Y-102.0
X104.0Y-106.0
X104.0Y-107.0
X104.0Y-111.0
X104.0Y-112.0
X104.0Y-116.0
X104.0Y-117.0
X104.0Y-121.0
X104.0Y-122.0
X104.0Y-126.0
X104.0Y-127.0
X104.0Y-131.0
X104.0Y-142.0
X105.0Y-51.0
X105.0Y-52.0
X105.0Y-56.0
X105.0Y-57.0
X105.0Y-61.0
X105.0Y-62.0
X105.0Y-66.0
X105.0Y-67.0
X105.0Y-71.0
X105.0Y-72.0
X105.0Y-76.0
X105.0Y-77.0
X105.0Y-81.0
X105.0Y-82.0
X105.0Y-86.0
X105.0Y-87.0
X105.0Y-91.0
X105.0Y-92.0
X105.0Y-96.0
X105.0Y-97.0
X105.0Y-101.0
X105.0Y-102.0
X105.0Y-106.0
X105.0Y-107.0
X105.0Y-111.0
X105.0Y-112.0
X105.0Y-116.0
X105.0Y-117.0
X105.0Y-121.0
X105.0Y-122.0
X105.0Y-126.0
X105.0Y-127.0
X105.0Y-131.0
X105.0Y-142.0
X106.0Y-48.0
X106.0Y-49.0
X106.0Y-50.0
X106.0Y-51.0
X106.0Y-52.0
X106.0Y-53.0
X106.0Y-54.0
X106.0Y-55.0
X106.0Y-56.0
X106.0Y-57.0
X106.0Y-58.0
X106.0Y-59.0
X106.0Y-60.0
X106.0Y-61.0
X106.0Y-62.0
X106.0Y-63.0
X106.0Y-64.0
X106.0Y-65.0
X106.0Y-66.0
X106.0Y-67.0
X106.0Y-68.0
X106.0Y-69.0
X106.0Y-70.0
X106.0Y-71.0
X106.0Y-72.0
X106.0Y-73.0
X106.0Y-74.0
X106.0Y-75.0
X106.0Y-76.0
X106.0Y-77.0
X106.0Y-78.0
X106.0Y-79.0
X106.0Y-80.0
X106.0Y-81.0
X106.0Y-82.0
X106.0Y-83.0
X106.0Y-84.0
X106.0Y-85.0
X106.0Y-86.0
X106.0Y-87.0
X106.0Y-88.0
X106.0Y-89.0
X106.0Y-90.0
X106.0Y-91.0
X106.0Y-92.0
X106.0Y-93.0
X106.0Y-94.0
X106.0Y-95.0
X106.0Y-96.0
X106.0Y-97.0
X106.0Y-98.0
X106.0Y-99.0
X106.0Y-100.0
X106.0Y-101.0
X106.0Y-102.0
X106.0Y-103.0
X106.0Y-104.0
X106.0Y-105.0
X106.0Y-106.0
X106.0Y-107.0
X106.0Y-108.0
X106.0Y-109.0
X106.0Y-110.0
X106.0Y-111.0
X106.0Y-112.0
X106.0Y-113.0
X106.0Y-114.0
X106.0Y-115.0
X106.0Y-116.0
X106.0Y-117.0
X106.0Y-118.0
X106.0Y-119.0
X106.0Y-120.0
X106.0Y-121.0
X106.0Y-122.0
X106.0Y-123.0
X106.0Y-124.0
X106.0Y-125.0
X106.0Y-126.0
X106.0Y-127.0
X106.0Y-128.0
X106.0Y-129.0
X106.0Y-130.0
X106.0Y-131.0
X106.0Y-142.0
X106.0Y-143.0
X106.0Y-144.0
X106.0Y-145.0
X107.0Y-48.0
X107.0Y-49.0
X107.0Y-50.0
X107.0Y-51.0
X107.0Y-52.0
X107.0Y-53.0
X107.0Y-54.0
X107.0Y-55.0
X107.0Y-56.0
X107.0Y-57.0
X107.0Y-58.0
X107.0Y-59.0
X107.0Y-60.0
X107.0Y-61.0
X107.0Y-62.0
X107.0Y-63.0
X107.0Y-64.0
X107.0Y-65.0
X107.0Y-66.0
X107.0Y-67.0
X107.0Y-68.0
X107.0Y-69.0
X107.0Y-70.0
X107.0Y-71.0
X107.0Y-72.0
X107.0Y-73.0
X107.0Y-74.0
X107.0Y-75.0
X107.0Y-76.0
X107.0Y-77.0
X107.0Y-78.0
X107.0Y-79.0
X107.0Y-80.0
X107.0Y-81.0
X107.0Y-82.0
X107.0Y-83.0
X107.0Y-84.0
X107.0Y-85.0
X107.0Y-86.0
X107.0Y-87.0
X107.0Y-88.0
X107.0Y-89.0
X107.0Y-90.0
X107.0Y-91.0
X107.0Y-92.0
X107.0Y-93.0
X107.0Y-94.0
X107.0Y-95.0
X107.0Y-96.0
X107.0Y-97.0
X107.0Y-98.0
X107.0Y-99.0
X107.0Y-100.0
X107.0Y-101.0
X107.0Y-102.0
X107.0Y-103.0
X107.0Y-104.0
X107.0Y-105.0
X107.0Y-106.0
X107.0Y-107.0
X107.0Y-108.0
X107.0Y-109.0
X107.0Y-110.0
X107.0Y-111.0
X107.0Y-112.0
X107.0Y-113.0
X107.0Y-114.0
X107.0Y-115.0
X107.0Y-116.0
X107.0Y-117.0
X107.0Y-118.0
X107.0Y-119.0
X107.0Y-120.0
X107.0Y-121.0
X107.0Y-122.0
X107.0Y-123.0
X107.0Y-124.0
X107.0Y-125.0
X107.0Y-126.0
X107.0Y-127.0
X107.0Y-128.0
X107.0Y-129.0
X107.0Y-130.0
X107.0Y-131.0
X107.0Y-142.0
X107.0Y-143.0
X107.0Y-144.0
X107.0Y-145.0
X108.0Y-51.0
X108.0Y-52.0
X108.0Y-56.0
X108.0Y-57.0
X108.0Y-61.0
X108.0Y-62.0
X108.0Y-66.0
X108.0Y-67.0
X108.0Y-71.0
X108.0Y-72.0
X108.0Y-76.0
X108.0Y-77.0
X108.0Y-81.0
X108.0Y-82.0
X108.0Y-86.0
X108.0Y-87.0
X108.0Y-91.0
X108.0Y-92.0
X108.0Y-96.0
X108.0Y-97.0
X108.0Y-101.0
X108.0Y-102.0
X108.0Y-106.0
X108.0Y-107.0
X108.0Y-111.0
X108.0Y-112.0
X108.0Y-116.0
X108.0Y-117.0
X108.0Y-121.0
X108.0Y-122.0
X108.0Y-126.0
X108.0Y-127.0
X108.0Y-131.0
X108.0Y-142.0
X109.0Y-51.0
X109.0Y-52.0
X109.0Y-56.0
X109.0Y-57.0
X109.0Y-61.0
X109.0Y-62.0
X109.0Y-66.0
X109.0Y-67.0
X109.0Y-71.0
X109.0Y-72.0
X109.0Y-76.0
X109.0Y-77.0
X109.0Y-81.0
X109.0Y-82.0
X109.0Y-86.0
X109.0Y-87.0
X109.0Y-91.0
X109.0Y-92.0
X109.0Y-96.0
X109.0Y-97.0
X109.0Y-101.0
X109.0Y-102.0
X109.0Y-106.0
X109.0Y-107.0
X109.0Y-111.0
X109.0Y-112.0
X109.0Y-116.0
X109.0Y-117.0
X109.0Y-121.0
X109.0Y-122.0
X109.0Y-126.0
X109.0Y-127.0
X109.0Y-131.0
X109.0Y-142.0
X110.0Y-51.0
X110.0Y-52.0
X110.0Y-56.0
X110.0Y-57.0
X110.0Y-61.0
X110.0Y-62.0
X110.0Y-66.0
X110.0Y-67.0
X110.0Y-71.0
X110.0Y-72.0
X110.0Y-76.0
X110.0Y-77.0
X110.0Y-81.0
X110.0Y-82.0
X110.0Y-86.0
X110.0Y-87.0
X110.0Y-91.0
X110.0Y-92.0
X110.0Y-96.0
X110.0Y-97.0
X110.0Y-101.0
X110.0Y-102.0
X110.0Y-106.0
X110.0Y-107.0
X110.0Y-111.0
X110.0Y-112.0
X110.0Y-116.0
X110.0Y-117.0
X110.0Y-121.0
X110.0Y-122.0
X110.0Y-126.0
X110.0Y-127.0
X110.0Y-131.0
X110.0Y-142.0
X111.0Y-48.0
X111.0Y-49.0
X111.0Y-50.0
X111.0Y-51.0
X111.0Y-52.0
X111.0Y-53.0
X111.0Y-54.0
X111.0Y-55.0
X111.0Y-56.0
X111.0Y-57.0
X111.0Y-58.0
X111.0Y-59.0
X111.0Y-60.0
X111.0Y-61.0
X111.0Y-62.0
X111.0Y-63.0
X111.0Y-64.0
X111.0Y-65.0
X111.0Y-66.0
X111.0Y-67.0
X111.0Y-68.0
X111.0Y-69.0
X111.0Y-70.0
X111.0Y-71.0
X111.0Y-72.0
X111.0Y-73.0
X111.0Y-74.0
X111.0Y-75.0
X111.0Y-76.0
X111.0Y-77.0
X111.0Y-78.0
X111.0Y-79.0
X111.0Y-80.0
X111.0Y-81.0
X111.0Y-82.0
X111.0Y-83.0
X111.0Y-84.0
X111.0Y-85.0
X111.0Y-86.0
X111.0Y-87.0
X111.0Y-88.0
X111.0Y-89.0
X111.0Y-90.0
X111.0Y-91.0
X111.0Y-92.0
X111.0Y-93.0
X111.0Y-94.0
X111.0Y-95.0
X111.0Y-96.0
X111.0Y-97.0
X111.0Y-98.0
X111.0Y-99.0
X111.0Y-100.0
X111.0Y-101.0
X111.0Y-102.0
X111.0Y-103.0
X111.0Y-104.0
X111.0Y-105.0
X111.0Y-106.0
X111.0Y-107.0
X111.0Y-108.0
X111.0Y-109.0
X111.0Y-110.0
X111.0Y-111.0
X111.0Y-112.0
X111.0Y-113.0
X111.0Y-114.0
X111.0Y-115.0
X111.0Y-116.0
X111.0Y-117.0
X111.0Y-118.0
X111.0Y-119.0
X111.0Y-120.0
X111.0Y-121.0
X111.0Y-122.0
X111.0Y-123.0
X111.0Y-124.0
X111.0Y-125.0
X111.0Y-126.0
X111.0Y-127.0
X111.0Y-128.0
X111.0Y-129.0
X111.0Y-130.0
X111.0Y-131.0
X111.0Y-132.0
X111.0Y-141.0
X111.0Y-142.0
X111.0Y-143.0
X111.0Y-144.0
X111.0Y-145.0
X112.0Y-48.0
X112.0Y-49.0
X112.0Y-50.0
X112.0Y-51.0
X112.0Y-52.0
X112.0Y-53.0
X112.0Y-54.0
X112.0Y-55.0
X112.0Y-56.0
X112.0Y-57.0
X112.0Y-58.0
X112.0Y-59.0
X112.0Y-60.0
X112.0Y-61.0
X112.0Y-62.0
X112.0Y-63.0
X112.0Y-64.0
X112.0Y-65.0
X112.0Y-66.0
X112.0Y-67.0
X112.0Y-68.0
X112.0Y-69.0
X112.0Y-70.0
X112.0Y-71.0
X112.0Y-72.0
X112.0Y-73.0
X112.0Y-74.0
X112.0Y-75.0
X112.0Y-76.0
X112.0Y-77.0
X112.0Y-78.0
X112.0Y-79.0
X112.0Y-80.0
X112.0Y-81.0
X112.0Y-82.0
X112.0Y-83.0
X112.0Y-84.0
X112.0Y-85.0
X112.0Y-86.0
X112.0Y-87.0
X112.0Y-88.0
X112.0Y-89.0
X112.0Y-90.0
X112.0Y-91.0
X112.0Y-92.0
X112.0Y-93.0
X112.0Y-94.0
X112.0Y-95.0
X112.0Y-96.0
X112.0Y-97.0
X112.0Y-98.0
X112.0Y-99.0
X112.0Y-100.0
X112.0Y-101.0
X112.0Y-102.0
X112.0Y-103.0
X112.0Y-104.0
X112.0Y-105.0
X112.0Y-106.0
X112.0Y-107.0
X112.0Y-108.0
X112.0Y-109.0
X112.0Y-110.0
X112.0Y-111.0
X112.0Y-112.0
X112.0Y-113.0
X112.0Y-114.0
X112.0Y-115.0
X112.0Y-116.0
X112.0Y-117.0
X112.0Y-118.0
X112.0Y-119.0
X112.0Y-120.0
X112.0Y-121.0
X112.0Y-122.0
X112.0Y-123.0
X112.0Y-124.0
X112.0Y-125.0
X112.0Y-126.0
X112.0Y-127.0
X112.0Y-128.0
X112.0Y-129.0
X112.0Y-130.0
X112.0Y-131.0
X112.0Y-132.0
X112.0Y-133.0
X112.0Y-134.0
X112.0Y-135.0
X112.0Y-136.0
X112.0Y-137.0
X112.0Y-138.0
X112.0Y-139.0
X112.0Y-140.0
X112.0Y-141.0
X112.0Y-142.0
X112.0Y-143.0
X112.0Y-144.0
X112.0Y-145.0
X113.0Y-51.0
X113.0Y-52.0
X113.0Y-56.0
X113.0Y-57.0
X113.0Y-61.0
X113.0Y-62.0
X113.0Y-66.0
X113.0Y-67.0
X113.0Y-71.0
X113.0Y-72.0
X113.0Y-76.0
X113.0Y-77.0
X113.0Y-81.0
X113.0Y-82.0
X113.0Y-86.0
X113.0Y-87.0
X113.0Y-91.0
X113.0Y-92.0
X113.0Y-96.0
X113.0Y-97.0
X113.0Y-101.0
X113.0Y-102.0
X113.0Y-106.0
X113.0Y-107.0
X113.0Y-111.0
X113.0Y-112.0
X113.0Y-116.0
X113.0Y-117.0
X113.0Y-121.0
X113.0Y-122.0
X113.0Y-126.0
X113.0Y-127.0
X113.0Y-131.0
X113.0Y-132.0
X113.0Y-136.0
X113.0Y-137.0
X113.0Y-141.0
X113.0Y-142.0
X114.0Y-51.0
X114.0Y-52.0
X114.0Y-56.0
X114.0Y-57.0
X114.0Y-61.0
X114.0Y-62.0
X114.0Y-66.0
X114.0Y-67.0
X114.0Y-71.0
X114.0Y-72.0
X114.0Y-76.0
X114.0Y-77.0
X114.0Y-81.0
X114.0Y-82.0
X114.0Y-86.0
X114.0Y-87.0
X114.0Y-91.0
X114.0Y-92.0
X114.0Y-96.0
X114.0Y-97.0
X114.0Y-101.0
X114.0Y-102.0
X114.0Y-106.0
X114.0Y-107.0
X114.0Y-111.0
X114.0Y-112.0
X114.0Y-116.0
X114.0Y-117.0
X114.0Y-121.0
X114.0Y-122.0
X114.0Y-126.0
X114.0Y-127.0
X114.0Y-131.0
X114.0Y-132.0
X114.0Y-136.0
X114.0Y-137.0
X114.0Y-141.0
X114.0Y-142.0
X115.0Y-51.0
X115.0Y-52.0
X115.0Y-56.0
X115.0Y-57.0
X115.0Y-61.0
X115.0Y-62.0
X115.0Y-66.0
X115.0Y-67.0
X115.0Y-71.0
X115.0Y-72.0
X115.0Y-76.0
X115.0Y-77.0
X115.0Y-81.0
X115.0Y-82.0
X115.0Y-86.0
X115.0Y-87.0
X115.0Y-91.0
X115.0Y-92.0
X115.0Y-96.0
X115.0Y-97.0
X115.0Y-101.0
X115.0Y-102.0
X115.0Y-106.0
X115.0Y-107.0
X115.0Y-111.0
X115.0Y-112.0
X115.0Y-116.0
X115.0Y-117.0
X115.0Y-121.0
X115.0Y-122.0
X115.0Y-126.0
X115.0Y-127.0
X115.0Y-131.0
X115.0Y-132.0
X115.0Y-136.0
X115.0Y-137.0
X115.0Y-141.0
X115.0Y-142.0
X116.0Y-48.0
X116.0Y-49.0
X116.0Y-50.0
X116.0Y-51.0
X116.0Y-52.0
X116.0Y-53.0
X116.0Y-54.0
X116.0Y-55.0
X116.0Y-56.0
X116.0Y-57.0
X116.0Y-58.0
X116.0Y-59.0
X116.0Y-60.0
X116.0Y-61.0
X116.0Y-62.0
X116.0Y-63.0
X116.0Y-64.0
X116.0Y-65.0
X116.0Y-66.0
X116.0Y-67.0
X116.0Y-68.0
X116.0Y-69.0
X116.0Y-70.0
X116.0Y-71.0
X116.0Y-72.0
X116.0Y-73.0
X116.0Y-74.0
X116.0Y-75.0
X116.0Y-76.0
X116.0Y-77.0
X116.0Y-78.0
X116.0Y-79.0
X116.0Y-80.0
X116.0Y-81.0
X116.0Y-82.0
X116.0Y-83.0
X116.0Y-84.0
X116.0Y-85.0
X116.0Y-86.0
X116.0Y-87.0
X116.0Y-88.0
X116.0Y-89.0
X116.0Y-90.0
X116.0Y-91.0
X116.0Y-92.0
X116.0Y-93.0
X116.0Y-94.0
X116.0Y-95.0
X116.0Y-96.0
X116.0Y-97.0
X116.0Y-98.0
X116.0Y-99.0
X116.0Y-100.0
X116.0Y-101.0
X116.0Y-102.0
X116.0Y-103.0
X116.0Y-104.0
X116.0Y-105.0
X116.0Y-106.0
X116.0Y-107.0
X116.0Y-108.0
X116.0Y-109.0
X116.0Y-110.0
X116.0Y-111.0
X116.0Y-112.0
X116.0Y-113.0
X116.0Y-114.0
X116.0Y-115.0
X116.0Y-116.0
X116.0Y-117.0
X116.0Y-118.0
X116.0Y-119.0
X116.0Y-120.0
X116.0Y-121.0
X116.0Y-122.0
X116.0Y-123.0
X116.0Y-124.0
X116.0Y-125.0
X116.0Y-126.0
X116.0Y-127.0
X116.0Y-128.0
X116.0Y-129.0
X116.0Y-130.0
X116.0Y-131.0
X116.0Y-132.0
X116.0Y-133.0
X116.0Y-134.0
X116.0Y-135.0
X116.0Y-136.0
X116.0Y-137.0
X116.0Y-138.0
X116.0Y-139.0
X116.0Y-140.0
X116.0Y-141.0
X116.0Y-142.0
X116.0Y-143.0
X116.0Y-144.0
X116.0Y-145.0
X117.0Y-48.0
X117.0Y-49.0
X117.0Y-50.0
X117.0Y-51.0
X117.0Y-52.0
X117.0Y-53.0
X117.0Y-54.0
X117.0Y-55.0
X117.0Y-56.0
X117.0Y-57.0
X117.0Y-58.0
X117.0Y-59.0
X117.0Y-60.0
X117.0Y-61.0
X117.0Y-62.0
X117.0Y-63.0
X117.0Y-64.0
X117.0Y-65.0
X117.0Y-66.0
X117.0Y-67.0
X117.0Y-68.0
X117.0Y-69.0
X117.0Y-70.0
X117.0Y-71.0
X117.0Y-72.0
X117.0Y-73.0
X117.0Y-74.0
X117.0Y-75.0
X117.0Y-76.0
X117.0Y-77.0
X117.0Y-78.0
X117.0Y-79.0
X117.0Y-80.0
X117.0Y-81.0
X117.0Y-82.0
X117.0Y-83.0
X117.0Y-84.0
X117.0Y-85.0
X117.0Y-86.0
X117.0Y-87.0
X117.0Y-88.0
X117.0Y-89.0
X117.0Y-90.0
X117.0Y-91.0
X117.0Y-92.0
X117.0Y-93.0
X117.0Y-94.0
X117.0Y-95.0
X117.0Y-96.0
X117.0Y-97.0
X117.0Y-98.0
X117.0Y-99.0
X117.0Y-100.0
X117.0Y-101.0
X117.0Y-102.0
X117.0Y-103.0
X117.0Y-104.0
X117.0Y-105.0
X117.0Y-106.0
X117.0Y-107.0
X117.0Y-108.0
X117.0Y-109.0
X117.0Y-110.0
X117.0Y-111.0
X117.0Y-112.0
X117.0Y-113.0
X117.0Y-114.0
X117.0Y-115.0
X117.0Y-116.0
X117.0Y-117.0
X117.0Y-118.0
X117.0Y-119.0
X117.0Y-120.0
X117.0Y-121.0
X117.0Y-122.0
X117.0Y-123.0
X117.0Y-124.0
X117.0Y-125.0
X117.0Y-126.0
X117.0Y-127.0
X117.0Y-128.0
X117.0Y-129.0
X117.0Y-130.0
X117.0Y-131.0
X117.0Y-132.0
X117.0Y-133.0
X117.0Y-134.0
X117.0Y-135.0
X117.0Y-136.0
X117.0Y-137.0
X117.0Y-138.0
X117.0Y-139.0
X117.0Y-140.0
X117.0Y-141.0
X117.0Y-142.0
X117.0Y-143.0
X117.0Y-144.0
X117.0Y-145.0
X118.0Y-51.0
X118.0Y-52.0
X118.0Y-56.0
X118.0Y-57.0
X118.0Y-61.0
X118.0Y-62.0
X118.0Y-66.0
X118.0Y-67.0
X118.0Y-71.0
X118.0Y-72.0
X118.0Y-76.0
X118.0Y-77.0
X118.0Y-81.0
X118.0Y-82.0
X118.0Y-86.0
X118.0Y-87.0
X118.0Y-91.0
X118.0Y-92.0
X118.0Y-96.0
X118.0Y-97.0
X118.0Y-101.0
X118.0Y-102.0
X118.0Y-106.0
X118.0Y-107.0
X118.0Y-111.0
X118.0Y-112.0
X118.0Y-116.0
X118.0Y-117.0
X118.0Y-121.0
X118.0Y-122.0
X118.0Y-126.0
X118.0Y-127.0
X118.0Y-131.0
X118.0Y-132.0
X118.0Y-136.0
X118.0Y-137.0
X118.0Y-141.0
X118.0Y-142.0
X119.0Y-51.0
X119.0Y-52.0
X119.0Y-56.0
X119.0Y-57.0
X119.0Y-61.0
X119.0Y-62.0
X119.0Y-66.0
X119.0Y-67.0
X119.0Y-71.0
X119.0Y-72.0
X119.0Y-76.0
X119.0Y-77.0
X119.0Y-81.0
X119.0Y-82.0
X119.0Y-86.0
X119.0Y-87.0
X119.0Y-91.0
X119.0Y-92.0
X119.0Y-96.0
X119.0Y-97.0
X119.0Y-101.0
X119.0Y-102.0
X119.0Y-106.0
X119.0Y-107.0
X119.0Y-111.0
X119.0Y-112.0
X119.0Y-116.0
X119.0Y-117.0
X119.0Y-121.0
X119.0Y-122.0
X119.0Y-126.0
X119.0Y-127.0
X119.0Y-131.0
X119.0Y-132.0
X119.0Y-136.0
X119.0Y-137.0
X119.0Y-141.0
X119.0Y-142.0
X120.0Y-51.0
X120.0Y-52.0
X120.0Y-56.0
X120.0Y-57.0
X120.0Y-61.0
X120.0Y-62.0
X120.0Y-66.0
X120.0Y-67.0
X120.0Y-71.0
X120.0Y-72.0
X120.0Y-76.0
X120.0Y-77.0
X120.0Y-81.0
X120.0Y-82.0
X120.0Y-86.0
X120.0Y-87.0
X120.0Y-91.0
X120.0Y-92.0
X120.0Y-96.0
X120.0Y-97.0
X120.0Y-101.0
X120.0Y-102.0
X120.0Y-106.0
X120.0Y-107.0
X120.0Y-111.0
X120.0Y-112.0
X120.0Y-116.0
X120.0Y-117.0
X120.0Y-121.0
X120.0Y-122.0
X120.0Y-126.0
X120.0Y-127.0
X120.0Y-131.0
X120.0Y-132.0
X120.0Y-136.0
X120.0Y-137.0
X120.0Y-141.0
X120.0Y-142.0
X121.0Y-48.0
X121.0Y-49.0
X121.0Y-50.0
X121.0Y-51.0
X121.0Y-52.0
X121.0Y-53.0
X121.0Y-54.0
X121.0Y-55.0
X121.0Y-56.0
X121.0Y-57.0
X121.0Y-58.0
X121.0Y-59.0
X121.0Y-60.0
X121.0Y-61.0
X121.0Y-62.0
X121.0Y-63.0
X121.0Y-64.0
X121.0Y-65.0
X121.0Y-66.0
X121.0Y-67.0
X121.0Y-68.0
X121.0Y-69.0
X121.0Y-70.0
X121.0Y-71.0
X121.0Y-72.0
X121.0Y-73.0
X121.0Y-74.0
X121.0Y-75.0
X121.0Y-76.0
X121.0Y-77.0
X121.0Y-78.0
X121.0Y-79.0
X121.0Y-80.0
X121.0Y-81.0
X121.0Y-82.0
X121.0Y-83.0
X121.0Y-84.0
X121.0Y-85.0
X121.0Y-86.0
X121.0Y-87.0
X121.0Y-88.0
X121.0Y-89.0
X121.0Y-90.0
X121.0Y-91.0
X121.0Y-92.0
X121.0Y-93.0
X121.0Y-94.0
X121.0Y-95.0
X121.0Y-96.0
X121.0Y-97.0
X121.0Y-98.0
X121.0Y-99.0
X121.0Y-100.0
X121.0Y-101.0
X121.0Y-102.0
X121.0Y-103.0
X121.0Y-104.0
X121.0Y-105.0
X121.0Y-106.0
X121.0Y-107.0
X121.0Y-108.0
X121.0Y-109.0
X121.0Y-110.0
X121.0Y-111.0
X121.0Y-112.0
X121.0Y-113.0
X121.0Y-114.0
X121.0Y-115.0
X121.0Y-116.0
X121.0Y-117.0
X121.0Y-118.0
X121.0Y-119.0
X121.0Y-120.0
X121.0Y-121.0
X121.0Y-122.0
X121.0Y-123.0
X121.0Y-124.0
X121.0Y-125.0
X121.0Y-126.0
X121.0Y-127.0
X121.0Y-128.0
X121.0Y-129.0
X121.0Y-130.0
X121.0Y-131.0
X121.0Y-132.0
X121.0Y-133.0
X121.0Y-134.0
X121.0Y-135.0
X121.0Y-136.0
X121.0Y-137.0
X121.0Y-138.0
X121.0Y-139.0
X121.0Y-140.0
X121.0Y-141.0
X121.0Y-142.0
X121.0Y-143.0
X121.0Y-144.0
X121.0Y-145.0
X122.0Y-48.0
X122.0Y-49.0
X122.0Y-50.0
X122.0Y-51.0
X122.0Y-52.0
X122.0Y-53.0
X122.0Y-54.0
X122.0Y-55.0
X122.0Y-56.0
X122.0Y-57.0
X122.0Y-58.0
X122.0Y-59.0
X122.0Y-60.0
X122.0Y-61.0
X122.0Y-62.0
X122.0Y-63.0
X122.0Y-64.0
X122.0Y-65.0
X122.0Y-66.0
X122.0Y-67.0
X122.0Y-68.0
X122.0Y-69.0
X122.0Y-70.0
X122.0Y-71.0
X122.0Y-72.0
X122.0Y-73.0
X122.0Y-74.0
X122.0Y-75.0
X122.0Y-76.0
X122.0Y-77.0
X122.0Y-78.0
X122.0Y-79.0
X122.0Y-80.0
X122.0Y-81.0
X122.0Y-82.0
X122.0Y-83.0
X122.0Y-84.0
X122.0Y-85.0
X122.0Y-86.0
X122.0Y-87.0
X122.0Y-88.0
X122.0Y-89.0
X122.0Y-90.0
X122.0Y-91.0
X122.0Y-92.0
X122.0Y-93.0
X122.0Y-94.0
X122.0Y-95.0
X122.0Y-96.0
X122.0Y-97.0
X122.0Y-98.0
X122.0Y-99.0
X122.0Y-100.0
X122.0Y-101.0
X122.0Y-102.0
X122.0Y-103.0
X122.0Y-104.0
X122.0Y-105.0
X122.0Y-106.0
X122.0Y-107.0
X122.0Y-108.0
X122.0Y-109.0
X122.0Y-110.0
X122.0Y-111.0
X122.0Y-112.0
X122.0Y-113.0
X122.0Y-114.0
X122.0Y-115.0
X122.0Y-116.0
X122.0Y-117.0
X122.0Y-118.0
X122.0Y-119.0
X122.0Y-120.0
X122.0Y-121.0
X122.0Y-122.0
X122.0Y-123.0
X122.0Y-124.0
X122.0Y-125.0
X122.0Y-126.0
X122.0Y-127.0
X122.0Y-128.0
X122.0Y-129.0
X122.0Y-130.0
X122.0Y-131.0
X122.0Y-132.0
X122.0Y-133.0
X122.0Y-134.0
X122.0Y-135.0
X122.0Y-136.0
X122.0Y-137.0
X122.0Y-138.0
X122.0Y-139.0
X122.0Y-140.0
X122.0Y-141.0
X122.0Y-142.0
X122.0Y-143.0
X122.0Y-144.0
X122.0Y-145.0
X123.0Y-51.0
X123.0Y-52.0
X123.0Y-56.0
X123.0Y-57.0
X123.0Y-61.0
X123.0Y-62.0
X123.0Y-66.0
X123.0Y-67.0
X123.0Y-71.0
X123.0Y-72.0
X123.0Y-76.0
X123.0Y-77.0
X123.0Y-81.0
X123.0Y-82.0
X123.0Y-86.0
X123.0Y-87.0
X123.0Y-91.0
X123.0Y-92.0
X123.0Y-96.0
X123.0Y-97.0
X123.0Y-101.0
X123.0Y-102.0
X123.0Y-106.0
X123.0Y-107.0
X123.0Y-111.0
X123.0Y-112.0
X123.0Y-116.0
X123.0Y-117.0
X123.0Y-121.0
X123.0Y-122.0
X123.0Y-126.0
X123.0Y-127.0
X123.0Y-131.0
X123.0Y-132.0
X123.0Y-136.0
X123.0Y-137.0
X123.0Y-141.0
X123.0Y-142.0
X124.0Y-51.0
X124.0Y-52.0
X124.0Y-56.0
X124.0Y-57.0
X124.0Y-61.0
X124.0Y-62.0
X124.0Y-66.0
X124.0Y-67.0
X124.0Y-71.0
X124.0Y-72.0
X124.0Y-76.0
X124.0Y-77.0
X124.0Y-81.0
X124.0Y-82.0
X124.0Y-86.0
X124.0Y-87.0
X124.0Y-91.0
X124.0Y-92.0
X124.0Y-96.0
X124.0Y-97.0
X124.0Y-101.0
X124.0Y-102.0
X124.0Y-106.0
X124.0Y-107.0
X124.0Y-111.0
X124.0Y-112.0
X124.0Y-116.0
X124.0Y-117.0
X124.0Y-121.0
X124.0Y-122.0
X124.0Y-126.0
X124.0Y-127.0
X124.0Y-131.0
X124.0Y-132.0
X124.0Y-136.0
X124.0Y-137.0
X124.0Y-141.0
X124.0Y-142.0
X125.0Y-51.0
X125.0Y-52.0
X125.0Y-56.0
X125.0Y-57.0
X125.0Y-61.0
X125.0Y-62.0
X125.0Y-66.0
X125.0Y-67.0
X125.0Y-71.0
X125.0Y-72.0
X125.0Y-76.0
X125.0Y-77.0
X125.0Y-81.0
X125.0Y-82.0
X125.0Y-86.0
X125.0Y-87.0
X125.0Y-91.0
X125.0Y-92.0
X125.0Y-96.0
X125.0Y-97.0
X125.0Y-101.0
X125.0Y-102.0
X125.0Y-106.0
X125.0Y-107.0
X125.0Y-111.0
X125.0Y-112.0
X125.0Y-116.0
X125.0Y-117.0
X125.0Y-121.0
X125.0Y-122.0
X125.0Y-126.0
X125.0Y-127.0
X125.0Y-131.0
X125.0Y-132.0
X125.0Y-136.0
X125.0Y-137.0
X125.0Y-141.0
X125.0Y-142.0
X126.0Y-48.0
X126.0Y-49.0
X126.0Y-50.0
X126.0Y-51.0
X126.0Y-52.0
X126.0Y-53.0
X126.0Y-54.0
X126.0Y-55.0
X126.0Y-56.0
X126.0Y-57.0
X126.0Y-58.0
X126.0Y-59.0
X126.0Y-60.0
X126.0Y-61.0
X126.0Y-62.0
X126.0Y-63.0
X126.0Y-64.0
X126.0Y-65.0
X126.0Y-66.0
X126.0Y-67.0
X126.0Y-68.0
X126.0Y-69.0
X126.0Y-70.0
X126.0Y-71.0
X126.0Y-72.0
X126.0Y-73.0
X126.0Y-74.0
X126.0Y-75.0
X126.0Y-76.0
X126.0Y-77.0
X126.0Y-78.0
X126.0Y-79.0
X126.0Y-80.0
X126.0Y-81.0
X126.0Y-82.0
X126.0Y-83.0
X126.0Y-84.0
X126.0Y-85.0
X126.0Y-86.0
X126.0Y-87.0
X126.0Y-88.0
X126.0Y-89.0
X126.0Y-90.0
X126.0Y-91.0
X126.0Y-92.0
X126.0Y-93.0
X126.0Y-94.0
X126.0Y-95.0
X126.0Y-96.0
X126.0Y-97.0
X126.0Y-98.0
X126.0Y-99.0
X126.0Y-100.0
X126.0Y-101.0
X126.0Y-102.0
X126.0Y-103.0
X126.0Y-104.0
X126.0Y-105.0
X126.0Y-106.0
X126.0Y-107.0
X126.0Y-108.0
X126.0Y-109.0
X126.0Y-110.0
X126.0Y-111.0
X126.0Y-112.0
X126.0Y-113.0
X126.0Y-114.0
X126.0Y-115.0
X126.0Y-116.0
X126.0Y-117.0
X126.0Y-118.0
X126.0Y-119.0
X126.0Y-120.0
X126.0Y-121.0
X126.0Y-122.0
X126.0Y-123.0
X126.0Y-124.0
X126.0Y-125.0
X126.0Y-126.0
X126.0Y-127.0
X126.0Y-128.0
X126.0Y-129.0
X126.0Y-130.0
X126.0Y-131.0
X126.0Y-132.0
X126.0Y-133.0
X126.0Y-134.0
X126.0Y-135.0
X126.0Y-136.0
X126.0Y-137.0
X126.0Y-138.0
X126.0Y-139.0
X126.0Y-140.0
X126.0Y-141.0
X126.0Y-142.0
X126.0Y-143.0
X126.0Y-144.0
X126.0Y-145.0
X127.0Y-48.0
X127.0Y-49.0
X127.0Y-50.0
X127.0Y-51.0
X127.0Y-52.0
X127.0Y-53.0
X127.0Y-54.0
X127.0Y-55.0
X127.0Y-56.0
X127.0Y-57.0
X127.0Y-58.0
X127.0Y-59.0
X127.0Y-60.0
X127.0Y-61.0
X127.0Y-62.0
X127.0Y-63.0
X127.0Y-64.0
X127.0Y-65.0
X127.0Y-66.0
X127.0Y-67.0
X127.0Y-68.0
X127.0Y-69.0
X127.0Y-70.0
X127.0Y-71.0
X127.0Y-72.0
X127.0Y-73.0
X127.0Y-74.0
X127.0Y-75.0
X127.0Y-76.0
X127.0Y-77.0
X127.0Y-78.0
X127.0Y-79.0
X127.0Y-80.0
X127.0Y-81.0
X127.0Y-82.0
X127.0Y-83.0
X127.0Y-84.0
X127.0Y-85.0
X127.0Y-86.0
X127.0Y-87.0
X127.0Y-88.0
X127.0Y-89.0
X127.0Y-90.0
X127.0Y-91.0
X127.0Y-92.0
X127.0Y-93.0
X127.0Y-94.0
X127.0Y-95.0
X127.0Y-96.0
X127.0Y-97.0
X127.0Y-98.0
X127.0Y-99.0
X127.0Y-100.0
X127.0Y-101.0
X127.0Y-102.0
X127.0Y-103.0
X127.0Y-104.0
X127.0Y-105.0
X127.0Y-106.0
X127.0Y-107.0
X127.0Y-108.0
X127.0Y-109.0
X127.0Y-110.0
X127.0Y-111.0
X127.0Y-112.0
X127.0Y-113.0
X127.0Y-114.0
X127.0Y-115.0
X127.0Y-116.0
X127.0Y-117.0
X127.0Y-118.0
X127.0Y-119.0
X127.0Y-120.0
X127.0Y-121.0
X127.0Y-122.0
X127.0Y-123.0
X127.0Y-124.0
X127.0Y-125.0
X127.0Y-126.0
X127.0Y-127.0
X127.0Y-128.0
X127.0Y-129.0
X127.0Y-130.0
X127.0Y-131.0
X127.0Y-132.0
X127.0Y-133.0
X127.0Y-134.0
X127.0Y-135.0
X127.0Y-136.0
X127.0Y-137.0
X127.0Y-138.0
X127.0Y-139.0
X127.0Y-140.0
X127.0Y-141.0
X127.0Y-142.0
X127.0Y-143.0
X127.0Y-144.0
X127.0Y-145.0
X128.0Y-51.0
X128.0Y-52.0
X128.0Y-56.0
X128.0Y-57.0
X128.0Y-61.0
X128.0Y-62.0
X128.0Y-66.0
X128.0Y-67.0
X128.0Y-71.0
X128.0Y-72.0
X128.0Y-76.0
X128.0Y-77.0
X128.0Y-81.0
X128.0Y-82.0
X128.0Y-86.0
X128.0Y-87.0
X128.0Y-91.0
X128.0Y-92.0
X128.0Y-96.0
X128.0Y-97.0
X128.0Y-101.0
X128.0Y-102.0
X128.0Y-106.0
X128.0Y-107.0
X128.0Y-111.0
X128.0Y-112.0
X128.0Y-116.0
X128.0Y-117.0
X128.0Y-121.0
X128.0Y-122.0
X128.0Y-126.0
X128.0Y-127.0
X128.0Y-131.0
X128.0Y-132.0
X128.0Y-136.0
X128.0Y-137.0
X128.0Y-141.0
X128.0Y-142.0
X129.0Y-51.0
X129.0Y-52.0
X129.0Y-56.0
X129.0Y-57.0
X129.0Y-61.0
X129.0Y-62.0
X129.0Y-66.0
X129.0Y-67.0
X129.0Y-71.0
X129.0Y-72.0
X129.0Y-76.0
X129.0Y-77.0
X129.0Y-81.0
X129.0Y-82.0
X129.0Y-86.0
X129.0Y-87.0
X129.0Y-91.0
X129.0Y-92.0
X129.0Y-96.0
X129.0Y-97.0
X129.0Y-101.0
X129.0Y-102.0
X129.0Y-106.0
X129.0Y-107.0
X129.0Y-111.0
X129.0Y-112.0
X129.0Y-116.0
X129.0Y-117.0
X129.0Y-121.0
X129.0Y-122.0
X129.0Y-126.0
X129.0Y-127.0
X129.0Y-131.0
X129.0Y-132.0
X129.0Y-136.0
X129.0Y-137.0
X129.0Y-141.0
X129.0Y-142.0
X130.0Y-51.0
X130.0Y-52.0
X130.0Y-56.0
X130.0Y-57.0
X130.0Y-61.0
X130.0Y-62.0
X130.0Y-66.0
X130.0Y-67.0
X130.0Y-71.0
X130.0Y-72.0
X130.0Y-76.0
X130.0Y-77.0
X130.0Y-81.0
X130.0Y-82.0
X130.0Y-86.0
X130.0Y-87.0
X130.0Y-91.0
X130.0Y-92.0
X130.0Y-96.0
X130.0Y-97.0
X130.0Y-101.0
X130.0Y-102.0
X130.0Y-106.0
X130.0Y-107.0
X130.0Y-111.0
X130.0Y-112.0
X130.0Y-116.0
X130.0Y-117.0
X130.0Y-121.0
X130.0Y-122.0
X130.0Y-126.0
X130.0Y-127.0
X130.0Y-131.0
X130.0Y-132.0
X130.0Y-136.0
X130.0Y-137.0
X130.0Y-141.0
X130.0Y-142.0
X131.0Y-48.0
X131.0Y-49.0
X131.0Y-50.0
X131.0Y-51.0
X131.0Y-52.0
X131.0Y-53.0
X131.0Y-54.0
X131.0Y-55.0
X131.0Y-56.0
X131.0Y-57.0
X131.0Y-58.0
X131.0Y-59.0
X131.0Y-60.0
X131.0Y-61.0
X131.0Y-62.0
X131.0Y-63.0
X131.0Y-64.0
X131.0Y-65.0
X131.0Y-66.0
X131.0Y-67.0
X131.0Y-68.0
X131.0Y-69.0
X131.0Y-70.0
X131.0Y-71.0
X131.0Y-72.0
X131.0Y-73.0
X131.0Y-74.0
X131.0Y-75.0
X131.0Y-76.0
X131.0Y-77.0
X131.0Y-78.0
X131.0Y-79.0
X131.0Y-80.0
X131.0Y-81.0
X131.0Y-82.0
X131.0Y-83.0
X131.0Y-84.0
X131.0Y-85.0
X131.0Y-86.0
X131.0Y-87.0
X131.0Y-88.0
X131.0Y-89.0
X131.0Y-90.0
X131.0Y-91.0
X131.0Y-92.0
X131.0Y-93.0
X131.0Y-94.0
X131.0Y-95.0
X131.0Y-96.0
X131.0Y-97.0
X131.0Y-98.0
X131.0Y-99.0
X131.0Y-100.0
X131.0Y-101.0
X131.0Y-102.0
X131.0Y-103.0
X131.0Y-104.0
X131.0Y-105.0
X131.0Y-106.0
X131.0Y-107.0
X131.0Y-108.0
X131.0Y-109.0
X131.0Y-110.0
X131.0Y-111.0
X131.0Y-112.0
X131.0Y-113.0
X131.0Y-114.0
X131.0Y-115.0
X131.0Y-116.0
X131.0Y-117.0
X131.0Y-118.0
X131.0Y-119.0
X131.0Y-120.0
X131.0Y-121.0
X131.0Y-122.0
X131.0Y-123.0
X131.0Y-124.0
X131.0Y-125.0
X131.0Y-126.0
X131.0Y-127.0
X131.0Y-128.0
X131.0Y-129.0
X131.0Y-130.0
X131.0Y-131.0
X131.0Y-132.0
X131.0Y-133.0
X131.0Y-134.0
X131.0Y-135.0
X131.0Y-136.0
X131.0Y-137.0
X131.0Y-138.0
X131.0Y-139.0
X131.0Y-140.0
X131.0Y-141.0
X131.0Y-142.0
X131.0Y-143.0
X131.0Y-144.0
X131.0Y-145.0
X132.0Y-48.0
X132.0Y-49.0
X132.0Y-50.0
X132.0Y-51.0
X132.0Y-52.0
X132.0Y-53.0
X132.0Y-54.0
X132.0Y-55.0
X132.0Y-56.0
X132.0Y-57.0
X132.0Y-58.0
X132.0Y-59.0
X132.0Y-60.0
X132.0Y-61.0
X132.0Y-62.0
X132.0Y-63.0
X132.0Y-64.0
X132.0Y-65.0
X132.0Y-66.0
X132.0Y-67.0
X132.0Y-68.0
X132.0Y-69.0
X132.0Y-70.0
X132.0Y-71.0
X132.0Y-72.0
X132.0Y-73.0
X132.0Y-74.0
X132.0Y-75.0
X132.0Y-76.0
X132.0Y-77.0
X132.0Y-78.0
X132.0Y-79.0
X132.0Y-80.0
X132.0Y-81.0
X132.0Y-82.0
X132.0Y-83.0
X132.0Y-84.0
X132.0Y-85.0
X132.0Y-86.0
X132.0Y-87.0
X132.0Y-88.0
X132.0Y-89.0
X132.0Y-90.0
X132.0Y-91.0
X132.0Y-92.0
X132.0Y-93.0
X132.0Y-94.0
X132.0Y-95.0
X132.0Y-96.0
X132.0Y-97.0
X132.0Y-98.0
X132.0Y-99.0
X132.0Y-100.0
X132.0Y-101.0
X132.0Y-102.0
X132.0Y-103.0
X132.0Y-104.0
X132.0Y-105.0
X132.0Y-106.0
X132.0Y-107.0
X132.0Y-108.0
X132.0Y-109.0
X132.0Y-110.0
X132.0Y-111.0
X132.0Y-112.0
X132.0Y-113.0
X132.0Y-114.0
X132.0Y-115.0
X132.0Y-116.0
X132.0Y-117.0
X132.0Y-118.0
X132.0Y-119.0
X132.0Y-120.0
X132.0Y-121.0
X132.0Y-122.0
X132.0Y-123.0
X132.0Y-124.0
X132.0Y-125.0
X132.0Y-126.0
X132.0Y-127.0
X132.0Y-128.0
X132.0Y-129.0
X132.0Y-130.0
X132.0Y-131.0
X132.0Y-132.0
X132.0Y-133.0
X132.0Y-134.0
X132.0Y-135.0
X132.0Y-136.0
X132.0Y-137.0
X132.0Y-138.0
X132.0Y-139.0
X132.0Y-140.0
X132.0Y-141.0
X132.0Y-142.0
X132.0Y-143.0
X132.0Y-144.0
X132.0Y-145.0
X133.0Y-51.0
X133.0Y-52.0
X133.0Y-56.0
X133.0Y-57.0
X133.0Y-61.0
X133.0Y-62.0
X133.0Y-66.0
X133.0Y-67.0
X133.0Y-71.0
X133.0Y-72.0
X133.0Y-76.0
X133.0Y-77.0
X133.0Y-81.0
X133.0Y-82.0
X133.0Y-86.0
X133.0Y-87.0
X133.0Y-91.0
X133.0Y-92.0
X133.0Y-96.0
X133.0Y-97.0
X133.0Y-101.0
X133.0Y-102.0
X133.0Y-106.0
X133.0Y-107.0
X133.0Y-111.0
X133.0Y-112.0
X133.0Y-116.0
X133.0Y-117.0
X133.0Y-121.0
X133.0Y-122.0
X133.0Y-126.0
X133.0Y-127.0
X133.0Y-131.0
X133.0Y-132.0
X133.0Y-136.0
X133.0Y-137.0
X133.0Y-141.0
X133.0Y-142.0
X134.0Y-51.0
X134.0Y-52.0
X134.0Y-56.0
X134.0Y-57.0
X134.0Y-61.0
X134.0Y-62.0
X134.0Y-66.0
X134.0Y-67.0
X134.0Y-71.0
X134.0Y-72.0
X134.0Y-76.0
X134.0Y-77.0
X134.0Y-81.0
X134.0Y-82.0
X134.0Y-86.0
X134.0Y-87.0
X134.0Y-91.0
X134.0Y-92.0
X134.0Y-96.0
X134.0Y-97.0
X134.0Y-101.0
X134.0Y-102.0
X134.0Y-106.0
X134.0Y-107.0
X134.0Y-111.0
X134.0Y-112.0
X134.0Y-116.0
X134.0Y-117.0
X134.0Y-121.0
X134.0Y-122.0
X134.0Y-126.0
X134.0Y-127.0
X134.0Y-131.0
X134.0Y-132.0
X134.0Y-136.0
X134.0Y-137.0
X134.0Y-141.0
X134.0Y-142.0
X135.0Y-51.0
X135.0Y-52.0
X135.0Y-56.0
X135.0Y-57.0
X135.0Y-61.0
X135.0Y-62.0
X135.0Y-66.0
X135.0Y-67.0
X135.0Y-71.0
X135.0Y-72.0
X135.0Y-76.0
X135.0Y-77.0
X135.0Y-81.0
X135.0Y-82.0
X135.0Y-86.0
X135.0Y-87.0
X135.0Y-91.0
X135.0Y-92.0
X135.0Y-96.0
X135.0Y-97.0
X135.0Y-101.0
X135.0Y-102.0
X135.0Y-106.0
X135.0Y-107.0
X135.0Y-111.0
X135.0Y-112.0
X135.0Y-116.0
X135.0Y-117.0
X135.0Y-121.0
X135.0Y-122.0
X135.0Y-126.0
X135.0Y-127.0
X135.0Y-131.0
X135.0Y-132.0
X135.0Y-136.0
X135.0Y-137.0
X135.0Y-141.0
X135.0Y-142.0
X136.0Y-48.0
X136.0Y-49.0
X136.0Y-50.0
X136.0Y-51.0
X136.0Y-52.0
X136.0Y-53.0
X136.0Y-54.0
X136.0Y-55.0
X136.0Y-56.0
X136.0Y-57.0
X136.0Y-58.0
X136.0Y-59.0
X136.0Y-60.0
X136.0Y-61.0
X136.0Y-62.0
X136.0Y-63.0
X136.0Y-64.0
X136.0Y-65.0
X136.0Y-66.0
X136.0Y-67.0
X136.0Y-68.0
X136.0Y-69.0
X136.0Y-70.0
X136.0Y-71.0
X136.0Y-72.0
X136.0Y-73.0
X136.0Y-74.0
X136.0Y-75.0
X136.0Y-76.0
X136.0Y-77.0
X136.0Y-78.0
X136.0Y-79.0
X136.0Y-80.0
X136.0Y-81.0
X136.0Y-82.0
X136.0Y-83.0
X136.0Y-84.0
X136.0Y-85.0
X136.0Y-86.0
X136.0Y-87.0
X136.0Y-88.0
X136.0Y-89.0
X136.0Y-90.0
X136.0Y-91.0
X136.0Y-92.0
X136.0Y-93.0
X136.0Y-94.0
X136.0Y-95.0
X136.0Y-96.0
X136.0Y-97.0
X136.0Y-98.0
X136.0Y-99.0
X136.0Y-100.0
X136.0Y-101.0
X136.0Y-102.0
X136.0Y-103.0
X136.0Y-104.0
X136.0Y-105.0
X136.0Y-106.0
X136.0Y-107.0
X136.0Y-108.0
X136.0Y-109.0
X136.0Y-110.0
X136.0Y-111.0
X136.0Y-112.0
X136.0Y-113.0
X136.0Y-114.0
X136.0Y-115.0
X136.0Y-116.0
X136.0Y-117.0
X136.0Y-118.0
X136.0Y-119.0
X136.0Y-120.0
X136.0Y-121.0
X136.0Y-122.0
X136.0Y-123.0
X136.0Y-124.0
X136.0Y-125.0
X136.0Y-126.0
X136.0Y-127.0
X136.0Y-128.0
X136.0Y-129.0
X136.0Y-130.0
X136.0Y-131.0
X136.0Y-132.0
X136.0Y-133.0
X136.0Y-134.0
X136.0Y-135.0
X136.0Y-136.0
X136.0Y-137.0
X136.0Y-138.0
X136.0Y-139.0
X136.0Y-140.0
X136.0Y-141.0
X136.0Y-142.0
X136.0Y-143.0
X136.0Y-144.0
X136.0Y-145.0
X137.0Y-48.0
X137.0Y-49.0
X137.0Y-50.0
X137.0Y-51.0
X137.0Y-52.0
X137.0Y-53.0
X137.0Y-54.0
X137.0Y-55.0
X137.0Y-56.0
X137.0Y-57.0
X137.0Y-58.0
X137.0Y-59.0
X137.0Y-60.0
X137.0Y-61.0
X137.0Y-62.0
X137.0Y-63.0
X137.0Y-64.0
X137.0Y-65.0
X137.0Y-66.0
X137.0Y-67.0
X137.0Y-68.0
X137.0Y-69.0
X137.0Y-70.0
X137.0Y-71.0
X137.0Y-72.0
X137.0Y-73.0
X137.0Y-74.0
X137.0Y-75.0
X137.0Y-76.0
X137.0Y-77.0
X137.0Y-78.0
X137.0Y-79.0
X137.0Y-80.0
X137.0Y-81.0
X137.0Y-82.0
X137.0Y-83.0
X137.0Y-84.0
X137.0Y-85.0
X137.0Y-86.0
X137.0Y-87.0
X137.0Y-88.0
X137.0Y-89.0
X137.0Y-90.0
X137.0Y-91.0
X137.0Y-92.0
X137.0Y-93.0
X137.0Y-94.0
X137.0Y-95.0
X137.0Y-96.0
X137.0Y-97.0
X137.0Y-98.0
X137.0Y-99.0
X137.0Y-100.0
X137.0Y-101.0
X137.0Y-102.0
X137.0Y-103.0
X137.0Y-104.0
X137.0Y-105.0
X137.0Y-106.0
X137.0Y-107.0
X137.0Y-108.0
X137.0Y-109.0
X137.0Y-110.0
X137.0Y-111.0
X137.0Y-112.0
X137.0Y-113.0
X137.0Y-114.0
X137.0Y-115.0
X137.0Y-116.0
X137.0Y-117.0
X137.0Y-118.0
X137.0Y-119.0
X137.0Y-120.0
X137.0Y-121.0
X137.0Y-122.0
X137.0Y-123.0
X137.0Y-124.0
X137.0Y-125.0
X137.0Y-126.0
X137.0Y-127.0
X137.0Y-128.0
X137.0Y-129.0
X137.0Y-130.0
X137.0Y-131.0
X137.0Y-132.0
X137.0Y-133.0
X137.0Y-134.0
X137.0Y-135.0
X137.0Y-136.0
X137.0Y-137.0
X137.0Y-138.0
X137.0Y-139.0
X137.0Y-140.0
X137.0Y-141.0
X137.0Y-142.0
X137.0Y-143.0
X137.0Y-144.0
X137.0Y-145.0
X138.0Y-51.0
X138.0Y-52.0
X138.0Y-56.0
X138.0Y-57.0
X138.0Y-61.0
X138.0Y-62.0
X138.0Y-66.0
X138.0Y-67.0
X138.0Y-71.0
X138.0Y-72.0
X138.0Y-76.0
X138.0Y-77.0
X138.0Y-81.0
X138.0Y-82.0
X138.0Y-86.0
X138.0Y-87.0
X138.0Y-91.0
X138.0Y-92.0
X138.0Y-96.0
X138.0Y-97.0
X138.0Y-101.0
X138.0Y-102.0
X138.0Y-106.0
X138.0Y-107.0
X138.0Y-111.0
X138.0Y-112.0
X138.0Y-116.0
X138.0Y-117.0
X138.0Y-121.0
X138.0Y-122.0
X138.0Y-126.0
X138.0Y-127.0
X138.0Y-131.0
X138.0Y-132.0
X138.0Y-136.0
X138.0Y-137.0
X138.0Y-141.0
X138.0Y-142.0
X139.0Y-51.0
X139.0Y-52.0
X139.0Y-56.0
X139.0Y-57.0
X139.0Y-61.0
X139.0Y-62.0
X139.0Y-66.0
X139.0Y-67.0
X139.0Y-71.0
X139.0Y-72.0
X139.0Y-76.0
X139.0Y-77.0
X139.0Y-81.0
X139.0Y-82.0
X139.0Y-86.0
X139.0Y-87.0
X139.0Y-91.0
X139.0Y-92.0
X139.0Y-96.0
X139.0Y-97.0
X139.0Y-101.0
X139.0Y-102.0
X139.0Y-106.0
X139.0Y-107.0
X139.0Y-111.0
X139.0Y-112.0
X139.0Y-116.0
X139.0Y-117.0
X139.0Y-121.0
X139.0Y-122.0
X139.0Y-126.0
X139.0Y-127.0
X139.0Y-131.0
X139.0Y-132.0
X139.0Y-136.0
X139.0Y-137.0
X139.0Y-141.0
X139.0Y-142.0
X140.0Y-51.0
X140.0Y-52.0
X140.0Y-56.0
X140.0Y-57.0
X140.0Y-61.0
X140.0Y-62.0
X140.0Y-66.0
X140.0Y-67.0
X140.0Y-71.0
X140.0Y-72.0
X140.0Y-76.0
X140.0Y-77.0
X140.0Y-81.0
X140.0Y-82.0
X140.0Y-86.0
X140.0Y-87.0
X140.0Y-91.0
X140.0Y-92.0
X140.0Y-96.0
X140.0Y-97.0
X140.0Y-101.0
X140.0Y-102.0
X140.0Y-106.0
X140.0Y-107.0
X140.0Y-111.0
X140.0Y-112.0
X140.0Y-116.0
X140.0Y-117.0
X140.0Y-121.0
X140.0Y-122.0
X140.0Y-126.0
X140.0Y-127.0
X140.0Y-131.0
X140.0Y-132.0
X140.0Y-136.0
X140.0Y-137.0
X140.0Y-141.0
X140.0Y-142.0
X141.0Y-48.0
X141.0Y-49.0
X141.0Y-50.0
X141.0Y-51.0
X141.0Y-52.0
X141.0Y-53.0
X141.0Y-54.0
X141.0Y-55.0
X141.0Y-56.0
X141.0Y-57.0
X141.0Y-58.0
X141.0Y-59.0
X141.0Y-60.0
X141.0Y-61.0
X141.0Y-62.0
X141.0Y-63.0
X141.0Y-64.0
X141.0Y-65.0
X141.0Y-66.0
X141.0Y-67.0
X141.0Y-68.0
X141.0Y-69.0
X141.0Y-70.0
X141.0Y-71.0
X141.0Y-72.0
X141.0Y-73.0
X141.0Y-74.0
X141.0Y-75.0
X141.0Y-76.0
X141.0Y-77.0
X141.0Y-78.0
X141.0Y-79.0
X141.0Y-80.0
X141.0Y-81.0
X141.0Y-82.0
X141.0Y-83.0
X141.0Y-84.0
X141.0Y-85.0
X141.0Y-86.0
X141.0Y-87.0
X141.0Y-88.0
X141.0Y-89.0
X141.0Y-90.0
X141.0Y-91.0
X141.0Y-92.0
X141.0Y-93.0
X141.0Y-94.0
X141.0Y-95.0
X141.0Y-96.0
X141.0Y-97.0
X141.0Y-98.0
X141.0Y-99.0
X141.0Y-100.0
X141.0Y-101.0
X141.0Y-102.0
X141.0Y-103.0
X141.0Y-104.0
X141.0Y-105.0
X141.0Y-106.0
X141.0Y-107.0
X141.0Y-108.0
X141.0Y-109.0
X141.0Y-110.0
X141.0Y-111.0
X141.0Y-112.0
X141.0Y-113.0
X141.0Y-114.0
X141.0Y-115.0
X141.0Y-116.0
X141.0Y-117.0
X141.0Y-118.0
X141.0Y-119.0
X141.0Y-120.0
X141.0Y-121.0
X141.0Y-122.0
X141.0Y-123.0
X141.0Y-124.0
X141.0Y-125.0
X141.0Y-126.0
X141.0Y-127.0
X141.0Y-128.0
X141.0Y-129.0
X141.0Y-130.0
X141.0Y-131.0
X141.0Y-132.0
X141.0Y-133.0
X141.0Y-134.0
X141.0Y-135.0
X141.0Y-136.0
X141.0Y-137.0
X141.0Y-138.0
X141.0Y-139.0
X141.0Y-140.0
X141.0Y-141.0
X141.0Y-142.0
X141.0Y-143.0
X141.0Y-144.0
X141.0Y-145.0
X142.0Y-48.0
X142.0Y-49.0
X142.0Y-50.0
X142.0Y-51.0
X142.0Y-52.0
X142.0Y-53.0
X142.0Y-54.0
X142.0Y-55.0
X142.0Y-56.0
X142.0Y-57.0
X142.0Y-58.0
X142.0Y-59.0
X142.0Y-60.0
X142.0Y-61.0
X142.0Y-62.0
X142.0Y-63.0
X142.0Y-64.0
X142.0Y-65.0
X142.0Y-66.0
X142.0Y-67.0
X142.0Y-68.0
X142.0Y-69.0
X142.0Y-70.0
X142.0Y-71.0
X142.0Y-72.0
X142.0Y-73.0
X142.0Y-74.0
X142.0Y-75.0
X142.0Y-76.0
X142.0Y-77.0
X142.0Y-78.0
X142.0Y-79.0
X142.0Y-80.0
X142.0Y-81.0
X142.0Y-82.0
X142.0Y-83.0
X142.0Y-84.0
X142.0Y-85.0
X142.0Y-86.0
X142.0Y-87.0
X142.0Y-88.0
X142.0Y-89.0
X142.0Y-90.0
X142.0Y-91.0
X142.0Y-92.0
X142.0Y-93.0
X142.0Y-94.0
X142.0Y-95.0
X142.0Y-96.0
X142.0Y-97.0
X142.0Y-98.0
X142.0Y-99.0
X142.0Y-100.0
X142.0Y-101.0
X142.0Y-102.0
X142.0Y-103.0
X142.0Y-104.0
X142.0Y-105.0
X142.0Y-106.0
X142.0Y-107.0
X142.0Y-108.0
X142.0Y-109.0
X142.0Y-110.0
X142.0Y-111.0
X142.0Y-112.0
X142.0Y-113.0
X142.0Y-114.0
X142.0Y-115.0
X142.0Y-116.0
X142.0Y-117.0
X142.0Y-118.0
X142.0Y-119.0
X142.0Y-120.0
X142.0Y-121.0
X142.0Y-122.0
X142.0Y-123.0
X142.0Y-124.0
X142.0Y-125.0
X142.0Y-126.0
X142.0Y-127.0
X142.0Y-128.0
X142.0Y-129.0
X142.0Y-130.0
X142.0Y-131.0
X142.0Y-132.0
X142.0Y-133.0
X142.0Y-134.0
X142.0Y-135.0
X142.0Y-136.0
X142.0Y-137.0
X142.0Y-138.0
X142.0Y-139.0
X142.0Y-140.0
X142.0Y-141.0
X142.0Y-142.0
X142.0Y-143.0
X142.0Y-144.0
X142.0Y-145.0
X143.0Y-51.0
X143.0Y-52.0
X143.0Y-56.0
X143.0Y-57.0
X143.0Y-61.0
X143.0Y-62.0
X143.0Y-66.0
X143.0Y-67.0
X143.0Y-71.0
X143.0Y-72.0
X143.0Y-76.0
X143.0Y-77.0
X143.0Y-81.0
X143.0Y-82.0
X143.0Y-86.0
X143.0Y-87.0
X143.0Y-91.0
X143.0Y-92.0
X143.0Y-96.0
X143.0Y-97.0
X143.0Y-101.0
X143.0Y-102.0
X143.0Y-106.0
X143.0Y-107.0
X143.0Y-111.0
X143.0Y-112.0
X143.0Y-116.0
X143.0Y-117.0
X143.0Y-121.0
X143.0Y-122.0
X143.0Y-126.0
X143.0Y-127.0
X143.0Y-131.0
X143.0Y-132.0
X143.0Y-136.0
X143.0Y-137.0
X143.0Y-141.0
X143.0Y-142.0
X144.0Y-51.0
X144.0Y-52.0
X144.0Y-56.0
X144.0Y-57.0
X144.0Y-61.0
X144.0Y-62.0
X144.0Y-66.0
X144.0Y-67.0
X144.0Y-71.0
X144.0Y-72.0
X144.0Y-76.0
X144.0Y-77.0
X144.0Y-81.0
X144.0Y-82.0
X144.0Y-86.0
X144.0Y-87.0
X144.0Y-91.0
X144.0Y-92.0
X144.0Y-96.0
X144.0Y-97.0
X144.0Y-101.0
X144.0Y-102.0
X144.0Y-106.0
X144.0Y-107.0
X144.0Y-111.0
X144.0Y-112.0
X144.0Y-116.0
X144.0Y-117.0
X144.0Y-121.0
X144.0Y-122.0
X144.0Y-126.0
X144.0Y-127.0
X144.0Y-131.0
X144.0Y-132.0
X144.0Y-136.0
X144.0Y-137.0
X144.0Y-141.0
X144.0Y-142.0
X145.0Y-51.0
X145.0Y-52.0
X145.0Y-56.0
X145.0Y-57.0
X145.0Y-61.0
X145.0Y-62.0
X145.0Y-66.0
X145.0Y-67.0
X145.0Y-71.0
X145.0Y-72.0
X145.0Y-76.0
X145.0Y-77.0
X145.0Y-81.0
X145.0Y-82.0
X145.0Y-86.0
X145.0Y-87.0
X145.0Y-91.0
X145.0Y-92.0
X145.0Y-96.0
X145.0Y-97.0
X145.0Y-101.0
X145.0Y-102.0
X145.0Y-106.0
X145.0Y-107.0
X145.0Y-111.0
X145.0Y-112.0
X145.0Y-116.0
X145.0Y-117.0
X145.0Y-121.0
X145.0Y-122.0
X145.0Y-126.0
X145.0Y-127.0
X145.0Y-131.0
X145.0Y-132.0
X145.0Y-136.0
X145.0Y-137.0
X145.0Y-141.0
X145.0Y-142.0
X146.0Y-48.0
X146.0Y-49.0
X146.0Y-50.0
X146.0Y-51.0
X146.0Y-52.0
X146.0Y-53.0
X146.0Y-54.0
X146.0Y-55.0
X146.0Y-56.0
X146.0Y-57.0
X146.0Y-58.0
X146.0Y-59.0
X146.0Y-60.0
X146.0Y-61.0
X146.0Y-62.0
X146.0Y-63.0
X146.0Y-64.0
X146.0Y-65.0
X146.0Y-66.0
X146.0Y-67.0
X146.0Y-68.0
X146.0Y-69.0
X146.0Y-70.0
X146.0Y-71.0
X146.0Y-72.0
X146.0Y-73.0
X146.0Y-74.0
X146.0Y-75.0
X146.0Y-76.0
X146.0Y-77.0
X146.0Y-78.0
X146.0Y-79.0
X146.0Y-80.0
X146.0Y-81.0
X146.0Y-82.0
X146.0Y-83.0
X146.0Y-84.0
X146.0Y-85.0
X146.0Y-86.0
X146.0Y-87.0
X146.0Y-88.0
X146.0Y-89.0
X146.0Y-90.0
X146.0Y-91.0
X146.0Y-92.0
X146.0Y-93.0
X146.0Y-94.0
X146.0Y-95.0
X146.0Y-96.0
X146.0Y-97.0
X146.0Y-98.0
X146.0Y-99.0
X146.0Y-100.0
X146.0Y-101.0
X146.0Y-102.0
X146.0Y-103.0
X146.0Y-104.0
X146.0Y-105.0
X146.0Y-106.0
X146.0Y-107.0
X146.0Y-108.0
X146.0Y-109.0
X146.0Y-110.0
X146.0Y-111.0
X146.0Y-112.0
X146.0Y-113.0
X146.0Y-114.0
X146.0Y-115.0
X146.0Y-116.0
X146.0Y-117.0
X146.0Y-118.0
X146.0Y-119.0
X146.0Y-120.0
X146.0Y-121.0
X146.0Y-122.0
X146.0Y-123.0
X146.0Y-124.0
X146.0Y-125.0
X146.0Y-126.0
X146.0Y-127.0
X146.0Y-128.0
X146.0Y-129.0
X146.0Y-130.0
X146.0Y-131.0
X146.0Y-132.0
X146.0Y-133.0
X146.0Y-134.0
X146.0Y-135.0
X146.0Y-136.0
X146.0Y-137.0
X146.0Y-138.0
X146.0Y-139.0
X146.0Y-140.0
X146.0Y-141.0
X146.0Y-142.0
X146.0Y-143.0
X146.0Y-144.0
X146.0Y-145.0
X147.0Y-48.0
X147.0Y-49.0
X147.0Y-50.0
X147.0Y-51.0
X147.0Y-52.0
X147.0Y-53.0
X147.0Y-54.0
X147.0Y-55.0
X147.0Y-56.0
X147.0Y-57.0
X147.0Y-58.0
X147.0Y-59.0
X147.0Y-60.0
X147.0Y-61.0
X147.0Y-62.0
X147.0Y-63.0
X147.0Y-64.0
X147.0Y-65.0
X147.0Y-66.0
X147.0Y-67.0
X147.0Y-68.0
X147.0Y-69.0
X147.0Y-70.0
X147.0Y-71.0
X147.0Y-72.0
X147.0Y-73.0
X147.0Y-74.0
X147.0Y-75.0
X147.0Y-76.0
X147.0Y-77.0
X147.0Y-78.0
X147.0Y-79.0
X147.0Y-80.0
X147.0Y-81.0
X147.0Y-82.0
X147.0Y-83.0
X147.0Y-84.0
X147.0Y-85.0
X147.0Y-86.0
X147.0Y-87.0
X147.0Y-88.0
X147.0Y-89.0
X147.0Y-90.0
X147.0Y-91.0
X147.0Y-92.0
X147.0Y-93.0
X147.0Y-94.0
X147.0Y-95.0
X147.0Y-96.0
X147.0Y-97.0
X147.0Y-98.0
X147.0Y-99.0
X147.0Y-100.0
X147.0Y-101.0
X147.0Y-102.0
X147.0Y-103.0
X147.0Y-104.0
X147.0Y-105.0
X147.0Y-106.0
X147.0Y-107.0
X147.0Y-108.0
X147.0Y-109.0
X147.0Y-110.0
X147.0Y-111.0
X147.0Y-112.0
X147.0Y-113.0
X147.0Y-114.0
X147.0Y-115.0
X147.0Y-116.0
X147.0Y-117.0
X147.0Y-118.0
X147.0Y-119.0
X147.0Y-120.0
X147.0Y-121.0
X147.0Y-122.0
X147.0Y-123.0
X147.0Y-124.0
X147.0Y-125.0
X147.0Y-126.0
X147.0Y-127.0
X147.0Y-128.0
X147.0Y-129.0
X147.0Y-130.0
X147.0Y-131.0
X147.0Y-132.0
X147.0Y-133.0
X147.0Y-134.0
X147.0Y-135.0
X147.0Y-136.0
X147.0Y-137.0
X147.0Y-138.0
X147.0Y-139.0
X147.0Y-140.0
X147.0Y-141.0
X147.0Y-142.0
X147.0Y-143.0
X147.0Y-144.0
X147.0Y-145.0
X148.0Y-51.0
X148.0Y-52.0
X148.0Y-56.0
X148.0Y-57.0
X148.0Y-61.0
X148.0Y-62.0
X148.0Y-66.0
X148.0Y-67.0
X148.0Y-71.0
X148.0Y-72.0
X148.0Y-76.0
X148.0Y-77.0
X148.0Y-81.0
X148.0Y-82.0
X148.0Y-86.0
X148.0Y-87.0
X148.0Y-91.0
X148.0Y-92.0
X148.0Y-96.0
X148.0Y-97.0
X148.0Y-101.0
X148.0Y-102.0
X148.0Y-106.0
X148.0Y-107.0
X148.0Y-111.0
X148.0Y-112.0
X148.0Y-116.0
X148.0Y-117.0
X148.0Y-121.0
X148.0Y-122.0
X148.0Y-126.0
X148.0Y-127.0
X148.0Y-131.0
X148.0Y-132.0
X148.0Y-136.0
X148.0Y-137.0
X148.0Y-141.0
X148.0Y-142.0
X149.0Y-51.0
X149.0Y-52.0
X149.0Y-56.0
X149.0Y-57.0
X149.0Y-61.0
X149.0Y-62.0
X149.0Y-66.0
X149.0Y-67.0
X149.0Y-71.0
X149.0Y-72.0
X149.0Y-76.0
X149.0Y-77.0
X149.0Y-81.0
X149.0Y-82.0
X149.0Y-86.0
X149.0Y-87.0
X149.0Y-91.0
X149.0Y-92.0
X149.0Y-96.0
X149.0Y-97.0
X149.0Y-101.0
X149.0Y-102.0
X149.0Y-106.0
X149.0Y-107.0
X149.0Y-111.0
X149.0Y-112.0
X149.0Y-116.0
X149.0Y-117.0
X149.0Y-121.0
X149.0Y-122.0
X149.0Y-126.0
X149.0Y-127.0
X149.0Y-131.0
X149.0Y-132.0
X149.0Y-136.0
X149.0Y-137.0
X149.0Y-141.0
X149.0Y-142.0
X150.0Y-51.0
X150.0Y-52.0
X150.0Y-56.0
X150.0Y-57.0
X150.0Y-61.0
X150.0Y-62.0
X150.0Y-66.0
X150.0Y-67.0
X150.0Y-71.0
X150.0Y-72.0
X150.0Y-76.0
X150.0Y-77.0
X150.0Y-81.0
X150.0Y-82.0
X150.0Y-86.0
X150.0Y-87.0
X150.0Y-91.0
X150.0Y-92.0
X150.0Y-96.0
X150.0Y-97.0
X150.0Y-101.0
X150.0Y-102.0
X150.0Y-106.0
X150.0Y-107.0
X150.0Y-111.0
X150.0Y-112.0
X150.0Y-116.0
X150.0Y-117.0
X150.0Y-121.0
X150.0Y-122.0
X150.0Y-126.0
X150.0Y-127.0
X150.0Y-131.0
X150.0Y-132.0
X150.0Y-136.0
X150.0Y-137.0
X150.0Y-141.0
X150.0Y-142.0
X151.0Y-48.0
X151.0Y-49.0
X151.0Y-50.0
X151.0Y-51.0
X151.0Y-52.0
X151.0Y-53.0
X151.0Y-54.0
X151.0Y-55.0
X151.0Y-56.0
X151.0Y-57.0
X151.0Y-58.0
X151.0Y-59.0
X151.0Y-60.0
X151.0Y-61.0
X151.0Y-62.0
X151.0Y-63.0
X151.0Y-64.0
X151.0Y-65.0
X151.0Y-66.0
X151.0Y-67.0
X151.0Y-68.0
X151.0Y-69.0
X151.0Y-70.0
X151.0Y-71.0
X151.0Y-72.0
X151.0Y-73.0
X151.0Y-74.0
X151.0Y-75.0
X151.0Y-76.0
X151.0Y-77.0
X151.0Y-78.0
X151.0Y-79.0
X151.0Y-80.0
X151.0Y-81.0
X151.0Y-82.0
X151.0Y-83.0
X151.0Y-84.0
X151.0Y-85.0
X151.0Y-86.0
X151.0Y-87.0
X151.0Y-88.0
X151.0Y-89.0
X151.0Y-90.0
X151.0Y-91.0
X151.0Y-92.0
X151.0Y-93.0
X151.0Y-94.0
X151.0Y-95.0
X151.0Y-96.0
X151.0Y-97.0
X151.0Y-98.0
X151.0Y-99.0
X151.0Y-100.0
X151.0Y-101.0
X151.0Y-102.0
X151.0Y-103.0
X151.0Y-104.0
X151.0Y-105.0
X151.0Y-106.0
X151.0Y-107.0
X151.0Y-108.0
X151.0Y-109.0
X151.0Y-110.0
X151.0Y-111.0
X151.0Y-112.0
X151.0Y-113.0
X151.0Y-114.0
X151.0Y-115.0
X151.0Y-116.0
X151.0Y-117.0
X151.0Y-118.0
X151.0Y-119.0
X151.0Y-120.0
X151.0Y-121.0
X151.0Y-122.0
X151.0Y-123.0
X151.0Y-124.0
X151.0Y-125.0
X151.0Y-126.0
X151.0Y-127.0
X151.0Y-128.0
X151.0Y-129.0
X151.0Y-130.0
X151.0Y-131.0
X151.0Y-132.0
X151.0Y-133.0
X151.0Y-134.0
X151.0Y-135.0
X151.0Y-136.0
X151.0Y-137.0
X151.0Y-138.0
X151.0Y-139.0
X151.0Y-140.0
X151.0Y-141.0
X151.0Y-142.0
X151.0Y-143.0
X151.0Y-144.0
X151.0Y-145.0
X152.0Y-48.0
X152.0Y-49.0
X152.0Y-50.0
X152.0Y-51.0
X152.0Y-52.0
X152.0Y-53.0
X152.0Y-54.0
X152.0Y-55.0
X152.0Y-56.0
X152.0Y-57.0
X152.0Y-58.0
X152.0Y-59.0
X152.0Y-60.0
X152.0Y-61.0
X152.0Y-62.0
X152.0Y-63.0
X152.0Y-64.0
X152.0Y-65.0
X152.0Y-66.0
X152.0Y-67.0
X152.0Y-68.0
X152.0Y-69.0
X152.0Y-70.0
X152.0Y-71.0
X152.0Y-72.0
X152.0Y-73.0
X152.0Y-74.0
X152.0Y-75.0
X152.0Y-76.0
X152.0Y-77.0
X152.0Y-78.0
X152.0Y-79.0
X152.0Y-80.0
X152.0Y-81.0
X152.0Y-82.0
X152.0Y-83.0
X152.0Y-84.0
X152.0Y-85.0
X152.0Y-86.0
X152.0Y-87.0
X152.0Y-88.0
X152.0Y-89.0
X152.0Y-90.0
X152.0Y-91.0
X152.0Y-92.0
X152.0Y-93.0
X152.0Y-94.0
X152.0Y-95.0
X152.0Y-96.0
X152.0Y-97.0
X152.0Y-98.0
X152.0Y-99.0
X152.0Y-100.0
X152.0Y-101.0
X152.0Y-102.0
X152.0Y-103.0
X152.0Y-104.0
X152.0Y-105.0
X152.0Y-106.0
X152.0Y-107.0
X152.0Y-108.0
X152.0Y-109.0
X152.0Y-110.0
X152.0Y-111.0
X152.0Y-112.0
X152.0Y-113.0
X152.0Y-114.0
X152.0Y-115.0
X152.0Y-116.0
X152.0Y-117.0
X152.0Y-118.0
X152.0Y-119.0
X152.0Y-120.0
X152.0Y-121.0
X152.0Y-122.0
X152.0Y-123.0
X152.0Y-124.0
X152.0Y-125.0
X152.0Y-126.0
X152.0Y-127.0
X152.0Y-128.0
X152.0Y-129.0
X152.0Y-130.0
X152.0Y-131.0
X152.0Y-132.0
X152.0Y-133.0
X152.0Y-134.0
X152.0Y-135.0
X152.0Y-136.0
X152.0Y-137.0
X152.0Y-138.0
X152.0Y-139.0
X152.0Y-140.0
X152.0Y-141.0
X152.0Y-142.0
X152.0Y-143.0
X152.0Y-144.0
X152.0Y-145.0
X153.0Y-51.0
X153.0Y-52.0
X153.0Y-56.0
X153.0Y-57.0
X153.0Y-61.0
X153.0Y-62.0
X153.0Y-66.0
X153.0Y-67.0
X153.0Y-71.0
X153.0Y-72.0
X153.0Y-76.0
X153.0Y-77.0
X153.0Y-81.0
X153.0Y-82.0
X153.0Y-86.0
X153.0Y-87.0
X153.0Y-91.0
X153.0Y-92.0
X153.0Y-96.0
X153.0Y-97.0
X153.0Y-101.0
X153.0Y-102.0
X153.0Y-106.0
X153.0Y-107.0
X153.0Y-111.0
X153.0Y-112.0
X153.0Y-116.0
X153.0Y-117.0
X153.0Y-121.0
X153.0Y-122.0
X153.0Y-126.0
X153.0Y-127.0
X153.0Y-131.0
X153.0Y-132.0
X153.0Y-136.0
X153.0Y-137.0
X153.0Y-141.0
X153.0Y-142.0
X154.0Y-51.0
X154.0Y-52.0
X154.0Y-56.0
X154.0Y-57.0
X154.0Y-61.0
X154.0Y-62.0
X154.0Y-66.0
X154.0Y-67.0
X154.0Y-71.0
X154.0Y-72.0
X154.0Y-76.0
X154.0Y-77.0
X154.0Y-81.0
X154.0Y-82.0
X154.0Y-86.0
X154.0Y-87.0
X154.0Y-91.0
X154.0Y-92.0
X154.0Y-96.0
X154.0Y-97.0
X154.0Y-101.0
X154.0Y-102.0
X154.0Y-106.0
X154.0Y-107.0
X154.0Y-111.0
X154.0Y-112.0
X154.0Y-116.0
X154.0Y-117.0
X154.0Y-121.0
X154.0Y-122.0
X154.0Y-126.0
X154.0Y-127.0
X154.0Y-131.0
X154.0Y-132.0
X154.0Y-136.0
X154.0Y-137.0
X154.0Y-141.0
X154.0Y-142.0
X155.0Y-51.0
X155.0Y-52.0
X155.0Y-56.0
X155.0Y-57.0
X155.0Y-61.0
X155.0Y-62.0
X155.0Y-66.0
X155.0Y-67.0
X155.0Y-71.0
X155.0Y-72.0
X155.0Y-76.0
X155.0Y-77.0
X155.0Y-81.0
X155.0Y-82.0
X155.0Y-86.0
X155.0Y-87.0
X155.0Y-91.0
X155.0Y-92.0
X155.0Y-96.0
X155.0Y-97.0
X155.0Y-101.0
X155.0Y-102.0
X155.0Y-106.0
X155.0Y-107.0
X155.0Y-111.0
X155.0Y-112.0
X155.0Y-116.0
X155.0Y-117.0
X155.0Y-121.0
X155.0Y-122.0
X155.0Y-126.0
X155.0Y-127.0
X155.0Y-131.0
X155.0Y-132.0
X155.0Y-136.0
X155.0Y-137.0
X155.0Y-141.0
X155.0Y-142.0
X156.0Y-48.0
X156.0Y-49.0
X156.0Y-50.0
X156.0Y-51.0
X156.0Y-52.0
X156.0Y-53.0
X156.0Y-54.0
X156.0Y-55.0
X156.0Y-56.0
X156.0Y-57.0
X156.0Y-58.0
X156.0Y-59.0
X156.0Y-60.0
X156.0Y-61.0
X156.0Y-62.0
X156.0Y-63.0
X156.0Y-64.0
X156.0Y-65.0
X156.0Y-66.0
X156.0Y-67.0
X156.0Y-68.0
X156.0Y-69.0
X156.0Y-70.0
X156.0Y-71.0
X156.0Y-72.0
X156.0Y-73.0
X156.0Y-74.0
X156.0Y-75.0
X156.0Y-76.0
X156.0Y-77.0
X156.0Y-78.0
X156.0Y-79.0
X156.0Y-80.0
X156.0Y-81.0
X156.0Y-82.0
X156.0Y-83.0
X156.0Y-84.0
X156.0Y-85.0
X156.0Y-86.0
X156.0Y-87.0
X156.0Y-88.0
X156.0Y-89.0
X156.0Y-90.0
X156.0Y-91.0
X156.0Y-92.0
X156.0Y-93.0
X156.0Y-94.0
X156.0Y-95.0
X156.0Y-96.0
X156.0Y-97.0
X156.0Y-98.0
X156.0Y-99.0
X156.0Y-100.0
X156.0Y-101.0
X156.0Y-102.0
X156.0Y-103.0
X156.0Y-104.0
X156.0Y-105.0
X156.0Y-106.0
X156.0Y-107.0
X156.0Y-108.0
X156.0Y-109.0
X156.0Y-110.0
X156.0Y-111.0
X156.0Y-112.0
X156.0Y-113.0
X156.0Y-114.0
X156.0Y-115.0
X156.0Y-116.0
X156.0Y-117.0
X156.0Y-118.0
X156.0Y-119.0
X156.0Y-120.0
X156.0Y-121.0
X156.0Y-122.0
X156.0Y-123.0
X156.0Y-124.0
X156.0Y-125.0
X156.0Y-126.0
X156.0Y-127.0
X156.0Y-128.0
X156.0Y-129.0
X156.0Y-130.0
X156.0Y-131.0
X156.0Y-132.0
X156.0Y-133.0
X156.0Y-134.0
X156.0Y-135.0
X156.0Y-136.0
X156.0Y-137.0
X156.0Y-138.0
X156.0Y-139.0
X156.0Y-140.0
X156.0Y-141.0
X156.0Y-142.0
X156.0Y-143.0
X156.0Y-144.0
X156.0Y-145.0
X157.0Y-48.0
X157.0Y-49.0
X157.0Y-50.0
X157.0Y-51.0
X157.0Y-52.0
X157.0Y-53.0
X157.0Y-54.0
X157.0Y-55.0
X157.0Y-56.0
X157.0Y-57.0
X157.0Y-58.0
X157.0Y-59.0
X157.0Y-60.0
X157.0Y-61.0
X157.0Y-62.0
X157.0Y-63.0
X157.0Y-64.0
X157.0Y-65.0
X157.0Y-66.0
X157.0Y-67.0
X157.0Y-68.0
X157.0Y-69.0
X157.0Y-70.0
X157.0Y-71.0
X157.0Y-72.0
X157.0Y-73.0
X157.0Y-74.0
X157.0Y-75.0
X157.0Y-76.0
X157.0Y-77.0
X157.0Y-78.0
X157.0Y-79.0
X157.0Y-80.0
X157.0Y-81.0
X157.0Y-82.0
X157.0Y-83.0
X157.0Y-84.0
X157.0Y-85.0
X157.0Y-86.0
X157.0Y-87.0
X157.0Y-88.0
X157.0Y-89.0
X157.0Y-90.0
X157.0Y-91.0
X157.0Y-92.0
X157.0Y-93.0
X157.0Y-94.0
X157.0Y-95.0
X157.0Y-96.0
X157.0Y-97.0
X157.0Y-98.0
X157.0Y-99.0
X157.0Y-100.0
X157.0Y-101.0
X157.0Y-102.0
X157.0Y-103.0
X157.0Y-104.0
X157.0Y-105.0
X157.0Y-106.0
X157.0Y-107.0
X157.0Y-108.0
X157.0Y-109.0
X157.0Y-110.0
X157.0Y-111.0
X157.0Y-112.0
X157.0Y-113.0
X157.0Y-114.0
X157.0Y-115.0
X157.0Y-116.0
X157.0Y-117.0
X157.0Y-118.0
X157.0Y-119.0
X157.0Y-120.0
X157.0Y-121.0
X157.0Y-122.0
X157.0Y-123.0
X157.0Y-124.0
X157.0Y-125.0
X157.0Y-126.0
X157.0Y-127.0
X157.0Y-128.0
X157.0Y-129.0
X157.0Y-130.0
X157.0Y-131.0
X157.0Y-132.0
X157.0Y-133.0
X157.0Y-134.0
X157.0Y-135.0
X157.0Y-136.0
X157.0Y-137.0
X157.0Y-138.0
X157.0Y-139.0
X157.0Y-140.0
X157.0Y-141.0
X157.0Y-142.0
X157.0Y-143.0
X157.0Y-144.0
X157.0Y-145.0
X158.0Y-51.0
X158.0Y-52.0
X158.0Y-56.0
X158.0Y-57.0
X158.0Y-61.0
X158.0Y-62.0
X158.0Y-66.0
X158.0Y-67.0
X158.0Y-71.0
X158.0Y-72.0
X158.0Y-76.0
X158.0Y-77.0
X158.0Y-81.0
X158.0Y-82.0
X158.0Y-86.0
X158.0Y-87.0
X158.0Y-91.0
X158.0Y-92.0
X158.0Y-96.0
X158.0Y-97.0
X158.0Y-101.0
X158.0Y-102.0
X158.0Y-106.0
X158.0Y-107.0
X158.0Y-111.0
X158.0Y-112.0
X158.0Y-116.0
X158.0Y-117.0
X158.0Y-121.0
X158.0Y-122.0
X158.0Y-126.0
X158.0Y-127.0
X158.0Y-131.0
X158.0Y-132.0
X158.0Y-136.0
X158.0Y-137.0
X158.0Y-141.0
X158.0Y-142.0
X159.0Y-51.0
X159.0Y-52.0
X159.0Y-56.0
X159.0Y-57.0
X159.0Y-61.0
X159.0Y-62.0
X159.0Y-66.0
X159.0Y-67.0
X159.0Y-71.0
X159.0Y-72.0
X159.0Y-76.0
X159.0Y-77.0
X159.0Y-81.0
X159.0Y-82.0
X159.0Y-86.0
X159.0Y-87.0
X159.0Y-91.0
X159.0Y-92.0
X159.0Y-96.0
X159.0Y-97.0
X159.0Y-101.0
X159.0Y-102.0
X159.0Y-106.0
X159.0Y-107.0
X159.0Y-111.0
X159.0Y-112.0
X159.0Y-116.0
X159.0Y-117.0
X159.0Y-121.0
X159.0Y-122.0
X159.0Y-126.0
X159.0Y-127.0
X159.0Y-131.0
X159.0Y-132.0
X159.0Y-136.0
X159.0Y-137.0
X159.0Y-141.0
X159.0Y-142.0
X160.0Y-51.0
X160.0Y-52.0
X160.0Y-56.0
X160.0Y-57.0
X160.0Y-61.0
X160.0Y-62.0
X160.0Y-66.0
X160.0Y-67.0
X160.0Y-71.0
X160.0Y-72.0
X160.0Y-76.0
X160.0Y-77.0
X160.0Y-81.0
X160.0Y-82.0
X160.0Y-86.0
X160.0Y-87.0
X160.0Y-91.0
X160.0Y-92.0
X160.0Y-96.0
X160.0Y-97.0
X160.0Y-101.0
X160.0Y-102.0
X160.0Y-106.0
X160.0Y-107.0
X160.0Y-111.0
X160.0Y-112.0
X160.0Y-116.0
X160.0Y-117.0
X160.0Y-121.0
X160.0Y-122.0
X160.0Y-126.0
X160.0Y-127.0
X160.0Y-131.0
X160.0Y-132.0
X160.0Y-136.0
X160.0Y-137.0
X160.0Y-141.0
X160.0Y-142.0
X161.0Y-48.0
X161.0Y-49.0
X161.0Y-50.0
X161.0Y-51.0
X161.0Y-52.0
X161.0Y-53.0
X161.0Y-54.0
X161.0Y-55.0
X161.0Y-56.0
X161.0Y-57.0
X161.0Y-58.0
X161.0Y-59.0
X161.0Y-60.0
X161.0Y-61.0
X161.0Y-62.0
X161.0Y-63.0
X161.0Y-64.0
X161.0Y-65.0
X161.0Y-66.0
X161.0Y-67.0
X161.0Y-68.0
X161.0Y-69.0
X161.0Y-70.0
X161.0Y-71.0
X161.0Y-72.0
X161.0Y-73.0
X161.0Y-74.0
X161.0Y-75.0
X161.0Y-76.0
X161.0Y-77.0
X161.0Y-78.0
X161.0Y-79.0
X161.0Y-80.0
X161.0Y-81.0
X161.0Y-82.0
X161.0Y-83.0
X161.0Y-84.0
X161.0Y-85.0
X161.0Y-86.0
X161.0Y-87.0
X161.0Y-88.0
X161.0Y-89.0
X161.0Y-90.0
X161.0Y-91.0
X161.0Y-92.0
X161.0Y-93.0
X161.0Y-94.0
X161.0Y-95.0
X161.0Y-96.0
X161.0Y-97.0
X161.0Y-98.0
X161.0Y-99.0
X161.0Y-100.0
X161.0Y-101.0
X161.0Y-102.0
X161.0Y-103.0
X161.0Y-104.0
X161.0Y-105.0
X161.0Y-106.0
X161.0Y-107.0
X161.0Y-108.0
X161.0Y-109.0
X161.0Y-110.0
X161.0Y-111.0
X161.0Y-112.0
X161.0Y-113.0
X161.0Y-114.0
X161.0Y-115.0
X161.0Y-116.0
X161.0Y-117.0
X161.0Y-118.0
X161.0Y-119.0
X161.0Y-120.0
X161.0Y-121.0
X161.0Y-122.0
X161.0Y-123.0
X161.0Y-124.0
X161.0Y-125.0
X161.0Y-126.0
X161.0Y-127.0
X161.0Y-128.0
X161.0Y-129.0
X161.0Y-130.0
X161.0Y-131.0
X161.0Y-132.0
X161.0Y-133.0
X161.0Y-134.0
X161.0Y-135.0
X161.0Y-136.0
X161.0Y-137.0
X161.0Y-138.0
X161.0Y-139.0
X161.0Y-140.0
X161.0Y-141.0
X161.0Y-142.0
X161.0Y-143.0
X161.0Y-144.0
X161.0Y-145.0
X162.0Y-48.0
X162.0Y-49.0
X162.0Y-50.0
X162.0Y-51.0
X162.0Y-52.0
X162.0Y-53.0
X162.0Y-54.0
X162.0Y-55.0
X162.0Y-56.0
X162.0Y-57.0
X162.0Y-58.0
X162.0Y-59.0
X162.0Y-60.0
X162.0Y-61.0
X162.0Y-62.0
X162.0Y-63.0
X162.0Y-64.0
X162.0Y-65.0
X162.0Y-66.0
X162.0Y-67.0
X162.0Y-68.0
X162.0Y-69.0
X162.0Y-70.0
X162.0Y-71.0
X162.0Y-72.0
X162.0Y-73.0
X162.0Y-74.0
X162.0Y-75.0
X162.0Y-76.0
X162.0Y-77.0
X162.0Y-78.0
X162.0Y-79.0
X162.0Y-80.0
X162.0Y-81.0
X162.0Y-82.0
X162.0Y-83.0
X162.0Y-84.0
X162.0Y-85.0
X162.0Y-86.0
X162.0Y-87.0
X162.0Y-88.0
X162.0Y-89.0
X162.0Y-90.0
X162.0Y-91.0
X162.0Y-92.0
X162.0Y-93.0
X162.0Y-94.0
X162.0Y-95.0
X162.0Y-96.0
X162.0Y-97.0
X162.0Y-98.0
X162.0Y-99.0
X162.0Y-100.0
X162.0Y-101.0
X162.0Y-102.0
X162.0Y-103.0
X162.0Y-104.0
X162.0Y-105.0
X162.0Y-106.0
X162.0Y-107.0
X162.0Y-108.0
X162.0Y-109.0
X162.0Y-110.0
X162.0Y-111.0
X162.0Y-112.0
X162.0Y-113.0
X162.0Y-114.0
X162.0Y-115.0
X162.0Y-116.0
X162.0Y-117.0
X162.0Y-118.0
X162.0Y-119.0
X162.0Y-120.0
X162.0Y-121.0
X162.0Y-122.0
X162.0Y-123.0
X162.0Y-124.0
X162.0Y-125.0
X162.0Y-126.0
X162.0Y-127.0
X162.0Y-128.0
X162.0Y-129.0
X162.0Y-130.0
X162.0Y-131.0
X162.0Y-132.0
X162.0Y-133.0
X162.0Y-134.0
X162.0Y-135.0
X162.0Y-136.0
X162.0Y-137.0
X162.0Y-138.0
X162.0Y-139.0
X162.0Y-140.0
X162.0Y-141.0
X162.0Y-142.0
X162.0Y-143.0
X162.0Y-144.0
X162.0Y-145.0
X163.0Y-51.0
X163.0Y-52.0
X163.0Y-56.0
X163.0Y-57.0
X163.0Y-61.0
X163.0Y-62.0
X163.0Y-66.0
X163.0Y-67.0
X163.0Y-71.0
X163.0Y-72.0
X163.0Y-76.0
X163.0Y-77.0
X163.0Y-81.0
X163.0Y-82.0
X163.0Y-86.0
X163.0Y-87.0
X163.0Y-91.0
X163.0Y-92.0
X163.0Y-96.0
X163.0Y-97.0
X163.0Y-101.0
X163.0Y-102.0
X163.0Y-106.0
X163.0Y-107.0
X163.0Y-111.0
X163.0Y-112.0
X163.0Y-116.0
X163.0Y-117.0
X163.0Y-121.0
X163.0Y-122.0
X163.0Y-126.0
X163.0Y-127.0
X163.0Y-131.0
X163.0Y-132.0
X163.0Y-136.0
X163.0Y-137.0
X163.0Y-141.0
X163.0Y-142.0
X164.0Y-51.0
X164.0Y-52.0
X164.0Y-56.0
X164.0Y-57.0
X164.0Y-61.0
X164.0Y-62.0
X164.0Y-66.0
X164.0Y-67.0
X164.0Y-71.0
X164.0Y-72.0
X164.0Y-76.0
X164.0Y-77.0
X164.0Y-81.0
X164.0Y-82.0
X164.0Y-86.0
X164.0Y-87.0
X164.0Y-91.0
X164.0Y-92.0
X164.0Y-96.0
X164.0Y-97.0
X164.0Y-101.0
X164.0Y-102.0
X164.0Y-106.0
X164.0Y-107.0
X164.0Y-111.0
X164.0Y-112.0
X164.0Y-116.0
X164.0Y-117.0
X164.0Y-121.0
X164.0Y-122.0
X164.0Y-126.0
X164.0Y-127.0
X164.0Y-131.0
X164.0Y-132.0
X164.0Y-136.0
X164.0Y-137.0
X164.0Y-141.0
X164.0Y-142.0
X165.0Y-51.0
X165.0Y-52.0
X165.0Y-56.0
X165.0Y-57.0
X165.0Y-61.0
X165.0Y-62.0
X165.0Y-66.0
X165.0Y-67.0
X165.0Y-71.0
X165.0Y-72.0
X165.0Y-76.0
X165.0Y-77.0
X165.0Y-81.0
X165.0Y-82.0
X165.0Y-86.0
X165.0Y-87.0
X165.0Y-91.0
X165.0Y-92.0
X165.0Y-96.0
X165.0Y-97.0
X165.0Y-101.0
X165.0Y-102.0
X165.0Y-106.0
X165.0Y-107.0
X165.0Y-111.0
X165.0Y-112.0
X165.0Y-116.0
X165.0Y-117.0
X165.0Y-121.0
X165.0Y-122.0
X165.0Y-126.0
X165.0Y-127.0
X165.0Y-131.0
X165.0Y-132.0
X165.0Y-136.0
X165.0Y-137.0
X165.0Y-141.0
X165.0Y-142.0
X166.0Y-48.0
X166.0Y-49.0
X166.0Y-50.0
X166.0Y-51.0
X166.0Y-52.0
X166.0Y-53.0
X166.0Y-54.0
X166.0Y-55.0
X166.0Y-56.0
X166.0Y-57.0
X166.0Y-58.0
X166.0Y-59.0
X166.0Y-60.0
X166.0Y-61.0
X166.0Y-62.0
X166.0Y-63.0
X166.0Y-64.0
X166.0Y-65.0
X166.0Y-66.0
X166.0Y-67.0
X166.0Y-68.0
X166.0Y-69.0
X166.0Y-70.0
X166.0Y-71.0
X166.0Y-72.0
X166.0Y-73.0
X166.0Y-74.0
X166.0Y-75.0
X166.0Y-76.0
X166.0Y-77.0
X166.0Y-78.0
X166.0Y-79.0
X166.0Y-80.0
X166.0Y-81.0
X166.0Y-82.0
X166.0Y-83.0
X166.0Y-84.0
X166.0Y-85.0
X166.0Y-86.0
X166.0Y-87.0
X166.0Y-88.0
X166.0Y-89.0
X166.0Y-90.0
X166.0Y-91.0
X166.0Y-92.0
X166.0Y-93.0
X166.0Y-94.0
X166.0Y-95.0
X166.0Y-96.0
X166.0Y-97.0
X166.0Y-98.0
X166.0Y-99.0
X166.0Y-100.0
X166.0Y-101.0
X166.0Y-102.0
X166.0Y-103.0
X166.0Y-104.0
X166.0Y-105.0
X166.0Y-106.0
X166.0Y-107.0
X166.0Y-108.0
X166.0Y-109.0
X166.0Y-110.0
X166.0Y-111.0
X166.0Y-112.0
X166.0Y-113.0
X166.0Y-114.0
X166.0Y-115.0
X166.0Y-116.0
X166.0Y-117.0
X166.0Y-118.0
X166.0Y-119.0
X166.0Y-120.0
X166.0Y-121.0
X166.0Y-122.0
X166.0Y-123.0
X166.0Y-124.0
X166.0Y-125.0
X166.0Y-126.0
X166.0Y-127.0
X166.0Y-128.0
X166.0Y-129.0
X166.0Y-130.0
X166.0Y-131.0
X166.0Y-132.0
X166.0Y-133.0
X166.0Y-134.0
X166.0Y-135.0
X166.0Y-136.0
X166.0Y-137.0
X166.0Y-138.0
X166.0Y-139.0
X166.0Y-140.0
X166.0Y-141.0
X166.0Y-142.0
X166.0Y-143.0
X166.0Y-144.0
X166.0Y-145.0
X167.0Y-48.0
X167.0Y-49.0
X167.0Y-50.0
X167.0Y-51.0
X167.0Y-52.0
X167.0Y-53.0
X167.0Y-54.0
X167.0Y-55.0
X167.0Y-56.0
X167.0Y-57.0
X167.0Y-58.0
X167.0Y-59.0
X167.0Y-60.0
X167.0Y-61.0
X167.0Y-62.0
X167.0Y-63.0
X167.0Y-64.0
X167.0Y-65.0
X167.0Y-66.0
X167.0Y-67.0
X167.0Y-68.0
X167.0Y-69.0
X167.0Y-70.0
X167.0Y-71.0
X167.0Y-72.0
X167.0Y-73.0
X167.0Y-74.0
X167.0Y-75.0
X167.0Y-76.0
X167.0Y-77.0
X167.0Y-78.0
X167.0Y-79.0
X167.0Y-80.0
X167.0Y-81.0
X167.0Y-82.0
X167.0Y-83.0
X167.0Y-84.0
X167.0Y-85.0
X167.0Y-86.0
X167.0Y-87.0
X167.0Y-88.0
X167.0Y-89.0
X167.0Y-90.0
X167.0Y-91.0
X167.0Y-92.0
X167.0Y-93.0
X167.0Y-94.0
X167.0Y-95.0
X167.0Y-96.0
X167.0Y-97.0
X167.0Y-98.0
X167.0Y-99.0
X167.0Y-100.0
X167.0Y-101.0
X167.0Y-102.0
X167.0Y-103.0
X167.0Y-104.0
X167.0Y-105.0
X167.0Y-106.0
X167.0Y-107.0
X167.0Y-108.0
X167.0Y-109.0
X167.0Y-110.0
X167.0Y-111.0
X167.0Y-112.0
X167.0Y-113.0
X167.0Y-114.0
X167.0Y-115.0
X167.0Y-116.0
X167.0Y-117.0
X167.0Y-118.0
X167.0Y-119.0
X167.0Y-120.0
X167.0Y-121.0
X167.0Y-122.0
X167.0Y-123.0
X167.0Y-124.0
X167.0Y-125.0
X167.0Y-126.0
X167.0Y-127.0
X167.0Y-128.0
X167.0Y-129.0
X167.0Y-130.0
X167.0Y-131.0
X167.0Y-132.0
X167.0Y-133.0
X167.0Y-134.0
X167.0Y-135.0
X167.0Y-136.0
X167.0Y-137.0
X167.0Y-138.0
X167.0Y-139.0
X167.0Y-140.0
X167.0Y-141.0
X167.0Y-142.0
X167.0Y-143.0
X167.0Y-144.0
X167.0Y-145.0
X168.0Y-51.0
X168.0Y-52.0
X168.0Y-56.0
X168.0Y-57.0
X168.0Y-61.0
X168.0Y-62.0
X168.0Y-66.0
X168.0Y-67.0
X168.0Y-71.0
X168.0Y-72.0
X168.0Y-76.0
X168.0Y-77.0
X168.0Y-81.0
X168.0Y-82.0
X168.0Y-86.0
X168.0Y-87.0
X168.0Y-91.0
X168.0Y-92.0
X168.0Y-96.0
X168.0Y-97.0
X168.0Y-101.0
X168.0Y-102.0
X168.0Y-106.0
X168.0Y-107.0
X168.0Y-111.0
X168.0Y-112.0
X168.0Y-116.0
X168.0Y-117.0
X168.0Y-121.0
X168.0Y-122.0
X168.0Y-126.0
X168.0Y-127.0
X168.0Y-131.0
X168.0Y-132.0
X168.0Y-136.0
X168.0Y-137.0
X168.0Y-141.0
X168.0Y-142.0
X169.0Y-51.0
X169.0Y-52.0
X169.0Y-56.0
X169.0Y-57.0
X169.0Y-61.0
X169.0Y-62.0
X169.0Y-66.0
X169.0Y-67.0
X169.0Y-71.0
X169.0Y-72.0
X169.0Y-76.0
X169.0Y-77.0
X169.0Y-81.0
X169.0Y-82.0
X169.0Y-86.0
X169.0Y-87.0
X169.0Y-91.0
X169.0Y-92.0
X169.0Y-96.0
X169.0Y-97.0
X169.0Y-101.0
X169.0Y-102.0
X169.0Y-106.0
X169.0Y-107.0
X169.0Y-111.0
X169.0Y-112.0
X169.0Y-116.0
X169.0Y-117.0
X169.0Y-121.0
X169.0Y-122.0
X169.0Y-126.0
X169.0Y-127.0
X169.0Y-131.0
X169.0Y-132.0
X169.0Y-136.0
X169.0Y-137.0
X169.0Y-141.0
X169.0Y-142.0
X170.0Y-51.0
X170.0Y-52.0
X170.0Y-56.0
X170.0Y-57.0
X170.0Y-61.0
X170.0Y-62.0
X170.0Y-66.0
X170.0Y-67.0
X170.0Y-71.0
X170.0Y-72.0
X170.0Y-76.0
X170.0Y-77.0
X170.0Y-81.0
X170.0Y-82.0
X170.0Y-86.0
X170.0Y-87.0
X170.0Y-91.0
X170.0Y-92.0
X170.0Y-96.0
X170.0Y-97.0
X170.0Y-101.0
X170.0Y-102.0
X170.0Y-106.0
X170.0Y-107.0
X170.0Y-111.0
X170.0Y-112.0
X170.0Y-116.0
X170.0Y-117.0
X170.0Y-121.0
X170.0Y-122.0
X170.0Y-126.0
X170.0Y-127.0
X170.0Y-131.0
X170.0Y-132.0
X170.0Y-136.0
X170.0Y-137.0
X170.0Y-141.0
X170.0Y-142.0
X171.0Y-48.0
X171.0Y-49.0
X171.0Y-50.0
X171.0Y-51.0
X171.0Y-52.0
X171.0Y-53.0
X171.0Y-54.0
X171.0Y-55.0
X171.0Y-56.0
X171.0Y-57.0
X171.0Y-58.0
X171.0Y-59.0
X171.0Y-60.0
X171.0Y-61.0
X171.0Y-62.0
X171.0Y-63.0
X171.0Y-64.0
X171.0Y-65.0
X171.0Y-66.0
X171.0Y-67.0
X171.0Y-68.0
X171.0Y-69.0
X171.0Y-70.0
X171.0Y-71.0
X171.0Y-72.0
X171.0Y-73.0
X171.0Y-74.0
X171.0Y-75.0
X171.0Y-76.0
X171.0Y-77.0
X171.0Y-78.0
X171.0Y-79.0
X171.0Y-80.0
X171.0Y-81.0
X171.0Y-82.0
X171.0Y-83.0
X171.0Y-84.0
X171.0Y-85.0
X171.0Y-86.0
X171.0Y-87.0
X171.0Y-88.0
X171.0Y-89.0
X171.0Y-90.0
X171.0Y-91.0
X171.0Y-92.0
X171.0Y-93.0
X171.0Y-94.0
X171.0Y-95.0
X171.0Y-96.0
X171.0Y-97.0
X171.0Y-98.0
X171.0Y-99.0
X171.0Y-100.0
X171.0Y-101.0
X171.0Y-102.0
X171.0Y-103.0
X171.0Y-104.0
X171.0Y-105.0
X171.0Y-106.0
X171.0Y-107.0
X171.0Y-108.0
X171.0Y-109.0
X171.0Y-110.0
X171.0Y-111.0
X171.0Y-112.0
X171.0Y-113.0
X171.0Y-114.0
X171.0Y-115.0
X171.0Y-116.0
X171.0Y-117.0
X171.0Y-118.0
X171.0Y-119.0
X171.0Y-120.0
X171.0Y-121.0
X171.0Y-122.0
X171.0Y-123.0
X171.0Y-124.0
X171.0Y-125.0
X171.0Y-126.0
X171.0Y-127.0
X171.0Y-128.0
X171.0Y-129.0
X171.0Y-130.0
X171.0Y-131.0
X171.0Y-132.0
X171.0Y-133.0
X171.0Y-134.0
X171.0Y-135.0
X171.0Y-136.0
X171.0Y-137.0
X171.0Y-138.0
X171.0Y-139.0
X171.0Y-140.0
X171.0Y-141.0
X171.0Y-142.0
X171.0Y-143.0
X171.0Y-144.0
X171.0Y-145.0
X172.0Y-48.0
X172.0Y-49.0
X172.0Y-50.0
X172.0Y-51.0
X172.0Y-52.0
X172.0Y-53.0
X172.0Y-54.0
X172.0Y-55.0
X172.0Y-56.0
X172.0Y-57.0
X172.0Y-58.0
X172.0Y-59.0
X172.0Y-60.0
X172.0Y-61.0
X172.0Y-62.0
X172.0Y-63.0
X172.0Y-64.0
X172.0Y-65.0
X172.0Y-66.0
X172.0Y-67.0
X172.0Y-68.0
X172.0Y-69.0
X172.0Y-70.0
X172.0Y-71.0
X172.0Y-72.0
X172.0Y-73.0
X172.0Y-74.0
X172.0Y-75.0
X172.0Y-76.0
X172.0Y-77.0
X172.0Y-78.0
X172.0Y-79.0
X172.0Y-80.0
X172.0Y-81.0
X172.0Y-82.0
X172.0Y-83.0
X172.0Y-84.0
X172.0Y-85.0
X172.0Y-86.0
X172.0Y-87.0
X172.0Y-88.0
X172.0Y-89.0
X172.0Y-90.0
X172.0Y-91.0
X172.0Y-92.0
X172.0Y-93.0
X172.0Y-94.0
X172.0Y-95.0
X172.0Y-96.0
X172.0Y-97.0
X172.0Y-98.0
X172.0Y-99.0
X172.0Y-100.0
X172.0Y-101.0
X172.0Y-102.0
X172.0Y-103.0
X172.0Y-104.0
X172.0Y-105.0
X172.0Y-106.0
X172.0Y-107.0
X172.0Y-108.0
X172.0Y-109.0
X172.0Y-110.0
X172.0Y-111.0
X172.0Y-112.0
X172.0Y-113.0
X172.0Y-114.0
X172.0Y-115.0
X172.0Y-116.0
X172.0Y-117.0
X172.0Y-118.0
X172.0Y-119.0
X172.0Y-120.0
X172.0Y-121.0
X172.0Y-122.0
X172.0Y-123.0
X172.0Y-124.0
X172.0Y-125.0
X172.0Y-126.0
X172.0Y-127.0
X172.0Y-128.0
X172.0Y-129.0
X172.0Y-130.0
X172.0Y-131.0
X172.0Y-132.0
X172.0Y-133.0
X172.0Y-134.0
X172.0Y-135.0
X172.0Y-136.0
X172.0Y-137.0
X172.0Y-138.0
X172.0Y-139.0
X172.0Y-140.0
X172.0Y-141.0
X172.0Y-142.0
X172.0Y-143.0
X172.0Y-144.0
X172.0Y-145.0
X173.0Y-51.0
X173.0Y-52.0
X173.0Y-56.0
X173.0Y-57.0
X173.0Y-61.0
X173.0Y-62.0
X173.0Y-66.0
X173.0Y-67.0
X173.0Y-71.0
X173.0Y-72.0
X173.0Y-76.0
X173.0Y-77.0
X173.0Y-81.0
X173.0Y-82.0
X173.0Y-86.0
X173.0Y-87.0
X173.0Y-91.0
X173.0Y-92.0
X173.0Y-96.0
X173.0Y-97.0
X173.0Y-101.0
X173.0Y-102.0
X173.0Y-106.0
X173.0Y-107.0
X173.0Y-111.0
X173.0Y-112.0
X173.0Y-116.0
X173.0Y-117.0
X173.0Y-121.0
X173.0Y-122.0
X173.0Y-126.0
X173.0Y-127.0
X173.0Y-131.0
X173.0Y-132.0
X173.0Y-136.0
X173.0Y-137.0
X173.0Y-141.0
X173.0Y-142.0
X174.0Y-51.0
X174.0Y-52.0
X174.0Y-56.0
X174.0Y-57.0
X174.0Y-61.0
X174.0Y-62.0
X174.0Y-66.0
X174.0Y-67.0
X174.0Y-71.0
X174.0Y-72.0
X174.0Y-76.0
X174.0Y-77.0
X174.0Y-81.0
X174.0Y-82.0
X174.0Y-86.0
X174.0Y-87.0
X174.0Y-91.0
X174.0Y-92.0
X174.0Y-96.0
X174.0Y-97.0
X174.0Y-101.0
X174.0Y-102.0
X174.0Y-106.0
X174.0Y-107.0
X174.0Y-111.0
X174.0Y-112.0
X174.0Y-116.0
X174.0Y-117.0
X174.0Y-121.0
X174.0Y-122.0
X174.0Y-126.0
X174.0Y-127.0
X174.0Y-131.0
X174.0Y-132.0
X174.0Y-136.0
X174.0Y-137.0
X174.0Y-141.0
X174.0Y-142.0
X175.0Y-51.0
X175.0Y-52.0
X175.0Y-56.0
X175.0Y-57.0
X175.0Y-61.0
X175.0Y-62.0
X175.0Y-66.0
X175.0Y-67.0
X175.0Y-71.0
X175.0Y-72.0
X175.0Y-76.0
X175.0Y-77.0
X175.0Y-81.0
X175.0Y-82.0
X175.0Y-86.0
X175.0Y-87.0
X175.0Y-91.0
X175.0Y-92.0
X175.0Y-96.0
X175.0Y-97.0
X175.0Y-101.0
X175.0Y-102.0
X175.0Y-106.0
X175.0Y-107.0
X175.0Y-111.0
X175.0Y-112.0
X175.0Y-116.0
X175.0Y-117.0
X175.0Y-121.0
X175.0Y-122.0
X175.0Y-126.0
X175.0Y-127.0
X175.0Y-131.0
X175.0Y-132.0
X175.0Y-136.0
X175.0Y-137.0
X175.0Y-141.0
X175.0Y-142.0
X176.0Y-48.0
X176.0Y-49.0
X176.0Y-50.0
X176.0Y-51.0
X176.0Y-52.0
X176.0Y-53.0
X176.0Y-54.0
X176.0Y-55.0
X176.0Y-56.0
X176.0Y-57.0
X176.0Y-58.0
X176.0Y-59.0
X176.0Y-60.0
X176.0Y-61.0
X176.0Y-62.0
X176.0Y-63.0
X176.0Y-64.0
X176.0Y-65.0
X176.0Y-66.0
X176.0Y-67.0
X176.0Y-68.0
X176.0Y-69.0
X176.0Y-70.0
X176.0Y-71.0
X176.0Y-72.0
X176.0Y-73.0
X176.0Y-74.0
X176.0Y-75.0
X176.0Y-76.0
X176.0Y-77.0
X176.0Y-78.0
X176.0Y-79.0
X176.0Y-80.0
X176.0Y-81.0
X176.0Y-82.0
X176.0Y-83.0
X176.0Y-84.0
X176.0Y-85.0
X176.0Y-86.0
X176.0Y-87.0
X176.0Y-88.0
X176.0Y-89.0
X176.0Y-90.0
X176.0Y-91.0
X176.0Y-92.0
X176.0Y-93.0
X176.0Y-94.0
X176.0Y-95.0
X176.0Y-96.0
X176.0Y-97.0
X176.0Y-98.0
X176.0Y-99.0
X176.0Y-100.0
X176.0Y-101.0
X176.0Y-102.0
X176.0Y-103.0
X176.0Y-104.0
X176.0Y-105.0
X176.0Y-106.0
X176.0Y-107.0
X176.0Y-108.0
X176.0Y-109.0
X176.0Y-110.0
X176.0Y-111.0
X176.0Y-112.0
X176.0Y-113.0
X176.0Y-114.0
X176.0Y-115.0
X176.0Y-116.0
X176.0Y-117.0
X176.0Y-118.0
X176.0Y-119.0
X176.0Y-120.0
X176.0Y-121.0
X176.0Y-122.0
X176.0Y-123.0
X176.0Y-124.0
X176.0Y-125.0
X176.0Y-126.0
X176.0Y-127.0
X176.0Y-128.0
X176.0Y-129.0
X176.0Y-130.0
X176.0Y-131.0
X176.0Y-132.0
X176.0Y-133.0
X176.0Y-134.0
X176.0Y-135.0
X176.0Y-136.0
X176.0Y-137.0
X176.0Y-138.0
X176.0Y-139.0
X176.0Y-140.0
X176.0Y-141.0
X176.0Y-142.0
X176.0Y-143.0
X176.0Y-144.0
X176.0Y-145.0
X177.0Y-48.0
X177.0Y-49.0
X177.0Y-50.0
X177.0Y-51.0
X177.0Y-52.0
X177.0Y-53.0
X177.0Y-54.0
X177.0Y-55.0
X177.0Y-56.0
X177.0Y-57.0
X177.0Y-58.0
X177.0Y-59.0
X177.0Y-60.0
X177.0Y-61.0
X177.0Y-62.0
X177.0Y-63.0
X177.0Y-64.0
X177.0Y-65.0
X177.0Y-66.0
X177.0Y-67.0
X177.0Y-68.0
X177.0Y-69.0
X177.0Y-70.0
X177.0Y-71.0
X177.0Y-72.0
X177.0Y-73.0
X177.0Y-74.0
X177.0Y-75.0
X177.0Y-76.0
X177.0Y-77.0
X177.0Y-78.0
X177.0Y-79.0
X177.0Y-80.0
X177.0Y-81.0
X177.0Y-82.0
X177.0Y-83.0
X177.0Y-84.0
X177.0Y-85.0
X177.0Y-86.0
X177.0Y-87.0
X177.0Y-88.0
X177.0Y-89.0
X177.0Y-90.0
X177.0Y-91.0
X177.0Y-92.0
X177.0Y-93.0
X177.0Y-94.0
X177.0Y-95.0
X177.0Y-96.0
X177.0Y-97.0
X177.0Y-98.0
X177.0Y-99.0
X177.0Y-100.0
X177.0Y-101.0
X177.0Y-102.0
X177.0Y-103.0
X177.0Y-104.0
X177.0Y-105.0
X177.0Y-106.0
X177.0Y-107.0
X177.0Y-108.0
X177.0Y-109.0
X177.0Y-110.0
X177.0Y-111.0
X177.0Y-112.0
X177.0Y-113.0
X177.0Y-114.0
X177.0Y-115.0
X177.0Y-116.0
X177.0Y-117.0
X177.0Y-118.0
X177.0Y-119.0
X177.0Y-120.0
X177.0Y-121.0
X177.0Y-122.0
X177.0Y-123.0
X177.0Y-124.0
X177.0Y-125.0
X177.0Y-126.0
X177.0Y-127.0
X177.0Y-128.0
X177.0Y-129.0
X177.0Y-130.0
X177.0Y-131.0
X177.0Y-132.0
X177.0Y-133.0
X177.0Y-134.0
X177.0Y-135.0
X177.0Y-136.0
X177.0Y-137.0
X177.0Y-138.0
X177.0Y-139.0
X177.0Y-140.0
X177.0Y-141.0
X177.0Y-142.0
X177.0Y-143.0
X177.0Y-144.0
X177.0Y-145.0
X178.0Y-51.0
X178.0Y-52.0
X178.0Y-56.0
X178.0Y-57.0
X178.0Y-61.0
X178.0Y-62.0
X178.0Y-66.0
X178.0Y-67.0
X178.0Y-71.0
X178.0Y-72.0
X178.0Y-76.0
X178.0Y-77.0
X178.0Y-81.0
X178.0Y-82.0
X178.0Y-86.0
X178.0Y-87.0
X178.0Y-91.0
X178.0Y-92.0
X178.0Y-96.0
X178.0Y-97.0
X178.0Y-101.0
X178.0Y-102.0
X178.0Y-106.0
X178.0Y-107.0
X178.0Y-111.0
X178.0Y-112.0
X178.0Y-116.0
X178.0Y-117.0
X178.0Y-121.0
X178.0Y-122.0
X178.0Y-126.0
X178.0Y-127.0
X178.0Y-131.0
X178.0Y-132.0
X178.0Y-136.0
X178.0Y-137.0
X178.0Y-141.0
X178.0Y-142.0
X179.0Y-51.0
X179.0Y-52.0
X179.0Y-56.0
X179.0Y-57.0
X179.0Y-61.0
X179.0Y-62.0
X179.0Y-66.0
X179.0Y-67.0
X179.0Y-71.0
X179.0Y-72.0
X179.0Y-76.0
X179.0Y-77.0
X179.0Y-81.0
X179.0Y-82.0
X179.0Y-86.0
X179.0Y-87.0
X179.0Y-91.0
X179.0Y-92.0
X179.0Y-96.0
X179.0Y-97.0
X179.0Y-101.0
X179.0Y-102.0
X179.0Y-106.0
X179.0Y-107.0
X179.0Y-111.0
X179.0Y-112.0
X179.0Y-116.0
X179.0Y-117.0
X179.0Y-121.0
X179.0Y-122.0
X179.0Y-126.0
X179.0Y-127.0
X179.0Y-131.0
X179.0Y-132.0
X179.0Y-136.0
X179.0Y-137.0
X179.0Y-141.0
X179.0Y-142.0
X180.0Y-51.0
X180.0Y-52.0
X180.0Y-56.0
X180.0Y-57.0
X180.0Y-61.0
X180.0Y-62.0
X180.0Y-66.0
X180.0Y-67.0
X180.0Y-71.0
X180.0Y-72.0
X180.0Y-76.0
X180.0Y-77.0
X180.0Y-81.0
X180.0Y-82.0
X180.0Y-86.0
X180.0Y-87.0
X180.0Y-91.0
X180.0Y-92.0
X180.0Y-96.0
X180.0Y-97.0
X180.0Y-101.0
X180.0Y-102.0
X180.0Y-106.0
X180.0Y-107.0
X180.0Y-111.0
X180.0Y-112.0
X180.0Y-116.0
X180.0Y-117.0
X180.0Y-121.0
X180.0Y-122.0
X180.0Y-126.0
X180.0Y-127.0
X180.0Y-131.0
X180.0Y-132.0
X180.0Y-136.0
X180.0Y-137.0
X180.0Y-141.0
X180.0Y-142.0
X181.0Y-48.0
X181.0Y-49.0
X181.0Y-50.0
X181.0Y-51.0
X181.0Y-52.0
X181.0Y-53.0
X181.0Y-54.0
X181.0Y-55.0
X181.0Y-56.0
X181.0Y-57.0
X181.0Y-58.0
X181.0Y-59.0
X181.0Y-60.0
X181.0Y-61.0
X181.0Y-62.0
X181.0Y-63.0
X181.0Y-64.0
X181.0Y-65.0
X181.0Y-66.0
X181.0Y-67.0
X181.0Y-68.0
X181.0Y-69.0
X181.0Y-70.0
X181.0Y-71.0
X181.0Y-72.0
X181.0Y-73.0
X181.0Y-74.0
X181.0Y-75.0
X181.0Y-76.0
X181.0Y-77.0
X181.0Y-78.0
X181.0Y-79.0
X181.0Y-80.0
X181.0Y-81.0
X181.0Y-82.0
X181.0Y-83.0
X181.0Y-84.0
X181.0Y-85.0
X181.0Y-86.0
X181.0Y-87.0
X181.0Y-88.0
X181.0Y-89.0
X181.0Y-90.0
X181.0Y-91.0
X181.0Y-92.0
X181.0Y-93.0
X181.0Y-94.0
X181.0Y-95.0
X181.0Y-96.0
X181.0Y-97.0
X181.0Y-98.0
X181.0Y-99.0
X181.0Y-100.0
X181.0Y-101.0
X181.0Y-102.0
X181.0Y-103.0
X181.0Y-104.0
X181.0Y-105.0
X181.0Y-106.0
X181.0Y-107.0
X181.0Y-108.0
X181.0Y-109.0
X181.0Y-110.0
X181.0Y-111.0
X181.0Y-112.0
X181.0Y-113.0
X181.0Y-114.0
X181.0Y-115.0
X181.0Y-116.0
X181.0Y-117.0
X181.0Y-118.0
X181.0Y-119.0
X181.0Y-120.0
X181.0Y-121.0
X181.0Y-122.0
X181.0Y-123.0
X181.0Y-124.0
X181.0Y-125.0
X181.0Y-126.0
X181.0Y-127.0
X181.0Y-128.0
X181.0Y-129.0
X181.0Y-130.0
X181.0Y-131.0
X181.0Y-132.0
X181.0Y-133.0
X181.0Y-134.0
X181.0Y-135.0
X181.0Y-136.0
X181.0Y-137.0
X181.0Y-138.0
X181.0Y-139.0
X181.0Y-140.0
X181.0Y-141.0
X181.0Y-142.0
X181.0Y-143.0
X181.0Y-144.0
X181.0Y-145.0
X182.0Y-48.0
X182.0Y-49.0
X182.0Y-50.0
X182.0Y-51.0
X182.0Y-52.0
X182.0Y-53.0
X182.0Y-54.0
X182.0Y-55.0
X182.0Y-56.0
X182.0Y-57.0
X182.0Y-58.0
X182.0Y-59.0
X182.0Y-60.0
X182.0Y-61.0
X182.0Y-62.0
X182.0Y-63.0
X182.0Y-64.0
X182.0Y-65.0
X182.0Y-66.0
X182.0Y-67.0
X182.0Y-68.0
X182.0Y-69.0
X182.0Y-70.0
X182.0Y-71.0
X182.0Y-72.0
X182.0Y-73.0
X182.0Y-74.0
X182.0Y-75.0
X182.0Y-76.0
X182.0Y-77.0
X182.0Y-78.0
X182.0Y-79.0
X182.0Y-80.0
X182.0Y-81.0
X182.0Y-82.0
X182.0Y-83.0
X182.0Y-84.0
X182.0Y-85.0
X182.0Y-86.0
X182.0Y-87.0
X182.0Y-88.0
X182.0Y-89.0
X182.0Y-90.0
X182.0Y-91.0
X182.0Y-92.0
X182.0Y-93.0
X182.0Y-94.0
X182.0Y-95.0
X182.0Y-96.0
X182.0Y-97.0
X182.0Y-98.0
X182.0Y-99.0
X182.0Y-100.0
X182.0Y-101.0
X182.0Y-102.0
X182.0Y-103.0
X182.0Y-104.0
X182.0Y-105.0
X182.0Y-106.0
X182.0Y-107.0
X182.0Y-108.0
X182.0Y-109.0
X182.0Y-110.0
X182.0Y-111.0
X182.0Y-112.0
X182.0Y-113.0
X182.0Y-114.0
X182.0Y-115.0
X182.0Y-116.0
X182.0Y-117.0
X182.0Y-118.0
X182.0Y-119.0
X182.0Y-120.0
X182.0Y-121.0
X182.0Y-122.0
X182.0Y-123.0
X182.0Y-124.0
X182.0Y-125.0
X182.0Y-126.0
X182.0Y-127.0
X182.0Y-128.0
X182.0Y-129.0
X182.0Y-130.0
X182.0Y-131.0
X182.0Y-132.0
X182.0Y-133.0
X182.0Y-134.0
X182.0Y-135.0
X182.0Y-136.0
X182.0Y-137.0
X182.0Y-138.0
X182.0Y-139.0
X182.0Y-140.0
X182.0Y-141.0
X182.0Y-142.0
X182.0Y-143.0
X182.0Y-144.0
X182.0Y-145.0
X183.0Y-51.0
X183.0Y-52.0
X183.0Y-56.0
X183.0Y-57.0
X183.0Y-61.0
X183.0Y-62.0
X183.0Y-66.0
X183.0Y-67.0
X183.0Y-71.0
X183.0Y-72.0
X183.0Y-76.0
X183.0Y-77.0
X183.0Y-81.0
X183.0Y-82.0
X183.0Y-86.0
X183.0Y-87.0
X183.0Y-91.0
X183.0Y-92.0
X183.0Y-96.0
X183.0Y-97.0
X183.0Y-101.0
X183.0Y-102.0
X183.0Y-106.0
X183.0Y-107.0
X183.0Y-111.0
X183.0Y-112.0
X183.0Y-116.0
X183.0Y-117.0
X183.0Y-121.0
X183.0Y-122.0
X183.0Y-126.0
X183.0Y-127.0
X183.0Y-131.0
X183.0Y-132.0
X183.0Y-136.0
X183.0Y-137.0
X183.0Y-141.0
X183.0Y-142.0
X184.0Y-51.0
X184.0Y-52.0
X184.0Y-56.0
X184.0Y-57.0
X184.0Y-61.0
X184.0Y-62.0
X184.0Y-66.0
X184.0Y-67.0
X184.0Y-71.0
X184.0Y-72.0
X184.0Y-76.0
X184.0Y-77.0
X184.0Y-81.0
X184.0Y-82.0
X184.0Y-86.0
X184.0Y-87.0
X184.0Y-91.0
X184.0Y-92.0
X184.0Y-96.0
X184.0Y-97.0
X184.0Y-101.0
X184.0Y-102.0
X184.0Y-106.0
X184.0Y-107.0
X184.0Y-111.0
X184.0Y-112.0
X184.0Y-116.0
X184.0Y-117.0
X184.0Y-121.0
X184.0Y-122.0
X184.0Y-126.0
X184.0Y-127.0
X184.0Y-131.0
X184.0Y-132.0
X184.0Y-136.0
X184.0Y-137.0
X184.0Y-141.0
X184.0Y-142.0
X185.0Y-51.0
X185.0Y-52.0
X185.0Y-56.0
X185.0Y-57.0
X185.0Y-61.0
X185.0Y-62.0
X185.0Y-66.0
X185.0Y-67.0
X185.0Y-71.0
X185.0Y-72.0
X185.0Y-76.0
X185.0Y-77.0
X185.0Y-81.0
X185.0Y-82.0
X185.0Y-86.0
X185.0Y-87.0
X185.0Y-91.0
X185.0Y-92.0
X185.0Y-96.0
X185.0Y-97.0
X185.0Y-101.0
X185.0Y-102.0
X185.0Y-106.0
X185.0Y-107.0
X185.0Y-111.0
X185.0Y-112.0
X185.0Y-116.0
X185.0Y-117.0
X185.0Y-121.0
X185.0Y-122.0
X185.0Y-126.0
X185.0Y-127.0
X185.0Y-131.0
X185.0Y-132.0
X185.0Y-136.0
X185.0Y-137.0
X185.0Y-141.0
X185.0Y-142.0
X186.0Y-48.0
X186.0Y-49.0
X186.0Y-50.0
X186.0Y-51.0
X186.0Y-52.0
X186.0Y-53.0
X186.0Y-54.0
X186.0Y-55.0
X186.0Y-56.0
X186.0Y-57.0
X186.0Y-58.0
X186.0Y-59.0
X186.0Y-60.0
X186.0Y-61.0
X186.0Y-62.0
X186.0Y-63.0
X186.0Y-64.0
X186.0Y-65.0
X186.0Y-66.0
X186.0Y-67.0
X186.0Y-68.0
X186.0Y-69.0
X186.0Y-70.0
X186.0Y-71.0
X186.0Y-72.0
X186.0Y-73.0
X186.0Y-74.0
X186.0Y-75.0
X186.0Y-76.0
X186.0Y-77.0
X186.0Y-78.0
X186.0Y-79.0
X186.0Y-80.0
X186.0Y-81.0
X186.0Y-82.0
X186.0Y-83.0
X186.0Y-84.0
X186.0Y-85.0
X186.0Y-86.0
X186.0Y-87.0
X186.0Y-88.0
X186.0Y-89.0
X186.0Y-90.0
X186.0Y-91.0
X186.0Y-92.0
X186.0Y-93.0
X186.0Y-94.0
X186.0Y-95.0
X186.0Y-96.0
X186.0Y-97.0
X186.0Y-98.0
X186.0Y-99.0
X186.0Y-100.0
X186.0Y-101.0
X186.0Y-102.0
X186.0Y-103.0
X186.0Y-104.0
X186.0Y-105.0
X186.0Y-106.0
X186.0Y-107.0
X186.0Y-108.0
X186.0Y-109.0
X186.0Y-110.0
X186.0Y-111.0
X186.0Y-112.0
X186.0Y-113.0
X186.0Y-114.0
X186.0Y-115.0
X186.0Y-116.0
X186.0Y-117.0
X186.0Y-118.0
X186.0Y-119.0
X186.0Y-120.0
X186.0Y-121.0
X186.0Y-122.0
X186.0Y-123.0
X186.0Y-124.0
X186.0Y-125.0
X186.0Y-126.0
X186.0Y-127.0
X186.0Y-128.0
X186.0Y-129.0
X186.0Y-130.0
X186.0Y-131.0
X186.0Y-132.0
X186.0Y-133.0
X186.0Y-134.0
X186.0Y-135.0
X186.0Y-136.0
X186.0Y-137.0
X186.0Y-138.0
X186.0Y-139.0
X186.0Y-140.0
X186.0Y-141.0
X186.0Y-142.0
X186.0Y-143.0
X186.0Y-144.0
X186.0Y-145.0
X187.0Y-48.0
X187.0Y-49.0
X187.0Y-50.0
X187.0Y-51.0
X187.0Y-52.0
X187.0Y-53.0
X187.0Y-54.0
X187.0Y-55.0
X187.0Y-56.0
X187.0Y-57.0
X187.0Y-58.0
X187.0Y-59.0
X187.0Y-60.0
X187.0Y-61.0
X187.0Y-62.0
X187.0Y-63.0
X187.0Y-64.0
X187.0Y-65.0
X187.0Y-66.0
X187.0Y-67.0
X187.0Y-68.0
X187.0Y-69.0
X187.0Y-70.0
X187.0Y-71.0
X187.0Y-72.0
X187.0Y-73.0
X187.0Y-74.0
X187.0Y-75.0
X187.0Y-76.0
X187.0Y-77.0
X187.0Y-78.0
X187.0Y-79.0
X187.0Y-80.0
X187.0Y-81.0
X187.0Y-82.0
X187.0Y-83.0
X187.0Y-84.0
X187.0Y-85.0
X187.0Y-86.0
X187.0Y-87.0
X187.0Y-88.0
X187.0Y-89.0
X187.0Y-90.0
X187.0Y-91.0
X187.0Y-92.0
X187.0Y-93.0
X187.0Y-94.0
X187.0Y-95.0
X187.0Y-96.0
X187.0Y-97.0
X187.0Y-98.0
X187.0Y-99.0
X187.0Y-100.0
X187.0Y-101.0
X187.0Y-102.0
X187.0Y-103.0
X187.0Y-104.0
X187.0Y-105.0
X187.0Y-106.0
X187.0Y-107.0
X187.0Y-108.0
X187.0Y-109.0
X187.0Y-110.0
X187.0Y-111.0
X187.0Y-112.0
X187.0Y-113.0
X187.0Y-114.0
X187.0Y-115.0
X187.0Y-116.0
X187.0Y-117.0
X187.0Y-118.0
X187.0Y-119.0
X187.0Y-120.0
X187.0Y-121.0
X187.0Y-122.0
X187.0Y-123.0
X187.0Y-124.0
X187.0Y-125.0
X187.0Y-126.0
X187.0Y-127.0
X187.0Y-128.0
X187.0Y-129.0
X187.0Y-130.0
X187.0Y-131.0
X187.0Y-132.0
X187.0Y-133.0
X187.0Y-134.0
X187.0Y-135.0
X187.0Y-136.0
X187.0Y-137.0
X187.0Y-138.0
X187.0Y-139.0
X187.0Y-140.0
X187.0Y-141.0
X187.0Y-142.0
X187.0Y-143.0
X187.0Y-144.0
X187.0Y-145.0
X188.0Y-51.0
X188.0Y-52.0
X188.0Y-56.0
X188.0Y-57.0
X188.0Y-61.0
X188.0Y-62.0
X188.0Y-66.0
X188.0Y-67.0
X188.0Y-71.0
X188.0Y-72.0
X188.0Y-76.0
X188.0Y-77.0
X188.0Y-81.0
X188.0Y-82.0
X188.0Y-86.0
X188.0Y-87.0
X188.0Y-91.0
X188.0Y-92.0
X188.0Y-96.0
X188.0Y-97.0
X188.0Y-101.0
X188.0Y-102.0
X188.0Y-106.0
X188.0Y-107.0
X188.0Y-111.0
X188.0Y-112.0
X188.0Y-116.0
X188.0Y-117.0
X188.0Y-121.0
X188.0Y-122.0
X188.0Y-126.0
X188.0Y-127.0
X188.0Y-131.0
X188.0Y-132.0
X188.0Y-136.0
X188.0Y-137.0
X188.0Y-141.0
X188.0Y-142.0
X189.0Y-51.0
X189.0Y-52.0
X189.0Y-56.0
X189.0Y-57.0
X189.0Y-61.0
X189.0Y-62.0
X189.0Y-66.0
X189.0Y-67.0
X189.0Y-71.0
X189.0Y-72.0
X189.0Y-76.0
X189.0Y-77.0
X189.0Y-81.0
X189.0Y-82.0
X189.0Y-86.0
X189.0Y-87.0
X189.0Y-91.0
X189.0Y-92.0
X189.0Y-96.0
X189.0Y-97.0
X189.0Y-101.0
X189.0Y-102.0
X189.0Y-106.0
X189.0Y-107.0
X189.0Y-111.0
X189.0Y-112.0
X189.0Y-116.0
X189.0Y-117.0
X189.0Y-121.0
X189.0Y-122.0
X189.0Y-126.0
X189.0Y-127.0
X189.0Y-131.0
X189.0Y-132.0
X189.0Y-136.0
X189.0Y-137.0
X189.0Y-141.0
X189.0Y-142.0
X190.0Y-51.0
X190.0Y-52.0
X190.0Y-56.0
X190.0Y-57.0
X190.0Y-61.0
X190.0Y-62.0
X190.0Y-66.0
X190.0Y-67.0
X190.0Y-71.0
X190.0Y-72.0
X190.0Y-76.0
X190.0Y-77.0
X190.0Y-81.0
X190.0Y-82.0
X190.0Y-86.0
X190.0Y-87.0
X190.0Y-91.0
X190.0Y-92.0
X190.0Y-96.0
X190.0Y-97.0
X190.0Y-101.0
X190.0Y-102.0
X190.0Y-106.0
X190.0Y-107.0
X190.0Y-111.0
X190.0Y-112.0
X190.0Y-116.0
X190.0Y-117.0
X190.0Y-121.0
X190.0Y-122.0
X190.0Y-126.0
X190.0Y-127.0
X190.0Y-131.0
X190.0Y-132.0
X190.0Y-136.0
X190.0Y-137.0
X190.0Y-141.0
X190.0Y-142.0
X191.0Y-48.0
X191.0Y-49.0
X191.0Y-50.0
X191.0Y-51.0
X191.0Y-52.0
X191.0Y-53.0
X191.0Y-54.0
X191.0Y-55.0
X191.0Y-56.0
X191.0Y-57.0
X191.0Y-58.0
X191.0Y-59.0
X191.0Y-60.0
X191.0Y-61.0
X191.0Y-62.0
X191.0Y-63.0
X191.0Y-64.0
X191.0Y-65.0
X191.0Y-66.0
X191.0Y-67.0
X191.0Y-68.0
X191.0Y-69.0
X191.0Y-70.0
X191.0Y-71.0
X191.0Y-72.0
X191.0Y-73.0
X191.0Y-74.0
X191.0Y-75.0
X191.0Y-76.0
X191.0Y-77.0
X191.0Y-78.0
X191.0Y-79.0
X191.0Y-80.0
X191.0Y-81.0
X191.0Y-82.0
X191.0Y-83.0
X191.0Y-84.0
X191.0Y-85.0
X191.0Y-86.0
X191.0Y-87.0
X191.0Y-88.0
X191.0Y-89.0
X191.0Y-90.0
X191.0Y-91.0
X191.0Y-92.0
X191.0Y-93.0
X191.0Y-94.0
X191.0Y-95.0
X191.0Y-96.0
X191.0Y-97.0
X191.0Y-98.0
X191.0Y-99.0
X191.0Y-100.0
X191.0Y-101.0
X191.0Y-102.0
X191.0Y-103.0
X191.0Y-104.0
X191.0Y-105.0
X191.0Y-106.0
X191.0Y-107.0
X191.0Y-108.0
X191.0Y-109.0
X191.0Y-110.0
X191.0Y-111.0
X191.0Y-112.0
X191.0Y-113.0
X191.0Y-114.0
X191.0Y-115.0
X191.0Y-116.0
X191.0Y-117.0
X191.0Y-118.0
X191.0Y-119.0
X191.0Y-120.0
X191.0Y-121.0
X191.0Y-122.0
X191.0Y-123.0
X191.0Y-124.0
X191.0Y-125.0
X191.0Y-126.0
X191.0Y-127.0
X191.0Y-128.0
X191.0Y-129.0
X191.0Y-130.0
X191.0Y-131.0
X191.0Y-132.0
X191.0Y-133.0
X191.0Y-134.0
X191.0Y-135.0
X191.0Y-136.0
X191.0Y-137.0
X191.0Y-138.0
X191.0Y-139.0
X191.0Y-140.0
X191.0Y-141.0
X191.0Y-142.0
X191.0Y-143.0
X191.0Y-144.0
X191.0Y-145.0
X192.0Y-48.0
X192.0Y-49.0
X192.0Y-50.0
X192.0Y-51.0
X192.0Y-52.0
X192.0Y-53.0
X192.0Y-54.0
X192.0Y-55.0
X192.0Y-56.0
X192.0Y-57.0
X192.0Y-58.0
X192.0Y-59.0
X192.0Y-60.0
X192.0Y-61.0
X192.0Y-62.0
X192.0Y-63.0
X192.0Y-64.0
X192.0Y-65.0
X192.0Y-66.0
X192.0Y-67.0
X192.0Y-68.0
X192.0Y-69.0
X192.0Y-70.0
X192.0Y-71.0
X192.0Y-72.0
X192.0Y-73.0
X192.0Y-74.0
X192.0Y-75.0
X192.0Y-76.0
X192.0Y-77.0
X192.0Y-78.0
X192.0Y-79.0
X192.0Y-80.0
X192.0Y-81.0
X192.0Y-82.0
X192.0Y-83.0
X192.0Y-84.0
X192.0Y-85.0
X192.0Y-86.0
X192.0Y-87.0
X192.0Y-88.0
X192.0Y-89.0
X192.0Y-90.0
X192.0Y-91.0
X192.0Y-92.0
X192.0Y-93.0
X192.0Y-94.0
X192.0Y-95.0
X192.0Y-96.0
X192.0Y-97.0
X192.0Y-98.0
X192.0Y-99.0
X192.0Y-100.0
X192.0Y-101.0
X192.0Y-102.0
X192.0Y-103.0
X192.0Y-104.0
X192.0Y-105.0
X192.0Y-106.0
X192.0Y-107.0
X192.0Y-108.0
X192.0Y-109.0
X192.0Y-110.0
X192.0Y-111.0
X192.0Y-112.0
X192.0Y-113.0
X192.0Y-114.0
X192.0Y-115.0
X192.0Y-116.0
X192.0Y-117.0
X192.0Y-118.0
X192.0Y-119.0
X192.0Y-120.0
X192.0Y-121.0
X192.0Y-122.0
X192.0Y-123.0
X192.0Y-124.0
X192.0Y-125.0
X192.0Y-126.0
X192.0Y-127.0
X192.0Y-128.0
X192.0Y-129.0
X192.0Y-130.0
X192.0Y-131.0
X192.0Y-132.0
X192.0Y-133.0
X192.0Y-134.0
X192.0Y-135.0
X192.0Y-136.0
X192.0Y-137.0
X192.0Y-138.0
X192.0Y-139.0
X192.0Y-140.0
X192.0Y-141.0
X192.0Y-142.0
X192.0Y-143.0
X192.0Y-144.0
X192.0Y-145.0
X193.0Y-51.0
X193.0Y-52.0
X193.0Y-56.0
X193.0Y-57.0
X193.0Y-61.0
X193.0Y-62.0
X193.0Y-66.0
X193.0Y-67.0
X193.0Y-71.0
X193.0Y-72.0
X193.0Y-76.0
X193.0Y-77.0
X193.0Y-81.0
X193.0Y-82.0
X193.0Y-86.0
X193.0Y-87.0
X193.0Y-91.0
X193.0Y-92.0
X193.0Y-96.0
X193.0Y-97.0
X193.0Y-101.0
X193.0Y-102.0
X193.0Y-106.0
X193.0Y-107.0
X193.0Y-111.0
X193.0Y-112.0
X193.0Y-116.0
X193.0Y-117.0
X193.0Y-121.0
X193.0Y-122.0
X193.0Y-126.0
X193.0Y-127.0
X193.0Y-131.0
X193.0Y-132.0
X193.0Y-136.0
X193.0Y-137.0
X193.0Y-141.0
X193.0Y-142.0
X194.0Y-51.0
X194.0Y-52.0
X194.0Y-56.0
X194.0Y-57.0
X194.0Y-61.0
X194.0Y-62.0
X194.0Y-66.0
X194.0Y-67.0
X194.0Y-71.0
X194.0Y-72.0
X194.0Y-76.0
X194.0Y-77.0
X194.0Y-81.0
X194.0Y-82.0
X194.0Y-86.0
X194.0Y-87.0
X194.0Y-91.0
X194.0Y-92.0
X194.0Y-96.0
X194.0Y-97.0
X194.0Y-101.0
X194.0Y-102.0
X194.0Y-106.0
X194.0Y-107.0
X194.0Y-111.0
X194.0Y-112.0
X194.0Y-116.0
X194.0Y-117.0
X194.0Y-121.0
X194.0Y-122.0
X194.0Y-126.0
X194.0Y-127.0
X194.0Y-131.0
X194.0Y-132.0
X194.0Y-136.0
X194.0Y-137.0
X194.0Y-141.0
X194.0Y-142.0
X195.0Y-51.0
X195.0Y-52.0
X195.0Y-56.0
X195.0Y-57.0
X195.0Y-61.0
X195.0Y-62.0
X195.0Y-66.0
X195.0Y-67.0
X195.0Y-71.0
X195.0Y-72.0
X195.0Y-76.0
X195.0Y-77.0
X195.0Y-81.0
X195.0Y-82.0
X195.0Y-86.0
X195.0Y-87.0
X195.0Y-91.0
X195.0Y-92.0
X195.0Y-96.0
X195.0Y-97.0
X195.0Y-101.0
X195.0Y-102.0
X195.0Y-106.0
X195.0Y-107.0
X195.0Y-111.0
X195.0Y-112.0
X195.0Y-116.0
X195.0Y-117.0
X195.0Y-121.0
X195.0Y-122.0
X195.0Y-126.0
X195.0Y-127.0
X195.0Y-131.0
X195.0Y-132.0
X195.0Y-136.0
X195.0Y-137.0
X195.0Y-141.0
X195.0Y-142.0
T2
X99.0Y-49.0
X99.0Y-54.0
X99.0Y-59.0
X99.0Y-64.0
X99.0Y-69.0
X99.0Y-74.0
X99.0Y-79.0
X99.0Y-84.0
X99.0Y-89.0
X99.0Y-94.0
X99.0Y-99.0
X99.0Y-104.0
X99.0Y-109.0
X99.0Y-114.0
X99.0Y-119.0
X99.0Y-124.0
X99.0Y-129.0
X99.0Y-134.0
X99.0Y-139.0
X99.0Y-144.0
X104.0Y-49.0
X104.0Y-54.0
X104.0Y-59.0
X104.0Y-64.0
X104.0Y-69.0
X104.0Y-74.0
X104.0Y-79.0
X104.0Y-84.0
X104.0Y-89.0
X104.0Y-94.0
X104.0Y-99.0
X104.0Y-104.0
X104.0Y-109.0
X104.0Y-114.0
X104.0Y-119.0
X104.0Y-124.0
X104.0Y-129.0
X104.0Y-144.0
X109.0Y-49.0
X109.0Y-54.0
X109.0Y-59.0
X109.0Y-64.0
X109.0Y-69.0
X109.0Y-74.0
X109.0Y-79.0
X109.0Y-84.0
X109.0Y-89.0
X109.0Y-94.0
X109.0Y-99.0
X109.0Y-104.0
X109.0Y-109.0
X109.0Y-114.0
X109.0Y-119.0
X109.0Y-124.0
X109.0Y-129.0
X109.0Y-144.0
X114.0Y-49.0
X114.0Y-54.0
X114.0Y-59.0
X114.0Y-64.0
X114.0Y-69.0
X114.0Y-74.0
X114.0Y-79.0
X114.0Y-84.0
X114.0Y-89.0
X114.0Y-94.0
X114.0Y-99.0
X114.0Y-104.0
X114.0Y-109.0
X114.0Y-114.0
X114.0Y-119.0
X114.0Y-124.0
X114.0Y-129.0
X114.0Y-134.0
X114.0Y-139.0
X114.0Y-144.0
X119.0Y-49.0
X119.0Y-54.0
X119.0Y-59.0
X119.0Y-64.0
X119.0Y-69.0
X119.0Y-74.0
X119.0Y-79.0
X119.0Y-84.0
X119.0Y-89.0
X119.0Y-94.0
X119.0Y-99.0
X119.0Y-104.0
X119.0Y-109.0
X119.0Y-114.0
X119.0Y-119.0
X119.0Y-124.0
X119.0Y-129.0
X119.0Y-134.0
X119.0Y-139.0
X119.0Y-144.0
X124.0Y-49.0
X124.0Y-54.0
X124.0Y-59.0
X124.0Y-64.0
X124.0Y-69.0
X124.0Y-74.0
X124.0Y-79.0
X124.0Y-84.0
X124.0Y-89.0
X124.0Y-94.0
X124.0Y-99.0
X124.0Y-104.0
X124.0Y-109.0
X124.0Y-114.0
X124.0Y-119.0
X124.0Y-124.0
X124.0Y-129.0
X124.0Y-134.0
X124.0Y-139.0
X124.0Y-144.0
X129.0Y-49.0
X129.0Y-54.0
X129.0Y-59.0
X129.0Y-64.0
X129.0Y-69.0
X129.0Y-74.0
X129.0Y-79.0
X129.0Y-84.0
X129.0Y-89.0
X129.0Y-94.0
X129.0Y-99.0
X129.0Y-104.0
X129.0Y-109.0
X129.0Y-114.0
X129.0Y-119.0
X129.0Y-124.0
X129.0Y-129.0
X129.0Y-134.0
X129.0Y-139.0
X129.0Y-144.0
X134.0Y-49.0
X134.0Y-54.0
X134.0Y-59.0
X134.0Y-64.0
X134.0Y-69.0
X134.0Y-74.0
X134.0Y-79.0
X134.0Y-84.0
X134.0Y-89.0
X134.0Y-94.0
X134.0Y-99.0
X134.0Y-104.0
X134.0Y-109.0
X134.0Y-114.0
X134.0Y-119.0
X134.0Y-124.0
X134.0Y-129.0
X134.0Y-134.0
X134.0Y-139.0
X134.0Y-144.0
X139.0Y-49.0
X139.0Y-54.0
X139.0Y-59.0
X139.0Y-64.0
X139.0Y-69.0
X139.0Y-74.0
X139.0Y-79.0
X139.0Y-84.0
X139.0Y-89.0
X139.0Y-94.0
X139.0Y-99.0
X139.0Y-104.0
X139.0Y-109.0
X139.0Y-114.0
X139.0Y-119.0
X139.0Y-124.0
X139.0Y-129.0
X139.0Y-134.0
X139.0Y-139.0
X139.0Y-144.0
X144.0Y-49.0
X144.0Y-54.0
X144.0Y-59.0
X144.0Y-64.0
X144.0Y-69.0
X144.0Y-74.0
X144.0Y-79.0
X144.0Y-84.0
X144.0Y-89.0
X144.0Y-94.0
X144.0Y-99.0
X144.0Y-104.0
X144.0Y-109.0
X144.0Y-114.0
X144.0Y-119.0
X144.0Y-124.0
X144.0Y-129.0
X144.0Y-134.0
X144.0Y-139.0
X144.0Y-144.0
X149.0Y-49.0
X149.0Y-54.0
X149.0Y-59.0
X149.0Y-64.0
X149.0Y-69.0
X149.0Y-74.0
X149.0Y-79.0
X149.0Y-84.0
X149.0Y-89.0
X149.0Y-94.0
X149.0Y-99.0
X149.0Y-104.0
X149.0Y-109.0
X149.0Y-114.0
X149.0Y-119.0
X149.0Y-124.0
X149.0Y-129.0
X149.0Y-134.0
X149.0Y-139.0
X149.0Y-144.0
X154.0Y-49.0
X154.0Y-54.0
X154.0Y-59.0
X154.0Y-64.0
X154.0Y-69.0
X154.0Y-74.0
X154.0Y-79.0
X154.0Y-84.0
X154.0Y-89.0
X154.0Y-94.0
X154.0Y-99.0
X154.0Y-104.0
X154.0Y-109.0
X154.0Y-114.0
X154.0Y-119.0
X154.0Y-124.0
X154.0Y-129.0
X154.0Y-134.0
X154.0Y-139.0
X154.0Y-144.0
X159.0Y-49.0
X159.0Y-54.0
X159.0Y-59.0
X159.0Y-64.0
X159.0Y-69.0
X159.0Y-74.0
X159.0Y-79.0
X159.0Y-84.0
X159.0Y-89.0
X159.0Y-94.0
X159.0Y-99.0
X159.0Y-104.0
X159.0Y-109.0
X159.0Y-114.0
X159.0Y-119.0
X159.0Y-124.0
X159.0Y-129.0
X159.0Y-134.0
X159.0Y-139.0
X159.0Y-144.0
X164.0Y-49.0
X164.0Y-54.0
X164.0Y-59.0
X164.0Y-64.0
X164.0Y-69.0
X164.0Y-74.0
X164.0Y-79.0
X164.0Y-84.0
X164.0Y-89.0
X164.0Y-94.0
X164.0Y-99.0
X164.0Y-104.0
X164.0Y-109.0
X164.0Y-114.0
X164.0Y-119.0
X164.0Y-124.0
X164.0Y-129.0
X164.0Y-134.0
X164.0Y-139.0
X164.0Y-144.0
X169.0Y-49.0
X169.0Y-54.0
X169.0Y-59.0
X169.0Y-64.0
X169.0Y-69.0
X169.0Y-74.0
X169.0Y-79.0
X169.0Y-84.0
X169.0Y-89.0
X169.0Y-94.0
X169.0Y-99.0
X169.0Y-104.0
X169.0Y-109.0
X169.0Y-114.0
X169.0Y-119.0
X169.0Y-124.0
X169.0Y-129.0
X169.0Y-134.0
X169.0Y-139.0
X169.0Y-144.0
X174.0Y-49.0
X174.0Y-54.0
X174.0Y-59.0
X174.0Y-64.0
X174.0Y-69.0
X174.0Y-74.0
X174.0Y-79.0
X174.0Y-84.0
X174.0Y-89.0
X174.0Y-94.0
X174.0Y-99.0
X174.0Y-104.0
X174.0Y-109.0
X174.0Y-114.0
X174.0Y-119.0
X174.0Y-124.0
X174.0Y-129.0
X174.0Y-134.0
X174.0Y-139.0
X174.0Y-144.0
X179.0Y-49.0
X179.0Y-54.0
X179.0Y-59.0
X179.0Y-64.0
X179.0Y-69.0
X179.0Y-74.0
X179.0Y-79.0
X179.0Y-84.0
X179.0Y-89.0
X179.0Y-94.0
X179.0Y-99.0
X179.0Y-104.0
X179.0Y-109.0
X179.0Y-114.0
X179.0Y-119.0
X179.0Y-124.0
X179.0Y-129.0
X179.0Y-134.0
X179.0Y-139.0
X179.0Y-144.0
X184.0Y-49.0
X184.0Y-54.0
X184.0Y-59.0
X184.0Y-64.0
X184.0Y-69.0
X184.0Y-74.0
X184.0Y-79.0
X184.0Y-84.0
X184.0Y-89.0
X184.0Y-94.0
X184.0Y-99.0
X184.0Y-104.0
X184.0Y-109.0
X184.0Y-114.0
X184.0Y-119.0
X184.0Y-124.0
X184.0Y-129.0
X184.0Y-134.0
X184.0Y-139.0
X184.0Y-144.0
X189.0Y-49.0
X189.0Y-54.0
X189.0Y-59.0
X189.0Y-64.0
X189.0Y-69.0
X189.0Y-74.0
X189.0Y-79.0
X189.0Y-84.0
X189.0Y-89.0
X189.0Y-94.0
X189.0Y-99.0
X189.0Y-104.0
X189.0Y-109.0
X189.0Y-114.0
X189.0Y-119.0
X189.0Y-124.0
X189.0Y-129.0
X189.0Y-134.0
X189.0Y-139.0
X189.0Y-144.0
X194.0Y-49.0
X194.0Y-54.0
X194.0Y-59.0
X194.0Y-64.0
X194.0Y-69.0
X194.0Y-74.0
X194.0Y-79.0
X194.0Y-84.0
X194.0Y-89.0
X194.0Y-94.0
X194.0Y-99.0
X194.0Y-104.0
X194.0Y-109.0
X194.0Y-114.0
X194.0Y-119.0
X194.0Y-124.0
X194.0Y-129.0
X194.0Y-134.0
X194.0Y-139.0
X194.0Y-144.0
T0
M30
