%TF.GenerationSoftware,KiCad,Pcbnew,6.0.9+dfsg-1~bpo11+1*%
%TF.CreationDate,2022-11-06T13:23:44+01:00*%
%TF.ProjectId,base,62617365-2e6b-4696-9361-645f70636258,2*%
%TF.SameCoordinates,Original*%
%TF.FileFunction,Legend,Bot*%
%TF.FilePolarity,Positive*%
%FSLAX46Y46*%
G04 Gerber Fmt 4.6, Leading zero omitted, Abs format (unit mm)*
G04 Created by KiCad (PCBNEW 6.0.9+dfsg-1~bpo11+1) date 2022-11-06 13:23:44*
%MOMM*%
%LPD*%
G01*
G04 APERTURE LIST*
%ADD10C,0.150000*%
G04 APERTURE END LIST*
D10*
X107500000Y-135147380D02*
X107404761Y-135147380D01*
X107309523Y-135195000D01*
X107261904Y-135242619D01*
X107214285Y-135337857D01*
X107166666Y-135528333D01*
X107166666Y-135766428D01*
X107214285Y-135956904D01*
X107261904Y-136052142D01*
X107309523Y-136099761D01*
X107404761Y-136147380D01*
X107500000Y-136147380D01*
X107595238Y-136099761D01*
X107642857Y-136052142D01*
X107690476Y-135956904D01*
X107738095Y-135766428D01*
X107738095Y-135528333D01*
X107690476Y-135337857D01*
X107642857Y-135242619D01*
X107595238Y-135195000D01*
X107500000Y-135147380D01*
X106547619Y-135147380D02*
X106452380Y-135147380D01*
X106357142Y-135195000D01*
X106309523Y-135242619D01*
X106261904Y-135337857D01*
X106214285Y-135528333D01*
X106214285Y-135766428D01*
X106261904Y-135956904D01*
X106309523Y-136052142D01*
X106357142Y-136099761D01*
X106452380Y-136147380D01*
X106547619Y-136147380D01*
X106642857Y-136099761D01*
X106690476Y-136052142D01*
X106738095Y-135956904D01*
X106785714Y-135766428D01*
X106785714Y-135528333D01*
X106738095Y-135337857D01*
X106690476Y-135242619D01*
X106642857Y-135195000D01*
X106547619Y-135147380D01*
X105261904Y-136147380D02*
X105833333Y-136147380D01*
X105547619Y-136147380D02*
X105547619Y-135147380D01*
X105642857Y-135290238D01*
X105738095Y-135385476D01*
X105833333Y-135433095D01*
X107547619Y-137757380D02*
X107880952Y-137281190D01*
X108119047Y-137757380D02*
X108119047Y-136757380D01*
X107738095Y-136757380D01*
X107642857Y-136805000D01*
X107595238Y-136852619D01*
X107547619Y-136947857D01*
X107547619Y-137090714D01*
X107595238Y-137185952D01*
X107642857Y-137233571D01*
X107738095Y-137281190D01*
X108119047Y-137281190D01*
X107119047Y-137233571D02*
X106785714Y-137233571D01*
X106642857Y-137757380D02*
X107119047Y-137757380D01*
X107119047Y-136757380D01*
X106642857Y-136757380D01*
X106357142Y-136757380D02*
X106023809Y-137757380D01*
X105690476Y-136757380D01*
X105404761Y-136852619D02*
X105357142Y-136805000D01*
X105261904Y-136757380D01*
X105023809Y-136757380D01*
X104928571Y-136805000D01*
X104880952Y-136852619D01*
X104833333Y-136947857D01*
X104833333Y-137043095D01*
X104880952Y-137185952D01*
X105452380Y-137757380D01*
X104833333Y-137757380D01*
M02*
