%TF.GenerationSoftware,KiCad,Pcbnew,6.0.1-79c1e3a40b~116~ubuntu20.04.1*%
%TF.CreationDate,2022-01-29T11:27:01+01:00*%
%TF.ProjectId,base,62617365-2e6b-4696-9361-645f70636258,1*%
%TF.SameCoordinates,Original*%
%TF.FileFunction,Copper,L2,Bot*%
%TF.FilePolarity,Positive*%
%FSLAX46Y46*%
G04 Gerber Fmt 4.6, Leading zero omitted, Abs format (unit mm)*
G04 Created by KiCad (PCBNEW 6.0.1-79c1e3a40b~116~ubuntu20.04.1) date 2022-01-29 11:27:01*
%MOMM*%
%LPD*%
G01*
G04 APERTURE LIST*
%TA.AperFunction,ComponentPad*%
%ADD10C,3.400000*%
%TD*%
%TA.AperFunction,ViaPad*%
%ADD11C,0.800000*%
%TD*%
G04 APERTURE END LIST*
D10*
%TO.P,REF\u002A\u002A,1*%
%TO.N,GND*%
X124000000Y-129000000D03*
%TD*%
%TO.P,REF\u002A\u002A,1*%
%TO.N,GND*%
X154000000Y-134000000D03*
%TD*%
%TO.P,REF\u002A\u002A,1*%
%TO.N,GND*%
X104000000Y-99000000D03*
%TD*%
%TO.P,REF\u002A\u002A,1*%
%TO.N,GND*%
X169000000Y-74000000D03*
%TD*%
%TO.P,REF\u002A\u002A,1*%
%TO.N,GND*%
X99000000Y-64000000D03*
%TD*%
%TO.P,REF\u002A\u002A,1*%
%TO.N,GND*%
X104000000Y-144000000D03*
%TD*%
%TO.P,REF\u002A\u002A,1*%
%TO.N,GND*%
X144000000Y-84000000D03*
%TD*%
%TO.P,REF\u002A\u002A,1*%
%TO.N,GND*%
X134000000Y-84000000D03*
%TD*%
%TO.P,REF\u002A\u002A,1*%
%TO.N,GND*%
X154000000Y-84000000D03*
%TD*%
%TO.P,REF\u002A\u002A,1*%
%TO.N,GND*%
X179000000Y-134000000D03*
%TD*%
%TO.P,REF\u002A\u002A,1*%
%TO.N,GND*%
X194000000Y-144000000D03*
%TD*%
%TO.P,REF\u002A\u002A,1*%
%TO.N,GND*%
X169000000Y-54000000D03*
%TD*%
%TO.P,REF\u002A\u002A,1*%
%TO.N,GND*%
X119000000Y-114000000D03*
%TD*%
%TO.P,REF\u002A\u002A,1*%
%TO.N,GND*%
X99000000Y-124000000D03*
%TD*%
%TO.P,REF\u002A\u002A,1*%
%TO.N,GND*%
X189000000Y-64000000D03*
%TD*%
%TO.P,REF\u002A\u002A,1*%
%TO.N,GND*%
X134000000Y-79000000D03*
%TD*%
%TO.P,REF\u002A\u002A,1*%
%TO.N,GND*%
X184000000Y-104000000D03*
%TD*%
%TO.P,REF\u002A\u002A,1*%
%TO.N,GND*%
X99000000Y-144000000D03*
%TD*%
%TO.P,REF\u002A\u002A,1*%
%TO.N,GND*%
X99000000Y-74000000D03*
%TD*%
%TO.P,REF\u002A\u002A,1*%
%TO.N,GND*%
X144000000Y-59000000D03*
%TD*%
%TO.P,REF\u002A\u002A,1*%
%TO.N,GND*%
X194000000Y-124000000D03*
%TD*%
%TO.P,REF\u002A\u002A,1*%
%TO.N,GND*%
X184000000Y-99000000D03*
%TD*%
%TO.P,REF\u002A\u002A,1*%
%TO.N,GND*%
X124000000Y-59000000D03*
%TD*%
%TO.P,REF\u002A\u002A,1*%
%TO.N,GND*%
X149000000Y-54000000D03*
%TD*%
%TO.P,REF\u002A\u002A,1*%
%TO.N,GND*%
X139000000Y-94000000D03*
%TD*%
%TO.P,REF\u002A\u002A,1*%
%TO.N,GND*%
X129000000Y-89000000D03*
%TD*%
%TO.P,REF\u002A\u002A,1*%
%TO.N,GND*%
X179000000Y-99000000D03*
%TD*%
%TO.P,REF\u002A\u002A,1*%
%TO.N,GND*%
X104000000Y-94000000D03*
%TD*%
%TO.P,REF\u002A\u002A,1*%
%TO.N,GND*%
X189000000Y-124000000D03*
%TD*%
%TO.P,REF\u002A\u002A,1*%
%TO.N,GND*%
X174000000Y-144000000D03*
%TD*%
%TO.P,REF\u002A\u002A,1*%
%TO.N,GND*%
X159000000Y-84000000D03*
%TD*%
%TO.P,REF\u002A\u002A,1*%
%TO.N,GND*%
X149000000Y-49000000D03*
%TD*%
%TO.P,REF\u002A\u002A,1*%
%TO.N,GND*%
X144000000Y-119000000D03*
%TD*%
%TO.P,REF\u002A\u002A,1*%
%TO.N,GND*%
X184000000Y-139000000D03*
%TD*%
%TO.P,REF\u002A\u002A,1*%
%TO.N,GND*%
X164000000Y-104000000D03*
%TD*%
%TO.P,REF\u002A\u002A,1*%
%TO.N,GND*%
X99000000Y-49000000D03*
%TD*%
%TO.P,REF\u002A\u002A,1*%
%TO.N,GND*%
X109000000Y-89000000D03*
%TD*%
%TO.P,REF\u002A\u002A,1*%
%TO.N,GND*%
X189000000Y-89000000D03*
%TD*%
%TO.P,REF\u002A\u002A,1*%
%TO.N,GND*%
X164000000Y-94000000D03*
%TD*%
%TO.P,REF\u002A\u002A,1*%
%TO.N,GND*%
X154000000Y-109000000D03*
%TD*%
%TO.P,REF\u002A\u002A,1*%
%TO.N,GND*%
X134000000Y-89000000D03*
%TD*%
%TO.P,REF\u002A\u002A,1*%
%TO.N,GND*%
X144000000Y-74000000D03*
%TD*%
%TO.P,REF\u002A\u002A,1*%
%TO.N,GND*%
X144000000Y-54000000D03*
%TD*%
%TO.P,REF\u002A\u002A,1*%
%TO.N,GND*%
X114000000Y-129000000D03*
%TD*%
%TO.P,REF\u002A\u002A,1*%
%TO.N,GND*%
X124000000Y-134000000D03*
%TD*%
%TO.P,REF\u002A\u002A,1*%
%TO.N,GND*%
X139000000Y-134000000D03*
%TD*%
%TO.P,REF\u002A\u002A,1*%
%TO.N,GND*%
X169000000Y-124000000D03*
%TD*%
%TO.P,REF\u002A\u002A,1*%
%TO.N,GND*%
X134000000Y-114000000D03*
%TD*%
%TO.P,REF\u002A\u002A,1*%
%TO.N,GND*%
X99000000Y-129000000D03*
%TD*%
%TO.P,REF\u002A\u002A,1*%
%TO.N,GND*%
X139000000Y-129000000D03*
%TD*%
%TO.P,REF\u002A\u002A,1*%
%TO.N,GND*%
X104000000Y-79000000D03*
%TD*%
%TO.P,REF\u002A\u002A,1*%
%TO.N,GND*%
X189000000Y-74000000D03*
%TD*%
%TO.P,REF\u002A\u002A,1*%
%TO.N,GND*%
X189000000Y-139000000D03*
%TD*%
%TO.P,REF\u002A\u002A,1*%
%TO.N,GND*%
X104000000Y-74000000D03*
%TD*%
%TO.P,REF\u002A\u002A,1*%
%TO.N,GND*%
X109000000Y-64000000D03*
%TD*%
%TO.P,REF\u002A\u002A,1*%
%TO.N,GND*%
X184000000Y-79000000D03*
%TD*%
%TO.P,REF\u002A\u002A,1*%
%TO.N,GND*%
X99000000Y-54000000D03*
%TD*%
%TO.P,REF\u002A\u002A,1*%
%TO.N,GND*%
X124000000Y-124000000D03*
%TD*%
%TO.P,REF\u002A\u002A,1*%
%TO.N,GND*%
X104000000Y-69000000D03*
%TD*%
%TO.P,REF\u002A\u002A,1*%
%TO.N,GND*%
X179000000Y-94000000D03*
%TD*%
%TO.P,REF\u002A\u002A,1*%
%TO.N,GND*%
X174000000Y-134000000D03*
%TD*%
%TO.P,REF\u002A\u002A,1*%
%TO.N,GND*%
X154000000Y-79000000D03*
%TD*%
%TO.P,REF\u002A\u002A,1*%
%TO.N,GND*%
X194000000Y-64000000D03*
%TD*%
%TO.P,REF\u002A\u002A,1*%
%TO.N,GND*%
X174000000Y-129000000D03*
%TD*%
%TO.P,REF\u002A\u002A,1*%
%TO.N,GND*%
X184000000Y-69000000D03*
%TD*%
%TO.P,REF\u002A\u002A,1*%
%TO.N,GND*%
X109000000Y-49000000D03*
%TD*%
%TO.P,REF\u002A\u002A,1*%
%TO.N,GND*%
X134000000Y-74000000D03*
%TD*%
%TO.P,REF\u002A\u002A,1*%
%TO.N,GND*%
X134000000Y-109000000D03*
%TD*%
%TO.P,REF\u002A\u002A,1*%
%TO.N,GND*%
X124000000Y-99000000D03*
%TD*%
%TO.P,REF\u002A\u002A,1*%
%TO.N,GND*%
X134000000Y-129000000D03*
%TD*%
%TO.P,REF\u002A\u002A,1*%
%TO.N,GND*%
X119000000Y-59000000D03*
%TD*%
%TO.P,REF\u002A\u002A,1*%
%TO.N,GND*%
X129000000Y-129000000D03*
%TD*%
%TO.P,REF\u002A\u002A,1*%
%TO.N,GND*%
X149000000Y-119000000D03*
%TD*%
%TO.P,REF\u002A\u002A,1*%
%TO.N,GND*%
X184000000Y-94000000D03*
%TD*%
%TO.P,REF\u002A\u002A,1*%
%TO.N,GND*%
X124000000Y-104000000D03*
%TD*%
%TO.P,REF\u002A\u002A,1*%
%TO.N,GND*%
X144000000Y-94000000D03*
%TD*%
%TO.P,REF\u002A\u002A,1*%
%TO.N,GND*%
X154000000Y-119000000D03*
%TD*%
%TO.P,REF\u002A\u002A,1*%
%TO.N,GND*%
X134000000Y-54000000D03*
%TD*%
%TO.P,REF\u002A\u002A,1*%
%TO.N,GND*%
X144000000Y-124000000D03*
%TD*%
%TO.P,REF\u002A\u002A,1*%
%TO.N,GND*%
X139000000Y-54000000D03*
%TD*%
%TO.P,REF\u002A\u002A,1*%
%TO.N,GND*%
X139000000Y-99000000D03*
%TD*%
%TO.P,REF\u002A\u002A,1*%
%TO.N,GND*%
X104000000Y-119000000D03*
%TD*%
%TO.P,REF\u002A\u002A,1*%
%TO.N,GND*%
X154000000Y-69000000D03*
%TD*%
%TO.P,REF\u002A\u002A,1*%
%TO.N,GND*%
X159000000Y-64000000D03*
%TD*%
%TO.P,REF\u002A\u002A,1*%
%TO.N,GND*%
X124000000Y-79000000D03*
%TD*%
%TO.P,REF\u002A\u002A,1*%
%TO.N,GND*%
X104000000Y-84000000D03*
%TD*%
%TO.P,REF\u002A\u002A,1*%
%TO.N,GND*%
X194000000Y-84000000D03*
%TD*%
%TO.P,REF\u002A\u002A,1*%
%TO.N,GND*%
X189000000Y-119000000D03*
%TD*%
%TO.P,REF\u002A\u002A,1*%
%TO.N,GND*%
X129000000Y-119000000D03*
%TD*%
%TO.P,REF\u002A\u002A,1*%
%TO.N,GND*%
X109000000Y-129000000D03*
%TD*%
%TO.P,REF\u002A\u002A,1*%
%TO.N,GND*%
X139000000Y-84000000D03*
%TD*%
%TO.P,REF\u002A\u002A,1*%
%TO.N,GND*%
X174000000Y-69000000D03*
%TD*%
%TO.P,REF\u002A\u002A,1*%
%TO.N,GND*%
X164000000Y-59000000D03*
%TD*%
%TO.P,REF\u002A\u002A,1*%
%TO.N,GND*%
X149000000Y-144000000D03*
%TD*%
%TO.P,REF\u002A\u002A,1*%
%TO.N,GND*%
X109000000Y-69000000D03*
%TD*%
%TO.P,REF\u002A\u002A,1*%
%TO.N,GND*%
X149000000Y-124000000D03*
%TD*%
%TO.P,REF\u002A\u002A,1*%
%TO.N,GND*%
X184000000Y-109000000D03*
%TD*%
%TO.P,REF\u002A\u002A,1*%
%TO.N,GND*%
X189000000Y-144000000D03*
%TD*%
%TO.P,REF\u002A\u002A,1*%
%TO.N,GND*%
X184000000Y-49000000D03*
%TD*%
%TO.P,REF\u002A\u002A,1*%
%TO.N,GND*%
X194000000Y-74000000D03*
%TD*%
%TO.P,REF\u002A\u002A,1*%
%TO.N,GND*%
X134000000Y-119000000D03*
%TD*%
%TO.P,REF\u002A\u002A,1*%
%TO.N,GND*%
X149000000Y-79000000D03*
%TD*%
%TO.P,REF\u002A\u002A,1*%
%TO.N,GND*%
X179000000Y-104000000D03*
%TD*%
%TO.P,REF\u002A\u002A,1*%
%TO.N,GND*%
X174000000Y-139000000D03*
%TD*%
%TO.P,REF\u002A\u002A,1*%
%TO.N,GND*%
X189000000Y-94000000D03*
%TD*%
%TO.P,REF\u002A\u002A,1*%
%TO.N,GND*%
X184000000Y-64000000D03*
%TD*%
%TO.P,REF\u002A\u002A,1*%
%TO.N,GND*%
X194000000Y-109000000D03*
%TD*%
%TO.P,REF\u002A\u002A,1*%
%TO.N,GND*%
X119000000Y-99000000D03*
%TD*%
%TO.P,REF\u002A\u002A,1*%
%TO.N,GND*%
X159000000Y-129000000D03*
%TD*%
%TO.P,REF\u002A\u002A,1*%
%TO.N,GND*%
X184000000Y-84000000D03*
%TD*%
%TO.P,REF\u002A\u002A,1*%
%TO.N,GND*%
X189000000Y-134000000D03*
%TD*%
%TO.P,REF\u002A\u002A,1*%
%TO.N,GND*%
X144000000Y-114000000D03*
%TD*%
%TO.P,REF\u002A\u002A,1*%
%TO.N,GND*%
X174000000Y-64000000D03*
%TD*%
%TO.P,REF\u002A\u002A,1*%
%TO.N,GND*%
X144000000Y-64000000D03*
%TD*%
%TO.P,REF\u002A\u002A,1*%
%TO.N,GND*%
X164000000Y-114000000D03*
%TD*%
%TO.P,REF\u002A\u002A,1*%
%TO.N,GND*%
X114000000Y-104000000D03*
%TD*%
%TO.P,REF\u002A\u002A,1*%
%TO.N,GND*%
X189000000Y-99000000D03*
%TD*%
%TO.P,REF\u002A\u002A,1*%
%TO.N,GND*%
X159000000Y-59000000D03*
%TD*%
%TO.P,REF\u002A\u002A,1*%
%TO.N,GND*%
X139000000Y-89000000D03*
%TD*%
%TO.P,REF\u002A\u002A,1*%
%TO.N,GND*%
X104000000Y-124000000D03*
%TD*%
%TO.P,REF\u002A\u002A,1*%
%TO.N,GND*%
X99000000Y-139000000D03*
%TD*%
%TO.P,REF\u002A\u002A,1*%
%TO.N,GND*%
X104000000Y-49000000D03*
%TD*%
%TO.P,REF\u002A\u002A,1*%
%TO.N,GND*%
X149000000Y-89000000D03*
%TD*%
%TO.P,REF\u002A\u002A,1*%
%TO.N,GND*%
X159000000Y-124000000D03*
%TD*%
%TO.P,REF\u002A\u002A,1*%
%TO.N,GND*%
X139000000Y-139000000D03*
%TD*%
%TO.P,REF\u002A\u002A,1*%
%TO.N,GND*%
X169000000Y-89000000D03*
%TD*%
%TO.P,REF\u002A\u002A,1*%
%TO.N,GND*%
X159000000Y-139000000D03*
%TD*%
%TO.P,REF\u002A\u002A,1*%
%TO.N,GND*%
X124000000Y-109000000D03*
%TD*%
%TO.P,REF\u002A\u002A,1*%
%TO.N,GND*%
X134000000Y-69000000D03*
%TD*%
%TO.P,REF\u002A\u002A,1*%
%TO.N,GND*%
X109000000Y-94000000D03*
%TD*%
%TO.P,REF\u002A\u002A,1*%
%TO.N,GND*%
X169000000Y-109000000D03*
%TD*%
%TO.P,REF\u002A\u002A,1*%
%TO.N,GND*%
X129000000Y-64000000D03*
%TD*%
%TO.P,REF\u002A\u002A,1*%
%TO.N,GND*%
X139000000Y-144000000D03*
%TD*%
%TO.P,REF\u002A\u002A,1*%
%TO.N,GND*%
X129000000Y-109000000D03*
%TD*%
%TO.P,REF\u002A\u002A,1*%
%TO.N,GND*%
X99000000Y-89000000D03*
%TD*%
%TO.P,REF\u002A\u002A,1*%
%TO.N,GND*%
X119000000Y-124000000D03*
%TD*%
%TO.P,REF\u002A\u002A,1*%
%TO.N,GND*%
X149000000Y-134000000D03*
%TD*%
%TO.P,REF\u002A\u002A,1*%
%TO.N,GND*%
X179000000Y-109000000D03*
%TD*%
%TO.P,REF\u002A\u002A,1*%
%TO.N,GND*%
X169000000Y-144000000D03*
%TD*%
%TO.P,REF\u002A\u002A,1*%
%TO.N,GND*%
X184000000Y-124000000D03*
%TD*%
%TO.P,REF\u002A\u002A,1*%
%TO.N,GND*%
X144000000Y-144000000D03*
%TD*%
%TO.P,REF\u002A\u002A,1*%
%TO.N,GND*%
X149000000Y-69000000D03*
%TD*%
%TO.P,REF\u002A\u002A,1*%
%TO.N,GND*%
X174000000Y-59000000D03*
%TD*%
%TO.P,REF\u002A\u002A,1*%
%TO.N,GND*%
X169000000Y-99000000D03*
%TD*%
%TO.P,REF\u002A\u002A,1*%
%TO.N,GND*%
X119000000Y-129000000D03*
%TD*%
%TO.P,REF\u002A\u002A,1*%
%TO.N,GND*%
X119000000Y-94000000D03*
%TD*%
%TO.P,REF\u002A\u002A,1*%
%TO.N,GND*%
X149000000Y-84000000D03*
%TD*%
%TO.P,REF\u002A\u002A,1*%
%TO.N,GND*%
X139000000Y-59000000D03*
%TD*%
%TO.P,REF\u002A\u002A,1*%
%TO.N,GND*%
X179000000Y-49000000D03*
%TD*%
%TO.P,REF\u002A\u002A,1*%
%TO.N,GND*%
X184000000Y-129000000D03*
%TD*%
%TO.P,REF\u002A\u002A,1*%
%TO.N,GND*%
X144000000Y-79000000D03*
%TD*%
%TO.P,REF\u002A\u002A,1*%
%TO.N,GND*%
X119000000Y-144000000D03*
%TD*%
%TO.P,REF\u002A\u002A,1*%
%TO.N,GND*%
X124000000Y-89000000D03*
%TD*%
%TO.P,REF\u002A\u002A,1*%
%TO.N,GND*%
X154000000Y-49000000D03*
%TD*%
%TO.P,REF\u002A\u002A,1*%
%TO.N,GND*%
X154000000Y-99000000D03*
%TD*%
%TO.P,REF\u002A\u002A,1*%
%TO.N,GND*%
X144000000Y-139000000D03*
%TD*%
%TO.P,REF\u002A\u002A,1*%
%TO.N,GND*%
X164000000Y-69000000D03*
%TD*%
%TO.P,REF\u002A\u002A,1*%
%TO.N,GND*%
X119000000Y-49000000D03*
%TD*%
%TO.P,REF\u002A\u002A,1*%
%TO.N,GND*%
X124000000Y-74000000D03*
%TD*%
%TO.P,REF\u002A\u002A,1*%
%TO.N,GND*%
X154000000Y-139000000D03*
%TD*%
%TO.P,REF\u002A\u002A,1*%
%TO.N,GND*%
X194000000Y-104000000D03*
%TD*%
%TO.P,REF\u002A\u002A,1*%
%TO.N,GND*%
X114000000Y-109000000D03*
%TD*%
%TO.P,REF\u002A\u002A,1*%
%TO.N,GND*%
X109000000Y-124000000D03*
%TD*%
%TO.P,REF\u002A\u002A,1*%
%TO.N,GND*%
X109000000Y-104000000D03*
%TD*%
%TO.P,REF\u002A\u002A,1*%
%TO.N,GND*%
X154000000Y-59000000D03*
%TD*%
%TO.P,REF\u002A\u002A,1*%
%TO.N,GND*%
X119000000Y-109000000D03*
%TD*%
%TO.P,REF\u002A\u002A,1*%
%TO.N,GND*%
X184000000Y-89000000D03*
%TD*%
%TO.P,REF\u002A\u002A,1*%
%TO.N,GND*%
X159000000Y-94000000D03*
%TD*%
%TO.P,REF\u002A\u002A,1*%
%TO.N,GND*%
X189000000Y-79000000D03*
%TD*%
%TO.P,REF\u002A\u002A,1*%
%TO.N,GND*%
X114000000Y-134000000D03*
%TD*%
%TO.P,REF\u002A\u002A,1*%
%TO.N,GND*%
X169000000Y-134000000D03*
%TD*%
%TO.P,REF\u002A\u002A,1*%
%TO.N,GND*%
X139000000Y-124000000D03*
%TD*%
%TO.P,REF\u002A\u002A,1*%
%TO.N,GND*%
X114000000Y-74000000D03*
%TD*%
%TO.P,REF\u002A\u002A,1*%
%TO.N,GND*%
X119000000Y-84000000D03*
%TD*%
%TO.P,REF\u002A\u002A,1*%
%TO.N,GND*%
X179000000Y-129000000D03*
%TD*%
%TO.P,REF\u002A\u002A,1*%
%TO.N,GND*%
X99000000Y-84000000D03*
%TD*%
%TO.P,REF\u002A\u002A,1*%
%TO.N,GND*%
X194000000Y-99000000D03*
%TD*%
%TO.P,REF\u002A\u002A,1*%
%TO.N,GND*%
X174000000Y-119000000D03*
%TD*%
%TO.P,REF\u002A\u002A,1*%
%TO.N,GND*%
X189000000Y-49000000D03*
%TD*%
%TO.P,REF\u002A\u002A,1*%
%TO.N,GND*%
X169000000Y-69000000D03*
%TD*%
%TO.P,REF\u002A\u002A,1*%
%TO.N,GND*%
X164000000Y-89000000D03*
%TD*%
%TO.P,REF\u002A\u002A,1*%
%TO.N,GND*%
X184000000Y-74000000D03*
%TD*%
%TO.P,REF\u002A\u002A,1*%
%TO.N,GND*%
X139000000Y-114000000D03*
%TD*%
%TO.P,REF\u002A\u002A,1*%
%TO.N,GND*%
X149000000Y-104000000D03*
%TD*%
%TO.P,REF\u002A\u002A,1*%
%TO.N,GND*%
X169000000Y-114000000D03*
%TD*%
%TO.P,REF\u002A\u002A,1*%
%TO.N,GND*%
X109000000Y-79000000D03*
%TD*%
%TO.P,REF\u002A\u002A,1*%
%TO.N,GND*%
X159000000Y-144000000D03*
%TD*%
%TO.P,REF\u002A\u002A,1*%
%TO.N,GND*%
X159000000Y-119000000D03*
%TD*%
%TO.P,REF\u002A\u002A,1*%
%TO.N,GND*%
X194000000Y-119000000D03*
%TD*%
%TO.P,REF\u002A\u002A,1*%
%TO.N,GND*%
X109000000Y-144000000D03*
%TD*%
%TO.P,REF\u002A\u002A,1*%
%TO.N,GND*%
X99000000Y-119000000D03*
%TD*%
%TO.P,REF\u002A\u002A,1*%
%TO.N,GND*%
X164000000Y-99000000D03*
%TD*%
%TO.P,REF\u002A\u002A,1*%
%TO.N,GND*%
X119000000Y-74000000D03*
%TD*%
%TO.P,REF\u002A\u002A,1*%
%TO.N,GND*%
X179000000Y-69000000D03*
%TD*%
%TO.P,REF\u002A\u002A,1*%
%TO.N,GND*%
X174000000Y-94000000D03*
%TD*%
%TO.P,REF\u002A\u002A,1*%
%TO.N,GND*%
X164000000Y-119000000D03*
%TD*%
%TO.P,REF\u002A\u002A,1*%
%TO.N,GND*%
X159000000Y-69000000D03*
%TD*%
%TO.P,REF\u002A\u002A,1*%
%TO.N,GND*%
X134000000Y-99000000D03*
%TD*%
%TO.P,REF\u002A\u002A,1*%
%TO.N,GND*%
X114000000Y-119000000D03*
%TD*%
%TO.P,REF\u002A\u002A,1*%
%TO.N,GND*%
X114000000Y-124000000D03*
%TD*%
%TO.P,REF\u002A\u002A,1*%
%TO.N,GND*%
X169000000Y-64000000D03*
%TD*%
%TO.P,REF\u002A\u002A,1*%
%TO.N,GND*%
X174000000Y-84000000D03*
%TD*%
%TO.P,REF\u002A\u002A,1*%
%TO.N,GND*%
X164000000Y-64000000D03*
%TD*%
%TO.P,REF\u002A\u002A,1*%
%TO.N,GND*%
X104000000Y-104000000D03*
%TD*%
%TO.P,REF\u002A\u002A,1*%
%TO.N,GND*%
X194000000Y-94000000D03*
%TD*%
%TO.P,REF\u002A\u002A,1*%
%TO.N,GND*%
X184000000Y-54000000D03*
%TD*%
%TO.P,REF\u002A\u002A,1*%
%TO.N,GND*%
X99000000Y-134000000D03*
%TD*%
%TO.P,REF\u002A\u002A,1*%
%TO.N,GND*%
X174000000Y-104000000D03*
%TD*%
%TO.P,REF\u002A\u002A,1*%
%TO.N,GND*%
X194000000Y-69000000D03*
%TD*%
%TO.P,REF\u002A\u002A,1*%
%TO.N,GND*%
X114000000Y-59000000D03*
%TD*%
%TO.P,REF\u002A\u002A,1*%
%TO.N,GND*%
X164000000Y-54000000D03*
%TD*%
%TO.P,REF\u002A\u002A,1*%
%TO.N,GND*%
X174000000Y-54000000D03*
%TD*%
%TO.P,REF\u002A\u002A,1*%
%TO.N,GND*%
X109000000Y-74000000D03*
%TD*%
%TO.P,REF\u002A\u002A,1*%
%TO.N,GND*%
X159000000Y-104000000D03*
%TD*%
%TO.P,REF\u002A\u002A,1*%
%TO.N,GND*%
X109000000Y-114000000D03*
%TD*%
%TO.P,REF\u002A\u002A,1*%
%TO.N,GND*%
X109000000Y-59000000D03*
%TD*%
%TO.P,REF\u002A\u002A,1*%
%TO.N,GND*%
X184000000Y-134000000D03*
%TD*%
%TO.P,REF\u002A\u002A,1*%
%TO.N,GND*%
X134000000Y-49000000D03*
%TD*%
%TO.P,REF\u002A\u002A,1*%
%TO.N,GND*%
X149000000Y-74000000D03*
%TD*%
%TO.P,REF\u002A\u002A,1*%
%TO.N,GND*%
X124000000Y-94000000D03*
%TD*%
%TO.P,REF\u002A\u002A,1*%
%TO.N,GND*%
X119000000Y-134000000D03*
%TD*%
%TO.P,REF\u002A\u002A,1*%
%TO.N,GND*%
X149000000Y-139000000D03*
%TD*%
%TO.P,REF\u002A\u002A,1*%
%TO.N,GND*%
X179000000Y-79000000D03*
%TD*%
%TO.P,REF\u002A\u002A,1*%
%TO.N,GND*%
X179000000Y-54000000D03*
%TD*%
%TO.P,REF\u002A\u002A,1*%
%TO.N,GND*%
X194000000Y-54000000D03*
%TD*%
%TO.P,REF\u002A\u002A,1*%
%TO.N,GND*%
X129000000Y-74000000D03*
%TD*%
%TO.P,REF\u002A\u002A,1*%
%TO.N,GND*%
X189000000Y-104000000D03*
%TD*%
%TO.P,REF\u002A\u002A,1*%
%TO.N,GND*%
X159000000Y-79000000D03*
%TD*%
%TO.P,REF\u002A\u002A,1*%
%TO.N,GND*%
X164000000Y-124000000D03*
%TD*%
%TO.P,REF\u002A\u002A,1*%
%TO.N,GND*%
X194000000Y-134000000D03*
%TD*%
%TO.P,REF\u002A\u002A,1*%
%TO.N,GND*%
X179000000Y-119000000D03*
%TD*%
%TO.P,REF\u002A\u002A,1*%
%TO.N,GND*%
X169000000Y-94000000D03*
%TD*%
%TO.P,REF\u002A\u002A,1*%
%TO.N,GND*%
X104000000Y-54000000D03*
%TD*%
%TO.P,REF\u002A\u002A,1*%
%TO.N,GND*%
X134000000Y-94000000D03*
%TD*%
%TO.P,REF\u002A\u002A,1*%
%TO.N,GND*%
X159000000Y-109000000D03*
%TD*%
%TO.P,REF\u002A\u002A,1*%
%TO.N,GND*%
X124000000Y-84000000D03*
%TD*%
%TO.P,REF\u002A\u002A,1*%
%TO.N,GND*%
X119000000Y-104000000D03*
%TD*%
%TO.P,REF\u002A\u002A,1*%
%TO.N,GND*%
X114000000Y-89000000D03*
%TD*%
%TO.P,REF\u002A\u002A,1*%
%TO.N,GND*%
X144000000Y-89000000D03*
%TD*%
%TO.P,REF\u002A\u002A,1*%
%TO.N,GND*%
X134000000Y-59000000D03*
%TD*%
%TO.P,REF\u002A\u002A,1*%
%TO.N,GND*%
X184000000Y-114000000D03*
%TD*%
%TO.P,REF\u002A\u002A,1*%
%TO.N,GND*%
X174000000Y-79000000D03*
%TD*%
%TO.P,REF\u002A\u002A,1*%
%TO.N,GND*%
X179000000Y-124000000D03*
%TD*%
%TO.P,REF\u002A\u002A,1*%
%TO.N,GND*%
X144000000Y-69000000D03*
%TD*%
%TO.P,REF\u002A\u002A,1*%
%TO.N,GND*%
X144000000Y-134000000D03*
%TD*%
%TO.P,REF\u002A\u002A,1*%
%TO.N,GND*%
X159000000Y-114000000D03*
%TD*%
%TO.P,REF\u002A\u002A,1*%
%TO.N,GND*%
X174000000Y-124000000D03*
%TD*%
%TO.P,REF\u002A\u002A,1*%
%TO.N,GND*%
X134000000Y-124000000D03*
%TD*%
%TO.P,REF\u002A\u002A,1*%
%TO.N,GND*%
X184000000Y-144000000D03*
%TD*%
%TO.P,REF\u002A\u002A,1*%
%TO.N,GND*%
X194000000Y-114000000D03*
%TD*%
%TO.P,REF\u002A\u002A,1*%
%TO.N,GND*%
X119000000Y-89000000D03*
%TD*%
%TO.P,REF\u002A\u002A,1*%
%TO.N,GND*%
X169000000Y-104000000D03*
%TD*%
%TO.P,REF\u002A\u002A,1*%
%TO.N,GND*%
X124000000Y-54000000D03*
%TD*%
%TO.P,REF\u002A\u002A,1*%
%TO.N,GND*%
X154000000Y-104000000D03*
%TD*%
%TO.P,REF\u002A\u002A,1*%
%TO.N,GND*%
X179000000Y-114000000D03*
%TD*%
%TO.P,REF\u002A\u002A,1*%
%TO.N,GND*%
X124000000Y-69000000D03*
%TD*%
%TO.P,REF\u002A\u002A,1*%
%TO.N,GND*%
X129000000Y-59000000D03*
%TD*%
%TO.P,REF\u002A\u002A,1*%
%TO.N,GND*%
X194000000Y-129000000D03*
%TD*%
%TO.P,REF\u002A\u002A,1*%
%TO.N,GND*%
X119000000Y-139000000D03*
%TD*%
%TO.P,REF\u002A\u002A,1*%
%TO.N,GND*%
X154000000Y-129000000D03*
%TD*%
%TO.P,REF\u002A\u002A,1*%
%TO.N,GND*%
X194000000Y-89000000D03*
%TD*%
%TO.P,REF\u002A\u002A,1*%
%TO.N,GND*%
X114000000Y-54000000D03*
%TD*%
%TO.P,REF\u002A\u002A,1*%
%TO.N,GND*%
X174000000Y-74000000D03*
%TD*%
%TO.P,REF\u002A\u002A,1*%
%TO.N,GND*%
X119000000Y-119000000D03*
%TD*%
%TO.P,REF\u002A\u002A,1*%
%TO.N,GND*%
X174000000Y-109000000D03*
%TD*%
%TO.P,REF\u002A\u002A,1*%
%TO.N,GND*%
X104000000Y-64000000D03*
%TD*%
%TO.P,REF\u002A\u002A,1*%
%TO.N,GND*%
X104000000Y-129000000D03*
%TD*%
%TO.P,REF\u002A\u002A,1*%
%TO.N,GND*%
X119000000Y-79000000D03*
%TD*%
%TO.P,REF\u002A\u002A,1*%
%TO.N,GND*%
X194000000Y-59000000D03*
%TD*%
%TO.P,REF\u002A\u002A,1*%
%TO.N,GND*%
X159000000Y-89000000D03*
%TD*%
%TO.P,REF\u002A\u002A,1*%
%TO.N,GND*%
X154000000Y-114000000D03*
%TD*%
%TO.P,REF\u002A\u002A,1*%
%TO.N,GND*%
X169000000Y-129000000D03*
%TD*%
%TO.P,REF\u002A\u002A,1*%
%TO.N,GND*%
X159000000Y-99000000D03*
%TD*%
%TO.P,REF\u002A\u002A,1*%
%TO.N,GND*%
X114000000Y-49000000D03*
%TD*%
%TO.P,REF\u002A\u002A,1*%
%TO.N,GND*%
X174000000Y-49000000D03*
%TD*%
%TO.P,REF\u002A\u002A,1*%
%TO.N,GND*%
X154000000Y-94000000D03*
%TD*%
%TO.P,REF\u002A\u002A,1*%
%TO.N,GND*%
X169000000Y-119000000D03*
%TD*%
%TO.P,REF\u002A\u002A,1*%
%TO.N,GND*%
X194000000Y-49000000D03*
%TD*%
%TO.P,REF\u002A\u002A,1*%
%TO.N,GND*%
X129000000Y-54000000D03*
%TD*%
%TO.P,REF\u002A\u002A,1*%
%TO.N,GND*%
X184000000Y-59000000D03*
%TD*%
%TO.P,REF\u002A\u002A,1*%
%TO.N,GND*%
X179000000Y-74000000D03*
%TD*%
%TO.P,REF\u002A\u002A,1*%
%TO.N,GND*%
X99000000Y-79000000D03*
%TD*%
%TO.P,REF\u002A\u002A,1*%
%TO.N,GND*%
X114000000Y-139000000D03*
%TD*%
%TO.P,REF\u002A\u002A,1*%
%TO.N,GND*%
X189000000Y-109000000D03*
%TD*%
%TO.P,REF\u002A\u002A,1*%
%TO.N,GND*%
X114000000Y-84000000D03*
%TD*%
%TO.P,REF\u002A\u002A,1*%
%TO.N,GND*%
X109000000Y-119000000D03*
%TD*%
%TO.P,REF\u002A\u002A,1*%
%TO.N,GND*%
X104000000Y-109000000D03*
%TD*%
%TO.P,REF\u002A\u002A,1*%
%TO.N,GND*%
X159000000Y-74000000D03*
%TD*%
%TO.P,REF\u002A\u002A,1*%
%TO.N,GND*%
X129000000Y-114000000D03*
%TD*%
%TO.P,REF\u002A\u002A,1*%
%TO.N,GND*%
X169000000Y-84000000D03*
%TD*%
%TO.P,REF\u002A\u002A,1*%
%TO.N,GND*%
X174000000Y-99000000D03*
%TD*%
%TO.P,REF\u002A\u002A,1*%
%TO.N,GND*%
X99000000Y-94000000D03*
%TD*%
%TO.P,REF\u002A\u002A,1*%
%TO.N,GND*%
X154000000Y-144000000D03*
%TD*%
%TO.P,REF\u002A\u002A,1*%
%TO.N,GND*%
X124000000Y-64000000D03*
%TD*%
%TO.P,REF\u002A\u002A,1*%
%TO.N,GND*%
X144000000Y-109000000D03*
%TD*%
%TO.P,REF\u002A\u002A,1*%
%TO.N,GND*%
X134000000Y-139000000D03*
%TD*%
%TO.P,REF\u002A\u002A,1*%
%TO.N,GND*%
X129000000Y-104000000D03*
%TD*%
%TO.P,REF\u002A\u002A,1*%
%TO.N,GND*%
X149000000Y-99000000D03*
%TD*%
%TO.P,REF\u002A\u002A,1*%
%TO.N,GND*%
X119000000Y-64000000D03*
%TD*%
%TO.P,REF\u002A\u002A,1*%
%TO.N,GND*%
X149000000Y-109000000D03*
%TD*%
%TO.P,REF\u002A\u002A,1*%
%TO.N,GND*%
X169000000Y-59000000D03*
%TD*%
%TO.P,REF\u002A\u002A,1*%
%TO.N,GND*%
X154000000Y-124000000D03*
%TD*%
%TO.P,REF\u002A\u002A,1*%
%TO.N,GND*%
X99000000Y-99000000D03*
%TD*%
%TO.P,REF\u002A\u002A,1*%
%TO.N,GND*%
X114000000Y-114000000D03*
%TD*%
%TO.P,REF\u002A\u002A,1*%
%TO.N,GND*%
X114000000Y-144000000D03*
%TD*%
%TO.P,REF\u002A\u002A,1*%
%TO.N,GND*%
X139000000Y-119000000D03*
%TD*%
%TO.P,REF\u002A\u002A,1*%
%TO.N,GND*%
X129000000Y-49000000D03*
%TD*%
%TO.P,REF\u002A\u002A,1*%
%TO.N,GND*%
X129000000Y-124000000D03*
%TD*%
%TO.P,REF\u002A\u002A,1*%
%TO.N,GND*%
X134000000Y-104000000D03*
%TD*%
%TO.P,REF\u002A\u002A,1*%
%TO.N,GND*%
X129000000Y-99000000D03*
%TD*%
%TO.P,REF\u002A\u002A,1*%
%TO.N,GND*%
X129000000Y-94000000D03*
%TD*%
%TO.P,REF\u002A\u002A,1*%
%TO.N,GND*%
X179000000Y-139000000D03*
%TD*%
%TO.P,REF\u002A\u002A,1*%
%TO.N,GND*%
X99000000Y-69000000D03*
%TD*%
%TO.P,REF\u002A\u002A,1*%
%TO.N,GND*%
X149000000Y-64000000D03*
%TD*%
%TO.P,REF\u002A\u002A,1*%
%TO.N,GND*%
X164000000Y-129000000D03*
%TD*%
%TO.P,REF\u002A\u002A,1*%
%TO.N,GND*%
X164000000Y-84000000D03*
%TD*%
%TO.P,REF\u002A\u002A,1*%
%TO.N,GND*%
X149000000Y-59000000D03*
%TD*%
%TO.P,REF\u002A\u002A,1*%
%TO.N,GND*%
X109000000Y-109000000D03*
%TD*%
%TO.P,REF\u002A\u002A,1*%
%TO.N,GND*%
X189000000Y-54000000D03*
%TD*%
%TO.P,REF\u002A\u002A,1*%
%TO.N,GND*%
X164000000Y-49000000D03*
%TD*%
%TO.P,REF\u002A\u002A,1*%
%TO.N,GND*%
X174000000Y-114000000D03*
%TD*%
%TO.P,REF\u002A\u002A,1*%
%TO.N,GND*%
X99000000Y-59000000D03*
%TD*%
%TO.P,REF\u002A\u002A,1*%
%TO.N,GND*%
X124000000Y-49000000D03*
%TD*%
%TO.P,REF\u002A\u002A,1*%
%TO.N,GND*%
X134000000Y-134000000D03*
%TD*%
%TO.P,REF\u002A\u002A,1*%
%TO.N,GND*%
X149000000Y-114000000D03*
%TD*%
%TO.P,REF\u002A\u002A,1*%
%TO.N,GND*%
X139000000Y-104000000D03*
%TD*%
%TO.P,REF\u002A\u002A,1*%
%TO.N,GND*%
X114000000Y-99000000D03*
%TD*%
%TO.P,REF\u002A\u002A,1*%
%TO.N,GND*%
X139000000Y-79000000D03*
%TD*%
%TO.P,REF\u002A\u002A,1*%
%TO.N,GND*%
X99000000Y-109000000D03*
%TD*%
%TO.P,REF\u002A\u002A,1*%
%TO.N,GND*%
X164000000Y-144000000D03*
%TD*%
%TO.P,REF\u002A\u002A,1*%
%TO.N,GND*%
X154000000Y-54000000D03*
%TD*%
%TO.P,REF\u002A\u002A,1*%
%TO.N,GND*%
X144000000Y-99000000D03*
%TD*%
%TO.P,REF\u002A\u002A,1*%
%TO.N,GND*%
X154000000Y-64000000D03*
%TD*%
%TO.P,REF\u002A\u002A,1*%
%TO.N,GND*%
X139000000Y-74000000D03*
%TD*%
%TO.P,REF\u002A\u002A,1*%
%TO.N,GND*%
X124000000Y-139000000D03*
%TD*%
%TO.P,REF\u002A\u002A,1*%
%TO.N,GND*%
X134000000Y-144000000D03*
%TD*%
%TO.P,REF\u002A\u002A,1*%
%TO.N,GND*%
X124000000Y-114000000D03*
%TD*%
%TO.P,REF\u002A\u002A,1*%
%TO.N,GND*%
X129000000Y-69000000D03*
%TD*%
%TO.P,REF\u002A\u002A,1*%
%TO.N,GND*%
X114000000Y-94000000D03*
%TD*%
%TO.P,REF\u002A\u002A,1*%
%TO.N,GND*%
X104000000Y-59000000D03*
%TD*%
%TO.P,REF\u002A\u002A,1*%
%TO.N,GND*%
X119000000Y-54000000D03*
%TD*%
%TO.P,REF\u002A\u002A,1*%
%TO.N,GND*%
X129000000Y-144000000D03*
%TD*%
%TO.P,REF\u002A\u002A,1*%
%TO.N,GND*%
X169000000Y-139000000D03*
%TD*%
%TO.P,REF\u002A\u002A,1*%
%TO.N,GND*%
X129000000Y-134000000D03*
%TD*%
%TO.P,REF\u002A\u002A,1*%
%TO.N,GND*%
X99000000Y-104000000D03*
%TD*%
%TO.P,REF\u002A\u002A,1*%
%TO.N,GND*%
X179000000Y-89000000D03*
%TD*%
%TO.P,REF\u002A\u002A,1*%
%TO.N,GND*%
X104000000Y-114000000D03*
%TD*%
%TO.P,REF\u002A\u002A,1*%
%TO.N,GND*%
X159000000Y-134000000D03*
%TD*%
%TO.P,REF\u002A\u002A,1*%
%TO.N,GND*%
X104000000Y-89000000D03*
%TD*%
%TO.P,REF\u002A\u002A,1*%
%TO.N,GND*%
X164000000Y-79000000D03*
%TD*%
%TO.P,REF\u002A\u002A,1*%
%TO.N,GND*%
X109000000Y-99000000D03*
%TD*%
%TO.P,REF\u002A\u002A,1*%
%TO.N,GND*%
X144000000Y-104000000D03*
%TD*%
%TO.P,REF\u002A\u002A,1*%
%TO.N,GND*%
X164000000Y-109000000D03*
%TD*%
%TO.P,REF\u002A\u002A,1*%
%TO.N,GND*%
X129000000Y-79000000D03*
%TD*%
%TO.P,REF\u002A\u002A,1*%
%TO.N,GND*%
X114000000Y-69000000D03*
%TD*%
%TO.P,REF\u002A\u002A,1*%
%TO.N,GND*%
X169000000Y-79000000D03*
%TD*%
%TO.P,REF\u002A\u002A,1*%
%TO.N,GND*%
X139000000Y-64000000D03*
%TD*%
%TO.P,REF\u002A\u002A,1*%
%TO.N,GND*%
X139000000Y-69000000D03*
%TD*%
%TO.P,REF\u002A\u002A,1*%
%TO.N,GND*%
X164000000Y-139000000D03*
%TD*%
%TO.P,REF\u002A\u002A,1*%
%TO.N,GND*%
X154000000Y-74000000D03*
%TD*%
%TO.P,REF\u002A\u002A,1*%
%TO.N,GND*%
X189000000Y-59000000D03*
%TD*%
%TO.P,REF\u002A\u002A,1*%
%TO.N,GND*%
X164000000Y-134000000D03*
%TD*%
%TO.P,REF\u002A\u002A,1*%
%TO.N,GND*%
X149000000Y-94000000D03*
%TD*%
%TO.P,REF\u002A\u002A,1*%
%TO.N,GND*%
X109000000Y-54000000D03*
%TD*%
%TO.P,REF\u002A\u002A,1*%
%TO.N,GND*%
X144000000Y-129000000D03*
%TD*%
%TO.P,REF\u002A\u002A,1*%
%TO.N,GND*%
X189000000Y-84000000D03*
%TD*%
%TO.P,REF\u002A\u002A,1*%
%TO.N,GND*%
X184000000Y-119000000D03*
%TD*%
%TO.P,REF\u002A\u002A,1*%
%TO.N,GND*%
X159000000Y-49000000D03*
%TD*%
%TO.P,REF\u002A\u002A,1*%
%TO.N,GND*%
X174000000Y-89000000D03*
%TD*%
%TO.P,REF\u002A\u002A,1*%
%TO.N,GND*%
X124000000Y-119000000D03*
%TD*%
%TO.P,REF\u002A\u002A,1*%
%TO.N,GND*%
X179000000Y-144000000D03*
%TD*%
%TO.P,REF\u002A\u002A,1*%
%TO.N,GND*%
X189000000Y-114000000D03*
%TD*%
%TO.P,REF\u002A\u002A,1*%
%TO.N,GND*%
X134000000Y-64000000D03*
%TD*%
%TO.P,REF\u002A\u002A,1*%
%TO.N,GND*%
X179000000Y-59000000D03*
%TD*%
%TO.P,REF\u002A\u002A,1*%
%TO.N,GND*%
X114000000Y-64000000D03*
%TD*%
%TO.P,REF\u002A\u002A,1*%
%TO.N,GND*%
X119000000Y-69000000D03*
%TD*%
%TO.P,REF\u002A\u002A,1*%
%TO.N,GND*%
X149000000Y-129000000D03*
%TD*%
%TO.P,REF\u002A\u002A,1*%
%TO.N,GND*%
X109000000Y-84000000D03*
%TD*%
%TO.P,REF\u002A\u002A,1*%
%TO.N,GND*%
X139000000Y-109000000D03*
%TD*%
%TO.P,REF\u002A\u002A,1*%
%TO.N,GND*%
X194000000Y-139000000D03*
%TD*%
%TO.P,REF\u002A\u002A,1*%
%TO.N,GND*%
X114000000Y-79000000D03*
%TD*%
%TO.P,REF\u002A\u002A,1*%
%TO.N,GND*%
X139000000Y-49000000D03*
%TD*%
%TO.P,REF\u002A\u002A,1*%
%TO.N,GND*%
X164000000Y-74000000D03*
%TD*%
%TO.P,REF\u002A\u002A,1*%
%TO.N,GND*%
X99000000Y-114000000D03*
%TD*%
%TO.P,REF\u002A\u002A,1*%
%TO.N,GND*%
X189000000Y-69000000D03*
%TD*%
%TO.P,REF\u002A\u002A,1*%
%TO.N,GND*%
X189000000Y-129000000D03*
%TD*%
%TO.P,REF\u002A\u002A,1*%
%TO.N,GND*%
X129000000Y-84000000D03*
%TD*%
%TO.P,REF\u002A\u002A,1*%
%TO.N,GND*%
X169000000Y-49000000D03*
%TD*%
%TO.P,REF\u002A\u002A,1*%
%TO.N,GND*%
X154000000Y-89000000D03*
%TD*%
%TO.P,REF\u002A\u002A,1*%
%TO.N,GND*%
X194000000Y-79000000D03*
%TD*%
%TO.P,REF\u002A\u002A,1*%
%TO.N,GND*%
X129000000Y-139000000D03*
%TD*%
%TO.P,REF\u002A\u002A,1*%
%TO.N,GND*%
X124000000Y-144000000D03*
%TD*%
%TO.P,REF\u002A\u002A,1*%
%TO.N,GND*%
X144000000Y-49000000D03*
%TD*%
%TO.P,REF\u002A\u002A,1*%
%TO.N,GND*%
X179000000Y-64000000D03*
%TD*%
%TO.P,REF\u002A\u002A,1*%
%TO.N,GND*%
X159000000Y-54000000D03*
%TD*%
%TO.P,REF\u002A\u002A,1*%
%TO.N,GND*%
X179000000Y-84000000D03*
%TD*%
D11*
%TO.N,GND*%
X170000000Y-107000000D03*
X142000000Y-102000000D03*
X167000000Y-123000000D03*
X193000000Y-141000000D03*
X156000000Y-124000000D03*
X171000000Y-127000000D03*
X131000000Y-51000000D03*
X172000000Y-133000000D03*
X136000000Y-64000000D03*
X145000000Y-142000000D03*
X152000000Y-91000000D03*
X120000000Y-52000000D03*
X147000000Y-72000000D03*
X193000000Y-126000000D03*
X189000000Y-81000000D03*
X181000000Y-83000000D03*
X162000000Y-120000000D03*
X132000000Y-115000000D03*
X119000000Y-96000000D03*
X164000000Y-132000000D03*
X101000000Y-91000000D03*
X99000000Y-126000000D03*
X159000000Y-72000000D03*
X153000000Y-86000000D03*
X113000000Y-71000000D03*
X122000000Y-92000000D03*
X100000000Y-66000000D03*
X98000000Y-77000000D03*
X114000000Y-102000000D03*
X149000000Y-107000000D03*
X121000000Y-130000000D03*
X142000000Y-117000000D03*
X101000000Y-48000000D03*
X136000000Y-83000000D03*
X112000000Y-93000000D03*
X151000000Y-64000000D03*
X127000000Y-96000000D03*
X168000000Y-77000000D03*
X127000000Y-131000000D03*
X115000000Y-117000000D03*
X113000000Y-97000000D03*
X147000000Y-106000000D03*
X145000000Y-96000000D03*
X121000000Y-100000000D03*
X135000000Y-66000000D03*
X130000000Y-112000000D03*
X172000000Y-79000000D03*
X155000000Y-127000000D03*
X186000000Y-79000000D03*
X187000000Y-105000000D03*
X135000000Y-111000000D03*
X132000000Y-65000000D03*
X126000000Y-130000000D03*
X98000000Y-96000000D03*
X172000000Y-110000000D03*
X176000000Y-50000000D03*
X181000000Y-82000000D03*
X115000000Y-62000000D03*
X160000000Y-121000000D03*
X146000000Y-117000000D03*
X154000000Y-132000000D03*
X101000000Y-67000000D03*
X128000000Y-136000000D03*
X120000000Y-141000000D03*
X161000000Y-110000000D03*
X164000000Y-87000000D03*
X187000000Y-91000000D03*
X177000000Y-111000000D03*
X187000000Y-66000000D03*
X147000000Y-71000000D03*
X141000000Y-55000000D03*
X182000000Y-132000000D03*
X127000000Y-92000000D03*
X117000000Y-127000000D03*
X178000000Y-81000000D03*
X148000000Y-136000000D03*
X142000000Y-145000000D03*
X111000000Y-89000000D03*
X171000000Y-128000000D03*
X188000000Y-121000000D03*
X146000000Y-74000000D03*
X182000000Y-73000000D03*
X166000000Y-109000000D03*
X171000000Y-59000000D03*
X149000000Y-116000000D03*
X135000000Y-91000000D03*
X155000000Y-86000000D03*
X175000000Y-142000000D03*
X192000000Y-125000000D03*
X154000000Y-61000000D03*
X141000000Y-92000000D03*
X126000000Y-93000000D03*
X186000000Y-77000000D03*
X179000000Y-116000000D03*
X172000000Y-129000000D03*
X191000000Y-69000000D03*
X185000000Y-66000000D03*
X127000000Y-128000000D03*
X184000000Y-116000000D03*
X150000000Y-82000000D03*
X124000000Y-52000000D03*
X172000000Y-112000000D03*
X185000000Y-76000000D03*
X112000000Y-114000000D03*
X188000000Y-102000000D03*
X191000000Y-116000000D03*
X147000000Y-79000000D03*
X159000000Y-81000000D03*
X125000000Y-72000000D03*
X109000000Y-51000000D03*
X123000000Y-92000000D03*
X176000000Y-64000000D03*
X104000000Y-71000000D03*
X151000000Y-110000000D03*
X106000000Y-72000000D03*
X192000000Y-112000000D03*
X134000000Y-77000000D03*
X162000000Y-67000000D03*
X115000000Y-121000000D03*
X159000000Y-96000000D03*
X186000000Y-89000000D03*
X174000000Y-122000000D03*
X171000000Y-137000000D03*
X112000000Y-116000000D03*
X138000000Y-126000000D03*
X161000000Y-83000000D03*
X149000000Y-91000000D03*
X130000000Y-91000000D03*
X151000000Y-75000000D03*
X124000000Y-92000000D03*
X155000000Y-71000000D03*
X107000000Y-73000000D03*
X111000000Y-143000000D03*
X195000000Y-61000000D03*
X137000000Y-138000000D03*
X187000000Y-74000000D03*
X185000000Y-61000000D03*
X123000000Y-96000000D03*
X132000000Y-117000000D03*
X195000000Y-97000000D03*
X137000000Y-113000000D03*
X162000000Y-56000000D03*
X162000000Y-133000000D03*
X117000000Y-134000000D03*
X125000000Y-66000000D03*
X172000000Y-141000000D03*
X164000000Y-102000000D03*
X121000000Y-85000000D03*
X157000000Y-95000000D03*
X122000000Y-134000000D03*
X172000000Y-140000000D03*
X105000000Y-56000000D03*
X108000000Y-61000000D03*
X121000000Y-131000000D03*
X162000000Y-91000000D03*
X174000000Y-142000000D03*
X166000000Y-135000000D03*
X124000000Y-86000000D03*
X131000000Y-48000000D03*
X126000000Y-127000000D03*
X131000000Y-106000000D03*
X171000000Y-113000000D03*
X133000000Y-72000000D03*
X137000000Y-56000000D03*
X127000000Y-113000000D03*
X172000000Y-69000000D03*
X173000000Y-92000000D03*
X153000000Y-92000000D03*
X177000000Y-57000000D03*
X189000000Y-77000000D03*
X192000000Y-105000000D03*
X161000000Y-71000000D03*
X126000000Y-49000000D03*
X122000000Y-121000000D03*
X155000000Y-56000000D03*
X116000000Y-71000000D03*
X126000000Y-135000000D03*
X111000000Y-50000000D03*
X98000000Y-106000000D03*
X162000000Y-113000000D03*
X105000000Y-91000000D03*
X139000000Y-106000000D03*
X164000000Y-111000000D03*
X170000000Y-66000000D03*
X137000000Y-66000000D03*
X191000000Y-125000000D03*
X111000000Y-53000000D03*
X127000000Y-66000000D03*
X192000000Y-97000000D03*
X117000000Y-96000000D03*
X106000000Y-109000000D03*
X136000000Y-78000000D03*
X161000000Y-76000000D03*
X177000000Y-88000000D03*
X151000000Y-115000000D03*
X119000000Y-137000000D03*
X176000000Y-100000000D03*
X192000000Y-61000000D03*
X176000000Y-81000000D03*
X103000000Y-76000000D03*
X167000000Y-84000000D03*
X177000000Y-129000000D03*
X191000000Y-111000000D03*
X102000000Y-132000000D03*
X106000000Y-99000000D03*
X102000000Y-59000000D03*
X111000000Y-68000000D03*
X158000000Y-141000000D03*
X162000000Y-74000000D03*
X131000000Y-109000000D03*
X126000000Y-65000000D03*
X147000000Y-138000000D03*
X126000000Y-98000000D03*
X109000000Y-116000000D03*
X154000000Y-107000000D03*
X98000000Y-102000000D03*
X158000000Y-91000000D03*
X169000000Y-127000000D03*
X173000000Y-121000000D03*
X116000000Y-140000000D03*
X143000000Y-127000000D03*
X114000000Y-107000000D03*
X108000000Y-62000000D03*
X188000000Y-127000000D03*
X157000000Y-108000000D03*
X191000000Y-76000000D03*
X186000000Y-65000000D03*
X151000000Y-123000000D03*
X101000000Y-56000000D03*
X101000000Y-82000000D03*
X186000000Y-99000000D03*
X151000000Y-97000000D03*
X165000000Y-71000000D03*
X194000000Y-107000000D03*
X161000000Y-140000000D03*
X162000000Y-89000000D03*
X106000000Y-128000000D03*
X171000000Y-83000000D03*
X122000000Y-63000000D03*
X102000000Y-107000000D03*
X127000000Y-70000000D03*
X145000000Y-62000000D03*
X161000000Y-77000000D03*
X98000000Y-141000000D03*
X121000000Y-98000000D03*
X126000000Y-117000000D03*
X141000000Y-108000000D03*
X165000000Y-86000000D03*
X132000000Y-88000000D03*
X189000000Y-51000000D03*
X131000000Y-115000000D03*
X137000000Y-54000000D03*
X121000000Y-136000000D03*
X121000000Y-60000000D03*
X131000000Y-60000000D03*
X127000000Y-108000000D03*
X167000000Y-111000000D03*
X111000000Y-109000000D03*
X187000000Y-119000000D03*
X113000000Y-86000000D03*
X121000000Y-127000000D03*
X128000000Y-127000000D03*
X191000000Y-136000000D03*
X122000000Y-117000000D03*
X167000000Y-65000000D03*
X172000000Y-51000000D03*
X103000000Y-86000000D03*
X170000000Y-141000000D03*
X191000000Y-85000000D03*
X161000000Y-58000000D03*
X148000000Y-56000000D03*
X160000000Y-86000000D03*
X142000000Y-56000000D03*
X174000000Y-77000000D03*
X106000000Y-64000000D03*
X128000000Y-52000000D03*
X176000000Y-122000000D03*
X139000000Y-142000000D03*
X117000000Y-72000000D03*
X111000000Y-105000000D03*
X193000000Y-137000000D03*
X167000000Y-120000000D03*
X131000000Y-57000000D03*
X156000000Y-48000000D03*
X152000000Y-118000000D03*
X154000000Y-111000000D03*
X136000000Y-130000000D03*
X145000000Y-102000000D03*
X145000000Y-61000000D03*
X156000000Y-81000000D03*
X133000000Y-92000000D03*
X138000000Y-141000000D03*
X141000000Y-95000000D03*
X137000000Y-75000000D03*
X164000000Y-72000000D03*
X134000000Y-122000000D03*
X142000000Y-114000000D03*
X156000000Y-133000000D03*
X150000000Y-81000000D03*
X151000000Y-108000000D03*
X132000000Y-106000000D03*
X159000000Y-107000000D03*
X157000000Y-117000000D03*
X147000000Y-69000000D03*
X177000000Y-142000000D03*
X122000000Y-97000000D03*
X190000000Y-112000000D03*
X193000000Y-66000000D03*
X122000000Y-126000000D03*
X186000000Y-126000000D03*
X156000000Y-82000000D03*
X182000000Y-145000000D03*
X156000000Y-140000000D03*
X192000000Y-58000000D03*
X132000000Y-68000000D03*
X123000000Y-97000000D03*
X117000000Y-56000000D03*
X154000000Y-122000000D03*
X162000000Y-138000000D03*
X131000000Y-89000000D03*
X136000000Y-70000000D03*
X116000000Y-144000000D03*
X131000000Y-116000000D03*
X186000000Y-113000000D03*
X192000000Y-96000000D03*
X114000000Y-127000000D03*
X124000000Y-107000000D03*
X194000000Y-67000000D03*
X111000000Y-62000000D03*
X106000000Y-115000000D03*
X123000000Y-142000000D03*
X111000000Y-125000000D03*
X129000000Y-56000000D03*
X118000000Y-72000000D03*
X116000000Y-125000000D03*
X112000000Y-87000000D03*
X132000000Y-98000000D03*
X183000000Y-141000000D03*
X131000000Y-65000000D03*
X112000000Y-85000000D03*
X107000000Y-72000000D03*
X159000000Y-121000000D03*
X103000000Y-81000000D03*
X132000000Y-136000000D03*
X173000000Y-142000000D03*
X155000000Y-136000000D03*
X176000000Y-125000000D03*
X125000000Y-91000000D03*
X103000000Y-67000000D03*
X167000000Y-56000000D03*
X140000000Y-142000000D03*
X133000000Y-127000000D03*
X127000000Y-82000000D03*
X192000000Y-63000000D03*
X151000000Y-70000000D03*
X180000000Y-77000000D03*
X180000000Y-52000000D03*
X187000000Y-55000000D03*
X132000000Y-104000000D03*
X171000000Y-134000000D03*
X156000000Y-89000000D03*
X143000000Y-116000000D03*
X183000000Y-121000000D03*
X191000000Y-134000000D03*
X134000000Y-81000000D03*
X116000000Y-82000000D03*
X111000000Y-127000000D03*
X145000000Y-132000000D03*
X146000000Y-145000000D03*
X125000000Y-117000000D03*
X105000000Y-51000000D03*
X143000000Y-92000000D03*
X163000000Y-101000000D03*
X166000000Y-97000000D03*
X117000000Y-79000000D03*
X182000000Y-136000000D03*
X142000000Y-112000000D03*
X99000000Y-111000000D03*
X127000000Y-74000000D03*
X101000000Y-66000000D03*
X101000000Y-142000000D03*
X189000000Y-106000000D03*
X185000000Y-92000000D03*
X184000000Y-77000000D03*
X189000000Y-111000000D03*
X181000000Y-121000000D03*
X141000000Y-50000000D03*
X143000000Y-112000000D03*
X114000000Y-112000000D03*
X167000000Y-143000000D03*
X178000000Y-141000000D03*
X172000000Y-89000000D03*
X175000000Y-137000000D03*
X172000000Y-109000000D03*
X116000000Y-104000000D03*
X98000000Y-112000000D03*
X116000000Y-115000000D03*
X143000000Y-136000000D03*
X186000000Y-53000000D03*
X163000000Y-137000000D03*
X105000000Y-127000000D03*
X144000000Y-142000000D03*
X162000000Y-125000000D03*
X143000000Y-111000000D03*
X182000000Y-137000000D03*
X192000000Y-85000000D03*
X177000000Y-139000000D03*
X187000000Y-129000000D03*
X153000000Y-76000000D03*
X154000000Y-51000000D03*
X106000000Y-83000000D03*
X156000000Y-83000000D03*
X154000000Y-56000000D03*
X187000000Y-86000000D03*
X133000000Y-76000000D03*
X142000000Y-135000000D03*
X114000000Y-62000000D03*
X183000000Y-137000000D03*
X156000000Y-143000000D03*
X123000000Y-116000000D03*
X108000000Y-92000000D03*
X117000000Y-109000000D03*
X186000000Y-54000000D03*
X149000000Y-67000000D03*
X109000000Y-127000000D03*
X161000000Y-48000000D03*
X140000000Y-77000000D03*
X179000000Y-87000000D03*
X108000000Y-51000000D03*
X116000000Y-85000000D03*
X164000000Y-136000000D03*
X194000000Y-72000000D03*
X122000000Y-84000000D03*
X151000000Y-80000000D03*
X142000000Y-65000000D03*
X125000000Y-126000000D03*
X180000000Y-71000000D03*
X166000000Y-65000000D03*
X180000000Y-61000000D03*
X116000000Y-75000000D03*
X182000000Y-55000000D03*
X156000000Y-92000000D03*
X195000000Y-131000000D03*
X147000000Y-125000000D03*
X104000000Y-52000000D03*
X139000000Y-56000000D03*
X180000000Y-62000000D03*
X106000000Y-74000000D03*
X129000000Y-52000000D03*
X118000000Y-107000000D03*
X175000000Y-111000000D03*
X161000000Y-113000000D03*
X141000000Y-133000000D03*
X128000000Y-132000000D03*
X170000000Y-91000000D03*
X129000000Y-51000000D03*
X100000000Y-92000000D03*
X141000000Y-85000000D03*
X105000000Y-112000000D03*
X143000000Y-87000000D03*
X116000000Y-50000000D03*
X132000000Y-119000000D03*
X185000000Y-77000000D03*
X177000000Y-59000000D03*
X106000000Y-82000000D03*
X186000000Y-61000000D03*
X172000000Y-104000000D03*
X125000000Y-61000000D03*
X171000000Y-65000000D03*
X194000000Y-91000000D03*
X132000000Y-73000000D03*
X191000000Y-53000000D03*
X100000000Y-77000000D03*
X147000000Y-140000000D03*
X187000000Y-125000000D03*
X118000000Y-142000000D03*
X191000000Y-91000000D03*
X130000000Y-132000000D03*
X142000000Y-66000000D03*
X182000000Y-92000000D03*
X156000000Y-144000000D03*
X161000000Y-107000000D03*
X160000000Y-137000000D03*
X101000000Y-52000000D03*
X169000000Y-121000000D03*
X162000000Y-70000000D03*
X194000000Y-141000000D03*
X117000000Y-144000000D03*
X131000000Y-81000000D03*
X145000000Y-71000000D03*
X192000000Y-68000000D03*
X164000000Y-126000000D03*
X99000000Y-51000000D03*
X126000000Y-79000000D03*
X183000000Y-86000000D03*
X158000000Y-112000000D03*
X182000000Y-135000000D03*
X161000000Y-134000000D03*
X136000000Y-81000000D03*
X137000000Y-112000000D03*
X186000000Y-109000000D03*
X127000000Y-144000000D03*
X127000000Y-71000000D03*
X105000000Y-97000000D03*
X99000000Y-141000000D03*
X191000000Y-124000000D03*
X106000000Y-59000000D03*
X191000000Y-94000000D03*
X175000000Y-107000000D03*
X124000000Y-76000000D03*
X130000000Y-72000000D03*
X182000000Y-93000000D03*
X158000000Y-82000000D03*
X153000000Y-112000000D03*
X166000000Y-145000000D03*
X193000000Y-81000000D03*
X111000000Y-117000000D03*
X159000000Y-106000000D03*
X161000000Y-99000000D03*
X195000000Y-116000000D03*
X142000000Y-126000000D03*
X116000000Y-119000000D03*
X177000000Y-122000000D03*
X121000000Y-78000000D03*
X119000000Y-126000000D03*
X166000000Y-125000000D03*
X148000000Y-72000000D03*
X154000000Y-106000000D03*
X130000000Y-102000000D03*
X111000000Y-64000000D03*
X156000000Y-65000000D03*
X127000000Y-121000000D03*
X131000000Y-114000000D03*
X182000000Y-56000000D03*
X161000000Y-95000000D03*
X137000000Y-130000000D03*
X142000000Y-62000000D03*
X102000000Y-61000000D03*
X154000000Y-136000000D03*
X140000000Y-111000000D03*
X125000000Y-96000000D03*
X152000000Y-104000000D03*
X106000000Y-120000000D03*
X173000000Y-112000000D03*
X114000000Y-136000000D03*
X190000000Y-56000000D03*
X152000000Y-110000000D03*
X178000000Y-102000000D03*
X151000000Y-76000000D03*
X104000000Y-101000000D03*
X179000000Y-51000000D03*
X116000000Y-77000000D03*
X149000000Y-56000000D03*
X132000000Y-124000000D03*
X121000000Y-88000000D03*
X112000000Y-128000000D03*
X167000000Y-126000000D03*
X151000000Y-63000000D03*
X135000000Y-87000000D03*
X101000000Y-107000000D03*
X142000000Y-143000000D03*
X106000000Y-130000000D03*
X181000000Y-88000000D03*
X146000000Y-138000000D03*
X139000000Y-117000000D03*
X176000000Y-103000000D03*
X152000000Y-102000000D03*
X154000000Y-81000000D03*
X128000000Y-96000000D03*
X131000000Y-74000000D03*
X181000000Y-101000000D03*
X136000000Y-107000000D03*
X140000000Y-67000000D03*
X121000000Y-99000000D03*
X165000000Y-127000000D03*
X171000000Y-122000000D03*
X157000000Y-56000000D03*
X132000000Y-92000000D03*
X100000000Y-82000000D03*
X181000000Y-75000000D03*
X140000000Y-137000000D03*
X168000000Y-137000000D03*
X112000000Y-55000000D03*
X127000000Y-142000000D03*
X141000000Y-83000000D03*
X124000000Y-117000000D03*
X126000000Y-129000000D03*
X136000000Y-82000000D03*
X142000000Y-121000000D03*
X146000000Y-113000000D03*
X113000000Y-126000000D03*
X159000000Y-56000000D03*
X126000000Y-70000000D03*
X164000000Y-97000000D03*
X152000000Y-135000000D03*
X103000000Y-122000000D03*
X156000000Y-73000000D03*
X106000000Y-58000000D03*
X132000000Y-96000000D03*
X146000000Y-103000000D03*
X188000000Y-57000000D03*
X167000000Y-117000000D03*
X103000000Y-111000000D03*
X159000000Y-57000000D03*
X179000000Y-96000000D03*
X119000000Y-132000000D03*
X160000000Y-127000000D03*
X149000000Y-92000000D03*
X152000000Y-97000000D03*
X105000000Y-117000000D03*
X152000000Y-48000000D03*
X174000000Y-107000000D03*
X171000000Y-74000000D03*
X173000000Y-87000000D03*
X135000000Y-122000000D03*
X183000000Y-67000000D03*
X107000000Y-57000000D03*
X174000000Y-57000000D03*
X162000000Y-66000000D03*
X108000000Y-126000000D03*
X127000000Y-139000000D03*
X99000000Y-76000000D03*
X117000000Y-53000000D03*
X151000000Y-50000000D03*
X145000000Y-136000000D03*
X137000000Y-83000000D03*
X172000000Y-120000000D03*
X167000000Y-112000000D03*
X126000000Y-120000000D03*
X162000000Y-82000000D03*
X143000000Y-121000000D03*
X181000000Y-91000000D03*
X190000000Y-127000000D03*
X105000000Y-116000000D03*
X106000000Y-78000000D03*
X160000000Y-111000000D03*
X144000000Y-77000000D03*
X184000000Y-67000000D03*
X151000000Y-88000000D03*
X117000000Y-49000000D03*
X104000000Y-122000000D03*
X194000000Y-127000000D03*
X152000000Y-141000000D03*
X160000000Y-141000000D03*
X136000000Y-108000000D03*
X125000000Y-101000000D03*
X130000000Y-127000000D03*
X192000000Y-123000000D03*
X132000000Y-108000000D03*
X128000000Y-72000000D03*
X117000000Y-60000000D03*
X143000000Y-101000000D03*
X192000000Y-51000000D03*
X107000000Y-84000000D03*
X191000000Y-48000000D03*
X118000000Y-121000000D03*
X146000000Y-57000000D03*
X181000000Y-129000000D03*
X117000000Y-61000000D03*
X112000000Y-63000000D03*
X118000000Y-116000000D03*
X103000000Y-102000000D03*
X179000000Y-81000000D03*
X136000000Y-53000000D03*
X123000000Y-81000000D03*
X166000000Y-126000000D03*
X150000000Y-112000000D03*
X187000000Y-78000000D03*
X153000000Y-131000000D03*
X117000000Y-84000000D03*
X151000000Y-85000000D03*
X152000000Y-130000000D03*
X172000000Y-86000000D03*
X127000000Y-130000000D03*
X144000000Y-86000000D03*
X114000000Y-71000000D03*
X110000000Y-72000000D03*
X146000000Y-88000000D03*
X150000000Y-56000000D03*
X124000000Y-77000000D03*
X183000000Y-112000000D03*
X165000000Y-87000000D03*
X117000000Y-92000000D03*
X112000000Y-145000000D03*
X122000000Y-54000000D03*
X192000000Y-114000000D03*
X106000000Y-129000000D03*
X171000000Y-96000000D03*
X177000000Y-133000000D03*
X130000000Y-116000000D03*
X187000000Y-89000000D03*
X181000000Y-141000000D03*
X117000000Y-55000000D03*
X155000000Y-76000000D03*
X151000000Y-107000000D03*
X136000000Y-124000000D03*
X109000000Y-66000000D03*
X157000000Y-133000000D03*
X112000000Y-79000000D03*
X130000000Y-141000000D03*
X126000000Y-139000000D03*
X172000000Y-83000000D03*
X160000000Y-116000000D03*
X186000000Y-141000000D03*
X106000000Y-66000000D03*
X195000000Y-112000000D03*
X182000000Y-87000000D03*
X132000000Y-145000000D03*
X132000000Y-84000000D03*
X101000000Y-127000000D03*
X107000000Y-122000000D03*
X162000000Y-77000000D03*
X192000000Y-115000000D03*
X120000000Y-62000000D03*
X117000000Y-145000000D03*
X163000000Y-76000000D03*
X176000000Y-102000000D03*
X114000000Y-96000000D03*
X183000000Y-82000000D03*
X139000000Y-71000000D03*
X117000000Y-130000000D03*
X157000000Y-129000000D03*
X195000000Y-141000000D03*
X116000000Y-60000000D03*
X124000000Y-136000000D03*
X183000000Y-122000000D03*
X115000000Y-61000000D03*
X154000000Y-121000000D03*
X104000000Y-72000000D03*
X172000000Y-67000000D03*
X123000000Y-67000000D03*
X117000000Y-111000000D03*
X143000000Y-66000000D03*
X178000000Y-96000000D03*
X174000000Y-81000000D03*
X187000000Y-112000000D03*
X177000000Y-108000000D03*
X159000000Y-122000000D03*
X119000000Y-92000000D03*
X156000000Y-72000000D03*
X176000000Y-54000000D03*
X106000000Y-76000000D03*
X162000000Y-145000000D03*
X141000000Y-134000000D03*
X117000000Y-140000000D03*
X138000000Y-87000000D03*
X142000000Y-110000000D03*
X103000000Y-96000000D03*
X193000000Y-111000000D03*
X138000000Y-137000000D03*
X162000000Y-119000000D03*
X141000000Y-58000000D03*
X188000000Y-61000000D03*
X115000000Y-136000000D03*
X115000000Y-131000000D03*
X111000000Y-114000000D03*
X136000000Y-51000000D03*
X137000000Y-121000000D03*
X172000000Y-117000000D03*
X134000000Y-92000000D03*
X141000000Y-88000000D03*
X137000000Y-93000000D03*
X122000000Y-53000000D03*
X150000000Y-131000000D03*
X159000000Y-61000000D03*
X151000000Y-57000000D03*
X142000000Y-87000000D03*
X182000000Y-50000000D03*
X144000000Y-61000000D03*
X126000000Y-66000000D03*
X122000000Y-90000000D03*
X114000000Y-51000000D03*
X181000000Y-61000000D03*
X111000000Y-97000000D03*
X179000000Y-101000000D03*
X134000000Y-91000000D03*
X154000000Y-97000000D03*
X156000000Y-90000000D03*
X112000000Y-52000000D03*
X167000000Y-100000000D03*
X125000000Y-92000000D03*
X124000000Y-116000000D03*
X166000000Y-143000000D03*
X113000000Y-137000000D03*
X98000000Y-137000000D03*
X127000000Y-111000000D03*
X142000000Y-125000000D03*
X116000000Y-135000000D03*
X169000000Y-91000000D03*
X166000000Y-108000000D03*
X152000000Y-138000000D03*
X118000000Y-102000000D03*
X117000000Y-75000000D03*
X130000000Y-126000000D03*
X171000000Y-52000000D03*
X137000000Y-119000000D03*
X116000000Y-114000000D03*
X193000000Y-51000000D03*
X116000000Y-97000000D03*
X171000000Y-57000000D03*
X117000000Y-62000000D03*
X101000000Y-90000000D03*
X130000000Y-131000000D03*
X164000000Y-116000000D03*
X157000000Y-90000000D03*
X99000000Y-142000000D03*
X186000000Y-49000000D03*
X195000000Y-121000000D03*
X165000000Y-116000000D03*
X139000000Y-137000000D03*
X158000000Y-51000000D03*
X137000000Y-84000000D03*
X106000000Y-145000000D03*
X106000000Y-119000000D03*
X180000000Y-97000000D03*
X137000000Y-58000000D03*
X129000000Y-102000000D03*
X178000000Y-82000000D03*
X191000000Y-58000000D03*
X166000000Y-99000000D03*
X156000000Y-88000000D03*
X121000000Y-109000000D03*
X164000000Y-112000000D03*
X193000000Y-106000000D03*
X139000000Y-91000000D03*
X147000000Y-97000000D03*
X166000000Y-79000000D03*
X178000000Y-126000000D03*
X182000000Y-51000000D03*
X177000000Y-130000000D03*
X166000000Y-76000000D03*
X141000000Y-62000000D03*
X155000000Y-61000000D03*
X151000000Y-95000000D03*
X173000000Y-101000000D03*
X191000000Y-113000000D03*
X181000000Y-90000000D03*
X141000000Y-113000000D03*
X134000000Y-121000000D03*
X181000000Y-138000000D03*
X134000000Y-67000000D03*
X152000000Y-88000000D03*
X105000000Y-96000000D03*
X122000000Y-95000000D03*
X136000000Y-96000000D03*
X112000000Y-105000000D03*
X120000000Y-126000000D03*
X191000000Y-128000000D03*
X104000000Y-91000000D03*
X109000000Y-97000000D03*
X145000000Y-101000000D03*
X156000000Y-60000000D03*
X140000000Y-102000000D03*
X136000000Y-84000000D03*
X104000000Y-62000000D03*
X137000000Y-129000000D03*
X159000000Y-111000000D03*
X132000000Y-56000000D03*
X127000000Y-93000000D03*
X146000000Y-129000000D03*
X125000000Y-86000000D03*
X177000000Y-77000000D03*
X157000000Y-119000000D03*
X136000000Y-91000000D03*
X133000000Y-117000000D03*
X98000000Y-66000000D03*
X169000000Y-52000000D03*
X114000000Y-101000000D03*
X181000000Y-126000000D03*
X177000000Y-82000000D03*
X181000000Y-53000000D03*
X182000000Y-129000000D03*
X113000000Y-106000000D03*
X189000000Y-132000000D03*
X132000000Y-59000000D03*
X122000000Y-114000000D03*
X98000000Y-81000000D03*
X132000000Y-69000000D03*
X177000000Y-78000000D03*
X132000000Y-52000000D03*
X121000000Y-133000000D03*
X131000000Y-104000000D03*
X144000000Y-91000000D03*
X170000000Y-72000000D03*
X154000000Y-96000000D03*
X102000000Y-60000000D03*
X116000000Y-67000000D03*
X137000000Y-106000000D03*
X111000000Y-95000000D03*
X121000000Y-61000000D03*
X128000000Y-141000000D03*
X187000000Y-102000000D03*
X107000000Y-130000000D03*
X164000000Y-56000000D03*
X101000000Y-58000000D03*
X166000000Y-90000000D03*
X177000000Y-115000000D03*
X147000000Y-119000000D03*
X104000000Y-131000000D03*
X178000000Y-62000000D03*
X116000000Y-105000000D03*
X157000000Y-122000000D03*
X144000000Y-82000000D03*
X185000000Y-116000000D03*
X167000000Y-99000000D03*
X191000000Y-98000000D03*
X137000000Y-77000000D03*
X165000000Y-52000000D03*
X181000000Y-62000000D03*
X143000000Y-82000000D03*
X146000000Y-50000000D03*
X142000000Y-59000000D03*
X150000000Y-66000000D03*
X182000000Y-49000000D03*
X192000000Y-82000000D03*
X122000000Y-68000000D03*
X172000000Y-81000000D03*
X149000000Y-51000000D03*
X107000000Y-87000000D03*
X101000000Y-118000000D03*
X174000000Y-132000000D03*
X121000000Y-107000000D03*
X147000000Y-64000000D03*
X161000000Y-145000000D03*
X135000000Y-76000000D03*
X104000000Y-126000000D03*
X126000000Y-54000000D03*
X141000000Y-110000000D03*
X152000000Y-116000000D03*
X114000000Y-111000000D03*
X103000000Y-66000000D03*
X190000000Y-86000000D03*
X101000000Y-65000000D03*
X111000000Y-88000000D03*
X177000000Y-52000000D03*
X170000000Y-136000000D03*
X186000000Y-58000000D03*
X116000000Y-93000000D03*
X155000000Y-137000000D03*
X189000000Y-62000000D03*
X115000000Y-142000000D03*
X161000000Y-55000000D03*
X171000000Y-73000000D03*
X127000000Y-56000000D03*
X195000000Y-51000000D03*
X156000000Y-106000000D03*
X98000000Y-126000000D03*
X166000000Y-104000000D03*
X191000000Y-59000000D03*
X175000000Y-76000000D03*
X147000000Y-57000000D03*
X111000000Y-122000000D03*
X101000000Y-117000000D03*
X115000000Y-132000000D03*
X100000000Y-52000000D03*
X168000000Y-87000000D03*
X127000000Y-126000000D03*
X192000000Y-55000000D03*
X127000000Y-72000000D03*
X162000000Y-139000000D03*
X191000000Y-117000000D03*
X176000000Y-63000000D03*
X114000000Y-76000000D03*
X167000000Y-68000000D03*
X192000000Y-84000000D03*
X116000000Y-98000000D03*
X146000000Y-93000000D03*
X149000000Y-61000000D03*
X143000000Y-91000000D03*
X171000000Y-111000000D03*
X176000000Y-89000000D03*
X192000000Y-136000000D03*
X192000000Y-130000000D03*
X146000000Y-136000000D03*
X186000000Y-56000000D03*
X135000000Y-96000000D03*
X101000000Y-138000000D03*
X184000000Y-86000000D03*
X146000000Y-51000000D03*
X101000000Y-108000000D03*
X181000000Y-76000000D03*
X170000000Y-131000000D03*
X134000000Y-86000000D03*
X187000000Y-71000000D03*
X130000000Y-71000000D03*
X107000000Y-88000000D03*
X156000000Y-135000000D03*
X170000000Y-116000000D03*
X182000000Y-120000000D03*
X141000000Y-48000000D03*
X122000000Y-133000000D03*
X102000000Y-104000000D03*
X180000000Y-101000000D03*
X111000000Y-78000000D03*
X161000000Y-142000000D03*
X180000000Y-67000000D03*
X170000000Y-121000000D03*
X136000000Y-63000000D03*
X192000000Y-62000000D03*
X161000000Y-82000000D03*
X150000000Y-86000000D03*
X166000000Y-91000000D03*
X193000000Y-62000000D03*
X108000000Y-56000000D03*
X144000000Y-121000000D03*
X139000000Y-86000000D03*
X156000000Y-76000000D03*
X131000000Y-110000000D03*
X176000000Y-88000000D03*
X151000000Y-62000000D03*
X135000000Y-132000000D03*
X193000000Y-121000000D03*
X136000000Y-59000000D03*
X183000000Y-101000000D03*
X127000000Y-100000000D03*
X161000000Y-126000000D03*
X170000000Y-137000000D03*
X102000000Y-142000000D03*
X138000000Y-132000000D03*
X106000000Y-49000000D03*
X181000000Y-97000000D03*
X131000000Y-118000000D03*
X116000000Y-108000000D03*
X111000000Y-110000000D03*
X183000000Y-57000000D03*
X99000000Y-96000000D03*
X111000000Y-99000000D03*
X147000000Y-96000000D03*
X162000000Y-73000000D03*
X181000000Y-95000000D03*
X137000000Y-135000000D03*
X122000000Y-78000000D03*
X150000000Y-71000000D03*
X102000000Y-89000000D03*
X134000000Y-111000000D03*
X116000000Y-132000000D03*
X147000000Y-52000000D03*
X155000000Y-82000000D03*
X136000000Y-106000000D03*
X189000000Y-61000000D03*
X145000000Y-126000000D03*
X163000000Y-126000000D03*
X116000000Y-69000000D03*
X107000000Y-52000000D03*
X106000000Y-92000000D03*
X126000000Y-123000000D03*
X137000000Y-95000000D03*
X145000000Y-66000000D03*
X183000000Y-77000000D03*
X175000000Y-112000000D03*
X161000000Y-124000000D03*
X133000000Y-71000000D03*
X170000000Y-142000000D03*
X192000000Y-134000000D03*
X143000000Y-86000000D03*
X192000000Y-79000000D03*
X142000000Y-80000000D03*
X102000000Y-71000000D03*
X158000000Y-92000000D03*
X162000000Y-140000000D03*
X175000000Y-87000000D03*
X137000000Y-117000000D03*
X102000000Y-111000000D03*
X120000000Y-142000000D03*
X161000000Y-103000000D03*
X135000000Y-136000000D03*
X186000000Y-143000000D03*
X117000000Y-138000000D03*
X102000000Y-90000000D03*
X172000000Y-99000000D03*
X171000000Y-87000000D03*
X151000000Y-142000000D03*
X178000000Y-137000000D03*
X123000000Y-72000000D03*
X164000000Y-121000000D03*
X156000000Y-78000000D03*
X111000000Y-108000000D03*
X127000000Y-103000000D03*
X121000000Y-125000000D03*
X187000000Y-59000000D03*
X152000000Y-115000000D03*
X136000000Y-105000000D03*
X180000000Y-137000000D03*
X105000000Y-126000000D03*
X111000000Y-63000000D03*
X167000000Y-116000000D03*
X158000000Y-57000000D03*
X101000000Y-54000000D03*
X192000000Y-117000000D03*
X154000000Y-131000000D03*
X116000000Y-120000000D03*
X195000000Y-52000000D03*
X182000000Y-100000000D03*
X113000000Y-116000000D03*
X112000000Y-83000000D03*
X152000000Y-122000000D03*
X140000000Y-72000000D03*
X146000000Y-67000000D03*
X108000000Y-91000000D03*
X127000000Y-57000000D03*
X106000000Y-53000000D03*
X172000000Y-114000000D03*
X159000000Y-102000000D03*
X137000000Y-103000000D03*
X133000000Y-81000000D03*
X174000000Y-67000000D03*
X142000000Y-61000000D03*
X155000000Y-102000000D03*
X148000000Y-96000000D03*
X172000000Y-130000000D03*
X152000000Y-117000000D03*
X153000000Y-127000000D03*
X177000000Y-110000000D03*
X112000000Y-91000000D03*
X176000000Y-96000000D03*
X140000000Y-57000000D03*
X162000000Y-62000000D03*
X131000000Y-142000000D03*
X172000000Y-80000000D03*
X98000000Y-101000000D03*
X122000000Y-138000000D03*
X111000000Y-132000000D03*
X156000000Y-130000000D03*
X158000000Y-61000000D03*
X109000000Y-62000000D03*
X181000000Y-118000000D03*
X172000000Y-118000000D03*
X181000000Y-81000000D03*
X187000000Y-101000000D03*
X137000000Y-94000000D03*
X180000000Y-72000000D03*
X112000000Y-112000000D03*
X111000000Y-91000000D03*
X137000000Y-98000000D03*
X191000000Y-121000000D03*
X146000000Y-141000000D03*
X131000000Y-62000000D03*
X147000000Y-77000000D03*
X124000000Y-127000000D03*
X117000000Y-132000000D03*
X152000000Y-69000000D03*
X172000000Y-102000000D03*
X104000000Y-92000000D03*
X189000000Y-107000000D03*
X187000000Y-76000000D03*
X154000000Y-92000000D03*
X139000000Y-102000000D03*
X142000000Y-140000000D03*
X164000000Y-51000000D03*
X122000000Y-94000000D03*
X182000000Y-109000000D03*
X191000000Y-118000000D03*
X136000000Y-140000000D03*
X99000000Y-86000000D03*
X192000000Y-78000000D03*
X161000000Y-138000000D03*
X132000000Y-109000000D03*
X127000000Y-49000000D03*
X138000000Y-106000000D03*
X136000000Y-61000000D03*
X127000000Y-115000000D03*
X136000000Y-73000000D03*
X112000000Y-122000000D03*
X170000000Y-62000000D03*
X171000000Y-90000000D03*
X107000000Y-48000000D03*
X140000000Y-132000000D03*
X159000000Y-62000000D03*
X153000000Y-122000000D03*
X185000000Y-142000000D03*
X176000000Y-73000000D03*
X137000000Y-143000000D03*
X153000000Y-91000000D03*
X177000000Y-101000000D03*
X172000000Y-119000000D03*
X164000000Y-117000000D03*
X141000000Y-129000000D03*
X177000000Y-137000000D03*
X171000000Y-123000000D03*
X122000000Y-124000000D03*
X193000000Y-96000000D03*
X112000000Y-127000000D03*
X161000000Y-129000000D03*
X161000000Y-143000000D03*
X122000000Y-60000000D03*
X177000000Y-58000000D03*
X103000000Y-101000000D03*
X137000000Y-100000000D03*
X102000000Y-85000000D03*
X177000000Y-75000000D03*
X156000000Y-62000000D03*
X167000000Y-129000000D03*
X182000000Y-133000000D03*
X167000000Y-77000000D03*
X148000000Y-106000000D03*
X187000000Y-92000000D03*
X182000000Y-144000000D03*
X111000000Y-142000000D03*
X120000000Y-137000000D03*
X134000000Y-127000000D03*
X185000000Y-71000000D03*
X177000000Y-49000000D03*
X150000000Y-61000000D03*
X120000000Y-117000000D03*
X132000000Y-55000000D03*
X123000000Y-131000000D03*
X170000000Y-117000000D03*
X117000000Y-95000000D03*
X170000000Y-61000000D03*
X172000000Y-98000000D03*
X172000000Y-136000000D03*
X142000000Y-107000000D03*
X178000000Y-111000000D03*
X119000000Y-106000000D03*
X171000000Y-58000000D03*
X179000000Y-121000000D03*
X108000000Y-102000000D03*
X131000000Y-91000000D03*
X165000000Y-92000000D03*
X146000000Y-131000000D03*
X109000000Y-72000000D03*
X107000000Y-116000000D03*
X131000000Y-122000000D03*
X121000000Y-112000000D03*
X126000000Y-85000000D03*
X110000000Y-116000000D03*
X100000000Y-107000000D03*
X153000000Y-77000000D03*
X164000000Y-101000000D03*
X107000000Y-74000000D03*
X116000000Y-116000000D03*
X136000000Y-138000000D03*
X102000000Y-125000000D03*
X158000000Y-76000000D03*
X142000000Y-78000000D03*
X161000000Y-111000000D03*
X113000000Y-87000000D03*
X194000000Y-117000000D03*
X160000000Y-136000000D03*
X121000000Y-62000000D03*
X167000000Y-102000000D03*
X181000000Y-103000000D03*
X176000000Y-69000000D03*
X151000000Y-134000000D03*
X98000000Y-86000000D03*
X151000000Y-90000000D03*
X161000000Y-79000000D03*
X159000000Y-91000000D03*
X187000000Y-61000000D03*
X177000000Y-138000000D03*
X167000000Y-93000000D03*
X142000000Y-57000000D03*
X186000000Y-71000000D03*
X111000000Y-106000000D03*
X113000000Y-56000000D03*
X129000000Y-81000000D03*
X191000000Y-62000000D03*
X101000000Y-53000000D03*
X138000000Y-116000000D03*
X101000000Y-84000000D03*
X117000000Y-65000000D03*
X176000000Y-105000000D03*
X163000000Y-51000000D03*
X192000000Y-65000000D03*
X119000000Y-62000000D03*
X142000000Y-119000000D03*
X176000000Y-108000000D03*
X124000000Y-87000000D03*
X111000000Y-131000000D03*
X127000000Y-63000000D03*
X191000000Y-93000000D03*
X192000000Y-50000000D03*
X108000000Y-112000000D03*
X181000000Y-51000000D03*
X181000000Y-132000000D03*
X157000000Y-145000000D03*
X112000000Y-66000000D03*
X191000000Y-79000000D03*
X122000000Y-141000000D03*
X171000000Y-105000000D03*
X191000000Y-101000000D03*
X131000000Y-98000000D03*
X186000000Y-51000000D03*
X143000000Y-131000000D03*
X116000000Y-129000000D03*
X137000000Y-73000000D03*
X151000000Y-69000000D03*
X185000000Y-136000000D03*
X156000000Y-114000000D03*
X193000000Y-101000000D03*
X161000000Y-96000000D03*
X122000000Y-109000000D03*
X172000000Y-123000000D03*
X181000000Y-130000000D03*
X167000000Y-59000000D03*
X140000000Y-101000000D03*
X117000000Y-107000000D03*
X152000000Y-121000000D03*
X126000000Y-83000000D03*
X156000000Y-126000000D03*
X121000000Y-75000000D03*
X166000000Y-71000000D03*
X155000000Y-111000000D03*
X165000000Y-72000000D03*
X121000000Y-97000000D03*
X157000000Y-141000000D03*
X104000000Y-51000000D03*
X186000000Y-142000000D03*
X182000000Y-112000000D03*
X112000000Y-89000000D03*
X171000000Y-110000000D03*
X116000000Y-102000000D03*
X166000000Y-81000000D03*
X115000000Y-71000000D03*
X133000000Y-137000000D03*
X98000000Y-62000000D03*
X162000000Y-63000000D03*
X107000000Y-120000000D03*
X182000000Y-88000000D03*
X144000000Y-72000000D03*
X180000000Y-106000000D03*
X131000000Y-58000000D03*
X167000000Y-137000000D03*
X177000000Y-65000000D03*
X186000000Y-62000000D03*
X128000000Y-71000000D03*
X182000000Y-48000000D03*
X128000000Y-131000000D03*
X162000000Y-127000000D03*
X170000000Y-51000000D03*
X132000000Y-83000000D03*
X106000000Y-126000000D03*
X101000000Y-119000000D03*
X142000000Y-82000000D03*
X162000000Y-141000000D03*
X189000000Y-96000000D03*
X147000000Y-58000000D03*
X116000000Y-121000000D03*
X146000000Y-53000000D03*
X122000000Y-120000000D03*
X169000000Y-82000000D03*
X137000000Y-78000000D03*
X161000000Y-61000000D03*
X187000000Y-85000000D03*
X147000000Y-111000000D03*
X132000000Y-71000000D03*
X160000000Y-122000000D03*
X148000000Y-126000000D03*
X110000000Y-76000000D03*
X124000000Y-111000000D03*
X127000000Y-60000000D03*
X160000000Y-96000000D03*
X112000000Y-133000000D03*
X161000000Y-94000000D03*
X100000000Y-126000000D03*
X160000000Y-57000000D03*
X130000000Y-62000000D03*
X178000000Y-52000000D03*
X177000000Y-84000000D03*
X167000000Y-118000000D03*
X121000000Y-140000000D03*
X192000000Y-60000000D03*
X191000000Y-50000000D03*
X142000000Y-71000000D03*
X111000000Y-118000000D03*
X142000000Y-88000000D03*
X156000000Y-49000000D03*
X141000000Y-144000000D03*
X176000000Y-119000000D03*
X166000000Y-101000000D03*
X127000000Y-114000000D03*
X147000000Y-53000000D03*
X136000000Y-114000000D03*
X172000000Y-124000000D03*
X167000000Y-122000000D03*
X153000000Y-136000000D03*
X141000000Y-81000000D03*
X116000000Y-86000000D03*
X124000000Y-62000000D03*
X110000000Y-97000000D03*
X191000000Y-106000000D03*
X181000000Y-119000000D03*
X166000000Y-141000000D03*
X178000000Y-67000000D03*
X147000000Y-123000000D03*
X165000000Y-102000000D03*
X126000000Y-68000000D03*
X120000000Y-57000000D03*
X194000000Y-122000000D03*
X191000000Y-119000000D03*
X143000000Y-126000000D03*
X187000000Y-98000000D03*
X112000000Y-118000000D03*
X131000000Y-103000000D03*
X157000000Y-94000000D03*
X192000000Y-144000000D03*
X125000000Y-82000000D03*
X111000000Y-54000000D03*
X165000000Y-122000000D03*
X137000000Y-82000000D03*
X121000000Y-94000000D03*
X131000000Y-97000000D03*
X139000000Y-92000000D03*
X182000000Y-74000000D03*
X134000000Y-57000000D03*
X118000000Y-71000000D03*
X182000000Y-54000000D03*
X192000000Y-72000000D03*
X120000000Y-116000000D03*
X156000000Y-134000000D03*
X143000000Y-77000000D03*
X150000000Y-141000000D03*
X151000000Y-128000000D03*
X111000000Y-115000000D03*
X100000000Y-121000000D03*
X136000000Y-127000000D03*
X153000000Y-51000000D03*
X172000000Y-75000000D03*
X149000000Y-141000000D03*
X187000000Y-126000000D03*
X152000000Y-56000000D03*
X171000000Y-142000000D03*
X163000000Y-52000000D03*
X139000000Y-61000000D03*
X182000000Y-85000000D03*
X114000000Y-57000000D03*
X160000000Y-106000000D03*
X141000000Y-56000000D03*
X104000000Y-107000000D03*
X153000000Y-107000000D03*
X181000000Y-145000000D03*
X101000000Y-83000000D03*
X157000000Y-79000000D03*
X171000000Y-60000000D03*
X115000000Y-116000000D03*
X101000000Y-97000000D03*
X127000000Y-68000000D03*
X165000000Y-126000000D03*
X140000000Y-76000000D03*
X128000000Y-56000000D03*
X131000000Y-144000000D03*
X154000000Y-141000000D03*
X120000000Y-87000000D03*
X182000000Y-125000000D03*
X178000000Y-136000000D03*
X177000000Y-140000000D03*
X152000000Y-53000000D03*
X100000000Y-117000000D03*
X160000000Y-67000000D03*
X106000000Y-52000000D03*
X182000000Y-99000000D03*
X109000000Y-102000000D03*
X161000000Y-125000000D03*
X121000000Y-126000000D03*
X136000000Y-58000000D03*
X169000000Y-136000000D03*
X176000000Y-112000000D03*
X147000000Y-61000000D03*
X105000000Y-142000000D03*
X123000000Y-76000000D03*
X137000000Y-124000000D03*
X131000000Y-143000000D03*
X121000000Y-105000000D03*
X166000000Y-94000000D03*
X147000000Y-126000000D03*
X165000000Y-106000000D03*
X111000000Y-119000000D03*
X146000000Y-90000000D03*
X142000000Y-144000000D03*
X192000000Y-140000000D03*
X138000000Y-142000000D03*
X195000000Y-126000000D03*
X181000000Y-115000000D03*
X101000000Y-74000000D03*
X176000000Y-131000000D03*
X182000000Y-108000000D03*
X124000000Y-71000000D03*
X146000000Y-69000000D03*
X115000000Y-52000000D03*
X138000000Y-97000000D03*
X137000000Y-50000000D03*
X157000000Y-102000000D03*
X193000000Y-142000000D03*
X194000000Y-82000000D03*
X111000000Y-116000000D03*
X167000000Y-139000000D03*
X149000000Y-52000000D03*
X122000000Y-142000000D03*
X106000000Y-143000000D03*
X149000000Y-82000000D03*
X185000000Y-107000000D03*
X126000000Y-140000000D03*
X101000000Y-81000000D03*
X188000000Y-52000000D03*
X173000000Y-141000000D03*
X191000000Y-89000000D03*
X156000000Y-68000000D03*
X122000000Y-77000000D03*
X139000000Y-136000000D03*
X192000000Y-133000000D03*
X191000000Y-77000000D03*
X116000000Y-126000000D03*
X131000000Y-50000000D03*
X172000000Y-142000000D03*
X152000000Y-109000000D03*
X179000000Y-67000000D03*
X135000000Y-112000000D03*
X105000000Y-52000000D03*
X112000000Y-113000000D03*
X142000000Y-129000000D03*
X176000000Y-98000000D03*
X117000000Y-123000000D03*
X135000000Y-52000000D03*
X102000000Y-110000000D03*
X193000000Y-52000000D03*
X139000000Y-121000000D03*
X181000000Y-116000000D03*
X146000000Y-55000000D03*
X165000000Y-101000000D03*
X161000000Y-137000000D03*
X119000000Y-111000000D03*
X143000000Y-72000000D03*
X107000000Y-58000000D03*
X162000000Y-52000000D03*
X129000000Y-92000000D03*
X122000000Y-139000000D03*
X112000000Y-138000000D03*
X187000000Y-77000000D03*
X183000000Y-52000000D03*
X153000000Y-101000000D03*
X130000000Y-57000000D03*
X106000000Y-63000000D03*
X117000000Y-52000000D03*
X101000000Y-106000000D03*
X108000000Y-131000000D03*
X167000000Y-97000000D03*
X193000000Y-102000000D03*
X141000000Y-60000000D03*
X179000000Y-72000000D03*
X167000000Y-78000000D03*
X181000000Y-99000000D03*
X163000000Y-57000000D03*
X145000000Y-106000000D03*
X187000000Y-108000000D03*
X166000000Y-133000000D03*
X132000000Y-67000000D03*
X162000000Y-105000000D03*
X180000000Y-82000000D03*
X106000000Y-65000000D03*
X136000000Y-85000000D03*
X186000000Y-76000000D03*
X162000000Y-112000000D03*
X141000000Y-136000000D03*
X167000000Y-83000000D03*
X187000000Y-117000000D03*
X147000000Y-128000000D03*
X122000000Y-55000000D03*
X111000000Y-60000000D03*
X177000000Y-112000000D03*
X120000000Y-122000000D03*
X122000000Y-111000000D03*
X161000000Y-121000000D03*
X188000000Y-77000000D03*
X123000000Y-66000000D03*
X129000000Y-111000000D03*
X104000000Y-111000000D03*
X120000000Y-132000000D03*
X192000000Y-57000000D03*
X117000000Y-139000000D03*
X192000000Y-119000000D03*
X180000000Y-136000000D03*
X98000000Y-122000000D03*
X169000000Y-111000000D03*
X107000000Y-98000000D03*
X129000000Y-87000000D03*
X107000000Y-106000000D03*
X98000000Y-121000000D03*
X121000000Y-76000000D03*
X110000000Y-122000000D03*
X130000000Y-96000000D03*
X162000000Y-99000000D03*
X112000000Y-119000000D03*
X119000000Y-117000000D03*
X125000000Y-81000000D03*
X121000000Y-86000000D03*
X131000000Y-80000000D03*
X112000000Y-76000000D03*
X141000000Y-139000000D03*
X112000000Y-107000000D03*
X138000000Y-112000000D03*
X132000000Y-135000000D03*
X145000000Y-92000000D03*
X182000000Y-95000000D03*
X103000000Y-97000000D03*
X124000000Y-91000000D03*
X143000000Y-96000000D03*
X142000000Y-54000000D03*
X122000000Y-59000000D03*
X180000000Y-117000000D03*
X191000000Y-67000000D03*
X131000000Y-108000000D03*
X138000000Y-61000000D03*
X126000000Y-137000000D03*
X187000000Y-136000000D03*
X99000000Y-57000000D03*
X158000000Y-121000000D03*
X146000000Y-135000000D03*
X155000000Y-142000000D03*
X116000000Y-122000000D03*
X99000000Y-91000000D03*
X139000000Y-101000000D03*
X182000000Y-113000000D03*
X107000000Y-126000000D03*
X179000000Y-86000000D03*
X121000000Y-124000000D03*
X122000000Y-82000000D03*
X172000000Y-48000000D03*
X135000000Y-62000000D03*
X181000000Y-117000000D03*
X116000000Y-49000000D03*
X142000000Y-81000000D03*
X138000000Y-102000000D03*
X151000000Y-119000000D03*
X152000000Y-70000000D03*
X186000000Y-94000000D03*
X136000000Y-118000000D03*
X187000000Y-94000000D03*
X162000000Y-55000000D03*
X143000000Y-67000000D03*
X122000000Y-76000000D03*
X177000000Y-85000000D03*
X102000000Y-64000000D03*
X192000000Y-75000000D03*
X181000000Y-89000000D03*
X188000000Y-51000000D03*
X177000000Y-74000000D03*
X100000000Y-57000000D03*
X100000000Y-132000000D03*
X153000000Y-67000000D03*
X120000000Y-107000000D03*
X132000000Y-62000000D03*
X152000000Y-103000000D03*
X192000000Y-95000000D03*
X186000000Y-100000000D03*
X186000000Y-63000000D03*
X180000000Y-87000000D03*
X101000000Y-68000000D03*
X126000000Y-113000000D03*
X146000000Y-107000000D03*
X107000000Y-79000000D03*
X163000000Y-66000000D03*
X185000000Y-112000000D03*
X130000000Y-117000000D03*
X118000000Y-67000000D03*
X132000000Y-76000000D03*
X191000000Y-139000000D03*
X102000000Y-84000000D03*
X141000000Y-109000000D03*
X185000000Y-132000000D03*
X118000000Y-112000000D03*
X194000000Y-56000000D03*
X146000000Y-134000000D03*
X121000000Y-56000000D03*
X157000000Y-123000000D03*
X127000000Y-91000000D03*
X165000000Y-142000000D03*
X181000000Y-102000000D03*
X163000000Y-86000000D03*
X163000000Y-81000000D03*
X188000000Y-72000000D03*
X127000000Y-97000000D03*
X118000000Y-136000000D03*
X176000000Y-113000000D03*
X195000000Y-136000000D03*
X102000000Y-73000000D03*
X171000000Y-136000000D03*
X153000000Y-97000000D03*
X171000000Y-76000000D03*
X153000000Y-116000000D03*
X157000000Y-59000000D03*
X166000000Y-129000000D03*
X111000000Y-85000000D03*
X121000000Y-110000000D03*
X119000000Y-71000000D03*
X142000000Y-74000000D03*
X163000000Y-92000000D03*
X112000000Y-141000000D03*
X106000000Y-81000000D03*
X133000000Y-61000000D03*
X132000000Y-90000000D03*
X172000000Y-76000000D03*
X124000000Y-97000000D03*
X195000000Y-72000000D03*
X176000000Y-104000000D03*
X191000000Y-138000000D03*
X141000000Y-76000000D03*
X108000000Y-111000000D03*
X186000000Y-82000000D03*
X129000000Y-66000000D03*
X121000000Y-82000000D03*
X132000000Y-126000000D03*
X177000000Y-117000000D03*
X164000000Y-86000000D03*
X147000000Y-90000000D03*
X185000000Y-141000000D03*
X190000000Y-126000000D03*
X136000000Y-60000000D03*
X118000000Y-97000000D03*
X165000000Y-76000000D03*
X142000000Y-130000000D03*
X112000000Y-124000000D03*
X151000000Y-82000000D03*
X186000000Y-137000000D03*
X149000000Y-127000000D03*
X187000000Y-62000000D03*
X117000000Y-108000000D03*
X140000000Y-81000000D03*
X145000000Y-112000000D03*
X194000000Y-121000000D03*
X151000000Y-51000000D03*
X137000000Y-134000000D03*
X181000000Y-94000000D03*
X123000000Y-117000000D03*
X103000000Y-57000000D03*
X184000000Y-51000000D03*
X177000000Y-90000000D03*
X195000000Y-117000000D03*
X157000000Y-101000000D03*
X121000000Y-137000000D03*
X147000000Y-100000000D03*
X132000000Y-97000000D03*
X130000000Y-136000000D03*
X149000000Y-72000000D03*
X186000000Y-60000000D03*
X173000000Y-136000000D03*
X166000000Y-113000000D03*
X162000000Y-124000000D03*
X141000000Y-135000000D03*
X184000000Y-97000000D03*
X195000000Y-127000000D03*
X142000000Y-84000000D03*
X187000000Y-72000000D03*
X171000000Y-95000000D03*
X141000000Y-127000000D03*
X131000000Y-125000000D03*
X115000000Y-66000000D03*
X141000000Y-132000000D03*
X142000000Y-139000000D03*
X187000000Y-106000000D03*
X146000000Y-63000000D03*
X136000000Y-79000000D03*
X107000000Y-115000000D03*
X176000000Y-134000000D03*
X109000000Y-71000000D03*
X129000000Y-112000000D03*
X102000000Y-58000000D03*
X172000000Y-88000000D03*
X132000000Y-81000000D03*
X142000000Y-101000000D03*
X166000000Y-127000000D03*
X186000000Y-102000000D03*
X113000000Y-122000000D03*
X126000000Y-94000000D03*
X109000000Y-77000000D03*
X107000000Y-123000000D03*
X99000000Y-122000000D03*
X101000000Y-51000000D03*
X164000000Y-137000000D03*
X146000000Y-59000000D03*
X100000000Y-112000000D03*
X187000000Y-50000000D03*
X185000000Y-117000000D03*
X164000000Y-52000000D03*
X177000000Y-119000000D03*
X111000000Y-81000000D03*
X152000000Y-131000000D03*
X157000000Y-66000000D03*
X102000000Y-62000000D03*
X107000000Y-114000000D03*
X154000000Y-52000000D03*
X109000000Y-126000000D03*
X98000000Y-116000000D03*
X141000000Y-77000000D03*
X157000000Y-144000000D03*
X177000000Y-125000000D03*
X150000000Y-76000000D03*
X191000000Y-81000000D03*
X188000000Y-76000000D03*
X171000000Y-98000000D03*
X172000000Y-96000000D03*
X115000000Y-82000000D03*
X146000000Y-116000000D03*
X111000000Y-84000000D03*
X160000000Y-52000000D03*
X102000000Y-102000000D03*
X162000000Y-64000000D03*
X183000000Y-126000000D03*
X157000000Y-103000000D03*
X187000000Y-80000000D03*
X152000000Y-63000000D03*
X134000000Y-76000000D03*
X186000000Y-133000000D03*
X157000000Y-105000000D03*
X127000000Y-105000000D03*
X143000000Y-132000000D03*
X117000000Y-50000000D03*
X102000000Y-48000000D03*
X104000000Y-67000000D03*
X177000000Y-80000000D03*
X112000000Y-139000000D03*
X116000000Y-52000000D03*
X136000000Y-101000000D03*
X170000000Y-56000000D03*
X131000000Y-117000000D03*
X156000000Y-94000000D03*
X128000000Y-86000000D03*
X164000000Y-106000000D03*
X121000000Y-71000000D03*
X101000000Y-122000000D03*
X149000000Y-136000000D03*
X116000000Y-88000000D03*
X126000000Y-77000000D03*
X181000000Y-111000000D03*
X151000000Y-124000000D03*
X138000000Y-127000000D03*
X119000000Y-52000000D03*
X163000000Y-121000000D03*
X122000000Y-113000000D03*
X187000000Y-138000000D03*
X187000000Y-137000000D03*
X187000000Y-57000000D03*
X129000000Y-121000000D03*
X171000000Y-104000000D03*
X190000000Y-92000000D03*
X122000000Y-83000000D03*
X120000000Y-86000000D03*
X157000000Y-128000000D03*
X154000000Y-101000000D03*
X182000000Y-60000000D03*
X169000000Y-66000000D03*
X147000000Y-134000000D03*
X127000000Y-104000000D03*
X150000000Y-117000000D03*
X157000000Y-61000000D03*
X126000000Y-92000000D03*
X167000000Y-53000000D03*
X167000000Y-48000000D03*
X118000000Y-101000000D03*
X104000000Y-142000000D03*
X177000000Y-73000000D03*
X127000000Y-64000000D03*
X107000000Y-66000000D03*
X190000000Y-52000000D03*
X179000000Y-126000000D03*
X130000000Y-52000000D03*
X112000000Y-117000000D03*
X190000000Y-67000000D03*
X99000000Y-137000000D03*
X163000000Y-122000000D03*
X151000000Y-77000000D03*
X102000000Y-141000000D03*
X131000000Y-77000000D03*
X166000000Y-82000000D03*
X147000000Y-135000000D03*
X121000000Y-119000000D03*
X167000000Y-75000000D03*
X142000000Y-77000000D03*
X151000000Y-116000000D03*
X140000000Y-116000000D03*
X124000000Y-66000000D03*
X176000000Y-94000000D03*
X173000000Y-131000000D03*
X176000000Y-61000000D03*
X126000000Y-62000000D03*
X162000000Y-69000000D03*
X141000000Y-117000000D03*
X171000000Y-68000000D03*
X113000000Y-136000000D03*
X126000000Y-84000000D03*
X182000000Y-116000000D03*
X126000000Y-128000000D03*
X152000000Y-142000000D03*
X156000000Y-104000000D03*
X132000000Y-53000000D03*
X188000000Y-126000000D03*
X106000000Y-105000000D03*
X166000000Y-118000000D03*
X116000000Y-78000000D03*
X139000000Y-112000000D03*
X174000000Y-96000000D03*
X122000000Y-122000000D03*
X164000000Y-66000000D03*
X181000000Y-137000000D03*
X190000000Y-131000000D03*
X137000000Y-67000000D03*
X168000000Y-136000000D03*
X121000000Y-80000000D03*
X131000000Y-93000000D03*
X152000000Y-126000000D03*
X122000000Y-119000000D03*
X188000000Y-101000000D03*
X115000000Y-137000000D03*
X165000000Y-62000000D03*
X123000000Y-62000000D03*
X136000000Y-119000000D03*
X121000000Y-121000000D03*
X128000000Y-121000000D03*
X134000000Y-102000000D03*
X121000000Y-84000000D03*
X148000000Y-132000000D03*
X139000000Y-127000000D03*
X135000000Y-102000000D03*
X112000000Y-129000000D03*
X138000000Y-67000000D03*
X152000000Y-127000000D03*
X140000000Y-92000000D03*
X166000000Y-80000000D03*
X153000000Y-121000000D03*
X161000000Y-108000000D03*
X155000000Y-96000000D03*
X185000000Y-86000000D03*
X149000000Y-77000000D03*
X176000000Y-72000000D03*
X124000000Y-122000000D03*
X146000000Y-111000000D03*
X172000000Y-73000000D03*
X152000000Y-80000000D03*
X181000000Y-106000000D03*
X126000000Y-114000000D03*
X188000000Y-56000000D03*
X132000000Y-143000000D03*
X109000000Y-61000000D03*
X184000000Y-137000000D03*
X106000000Y-131000000D03*
X111000000Y-75000000D03*
X111000000Y-130000000D03*
X111000000Y-113000000D03*
X117000000Y-51000000D03*
X157000000Y-132000000D03*
X176000000Y-132000000D03*
X112000000Y-62000000D03*
X132000000Y-57000000D03*
X156000000Y-109000000D03*
X148000000Y-107000000D03*
X166000000Y-121000000D03*
X191000000Y-54000000D03*
X101000000Y-130000000D03*
X129000000Y-137000000D03*
X155000000Y-126000000D03*
X172000000Y-116000000D03*
X183000000Y-127000000D03*
X130000000Y-81000000D03*
X131000000Y-128000000D03*
X99000000Y-77000000D03*
X120000000Y-91000000D03*
X130000000Y-137000000D03*
X191000000Y-96000000D03*
X102000000Y-118000000D03*
X98000000Y-87000000D03*
X177000000Y-105000000D03*
X181000000Y-124000000D03*
X101000000Y-78000000D03*
X146000000Y-78000000D03*
X100000000Y-72000000D03*
X167000000Y-119000000D03*
X136000000Y-66000000D03*
X174000000Y-62000000D03*
X152000000Y-87000000D03*
X124000000Y-126000000D03*
X166000000Y-89000000D03*
X141000000Y-68000000D03*
X154000000Y-77000000D03*
X100000000Y-122000000D03*
X122000000Y-69000000D03*
X107000000Y-104000000D03*
X128000000Y-87000000D03*
X191000000Y-130000000D03*
X107000000Y-99000000D03*
X107000000Y-75000000D03*
X114000000Y-121000000D03*
X126000000Y-124000000D03*
X102000000Y-65000000D03*
X126000000Y-118000000D03*
X167000000Y-86000000D03*
X170000000Y-57000000D03*
X167000000Y-107000000D03*
X192000000Y-59000000D03*
X171000000Y-86000000D03*
X136000000Y-92000000D03*
X187000000Y-51000000D03*
X101000000Y-70000000D03*
X157000000Y-118000000D03*
X117000000Y-80000000D03*
X119000000Y-116000000D03*
X142000000Y-83000000D03*
X137000000Y-90000000D03*
X101000000Y-113000000D03*
X195000000Y-71000000D03*
X187000000Y-93000000D03*
X131000000Y-63000000D03*
X156000000Y-91000000D03*
X161000000Y-139000000D03*
X121000000Y-145000000D03*
X141000000Y-63000000D03*
X152000000Y-107000000D03*
X121000000Y-118000000D03*
X122000000Y-130000000D03*
X117000000Y-89000000D03*
X170000000Y-86000000D03*
X152000000Y-83000000D03*
X181000000Y-69000000D03*
X169000000Y-112000000D03*
X101000000Y-76000000D03*
X106000000Y-127000000D03*
X123000000Y-136000000D03*
X181000000Y-108000000D03*
X134000000Y-96000000D03*
X131000000Y-131000000D03*
X192000000Y-92000000D03*
X112000000Y-120000000D03*
X106000000Y-97000000D03*
X131000000Y-138000000D03*
X183000000Y-142000000D03*
X171000000Y-55000000D03*
X125000000Y-67000000D03*
X191000000Y-51000000D03*
X121000000Y-48000000D03*
X152000000Y-57000000D03*
X138000000Y-136000000D03*
X157000000Y-139000000D03*
X185000000Y-96000000D03*
X107000000Y-62000000D03*
X99000000Y-101000000D03*
X126000000Y-99000000D03*
X151000000Y-135000000D03*
X137000000Y-145000000D03*
X121000000Y-129000000D03*
X114000000Y-66000000D03*
X131000000Y-139000000D03*
X146000000Y-83000000D03*
X165000000Y-57000000D03*
X140000000Y-121000000D03*
X184000000Y-71000000D03*
X144000000Y-62000000D03*
X186000000Y-50000000D03*
X113000000Y-107000000D03*
X157000000Y-71000000D03*
X176000000Y-95000000D03*
X143000000Y-76000000D03*
X178000000Y-121000000D03*
X176000000Y-140000000D03*
X151000000Y-133000000D03*
X106000000Y-51000000D03*
X180000000Y-102000000D03*
X162000000Y-136000000D03*
X137000000Y-97000000D03*
X165000000Y-51000000D03*
X132000000Y-131000000D03*
X164000000Y-81000000D03*
X187000000Y-134000000D03*
X186000000Y-74000000D03*
X130000000Y-61000000D03*
X146000000Y-123000000D03*
X177000000Y-67000000D03*
X150000000Y-142000000D03*
X110000000Y-62000000D03*
X167000000Y-96000000D03*
X174000000Y-126000000D03*
X121000000Y-74000000D03*
X137000000Y-55000000D03*
X146000000Y-130000000D03*
X122000000Y-132000000D03*
X143000000Y-57000000D03*
X142000000Y-137000000D03*
X157000000Y-116000000D03*
X121000000Y-73000000D03*
X182000000Y-123000000D03*
X161000000Y-97000000D03*
X106000000Y-87000000D03*
X151000000Y-56000000D03*
X192000000Y-91000000D03*
X144000000Y-132000000D03*
X183000000Y-136000000D03*
X163000000Y-56000000D03*
X138000000Y-77000000D03*
X129000000Y-77000000D03*
X139000000Y-77000000D03*
X111000000Y-101000000D03*
X151000000Y-58000000D03*
X136000000Y-50000000D03*
X166000000Y-93000000D03*
X185000000Y-137000000D03*
X127000000Y-140000000D03*
X169000000Y-141000000D03*
X132000000Y-82000000D03*
X159000000Y-76000000D03*
X111000000Y-67000000D03*
X191000000Y-135000000D03*
X151000000Y-91000000D03*
X146000000Y-73000000D03*
X133000000Y-101000000D03*
X156000000Y-50000000D03*
X144000000Y-92000000D03*
X109000000Y-87000000D03*
X120000000Y-92000000D03*
X157000000Y-111000000D03*
X176000000Y-111000000D03*
X127000000Y-65000000D03*
X120000000Y-101000000D03*
X169000000Y-56000000D03*
X107000000Y-142000000D03*
X164000000Y-71000000D03*
X109000000Y-142000000D03*
X132000000Y-79000000D03*
X174000000Y-121000000D03*
X130000000Y-77000000D03*
X181000000Y-72000000D03*
X163000000Y-62000000D03*
X102000000Y-67000000D03*
X165000000Y-96000000D03*
X169000000Y-101000000D03*
X143000000Y-122000000D03*
X178000000Y-101000000D03*
X111000000Y-74000000D03*
X126000000Y-115000000D03*
X123000000Y-51000000D03*
X177000000Y-123000000D03*
X99000000Y-106000000D03*
X181000000Y-86000000D03*
X117000000Y-101000000D03*
X119000000Y-86000000D03*
X141000000Y-106000000D03*
X128000000Y-61000000D03*
X171000000Y-99000000D03*
X168000000Y-51000000D03*
X152000000Y-81000000D03*
X177000000Y-71000000D03*
X102000000Y-72000000D03*
X99000000Y-112000000D03*
X104000000Y-61000000D03*
X171000000Y-51000000D03*
X136000000Y-68000000D03*
X188000000Y-141000000D03*
X118000000Y-132000000D03*
X139000000Y-72000000D03*
X156000000Y-52000000D03*
X192000000Y-89000000D03*
X145000000Y-121000000D03*
X175000000Y-71000000D03*
X117000000Y-70000000D03*
X146000000Y-120000000D03*
X127000000Y-132000000D03*
X109000000Y-67000000D03*
X153000000Y-117000000D03*
X106000000Y-144000000D03*
X180000000Y-141000000D03*
X193000000Y-117000000D03*
X188000000Y-62000000D03*
X146000000Y-137000000D03*
X133000000Y-102000000D03*
X192000000Y-48000000D03*
X167000000Y-131000000D03*
X162000000Y-132000000D03*
X125000000Y-122000000D03*
X106000000Y-123000000D03*
X171000000Y-81000000D03*
X126000000Y-102000000D03*
X194000000Y-92000000D03*
X122000000Y-91000000D03*
X158000000Y-111000000D03*
X161000000Y-62000000D03*
X107000000Y-95000000D03*
X140000000Y-87000000D03*
X167000000Y-79000000D03*
X179000000Y-127000000D03*
X118000000Y-82000000D03*
X181000000Y-68000000D03*
X172000000Y-94000000D03*
X153000000Y-106000000D03*
X123000000Y-56000000D03*
X128000000Y-122000000D03*
X157000000Y-51000000D03*
X157000000Y-63000000D03*
X115000000Y-72000000D03*
X195000000Y-92000000D03*
X104000000Y-77000000D03*
X102000000Y-80000000D03*
X113000000Y-72000000D03*
X176000000Y-71000000D03*
X101000000Y-133000000D03*
X157000000Y-131000000D03*
X124000000Y-121000000D03*
X128000000Y-102000000D03*
X161000000Y-117000000D03*
X177000000Y-126000000D03*
X137000000Y-60000000D03*
X128000000Y-107000000D03*
X128000000Y-57000000D03*
X141000000Y-145000000D03*
X141000000Y-111000000D03*
X137000000Y-123000000D03*
X106000000Y-106000000D03*
X178000000Y-116000000D03*
X101000000Y-80000000D03*
X117000000Y-103000000D03*
X102000000Y-79000000D03*
X166000000Y-67000000D03*
X168000000Y-67000000D03*
X151000000Y-145000000D03*
X138000000Y-121000000D03*
X131000000Y-90000000D03*
X158000000Y-107000000D03*
X171000000Y-92000000D03*
X176000000Y-129000000D03*
X146000000Y-96000000D03*
X120000000Y-136000000D03*
X193000000Y-107000000D03*
X151000000Y-61000000D03*
X158000000Y-52000000D03*
X124000000Y-137000000D03*
X155000000Y-112000000D03*
X182000000Y-122000000D03*
X140000000Y-82000000D03*
X136000000Y-55000000D03*
X112000000Y-136000000D03*
X116000000Y-76000000D03*
X106000000Y-108000000D03*
X162000000Y-103000000D03*
X162000000Y-79000000D03*
X162000000Y-68000000D03*
X111000000Y-100000000D03*
X157000000Y-134000000D03*
X130000000Y-97000000D03*
X126000000Y-105000000D03*
X147000000Y-62000000D03*
X165000000Y-137000000D03*
X117000000Y-54000000D03*
X102000000Y-91000000D03*
X147000000Y-70000000D03*
X166000000Y-111000000D03*
X131000000Y-71000000D03*
X192000000Y-94000000D03*
X117000000Y-104000000D03*
X186000000Y-105000000D03*
X161000000Y-93000000D03*
X181000000Y-60000000D03*
X103000000Y-62000000D03*
X142000000Y-108000000D03*
X175000000Y-127000000D03*
X122000000Y-143000000D03*
X143000000Y-81000000D03*
X157000000Y-143000000D03*
X113000000Y-132000000D03*
X146000000Y-98000000D03*
X162000000Y-61000000D03*
X141000000Y-57000000D03*
X149000000Y-81000000D03*
X115000000Y-87000000D03*
X122000000Y-144000000D03*
X128000000Y-91000000D03*
X194000000Y-137000000D03*
X123000000Y-137000000D03*
X177000000Y-102000000D03*
X136000000Y-116000000D03*
X176000000Y-124000000D03*
X141000000Y-101000000D03*
X104000000Y-87000000D03*
X109000000Y-81000000D03*
X156000000Y-102000000D03*
X112000000Y-110000000D03*
X118000000Y-122000000D03*
X135000000Y-57000000D03*
X132000000Y-48000000D03*
X172000000Y-137000000D03*
X101000000Y-110000000D03*
X150000000Y-122000000D03*
X181000000Y-134000000D03*
X155000000Y-101000000D03*
X171000000Y-103000000D03*
X101000000Y-73000000D03*
X104000000Y-112000000D03*
X156000000Y-58000000D03*
X104000000Y-81000000D03*
X154000000Y-71000000D03*
X150000000Y-62000000D03*
X138000000Y-62000000D03*
X115000000Y-86000000D03*
X156000000Y-74000000D03*
X181000000Y-74000000D03*
X171000000Y-67000000D03*
X168000000Y-142000000D03*
X124000000Y-81000000D03*
X123000000Y-122000000D03*
X185000000Y-52000000D03*
X181000000Y-79000000D03*
X157000000Y-110000000D03*
X107000000Y-129000000D03*
X111000000Y-144000000D03*
X166000000Y-50000000D03*
X121000000Y-102000000D03*
X131000000Y-55000000D03*
X157000000Y-107000000D03*
X192000000Y-109000000D03*
X126000000Y-103000000D03*
X121000000Y-66000000D03*
X169000000Y-126000000D03*
X112000000Y-84000000D03*
X172000000Y-65000000D03*
X187000000Y-100000000D03*
X167000000Y-106000000D03*
X123000000Y-106000000D03*
X139000000Y-111000000D03*
X167000000Y-95000000D03*
X152000000Y-94000000D03*
X146000000Y-66000000D03*
X151000000Y-54000000D03*
X116000000Y-92000000D03*
X192000000Y-121000000D03*
X180000000Y-116000000D03*
X181000000Y-78000000D03*
X150000000Y-92000000D03*
X106000000Y-80000000D03*
X158000000Y-127000000D03*
X107000000Y-101000000D03*
X135000000Y-101000000D03*
X172000000Y-56000000D03*
X157000000Y-65000000D03*
X117000000Y-135000000D03*
X161000000Y-59000000D03*
X144000000Y-112000000D03*
X116000000Y-139000000D03*
X142000000Y-90000000D03*
X109000000Y-56000000D03*
X190000000Y-142000000D03*
X143000000Y-71000000D03*
X117000000Y-100000000D03*
X178000000Y-97000000D03*
X194000000Y-62000000D03*
X112000000Y-80000000D03*
X136000000Y-87000000D03*
X121000000Y-142000000D03*
X191000000Y-114000000D03*
X136000000Y-67000000D03*
X100000000Y-71000000D03*
X163000000Y-117000000D03*
X188000000Y-136000000D03*
X111000000Y-90000000D03*
X181000000Y-52000000D03*
X136000000Y-89000000D03*
X173000000Y-126000000D03*
X170000000Y-87000000D03*
X139000000Y-96000000D03*
X171000000Y-56000000D03*
X168000000Y-131000000D03*
X168000000Y-72000000D03*
X137000000Y-125000000D03*
X126000000Y-88000000D03*
X122000000Y-106000000D03*
X153000000Y-57000000D03*
X127000000Y-135000000D03*
X177000000Y-113000000D03*
X116000000Y-84000000D03*
X134000000Y-51000000D03*
X171000000Y-112000000D03*
X108000000Y-117000000D03*
X113000000Y-121000000D03*
X146000000Y-64000000D03*
X146000000Y-70000000D03*
X164000000Y-96000000D03*
X188000000Y-116000000D03*
X151000000Y-104000000D03*
X182000000Y-130000000D03*
X106000000Y-50000000D03*
X182000000Y-62000000D03*
X186000000Y-127000000D03*
X111000000Y-48000000D03*
X115000000Y-111000000D03*
X126000000Y-91000000D03*
X98000000Y-92000000D03*
X118000000Y-137000000D03*
X111000000Y-72000000D03*
X162000000Y-97000000D03*
X136000000Y-126000000D03*
X167000000Y-88000000D03*
X107000000Y-85000000D03*
X159000000Y-136000000D03*
X100000000Y-96000000D03*
X127000000Y-136000000D03*
X146000000Y-87000000D03*
X122000000Y-48000000D03*
X185000000Y-102000000D03*
X152000000Y-73000000D03*
X106000000Y-94000000D03*
X127000000Y-109000000D03*
X147000000Y-67000000D03*
X173000000Y-107000000D03*
X195000000Y-137000000D03*
X183000000Y-132000000D03*
X126000000Y-72000000D03*
X166000000Y-55000000D03*
X152000000Y-84000000D03*
X107000000Y-92000000D03*
X151000000Y-96000000D03*
X169000000Y-77000000D03*
X137000000Y-132000000D03*
X141000000Y-69000000D03*
X177000000Y-98000000D03*
X180000000Y-96000000D03*
X149000000Y-111000000D03*
X167000000Y-133000000D03*
X144000000Y-101000000D03*
X188000000Y-97000000D03*
X156000000Y-116000000D03*
X151000000Y-120000000D03*
X158000000Y-102000000D03*
X118000000Y-131000000D03*
X126000000Y-145000000D03*
X132000000Y-91000000D03*
X177000000Y-60000000D03*
X184000000Y-82000000D03*
X172000000Y-53000000D03*
X187000000Y-132000000D03*
X187000000Y-110000000D03*
X143000000Y-51000000D03*
X179000000Y-136000000D03*
X127000000Y-75000000D03*
X188000000Y-96000000D03*
X157000000Y-115000000D03*
X122000000Y-107000000D03*
X107000000Y-121000000D03*
X162000000Y-60000000D03*
X135000000Y-121000000D03*
X128000000Y-137000000D03*
X126000000Y-82000000D03*
X111000000Y-111000000D03*
X161000000Y-88000000D03*
X142000000Y-115000000D03*
X136000000Y-115000000D03*
X151000000Y-49000000D03*
X193000000Y-56000000D03*
X117000000Y-131000000D03*
X149000000Y-117000000D03*
X187000000Y-81000000D03*
X176000000Y-97000000D03*
X191000000Y-142000000D03*
X182000000Y-110000000D03*
X116000000Y-130000000D03*
X154000000Y-102000000D03*
X131000000Y-49000000D03*
X192000000Y-137000000D03*
X129000000Y-71000000D03*
X134000000Y-72000000D03*
X169000000Y-61000000D03*
X182000000Y-114000000D03*
X162000000Y-75000000D03*
X147000000Y-124000000D03*
X115000000Y-102000000D03*
X172000000Y-144000000D03*
X102000000Y-70000000D03*
X145000000Y-107000000D03*
X138000000Y-86000000D03*
X100000000Y-116000000D03*
X163000000Y-67000000D03*
X192000000Y-90000000D03*
X102000000Y-116000000D03*
X181000000Y-65000000D03*
X114000000Y-61000000D03*
X137000000Y-91000000D03*
X173000000Y-82000000D03*
X158000000Y-116000000D03*
X148000000Y-51000000D03*
X187000000Y-141000000D03*
X142000000Y-72000000D03*
X162000000Y-107000000D03*
X148000000Y-117000000D03*
X126000000Y-107000000D03*
X132000000Y-129000000D03*
X186000000Y-66000000D03*
X169000000Y-122000000D03*
X176000000Y-59000000D03*
X155000000Y-62000000D03*
X182000000Y-69000000D03*
X167000000Y-132000000D03*
X119000000Y-127000000D03*
X166000000Y-107000000D03*
X148000000Y-67000000D03*
X123000000Y-132000000D03*
X177000000Y-109000000D03*
X108000000Y-52000000D03*
X126000000Y-101000000D03*
X102000000Y-96000000D03*
X166000000Y-54000000D03*
X172000000Y-85000000D03*
X141000000Y-61000000D03*
X191000000Y-97000000D03*
X122000000Y-88000000D03*
X134000000Y-126000000D03*
X175000000Y-91000000D03*
X191000000Y-132000000D03*
X122000000Y-66000000D03*
X179000000Y-107000000D03*
X163000000Y-96000000D03*
X151000000Y-71000000D03*
X187000000Y-131000000D03*
X190000000Y-132000000D03*
X100000000Y-136000000D03*
X181000000Y-92000000D03*
X114000000Y-126000000D03*
X101000000Y-85000000D03*
X108000000Y-127000000D03*
X188000000Y-86000000D03*
X159000000Y-116000000D03*
X186000000Y-64000000D03*
X186000000Y-119000000D03*
X166000000Y-63000000D03*
X127000000Y-53000000D03*
X112000000Y-101000000D03*
X162000000Y-85000000D03*
X123000000Y-82000000D03*
X171000000Y-77000000D03*
X112000000Y-92000000D03*
X146000000Y-62000000D03*
X115000000Y-127000000D03*
X123000000Y-52000000D03*
X162000000Y-114000000D03*
X188000000Y-67000000D03*
X101000000Y-111000000D03*
X124000000Y-72000000D03*
X110000000Y-81000000D03*
X146000000Y-71000000D03*
X165000000Y-82000000D03*
X101000000Y-140000000D03*
X162000000Y-128000000D03*
X105000000Y-102000000D03*
X186000000Y-144000000D03*
X161000000Y-69000000D03*
X186000000Y-57000000D03*
X157000000Y-49000000D03*
X161000000Y-130000000D03*
X126000000Y-53000000D03*
X147000000Y-141000000D03*
X192000000Y-69000000D03*
X171000000Y-135000000D03*
X152000000Y-125000000D03*
X147000000Y-108000000D03*
X132000000Y-121000000D03*
X134000000Y-56000000D03*
X141000000Y-138000000D03*
X129000000Y-76000000D03*
X142000000Y-120000000D03*
X162000000Y-100000000D03*
X148000000Y-97000000D03*
X106000000Y-103000000D03*
X150000000Y-87000000D03*
X165000000Y-81000000D03*
X175000000Y-56000000D03*
X187000000Y-111000000D03*
X131000000Y-111000000D03*
X161000000Y-91000000D03*
X181000000Y-87000000D03*
X181000000Y-100000000D03*
X136000000Y-133000000D03*
X182000000Y-78000000D03*
X127000000Y-127000000D03*
X155000000Y-92000000D03*
X123000000Y-61000000D03*
X162000000Y-51000000D03*
X158000000Y-71000000D03*
X121000000Y-141000000D03*
X121000000Y-81000000D03*
X168000000Y-96000000D03*
X121000000Y-89000000D03*
X106000000Y-116000000D03*
X116000000Y-134000000D03*
X168000000Y-82000000D03*
X112000000Y-115000000D03*
X112000000Y-125000000D03*
X187000000Y-73000000D03*
X131000000Y-126000000D03*
X181000000Y-120000000D03*
X171000000Y-115000000D03*
X186000000Y-55000000D03*
X110000000Y-131000000D03*
X116000000Y-63000000D03*
X163000000Y-141000000D03*
X190000000Y-141000000D03*
X150000000Y-72000000D03*
X121000000Y-55000000D03*
X186000000Y-72000000D03*
X152000000Y-100000000D03*
X151000000Y-144000000D03*
X163000000Y-61000000D03*
X152000000Y-144000000D03*
X131000000Y-136000000D03*
X116000000Y-65000000D03*
X111000000Y-61000000D03*
X126000000Y-96000000D03*
X118000000Y-111000000D03*
X157000000Y-97000000D03*
X157000000Y-140000000D03*
X122000000Y-75000000D03*
X165000000Y-132000000D03*
X166000000Y-115000000D03*
X184000000Y-91000000D03*
X154000000Y-66000000D03*
X156000000Y-103000000D03*
X181000000Y-54000000D03*
X134000000Y-107000000D03*
X178000000Y-61000000D03*
X141000000Y-112000000D03*
X147000000Y-142000000D03*
X166000000Y-49000000D03*
X99000000Y-66000000D03*
X151000000Y-129000000D03*
X192000000Y-128000000D03*
X141000000Y-137000000D03*
X156000000Y-139000000D03*
X152000000Y-66000000D03*
X161000000Y-84000000D03*
X176000000Y-127000000D03*
X163000000Y-136000000D03*
X158000000Y-87000000D03*
X173000000Y-91000000D03*
X166000000Y-138000000D03*
X167000000Y-61000000D03*
X132000000Y-66000000D03*
X134000000Y-66000000D03*
X148000000Y-76000000D03*
X117000000Y-85000000D03*
X155000000Y-106000000D03*
X111000000Y-77000000D03*
X172000000Y-135000000D03*
X143000000Y-56000000D03*
X186000000Y-123000000D03*
X167000000Y-80000000D03*
X125000000Y-51000000D03*
X171000000Y-84000000D03*
X107000000Y-105000000D03*
X157000000Y-96000000D03*
X152000000Y-64000000D03*
X193000000Y-57000000D03*
X156000000Y-128000000D03*
X181000000Y-143000000D03*
X122000000Y-128000000D03*
X132000000Y-132000000D03*
X116000000Y-70000000D03*
X156000000Y-119000000D03*
X181000000Y-123000000D03*
X195000000Y-56000000D03*
X151000000Y-114000000D03*
X106000000Y-95000000D03*
X154000000Y-127000000D03*
X126000000Y-119000000D03*
X166000000Y-88000000D03*
X106000000Y-125000000D03*
X154000000Y-142000000D03*
X184000000Y-132000000D03*
X154000000Y-126000000D03*
X186000000Y-91000000D03*
X117000000Y-76000000D03*
X99000000Y-81000000D03*
X177000000Y-145000000D03*
X189000000Y-126000000D03*
X184000000Y-111000000D03*
X115000000Y-141000000D03*
X154000000Y-62000000D03*
X141000000Y-80000000D03*
X193000000Y-91000000D03*
X191000000Y-100000000D03*
X188000000Y-82000000D03*
X110000000Y-51000000D03*
X121000000Y-108000000D03*
X188000000Y-142000000D03*
X108000000Y-57000000D03*
X119000000Y-61000000D03*
X159000000Y-137000000D03*
X143000000Y-52000000D03*
X151000000Y-121000000D03*
X170000000Y-71000000D03*
X107000000Y-86000000D03*
X113000000Y-62000000D03*
X109000000Y-86000000D03*
X167000000Y-94000000D03*
X147000000Y-121000000D03*
X118000000Y-141000000D03*
X112000000Y-109000000D03*
X143000000Y-142000000D03*
X135000000Y-92000000D03*
X158000000Y-72000000D03*
X140000000Y-51000000D03*
X102000000Y-119000000D03*
X146000000Y-100000000D03*
X100000000Y-51000000D03*
X166000000Y-142000000D03*
X195000000Y-107000000D03*
X170000000Y-96000000D03*
X117000000Y-128000000D03*
X126000000Y-132000000D03*
X176000000Y-68000000D03*
X175000000Y-136000000D03*
X141000000Y-64000000D03*
X177000000Y-55000000D03*
X156000000Y-113000000D03*
X117000000Y-129000000D03*
X157000000Y-55000000D03*
X131000000Y-84000000D03*
X156000000Y-112000000D03*
X156000000Y-86000000D03*
X147000000Y-94000000D03*
X111000000Y-76000000D03*
X117000000Y-71000000D03*
X106000000Y-96000000D03*
X146000000Y-85000000D03*
X167000000Y-125000000D03*
X182000000Y-102000000D03*
X133000000Y-66000000D03*
X100000000Y-62000000D03*
X151000000Y-137000000D03*
X126000000Y-116000000D03*
X101000000Y-100000000D03*
X112000000Y-131000000D03*
X111000000Y-102000000D03*
X192000000Y-106000000D03*
X110000000Y-91000000D03*
X142000000Y-67000000D03*
X168000000Y-86000000D03*
X181000000Y-110000000D03*
X133000000Y-141000000D03*
X106000000Y-88000000D03*
X162000000Y-102000000D03*
X190000000Y-82000000D03*
X141000000Y-98000000D03*
X141000000Y-99000000D03*
X135000000Y-116000000D03*
X111000000Y-79000000D03*
X152000000Y-99000000D03*
X164000000Y-92000000D03*
X131000000Y-59000000D03*
X190000000Y-117000000D03*
X105000000Y-101000000D03*
X127000000Y-123000000D03*
X122000000Y-89000000D03*
X173000000Y-56000000D03*
X122000000Y-52000000D03*
X177000000Y-79000000D03*
X180000000Y-142000000D03*
X122000000Y-80000000D03*
X166000000Y-69000000D03*
X103000000Y-91000000D03*
X132000000Y-122000000D03*
X162000000Y-72000000D03*
X177000000Y-91000000D03*
X102000000Y-76000000D03*
X147000000Y-131000000D03*
X119000000Y-97000000D03*
X192000000Y-98000000D03*
X176000000Y-120000000D03*
X126000000Y-61000000D03*
X119000000Y-136000000D03*
X176000000Y-48000000D03*
X187000000Y-145000000D03*
X176000000Y-128000000D03*
X161000000Y-72000000D03*
X148000000Y-92000000D03*
X159000000Y-101000000D03*
X124000000Y-132000000D03*
X130000000Y-87000000D03*
X112000000Y-103000000D03*
X187000000Y-130000000D03*
X104000000Y-116000000D03*
X162000000Y-142000000D03*
X107000000Y-78000000D03*
X136000000Y-56000000D03*
X113000000Y-142000000D03*
X172000000Y-82000000D03*
X141000000Y-70000000D03*
X184000000Y-117000000D03*
X121000000Y-70000000D03*
X156000000Y-54000000D03*
X140000000Y-66000000D03*
X116000000Y-107000000D03*
X119000000Y-76000000D03*
X136000000Y-52000000D03*
X140000000Y-62000000D03*
X122000000Y-73000000D03*
X192000000Y-111000000D03*
X123000000Y-102000000D03*
X150000000Y-96000000D03*
X151000000Y-86000000D03*
X195000000Y-76000000D03*
X193000000Y-72000000D03*
X148000000Y-101000000D03*
X165000000Y-91000000D03*
X104000000Y-106000000D03*
X104000000Y-102000000D03*
X172000000Y-52000000D03*
X101000000Y-102000000D03*
X162000000Y-57000000D03*
X112000000Y-86000000D03*
X147000000Y-133000000D03*
X130000000Y-101000000D03*
X132000000Y-54000000D03*
X98000000Y-142000000D03*
X110000000Y-107000000D03*
X171000000Y-49000000D03*
X175000000Y-122000000D03*
X102000000Y-115000000D03*
X176000000Y-137000000D03*
X132000000Y-116000000D03*
X163000000Y-107000000D03*
X171000000Y-89000000D03*
X147000000Y-68000000D03*
X183000000Y-61000000D03*
X112000000Y-60000000D03*
X106000000Y-114000000D03*
X148000000Y-121000000D03*
X148000000Y-66000000D03*
X161000000Y-123000000D03*
X111000000Y-94000000D03*
X194000000Y-81000000D03*
X189000000Y-117000000D03*
X184000000Y-66000000D03*
X182000000Y-71000000D03*
X121000000Y-93000000D03*
X148000000Y-86000000D03*
X141000000Y-119000000D03*
X149000000Y-106000000D03*
X131000000Y-78000000D03*
X145000000Y-87000000D03*
X187000000Y-84000000D03*
X117000000Y-126000000D03*
X116000000Y-110000000D03*
X131000000Y-119000000D03*
X171000000Y-75000000D03*
X107000000Y-111000000D03*
X103000000Y-126000000D03*
X98000000Y-132000000D03*
X147000000Y-51000000D03*
X122000000Y-140000000D03*
X179000000Y-62000000D03*
X139000000Y-51000000D03*
X116000000Y-111000000D03*
X132000000Y-100000000D03*
X129000000Y-141000000D03*
X189000000Y-116000000D03*
X117000000Y-68000000D03*
X187000000Y-120000000D03*
X189000000Y-127000000D03*
X176000000Y-118000000D03*
X181000000Y-136000000D03*
X182000000Y-121000000D03*
X184000000Y-106000000D03*
X161000000Y-68000000D03*
X132000000Y-86000000D03*
X166000000Y-56000000D03*
X182000000Y-140000000D03*
X117000000Y-99000000D03*
X147000000Y-56000000D03*
X102000000Y-86000000D03*
X147000000Y-49000000D03*
X111000000Y-107000000D03*
X101000000Y-61000000D03*
X114000000Y-91000000D03*
X126000000Y-52000000D03*
X146000000Y-110000000D03*
X126000000Y-100000000D03*
X178000000Y-142000000D03*
X131000000Y-54000000D03*
X189000000Y-102000000D03*
X139000000Y-141000000D03*
X118000000Y-87000000D03*
X187000000Y-104000000D03*
X142000000Y-127000000D03*
X134000000Y-117000000D03*
X162000000Y-81000000D03*
X118000000Y-91000000D03*
X161000000Y-85000000D03*
X167000000Y-108000000D03*
X105000000Y-67000000D03*
X156000000Y-71000000D03*
X120000000Y-56000000D03*
X125000000Y-137000000D03*
X116000000Y-113000000D03*
X101000000Y-50000000D03*
X146000000Y-128000000D03*
X183000000Y-116000000D03*
X125000000Y-62000000D03*
X114000000Y-81000000D03*
X157000000Y-89000000D03*
X106000000Y-110000000D03*
X147000000Y-54000000D03*
X133000000Y-121000000D03*
X108000000Y-116000000D03*
X123000000Y-77000000D03*
X121000000Y-116000000D03*
X127000000Y-55000000D03*
X186000000Y-97000000D03*
X99000000Y-61000000D03*
X120000000Y-71000000D03*
X191000000Y-82000000D03*
X184000000Y-72000000D03*
X117000000Y-102000000D03*
X151000000Y-118000000D03*
X137000000Y-87000000D03*
X188000000Y-106000000D03*
X125000000Y-131000000D03*
X114000000Y-141000000D03*
X172000000Y-145000000D03*
X171000000Y-80000000D03*
X146000000Y-91000000D03*
X153000000Y-52000000D03*
X151000000Y-117000000D03*
X180000000Y-122000000D03*
X117000000Y-77000000D03*
X119000000Y-57000000D03*
X182000000Y-90000000D03*
X146000000Y-89000000D03*
X193000000Y-82000000D03*
X103000000Y-127000000D03*
X162000000Y-118000000D03*
X102000000Y-69000000D03*
X112000000Y-108000000D03*
X151000000Y-84000000D03*
X146000000Y-122000000D03*
X137000000Y-63000000D03*
X192000000Y-70000000D03*
X112000000Y-69000000D03*
X175000000Y-62000000D03*
X142000000Y-122000000D03*
X147000000Y-113000000D03*
X112000000Y-135000000D03*
X192000000Y-131000000D03*
X183000000Y-111000000D03*
X161000000Y-102000000D03*
X186000000Y-140000000D03*
X185000000Y-121000000D03*
X181000000Y-63000000D03*
X112000000Y-64000000D03*
X186000000Y-90000000D03*
X104000000Y-66000000D03*
X180000000Y-86000000D03*
X112000000Y-58000000D03*
X191000000Y-88000000D03*
X142000000Y-51000000D03*
X121000000Y-117000000D03*
X194000000Y-76000000D03*
X162000000Y-108000000D03*
X162000000Y-98000000D03*
X137000000Y-139000000D03*
X168000000Y-81000000D03*
X132000000Y-112000000D03*
X192000000Y-118000000D03*
X167000000Y-136000000D03*
X112000000Y-49000000D03*
X151000000Y-99000000D03*
X184000000Y-87000000D03*
X182000000Y-77000000D03*
X186000000Y-125000000D03*
X114000000Y-92000000D03*
X108000000Y-122000000D03*
X99000000Y-52000000D03*
X148000000Y-77000000D03*
X142000000Y-94000000D03*
X125000000Y-102000000D03*
X152000000Y-145000000D03*
X171000000Y-93000000D03*
X122000000Y-72000000D03*
X164000000Y-61000000D03*
X111000000Y-51000000D03*
X156000000Y-129000000D03*
X171000000Y-72000000D03*
X137000000Y-126000000D03*
X187000000Y-113000000D03*
X113000000Y-52000000D03*
X191000000Y-105000000D03*
X182000000Y-53000000D03*
X189000000Y-122000000D03*
X121000000Y-106000000D03*
X125000000Y-52000000D03*
X189000000Y-82000000D03*
X166000000Y-96000000D03*
X156000000Y-142000000D03*
X149000000Y-112000000D03*
X192000000Y-126000000D03*
X98000000Y-97000000D03*
X142000000Y-91000000D03*
X182000000Y-52000000D03*
X145000000Y-56000000D03*
X181000000Y-105000000D03*
X149000000Y-86000000D03*
X185000000Y-126000000D03*
X169000000Y-71000000D03*
X177000000Y-87000000D03*
X132000000Y-51000000D03*
X180000000Y-92000000D03*
X187000000Y-96000000D03*
X146000000Y-48000000D03*
X151000000Y-79000000D03*
X106000000Y-61000000D03*
X177000000Y-100000000D03*
X98000000Y-76000000D03*
X130000000Y-56000000D03*
X142000000Y-133000000D03*
X169000000Y-57000000D03*
X133000000Y-142000000D03*
X189000000Y-142000000D03*
X122000000Y-104000000D03*
X112000000Y-82000000D03*
X177000000Y-64000000D03*
X181000000Y-66000000D03*
X162000000Y-95000000D03*
X178000000Y-132000000D03*
X175000000Y-66000000D03*
X192000000Y-138000000D03*
X141000000Y-100000000D03*
X165000000Y-77000000D03*
X128000000Y-101000000D03*
X115000000Y-92000000D03*
X159000000Y-112000000D03*
X107000000Y-51000000D03*
X111000000Y-49000000D03*
X173000000Y-67000000D03*
X177000000Y-127000000D03*
X142000000Y-113000000D03*
X169000000Y-107000000D03*
X99000000Y-127000000D03*
X173000000Y-66000000D03*
X100000000Y-111000000D03*
X137000000Y-49000000D03*
X169000000Y-102000000D03*
X152000000Y-60000000D03*
X146000000Y-115000000D03*
X107000000Y-108000000D03*
X127000000Y-106000000D03*
X107000000Y-71000000D03*
X157000000Y-106000000D03*
X187000000Y-58000000D03*
X126000000Y-109000000D03*
X161000000Y-127000000D03*
X106000000Y-101000000D03*
X118000000Y-52000000D03*
X139000000Y-57000000D03*
X106000000Y-100000000D03*
X138000000Y-71000000D03*
X191000000Y-66000000D03*
X126000000Y-111000000D03*
X115000000Y-126000000D03*
X140000000Y-117000000D03*
X182000000Y-128000000D03*
X166000000Y-61000000D03*
X181000000Y-93000000D03*
X195000000Y-87000000D03*
X131000000Y-134000000D03*
X106000000Y-69000000D03*
X132000000Y-141000000D03*
X151000000Y-66000000D03*
X172000000Y-107000000D03*
X138000000Y-56000000D03*
X189000000Y-72000000D03*
X192000000Y-54000000D03*
X172000000Y-78000000D03*
X190000000Y-107000000D03*
X156000000Y-55000000D03*
X155000000Y-72000000D03*
X102000000Y-131000000D03*
X141000000Y-91000000D03*
X194000000Y-61000000D03*
X172000000Y-97000000D03*
X186000000Y-121000000D03*
X105000000Y-66000000D03*
X189000000Y-92000000D03*
X188000000Y-122000000D03*
X111000000Y-55000000D03*
X101000000Y-109000000D03*
X113000000Y-76000000D03*
X188000000Y-131000000D03*
X109000000Y-91000000D03*
X156000000Y-51000000D03*
X176000000Y-143000000D03*
X151000000Y-113000000D03*
X146000000Y-61000000D03*
X101000000Y-112000000D03*
X152000000Y-61000000D03*
X177000000Y-103000000D03*
X156000000Y-59000000D03*
X175000000Y-86000000D03*
X170000000Y-81000000D03*
X131000000Y-99000000D03*
X176000000Y-60000000D03*
X157000000Y-88000000D03*
X191000000Y-68000000D03*
X130000000Y-122000000D03*
X136000000Y-93000000D03*
X101000000Y-93000000D03*
X153000000Y-96000000D03*
X112000000Y-68000000D03*
X179000000Y-111000000D03*
X181000000Y-135000000D03*
X171000000Y-133000000D03*
X171000000Y-108000000D03*
X152000000Y-98000000D03*
X168000000Y-106000000D03*
X148000000Y-81000000D03*
X140000000Y-127000000D03*
X177000000Y-48000000D03*
X151000000Y-59000000D03*
X191000000Y-52000000D03*
X105000000Y-62000000D03*
X121000000Y-69000000D03*
X166000000Y-87000000D03*
X158000000Y-132000000D03*
X142000000Y-134000000D03*
X153000000Y-137000000D03*
X138000000Y-66000000D03*
X162000000Y-50000000D03*
X172000000Y-72000000D03*
X163000000Y-106000000D03*
X177000000Y-72000000D03*
X190000000Y-77000000D03*
X135000000Y-127000000D03*
X121000000Y-111000000D03*
X163000000Y-116000000D03*
X193000000Y-112000000D03*
X168000000Y-101000000D03*
X176000000Y-76000000D03*
X192000000Y-139000000D03*
X194000000Y-52000000D03*
X113000000Y-96000000D03*
X131000000Y-66000000D03*
X145000000Y-72000000D03*
X152000000Y-62000000D03*
X157000000Y-99000000D03*
X142000000Y-68000000D03*
X137000000Y-89000000D03*
X185000000Y-81000000D03*
X161000000Y-112000000D03*
X163000000Y-127000000D03*
X191000000Y-92000000D03*
X162000000Y-58000000D03*
X122000000Y-145000000D03*
X171000000Y-63000000D03*
X142000000Y-104000000D03*
X120000000Y-97000000D03*
X141000000Y-140000000D03*
X121000000Y-144000000D03*
X146000000Y-81000000D03*
X107000000Y-128000000D03*
X172000000Y-49000000D03*
X152000000Y-114000000D03*
X166000000Y-117000000D03*
X136000000Y-98000000D03*
X132000000Y-58000000D03*
X179000000Y-52000000D03*
X171000000Y-145000000D03*
X137000000Y-120000000D03*
X154000000Y-86000000D03*
X125000000Y-57000000D03*
X137000000Y-110000000D03*
X131000000Y-61000000D03*
X194000000Y-131000000D03*
X169000000Y-67000000D03*
X117000000Y-118000000D03*
X121000000Y-57000000D03*
X100000000Y-102000000D03*
X113000000Y-112000000D03*
X177000000Y-131000000D03*
X166000000Y-68000000D03*
X146000000Y-114000000D03*
X139000000Y-76000000D03*
X142000000Y-141000000D03*
X143000000Y-61000000D03*
X143000000Y-137000000D03*
X127000000Y-112000000D03*
X117000000Y-137000000D03*
X147000000Y-109000000D03*
X157000000Y-135000000D03*
X146000000Y-104000000D03*
X116000000Y-73000000D03*
X136000000Y-88000000D03*
X146000000Y-125000000D03*
X193000000Y-132000000D03*
X101000000Y-86000000D03*
X143000000Y-106000000D03*
X112000000Y-130000000D03*
X116000000Y-68000000D03*
X103000000Y-107000000D03*
X128000000Y-66000000D03*
X181000000Y-98000000D03*
X171000000Y-126000000D03*
X105000000Y-122000000D03*
X98000000Y-82000000D03*
X192000000Y-129000000D03*
X115000000Y-81000000D03*
X151000000Y-55000000D03*
X101000000Y-88000000D03*
X181000000Y-67000000D03*
X191000000Y-127000000D03*
X154000000Y-82000000D03*
X172000000Y-115000000D03*
X117000000Y-67000000D03*
X155000000Y-97000000D03*
X161000000Y-53000000D03*
X101000000Y-125000000D03*
X107000000Y-90000000D03*
X107000000Y-56000000D03*
X191000000Y-141000000D03*
X128000000Y-81000000D03*
X116000000Y-64000000D03*
X111000000Y-96000000D03*
X186000000Y-86000000D03*
X177000000Y-56000000D03*
X114000000Y-82000000D03*
X126000000Y-106000000D03*
X190000000Y-116000000D03*
X136000000Y-143000000D03*
X116000000Y-55000000D03*
X118000000Y-61000000D03*
X161000000Y-81000000D03*
X177000000Y-61000000D03*
X148000000Y-62000000D03*
X177000000Y-104000000D03*
X182000000Y-79000000D03*
X128000000Y-142000000D03*
X153000000Y-56000000D03*
X151000000Y-53000000D03*
X101000000Y-104000000D03*
X172000000Y-121000000D03*
X101000000Y-134000000D03*
X141000000Y-130000000D03*
X153000000Y-126000000D03*
X184000000Y-131000000D03*
X102000000Y-49000000D03*
X131000000Y-129000000D03*
X158000000Y-101000000D03*
X110000000Y-142000000D03*
X141000000Y-125000000D03*
X109000000Y-92000000D03*
X113000000Y-91000000D03*
X177000000Y-120000000D03*
X126000000Y-86000000D03*
X181000000Y-133000000D03*
X156000000Y-66000000D03*
X111000000Y-129000000D03*
X173000000Y-76000000D03*
X107000000Y-103000000D03*
X111000000Y-58000000D03*
X141000000Y-141000000D03*
X154000000Y-57000000D03*
X169000000Y-81000000D03*
X111000000Y-57000000D03*
X186000000Y-107000000D03*
X108000000Y-107000000D03*
X166000000Y-74000000D03*
X179000000Y-92000000D03*
X146000000Y-142000000D03*
X114000000Y-67000000D03*
X165000000Y-67000000D03*
X160000000Y-117000000D03*
X111000000Y-87000000D03*
X115000000Y-97000000D03*
X121000000Y-123000000D03*
X174000000Y-111000000D03*
X101000000Y-79000000D03*
X129000000Y-82000000D03*
X106000000Y-89000000D03*
X152000000Y-92000000D03*
X182000000Y-82000000D03*
X102000000Y-66000000D03*
X173000000Y-111000000D03*
X150000000Y-97000000D03*
X145000000Y-81000000D03*
X121000000Y-90000000D03*
X167000000Y-57000000D03*
X171000000Y-144000000D03*
X110000000Y-96000000D03*
X174000000Y-76000000D03*
X112000000Y-53000000D03*
X171000000Y-129000000D03*
X182000000Y-86000000D03*
X182000000Y-143000000D03*
X137000000Y-48000000D03*
X127000000Y-99000000D03*
X160000000Y-102000000D03*
X167000000Y-144000000D03*
X131000000Y-102000000D03*
X172000000Y-71000000D03*
X155000000Y-131000000D03*
X161000000Y-57000000D03*
X129000000Y-97000000D03*
X152000000Y-128000000D03*
X108000000Y-76000000D03*
X101000000Y-131000000D03*
X137000000Y-70000000D03*
X138000000Y-107000000D03*
X115000000Y-91000000D03*
X130000000Y-76000000D03*
X129000000Y-131000000D03*
X156000000Y-131000000D03*
X113000000Y-131000000D03*
X187000000Y-103000000D03*
X111000000Y-70000000D03*
X124000000Y-112000000D03*
X144000000Y-97000000D03*
X172000000Y-132000000D03*
X122000000Y-96000000D03*
X186000000Y-75000000D03*
X175000000Y-92000000D03*
X155000000Y-116000000D03*
X119000000Y-142000000D03*
X136000000Y-117000000D03*
X135000000Y-61000000D03*
X156000000Y-95000000D03*
X147000000Y-117000000D03*
X134000000Y-71000000D03*
X167000000Y-66000000D03*
X146000000Y-126000000D03*
X130000000Y-92000000D03*
X182000000Y-72000000D03*
X171000000Y-85000000D03*
X165000000Y-97000000D03*
X118000000Y-62000000D03*
X134000000Y-112000000D03*
X136000000Y-131000000D03*
X116000000Y-96000000D03*
X118000000Y-127000000D03*
X106000000Y-73000000D03*
X147000000Y-98000000D03*
X117000000Y-116000000D03*
X141000000Y-123000000D03*
X111000000Y-98000000D03*
X167000000Y-54000000D03*
X182000000Y-131000000D03*
X171000000Y-131000000D03*
X102000000Y-124000000D03*
X115000000Y-51000000D03*
X134000000Y-132000000D03*
X184000000Y-126000000D03*
X156000000Y-108000000D03*
X161000000Y-135000000D03*
X103000000Y-112000000D03*
X186000000Y-88000000D03*
X157000000Y-125000000D03*
X99000000Y-131000000D03*
X133000000Y-126000000D03*
X127000000Y-94000000D03*
X141000000Y-86000000D03*
X168000000Y-62000000D03*
X192000000Y-87000000D03*
X191000000Y-144000000D03*
X168000000Y-57000000D03*
X131000000Y-96000000D03*
X123000000Y-126000000D03*
X152000000Y-86000000D03*
X117000000Y-141000000D03*
X151000000Y-100000000D03*
X165000000Y-61000000D03*
X149000000Y-71000000D03*
X147000000Y-116000000D03*
X189000000Y-112000000D03*
X142000000Y-49000000D03*
X101000000Y-137000000D03*
X150000000Y-57000000D03*
X132000000Y-105000000D03*
X103000000Y-117000000D03*
X147000000Y-87000000D03*
X117000000Y-113000000D03*
X172000000Y-127000000D03*
X150000000Y-91000000D03*
X98000000Y-107000000D03*
X138000000Y-76000000D03*
X153000000Y-61000000D03*
X147000000Y-86000000D03*
X170000000Y-97000000D03*
X111000000Y-128000000D03*
X127000000Y-118000000D03*
X176000000Y-80000000D03*
X171000000Y-114000000D03*
X138000000Y-57000000D03*
X144000000Y-106000000D03*
X177000000Y-68000000D03*
X116000000Y-117000000D03*
X132000000Y-107000000D03*
X147000000Y-59000000D03*
X107000000Y-53000000D03*
X101000000Y-101000000D03*
X182000000Y-76000000D03*
X103000000Y-77000000D03*
X187000000Y-53000000D03*
X172000000Y-54000000D03*
X187000000Y-116000000D03*
X112000000Y-134000000D03*
X137000000Y-61000000D03*
X130000000Y-66000000D03*
X159000000Y-82000000D03*
X176000000Y-51000000D03*
X191000000Y-99000000D03*
X162000000Y-78000000D03*
X164000000Y-57000000D03*
X138000000Y-92000000D03*
X156000000Y-98000000D03*
X110000000Y-82000000D03*
X128000000Y-111000000D03*
X163000000Y-82000000D03*
X140000000Y-136000000D03*
X157000000Y-82000000D03*
X99000000Y-87000000D03*
X104000000Y-127000000D03*
X151000000Y-130000000D03*
X175000000Y-81000000D03*
X100000000Y-97000000D03*
X136000000Y-97000000D03*
X152000000Y-85000000D03*
X191000000Y-61000000D03*
X105000000Y-82000000D03*
X195000000Y-101000000D03*
X141000000Y-124000000D03*
X150000000Y-111000000D03*
X151000000Y-139000000D03*
X132000000Y-144000000D03*
X136000000Y-74000000D03*
X127000000Y-61000000D03*
X177000000Y-124000000D03*
X186000000Y-80000000D03*
X128000000Y-51000000D03*
X182000000Y-105000000D03*
X127000000Y-143000000D03*
X163000000Y-91000000D03*
X167000000Y-104000000D03*
X152000000Y-119000000D03*
X148000000Y-61000000D03*
X161000000Y-63000000D03*
X125000000Y-116000000D03*
X123000000Y-86000000D03*
X166000000Y-66000000D03*
X112000000Y-61000000D03*
X137000000Y-144000000D03*
X120000000Y-131000000D03*
X186000000Y-129000000D03*
X111000000Y-121000000D03*
X144000000Y-116000000D03*
X193000000Y-122000000D03*
X122000000Y-100000000D03*
X156000000Y-61000000D03*
X110000000Y-117000000D03*
X138000000Y-52000000D03*
X115000000Y-57000000D03*
X166000000Y-72000000D03*
X152000000Y-113000000D03*
X156000000Y-80000000D03*
X131000000Y-127000000D03*
X170000000Y-52000000D03*
X127000000Y-83000000D03*
X133000000Y-91000000D03*
X110000000Y-126000000D03*
X102000000Y-88000000D03*
X148000000Y-71000000D03*
X102000000Y-108000000D03*
X181000000Y-109000000D03*
X137000000Y-76000000D03*
X189000000Y-71000000D03*
X151000000Y-72000000D03*
X147000000Y-55000000D03*
X127000000Y-138000000D03*
X182000000Y-61000000D03*
X103000000Y-116000000D03*
X182000000Y-126000000D03*
X180000000Y-132000000D03*
X146000000Y-109000000D03*
X174000000Y-141000000D03*
X103000000Y-106000000D03*
X108000000Y-96000000D03*
X189000000Y-136000000D03*
X122000000Y-105000000D03*
X168000000Y-76000000D03*
X174000000Y-86000000D03*
X169000000Y-96000000D03*
X179000000Y-56000000D03*
X167000000Y-114000000D03*
X192000000Y-107000000D03*
X144000000Y-66000000D03*
X168000000Y-127000000D03*
X151000000Y-125000000D03*
X187000000Y-90000000D03*
X132000000Y-49000000D03*
X108000000Y-121000000D03*
X105000000Y-81000000D03*
X143000000Y-141000000D03*
X140000000Y-126000000D03*
X138000000Y-96000000D03*
X104000000Y-76000000D03*
X106000000Y-75000000D03*
X112000000Y-71000000D03*
X177000000Y-63000000D03*
X112000000Y-132000000D03*
X125000000Y-71000000D03*
X126000000Y-122000000D03*
X107000000Y-118000000D03*
X150000000Y-121000000D03*
X101000000Y-139000000D03*
X136000000Y-135000000D03*
X112000000Y-90000000D03*
X187000000Y-87000000D03*
X98000000Y-136000000D03*
X191000000Y-143000000D03*
X132000000Y-134000000D03*
X159000000Y-52000000D03*
X126000000Y-112000000D03*
X127000000Y-67000000D03*
X176000000Y-136000000D03*
X101000000Y-95000000D03*
X117000000Y-114000000D03*
X107000000Y-93000000D03*
X175000000Y-141000000D03*
X186000000Y-93000000D03*
X141000000Y-84000000D03*
X186000000Y-59000000D03*
X117000000Y-78000000D03*
X182000000Y-106000000D03*
X183000000Y-71000000D03*
X117000000Y-88000000D03*
X183000000Y-117000000D03*
X167000000Y-145000000D03*
X181000000Y-55000000D03*
X173000000Y-61000000D03*
X121000000Y-52000000D03*
X175000000Y-77000000D03*
X131000000Y-75000000D03*
X121000000Y-49000000D03*
X151000000Y-122000000D03*
X135000000Y-137000000D03*
X159000000Y-117000000D03*
X133000000Y-116000000D03*
X178000000Y-106000000D03*
X140000000Y-141000000D03*
X140000000Y-96000000D03*
X158000000Y-62000000D03*
X178000000Y-76000000D03*
X116000000Y-56000000D03*
X160000000Y-82000000D03*
X112000000Y-72000000D03*
X141000000Y-82000000D03*
X191000000Y-131000000D03*
X119000000Y-72000000D03*
X192000000Y-108000000D03*
X153000000Y-62000000D03*
X127000000Y-116000000D03*
X187000000Y-143000000D03*
X142000000Y-75000000D03*
X149000000Y-76000000D03*
X152000000Y-134000000D03*
X106000000Y-107000000D03*
X157000000Y-81000000D03*
X107000000Y-83000000D03*
X167000000Y-64000000D03*
X176000000Y-117000000D03*
X138000000Y-117000000D03*
X194000000Y-116000000D03*
X190000000Y-62000000D03*
X191000000Y-80000000D03*
X172000000Y-93000000D03*
X186000000Y-84000000D03*
X177000000Y-53000000D03*
X115000000Y-101000000D03*
X147000000Y-110000000D03*
X149000000Y-101000000D03*
X175000000Y-67000000D03*
X134000000Y-87000000D03*
X160000000Y-107000000D03*
X187000000Y-82000000D03*
X102000000Y-87000000D03*
X188000000Y-107000000D03*
X186000000Y-134000000D03*
X113000000Y-67000000D03*
X136000000Y-86000000D03*
X137000000Y-92000000D03*
X191000000Y-83000000D03*
X176000000Y-91000000D03*
X116000000Y-145000000D03*
X123000000Y-121000000D03*
X117000000Y-64000000D03*
X172000000Y-128000000D03*
X141000000Y-93000000D03*
X102000000Y-120000000D03*
X181000000Y-64000000D03*
X165000000Y-136000000D03*
X99000000Y-71000000D03*
X136000000Y-110000000D03*
X126000000Y-75000000D03*
X158000000Y-67000000D03*
X126000000Y-59000000D03*
X105000000Y-72000000D03*
X102000000Y-63000000D03*
X100000000Y-86000000D03*
X157000000Y-54000000D03*
X157000000Y-137000000D03*
X117000000Y-74000000D03*
X141000000Y-49000000D03*
X106000000Y-98000000D03*
X151000000Y-60000000D03*
X190000000Y-76000000D03*
X161000000Y-114000000D03*
X119000000Y-141000000D03*
X98000000Y-71000000D03*
X116000000Y-89000000D03*
X137000000Y-79000000D03*
X109000000Y-112000000D03*
X98000000Y-117000000D03*
X109000000Y-117000000D03*
X141000000Y-97000000D03*
X192000000Y-93000000D03*
X144000000Y-107000000D03*
X185000000Y-67000000D03*
X119000000Y-122000000D03*
X122000000Y-62000000D03*
X121000000Y-96000000D03*
X171000000Y-53000000D03*
X163000000Y-111000000D03*
X121000000Y-91000000D03*
X142000000Y-99000000D03*
X136000000Y-49000000D03*
X195000000Y-142000000D03*
X133000000Y-106000000D03*
X165000000Y-131000000D03*
X190000000Y-87000000D03*
X175000000Y-72000000D03*
X166000000Y-86000000D03*
X104000000Y-97000000D03*
X131000000Y-72000000D03*
X117000000Y-125000000D03*
X147000000Y-114000000D03*
X113000000Y-102000000D03*
X164000000Y-76000000D03*
X184000000Y-81000000D03*
X155000000Y-57000000D03*
X142000000Y-85000000D03*
X98000000Y-51000000D03*
X173000000Y-137000000D03*
X122000000Y-85000000D03*
X122000000Y-79000000D03*
X181000000Y-139000000D03*
X137000000Y-108000000D03*
X137000000Y-101000000D03*
X102000000Y-122000000D03*
X188000000Y-71000000D03*
X126000000Y-58000000D03*
X151000000Y-67000000D03*
X105000000Y-121000000D03*
X166000000Y-128000000D03*
X142000000Y-48000000D03*
X154000000Y-137000000D03*
X163000000Y-71000000D03*
X156000000Y-85000000D03*
X117000000Y-91000000D03*
X131000000Y-87000000D03*
X109000000Y-57000000D03*
X192000000Y-145000000D03*
X157000000Y-136000000D03*
X123000000Y-91000000D03*
X106000000Y-70000000D03*
X191000000Y-63000000D03*
X168000000Y-56000000D03*
X121000000Y-122000000D03*
X106000000Y-124000000D03*
X176000000Y-84000000D03*
X106000000Y-117000000D03*
X146000000Y-99000000D03*
X137000000Y-137000000D03*
X129000000Y-86000000D03*
X161000000Y-67000000D03*
X182000000Y-64000000D03*
X118000000Y-117000000D03*
X110000000Y-127000000D03*
X108000000Y-97000000D03*
X146000000Y-121000000D03*
X166000000Y-116000000D03*
X141000000Y-120000000D03*
X184000000Y-141000000D03*
X131000000Y-73000000D03*
X172000000Y-84000000D03*
X126000000Y-87000000D03*
X108000000Y-86000000D03*
X178000000Y-77000000D03*
X195000000Y-106000000D03*
X130000000Y-107000000D03*
X166000000Y-75000000D03*
X127000000Y-48000000D03*
X183000000Y-87000000D03*
X162000000Y-96000000D03*
X172000000Y-138000000D03*
X180000000Y-127000000D03*
X145000000Y-52000000D03*
X191000000Y-102000000D03*
X162000000Y-48000000D03*
X113000000Y-82000000D03*
X101000000Y-94000000D03*
X146000000Y-52000000D03*
X194000000Y-57000000D03*
X131000000Y-79000000D03*
X140000000Y-56000000D03*
X152000000Y-106000000D03*
X102000000Y-57000000D03*
X153000000Y-82000000D03*
X188000000Y-91000000D03*
X164000000Y-77000000D03*
X144000000Y-57000000D03*
X166000000Y-92000000D03*
X128000000Y-116000000D03*
X186000000Y-95000000D03*
X125000000Y-141000000D03*
X121000000Y-53000000D03*
X150000000Y-136000000D03*
X126000000Y-104000000D03*
X121000000Y-50000000D03*
X121000000Y-120000000D03*
X165000000Y-107000000D03*
X124000000Y-51000000D03*
X178000000Y-66000000D03*
X167000000Y-76000000D03*
X180000000Y-91000000D03*
X126000000Y-138000000D03*
X126000000Y-80000000D03*
X104000000Y-57000000D03*
X171000000Y-70000000D03*
X162000000Y-122000000D03*
X187000000Y-75000000D03*
X163000000Y-132000000D03*
X158000000Y-106000000D03*
X147000000Y-84000000D03*
X122000000Y-58000000D03*
X194000000Y-96000000D03*
X172000000Y-143000000D03*
X151000000Y-81000000D03*
X156000000Y-87000000D03*
X175000000Y-116000000D03*
X109000000Y-52000000D03*
X177000000Y-94000000D03*
X116000000Y-61000000D03*
X182000000Y-98000000D03*
X111000000Y-120000000D03*
X113000000Y-81000000D03*
X122000000Y-50000000D03*
X156000000Y-67000000D03*
X117000000Y-59000000D03*
X141000000Y-103000000D03*
X100000000Y-127000000D03*
X107000000Y-131000000D03*
X191000000Y-120000000D03*
X149000000Y-122000000D03*
X163000000Y-97000000D03*
X144000000Y-81000000D03*
X118000000Y-126000000D03*
X126000000Y-131000000D03*
X182000000Y-58000000D03*
X139000000Y-82000000D03*
X122000000Y-103000000D03*
X157000000Y-72000000D03*
X147000000Y-112000000D03*
X183000000Y-102000000D03*
X112000000Y-106000000D03*
X115000000Y-107000000D03*
X100000000Y-106000000D03*
X163000000Y-142000000D03*
X161000000Y-64000000D03*
X175000000Y-102000000D03*
X176000000Y-135000000D03*
X162000000Y-117000000D03*
X102000000Y-126000000D03*
X102000000Y-143000000D03*
X144000000Y-67000000D03*
X192000000Y-103000000D03*
X193000000Y-61000000D03*
X161000000Y-87000000D03*
X110000000Y-121000000D03*
X101000000Y-143000000D03*
X131000000Y-133000000D03*
X194000000Y-87000000D03*
X122000000Y-112000000D03*
X136000000Y-121000000D03*
X150000000Y-102000000D03*
X112000000Y-96000000D03*
X134000000Y-61000000D03*
X164000000Y-91000000D03*
X144000000Y-111000000D03*
X172000000Y-87000000D03*
X146000000Y-105000000D03*
X168000000Y-71000000D03*
X122000000Y-131000000D03*
X116000000Y-66000000D03*
X120000000Y-121000000D03*
X162000000Y-86000000D03*
X170000000Y-82000000D03*
X187000000Y-54000000D03*
X192000000Y-116000000D03*
X156000000Y-118000000D03*
X128000000Y-97000000D03*
X190000000Y-57000000D03*
X192000000Y-124000000D03*
X106000000Y-112000000D03*
X179000000Y-106000000D03*
X132000000Y-72000000D03*
X136000000Y-100000000D03*
X171000000Y-120000000D03*
X162000000Y-76000000D03*
X105000000Y-86000000D03*
X184000000Y-56000000D03*
X125000000Y-142000000D03*
X172000000Y-113000000D03*
X126000000Y-56000000D03*
X180000000Y-107000000D03*
X177000000Y-141000000D03*
X126000000Y-143000000D03*
X191000000Y-108000000D03*
X126000000Y-63000000D03*
X105000000Y-111000000D03*
X191000000Y-129000000D03*
X185000000Y-97000000D03*
X192000000Y-122000000D03*
X191000000Y-140000000D03*
X157000000Y-53000000D03*
X146000000Y-77000000D03*
X144000000Y-51000000D03*
X98000000Y-57000000D03*
X129000000Y-106000000D03*
X148000000Y-87000000D03*
X147000000Y-120000000D03*
X125000000Y-56000000D03*
X106000000Y-121000000D03*
X147000000Y-130000000D03*
X103000000Y-56000000D03*
X166000000Y-100000000D03*
X180000000Y-81000000D03*
X162000000Y-135000000D03*
X151000000Y-127000000D03*
X145000000Y-127000000D03*
X101000000Y-63000000D03*
X191000000Y-107000000D03*
X156000000Y-136000000D03*
X147000000Y-89000000D03*
X147000000Y-144000000D03*
X177000000Y-86000000D03*
X127000000Y-90000000D03*
X137000000Y-68000000D03*
X147000000Y-101000000D03*
X171000000Y-125000000D03*
X179000000Y-71000000D03*
X111000000Y-73000000D03*
X127000000Y-134000000D03*
X166000000Y-52000000D03*
X193000000Y-136000000D03*
X129000000Y-96000000D03*
X108000000Y-81000000D03*
X102000000Y-95000000D03*
X180000000Y-76000000D03*
X167000000Y-105000000D03*
X187000000Y-99000000D03*
X155000000Y-81000000D03*
X122000000Y-98000000D03*
X136000000Y-94000000D03*
X138000000Y-91000000D03*
X138000000Y-51000000D03*
X135000000Y-72000000D03*
X184000000Y-127000000D03*
X192000000Y-71000000D03*
X130000000Y-106000000D03*
X117000000Y-93000000D03*
X186000000Y-98000000D03*
X149000000Y-62000000D03*
X166000000Y-51000000D03*
X149000000Y-87000000D03*
X143000000Y-102000000D03*
X170000000Y-106000000D03*
X117000000Y-87000000D03*
X189000000Y-131000000D03*
X166000000Y-123000000D03*
X152000000Y-129000000D03*
X176000000Y-110000000D03*
X107000000Y-76000000D03*
X157000000Y-113000000D03*
X186000000Y-78000000D03*
X114000000Y-142000000D03*
X173000000Y-117000000D03*
X141000000Y-121000000D03*
X158000000Y-81000000D03*
X127000000Y-117000000D03*
X186000000Y-112000000D03*
X149000000Y-66000000D03*
X179000000Y-82000000D03*
X123000000Y-101000000D03*
X195000000Y-86000000D03*
X144000000Y-76000000D03*
X102000000Y-129000000D03*
X152000000Y-123000000D03*
X142000000Y-70000000D03*
X156000000Y-56000000D03*
X172000000Y-66000000D03*
X157000000Y-85000000D03*
X142000000Y-50000000D03*
X138000000Y-131000000D03*
X153000000Y-81000000D03*
X190000000Y-136000000D03*
X141000000Y-118000000D03*
X111000000Y-52000000D03*
X186000000Y-67000000D03*
X161000000Y-98000000D03*
X155000000Y-51000000D03*
X153000000Y-142000000D03*
X132000000Y-127000000D03*
X170000000Y-67000000D03*
X129000000Y-116000000D03*
X157000000Y-92000000D03*
X125000000Y-132000000D03*
X107000000Y-77000000D03*
X137000000Y-80000000D03*
X146000000Y-139000000D03*
X126000000Y-76000000D03*
X192000000Y-52000000D03*
X172000000Y-55000000D03*
X157000000Y-98000000D03*
X177000000Y-134000000D03*
X141000000Y-126000000D03*
X192000000Y-100000000D03*
X145000000Y-91000000D03*
X110000000Y-61000000D03*
X119000000Y-82000000D03*
X186000000Y-120000000D03*
X191000000Y-65000000D03*
X179000000Y-76000000D03*
X168000000Y-111000000D03*
X151000000Y-143000000D03*
X166000000Y-131000000D03*
X185000000Y-62000000D03*
X179000000Y-137000000D03*
X177000000Y-107000000D03*
X110000000Y-102000000D03*
X106000000Y-90000000D03*
X176000000Y-56000000D03*
X152000000Y-124000000D03*
X116000000Y-94000000D03*
X102000000Y-106000000D03*
X151000000Y-92000000D03*
X187000000Y-115000000D03*
X187000000Y-135000000D03*
X167000000Y-141000000D03*
X123000000Y-107000000D03*
X157000000Y-48000000D03*
X113000000Y-51000000D03*
X166000000Y-70000000D03*
X161000000Y-122000000D03*
X175000000Y-101000000D03*
X189000000Y-137000000D03*
X176000000Y-145000000D03*
X116000000Y-99000000D03*
X107000000Y-59000000D03*
X180000000Y-121000000D03*
X139000000Y-122000000D03*
X157000000Y-83000000D03*
X145000000Y-97000000D03*
X133000000Y-87000000D03*
X99000000Y-92000000D03*
X136000000Y-76000000D03*
X164000000Y-62000000D03*
X137000000Y-115000000D03*
X176000000Y-62000000D03*
X162000000Y-144000000D03*
X186000000Y-135000000D03*
X160000000Y-126000000D03*
X131000000Y-85000000D03*
X187000000Y-49000000D03*
X146000000Y-124000000D03*
X149000000Y-57000000D03*
X116000000Y-101000000D03*
X169000000Y-97000000D03*
X157000000Y-121000000D03*
X99000000Y-132000000D03*
X194000000Y-106000000D03*
X168000000Y-112000000D03*
X141000000Y-104000000D03*
X147000000Y-78000000D03*
X177000000Y-106000000D03*
X103000000Y-52000000D03*
X107000000Y-117000000D03*
X142000000Y-64000000D03*
X146000000Y-133000000D03*
X121000000Y-72000000D03*
X112000000Y-143000000D03*
X175000000Y-121000000D03*
X122000000Y-93000000D03*
X177000000Y-121000000D03*
X180000000Y-131000000D03*
X154000000Y-112000000D03*
X179000000Y-91000000D03*
X190000000Y-72000000D03*
X153000000Y-111000000D03*
X138000000Y-101000000D03*
X151000000Y-89000000D03*
X159000000Y-127000000D03*
X149000000Y-126000000D03*
X154000000Y-76000000D03*
X130000000Y-111000000D03*
X106000000Y-56000000D03*
X118000000Y-66000000D03*
X180000000Y-112000000D03*
X136000000Y-144000000D03*
X176000000Y-82000000D03*
X135000000Y-81000000D03*
X116000000Y-128000000D03*
X147000000Y-118000000D03*
X167000000Y-74000000D03*
X180000000Y-111000000D03*
X135000000Y-97000000D03*
X113000000Y-66000000D03*
X157000000Y-100000000D03*
X195000000Y-57000000D03*
X152000000Y-101000000D03*
X172000000Y-90000000D03*
X142000000Y-123000000D03*
X167000000Y-49000000D03*
X101000000Y-60000000D03*
X178000000Y-112000000D03*
X157000000Y-109000000D03*
X157000000Y-64000000D03*
X187000000Y-128000000D03*
X156000000Y-84000000D03*
X195000000Y-122000000D03*
X161000000Y-86000000D03*
X152000000Y-139000000D03*
X116000000Y-124000000D03*
X187000000Y-127000000D03*
X141000000Y-90000000D03*
X153000000Y-66000000D03*
X166000000Y-110000000D03*
X136000000Y-128000000D03*
X124000000Y-101000000D03*
X121000000Y-134000000D03*
X150000000Y-107000000D03*
X133000000Y-107000000D03*
X191000000Y-115000000D03*
X110000000Y-87000000D03*
X141000000Y-116000000D03*
X138000000Y-122000000D03*
X132000000Y-94000000D03*
X112000000Y-140000000D03*
X102000000Y-144000000D03*
X192000000Y-56000000D03*
X147000000Y-76000000D03*
X160000000Y-132000000D03*
X192000000Y-73000000D03*
X137000000Y-104000000D03*
X167000000Y-90000000D03*
X103000000Y-131000000D03*
X174000000Y-112000000D03*
X179000000Y-66000000D03*
X106000000Y-55000000D03*
X171000000Y-61000000D03*
X167000000Y-71000000D03*
X146000000Y-68000000D03*
X186000000Y-87000000D03*
X177000000Y-128000000D03*
X142000000Y-136000000D03*
X113000000Y-101000000D03*
X162000000Y-130000000D03*
X160000000Y-62000000D03*
X173000000Y-57000000D03*
X142000000Y-132000000D03*
X139000000Y-81000000D03*
X127000000Y-84000000D03*
X190000000Y-51000000D03*
X141000000Y-75000000D03*
X183000000Y-97000000D03*
X123000000Y-57000000D03*
X113000000Y-92000000D03*
X144000000Y-127000000D03*
X115000000Y-67000000D03*
X167000000Y-60000000D03*
X190000000Y-102000000D03*
X158000000Y-56000000D03*
X131000000Y-94000000D03*
X167000000Y-113000000D03*
X158000000Y-142000000D03*
X133000000Y-56000000D03*
X112000000Y-78000000D03*
X152000000Y-133000000D03*
X117000000Y-110000000D03*
X148000000Y-116000000D03*
X174000000Y-72000000D03*
X191000000Y-78000000D03*
X179000000Y-131000000D03*
X160000000Y-112000000D03*
X194000000Y-142000000D03*
X114000000Y-86000000D03*
X99000000Y-62000000D03*
X184000000Y-61000000D03*
X146000000Y-65000000D03*
X172000000Y-134000000D03*
X141000000Y-142000000D03*
X105000000Y-57000000D03*
X137000000Y-128000000D03*
X108000000Y-77000000D03*
X176000000Y-130000000D03*
X102000000Y-93000000D03*
X159000000Y-51000000D03*
X124000000Y-106000000D03*
X126000000Y-89000000D03*
X125000000Y-87000000D03*
X133000000Y-77000000D03*
X162000000Y-116000000D03*
X189000000Y-52000000D03*
X132000000Y-60000000D03*
X104000000Y-86000000D03*
X176000000Y-93000000D03*
X170000000Y-132000000D03*
X186000000Y-69000000D03*
X120000000Y-72000000D03*
X166000000Y-83000000D03*
X112000000Y-73000000D03*
X144000000Y-122000000D03*
X195000000Y-102000000D03*
X121000000Y-83000000D03*
X192000000Y-110000000D03*
X166000000Y-103000000D03*
X128000000Y-76000000D03*
X188000000Y-87000000D03*
X118000000Y-106000000D03*
X155000000Y-141000000D03*
X136000000Y-109000000D03*
X116000000Y-59000000D03*
X136000000Y-71000000D03*
X127000000Y-79000000D03*
X103000000Y-142000000D03*
X188000000Y-117000000D03*
X168000000Y-91000000D03*
X132000000Y-99000000D03*
X174000000Y-87000000D03*
X151000000Y-136000000D03*
X162000000Y-84000000D03*
X101000000Y-98000000D03*
X147000000Y-105000000D03*
X177000000Y-69000000D03*
X142000000Y-98000000D03*
X160000000Y-92000000D03*
X110000000Y-77000000D03*
X182000000Y-115000000D03*
X111000000Y-145000000D03*
X182000000Y-91000000D03*
X125000000Y-97000000D03*
X146000000Y-108000000D03*
X113000000Y-61000000D03*
X172000000Y-74000000D03*
X107000000Y-100000000D03*
X148000000Y-137000000D03*
X184000000Y-122000000D03*
X101000000Y-123000000D03*
X173000000Y-77000000D03*
X177000000Y-54000000D03*
X121000000Y-101000000D03*
X169000000Y-132000000D03*
X111000000Y-86000000D03*
X107000000Y-91000000D03*
X145000000Y-82000000D03*
X161000000Y-49000000D03*
X178000000Y-131000000D03*
X117000000Y-122000000D03*
X162000000Y-137000000D03*
X116000000Y-58000000D03*
X135000000Y-106000000D03*
X167000000Y-134000000D03*
X182000000Y-101000000D03*
X144000000Y-56000000D03*
X128000000Y-62000000D03*
X151000000Y-126000000D03*
X107000000Y-119000000D03*
X102000000Y-54000000D03*
X166000000Y-114000000D03*
X110000000Y-57000000D03*
X106000000Y-84000000D03*
X99000000Y-136000000D03*
X113000000Y-111000000D03*
X183000000Y-107000000D03*
X183000000Y-62000000D03*
X189000000Y-67000000D03*
X129000000Y-61000000D03*
X195000000Y-96000000D03*
X192000000Y-88000000D03*
X166000000Y-60000000D03*
X178000000Y-117000000D03*
X174000000Y-102000000D03*
X102000000Y-75000000D03*
X181000000Y-57000000D03*
X118000000Y-81000000D03*
X116000000Y-51000000D03*
X126000000Y-74000000D03*
X127000000Y-62000000D03*
X104000000Y-56000000D03*
X117000000Y-94000000D03*
X134000000Y-62000000D03*
X131000000Y-132000000D03*
X132000000Y-74000000D03*
X176000000Y-53000000D03*
X187000000Y-97000000D03*
X168000000Y-66000000D03*
X163000000Y-102000000D03*
X186000000Y-68000000D03*
X182000000Y-104000000D03*
X122000000Y-125000000D03*
X116000000Y-142000000D03*
X104000000Y-82000000D03*
X173000000Y-52000000D03*
X136000000Y-80000000D03*
X172000000Y-57000000D03*
X151000000Y-52000000D03*
X106000000Y-62000000D03*
X166000000Y-95000000D03*
X129000000Y-57000000D03*
X192000000Y-76000000D03*
X190000000Y-111000000D03*
X184000000Y-136000000D03*
X195000000Y-62000000D03*
X116000000Y-100000000D03*
X182000000Y-103000000D03*
X181000000Y-127000000D03*
X186000000Y-115000000D03*
X166000000Y-137000000D03*
X109000000Y-96000000D03*
X131000000Y-113000000D03*
X109000000Y-101000000D03*
X126000000Y-97000000D03*
X121000000Y-92000000D03*
X162000000Y-49000000D03*
X127000000Y-133000000D03*
X178000000Y-56000000D03*
X132000000Y-140000000D03*
X116000000Y-109000000D03*
X173000000Y-72000000D03*
X161000000Y-70000000D03*
X142000000Y-73000000D03*
X194000000Y-102000000D03*
X111000000Y-104000000D03*
X156000000Y-123000000D03*
X127000000Y-77000000D03*
X172000000Y-139000000D03*
X107000000Y-54000000D03*
X141000000Y-115000000D03*
X190000000Y-121000000D03*
X124000000Y-96000000D03*
X186000000Y-108000000D03*
X173000000Y-132000000D03*
X101000000Y-87000000D03*
X176000000Y-67000000D03*
X117000000Y-66000000D03*
X183000000Y-91000000D03*
X126000000Y-78000000D03*
X136000000Y-132000000D03*
X187000000Y-144000000D03*
X116000000Y-112000000D03*
X102000000Y-98000000D03*
X108000000Y-67000000D03*
X117000000Y-106000000D03*
X108000000Y-87000000D03*
X102000000Y-55000000D03*
X179000000Y-102000000D03*
X139000000Y-131000000D03*
X116000000Y-53000000D03*
X182000000Y-63000000D03*
X181000000Y-107000000D03*
X122000000Y-123000000D03*
X140000000Y-97000000D03*
X178000000Y-57000000D03*
X134000000Y-137000000D03*
X146000000Y-84000000D03*
X192000000Y-141000000D03*
X120000000Y-111000000D03*
X177000000Y-116000000D03*
X121000000Y-68000000D03*
X131000000Y-52000000D03*
X107000000Y-125000000D03*
X172000000Y-101000000D03*
X132000000Y-120000000D03*
X192000000Y-113000000D03*
X167000000Y-67000000D03*
X166000000Y-78000000D03*
X182000000Y-97000000D03*
X188000000Y-132000000D03*
X167000000Y-52000000D03*
X126000000Y-57000000D03*
X173000000Y-71000000D03*
X154000000Y-116000000D03*
X161000000Y-73000000D03*
X135000000Y-126000000D03*
X184000000Y-121000000D03*
X176000000Y-52000000D03*
X132000000Y-139000000D03*
X160000000Y-91000000D03*
X100000000Y-141000000D03*
X125000000Y-107000000D03*
X109000000Y-111000000D03*
X106000000Y-71000000D03*
X152000000Y-50000000D03*
X106000000Y-60000000D03*
X172000000Y-59000000D03*
X182000000Y-139000000D03*
X173000000Y-106000000D03*
X167000000Y-128000000D03*
X161000000Y-119000000D03*
X188000000Y-92000000D03*
X176000000Y-74000000D03*
X172000000Y-64000000D03*
X177000000Y-89000000D03*
X156000000Y-122000000D03*
X195000000Y-82000000D03*
X124000000Y-67000000D03*
X114000000Y-122000000D03*
X102000000Y-82000000D03*
X169000000Y-92000000D03*
X171000000Y-102000000D03*
X167000000Y-55000000D03*
X131000000Y-88000000D03*
X193000000Y-76000000D03*
X136000000Y-102000000D03*
X137000000Y-88000000D03*
X133000000Y-51000000D03*
X146000000Y-132000000D03*
X112000000Y-95000000D03*
X142000000Y-95000000D03*
X157000000Y-114000000D03*
X190000000Y-101000000D03*
X169000000Y-51000000D03*
X156000000Y-115000000D03*
X175000000Y-51000000D03*
X107000000Y-49000000D03*
X171000000Y-124000000D03*
X161000000Y-115000000D03*
X118000000Y-56000000D03*
X111000000Y-123000000D03*
X118000000Y-51000000D03*
X132000000Y-50000000D03*
X119000000Y-112000000D03*
X147000000Y-80000000D03*
X101000000Y-136000000D03*
X120000000Y-76000000D03*
X162000000Y-59000000D03*
X134000000Y-82000000D03*
X133000000Y-82000000D03*
X144000000Y-131000000D03*
X179000000Y-97000000D03*
X159000000Y-132000000D03*
X105000000Y-71000000D03*
X131000000Y-86000000D03*
X127000000Y-101000000D03*
X181000000Y-140000000D03*
X182000000Y-138000000D03*
X146000000Y-56000000D03*
X142000000Y-55000000D03*
X167000000Y-87000000D03*
X143000000Y-107000000D03*
X161000000Y-116000000D03*
X126000000Y-60000000D03*
X156000000Y-63000000D03*
X123000000Y-112000000D03*
X176000000Y-85000000D03*
X117000000Y-142000000D03*
X153000000Y-71000000D03*
X137000000Y-65000000D03*
X103000000Y-92000000D03*
X158000000Y-97000000D03*
X127000000Y-124000000D03*
X132000000Y-110000000D03*
X177000000Y-62000000D03*
X119000000Y-66000000D03*
X176000000Y-115000000D03*
X131000000Y-64000000D03*
X116000000Y-95000000D03*
X161000000Y-50000000D03*
X119000000Y-131000000D03*
X162000000Y-121000000D03*
X174000000Y-127000000D03*
X132000000Y-133000000D03*
X104000000Y-117000000D03*
X132000000Y-137000000D03*
X179000000Y-141000000D03*
X162000000Y-111000000D03*
X176000000Y-106000000D03*
X152000000Y-95000000D03*
X182000000Y-75000000D03*
X137000000Y-107000000D03*
X195000000Y-81000000D03*
X152000000Y-132000000D03*
X147000000Y-127000000D03*
X140000000Y-112000000D03*
X176000000Y-90000000D03*
X151000000Y-109000000D03*
X126000000Y-69000000D03*
X166000000Y-105000000D03*
X167000000Y-103000000D03*
X156000000Y-132000000D03*
X176000000Y-57000000D03*
X166000000Y-124000000D03*
X116000000Y-136000000D03*
X186000000Y-139000000D03*
X121000000Y-65000000D03*
X100000000Y-137000000D03*
X179000000Y-57000000D03*
X189000000Y-97000000D03*
X136000000Y-57000000D03*
X162000000Y-106000000D03*
X106000000Y-142000000D03*
X127000000Y-58000000D03*
X145000000Y-51000000D03*
X132000000Y-103000000D03*
X174000000Y-71000000D03*
X134000000Y-101000000D03*
X136000000Y-75000000D03*
X174000000Y-66000000D03*
X127000000Y-98000000D03*
X180000000Y-51000000D03*
X171000000Y-140000000D03*
X151000000Y-101000000D03*
X112000000Y-144000000D03*
X157000000Y-52000000D03*
X191000000Y-87000000D03*
X131000000Y-92000000D03*
X187000000Y-56000000D03*
X170000000Y-126000000D03*
X111000000Y-126000000D03*
X192000000Y-66000000D03*
X137000000Y-136000000D03*
X151000000Y-78000000D03*
X112000000Y-98000000D03*
X136000000Y-72000000D03*
X165000000Y-66000000D03*
X146000000Y-49000000D03*
X122000000Y-108000000D03*
X151000000Y-93000000D03*
X142000000Y-92000000D03*
X137000000Y-118000000D03*
X166000000Y-57000000D03*
X122000000Y-129000000D03*
X187000000Y-68000000D03*
X110000000Y-56000000D03*
X126000000Y-81000000D03*
X181000000Y-85000000D03*
X121000000Y-95000000D03*
X107000000Y-89000000D03*
X151000000Y-131000000D03*
X132000000Y-125000000D03*
X169000000Y-76000000D03*
X140000000Y-106000000D03*
X151000000Y-103000000D03*
X191000000Y-57000000D03*
X122000000Y-70000000D03*
X156000000Y-64000000D03*
X102000000Y-99000000D03*
X192000000Y-77000000D03*
X127000000Y-88000000D03*
X99000000Y-102000000D03*
X105000000Y-106000000D03*
X136000000Y-113000000D03*
X181000000Y-142000000D03*
X174000000Y-117000000D03*
X110000000Y-66000000D03*
X126000000Y-134000000D03*
X172000000Y-61000000D03*
X145000000Y-57000000D03*
X183000000Y-76000000D03*
X157000000Y-80000000D03*
X174000000Y-97000000D03*
X106000000Y-48000000D03*
X183000000Y-81000000D03*
X101000000Y-49000000D03*
X188000000Y-112000000D03*
X142000000Y-128000000D03*
X121000000Y-103000000D03*
X176000000Y-49000000D03*
X121000000Y-115000000D03*
X195000000Y-66000000D03*
X141000000Y-114000000D03*
X141000000Y-143000000D03*
X184000000Y-57000000D03*
X167000000Y-72000000D03*
X124000000Y-102000000D03*
X146000000Y-144000000D03*
X181000000Y-112000000D03*
X121000000Y-138000000D03*
X125000000Y-136000000D03*
X192000000Y-142000000D03*
X156000000Y-57000000D03*
X157000000Y-77000000D03*
X136000000Y-136000000D03*
X148000000Y-127000000D03*
X116000000Y-81000000D03*
X117000000Y-69000000D03*
X128000000Y-117000000D03*
X101000000Y-144000000D03*
X101000000Y-75000000D03*
X148000000Y-52000000D03*
X191000000Y-71000000D03*
X191000000Y-137000000D03*
X106000000Y-85000000D03*
X105000000Y-76000000D03*
X152000000Y-93000000D03*
X166000000Y-84000000D03*
X151000000Y-141000000D03*
X174000000Y-116000000D03*
X106000000Y-102000000D03*
X152000000Y-137000000D03*
X192000000Y-81000000D03*
X137000000Y-69000000D03*
X147000000Y-75000000D03*
X106000000Y-79000000D03*
X122000000Y-87000000D03*
X189000000Y-91000000D03*
X184000000Y-62000000D03*
X151000000Y-106000000D03*
X171000000Y-62000000D03*
X161000000Y-56000000D03*
X178000000Y-86000000D03*
X112000000Y-100000000D03*
X171000000Y-64000000D03*
X152000000Y-55000000D03*
X171000000Y-91000000D03*
X193000000Y-77000000D03*
X98000000Y-61000000D03*
X190000000Y-122000000D03*
X192000000Y-99000000D03*
X147000000Y-74000000D03*
X112000000Y-75000000D03*
X144000000Y-96000000D03*
X102000000Y-117000000D03*
X109000000Y-106000000D03*
X182000000Y-117000000D03*
X167000000Y-50000000D03*
X136000000Y-111000000D03*
X175000000Y-131000000D03*
X135000000Y-142000000D03*
X102000000Y-114000000D03*
X102000000Y-100000000D03*
X142000000Y-118000000D03*
X112000000Y-137000000D03*
X166000000Y-102000000D03*
X141000000Y-74000000D03*
X159000000Y-142000000D03*
X114000000Y-56000000D03*
X162000000Y-115000000D03*
X189000000Y-76000000D03*
X146000000Y-106000000D03*
X135000000Y-82000000D03*
X126000000Y-50000000D03*
X161000000Y-90000000D03*
X187000000Y-70000000D03*
X156000000Y-101000000D03*
X141000000Y-72000000D03*
X149000000Y-97000000D03*
X142000000Y-106000000D03*
X184000000Y-101000000D03*
X146000000Y-86000000D03*
X157000000Y-70000000D03*
X120000000Y-66000000D03*
X123000000Y-111000000D03*
X126000000Y-136000000D03*
X190000000Y-61000000D03*
X155000000Y-87000000D03*
X164000000Y-141000000D03*
X131000000Y-120000000D03*
X162000000Y-131000000D03*
X123000000Y-127000000D03*
X176000000Y-78000000D03*
X127000000Y-137000000D03*
X106000000Y-91000000D03*
X117000000Y-48000000D03*
X188000000Y-137000000D03*
X171000000Y-138000000D03*
X147000000Y-136000000D03*
X165000000Y-112000000D03*
X188000000Y-111000000D03*
X192000000Y-132000000D03*
X146000000Y-95000000D03*
X177000000Y-118000000D03*
X157000000Y-57000000D03*
X131000000Y-76000000D03*
X191000000Y-75000000D03*
X134000000Y-106000000D03*
X162000000Y-104000000D03*
X139000000Y-66000000D03*
X136000000Y-48000000D03*
X150000000Y-137000000D03*
X133000000Y-136000000D03*
X164000000Y-82000000D03*
X142000000Y-138000000D03*
X116000000Y-131000000D03*
X106000000Y-113000000D03*
X137000000Y-140000000D03*
X191000000Y-60000000D03*
X176000000Y-58000000D03*
X119000000Y-67000000D03*
X185000000Y-111000000D03*
X141000000Y-71000000D03*
X186000000Y-96000000D03*
X126000000Y-126000000D03*
X185000000Y-131000000D03*
X129000000Y-107000000D03*
X131000000Y-53000000D03*
X112000000Y-48000000D03*
X98000000Y-52000000D03*
X121000000Y-114000000D03*
X146000000Y-101000000D03*
X102000000Y-128000000D03*
X150000000Y-127000000D03*
X152000000Y-96000000D03*
X121000000Y-128000000D03*
X171000000Y-119000000D03*
X184000000Y-76000000D03*
X143000000Y-97000000D03*
X175000000Y-61000000D03*
X110000000Y-52000000D03*
X146000000Y-143000000D03*
X134000000Y-131000000D03*
X160000000Y-87000000D03*
X132000000Y-123000000D03*
X151000000Y-74000000D03*
X127000000Y-129000000D03*
X117000000Y-133000000D03*
X187000000Y-83000000D03*
X111000000Y-69000000D03*
X147000000Y-107000000D03*
X168000000Y-116000000D03*
X122000000Y-99000000D03*
X133000000Y-132000000D03*
X136000000Y-65000000D03*
X103000000Y-61000000D03*
X107000000Y-112000000D03*
X145000000Y-86000000D03*
X138000000Y-72000000D03*
X156000000Y-138000000D03*
X193000000Y-116000000D03*
X158000000Y-86000000D03*
X173000000Y-96000000D03*
X136000000Y-69000000D03*
X171000000Y-107000000D03*
X137000000Y-85000000D03*
X142000000Y-86000000D03*
X146000000Y-75000000D03*
X160000000Y-56000000D03*
X101000000Y-145000000D03*
X120000000Y-112000000D03*
X121000000Y-77000000D03*
X170000000Y-111000000D03*
X129000000Y-127000000D03*
X183000000Y-92000000D03*
X141000000Y-96000000D03*
X141000000Y-54000000D03*
X131000000Y-107000000D03*
X182000000Y-124000000D03*
X146000000Y-58000000D03*
X116000000Y-106000000D03*
X144000000Y-71000000D03*
X131000000Y-83000000D03*
X109000000Y-131000000D03*
X148000000Y-82000000D03*
X120000000Y-61000000D03*
X152000000Y-72000000D03*
X166000000Y-122000000D03*
X175000000Y-117000000D03*
X176000000Y-109000000D03*
X187000000Y-107000000D03*
X100000000Y-61000000D03*
X121000000Y-87000000D03*
X174000000Y-91000000D03*
X127000000Y-73000000D03*
X131000000Y-56000000D03*
X173000000Y-122000000D03*
X176000000Y-92000000D03*
X178000000Y-87000000D03*
X120000000Y-82000000D03*
X176000000Y-142000000D03*
X131000000Y-95000000D03*
X134000000Y-136000000D03*
X162000000Y-83000000D03*
X114000000Y-106000000D03*
X186000000Y-81000000D03*
X161000000Y-141000000D03*
X110000000Y-112000000D03*
X111000000Y-66000000D03*
X102000000Y-145000000D03*
X102000000Y-68000000D03*
X152000000Y-54000000D03*
X195000000Y-91000000D03*
X135000000Y-141000000D03*
X153000000Y-72000000D03*
X156000000Y-120000000D03*
X156000000Y-93000000D03*
X187000000Y-67000000D03*
X122000000Y-101000000D03*
X125000000Y-121000000D03*
X155000000Y-91000000D03*
X147000000Y-48000000D03*
X142000000Y-60000000D03*
X172000000Y-108000000D03*
X133000000Y-52000000D03*
X194000000Y-111000000D03*
X176000000Y-141000000D03*
X156000000Y-99000000D03*
X118000000Y-92000000D03*
X180000000Y-66000000D03*
X192000000Y-53000000D03*
X152000000Y-51000000D03*
X152000000Y-59000000D03*
X191000000Y-110000000D03*
X99000000Y-72000000D03*
X176000000Y-77000000D03*
X160000000Y-66000000D03*
X127000000Y-110000000D03*
X117000000Y-117000000D03*
X135000000Y-117000000D03*
X113000000Y-57000000D03*
X110000000Y-111000000D03*
X153000000Y-141000000D03*
X107000000Y-69000000D03*
X171000000Y-50000000D03*
X171000000Y-109000000D03*
X118000000Y-86000000D03*
X180000000Y-126000000D03*
X117000000Y-86000000D03*
X107000000Y-82000000D03*
X156000000Y-97000000D03*
X187000000Y-69000000D03*
X142000000Y-124000000D03*
X171000000Y-132000000D03*
X116000000Y-138000000D03*
X144000000Y-126000000D03*
X160000000Y-142000000D03*
X152000000Y-71000000D03*
X101000000Y-99000000D03*
X142000000Y-105000000D03*
X189000000Y-101000000D03*
X157000000Y-67000000D03*
X161000000Y-136000000D03*
X121000000Y-132000000D03*
X123000000Y-87000000D03*
X172000000Y-100000000D03*
X117000000Y-57000000D03*
X155000000Y-132000000D03*
X150000000Y-126000000D03*
X191000000Y-122000000D03*
X182000000Y-70000000D03*
X172000000Y-91000000D03*
X177000000Y-99000000D03*
X161000000Y-120000000D03*
X121000000Y-64000000D03*
X102000000Y-81000000D03*
X167000000Y-124000000D03*
X132000000Y-77000000D03*
X112000000Y-94000000D03*
X142000000Y-111000000D03*
X124000000Y-57000000D03*
X125000000Y-76000000D03*
X170000000Y-127000000D03*
X167000000Y-73000000D03*
X106000000Y-67000000D03*
X114000000Y-132000000D03*
X152000000Y-120000000D03*
X183000000Y-106000000D03*
X186000000Y-117000000D03*
X114000000Y-116000000D03*
X145000000Y-131000000D03*
X122000000Y-81000000D03*
X101000000Y-57000000D03*
X191000000Y-109000000D03*
X101000000Y-59000000D03*
X122000000Y-137000000D03*
X179000000Y-61000000D03*
X101000000Y-115000000D03*
X160000000Y-81000000D03*
X191000000Y-126000000D03*
X136000000Y-145000000D03*
X175000000Y-132000000D03*
X172000000Y-62000000D03*
X187000000Y-109000000D03*
X127000000Y-107000000D03*
X108000000Y-66000000D03*
X121000000Y-79000000D03*
X166000000Y-73000000D03*
X111000000Y-141000000D03*
X127000000Y-102000000D03*
X146000000Y-94000000D03*
X182000000Y-142000000D03*
X161000000Y-80000000D03*
X183000000Y-56000000D03*
X116000000Y-80000000D03*
X132000000Y-80000000D03*
X177000000Y-51000000D03*
X164000000Y-67000000D03*
X137000000Y-142000000D03*
X143000000Y-62000000D03*
X189000000Y-56000000D03*
X152000000Y-76000000D03*
X167000000Y-82000000D03*
X166000000Y-77000000D03*
X136000000Y-104000000D03*
X169000000Y-131000000D03*
X162000000Y-134000000D03*
X169000000Y-86000000D03*
X112000000Y-81000000D03*
X190000000Y-96000000D03*
X101000000Y-124000000D03*
X159000000Y-92000000D03*
X191000000Y-90000000D03*
X147000000Y-85000000D03*
X176000000Y-107000000D03*
X147000000Y-139000000D03*
X112000000Y-74000000D03*
X181000000Y-104000000D03*
X148000000Y-57000000D03*
X157000000Y-112000000D03*
X117000000Y-63000000D03*
X137000000Y-74000000D03*
X140000000Y-61000000D03*
X169000000Y-106000000D03*
X116000000Y-62000000D03*
X145000000Y-67000000D03*
X181000000Y-144000000D03*
X179000000Y-117000000D03*
X133000000Y-97000000D03*
X186000000Y-92000000D03*
X154000000Y-72000000D03*
X102000000Y-113000000D03*
X157000000Y-74000000D03*
X132000000Y-75000000D03*
X151000000Y-87000000D03*
X155000000Y-52000000D03*
X166000000Y-139000000D03*
X126000000Y-133000000D03*
X191000000Y-72000000D03*
X102000000Y-109000000D03*
X157000000Y-91000000D03*
X158000000Y-77000000D03*
X137000000Y-62000000D03*
X147000000Y-92000000D03*
X131000000Y-145000000D03*
X151000000Y-65000000D03*
X157000000Y-73000000D03*
X106000000Y-77000000D03*
X145000000Y-77000000D03*
X193000000Y-86000000D03*
X126000000Y-48000000D03*
X182000000Y-65000000D03*
X137000000Y-122000000D03*
X101000000Y-62000000D03*
X177000000Y-144000000D03*
X167000000Y-110000000D03*
X179000000Y-142000000D03*
X178000000Y-127000000D03*
X154000000Y-67000000D03*
X108000000Y-71000000D03*
X172000000Y-60000000D03*
X187000000Y-60000000D03*
X118000000Y-57000000D03*
X191000000Y-133000000D03*
X136000000Y-125000000D03*
X147000000Y-65000000D03*
X157000000Y-62000000D03*
X126000000Y-73000000D03*
X177000000Y-132000000D03*
X157000000Y-78000000D03*
X137000000Y-71000000D03*
X120000000Y-67000000D03*
X186000000Y-73000000D03*
X127000000Y-86000000D03*
X129000000Y-101000000D03*
X191000000Y-70000000D03*
X176000000Y-138000000D03*
X111000000Y-56000000D03*
X184000000Y-107000000D03*
X167000000Y-109000000D03*
X177000000Y-66000000D03*
X108000000Y-142000000D03*
X107000000Y-80000000D03*
X183000000Y-72000000D03*
X109000000Y-121000000D03*
X186000000Y-48000000D03*
X182000000Y-57000000D03*
X106000000Y-86000000D03*
X130000000Y-82000000D03*
X156000000Y-70000000D03*
X113000000Y-127000000D03*
X191000000Y-73000000D03*
X152000000Y-89000000D03*
X126000000Y-108000000D03*
X186000000Y-136000000D03*
X167000000Y-92000000D03*
X191000000Y-123000000D03*
X142000000Y-131000000D03*
X136000000Y-137000000D03*
X147000000Y-115000000D03*
X155000000Y-67000000D03*
X128000000Y-106000000D03*
X117000000Y-143000000D03*
X179000000Y-77000000D03*
X121000000Y-59000000D03*
X181000000Y-49000000D03*
X146000000Y-54000000D03*
X109000000Y-82000000D03*
X156000000Y-107000000D03*
X152000000Y-67000000D03*
X101000000Y-89000000D03*
X120000000Y-102000000D03*
X190000000Y-81000000D03*
X116000000Y-72000000D03*
X105000000Y-131000000D03*
X102000000Y-56000000D03*
X187000000Y-124000000D03*
X136000000Y-62000000D03*
X100000000Y-56000000D03*
X108000000Y-82000000D03*
X147000000Y-63000000D03*
X177000000Y-143000000D03*
X191000000Y-145000000D03*
X102000000Y-123000000D03*
X168000000Y-122000000D03*
X165000000Y-117000000D03*
X139000000Y-132000000D03*
X161000000Y-52000000D03*
X129000000Y-117000000D03*
X132000000Y-111000000D03*
X194000000Y-126000000D03*
X189000000Y-87000000D03*
X127000000Y-69000000D03*
X135000000Y-86000000D03*
X189000000Y-57000000D03*
X159000000Y-67000000D03*
X139000000Y-62000000D03*
X120000000Y-96000000D03*
X101000000Y-132000000D03*
X186000000Y-101000000D03*
X114000000Y-72000000D03*
X132000000Y-89000000D03*
X122000000Y-49000000D03*
X122000000Y-61000000D03*
X189000000Y-66000000D03*
X189000000Y-141000000D03*
X169000000Y-116000000D03*
X178000000Y-72000000D03*
X150000000Y-52000000D03*
X174000000Y-51000000D03*
X174000000Y-52000000D03*
X105000000Y-61000000D03*
X179000000Y-112000000D03*
X157000000Y-87000000D03*
X191000000Y-49000000D03*
X174000000Y-137000000D03*
X131000000Y-141000000D03*
X131000000Y-82000000D03*
X122000000Y-102000000D03*
X156000000Y-69000000D03*
X107000000Y-127000000D03*
X108000000Y-101000000D03*
X138000000Y-81000000D03*
X141000000Y-122000000D03*
X131000000Y-123000000D03*
X112000000Y-56000000D03*
X137000000Y-57000000D03*
X107000000Y-143000000D03*
X142000000Y-103000000D03*
X141000000Y-94000000D03*
X114000000Y-77000000D03*
X168000000Y-121000000D03*
X148000000Y-111000000D03*
X135000000Y-77000000D03*
X142000000Y-76000000D03*
X144000000Y-136000000D03*
X116000000Y-123000000D03*
X162000000Y-87000000D03*
X144000000Y-87000000D03*
X187000000Y-139000000D03*
X133000000Y-122000000D03*
X137000000Y-131000000D03*
X121000000Y-51000000D03*
X100000000Y-67000000D03*
X145000000Y-141000000D03*
X112000000Y-102000000D03*
X126000000Y-144000000D03*
X194000000Y-71000000D03*
X112000000Y-51000000D03*
X167000000Y-140000000D03*
X137000000Y-96000000D03*
X171000000Y-48000000D03*
X175000000Y-96000000D03*
X116000000Y-83000000D03*
X166000000Y-112000000D03*
X128000000Y-92000000D03*
X122000000Y-110000000D03*
X124000000Y-82000000D03*
X157000000Y-126000000D03*
X144000000Y-102000000D03*
X161000000Y-132000000D03*
X178000000Y-71000000D03*
X111000000Y-65000000D03*
X119000000Y-102000000D03*
X132000000Y-118000000D03*
X156000000Y-75000000D03*
X132000000Y-87000000D03*
X116000000Y-133000000D03*
X103000000Y-72000000D03*
X166000000Y-64000000D03*
X179000000Y-132000000D03*
X141000000Y-73000000D03*
X174000000Y-131000000D03*
X158000000Y-96000000D03*
X137000000Y-141000000D03*
X146000000Y-76000000D03*
X181000000Y-59000000D03*
X132000000Y-142000000D03*
X125000000Y-127000000D03*
X177000000Y-135000000D03*
X146000000Y-140000000D03*
X176000000Y-99000000D03*
X102000000Y-112000000D03*
X152000000Y-68000000D03*
X176000000Y-114000000D03*
X190000000Y-97000000D03*
X137000000Y-102000000D03*
X116000000Y-143000000D03*
X186000000Y-114000000D03*
X167000000Y-127000000D03*
X114000000Y-117000000D03*
X186000000Y-130000000D03*
X141000000Y-102000000D03*
X187000000Y-63000000D03*
X168000000Y-117000000D03*
X161000000Y-104000000D03*
X164000000Y-107000000D03*
X157000000Y-50000000D03*
X175000000Y-126000000D03*
X173000000Y-97000000D03*
X105000000Y-92000000D03*
X110000000Y-67000000D03*
X168000000Y-141000000D03*
X111000000Y-71000000D03*
X127000000Y-76000000D03*
X186000000Y-132000000D03*
X112000000Y-97000000D03*
X182000000Y-111000000D03*
X191000000Y-56000000D03*
X140000000Y-122000000D03*
X166000000Y-144000000D03*
X107000000Y-61000000D03*
X101000000Y-135000000D03*
X157000000Y-75000000D03*
X116000000Y-141000000D03*
X103000000Y-82000000D03*
X162000000Y-101000000D03*
X139000000Y-52000000D03*
X110000000Y-92000000D03*
X166000000Y-134000000D03*
X155000000Y-77000000D03*
X136000000Y-142000000D03*
X187000000Y-52000000D03*
X116000000Y-57000000D03*
X119000000Y-121000000D03*
X127000000Y-89000000D03*
X156000000Y-105000000D03*
X150000000Y-101000000D03*
X176000000Y-55000000D03*
X159000000Y-131000000D03*
X135000000Y-51000000D03*
X106000000Y-68000000D03*
X102000000Y-52000000D03*
X171000000Y-100000000D03*
X109000000Y-76000000D03*
X182000000Y-107000000D03*
X107000000Y-67000000D03*
X121000000Y-104000000D03*
X184000000Y-142000000D03*
X116000000Y-137000000D03*
X134000000Y-52000000D03*
X120000000Y-127000000D03*
X140000000Y-91000000D03*
X115000000Y-77000000D03*
X98000000Y-67000000D03*
X119000000Y-77000000D03*
X137000000Y-99000000D03*
X101000000Y-55000000D03*
X190000000Y-106000000D03*
X99000000Y-97000000D03*
X195000000Y-67000000D03*
X144000000Y-117000000D03*
X142000000Y-52000000D03*
X139000000Y-107000000D03*
X165000000Y-56000000D03*
X166000000Y-85000000D03*
X137000000Y-72000000D03*
X147000000Y-73000000D03*
X157000000Y-69000000D03*
X155000000Y-117000000D03*
X161000000Y-92000000D03*
X141000000Y-131000000D03*
X117000000Y-105000000D03*
X132000000Y-61000000D03*
X170000000Y-102000000D03*
X183000000Y-131000000D03*
X103000000Y-87000000D03*
X140000000Y-71000000D03*
X127000000Y-52000000D03*
X182000000Y-66000000D03*
X194000000Y-51000000D03*
X169000000Y-142000000D03*
X158000000Y-136000000D03*
X121000000Y-135000000D03*
X186000000Y-131000000D03*
X147000000Y-50000000D03*
X182000000Y-96000000D03*
X193000000Y-87000000D03*
X129000000Y-62000000D03*
X98000000Y-127000000D03*
X126000000Y-51000000D03*
X123000000Y-71000000D03*
X138000000Y-111000000D03*
X190000000Y-71000000D03*
X141000000Y-107000000D03*
X185000000Y-91000000D03*
X157000000Y-104000000D03*
X176000000Y-83000000D03*
X159000000Y-97000000D03*
X101000000Y-64000000D03*
X136000000Y-77000000D03*
X156000000Y-111000000D03*
X114000000Y-97000000D03*
X106000000Y-111000000D03*
X153000000Y-102000000D03*
X146000000Y-118000000D03*
X129000000Y-136000000D03*
X161000000Y-131000000D03*
X99000000Y-56000000D03*
X139000000Y-97000000D03*
X132000000Y-102000000D03*
X192000000Y-101000000D03*
X187000000Y-118000000D03*
X182000000Y-81000000D03*
X193000000Y-97000000D03*
X160000000Y-72000000D03*
X178000000Y-91000000D03*
X178000000Y-122000000D03*
X133000000Y-62000000D03*
X119000000Y-56000000D03*
X107000000Y-110000000D03*
X170000000Y-112000000D03*
X136000000Y-129000000D03*
X122000000Y-56000000D03*
X102000000Y-97000000D03*
X127000000Y-87000000D03*
X131000000Y-100000000D03*
X162000000Y-110000000D03*
X182000000Y-127000000D03*
X112000000Y-123000000D03*
X139000000Y-67000000D03*
X101000000Y-116000000D03*
X147000000Y-103000000D03*
X194000000Y-86000000D03*
X103000000Y-51000000D03*
X122000000Y-135000000D03*
X131000000Y-68000000D03*
X126000000Y-64000000D03*
X168000000Y-126000000D03*
X171000000Y-106000000D03*
X184000000Y-112000000D03*
X128000000Y-112000000D03*
X187000000Y-142000000D03*
X192000000Y-67000000D03*
X142000000Y-116000000D03*
X186000000Y-70000000D03*
X161000000Y-51000000D03*
X148000000Y-91000000D03*
X159000000Y-87000000D03*
X126000000Y-142000000D03*
X188000000Y-66000000D03*
X150000000Y-106000000D03*
X117000000Y-136000000D03*
X136000000Y-54000000D03*
X173000000Y-81000000D03*
X152000000Y-58000000D03*
X168000000Y-61000000D03*
X131000000Y-112000000D03*
X172000000Y-125000000D03*
X161000000Y-133000000D03*
X159000000Y-86000000D03*
X156000000Y-77000000D03*
X141000000Y-51000000D03*
X127000000Y-145000000D03*
X159000000Y-141000000D03*
X146000000Y-92000000D03*
X102000000Y-105000000D03*
X162000000Y-54000000D03*
X131000000Y-135000000D03*
X116000000Y-48000000D03*
X157000000Y-142000000D03*
X117000000Y-112000000D03*
X143000000Y-117000000D03*
X171000000Y-79000000D03*
X167000000Y-91000000D03*
X186000000Y-85000000D03*
X122000000Y-136000000D03*
X166000000Y-120000000D03*
X167000000Y-130000000D03*
X127000000Y-119000000D03*
X176000000Y-133000000D03*
X106000000Y-118000000D03*
X136000000Y-139000000D03*
X171000000Y-66000000D03*
X163000000Y-72000000D03*
X162000000Y-93000000D03*
X186000000Y-111000000D03*
X147000000Y-83000000D03*
X127000000Y-95000000D03*
X185000000Y-56000000D03*
X176000000Y-123000000D03*
X169000000Y-117000000D03*
X156000000Y-117000000D03*
X160000000Y-71000000D03*
X146000000Y-112000000D03*
X127000000Y-85000000D03*
X157000000Y-127000000D03*
X111000000Y-124000000D03*
X162000000Y-90000000D03*
X132000000Y-101000000D03*
X147000000Y-129000000D03*
X187000000Y-64000000D03*
X173000000Y-102000000D03*
X172000000Y-92000000D03*
X147000000Y-132000000D03*
X119000000Y-107000000D03*
X146000000Y-127000000D03*
X132000000Y-113000000D03*
X117000000Y-58000000D03*
X185000000Y-57000000D03*
X175000000Y-52000000D03*
X175000000Y-97000000D03*
X157000000Y-58000000D03*
X110000000Y-71000000D03*
X127000000Y-59000000D03*
X153000000Y-132000000D03*
X102000000Y-50000000D03*
X151000000Y-94000000D03*
X181000000Y-80000000D03*
X137000000Y-53000000D03*
X107000000Y-63000000D03*
X181000000Y-122000000D03*
X127000000Y-125000000D03*
X171000000Y-78000000D03*
X116000000Y-79000000D03*
X107000000Y-107000000D03*
X102000000Y-101000000D03*
X101000000Y-103000000D03*
X132000000Y-114000000D03*
X132000000Y-85000000D03*
X148000000Y-141000000D03*
X186000000Y-124000000D03*
X106000000Y-54000000D03*
X102000000Y-53000000D03*
X124000000Y-142000000D03*
X180000000Y-56000000D03*
X104000000Y-121000000D03*
X192000000Y-104000000D03*
X126000000Y-71000000D03*
X186000000Y-52000000D03*
X171000000Y-69000000D03*
X148000000Y-142000000D03*
X181000000Y-131000000D03*
X101000000Y-92000000D03*
X186000000Y-116000000D03*
X192000000Y-80000000D03*
X171000000Y-117000000D03*
X176000000Y-144000000D03*
X117000000Y-121000000D03*
X101000000Y-96000000D03*
X116000000Y-118000000D03*
X111000000Y-93000000D03*
X155000000Y-66000000D03*
X122000000Y-51000000D03*
X160000000Y-61000000D03*
X161000000Y-105000000D03*
X147000000Y-93000000D03*
X166000000Y-98000000D03*
X120000000Y-51000000D03*
X174000000Y-82000000D03*
X110000000Y-101000000D03*
X106000000Y-93000000D03*
X147000000Y-137000000D03*
X171000000Y-101000000D03*
X117000000Y-120000000D03*
X122000000Y-118000000D03*
X186000000Y-128000000D03*
X191000000Y-103000000D03*
X102000000Y-78000000D03*
X126000000Y-90000000D03*
X158000000Y-66000000D03*
X146000000Y-119000000D03*
X151000000Y-73000000D03*
X124000000Y-61000000D03*
X192000000Y-135000000D03*
X112000000Y-67000000D03*
X167000000Y-85000000D03*
X115000000Y-122000000D03*
X161000000Y-65000000D03*
X132000000Y-70000000D03*
X167000000Y-121000000D03*
X137000000Y-64000000D03*
X121000000Y-63000000D03*
X174000000Y-101000000D03*
X192000000Y-74000000D03*
X177000000Y-50000000D03*
X167000000Y-62000000D03*
X186000000Y-103000000D03*
X145000000Y-111000000D03*
X185000000Y-51000000D03*
X185000000Y-106000000D03*
X171000000Y-130000000D03*
X182000000Y-94000000D03*
X185000000Y-82000000D03*
X177000000Y-92000000D03*
X117000000Y-124000000D03*
X173000000Y-116000000D03*
X137000000Y-111000000D03*
X184000000Y-52000000D03*
X102000000Y-77000000D03*
X102000000Y-121000000D03*
X172000000Y-95000000D03*
X187000000Y-114000000D03*
X136000000Y-103000000D03*
X127000000Y-80000000D03*
X149000000Y-131000000D03*
X186000000Y-122000000D03*
X122000000Y-86000000D03*
X192000000Y-83000000D03*
X157000000Y-120000000D03*
X127000000Y-81000000D03*
X151000000Y-105000000D03*
X159000000Y-66000000D03*
X158000000Y-131000000D03*
X152000000Y-112000000D03*
X176000000Y-139000000D03*
X151000000Y-111000000D03*
X127000000Y-50000000D03*
X166000000Y-106000000D03*
X116000000Y-127000000D03*
X157000000Y-60000000D03*
X170000000Y-101000000D03*
X193000000Y-131000000D03*
X181000000Y-77000000D03*
X136000000Y-141000000D03*
X174000000Y-106000000D03*
X106000000Y-104000000D03*
X163000000Y-77000000D03*
X186000000Y-106000000D03*
X146000000Y-80000000D03*
X117000000Y-82000000D03*
X191000000Y-74000000D03*
X124000000Y-131000000D03*
X174000000Y-61000000D03*
X137000000Y-127000000D03*
X172000000Y-131000000D03*
X186000000Y-83000000D03*
X161000000Y-118000000D03*
X98000000Y-56000000D03*
X100000000Y-142000000D03*
X185000000Y-87000000D03*
X176000000Y-70000000D03*
X173000000Y-86000000D03*
X141000000Y-78000000D03*
X132000000Y-128000000D03*
X156000000Y-127000000D03*
X131000000Y-101000000D03*
X177000000Y-95000000D03*
X191000000Y-86000000D03*
X171000000Y-118000000D03*
X119000000Y-87000000D03*
X122000000Y-115000000D03*
X108000000Y-72000000D03*
X194000000Y-97000000D03*
X172000000Y-106000000D03*
X172000000Y-70000000D03*
X172000000Y-103000000D03*
X162000000Y-126000000D03*
X121000000Y-143000000D03*
X116000000Y-91000000D03*
X137000000Y-51000000D03*
X166000000Y-140000000D03*
X112000000Y-142000000D03*
X134000000Y-141000000D03*
X181000000Y-73000000D03*
X101000000Y-126000000D03*
X160000000Y-77000000D03*
X167000000Y-58000000D03*
X107000000Y-65000000D03*
X176000000Y-86000000D03*
X115000000Y-96000000D03*
X155000000Y-107000000D03*
X152000000Y-74000000D03*
X151000000Y-98000000D03*
X118000000Y-77000000D03*
X106000000Y-57000000D03*
X171000000Y-71000000D03*
X191000000Y-95000000D03*
X146000000Y-79000000D03*
X161000000Y-100000000D03*
X98000000Y-91000000D03*
X159000000Y-77000000D03*
X99000000Y-116000000D03*
X107000000Y-124000000D03*
X183000000Y-66000000D03*
X160000000Y-76000000D03*
X149000000Y-121000000D03*
X171000000Y-143000000D03*
X152000000Y-108000000D03*
X100000000Y-101000000D03*
X121000000Y-54000000D03*
X133000000Y-96000000D03*
X154000000Y-91000000D03*
X152000000Y-75000000D03*
X151000000Y-48000000D03*
X162000000Y-143000000D03*
X126000000Y-110000000D03*
X139000000Y-116000000D03*
X181000000Y-71000000D03*
X176000000Y-126000000D03*
X129000000Y-72000000D03*
X150000000Y-116000000D03*
X149000000Y-137000000D03*
X107000000Y-96000000D03*
X186000000Y-145000000D03*
X142000000Y-53000000D03*
X107000000Y-97000000D03*
X111000000Y-103000000D03*
X106000000Y-122000000D03*
X161000000Y-75000000D03*
X116000000Y-87000000D03*
X174000000Y-92000000D03*
X171000000Y-97000000D03*
X130000000Y-86000000D03*
X182000000Y-80000000D03*
X120000000Y-106000000D03*
X146000000Y-97000000D03*
X192000000Y-143000000D03*
X172000000Y-111000000D03*
X101000000Y-69000000D03*
X156000000Y-137000000D03*
X127000000Y-141000000D03*
X182000000Y-119000000D03*
X172000000Y-122000000D03*
X168000000Y-132000000D03*
X134000000Y-142000000D03*
X187000000Y-121000000D03*
X107000000Y-113000000D03*
X164000000Y-122000000D03*
X141000000Y-59000000D03*
X111000000Y-83000000D03*
X102000000Y-83000000D03*
X151000000Y-140000000D03*
X98000000Y-111000000D03*
X161000000Y-66000000D03*
X112000000Y-121000000D03*
X136000000Y-112000000D03*
X111000000Y-80000000D03*
X195000000Y-77000000D03*
X163000000Y-87000000D03*
X172000000Y-63000000D03*
X140000000Y-52000000D03*
X177000000Y-70000000D03*
X132000000Y-138000000D03*
X152000000Y-136000000D03*
X170000000Y-77000000D03*
X126000000Y-125000000D03*
X190000000Y-66000000D03*
X152000000Y-78000000D03*
X181000000Y-128000000D03*
X151000000Y-83000000D03*
X133000000Y-112000000D03*
X102000000Y-94000000D03*
X152000000Y-79000000D03*
X177000000Y-136000000D03*
X158000000Y-137000000D03*
X142000000Y-63000000D03*
X157000000Y-130000000D03*
X102000000Y-103000000D03*
X113000000Y-77000000D03*
X169000000Y-62000000D03*
X156000000Y-121000000D03*
X103000000Y-71000000D03*
X100000000Y-76000000D03*
X186000000Y-104000000D03*
X147000000Y-145000000D03*
X187000000Y-48000000D03*
X115000000Y-76000000D03*
X112000000Y-126000000D03*
X107000000Y-109000000D03*
X105000000Y-77000000D03*
X166000000Y-130000000D03*
X120000000Y-81000000D03*
X187000000Y-65000000D03*
X167000000Y-51000000D03*
X128000000Y-82000000D03*
X126000000Y-95000000D03*
X111000000Y-59000000D03*
X131000000Y-67000000D03*
X192000000Y-102000000D03*
X191000000Y-84000000D03*
X98000000Y-72000000D03*
X172000000Y-58000000D03*
X167000000Y-101000000D03*
X149000000Y-96000000D03*
X175000000Y-82000000D03*
X166000000Y-132000000D03*
X133000000Y-57000000D03*
X176000000Y-65000000D03*
X152000000Y-90000000D03*
X161000000Y-109000000D03*
X161000000Y-128000000D03*
X147000000Y-66000000D03*
X141000000Y-65000000D03*
X161000000Y-144000000D03*
X125000000Y-111000000D03*
X174000000Y-136000000D03*
X117000000Y-115000000D03*
X152000000Y-49000000D03*
X162000000Y-53000000D03*
X172000000Y-126000000D03*
X137000000Y-81000000D03*
X192000000Y-64000000D03*
X167000000Y-81000000D03*
X112000000Y-104000000D03*
X117000000Y-81000000D03*
X181000000Y-96000000D03*
X156000000Y-100000000D03*
X151000000Y-112000000D03*
X161000000Y-54000000D03*
X150000000Y-67000000D03*
X177000000Y-81000000D03*
X195000000Y-132000000D03*
X156000000Y-125000000D03*
X159000000Y-71000000D03*
X167000000Y-138000000D03*
X123000000Y-141000000D03*
X112000000Y-99000000D03*
X182000000Y-59000000D03*
X105000000Y-107000000D03*
X131000000Y-121000000D03*
X122000000Y-57000000D03*
X109000000Y-122000000D03*
X158000000Y-122000000D03*
X148000000Y-122000000D03*
X119000000Y-81000000D03*
X100000000Y-81000000D03*
X162000000Y-123000000D03*
X161000000Y-101000000D03*
X107000000Y-55000000D03*
X169000000Y-87000000D03*
X187000000Y-133000000D03*
X112000000Y-54000000D03*
X147000000Y-95000000D03*
X176000000Y-116000000D03*
X167000000Y-89000000D03*
X191000000Y-55000000D03*
X142000000Y-89000000D03*
X162000000Y-109000000D03*
X100000000Y-131000000D03*
X147000000Y-91000000D03*
X134000000Y-116000000D03*
X194000000Y-112000000D03*
X101000000Y-105000000D03*
X162000000Y-92000000D03*
X107000000Y-64000000D03*
X112000000Y-77000000D03*
X128000000Y-77000000D03*
X193000000Y-127000000D03*
X133000000Y-131000000D03*
X179000000Y-122000000D03*
X110000000Y-86000000D03*
X119000000Y-91000000D03*
X156000000Y-145000000D03*
X147000000Y-99000000D03*
X174000000Y-56000000D03*
X183000000Y-96000000D03*
X156000000Y-53000000D03*
X126000000Y-55000000D03*
X147000000Y-102000000D03*
X107000000Y-145000000D03*
X142000000Y-100000000D03*
X142000000Y-96000000D03*
X171000000Y-54000000D03*
X188000000Y-81000000D03*
X118000000Y-96000000D03*
X117000000Y-83000000D03*
X140000000Y-131000000D03*
X144000000Y-137000000D03*
X191000000Y-112000000D03*
X120000000Y-77000000D03*
X151000000Y-68000000D03*
X149000000Y-132000000D03*
X145000000Y-137000000D03*
X171000000Y-94000000D03*
X136000000Y-95000000D03*
X157000000Y-138000000D03*
X135000000Y-67000000D03*
X104000000Y-96000000D03*
X145000000Y-76000000D03*
X176000000Y-121000000D03*
X139000000Y-87000000D03*
X102000000Y-74000000D03*
X129000000Y-132000000D03*
X166000000Y-53000000D03*
X131000000Y-140000000D03*
X137000000Y-109000000D03*
X168000000Y-102000000D03*
X181000000Y-56000000D03*
X168000000Y-92000000D03*
X184000000Y-92000000D03*
X161000000Y-106000000D03*
X181000000Y-125000000D03*
X152000000Y-140000000D03*
X161000000Y-89000000D03*
X142000000Y-109000000D03*
X176000000Y-101000000D03*
X187000000Y-122000000D03*
X137000000Y-105000000D03*
X129000000Y-67000000D03*
X113000000Y-117000000D03*
X165000000Y-141000000D03*
X151000000Y-102000000D03*
X102000000Y-130000000D03*
X169000000Y-137000000D03*
X155000000Y-122000000D03*
X112000000Y-111000000D03*
X177000000Y-83000000D03*
X131000000Y-124000000D03*
X112000000Y-65000000D03*
X131000000Y-137000000D03*
X131000000Y-105000000D03*
X122000000Y-65000000D03*
X171000000Y-141000000D03*
X167000000Y-69000000D03*
X112000000Y-70000000D03*
X194000000Y-132000000D03*
X137000000Y-114000000D03*
X182000000Y-67000000D03*
X141000000Y-52000000D03*
X157000000Y-68000000D03*
X127000000Y-78000000D03*
X175000000Y-57000000D03*
X178000000Y-51000000D03*
X100000000Y-91000000D03*
X152000000Y-82000000D03*
X189000000Y-121000000D03*
X181000000Y-58000000D03*
X193000000Y-92000000D03*
X101000000Y-71000000D03*
X99000000Y-107000000D03*
X161000000Y-74000000D03*
X186000000Y-110000000D03*
X142000000Y-93000000D03*
X182000000Y-84000000D03*
X116000000Y-54000000D03*
X126000000Y-121000000D03*
X101000000Y-120000000D03*
X136000000Y-134000000D03*
X162000000Y-65000000D03*
X131000000Y-70000000D03*
X141000000Y-105000000D03*
X175000000Y-106000000D03*
X127000000Y-120000000D03*
X170000000Y-92000000D03*
X137000000Y-59000000D03*
X112000000Y-57000000D03*
X158000000Y-117000000D03*
X186000000Y-118000000D03*
X107000000Y-94000000D03*
X126000000Y-67000000D03*
X152000000Y-105000000D03*
X194000000Y-101000000D03*
X148000000Y-131000000D03*
X152000000Y-52000000D03*
X149000000Y-102000000D03*
X148000000Y-112000000D03*
X166000000Y-58000000D03*
X148000000Y-102000000D03*
X157000000Y-76000000D03*
X177000000Y-114000000D03*
X152000000Y-143000000D03*
X146000000Y-72000000D03*
X166000000Y-119000000D03*
X166000000Y-62000000D03*
X167000000Y-98000000D03*
X99000000Y-82000000D03*
X162000000Y-80000000D03*
X154000000Y-117000000D03*
X130000000Y-51000000D03*
X145000000Y-117000000D03*
X102000000Y-51000000D03*
X156000000Y-96000000D03*
X171000000Y-116000000D03*
X173000000Y-127000000D03*
X147000000Y-143000000D03*
X172000000Y-50000000D03*
X178000000Y-92000000D03*
X99000000Y-117000000D03*
X193000000Y-71000000D03*
X102000000Y-127000000D03*
X119000000Y-101000000D03*
X136000000Y-123000000D03*
X145000000Y-116000000D03*
X162000000Y-94000000D03*
X100000000Y-87000000D03*
X167000000Y-135000000D03*
X180000000Y-57000000D03*
X194000000Y-66000000D03*
X167000000Y-63000000D03*
X135000000Y-71000000D03*
X176000000Y-79000000D03*
X181000000Y-50000000D03*
X101000000Y-121000000D03*
X194000000Y-136000000D03*
X144000000Y-141000000D03*
X116000000Y-74000000D03*
X117000000Y-98000000D03*
X177000000Y-76000000D03*
X194000000Y-77000000D03*
X171000000Y-121000000D03*
X171000000Y-139000000D03*
X135000000Y-56000000D03*
X147000000Y-81000000D03*
X162000000Y-88000000D03*
X168000000Y-107000000D03*
X166000000Y-59000000D03*
X138000000Y-82000000D03*
X132000000Y-63000000D03*
X132000000Y-64000000D03*
X181000000Y-48000000D03*
X176000000Y-66000000D03*
X107000000Y-70000000D03*
X172000000Y-68000000D03*
X103000000Y-121000000D03*
X111000000Y-82000000D03*
X185000000Y-72000000D03*
X157000000Y-124000000D03*
X127000000Y-51000000D03*
X181000000Y-84000000D03*
X135000000Y-131000000D03*
X124000000Y-141000000D03*
X117000000Y-97000000D03*
X133000000Y-111000000D03*
X191000000Y-64000000D03*
X147000000Y-104000000D03*
X162000000Y-129000000D03*
X131000000Y-130000000D03*
X186000000Y-138000000D03*
X173000000Y-62000000D03*
X150000000Y-132000000D03*
X111000000Y-112000000D03*
X137000000Y-86000000D03*
X187000000Y-79000000D03*
X147000000Y-122000000D03*
X117000000Y-119000000D03*
X122000000Y-127000000D03*
X185000000Y-122000000D03*
X145000000Y-122000000D03*
X170000000Y-76000000D03*
X122000000Y-116000000D03*
X114000000Y-131000000D03*
X115000000Y-106000000D03*
X169000000Y-72000000D03*
X128000000Y-67000000D03*
X132000000Y-78000000D03*
X192000000Y-86000000D03*
X101000000Y-129000000D03*
X119000000Y-51000000D03*
X176000000Y-87000000D03*
X131000000Y-69000000D03*
X161000000Y-60000000D03*
X164000000Y-127000000D03*
X136000000Y-99000000D03*
X155000000Y-121000000D03*
X137000000Y-116000000D03*
X124000000Y-56000000D03*
X107000000Y-102000000D03*
X167000000Y-70000000D03*
X157000000Y-86000000D03*
X117000000Y-73000000D03*
X132000000Y-95000000D03*
X132000000Y-93000000D03*
X126000000Y-141000000D03*
X128000000Y-126000000D03*
X142000000Y-79000000D03*
X116000000Y-90000000D03*
X137000000Y-133000000D03*
X107000000Y-50000000D03*
X157000000Y-84000000D03*
X141000000Y-67000000D03*
X141000000Y-79000000D03*
X137000000Y-52000000D03*
X129000000Y-126000000D03*
X160000000Y-131000000D03*
X149000000Y-142000000D03*
X160000000Y-97000000D03*
X122000000Y-67000000D03*
X99000000Y-121000000D03*
X129000000Y-91000000D03*
X171000000Y-88000000D03*
X142000000Y-142000000D03*
X118000000Y-76000000D03*
X156000000Y-141000000D03*
X115000000Y-56000000D03*
X141000000Y-89000000D03*
X184000000Y-102000000D03*
X182000000Y-141000000D03*
X157000000Y-93000000D03*
X134000000Y-97000000D03*
X136000000Y-122000000D03*
X166000000Y-48000000D03*
X171000000Y-82000000D03*
X159000000Y-126000000D03*
X141000000Y-128000000D03*
X146000000Y-60000000D03*
X153000000Y-87000000D03*
X130000000Y-121000000D03*
X162000000Y-71000000D03*
X112000000Y-59000000D03*
X125000000Y-112000000D03*
X107000000Y-144000000D03*
X108000000Y-106000000D03*
X101000000Y-72000000D03*
X109000000Y-107000000D03*
X114000000Y-137000000D03*
X151000000Y-138000000D03*
X161000000Y-78000000D03*
X112000000Y-88000000D03*
X114000000Y-52000000D03*
X146000000Y-102000000D03*
X167000000Y-115000000D03*
X147000000Y-60000000D03*
X182000000Y-83000000D03*
X122000000Y-64000000D03*
X142000000Y-58000000D03*
X102000000Y-92000000D03*
X178000000Y-107000000D03*
X177000000Y-93000000D03*
X163000000Y-131000000D03*
X136000000Y-90000000D03*
X99000000Y-67000000D03*
X105000000Y-87000000D03*
X125000000Y-77000000D03*
X111000000Y-92000000D03*
X168000000Y-97000000D03*
X107000000Y-81000000D03*
X107000000Y-68000000D03*
X152000000Y-77000000D03*
X152000000Y-65000000D03*
X110000000Y-106000000D03*
X121000000Y-58000000D03*
X192000000Y-127000000D03*
X182000000Y-118000000D03*
X147000000Y-88000000D03*
X165000000Y-111000000D03*
X195000000Y-111000000D03*
X172000000Y-77000000D03*
X133000000Y-67000000D03*
X133000000Y-86000000D03*
X112000000Y-50000000D03*
X146000000Y-82000000D03*
X187000000Y-123000000D03*
X125000000Y-106000000D03*
X181000000Y-113000000D03*
X122000000Y-74000000D03*
X193000000Y-67000000D03*
X189000000Y-86000000D03*
X130000000Y-142000000D03*
X136000000Y-120000000D03*
X101000000Y-114000000D03*
X182000000Y-89000000D03*
X156000000Y-110000000D03*
X121000000Y-67000000D03*
X156000000Y-79000000D03*
X176000000Y-75000000D03*
X140000000Y-86000000D03*
X177000000Y-96000000D03*
X182000000Y-134000000D03*
X187000000Y-95000000D03*
X127000000Y-54000000D03*
X98000000Y-131000000D03*
X190000000Y-137000000D03*
X132000000Y-130000000D03*
X184000000Y-96000000D03*
X101000000Y-128000000D03*
X172000000Y-105000000D03*
X114000000Y-87000000D03*
X150000000Y-51000000D03*
X127000000Y-122000000D03*
X142000000Y-69000000D03*
X150000000Y-77000000D03*
X139000000Y-126000000D03*
X190000000Y-91000000D03*
X101000000Y-77000000D03*
X141000000Y-87000000D03*
X165000000Y-121000000D03*
X173000000Y-51000000D03*
X160000000Y-101000000D03*
X182000000Y-68000000D03*
X170000000Y-122000000D03*
X183000000Y-51000000D03*
X116000000Y-103000000D03*
X181000000Y-114000000D03*
X168000000Y-52000000D03*
X185000000Y-101000000D03*
X130000000Y-67000000D03*
X129000000Y-122000000D03*
X192000000Y-120000000D03*
X191000000Y-104000000D03*
X147000000Y-82000000D03*
X113000000Y-141000000D03*
X187000000Y-88000000D03*
X154000000Y-87000000D03*
X101000000Y-141000000D03*
X164000000Y-131000000D03*
X192000000Y-49000000D03*
X167000000Y-142000000D03*
X129000000Y-142000000D03*
X121000000Y-113000000D03*
X121000000Y-139000000D03*
X140000000Y-107000000D03*
X122000000Y-71000000D03*
X144000000Y-52000000D03*
X177000000Y-97000000D03*
X164000000Y-142000000D03*
X185000000Y-127000000D03*
X181000000Y-70000000D03*
X158000000Y-126000000D03*
X160000000Y-51000000D03*
X141000000Y-66000000D03*
X107000000Y-60000000D03*
X163000000Y-112000000D03*
X151000000Y-132000000D03*
X187000000Y-140000000D03*
X141000000Y-53000000D03*
X115000000Y-112000000D03*
X135000000Y-107000000D03*
X152000000Y-111000000D03*
X142000000Y-97000000D03*
X166000000Y-136000000D03*
X117000000Y-90000000D03*
%TD*%
%TA.AperFunction,Conductor*%
%TO.N,GND*%
G36*
X193986852Y-47262479D02*
G01*
X194000000Y-47265094D01*
X194012462Y-47262615D01*
X194025169Y-47262615D01*
X194025169Y-47263274D01*
X194036168Y-47262587D01*
X194238423Y-47277053D01*
X194256640Y-47279672D01*
X194481196Y-47328520D01*
X194498857Y-47333706D01*
X194714184Y-47414019D01*
X194730919Y-47421662D01*
X194871827Y-47498603D01*
X194932617Y-47531797D01*
X194948099Y-47541747D01*
X195132068Y-47679463D01*
X195145979Y-47691516D01*
X195308484Y-47854021D01*
X195320537Y-47867932D01*
X195458253Y-48051901D01*
X195468202Y-48067382D01*
X195578338Y-48269081D01*
X195585981Y-48285816D01*
X195666294Y-48501143D01*
X195671480Y-48518804D01*
X195720328Y-48743360D01*
X195722947Y-48761577D01*
X195737413Y-48963832D01*
X195736726Y-48974831D01*
X195737385Y-48974831D01*
X195737385Y-48987538D01*
X195734906Y-49000000D01*
X195737385Y-49012461D01*
X195737521Y-49013145D01*
X195740000Y-49038313D01*
X195740000Y-143961687D01*
X195737521Y-143986852D01*
X195734906Y-144000000D01*
X195737385Y-144012462D01*
X195737385Y-144025169D01*
X195736726Y-144025169D01*
X195737413Y-144036168D01*
X195722947Y-144238423D01*
X195720328Y-144256640D01*
X195671480Y-144481196D01*
X195666294Y-144498857D01*
X195585981Y-144714184D01*
X195578338Y-144730919D01*
X195468203Y-144932617D01*
X195458253Y-144948099D01*
X195320537Y-145132068D01*
X195308484Y-145145979D01*
X195145979Y-145308484D01*
X195132068Y-145320537D01*
X194948099Y-145458253D01*
X194932618Y-145468202D01*
X194730919Y-145578338D01*
X194714184Y-145585981D01*
X194498857Y-145666294D01*
X194481196Y-145671480D01*
X194256640Y-145720328D01*
X194238423Y-145722947D01*
X194036168Y-145737413D01*
X194025169Y-145736726D01*
X194025169Y-145737385D01*
X194012462Y-145737385D01*
X194000000Y-145734906D01*
X193986852Y-145737521D01*
X193961687Y-145740000D01*
X99038313Y-145740000D01*
X99013148Y-145737521D01*
X99000000Y-145734906D01*
X98987538Y-145737385D01*
X98974831Y-145737385D01*
X98974831Y-145736726D01*
X98963832Y-145737413D01*
X98761577Y-145722947D01*
X98743360Y-145720328D01*
X98518804Y-145671480D01*
X98501143Y-145666294D01*
X98285816Y-145585981D01*
X98269081Y-145578338D01*
X98067382Y-145468202D01*
X98051901Y-145458253D01*
X97867932Y-145320537D01*
X97854021Y-145308484D01*
X97691516Y-145145979D01*
X97679463Y-145132068D01*
X97541747Y-144948099D01*
X97531797Y-144932617D01*
X97421662Y-144730919D01*
X97414019Y-144714184D01*
X97333706Y-144498857D01*
X97328520Y-144481196D01*
X97279672Y-144256640D01*
X97277053Y-144238423D01*
X97262587Y-144036168D01*
X97263274Y-144025169D01*
X97262615Y-144025169D01*
X97262615Y-144012462D01*
X97265094Y-144000000D01*
X97262479Y-143986852D01*
X97260000Y-143961687D01*
X97260000Y-49038313D01*
X97262479Y-49013145D01*
X97262615Y-49012461D01*
X97265094Y-49000000D01*
X97262615Y-48987538D01*
X97262615Y-48974831D01*
X97263274Y-48974831D01*
X97262587Y-48963832D01*
X97277053Y-48761577D01*
X97279672Y-48743360D01*
X97328520Y-48518804D01*
X97333706Y-48501143D01*
X97414019Y-48285816D01*
X97421662Y-48269081D01*
X97531798Y-48067382D01*
X97541747Y-48051901D01*
X97679463Y-47867932D01*
X97691516Y-47854021D01*
X97854021Y-47691516D01*
X97867932Y-47679463D01*
X98051901Y-47541747D01*
X98067383Y-47531797D01*
X98128173Y-47498603D01*
X98269081Y-47421662D01*
X98285816Y-47414019D01*
X98501143Y-47333706D01*
X98518804Y-47328520D01*
X98743360Y-47279672D01*
X98761577Y-47277053D01*
X98963832Y-47262587D01*
X98974831Y-47263274D01*
X98974831Y-47262615D01*
X98987538Y-47262615D01*
X99000000Y-47265094D01*
X99013148Y-47262479D01*
X99038313Y-47260000D01*
X193961687Y-47260000D01*
X193986852Y-47262479D01*
G37*
%TD.AperFunction*%
%TD*%
M02*
