%TF.GenerationSoftware,KiCad,Pcbnew,7.0.5+dfsg-2*%
%TF.CreationDate,2023-08-15T21:55:21+02:00*%
%TF.ProjectId,022-lumped-quadrature-coupler,3032322d-6c75-46d7-9065-642d71756164,1*%
%TF.SameCoordinates,Original*%
%TF.FileFunction,Copper,L2,Bot*%
%TF.FilePolarity,Positive*%
%FSLAX46Y46*%
G04 Gerber Fmt 4.6, Leading zero omitted, Abs format (unit mm)*
G04 Created by KiCad (PCBNEW 7.0.5+dfsg-2) date 2023-08-15 21:55:21*
%MOMM*%
%LPD*%
G01*
G04 APERTURE LIST*
%TA.AperFunction,ComponentPad*%
%ADD10C,0.800000*%
%TD*%
%TA.AperFunction,SMDPad,CuDef*%
%ADD11R,5.200000X3.000000*%
%TD*%
%TA.AperFunction,ComponentPad*%
%ADD12C,3.400000*%
%TD*%
%TA.AperFunction,SMDPad,CuDef*%
%ADD13R,3.000000X5.200000*%
%TD*%
%TA.AperFunction,ViaPad*%
%ADD14C,0.800000*%
%TD*%
G04 APERTURE END LIST*
D10*
%TO.P,J2,2,Pin_2*%
%TO.N,GND*%
X149000000Y-86500000D03*
D11*
X147500000Y-86000000D03*
D10*
X146500000Y-86000000D03*
X148500000Y-85000000D03*
X148500000Y-86000000D03*
X146500000Y-85000000D03*
X146000000Y-86500000D03*
X149000000Y-85500000D03*
X146000000Y-85500000D03*
X148500000Y-87000000D03*
X146500000Y-87000000D03*
%TD*%
D12*
%TO.P,H3,1,1*%
%TO.N,GND*%
X140000000Y-70000000D03*
%TD*%
D10*
%TO.P,J3,2,Pin_2*%
%TO.N,GND*%
X157000000Y-76500000D03*
X155500000Y-76000000D03*
X157000000Y-78500000D03*
X155000000Y-78500000D03*
X156500000Y-79000000D03*
X156000000Y-76500000D03*
X155000000Y-76500000D03*
X156000000Y-78500000D03*
X156500000Y-76000000D03*
X155500000Y-79000000D03*
D13*
X156000000Y-77500000D03*
%TD*%
D12*
%TO.P,H1,1,1*%
%TO.N,GND*%
X155000000Y-85000000D03*
%TD*%
%TO.P,H2,1,1*%
%TO.N,GND*%
X155000000Y-70000000D03*
%TD*%
D10*
%TO.P,J1,2,Pin_2*%
%TO.N,GND*%
X139000000Y-76500000D03*
D13*
X139000000Y-77500000D03*
D10*
X139000000Y-78500000D03*
X138000000Y-76500000D03*
X139500000Y-76000000D03*
X139500000Y-79000000D03*
X140000000Y-76500000D03*
X138000000Y-78500000D03*
X140000000Y-78500000D03*
X138500000Y-79000000D03*
X138500000Y-76000000D03*
%TD*%
D12*
%TO.P,H4,1,1*%
%TO.N,GND*%
X140000000Y-85000000D03*
%TD*%
D14*
%TO.N,GND*%
X146000000Y-77700000D03*
X149000000Y-77800000D03*
X149000000Y-74700000D03*
X146000000Y-74700000D03*
X148600000Y-72300000D03*
X149700000Y-72100000D03*
X151400000Y-72400000D03*
X151600816Y-74936391D03*
X152700000Y-76000000D03*
X153800000Y-76400000D03*
X153800000Y-78600000D03*
X152453408Y-78464671D03*
X151500000Y-78000000D03*
X151500000Y-83000000D03*
X149300000Y-82200000D03*
X149300000Y-81000000D03*
X148500000Y-80400000D03*
X148500000Y-81600000D03*
X148500000Y-82800000D03*
X148500000Y-83900000D03*
X146500000Y-83900000D03*
X146500000Y-82800000D03*
X146400000Y-81200000D03*
X145700000Y-80100000D03*
X143600000Y-80100000D03*
X143300000Y-77900000D03*
X142200000Y-78400000D03*
X141200000Y-78500000D03*
X145400000Y-76300000D03*
X145400000Y-72100000D03*
X143600000Y-72400000D03*
X143400000Y-74100000D03*
X143500000Y-75000000D03*
X142200000Y-76200000D03*
X141200000Y-76500000D03*
X142500000Y-72500000D03*
X147500000Y-77500000D03*
X147500000Y-75000000D03*
X147500000Y-72500000D03*
X152500000Y-72500000D03*
X152500000Y-75000000D03*
X152500000Y-80000000D03*
X152500000Y-82500000D03*
X145000000Y-82500000D03*
X142500000Y-82500000D03*
X142500000Y-80000000D03*
X142500000Y-75000000D03*
X140000000Y-82500000D03*
X140000000Y-75000000D03*
X155000000Y-72500000D03*
X152500000Y-85000000D03*
X142500000Y-85000000D03*
X140000000Y-80000000D03*
X155000000Y-82500000D03*
X155000000Y-80000000D03*
X150000000Y-70000000D03*
X145000000Y-85000000D03*
X155000000Y-75000000D03*
X152500000Y-70000000D03*
X140000000Y-72500000D03*
X150000000Y-85000000D03*
%TD*%
%TA.AperFunction,Conductor*%
%TO.N,GND*%
G36*
X155001476Y-67500589D02*
G01*
X155099080Y-67506493D01*
X155307148Y-67520131D01*
X155312765Y-67520828D01*
X155449219Y-67545834D01*
X155616297Y-67579068D01*
X155621349Y-67580354D01*
X155760621Y-67623752D01*
X155761733Y-67624115D01*
X155915621Y-67676353D01*
X155919989Y-67678073D01*
X156055750Y-67739174D01*
X156057206Y-67739860D01*
X156200325Y-67810439D01*
X156204041Y-67812474D01*
X156332633Y-67890210D01*
X156334511Y-67891405D01*
X156465970Y-67979243D01*
X156468997Y-67981436D01*
X156587843Y-68074544D01*
X156589928Y-68076272D01*
X156708370Y-68180143D01*
X156710735Y-68182358D01*
X156817640Y-68289263D01*
X156819855Y-68291628D01*
X156923721Y-68410064D01*
X156925454Y-68412155D01*
X157018562Y-68531001D01*
X157020755Y-68534028D01*
X157108593Y-68665487D01*
X157109797Y-68667380D01*
X157187524Y-68795957D01*
X157189559Y-68799673D01*
X157234030Y-68889851D01*
X157260115Y-68942745D01*
X157260847Y-68944298D01*
X157321919Y-69079995D01*
X157323654Y-69084401D01*
X157375879Y-69238254D01*
X157376265Y-69239438D01*
X157419640Y-69378633D01*
X157420931Y-69383706D01*
X157454175Y-69550833D01*
X157479165Y-69687197D01*
X157479871Y-69692888D01*
X157493520Y-69901162D01*
X157497432Y-69965819D01*
X157499410Y-69998524D01*
X157499500Y-70001490D01*
X157499500Y-84998509D01*
X157499410Y-85001476D01*
X157497644Y-85030672D01*
X157493520Y-85098836D01*
X157479871Y-85307110D01*
X157479165Y-85312801D01*
X157454175Y-85449165D01*
X157420931Y-85616292D01*
X157419640Y-85621365D01*
X157376265Y-85760560D01*
X157375879Y-85761744D01*
X157323654Y-85915597D01*
X157321919Y-85920003D01*
X157260847Y-86055700D01*
X157260103Y-86057279D01*
X157189559Y-86200325D01*
X157187524Y-86204041D01*
X157109797Y-86332618D01*
X157108593Y-86334511D01*
X157020755Y-86465970D01*
X157018562Y-86468997D01*
X156925454Y-86587843D01*
X156923704Y-86589954D01*
X156819855Y-86708370D01*
X156817640Y-86710735D01*
X156710735Y-86817640D01*
X156708370Y-86819855D01*
X156589954Y-86923704D01*
X156587843Y-86925454D01*
X156468997Y-87018562D01*
X156465970Y-87020755D01*
X156334511Y-87108593D01*
X156332618Y-87109797D01*
X156204041Y-87187524D01*
X156200325Y-87189559D01*
X156057279Y-87260103D01*
X156055700Y-87260847D01*
X155920003Y-87321919D01*
X155915597Y-87323654D01*
X155761744Y-87375879D01*
X155760560Y-87376265D01*
X155621365Y-87419640D01*
X155616292Y-87420931D01*
X155449165Y-87454175D01*
X155395351Y-87464037D01*
X155312798Y-87479165D01*
X155307113Y-87479870D01*
X155284788Y-87481333D01*
X155098836Y-87493520D01*
X155032463Y-87497536D01*
X155001475Y-87499410D01*
X154998510Y-87499500D01*
X140001490Y-87499500D01*
X139998524Y-87499410D01*
X139965819Y-87497432D01*
X139901162Y-87493520D01*
X139728105Y-87482178D01*
X139692881Y-87479870D01*
X139687205Y-87479166D01*
X139550823Y-87454173D01*
X139383706Y-87420931D01*
X139378633Y-87419640D01*
X139239438Y-87376265D01*
X139238254Y-87375879D01*
X139084401Y-87323654D01*
X139079995Y-87321919D01*
X138944298Y-87260847D01*
X138942745Y-87260115D01*
X138889851Y-87234030D01*
X138799673Y-87189559D01*
X138795957Y-87187524D01*
X138667380Y-87109797D01*
X138665487Y-87108593D01*
X138534028Y-87020755D01*
X138531001Y-87018562D01*
X138412155Y-86925454D01*
X138410064Y-86923721D01*
X138291628Y-86819855D01*
X138289263Y-86817640D01*
X138182358Y-86710735D01*
X138180143Y-86708370D01*
X138076272Y-86589928D01*
X138074544Y-86587843D01*
X137981436Y-86468997D01*
X137979243Y-86465970D01*
X137891405Y-86334511D01*
X137890201Y-86332618D01*
X137812474Y-86204041D01*
X137810439Y-86200325D01*
X137739860Y-86057206D01*
X137739174Y-86055750D01*
X137678073Y-85919989D01*
X137676353Y-85915621D01*
X137624115Y-85761733D01*
X137623752Y-85760621D01*
X137580354Y-85621349D01*
X137579067Y-85616292D01*
X137545834Y-85449219D01*
X137520828Y-85312765D01*
X137520131Y-85307148D01*
X137506493Y-85099080D01*
X137500589Y-85001476D01*
X137500500Y-84998510D01*
X137500500Y-70001488D01*
X137500589Y-69998523D01*
X137506487Y-69901008D01*
X137520131Y-69692847D01*
X137520827Y-69687239D01*
X137545839Y-69550752D01*
X137579070Y-69383693D01*
X137580351Y-69378659D01*
X137623767Y-69239332D01*
X137624099Y-69238314D01*
X137676358Y-69084364D01*
X137678067Y-69080024D01*
X137739195Y-68944203D01*
X137739839Y-68942836D01*
X137810449Y-68799654D01*
X137812462Y-68795978D01*
X137890235Y-68667325D01*
X137891386Y-68665516D01*
X137979259Y-68534004D01*
X137981436Y-68531001D01*
X137993875Y-68515122D01*
X138074571Y-68412122D01*
X138076242Y-68410106D01*
X138180174Y-68291594D01*
X138182343Y-68289278D01*
X138289278Y-68182343D01*
X138291594Y-68180174D01*
X138410106Y-68076242D01*
X138412122Y-68074571D01*
X138531001Y-67981436D01*
X138534004Y-67979259D01*
X138665516Y-67891386D01*
X138667325Y-67890235D01*
X138795978Y-67812462D01*
X138799654Y-67810449D01*
X138942836Y-67739839D01*
X138944203Y-67739195D01*
X139080024Y-67678067D01*
X139084364Y-67676358D01*
X139238314Y-67624099D01*
X139239332Y-67623767D01*
X139378659Y-67580351D01*
X139383693Y-67579070D01*
X139550752Y-67545839D01*
X139687239Y-67520827D01*
X139692847Y-67520131D01*
X139901019Y-67506487D01*
X139998523Y-67500589D01*
X140001490Y-67500500D01*
X154998510Y-67500500D01*
X155001476Y-67500589D01*
G37*
%TD.AperFunction*%
%TD*%
M02*
