%TF.GenerationSoftware,KiCad,Pcbnew,7.0.5+dfsg-2*%
%TF.CreationDate,2023-08-15T21:55:28+02:00*%
%TF.ProjectId,022-lumped-quadrature-coupler,3032322d-6c75-46d7-9065-642d71756164,1*%
%TF.SameCoordinates,Original*%
%TF.FileFunction,Drillmap*%
%TF.FilePolarity,Positive*%
%FSLAX45Y45*%
G04 Gerber Fmt 4.5, Leading zero omitted, Abs format (unit mm)*
G04 Created by KiCad (PCBNEW 7.0.5+dfsg-2) date 2023-08-15 21:55:28*
%MOMM*%
%LPD*%
G01*
G04 APERTURE LIST*
%ADD10C,0.100000*%
%ADD11C,0.200000*%
G04 APERTURE END LIST*
D10*
X13750000Y-8500000D02*
G75*
G03*
X14000000Y-8750000I250000J0D01*
G01*
X15500000Y-8750000D02*
X14000000Y-8750000D01*
X14000000Y-6750000D02*
X15500000Y-6750000D01*
X15750000Y-7000000D02*
X15750000Y-8500000D01*
X13750000Y-8500000D02*
X13750000Y-7000000D01*
X15500000Y-8750000D02*
G75*
G03*
X15750000Y-8500000I0J250000D01*
G01*
X15750000Y-7000000D02*
G75*
G03*
X15500000Y-6750000I-250000J0D01*
G01*
X14000000Y-6750000D02*
G75*
G03*
X13750000Y-7000000I0J-250000D01*
G01*
D11*
X14005777Y-9066484D02*
X14005777Y-8866484D01*
X14005777Y-8866484D02*
X14053396Y-8866484D01*
X14053396Y-8866484D02*
X14081967Y-8876008D01*
X14081967Y-8876008D02*
X14101015Y-8895055D01*
X14101015Y-8895055D02*
X14110539Y-8914103D01*
X14110539Y-8914103D02*
X14120062Y-8952198D01*
X14120062Y-8952198D02*
X14120062Y-8980770D01*
X14120062Y-8980770D02*
X14110539Y-9018865D01*
X14110539Y-9018865D02*
X14101015Y-9037912D01*
X14101015Y-9037912D02*
X14081967Y-9056960D01*
X14081967Y-9056960D02*
X14053396Y-9066484D01*
X14053396Y-9066484D02*
X14005777Y-9066484D01*
X14205777Y-9066484D02*
X14205777Y-8933150D01*
X14205777Y-8971246D02*
X14215301Y-8952198D01*
X14215301Y-8952198D02*
X14224824Y-8942674D01*
X14224824Y-8942674D02*
X14243872Y-8933150D01*
X14243872Y-8933150D02*
X14262920Y-8933150D01*
X14329586Y-9066484D02*
X14329586Y-8933150D01*
X14329586Y-8866484D02*
X14320062Y-8876008D01*
X14320062Y-8876008D02*
X14329586Y-8885531D01*
X14329586Y-8885531D02*
X14339110Y-8876008D01*
X14339110Y-8876008D02*
X14329586Y-8866484D01*
X14329586Y-8866484D02*
X14329586Y-8885531D01*
X14453396Y-9066484D02*
X14434348Y-9056960D01*
X14434348Y-9056960D02*
X14424824Y-9037912D01*
X14424824Y-9037912D02*
X14424824Y-8866484D01*
X14558158Y-9066484D02*
X14539110Y-9056960D01*
X14539110Y-9056960D02*
X14529586Y-9037912D01*
X14529586Y-9037912D02*
X14529586Y-8866484D01*
X14786729Y-9066484D02*
X14786729Y-8866484D01*
X14786729Y-8866484D02*
X14853396Y-9009341D01*
X14853396Y-9009341D02*
X14920062Y-8866484D01*
X14920062Y-8866484D02*
X14920062Y-9066484D01*
X15101015Y-9066484D02*
X15101015Y-8961722D01*
X15101015Y-8961722D02*
X15091491Y-8942674D01*
X15091491Y-8942674D02*
X15072443Y-8933150D01*
X15072443Y-8933150D02*
X15034348Y-8933150D01*
X15034348Y-8933150D02*
X15015301Y-8942674D01*
X15101015Y-9056960D02*
X15081967Y-9066484D01*
X15081967Y-9066484D02*
X15034348Y-9066484D01*
X15034348Y-9066484D02*
X15015301Y-9056960D01*
X15015301Y-9056960D02*
X15005777Y-9037912D01*
X15005777Y-9037912D02*
X15005777Y-9018865D01*
X15005777Y-9018865D02*
X15015301Y-8999817D01*
X15015301Y-8999817D02*
X15034348Y-8990293D01*
X15034348Y-8990293D02*
X15081967Y-8990293D01*
X15081967Y-8990293D02*
X15101015Y-8980770D01*
X15196253Y-8933150D02*
X15196253Y-9133150D01*
X15196253Y-8942674D02*
X15215301Y-8933150D01*
X15215301Y-8933150D02*
X15253396Y-8933150D01*
X15253396Y-8933150D02*
X15272443Y-8942674D01*
X15272443Y-8942674D02*
X15281967Y-8952198D01*
X15281967Y-8952198D02*
X15291491Y-8971246D01*
X15291491Y-8971246D02*
X15291491Y-9028389D01*
X15291491Y-9028389D02*
X15281967Y-9047436D01*
X15281967Y-9047436D02*
X15272443Y-9056960D01*
X15272443Y-9056960D02*
X15253396Y-9066484D01*
X15253396Y-9066484D02*
X15215301Y-9066484D01*
X15215301Y-9066484D02*
X15196253Y-9056960D01*
X15377205Y-9047436D02*
X15386729Y-9056960D01*
X15386729Y-9056960D02*
X15377205Y-9066484D01*
X15377205Y-9066484D02*
X15367682Y-9056960D01*
X15367682Y-9056960D02*
X15377205Y-9047436D01*
X15377205Y-9047436D02*
X15377205Y-9066484D01*
X15377205Y-8942674D02*
X15386729Y-8952198D01*
X15386729Y-8952198D02*
X15377205Y-8961722D01*
X15377205Y-8961722D02*
X15367682Y-8952198D01*
X15367682Y-8952198D02*
X15377205Y-8942674D01*
X15377205Y-8942674D02*
X15377205Y-8961722D01*
M02*
