%TF.GenerationSoftware,KiCad,Pcbnew,7.0.5+dfsg-2*%
%TF.CreationDate,2023-08-15T21:55:21+02:00*%
%TF.ProjectId,022-lumped-quadrature-coupler,3032322d-6c75-46d7-9065-642d71756164,1*%
%TF.SameCoordinates,Original*%
%TF.FileFunction,Legend,Top*%
%TF.FilePolarity,Positive*%
%FSLAX46Y46*%
G04 Gerber Fmt 4.6, Leading zero omitted, Abs format (unit mm)*
G04 Created by KiCad (PCBNEW 7.0.5+dfsg-2) date 2023-08-15 21:55:21*
%MOMM*%
%LPD*%
G01*
G04 APERTURE LIST*
%ADD10C,0.150000*%
%ADD11C,0.120000*%
G04 APERTURE END LIST*
D10*
X143000000Y-68454819D02*
X143095238Y-68454819D01*
X143095238Y-68454819D02*
X143190476Y-68502438D01*
X143190476Y-68502438D02*
X143238095Y-68550057D01*
X143238095Y-68550057D02*
X143285714Y-68645295D01*
X143285714Y-68645295D02*
X143333333Y-68835771D01*
X143333333Y-68835771D02*
X143333333Y-69073866D01*
X143333333Y-69073866D02*
X143285714Y-69264342D01*
X143285714Y-69264342D02*
X143238095Y-69359580D01*
X143238095Y-69359580D02*
X143190476Y-69407200D01*
X143190476Y-69407200D02*
X143095238Y-69454819D01*
X143095238Y-69454819D02*
X143000000Y-69454819D01*
X143000000Y-69454819D02*
X142904762Y-69407200D01*
X142904762Y-69407200D02*
X142857143Y-69359580D01*
X142857143Y-69359580D02*
X142809524Y-69264342D01*
X142809524Y-69264342D02*
X142761905Y-69073866D01*
X142761905Y-69073866D02*
X142761905Y-68835771D01*
X142761905Y-68835771D02*
X142809524Y-68645295D01*
X142809524Y-68645295D02*
X142857143Y-68550057D01*
X142857143Y-68550057D02*
X142904762Y-68502438D01*
X142904762Y-68502438D02*
X143000000Y-68454819D01*
X143714286Y-68550057D02*
X143761905Y-68502438D01*
X143761905Y-68502438D02*
X143857143Y-68454819D01*
X143857143Y-68454819D02*
X144095238Y-68454819D01*
X144095238Y-68454819D02*
X144190476Y-68502438D01*
X144190476Y-68502438D02*
X144238095Y-68550057D01*
X144238095Y-68550057D02*
X144285714Y-68645295D01*
X144285714Y-68645295D02*
X144285714Y-68740533D01*
X144285714Y-68740533D02*
X144238095Y-68883390D01*
X144238095Y-68883390D02*
X143666667Y-69454819D01*
X143666667Y-69454819D02*
X144285714Y-69454819D01*
X144666667Y-68550057D02*
X144714286Y-68502438D01*
X144714286Y-68502438D02*
X144809524Y-68454819D01*
X144809524Y-68454819D02*
X145047619Y-68454819D01*
X145047619Y-68454819D02*
X145142857Y-68502438D01*
X145142857Y-68502438D02*
X145190476Y-68550057D01*
X145190476Y-68550057D02*
X145238095Y-68645295D01*
X145238095Y-68645295D02*
X145238095Y-68740533D01*
X145238095Y-68740533D02*
X145190476Y-68883390D01*
X145190476Y-68883390D02*
X144619048Y-69454819D01*
X144619048Y-69454819D02*
X145238095Y-69454819D01*
%TO.C,R1*%
X151433333Y-84954819D02*
X151100000Y-84478628D01*
X150861905Y-84954819D02*
X150861905Y-83954819D01*
X150861905Y-83954819D02*
X151242857Y-83954819D01*
X151242857Y-83954819D02*
X151338095Y-84002438D01*
X151338095Y-84002438D02*
X151385714Y-84050057D01*
X151385714Y-84050057D02*
X151433333Y-84145295D01*
X151433333Y-84145295D02*
X151433333Y-84288152D01*
X151433333Y-84288152D02*
X151385714Y-84383390D01*
X151385714Y-84383390D02*
X151338095Y-84431009D01*
X151338095Y-84431009D02*
X151242857Y-84478628D01*
X151242857Y-84478628D02*
X150861905Y-84478628D01*
X152385714Y-84954819D02*
X151814286Y-84954819D01*
X152100000Y-84954819D02*
X152100000Y-83954819D01*
X152100000Y-83954819D02*
X152004762Y-84097676D01*
X152004762Y-84097676D02*
X151909524Y-84192914D01*
X151909524Y-84192914D02*
X151814286Y-84240533D01*
%TO.C,L4*%
X149454819Y-76416666D02*
X149454819Y-76892856D01*
X149454819Y-76892856D02*
X148454819Y-76892856D01*
X148788152Y-75654761D02*
X149454819Y-75654761D01*
X148407200Y-75892856D02*
X149121485Y-76130951D01*
X149121485Y-76130951D02*
X149121485Y-75511904D01*
%TO.C,L3*%
X146554819Y-76416666D02*
X146554819Y-76892856D01*
X146554819Y-76892856D02*
X145554819Y-76892856D01*
X145554819Y-76178570D02*
X145554819Y-75559523D01*
X145554819Y-75559523D02*
X145935771Y-75892856D01*
X145935771Y-75892856D02*
X145935771Y-75749999D01*
X145935771Y-75749999D02*
X145983390Y-75654761D01*
X145983390Y-75654761D02*
X146031009Y-75607142D01*
X146031009Y-75607142D02*
X146126247Y-75559523D01*
X146126247Y-75559523D02*
X146364342Y-75559523D01*
X146364342Y-75559523D02*
X146459580Y-75607142D01*
X146459580Y-75607142D02*
X146507200Y-75654761D01*
X146507200Y-75654761D02*
X146554819Y-75749999D01*
X146554819Y-75749999D02*
X146554819Y-76035713D01*
X146554819Y-76035713D02*
X146507200Y-76130951D01*
X146507200Y-76130951D02*
X146459580Y-76178570D01*
%TO.C,L2*%
X147333333Y-75254819D02*
X146857143Y-75254819D01*
X146857143Y-75254819D02*
X146857143Y-74254819D01*
X147619048Y-74350057D02*
X147666667Y-74302438D01*
X147666667Y-74302438D02*
X147761905Y-74254819D01*
X147761905Y-74254819D02*
X148000000Y-74254819D01*
X148000000Y-74254819D02*
X148095238Y-74302438D01*
X148095238Y-74302438D02*
X148142857Y-74350057D01*
X148142857Y-74350057D02*
X148190476Y-74445295D01*
X148190476Y-74445295D02*
X148190476Y-74540533D01*
X148190476Y-74540533D02*
X148142857Y-74683390D01*
X148142857Y-74683390D02*
X147571429Y-75254819D01*
X147571429Y-75254819D02*
X148190476Y-75254819D01*
%TO.C,L1*%
X147333333Y-78154819D02*
X146857143Y-78154819D01*
X146857143Y-78154819D02*
X146857143Y-77154819D01*
X148190476Y-78154819D02*
X147619048Y-78154819D01*
X147904762Y-78154819D02*
X147904762Y-77154819D01*
X147904762Y-77154819D02*
X147809524Y-77297676D01*
X147809524Y-77297676D02*
X147714286Y-77392914D01*
X147714286Y-77392914D02*
X147619048Y-77440533D01*
%TO.C,C4*%
X142736411Y-79272112D02*
X142736411Y-79339456D01*
X142736411Y-79339456D02*
X142669067Y-79474143D01*
X142669067Y-79474143D02*
X142601724Y-79541486D01*
X142601724Y-79541486D02*
X142467037Y-79608830D01*
X142467037Y-79608830D02*
X142332350Y-79608830D01*
X142332350Y-79608830D02*
X142231335Y-79575158D01*
X142231335Y-79575158D02*
X142062976Y-79474143D01*
X142062976Y-79474143D02*
X141961961Y-79373128D01*
X141961961Y-79373128D02*
X141860945Y-79204769D01*
X141860945Y-79204769D02*
X141827274Y-79103754D01*
X141827274Y-79103754D02*
X141827274Y-78969067D01*
X141827274Y-78969067D02*
X141894617Y-78834380D01*
X141894617Y-78834380D02*
X141961961Y-78767036D01*
X141961961Y-78767036D02*
X142096648Y-78699693D01*
X142096648Y-78699693D02*
X142163991Y-78699693D01*
X142938441Y-78261960D02*
X143409846Y-78733364D01*
X142500709Y-78160945D02*
X142837426Y-78834380D01*
X142837426Y-78834380D02*
X143275159Y-78396647D01*
%TO.C,C3*%
X142127887Y-73836411D02*
X142060543Y-73836411D01*
X142060543Y-73836411D02*
X141925856Y-73769067D01*
X141925856Y-73769067D02*
X141858513Y-73701724D01*
X141858513Y-73701724D02*
X141791169Y-73567037D01*
X141791169Y-73567037D02*
X141791169Y-73432350D01*
X141791169Y-73432350D02*
X141824841Y-73331335D01*
X141824841Y-73331335D02*
X141925856Y-73162976D01*
X141925856Y-73162976D02*
X142026871Y-73061961D01*
X142026871Y-73061961D02*
X142195230Y-72960945D01*
X142195230Y-72960945D02*
X142296245Y-72927274D01*
X142296245Y-72927274D02*
X142430932Y-72927274D01*
X142430932Y-72927274D02*
X142565619Y-72994617D01*
X142565619Y-72994617D02*
X142632963Y-73061961D01*
X142632963Y-73061961D02*
X142700306Y-73196648D01*
X142700306Y-73196648D02*
X142700306Y-73263991D01*
X143003352Y-73432350D02*
X143441085Y-73870083D01*
X143441085Y-73870083D02*
X142936009Y-73903754D01*
X142936009Y-73903754D02*
X143037024Y-74004770D01*
X143037024Y-74004770D02*
X143070696Y-74105785D01*
X143070696Y-74105785D02*
X143070696Y-74173128D01*
X143070696Y-74173128D02*
X143037024Y-74274144D01*
X143037024Y-74274144D02*
X142868665Y-74442502D01*
X142868665Y-74442502D02*
X142767650Y-74476174D01*
X142767650Y-74476174D02*
X142700306Y-74476174D01*
X142700306Y-74476174D02*
X142599291Y-74442502D01*
X142599291Y-74442502D02*
X142397261Y-74240472D01*
X142397261Y-74240472D02*
X142363589Y-74139457D01*
X142363589Y-74139457D02*
X142363589Y-74072113D01*
%TO.C,C2*%
X152636411Y-74072112D02*
X152636411Y-74139456D01*
X152636411Y-74139456D02*
X152569067Y-74274143D01*
X152569067Y-74274143D02*
X152501724Y-74341486D01*
X152501724Y-74341486D02*
X152367037Y-74408830D01*
X152367037Y-74408830D02*
X152232350Y-74408830D01*
X152232350Y-74408830D02*
X152131335Y-74375158D01*
X152131335Y-74375158D02*
X151962976Y-74274143D01*
X151962976Y-74274143D02*
X151861961Y-74173128D01*
X151861961Y-74173128D02*
X151760945Y-74004769D01*
X151760945Y-74004769D02*
X151727274Y-73903754D01*
X151727274Y-73903754D02*
X151727274Y-73769067D01*
X151727274Y-73769067D02*
X151794617Y-73634380D01*
X151794617Y-73634380D02*
X151861961Y-73567036D01*
X151861961Y-73567036D02*
X151996648Y-73499693D01*
X151996648Y-73499693D02*
X152063991Y-73499693D01*
X152333365Y-73230319D02*
X152333365Y-73162975D01*
X152333365Y-73162975D02*
X152367037Y-73061960D01*
X152367037Y-73061960D02*
X152535396Y-72893601D01*
X152535396Y-72893601D02*
X152636411Y-72859929D01*
X152636411Y-72859929D02*
X152703754Y-72859929D01*
X152703754Y-72859929D02*
X152804770Y-72893601D01*
X152804770Y-72893601D02*
X152872113Y-72960945D01*
X152872113Y-72960945D02*
X152939457Y-73095632D01*
X152939457Y-73095632D02*
X152939457Y-73903754D01*
X152939457Y-73903754D02*
X153377189Y-73466021D01*
%TO.C,C1*%
X152065826Y-78948472D02*
X151998482Y-78948472D01*
X151998482Y-78948472D02*
X151863795Y-78881128D01*
X151863795Y-78881128D02*
X151796452Y-78813785D01*
X151796452Y-78813785D02*
X151729108Y-78679098D01*
X151729108Y-78679098D02*
X151729108Y-78544411D01*
X151729108Y-78544411D02*
X151762780Y-78443396D01*
X151762780Y-78443396D02*
X151863795Y-78275037D01*
X151863795Y-78275037D02*
X151964810Y-78174022D01*
X151964810Y-78174022D02*
X152133169Y-78073006D01*
X152133169Y-78073006D02*
X152234184Y-78039335D01*
X152234184Y-78039335D02*
X152368871Y-78039335D01*
X152368871Y-78039335D02*
X152503558Y-78106678D01*
X152503558Y-78106678D02*
X152570902Y-78174022D01*
X152570902Y-78174022D02*
X152638245Y-78308709D01*
X152638245Y-78308709D02*
X152638245Y-78376052D01*
X152671917Y-79689250D02*
X152267856Y-79285189D01*
X152469887Y-79487220D02*
X153176993Y-78780113D01*
X153176993Y-78780113D02*
X153008635Y-78813785D01*
X153008635Y-78813785D02*
X152873948Y-78813785D01*
X152873948Y-78813785D02*
X152772932Y-78780113D01*
%TO.C,G\u002A\u002A\u002A*%
G36*
X149207208Y-67614917D02*
G01*
X149221780Y-67622643D01*
X149227638Y-67638791D01*
X149224986Y-67666038D01*
X149214028Y-67707062D01*
X149195246Y-67763741D01*
X149178860Y-67810446D01*
X149164665Y-67849625D01*
X149154112Y-67877364D01*
X149148650Y-67889745D01*
X149148486Y-67889946D01*
X149154138Y-67897178D01*
X149173545Y-67911565D01*
X149202518Y-67930004D01*
X149202794Y-67930170D01*
X149265684Y-67973854D01*
X149313512Y-68019631D01*
X149345324Y-68065750D01*
X149360162Y-68110459D01*
X149357070Y-68152007D01*
X149340520Y-68182445D01*
X149320991Y-68206562D01*
X149377555Y-68240636D01*
X149417737Y-68266699D01*
X149459250Y-68296467D01*
X149480607Y-68313250D01*
X149506661Y-68335927D01*
X149519745Y-68352611D01*
X149523211Y-68369984D01*
X149520661Y-68393124D01*
X149515636Y-68432872D01*
X149512184Y-68473169D01*
X149512056Y-68475472D01*
X149506709Y-68506817D01*
X149492958Y-68524471D01*
X149487295Y-68527764D01*
X149464024Y-68544266D01*
X149444294Y-68564253D01*
X149434232Y-68575038D01*
X149421977Y-68582474D01*
X149403462Y-68587419D01*
X149374622Y-68590732D01*
X149331391Y-68593272D01*
X149300502Y-68594630D01*
X149240844Y-68598231D01*
X149195936Y-68603279D01*
X149168140Y-68609464D01*
X149161407Y-68612879D01*
X149149381Y-68631376D01*
X149140328Y-68659745D01*
X149139450Y-68664547D01*
X149132091Y-68690629D01*
X149117507Y-68728695D01*
X149098200Y-68772492D01*
X149086787Y-68796135D01*
X149069617Y-68831648D01*
X149056241Y-68863117D01*
X149045437Y-68894981D01*
X149035983Y-68931679D01*
X149026657Y-68977652D01*
X149016238Y-69037340D01*
X149010003Y-69075142D01*
X148998611Y-69150475D01*
X148987513Y-69233726D01*
X148977703Y-69316757D01*
X148970177Y-69391427D01*
X148967711Y-69421318D01*
X148953479Y-69570850D01*
X148934101Y-69703435D01*
X148909013Y-69822278D01*
X148878053Y-69929366D01*
X148849141Y-70007130D01*
X148816299Y-70074946D01*
X148776020Y-70138510D01*
X148724798Y-70203520D01*
X148675643Y-70258199D01*
X148577329Y-70375280D01*
X148493806Y-70501629D01*
X148431364Y-70621186D01*
X148403186Y-70677903D01*
X148377811Y-70720375D01*
X148351675Y-70754018D01*
X148328482Y-70777604D01*
X148300811Y-70802117D01*
X148278251Y-70819713D01*
X148265568Y-70826682D01*
X148265395Y-70826688D01*
X148253451Y-70833218D01*
X148241919Y-70853767D01*
X148230392Y-70889773D01*
X148218459Y-70942674D01*
X148205712Y-71013910D01*
X148197702Y-71064739D01*
X148182935Y-71157753D01*
X148168702Y-71236626D01*
X148153537Y-71307789D01*
X148135974Y-71377671D01*
X148114550Y-71452702D01*
X148094147Y-71519151D01*
X148073662Y-71588767D01*
X148059937Y-71648459D01*
X148052673Y-71703792D01*
X148051572Y-71760332D01*
X148056334Y-71823643D01*
X148066662Y-71899292D01*
X148071976Y-71932384D01*
X148081863Y-71993891D01*
X148091097Y-72054175D01*
X148098842Y-72107582D01*
X148104263Y-72148460D01*
X148105561Y-72159723D01*
X148112893Y-72204728D01*
X148126368Y-72241894D01*
X148150004Y-72281963D01*
X148152923Y-72286310D01*
X148193121Y-72345728D01*
X147891035Y-72345728D01*
X147898018Y-72312144D01*
X147906666Y-72282384D01*
X147917092Y-72259536D01*
X147921952Y-72245992D01*
X147919574Y-72227580D01*
X147908787Y-72199446D01*
X147896054Y-72172292D01*
X147876050Y-72126603D01*
X147859018Y-72076762D01*
X147843853Y-72018573D01*
X147829451Y-71947840D01*
X147815851Y-71867612D01*
X147805774Y-71815487D01*
X147790904Y-71752618D01*
X147773420Y-71687715D01*
X147759042Y-71640272D01*
X147739373Y-71577432D01*
X147724185Y-71523154D01*
X147712556Y-71472312D01*
X147703565Y-71419774D01*
X147696290Y-71360411D01*
X147689810Y-71289094D01*
X147685282Y-71229699D01*
X147680007Y-71126544D01*
X147679205Y-71027802D01*
X147682780Y-70938429D01*
X147690634Y-70863381D01*
X147692649Y-70850881D01*
X147698285Y-70818238D01*
X147513062Y-70823960D01*
X147392262Y-70825480D01*
X147287165Y-70821724D01*
X147193384Y-70812274D01*
X147106532Y-70796713D01*
X147035335Y-70778501D01*
X146928868Y-70739636D01*
X146839540Y-70689590D01*
X146766909Y-70628052D01*
X146710536Y-70554711D01*
X146704435Y-70544391D01*
X146675907Y-70494600D01*
X146668639Y-70523556D01*
X146648777Y-70580742D01*
X146618034Y-70643838D01*
X146580847Y-70704875D01*
X146541648Y-70755885D01*
X146535826Y-70762224D01*
X146501823Y-70799253D01*
X146479015Y-70828535D01*
X146463853Y-70856807D01*
X146452786Y-70890804D01*
X146442267Y-70937262D01*
X146441407Y-70941406D01*
X146422253Y-71014043D01*
X146395078Y-71080397D01*
X146357410Y-71144725D01*
X146306775Y-71211286D01*
X146244562Y-71280306D01*
X146200655Y-71327086D01*
X146169096Y-71363066D01*
X146147302Y-71391736D01*
X146132691Y-71416586D01*
X146122679Y-71441105D01*
X146120484Y-71447943D01*
X146106617Y-71510336D01*
X146098490Y-71583767D01*
X146096652Y-71659269D01*
X146101650Y-71727875D01*
X146102867Y-71736045D01*
X146121849Y-71852191D01*
X146138653Y-71949249D01*
X146153608Y-72028646D01*
X146167045Y-72091809D01*
X146179292Y-72140166D01*
X146190680Y-72175143D01*
X146201537Y-72198166D01*
X146212194Y-72210664D01*
X146212536Y-72210907D01*
X146243036Y-72236176D01*
X146270562Y-72265811D01*
X146289476Y-72293348D01*
X146293891Y-72304120D01*
X146295244Y-72313632D01*
X146290936Y-72319721D01*
X146277416Y-72323146D01*
X146251136Y-72324671D01*
X146208547Y-72325054D01*
X146196219Y-72325061D01*
X146093072Y-72325061D01*
X146095449Y-72296643D01*
X146093369Y-72278430D01*
X146082341Y-72257689D01*
X146059769Y-72230433D01*
X146036582Y-72206224D01*
X145993768Y-72157147D01*
X145954802Y-72099598D01*
X145918211Y-72030726D01*
X145882517Y-71947679D01*
X145846246Y-71847608D01*
X145837706Y-71822003D01*
X145802894Y-71710358D01*
X145777616Y-71613609D01*
X145761922Y-71528285D01*
X145755862Y-71450921D01*
X145759487Y-71378048D01*
X145772846Y-71306198D01*
X145795988Y-71231903D01*
X145828964Y-71151696D01*
X145847925Y-71110862D01*
X145863244Y-71077573D01*
X145873181Y-71050567D01*
X145878868Y-71023669D01*
X145881433Y-70990701D01*
X145882007Y-70945488D01*
X145881942Y-70924857D01*
X145874037Y-70813717D01*
X145851457Y-70689349D01*
X145814436Y-70552839D01*
X145779648Y-70449512D01*
X145761521Y-70395325D01*
X145744501Y-70337402D01*
X145731243Y-70285050D01*
X145727106Y-70265233D01*
X145714411Y-70208368D01*
X145700643Y-70165227D01*
X145686695Y-70137191D01*
X145673461Y-70125643D01*
X145661834Y-70131965D01*
X145653974Y-70152044D01*
X145649203Y-70168673D01*
X145644810Y-70170196D01*
X145637896Y-70154900D01*
X145632125Y-70139127D01*
X145621228Y-70090843D01*
X145617240Y-70030839D01*
X145619967Y-69966803D01*
X145629216Y-69906422D01*
X145638838Y-69872197D01*
X145686099Y-69769316D01*
X145751074Y-69675424D01*
X145832531Y-69591243D01*
X145929242Y-69517494D01*
X146039977Y-69454898D01*
X146163509Y-69404178D01*
X146298607Y-69366054D01*
X146444042Y-69341248D01*
X146559642Y-69331795D01*
X146647425Y-69329758D01*
X146731499Y-69332317D01*
X146816776Y-69340018D01*
X146908169Y-69353405D01*
X147010590Y-69373023D01*
X147091711Y-69390808D01*
X147187807Y-69412345D01*
X147267579Y-69429200D01*
X147334708Y-69441879D01*
X147392875Y-69450889D01*
X147445762Y-69456737D01*
X147497049Y-69459929D01*
X147550417Y-69460973D01*
X147598629Y-69460575D01*
X147654738Y-69459915D01*
X147699013Y-69460589D01*
X147737320Y-69463316D01*
X147775528Y-69468818D01*
X147819505Y-69477819D01*
X147875120Y-69491038D01*
X147903604Y-69498082D01*
X147975622Y-69515214D01*
X148031279Y-69526183D01*
X148073946Y-69530976D01*
X148106992Y-69529581D01*
X148133788Y-69521987D01*
X148157703Y-69508180D01*
X148171833Y-69497109D01*
X148192889Y-69476673D01*
X148210733Y-69452129D01*
X148226651Y-69420341D01*
X148241925Y-69378173D01*
X148257840Y-69322489D01*
X148275680Y-69250153D01*
X148279346Y-69234469D01*
X148296905Y-69162770D01*
X148318065Y-69082312D01*
X148340306Y-69002374D01*
X148361109Y-68932234D01*
X148363452Y-68924717D01*
X148378978Y-68874113D01*
X148391303Y-68830295D01*
X148401226Y-68788944D01*
X148409547Y-68745741D01*
X148417065Y-68696365D01*
X148424579Y-68636498D01*
X148432889Y-68561819D01*
X148436002Y-68532628D01*
X148447098Y-68430493D01*
X148456972Y-68346407D01*
X148466097Y-68277821D01*
X148474945Y-68222188D01*
X148483991Y-68176957D01*
X148493707Y-68139582D01*
X148504567Y-68107513D01*
X148517044Y-68078202D01*
X148522488Y-68066892D01*
X148543227Y-68027695D01*
X148564341Y-67995534D01*
X148589403Y-67966760D01*
X148621983Y-67937721D01*
X148665654Y-67904766D01*
X148714198Y-67870923D01*
X148763880Y-67834968D01*
X148815539Y-67794307D01*
X148861923Y-67754795D01*
X148886890Y-67731435D01*
X148918275Y-67702043D01*
X148945322Y-67679904D01*
X148964140Y-67668049D01*
X148969559Y-67667005D01*
X148983132Y-67681623D01*
X148984744Y-67711606D01*
X148974416Y-67755478D01*
X148968097Y-67773543D01*
X148956615Y-67805332D01*
X148948850Y-67828941D01*
X148946704Y-67837728D01*
X148953034Y-67835813D01*
X148969982Y-67821540D01*
X148994485Y-67798042D01*
X149023480Y-67768450D01*
X149053903Y-67735896D01*
X149082693Y-67703515D01*
X149106785Y-67674437D01*
X149108411Y-67672355D01*
X149135607Y-67639612D01*
X149156294Y-67621160D01*
X149174724Y-67613645D01*
X149183716Y-67612937D01*
X149207208Y-67614917D01*
G37*
D11*
%TO.C,R1*%
X151477064Y-83735000D02*
X151022936Y-83735000D01*
X151477064Y-82265000D02*
X151022936Y-82265000D01*
%TO.C,L4*%
X149690000Y-76649622D02*
X149690000Y-75850378D01*
X150810000Y-76649622D02*
X150810000Y-75850378D01*
%TO.C,L3*%
X145310000Y-76649622D02*
X145310000Y-75850378D01*
X144190000Y-76649622D02*
X144190000Y-75850378D01*
%TO.C,L2*%
X147100378Y-72940000D02*
X147899622Y-72940000D01*
X147100378Y-74060000D02*
X147899622Y-74060000D01*
%TO.C,L1*%
X147100378Y-78440000D02*
X147899622Y-78440000D01*
X147100378Y-79560000D02*
X147899622Y-79560000D01*
%TO.C,C4*%
X144084990Y-80704457D02*
X144454457Y-80334990D01*
X143045543Y-79665010D02*
X143415010Y-79295543D01*
%TO.C,C3*%
X143045543Y-72834990D02*
X143415010Y-73204457D01*
X144084990Y-71795543D02*
X144454457Y-72165010D01*
%TO.C,C2*%
X151584990Y-73204457D02*
X151954457Y-72834990D01*
X150545543Y-72165010D02*
X150915010Y-71795543D01*
%TO.C,C1*%
X150545543Y-80334990D02*
X150915010Y-80704457D01*
X151584990Y-79295543D02*
X151954457Y-79665010D01*
%TD*%
M02*
