%TF.GenerationSoftware,KiCad,Pcbnew,7.0.5+dfsg-2*%
%TF.CreationDate,2023-08-15T21:55:21+02:00*%
%TF.ProjectId,022-lumped-quadrature-coupler,3032322d-6c75-46d7-9065-642d71756164,1*%
%TF.SameCoordinates,Original*%
%TF.FileFunction,Copper,L1,Top*%
%TF.FilePolarity,Positive*%
%FSLAX46Y46*%
G04 Gerber Fmt 4.6, Leading zero omitted, Abs format (unit mm)*
G04 Created by KiCad (PCBNEW 7.0.5+dfsg-2) date 2023-08-15 21:55:21*
%MOMM*%
%LPD*%
G01*
G04 APERTURE LIST*
G04 Aperture macros list*
%AMRoundRect*
0 Rectangle with rounded corners*
0 $1 Rounding radius*
0 $2 $3 $4 $5 $6 $7 $8 $9 X,Y pos of 4 corners*
0 Add a 4 corners polygon primitive as box body*
4,1,4,$2,$3,$4,$5,$6,$7,$8,$9,$2,$3,0*
0 Add four circle primitives for the rounded corners*
1,1,$1+$1,$2,$3*
1,1,$1+$1,$4,$5*
1,1,$1+$1,$6,$7*
1,1,$1+$1,$8,$9*
0 Add four rect primitives between the rounded corners*
20,1,$1+$1,$2,$3,$4,$5,0*
20,1,$1+$1,$4,$5,$6,$7,0*
20,1,$1+$1,$6,$7,$8,$9,0*
20,1,$1+$1,$8,$9,$2,$3,0*%
G04 Aperture macros list end*
%TA.AperFunction,SMDPad,CuDef*%
%ADD10RoundRect,0.250000X0.262500X0.450000X-0.262500X0.450000X-0.262500X-0.450000X0.262500X-0.450000X0*%
%TD*%
%TA.AperFunction,SMDPad,CuDef*%
%ADD11RoundRect,0.218750X0.381250X-0.218750X0.381250X0.218750X-0.381250X0.218750X-0.381250X-0.218750X0*%
%TD*%
%TA.AperFunction,SMDPad,CuDef*%
%ADD12RoundRect,0.218750X-0.218750X-0.381250X0.218750X-0.381250X0.218750X0.381250X-0.218750X0.381250X0*%
%TD*%
%TA.AperFunction,SMDPad,CuDef*%
%ADD13RoundRect,0.250000X0.159099X-0.512652X0.512652X-0.159099X-0.159099X0.512652X-0.512652X0.159099X0*%
%TD*%
%TA.AperFunction,SMDPad,CuDef*%
%ADD14RoundRect,0.250000X-0.512652X-0.159099X-0.159099X-0.512652X0.512652X0.159099X0.159099X0.512652X0*%
%TD*%
%TA.AperFunction,SMDPad,CuDef*%
%ADD15R,0.800000X3.000000*%
%TD*%
%TA.AperFunction,ComponentPad*%
%ADD16C,0.800000*%
%TD*%
%TA.AperFunction,SMDPad,CuDef*%
%ADD17R,2.000000X3.000000*%
%TD*%
%TA.AperFunction,ComponentPad*%
%ADD18C,3.400000*%
%TD*%
%TA.AperFunction,SMDPad,CuDef*%
%ADD19R,3.000000X0.800000*%
%TD*%
%TA.AperFunction,SMDPad,CuDef*%
%ADD20R,3.000000X2.000000*%
%TD*%
%TA.AperFunction,ViaPad*%
%ADD21C,0.800000*%
%TD*%
%TA.AperFunction,Conductor*%
%ADD22C,0.800000*%
%TD*%
G04 APERTURE END LIST*
D10*
%TO.P,R1,1*%
%TO.N,GND*%
X152162500Y-83000000D03*
%TO.P,R1,2*%
%TO.N,Net-(C1-Pad1)*%
X150337500Y-83000000D03*
%TD*%
D11*
%TO.P,L4,1,1*%
%TO.N,Net-(C1-Pad1)*%
X150250000Y-77312500D03*
%TO.P,L4,2,2*%
%TO.N,Net-(J3-Pin_1)*%
X150250000Y-75187500D03*
%TD*%
%TO.P,L3,2,2*%
%TO.N,Net-(J1-Pin_1)*%
X144750000Y-75187500D03*
%TO.P,L3,1,1*%
%TO.N,Net-(J2-Pin_1)*%
X144750000Y-77312500D03*
%TD*%
D12*
%TO.P,L2,1,1*%
%TO.N,Net-(J1-Pin_1)*%
X146437500Y-73500000D03*
%TO.P,L2,2,2*%
%TO.N,Net-(J3-Pin_1)*%
X148562500Y-73500000D03*
%TD*%
%TO.P,L1,1,1*%
%TO.N,Net-(J2-Pin_1)*%
X146437500Y-79000000D03*
%TO.P,L1,2,2*%
%TO.N,Net-(C1-Pad1)*%
X148562500Y-79000000D03*
%TD*%
D13*
%TO.P,C4,1*%
%TO.N,GND*%
X143078249Y-80671751D03*
%TO.P,C4,2*%
%TO.N,Net-(J2-Pin_1)*%
X144421751Y-79328249D03*
%TD*%
D14*
%TO.P,C3,1*%
%TO.N,GND*%
X143078249Y-71828249D03*
%TO.P,C3,2*%
%TO.N,Net-(J1-Pin_1)*%
X144421751Y-73171751D03*
%TD*%
D13*
%TO.P,C2,1*%
%TO.N,Net-(J3-Pin_1)*%
X150578249Y-73171751D03*
%TO.P,C2,2*%
%TO.N,GND*%
X151921751Y-71828249D03*
%TD*%
D14*
%TO.P,C1,1*%
%TO.N,Net-(C1-Pad1)*%
X150578249Y-79328249D03*
%TO.P,C1,2*%
%TO.N,GND*%
X151921751Y-80671751D03*
%TD*%
D15*
%TO.P,J2,1,Pin_1*%
%TO.N,Net-(J2-Pin_1)*%
X147500000Y-86000000D03*
D16*
%TO.P,J2,2,Pin_2*%
%TO.N,GND*%
X149000000Y-86500000D03*
X146500000Y-86000000D03*
D17*
X149100000Y-86000000D03*
D16*
X148500000Y-85000000D03*
X148500000Y-86000000D03*
X146500000Y-85000000D03*
X146000000Y-86500000D03*
X149000000Y-85500000D03*
D17*
X145900000Y-86000000D03*
D16*
X146000000Y-85500000D03*
X148500000Y-87000000D03*
X146500000Y-87000000D03*
%TD*%
D18*
%TO.P,H3,1,1*%
%TO.N,GND*%
X140000000Y-70000000D03*
%TD*%
D19*
%TO.P,J3,1,Pin_1*%
%TO.N,Net-(J3-Pin_1)*%
X156000000Y-77500000D03*
D20*
%TO.P,J3,2,Pin_2*%
%TO.N,GND*%
X156000000Y-75900000D03*
D16*
X157000000Y-76500000D03*
X155500000Y-76000000D03*
X157000000Y-78500000D03*
X155000000Y-78500000D03*
X156500000Y-79000000D03*
X156000000Y-76500000D03*
X155000000Y-76500000D03*
X156000000Y-78500000D03*
X156500000Y-76000000D03*
X155500000Y-79000000D03*
D20*
X156000000Y-79100000D03*
%TD*%
D18*
%TO.P,H1,1,1*%
%TO.N,GND*%
X155000000Y-85000000D03*
%TD*%
%TO.P,H2,1,1*%
%TO.N,GND*%
X155000000Y-70000000D03*
%TD*%
D19*
%TO.P,J1,1,Pin_1*%
%TO.N,Net-(J1-Pin_1)*%
X139000000Y-77500000D03*
D16*
%TO.P,J1,2,Pin_2*%
%TO.N,GND*%
X139000000Y-76500000D03*
D20*
X139000000Y-75900000D03*
D16*
X139000000Y-78500000D03*
X138000000Y-76500000D03*
X139500000Y-76000000D03*
X139500000Y-79000000D03*
D20*
X139000000Y-79100000D03*
D16*
X140000000Y-76500000D03*
X138000000Y-78500000D03*
X140000000Y-78500000D03*
X138500000Y-79000000D03*
X138500000Y-76000000D03*
%TD*%
D18*
%TO.P,H4,1,1*%
%TO.N,GND*%
X140000000Y-85000000D03*
%TD*%
D21*
%TO.N,GND*%
X146000000Y-77700000D03*
X149000000Y-77800000D03*
X149000000Y-74700000D03*
X146000000Y-74700000D03*
X148600000Y-72300000D03*
X149700000Y-72100000D03*
X151400000Y-72400000D03*
X151600816Y-74936391D03*
X152700000Y-76000000D03*
X153800000Y-76400000D03*
X153800000Y-78600000D03*
X152453408Y-78464671D03*
X151500000Y-78000000D03*
X151500000Y-83000000D03*
X149300000Y-82200000D03*
X149300000Y-81000000D03*
X148500000Y-80400000D03*
X148500000Y-81600000D03*
X148500000Y-82800000D03*
X148500000Y-83900000D03*
X146500000Y-83900000D03*
X146500000Y-82800000D03*
X146400000Y-81200000D03*
X145700000Y-80100000D03*
X143600000Y-80100000D03*
X143300000Y-77900000D03*
X142200000Y-78400000D03*
X141200000Y-78500000D03*
X145400000Y-76300000D03*
X145400000Y-72100000D03*
X143600000Y-72400000D03*
X143400000Y-74100000D03*
X143500000Y-75000000D03*
X142200000Y-76200000D03*
X141200000Y-76500000D03*
X142500000Y-72500000D03*
X147500000Y-77500000D03*
X147500000Y-75000000D03*
X147500000Y-72500000D03*
X152500000Y-72500000D03*
X152500000Y-75000000D03*
X152500000Y-80000000D03*
X152500000Y-82500000D03*
X145000000Y-82500000D03*
X142500000Y-82500000D03*
X142500000Y-80000000D03*
X142500000Y-75000000D03*
X140000000Y-82500000D03*
X140000000Y-75000000D03*
X155000000Y-72500000D03*
X152500000Y-85000000D03*
X142500000Y-85000000D03*
X140000000Y-80000000D03*
X155000000Y-82500000D03*
X155000000Y-80000000D03*
X150000000Y-70000000D03*
X145000000Y-85000000D03*
X155000000Y-75000000D03*
X152500000Y-70000000D03*
X140000000Y-72500000D03*
X150000000Y-85000000D03*
%TD*%
D22*
%TO.N,Net-(J2-Pin_1)*%
X147499971Y-81305141D02*
G75*
G03*
X146621321Y-79183821I-2999971J41D01*
G01*
%TO.N,Net-(J3-Pin_1)*%
X151683801Y-76621341D02*
G75*
G03*
X153805141Y-77500000I2121299J2121341D01*
G01*
%TO.N,Net-(J1-Pin_1)*%
X141194859Y-77499971D02*
G75*
G03*
X143316179Y-76621321I41J2999971D01*
G01*
%TO.N,Net-(J2-Pin_1)*%
X146437500Y-79000000D02*
X146621321Y-79183821D01*
X147500000Y-81305141D02*
X147500000Y-86000000D01*
%TO.N,Net-(J3-Pin_1)*%
X150250000Y-75187500D02*
X151683821Y-76621321D01*
X153805141Y-77500000D02*
X156000000Y-77500000D01*
%TO.N,Net-(J1-Pin_1)*%
X144750000Y-75187500D02*
X143316179Y-76621321D01*
X141194859Y-77500000D02*
X139000000Y-77500000D01*
%TO.N,Net-(C1-Pad1)*%
X150337500Y-83000000D02*
X150337500Y-79568998D01*
X150337500Y-79568998D02*
X150578249Y-79328249D01*
%TO.N,Net-(J2-Pin_1)*%
X146437500Y-79000000D02*
X144750000Y-79000000D01*
X144750000Y-79000000D02*
X144421751Y-79328249D01*
X144750000Y-77312500D02*
X144750000Y-79000000D01*
%TO.N,Net-(C1-Pad1)*%
X148562500Y-79000000D02*
X150250000Y-79000000D01*
X150250000Y-79000000D02*
X150578249Y-79328249D01*
X150250000Y-77312500D02*
X150250000Y-79000000D01*
%TO.N,Net-(J3-Pin_1)*%
X150250000Y-75187500D02*
X150250000Y-73500000D01*
X150250000Y-73500000D02*
X150578249Y-73171751D01*
X148562500Y-73500000D02*
X150250000Y-73500000D01*
%TO.N,Net-(J1-Pin_1)*%
X144750000Y-75187500D02*
X144750000Y-73500000D01*
X144750000Y-73500000D02*
X144421751Y-73171751D01*
X146437500Y-73500000D02*
X144750000Y-73500000D01*
%TD*%
%TA.AperFunction,Conductor*%
%TO.N,GND*%
G36*
X143895445Y-76988032D02*
G01*
X143938710Y-77031297D01*
X143949500Y-77076242D01*
X143949500Y-77564248D01*
X143965049Y-77662419D01*
X143965050Y-77662423D01*
X143995749Y-77722672D01*
X144025342Y-77780751D01*
X144119249Y-77874658D01*
X144119251Y-77874659D01*
X144120503Y-77875911D01*
X144148281Y-77930428D01*
X144149500Y-77945915D01*
X144149500Y-78307864D01*
X144130593Y-78366055D01*
X144093456Y-78397059D01*
X144006008Y-78439173D01*
X144006007Y-78439173D01*
X143982479Y-78458666D01*
X143982467Y-78458677D01*
X143552179Y-78888965D01*
X143552168Y-78888977D01*
X143532676Y-78912504D01*
X143532674Y-78912507D01*
X143532674Y-78912508D01*
X143473751Y-79034863D01*
X143453510Y-79169150D01*
X143473751Y-79303437D01*
X143532674Y-79425792D01*
X143552175Y-79449330D01*
X144300670Y-80197825D01*
X144324208Y-80217326D01*
X144446563Y-80276249D01*
X144563259Y-80293838D01*
X144580849Y-80296490D01*
X144580850Y-80296490D01*
X144580851Y-80296490D01*
X144596403Y-80294145D01*
X144715137Y-80276249D01*
X144837492Y-80217326D01*
X144861030Y-80197825D01*
X145291327Y-79767528D01*
X145310828Y-79743990D01*
X145352939Y-79656544D01*
X145395223Y-79612321D01*
X145442135Y-79600500D01*
X145804084Y-79600500D01*
X145862275Y-79619407D01*
X145874088Y-79629496D01*
X145875340Y-79630748D01*
X145875342Y-79630751D01*
X145969249Y-79724658D01*
X146087580Y-79784951D01*
X146154130Y-79795491D01*
X146185751Y-79800500D01*
X146185754Y-79800500D01*
X146318770Y-79800500D01*
X146376961Y-79819407D01*
X146399510Y-79842212D01*
X146511579Y-80000163D01*
X146530091Y-80026253D01*
X146533046Y-80030957D01*
X146660514Y-80261598D01*
X146662925Y-80266603D01*
X146763766Y-80510064D01*
X146765600Y-80515307D01*
X146838548Y-80768527D01*
X146839784Y-80773943D01*
X146883921Y-81033732D01*
X146884543Y-81039252D01*
X146899421Y-81304257D01*
X146899499Y-81307033D01*
X146899499Y-81381029D01*
X146899500Y-81381046D01*
X146899500Y-87400500D01*
X146880593Y-87458691D01*
X146831093Y-87494655D01*
X146800500Y-87499500D01*
X140001490Y-87499500D01*
X139998524Y-87499410D01*
X139965819Y-87497432D01*
X139901162Y-87493520D01*
X139728105Y-87482178D01*
X139692881Y-87479870D01*
X139687205Y-87479166D01*
X139550823Y-87454173D01*
X139383706Y-87420931D01*
X139378633Y-87419640D01*
X139239438Y-87376265D01*
X139238254Y-87375879D01*
X139084401Y-87323654D01*
X139079995Y-87321919D01*
X138944298Y-87260847D01*
X138942745Y-87260115D01*
X138889851Y-87234030D01*
X138799673Y-87189559D01*
X138795957Y-87187524D01*
X138667380Y-87109797D01*
X138665487Y-87108593D01*
X138534028Y-87020755D01*
X138531001Y-87018562D01*
X138412155Y-86925454D01*
X138410064Y-86923721D01*
X138291628Y-86819855D01*
X138289263Y-86817640D01*
X138182358Y-86710735D01*
X138180143Y-86708370D01*
X138076272Y-86589928D01*
X138074544Y-86587843D01*
X137981436Y-86468997D01*
X137979243Y-86465970D01*
X137891405Y-86334511D01*
X137890201Y-86332618D01*
X137812474Y-86204041D01*
X137810439Y-86200325D01*
X137739860Y-86057206D01*
X137739174Y-86055750D01*
X137678073Y-85919989D01*
X137676353Y-85915621D01*
X137624115Y-85761733D01*
X137623752Y-85760621D01*
X137580354Y-85621349D01*
X137579067Y-85616292D01*
X137545834Y-85449219D01*
X137520828Y-85312765D01*
X137520131Y-85307148D01*
X137506493Y-85099080D01*
X137500589Y-85001476D01*
X137500500Y-84998510D01*
X137500500Y-78199500D01*
X137519407Y-78141309D01*
X137568907Y-78105345D01*
X137599500Y-78100500D01*
X141235431Y-78100500D01*
X141236297Y-78100471D01*
X141371731Y-78100473D01*
X141723790Y-78065803D01*
X142070754Y-77996792D01*
X142070755Y-77996791D01*
X142070758Y-77996791D01*
X142183597Y-77962562D01*
X142409284Y-77894105D01*
X142736119Y-77758730D01*
X143048110Y-77591972D01*
X143342254Y-77395436D01*
X143615717Y-77171015D01*
X143712961Y-77073773D01*
X143712964Y-77073771D01*
X143780498Y-77006236D01*
X143835013Y-76978461D01*
X143895445Y-76988032D01*
G37*
%TD.AperFunction*%
%TA.AperFunction,Conductor*%
G36*
X155001476Y-67500589D02*
G01*
X155099080Y-67506493D01*
X155307148Y-67520131D01*
X155312765Y-67520828D01*
X155449219Y-67545834D01*
X155616297Y-67579068D01*
X155621349Y-67580354D01*
X155760621Y-67623752D01*
X155761733Y-67624115D01*
X155915621Y-67676353D01*
X155919989Y-67678073D01*
X156055750Y-67739174D01*
X156057206Y-67739860D01*
X156200325Y-67810439D01*
X156204041Y-67812474D01*
X156332633Y-67890210D01*
X156334511Y-67891405D01*
X156465970Y-67979243D01*
X156468997Y-67981436D01*
X156587843Y-68074544D01*
X156589928Y-68076272D01*
X156708370Y-68180143D01*
X156710735Y-68182358D01*
X156817640Y-68289263D01*
X156819855Y-68291628D01*
X156923721Y-68410064D01*
X156925454Y-68412155D01*
X157018562Y-68531001D01*
X157020755Y-68534028D01*
X157108593Y-68665487D01*
X157109797Y-68667380D01*
X157187524Y-68795957D01*
X157189559Y-68799673D01*
X157234030Y-68889851D01*
X157260115Y-68942745D01*
X157260847Y-68944298D01*
X157321919Y-69079995D01*
X157323654Y-69084401D01*
X157375879Y-69238254D01*
X157376265Y-69239438D01*
X157419640Y-69378633D01*
X157420931Y-69383706D01*
X157454175Y-69550833D01*
X157479165Y-69687197D01*
X157479871Y-69692888D01*
X157493520Y-69901162D01*
X157497432Y-69965819D01*
X157499410Y-69998524D01*
X157499500Y-70001490D01*
X157499500Y-76800500D01*
X157480593Y-76858691D01*
X157431093Y-76894655D01*
X157400500Y-76899500D01*
X153881046Y-76899500D01*
X153881030Y-76899499D01*
X153806515Y-76899499D01*
X153803740Y-76899421D01*
X153579230Y-76886816D01*
X153539246Y-76884571D01*
X153533732Y-76883950D01*
X153273933Y-76839812D01*
X153268517Y-76838576D01*
X153015303Y-76765630D01*
X153010060Y-76763795D01*
X152766588Y-76662950D01*
X152761583Y-76660539D01*
X152530945Y-76533074D01*
X152526241Y-76530118D01*
X152311320Y-76377626D01*
X152306977Y-76374162D01*
X152277449Y-76347774D01*
X152109834Y-76197989D01*
X152107832Y-76196096D01*
X151079496Y-75167760D01*
X151051719Y-75113243D01*
X151050500Y-75097756D01*
X151050500Y-74935751D01*
X151045491Y-74904130D01*
X151034951Y-74837580D01*
X150974658Y-74719249D01*
X150880751Y-74625342D01*
X150880748Y-74625340D01*
X150879496Y-74624088D01*
X150851719Y-74569571D01*
X150850500Y-74554084D01*
X150850500Y-74192134D01*
X150869407Y-74133943D01*
X150906543Y-74102939D01*
X150993990Y-74060828D01*
X151017528Y-74041327D01*
X151447825Y-73611030D01*
X151467326Y-73587492D01*
X151526249Y-73465137D01*
X151546490Y-73330850D01*
X151526249Y-73196563D01*
X151467326Y-73074208D01*
X151447825Y-73050670D01*
X150699330Y-72302175D01*
X150699322Y-72302168D01*
X150675795Y-72282676D01*
X150675793Y-72282675D01*
X150675792Y-72282674D01*
X150553437Y-72223751D01*
X150486293Y-72213630D01*
X150419151Y-72203510D01*
X150419149Y-72203510D01*
X150284863Y-72223751D01*
X150162504Y-72282676D01*
X150138977Y-72302168D01*
X150138965Y-72302179D01*
X149708677Y-72732467D01*
X149708666Y-72732479D01*
X149689174Y-72756006D01*
X149647061Y-72843455D01*
X149604777Y-72887679D01*
X149557865Y-72899500D01*
X149195916Y-72899500D01*
X149137725Y-72880593D01*
X149125912Y-72870504D01*
X149124659Y-72869251D01*
X149124658Y-72869249D01*
X149030751Y-72775342D01*
X148992802Y-72756006D01*
X148912423Y-72715050D01*
X148912420Y-72715049D01*
X148887876Y-72711161D01*
X148814249Y-72699500D01*
X148814246Y-72699500D01*
X148310754Y-72699500D01*
X148310751Y-72699500D01*
X148212580Y-72715049D01*
X148212576Y-72715050D01*
X148094250Y-72775341D01*
X148000341Y-72869250D01*
X147940050Y-72987576D01*
X147940049Y-72987580D01*
X147924500Y-73085751D01*
X147924500Y-73914248D01*
X147940049Y-74012419D01*
X147940050Y-74012423D01*
X147954775Y-74041322D01*
X148000342Y-74130751D01*
X148094249Y-74224658D01*
X148212580Y-74284951D01*
X148279130Y-74295491D01*
X148310751Y-74300500D01*
X148310754Y-74300500D01*
X148814249Y-74300500D01*
X148842803Y-74295976D01*
X148912420Y-74284951D01*
X149030751Y-74224658D01*
X149124658Y-74130751D01*
X149124659Y-74130748D01*
X149125912Y-74129496D01*
X149180429Y-74101719D01*
X149195916Y-74100500D01*
X149550500Y-74100500D01*
X149608691Y-74119407D01*
X149644655Y-74168907D01*
X149649500Y-74199500D01*
X149649500Y-74554084D01*
X149630593Y-74612275D01*
X149620504Y-74624088D01*
X149619251Y-74625340D01*
X149619249Y-74625342D01*
X149525342Y-74719249D01*
X149525341Y-74719250D01*
X149465050Y-74837576D01*
X149465049Y-74837580D01*
X149449500Y-74935751D01*
X149449500Y-75439248D01*
X149465049Y-75537419D01*
X149465050Y-75537423D01*
X149523243Y-75651631D01*
X149525342Y-75655751D01*
X149619249Y-75749658D01*
X149737580Y-75809951D01*
X149804130Y-75820491D01*
X149835751Y-75825500D01*
X149835754Y-75825500D01*
X149997757Y-75825500D01*
X150055948Y-75844407D01*
X150067761Y-75854496D01*
X150718761Y-76505496D01*
X150746538Y-76560013D01*
X150736967Y-76620445D01*
X150693702Y-76663710D01*
X150648757Y-76674500D01*
X149835751Y-76674500D01*
X149737580Y-76690049D01*
X149737576Y-76690050D01*
X149619250Y-76750341D01*
X149525341Y-76844250D01*
X149465050Y-76962576D01*
X149465049Y-76962580D01*
X149449500Y-77060751D01*
X149449500Y-77564248D01*
X149465049Y-77662419D01*
X149465050Y-77662423D01*
X149495749Y-77722672D01*
X149525342Y-77780751D01*
X149619249Y-77874658D01*
X149619251Y-77874659D01*
X149620503Y-77875911D01*
X149648281Y-77930428D01*
X149649500Y-77945915D01*
X149649500Y-78300500D01*
X149630593Y-78358691D01*
X149581093Y-78394655D01*
X149550500Y-78399500D01*
X149195916Y-78399500D01*
X149137725Y-78380593D01*
X149125912Y-78370504D01*
X149124659Y-78369251D01*
X149124658Y-78369249D01*
X149030751Y-78275342D01*
X149026631Y-78273243D01*
X148912423Y-78215050D01*
X148912420Y-78215049D01*
X148887876Y-78211161D01*
X148814249Y-78199500D01*
X148814246Y-78199500D01*
X148310754Y-78199500D01*
X148310751Y-78199500D01*
X148212580Y-78215049D01*
X148212576Y-78215050D01*
X148094250Y-78275341D01*
X148000341Y-78369250D01*
X147940050Y-78487576D01*
X147940049Y-78487580D01*
X147924500Y-78585751D01*
X147924500Y-79414248D01*
X147940049Y-79512419D01*
X147940050Y-79512423D01*
X147984928Y-79600500D01*
X148000342Y-79630751D01*
X148094249Y-79724658D01*
X148212580Y-79784951D01*
X148279130Y-79795491D01*
X148310751Y-79800500D01*
X148310754Y-79800500D01*
X148814249Y-79800500D01*
X148843574Y-79795855D01*
X148912420Y-79784951D01*
X149030751Y-79724658D01*
X149124658Y-79630751D01*
X149124659Y-79630748D01*
X149125912Y-79629496D01*
X149180429Y-79601719D01*
X149195916Y-79600500D01*
X149557865Y-79600500D01*
X149616056Y-79619407D01*
X149647060Y-79656544D01*
X149689172Y-79743990D01*
X149689173Y-79743991D01*
X149689174Y-79743993D01*
X149708666Y-79767520D01*
X149710241Y-79769250D01*
X149709545Y-79769883D01*
X149735781Y-79821376D01*
X149737000Y-79836863D01*
X149737000Y-82216749D01*
X149718093Y-82274940D01*
X149717655Y-82275537D01*
X149672207Y-82337116D01*
X149627355Y-82465296D01*
X149627353Y-82465305D01*
X149624500Y-82495725D01*
X149624500Y-83504274D01*
X149627353Y-83534694D01*
X149627355Y-83534703D01*
X149672207Y-83662883D01*
X149752845Y-83772144D01*
X149752847Y-83772146D01*
X149752850Y-83772150D01*
X149752853Y-83772152D01*
X149752855Y-83772154D01*
X149862116Y-83852792D01*
X149862117Y-83852792D01*
X149862118Y-83852793D01*
X149990301Y-83897646D01*
X150020725Y-83900499D01*
X150020727Y-83900500D01*
X150020734Y-83900500D01*
X150654273Y-83900500D01*
X150654273Y-83900499D01*
X150684699Y-83897646D01*
X150812882Y-83852793D01*
X150922150Y-83772150D01*
X151002793Y-83662882D01*
X151047646Y-83534699D01*
X151050499Y-83504273D01*
X151050500Y-83504273D01*
X151050500Y-82495726D01*
X151050499Y-82495725D01*
X151047646Y-82465305D01*
X151047646Y-82465301D01*
X151002793Y-82337118D01*
X151002792Y-82337116D01*
X150957345Y-82275537D01*
X150938003Y-82217489D01*
X150938000Y-82216749D01*
X150938000Y-80000163D01*
X150956907Y-79941972D01*
X150966996Y-79930159D01*
X151172497Y-79724658D01*
X151447825Y-79449330D01*
X151467326Y-79425792D01*
X151526249Y-79303437D01*
X151546490Y-79169150D01*
X151526249Y-79034863D01*
X151467326Y-78912508D01*
X151447825Y-78888970D01*
X151017528Y-78458673D01*
X151017520Y-78458666D01*
X150993992Y-78439173D01*
X150906544Y-78397059D01*
X150862320Y-78354776D01*
X150850500Y-78307864D01*
X150850500Y-77945916D01*
X150869407Y-77887725D01*
X150879496Y-77875912D01*
X150880748Y-77874659D01*
X150880751Y-77874658D01*
X150974658Y-77780751D01*
X151034951Y-77662420D01*
X151050500Y-77564246D01*
X151050500Y-77076242D01*
X151069407Y-77018052D01*
X151118907Y-76982088D01*
X151180093Y-76982088D01*
X151219504Y-77006239D01*
X151229690Y-77016425D01*
X151229733Y-77016510D01*
X151289467Y-77076242D01*
X151384263Y-77171036D01*
X151657729Y-77395459D01*
X151951875Y-77591997D01*
X152263869Y-77758756D01*
X152590706Y-77894132D01*
X152590714Y-77894134D01*
X152590713Y-77894134D01*
X152929234Y-77996819D01*
X152929238Y-77996819D01*
X152929239Y-77996820D01*
X153276206Y-78065832D01*
X153628267Y-78100502D01*
X153805149Y-78100500D01*
X154480252Y-78100500D01*
X157400500Y-78100500D01*
X157458691Y-78119407D01*
X157494655Y-78168907D01*
X157499500Y-78199500D01*
X157499500Y-84998509D01*
X157499410Y-85001476D01*
X157497644Y-85030672D01*
X157493520Y-85098836D01*
X157479871Y-85307110D01*
X157479165Y-85312801D01*
X157454175Y-85449165D01*
X157420931Y-85616292D01*
X157419640Y-85621365D01*
X157376265Y-85760560D01*
X157375879Y-85761744D01*
X157323654Y-85915597D01*
X157321919Y-85920003D01*
X157260847Y-86055700D01*
X157260103Y-86057279D01*
X157189559Y-86200325D01*
X157187524Y-86204041D01*
X157109797Y-86332618D01*
X157108593Y-86334511D01*
X157020755Y-86465970D01*
X157018562Y-86468997D01*
X156925454Y-86587843D01*
X156923704Y-86589954D01*
X156819855Y-86708370D01*
X156817640Y-86710735D01*
X156710735Y-86817640D01*
X156708370Y-86819855D01*
X156589954Y-86923704D01*
X156587843Y-86925454D01*
X156468997Y-87018562D01*
X156465970Y-87020755D01*
X156334511Y-87108593D01*
X156332618Y-87109797D01*
X156204041Y-87187524D01*
X156200325Y-87189559D01*
X156057279Y-87260103D01*
X156055700Y-87260847D01*
X155920003Y-87321919D01*
X155915597Y-87323654D01*
X155761744Y-87375879D01*
X155760560Y-87376265D01*
X155621365Y-87419640D01*
X155616292Y-87420931D01*
X155449165Y-87454175D01*
X155395351Y-87464037D01*
X155312798Y-87479165D01*
X155307113Y-87479870D01*
X155284788Y-87481333D01*
X155098836Y-87493520D01*
X155032463Y-87497536D01*
X155001475Y-87499410D01*
X154998510Y-87499500D01*
X148199500Y-87499500D01*
X148141309Y-87480593D01*
X148105345Y-87431093D01*
X148100500Y-87400500D01*
X148100500Y-81264571D01*
X148100471Y-81263703D01*
X148100473Y-81128269D01*
X148065803Y-80776210D01*
X147996792Y-80429246D01*
X147996791Y-80429245D01*
X147996791Y-80429241D01*
X147894107Y-80090723D01*
X147894105Y-80090716D01*
X147758730Y-79763881D01*
X147591972Y-79451890D01*
X147395436Y-79157746D01*
X147171015Y-78884283D01*
X147171005Y-78884273D01*
X147104495Y-78817760D01*
X147076719Y-78763243D01*
X147075500Y-78747758D01*
X147075500Y-78585751D01*
X147070491Y-78554130D01*
X147059951Y-78487580D01*
X146999658Y-78369249D01*
X146905751Y-78275342D01*
X146901631Y-78273243D01*
X146787423Y-78215050D01*
X146787420Y-78215049D01*
X146762876Y-78211161D01*
X146689249Y-78199500D01*
X146689246Y-78199500D01*
X146185754Y-78199500D01*
X146185751Y-78199500D01*
X146087580Y-78215049D01*
X146087576Y-78215050D01*
X145969250Y-78275341D01*
X145969249Y-78275341D01*
X145969249Y-78275342D01*
X145875342Y-78369249D01*
X145875340Y-78369251D01*
X145874088Y-78370504D01*
X145819571Y-78398281D01*
X145804084Y-78399500D01*
X145449500Y-78399500D01*
X145391309Y-78380593D01*
X145355345Y-78331093D01*
X145350500Y-78300500D01*
X145350500Y-77945916D01*
X145369407Y-77887725D01*
X145379496Y-77875912D01*
X145380748Y-77874659D01*
X145380751Y-77874658D01*
X145474658Y-77780751D01*
X145534951Y-77662420D01*
X145550500Y-77564246D01*
X145550500Y-77060754D01*
X145548157Y-77045963D01*
X145543737Y-77018052D01*
X145534951Y-76962580D01*
X145474658Y-76844249D01*
X145380751Y-76750342D01*
X145376631Y-76748243D01*
X145262423Y-76690050D01*
X145262420Y-76690049D01*
X145237876Y-76686161D01*
X145164249Y-76674500D01*
X145164246Y-76674500D01*
X144351242Y-76674500D01*
X144293051Y-76655593D01*
X144257087Y-76606093D01*
X144257087Y-76544907D01*
X144281236Y-76505498D01*
X144932239Y-75854495D01*
X144986756Y-75826719D01*
X145002243Y-75825500D01*
X145164249Y-75825500D01*
X145192803Y-75820976D01*
X145262420Y-75809951D01*
X145380751Y-75749658D01*
X145474658Y-75655751D01*
X145534951Y-75537420D01*
X145550500Y-75439246D01*
X145550500Y-74935754D01*
X145534951Y-74837580D01*
X145474658Y-74719249D01*
X145380751Y-74625342D01*
X145380748Y-74625340D01*
X145379496Y-74624088D01*
X145351719Y-74569571D01*
X145350500Y-74554084D01*
X145350500Y-74199500D01*
X145369407Y-74141309D01*
X145418907Y-74105345D01*
X145449500Y-74100500D01*
X145804084Y-74100500D01*
X145862275Y-74119407D01*
X145874088Y-74129496D01*
X145875340Y-74130748D01*
X145875342Y-74130751D01*
X145969249Y-74224658D01*
X146087580Y-74284951D01*
X146154130Y-74295491D01*
X146185751Y-74300500D01*
X146185754Y-74300500D01*
X146689249Y-74300500D01*
X146717803Y-74295976D01*
X146787420Y-74284951D01*
X146905751Y-74224658D01*
X146999658Y-74130751D01*
X147059951Y-74012420D01*
X147075500Y-73914246D01*
X147075500Y-73085754D01*
X147073671Y-73074208D01*
X147069943Y-73050670D01*
X147059951Y-72987580D01*
X146999658Y-72869249D01*
X146905751Y-72775342D01*
X146867802Y-72756006D01*
X146787423Y-72715050D01*
X146787420Y-72715049D01*
X146762876Y-72711161D01*
X146689249Y-72699500D01*
X146689246Y-72699500D01*
X146185754Y-72699500D01*
X146185751Y-72699500D01*
X146087580Y-72715049D01*
X146087576Y-72715050D01*
X145969250Y-72775341D01*
X145969249Y-72775341D01*
X145969249Y-72775342D01*
X145875342Y-72869249D01*
X145875340Y-72869251D01*
X145874088Y-72870504D01*
X145819571Y-72898281D01*
X145804084Y-72899500D01*
X145442135Y-72899500D01*
X145383944Y-72880593D01*
X145352939Y-72843455D01*
X145310828Y-72756010D01*
X145291327Y-72732472D01*
X144861030Y-72302175D01*
X144861022Y-72302168D01*
X144837495Y-72282676D01*
X144837493Y-72282675D01*
X144837492Y-72282674D01*
X144715137Y-72223751D01*
X144647993Y-72213630D01*
X144580851Y-72203510D01*
X144580849Y-72203510D01*
X144446563Y-72223751D01*
X144324204Y-72282676D01*
X144300677Y-72302168D01*
X144300665Y-72302179D01*
X143552179Y-73050665D01*
X143552168Y-73050677D01*
X143532676Y-73074204D01*
X143532674Y-73074207D01*
X143532674Y-73074208D01*
X143473751Y-73196563D01*
X143453510Y-73330850D01*
X143473751Y-73465137D01*
X143532674Y-73587492D01*
X143532675Y-73587493D01*
X143532676Y-73587495D01*
X143552168Y-73611022D01*
X143552179Y-73611034D01*
X143982467Y-74041322D01*
X143982479Y-74041333D01*
X144006007Y-74060826D01*
X144006008Y-74060826D01*
X144006010Y-74060828D01*
X144093455Y-74102939D01*
X144137679Y-74145221D01*
X144149500Y-74192134D01*
X144149500Y-74554084D01*
X144130593Y-74612275D01*
X144120504Y-74624088D01*
X144119251Y-74625340D01*
X144119249Y-74625342D01*
X144025341Y-74719249D01*
X144025341Y-74719250D01*
X143965050Y-74837576D01*
X143965049Y-74837580D01*
X143949500Y-74935751D01*
X143949500Y-75097756D01*
X143930593Y-75155947D01*
X143920504Y-75167760D01*
X142892555Y-76195709D01*
X142890536Y-76197617D01*
X142692997Y-76374147D01*
X142688656Y-76377608D01*
X142581199Y-76453850D01*
X142473746Y-76530091D01*
X142469042Y-76533046D01*
X142238401Y-76660514D01*
X142233396Y-76662925D01*
X141989935Y-76763766D01*
X141984692Y-76765600D01*
X141731472Y-76838548D01*
X141726056Y-76839784D01*
X141466267Y-76883921D01*
X141460748Y-76884542D01*
X141437792Y-76885831D01*
X141195742Y-76899421D01*
X141192966Y-76899499D01*
X141118970Y-76899499D01*
X141118954Y-76899500D01*
X137599500Y-76899500D01*
X137541309Y-76880593D01*
X137505345Y-76831093D01*
X137500500Y-76800500D01*
X137500500Y-70001488D01*
X137500589Y-69998523D01*
X137506487Y-69901008D01*
X137520131Y-69692847D01*
X137520827Y-69687239D01*
X137545839Y-69550752D01*
X137579070Y-69383693D01*
X137580351Y-69378659D01*
X137623767Y-69239332D01*
X137624099Y-69238314D01*
X137676358Y-69084364D01*
X137678067Y-69080024D01*
X137739195Y-68944203D01*
X137739839Y-68942836D01*
X137810449Y-68799654D01*
X137812462Y-68795978D01*
X137890235Y-68667325D01*
X137891386Y-68665516D01*
X137979259Y-68534004D01*
X137981436Y-68531001D01*
X137993875Y-68515122D01*
X138074571Y-68412122D01*
X138076242Y-68410106D01*
X138180174Y-68291594D01*
X138182343Y-68289278D01*
X138289278Y-68182343D01*
X138291594Y-68180174D01*
X138410106Y-68076242D01*
X138412122Y-68074571D01*
X138531001Y-67981436D01*
X138534004Y-67979259D01*
X138665516Y-67891386D01*
X138667325Y-67890235D01*
X138795978Y-67812462D01*
X138799654Y-67810449D01*
X138942836Y-67739839D01*
X138944203Y-67739195D01*
X139080024Y-67678067D01*
X139084364Y-67676358D01*
X139238314Y-67624099D01*
X139239332Y-67623767D01*
X139378659Y-67580351D01*
X139383693Y-67579070D01*
X139550752Y-67545839D01*
X139687239Y-67520827D01*
X139692847Y-67520131D01*
X139901019Y-67506487D01*
X139998523Y-67500589D01*
X140001490Y-67500500D01*
X154998510Y-67500500D01*
X155001476Y-67500589D01*
G37*
%TD.AperFunction*%
%TD*%
M02*
