%TF.GenerationSoftware,KiCad,Pcbnew,6.0.9+dfsg-1~bpo11+1*%
%TF.CreationDate,2022-11-09T23:39:42+01:00*%
%TF.ProjectId,013-prototype-board,3031332d-7072-46f7-946f-747970652d62,1*%
%TF.SameCoordinates,Original*%
%TF.FileFunction,Drillmap*%
%TF.FilePolarity,Positive*%
%FSLAX45Y45*%
G04 Gerber Fmt 4.5, Leading zero omitted, Abs format (unit mm)*
G04 Created by KiCad (PCBNEW 6.0.9+dfsg-1~bpo11+1) date 2022-11-09 23:39:42*
%MOMM*%
%LPD*%
G01*
G04 APERTURE LIST*
%ADD10C,0.100000*%
%ADD11C,0.200000*%
G04 APERTURE END LIST*
D10*
X15250000Y-7500000D02*
G75*
G03*
X15000000Y-7750000I0J-250000D01*
G01*
X15250000Y-7500000D02*
X16750000Y-7500000D01*
X17000000Y-7750000D02*
G75*
G03*
X16750000Y-7500000I-250000J0D01*
G01*
X15000000Y-11250000D02*
X15000000Y-7750000D01*
X15000000Y-11250000D02*
G75*
G03*
X15250000Y-11500000I250000J0D01*
G01*
X17000000Y-7750000D02*
X17000000Y-11250000D01*
X16750000Y-11500000D02*
G75*
G03*
X17000000Y-11250000I0J250000D01*
G01*
X16750000Y-11500000D02*
X15250000Y-11500000D01*
D11*
X15252619Y-11815476D02*
X15252619Y-11615476D01*
X15300238Y-11615476D01*
X15328809Y-11625000D01*
X15347857Y-11644048D01*
X15357381Y-11663095D01*
X15366905Y-11701190D01*
X15366905Y-11729762D01*
X15357381Y-11767857D01*
X15347857Y-11786905D01*
X15328809Y-11805952D01*
X15300238Y-11815476D01*
X15252619Y-11815476D01*
X15452619Y-11815476D02*
X15452619Y-11682143D01*
X15452619Y-11720238D02*
X15462143Y-11701190D01*
X15471667Y-11691667D01*
X15490714Y-11682143D01*
X15509762Y-11682143D01*
X15576428Y-11815476D02*
X15576428Y-11682143D01*
X15576428Y-11615476D02*
X15566905Y-11625000D01*
X15576428Y-11634524D01*
X15585952Y-11625000D01*
X15576428Y-11615476D01*
X15576428Y-11634524D01*
X15700238Y-11815476D02*
X15681190Y-11805952D01*
X15671667Y-11786905D01*
X15671667Y-11615476D01*
X15805000Y-11815476D02*
X15785952Y-11805952D01*
X15776428Y-11786905D01*
X15776428Y-11615476D01*
X16033571Y-11815476D02*
X16033571Y-11615476D01*
X16100238Y-11758333D01*
X16166905Y-11615476D01*
X16166905Y-11815476D01*
X16347857Y-11815476D02*
X16347857Y-11710714D01*
X16338333Y-11691667D01*
X16319286Y-11682143D01*
X16281190Y-11682143D01*
X16262143Y-11691667D01*
X16347857Y-11805952D02*
X16328809Y-11815476D01*
X16281190Y-11815476D01*
X16262143Y-11805952D01*
X16252619Y-11786905D01*
X16252619Y-11767857D01*
X16262143Y-11748809D01*
X16281190Y-11739286D01*
X16328809Y-11739286D01*
X16347857Y-11729762D01*
X16443095Y-11682143D02*
X16443095Y-11882143D01*
X16443095Y-11691667D02*
X16462143Y-11682143D01*
X16500238Y-11682143D01*
X16519286Y-11691667D01*
X16528809Y-11701190D01*
X16538333Y-11720238D01*
X16538333Y-11777381D01*
X16528809Y-11796428D01*
X16519286Y-11805952D01*
X16500238Y-11815476D01*
X16462143Y-11815476D01*
X16443095Y-11805952D01*
X16624048Y-11796428D02*
X16633571Y-11805952D01*
X16624048Y-11815476D01*
X16614524Y-11805952D01*
X16624048Y-11796428D01*
X16624048Y-11815476D01*
X16624048Y-11691667D02*
X16633571Y-11701190D01*
X16624048Y-11710714D01*
X16614524Y-11701190D01*
X16624048Y-11691667D01*
X16624048Y-11710714D01*
M02*
