%TF.GenerationSoftware,KiCad,Pcbnew,6.0.9+dfsg-1~bpo11+1*%
%TF.CreationDate,2022-11-09T23:39:37+01:00*%
%TF.ProjectId,013-prototype-board,3031332d-7072-46f7-946f-747970652d62,1*%
%TF.SameCoordinates,Original*%
%TF.FileFunction,Soldermask,Bot*%
%TF.FilePolarity,Negative*%
%FSLAX46Y46*%
G04 Gerber Fmt 4.6, Leading zero omitted, Abs format (unit mm)*
G04 Created by KiCad (PCBNEW 6.0.9+dfsg-1~bpo11+1) date 2022-11-09 23:39:37*
%MOMM*%
%LPD*%
G01*
G04 APERTURE LIST*
%ADD10C,1.400000*%
%ADD11C,3.400000*%
G04 APERTURE END LIST*
D10*
%TO.C,REF\u002A\u002A*%
X157500000Y-97500000D03*
%TD*%
D11*
%TO.C,H2*%
X152500000Y-92500000D03*
%TD*%
%TO.C,H3*%
X167500000Y-92500000D03*
%TD*%
%TO.C,H2*%
X167500000Y-112500000D03*
%TD*%
%TO.C,H2*%
X152500000Y-112500000D03*
%TD*%
%TO.C,H1*%
X152500000Y-77500000D03*
%TD*%
%TO.C,H2*%
X152500000Y-97500000D03*
%TD*%
%TO.C,H4*%
X167500000Y-77500000D03*
%TD*%
D10*
%TO.C,REF\u002A\u002A*%
X157500000Y-77500000D03*
%TD*%
D11*
%TO.C,H3*%
X167500000Y-97500000D03*
%TD*%
G36*
X167504119Y-75000270D02*
G01*
X167818073Y-75020848D01*
X167834413Y-75022999D01*
X168138950Y-75083574D01*
X168154871Y-75087840D01*
X168448888Y-75187646D01*
X168464114Y-75193953D01*
X168742592Y-75331283D01*
X168756866Y-75339524D01*
X169015034Y-75512027D01*
X169028109Y-75522060D01*
X169261557Y-75726788D01*
X169273212Y-75738443D01*
X169477940Y-75971891D01*
X169487973Y-75984966D01*
X169660476Y-76243134D01*
X169668717Y-76257408D01*
X169806047Y-76535886D01*
X169812354Y-76551112D01*
X169912160Y-76845129D01*
X169916426Y-76861050D01*
X169977001Y-77165587D01*
X169979152Y-77181927D01*
X169999730Y-77495881D01*
X170000000Y-77504122D01*
X170000000Y-112495878D01*
X169999730Y-112504119D01*
X169979152Y-112818073D01*
X169977001Y-112834413D01*
X169916426Y-113138950D01*
X169912160Y-113154871D01*
X169812354Y-113448888D01*
X169806047Y-113464114D01*
X169668717Y-113742592D01*
X169660476Y-113756866D01*
X169487973Y-114015034D01*
X169477940Y-114028109D01*
X169273212Y-114261557D01*
X169261557Y-114273212D01*
X169028109Y-114477940D01*
X169015034Y-114487973D01*
X168756866Y-114660476D01*
X168742592Y-114668717D01*
X168464114Y-114806047D01*
X168448888Y-114812354D01*
X168154871Y-114912160D01*
X168138950Y-114916426D01*
X167834413Y-114977001D01*
X167818073Y-114979152D01*
X167504119Y-114999730D01*
X167495878Y-115000000D01*
X152504122Y-115000000D01*
X152495881Y-114999730D01*
X152181927Y-114979152D01*
X152165587Y-114977001D01*
X151861050Y-114916426D01*
X151845129Y-114912160D01*
X151551112Y-114812354D01*
X151535886Y-114806047D01*
X151257408Y-114668717D01*
X151243134Y-114660476D01*
X150984966Y-114487973D01*
X150971891Y-114477940D01*
X150738443Y-114273212D01*
X150726788Y-114261557D01*
X150522060Y-114028109D01*
X150512027Y-114015034D01*
X150339524Y-113756866D01*
X150331283Y-113742592D01*
X150193953Y-113464114D01*
X150187646Y-113448888D01*
X150087840Y-113154871D01*
X150083574Y-113138950D01*
X150022999Y-112834413D01*
X150020848Y-112818073D01*
X150000270Y-112504119D01*
X150000000Y-112495878D01*
X150000000Y-77504122D01*
X150000270Y-77495881D01*
X150020848Y-77181927D01*
X150022999Y-77165587D01*
X150083574Y-76861050D01*
X150087840Y-76845129D01*
X150187646Y-76551112D01*
X150193953Y-76535886D01*
X150331283Y-76257408D01*
X150339524Y-76243134D01*
X150512027Y-75984966D01*
X150522060Y-75971891D01*
X150726788Y-75738443D01*
X150738443Y-75726788D01*
X150971891Y-75522060D01*
X150984966Y-75512027D01*
X151243134Y-75339524D01*
X151257408Y-75331283D01*
X151535886Y-75193953D01*
X151551112Y-75187646D01*
X151845129Y-75087840D01*
X151861050Y-75083574D01*
X152165587Y-75022999D01*
X152181927Y-75020848D01*
X152495881Y-75000270D01*
X152504122Y-75000000D01*
X167495878Y-75000000D01*
X167504119Y-75000270D01*
G37*
M02*
