%TF.GenerationSoftware,KiCad,Pcbnew,6.0.9+dfsg-1~bpo11+1*%
%TF.CreationDate,2022-11-11T15:12:30+01:00*%
%TF.ProjectId,013-prototype-board,3031332d-7072-46f7-946f-747970652d62,1*%
%TF.SameCoordinates,Original*%
%TF.FileFunction,Copper,L1,Top*%
%TF.FilePolarity,Positive*%
%FSLAX46Y46*%
G04 Gerber Fmt 4.6, Leading zero omitted, Abs format (unit mm)*
G04 Created by KiCad (PCBNEW 6.0.9+dfsg-1~bpo11+1) date 2022-11-11 15:12:30*
%MOMM*%
%LPD*%
G01*
G04 APERTURE LIST*
G04 Aperture macros list*
%AMOutline4P*
0 Free polygon, 4 corners , with rotation*
0 The origin of the aperture is its center*
0 number of corners: always 4*
0 $1 to $8 corner X, Y*
0 $9 Rotation angle, in degrees counterclockwise*
0 create outline with 4 corners*
4,1,4,$1,$2,$3,$4,$5,$6,$7,$8,$1,$2,$9*%
%AMOutline5P*
0 Free polygon, 5 corners , with rotation*
0 The origin of the aperture is its center*
0 number of corners: always 5*
0 $1 to $10 corner X, Y*
0 $11 Rotation angle, in degrees counterclockwise*
0 create outline with 5 corners*
4,1,5,$1,$2,$3,$4,$5,$6,$7,$8,$9,$10,$1,$2,$11*%
%AMOutline6P*
0 Free polygon, 6 corners , with rotation*
0 The origin of the aperture is its center*
0 number of corners: always 6*
0 $1 to $12 corner X, Y*
0 $13 Rotation angle, in degrees counterclockwise*
0 create outline with 6 corners*
4,1,6,$1,$2,$3,$4,$5,$6,$7,$8,$9,$10,$11,$12,$1,$2,$13*%
%AMOutline7P*
0 Free polygon, 7 corners , with rotation*
0 The origin of the aperture is its center*
0 number of corners: always 7*
0 $1 to $14 corner X, Y*
0 $15 Rotation angle, in degrees counterclockwise*
0 create outline with 7 corners*
4,1,7,$1,$2,$3,$4,$5,$6,$7,$8,$9,$10,$11,$12,$13,$14,$1,$2,$15*%
%AMOutline8P*
0 Free polygon, 8 corners , with rotation*
0 The origin of the aperture is its center*
0 number of corners: always 8*
0 $1 to $16 corner X, Y*
0 $17 Rotation angle, in degrees counterclockwise*
0 create outline with 8 corners*
4,1,8,$1,$2,$3,$4,$5,$6,$7,$8,$9,$10,$11,$12,$13,$14,$15,$16,$1,$2,$17*%
G04 Aperture macros list end*
%TA.AperFunction,SMDPad,CuDef*%
%ADD10R,1.500000X1.500000*%
%TD*%
%TA.AperFunction,SMDPad,CuDef*%
%ADD11Outline4P,-0.750000X0.000000X0.000000X0.750000X0.750000X0.000000X0.000000X-0.750000X0.000000*%
%TD*%
%TA.AperFunction,ComponentPad*%
%ADD12C,3.400000*%
%TD*%
%TA.AperFunction,ComponentPad*%
%ADD13C,1.400000*%
%TD*%
%TA.AperFunction,SMDPad,CuDef*%
%ADD14Outline5P,-0.750000X0.750000X0.750000X0.750000X0.750000X0.000000X0.000000X-0.750000X-0.750000X0.000000X0.000000*%
%TD*%
%TA.AperFunction,SMDPad,CuDef*%
%ADD15R,3.000000X0.800000*%
%TD*%
%TA.AperFunction,ComponentPad*%
%ADD16C,0.800000*%
%TD*%
%TA.AperFunction,SMDPad,CuDef*%
%ADD17R,3.000000X2.000000*%
%TD*%
%TA.AperFunction,SMDPad,CuDef*%
%ADD18R,1.000000X1.000000*%
%TD*%
%TA.AperFunction,SMDPad,CuDef*%
%ADD19R,0.800000X3.000000*%
%TD*%
%TA.AperFunction,SMDPad,CuDef*%
%ADD20R,2.000000X3.000000*%
%TD*%
%TA.AperFunction,ViaPad*%
%ADD21C,0.800000*%
%TD*%
%TA.AperFunction,Conductor*%
%ADD22C,0.800000*%
%TD*%
G04 APERTURE END LIST*
D10*
%TO.P,REF\u002A\u002A,1*%
%TO.N,N/C*%
X156200000Y-90700000D03*
%TD*%
%TO.P,REF\u002A\u002A,1*%
%TO.N,N/C*%
X155200000Y-103100000D03*
%TD*%
%TO.P,REF\u002A\u002A,1*%
%TO.N,N/C*%
X156200000Y-88800000D03*
%TD*%
%TO.P,REF\u002A\u002A,1*%
%TO.N,N/C*%
X156200000Y-108800000D03*
%TD*%
%TO.P,REF\u002A\u002A,1*%
%TO.N,N/C*%
X164700000Y-103100000D03*
%TD*%
%TO.P,REF\u002A\u002A,1*%
%TO.N,N/C*%
X158100000Y-110700000D03*
%TD*%
D11*
%TO.P,REF\u002A\u002A,1*%
%TO.N,GND*%
X157100000Y-83100000D03*
%TD*%
D10*
%TO.P,REF\u002A\u002A,1*%
%TO.N,N/C*%
X160000000Y-92600000D03*
%TD*%
%TO.P,REF\u002A\u002A,1*%
%TO.N,N/C*%
X154300000Y-101200000D03*
%TD*%
%TO.P,REF\u002A\u002A,1*%
%TO.N,N/C*%
X161900000Y-95500000D03*
%TD*%
D11*
%TO.P,REF\u002A\u002A,1*%
%TO.N,GND*%
X160000000Y-99300000D03*
%TD*%
D10*
%TO.P,REF\u002A\u002A,1*%
%TO.N,N/C*%
X159000000Y-83100000D03*
%TD*%
%TO.P,REF\u002A\u002A,1*%
%TO.N,N/C*%
X164700000Y-83100000D03*
%TD*%
%TO.P,REF\u002A\u002A,1*%
%TO.N,N/C*%
X161900000Y-99300000D03*
%TD*%
D12*
%TO.P,H2,1,1*%
%TO.N,GND*%
X152500000Y-112500000D03*
%TD*%
D10*
%TO.P,REF\u002A\u002A,1*%
%TO.N,N/C*%
X160900000Y-83100000D03*
%TD*%
%TO.P,REF\u002A\u002A,1*%
%TO.N,N/C*%
X161900000Y-97400000D03*
%TD*%
%TO.P,REF\u002A\u002A,1*%
%TO.N,N/C*%
X161900000Y-79300000D03*
%TD*%
%TO.P,REF\u002A\u002A,1*%
%TO.N,N/C*%
X158100000Y-105000000D03*
%TD*%
%TO.P,REF\u002A\u002A,1*%
%TO.N,N/C*%
X158100000Y-85000000D03*
%TD*%
%TO.P,REF\u002A\u002A,1*%
%TO.N,N/C*%
X154300000Y-108800000D03*
%TD*%
%TO.P,REF\u002A\u002A,1*%
%TO.N,N/C*%
X165700000Y-88800000D03*
%TD*%
%TO.P,REF\u002A\u002A,1*%
%TO.N,N/C*%
X163800000Y-79300000D03*
%TD*%
%TO.P,REF\u002A\u002A,1*%
%TO.N,N/C*%
X163800000Y-95500000D03*
%TD*%
D11*
%TO.P,REF\u002A\u002A,1*%
%TO.N,GND*%
X157100000Y-106900000D03*
%TD*%
D10*
%TO.P,REF\u002A\u002A,1*%
%TO.N,N/C*%
X160000000Y-108800000D03*
%TD*%
%TO.P,REF\u002A\u002A,1*%
%TO.N,N/C*%
X165700000Y-81200000D03*
%TD*%
%TO.P,REF\u002A\u002A,1*%
%TO.N,N/C*%
X155200000Y-86900000D03*
%TD*%
D13*
%TO.P,REF\u002A\u002A,1*%
%TO.N,N/C*%
X157500000Y-97500000D03*
%TD*%
D10*
%TO.P,REF\u002A\u002A,1*%
%TO.N,N/C*%
X159000000Y-86900000D03*
%TD*%
%TO.P,REF\u002A\u002A,1*%
%TO.N,N/C*%
X163800000Y-92600000D03*
%TD*%
%TO.P,REF\u002A\u002A,1*%
%TO.N,N/C*%
X154300000Y-81200000D03*
%TD*%
%TO.P,REF\u002A\u002A,1*%
%TO.N,N/C*%
X158100000Y-99300000D03*
%TD*%
%TO.P,REF\u002A\u002A,1*%
%TO.N,N/C*%
X161900000Y-88800000D03*
%TD*%
%TO.P,REF\u002A\u002A,1*%
%TO.N,N/C*%
X163800000Y-85000000D03*
%TD*%
%TO.P,REF\u002A\u002A,1*%
%TO.N,N/C*%
X156200000Y-110700000D03*
%TD*%
%TO.P,REF\u002A\u002A,1*%
%TO.N,N/C*%
X156200000Y-85000000D03*
%TD*%
%TO.P,REF\u002A\u002A,1*%
%TO.N,N/C*%
X158100000Y-90700000D03*
%TD*%
%TO.P,REF\u002A\u002A,1*%
%TO.N,N/C*%
X165700000Y-101200000D03*
%TD*%
%TO.P,REF\u002A\u002A,1*%
%TO.N,N/C*%
X158100000Y-88800000D03*
%TD*%
%TO.P,REF\u002A\u002A,1*%
%TO.N,N/C*%
X160000000Y-105000000D03*
%TD*%
%TO.P,REF\u002A\u002A,1*%
%TO.N,N/C*%
X161900000Y-92600000D03*
%TD*%
%TO.P,REF\u002A\u002A,1*%
%TO.N,N/C*%
X165700000Y-108800000D03*
%TD*%
%TO.P,REF\u002A\u002A,1*%
%TO.N,N/C*%
X158100000Y-101200000D03*
%TD*%
%TO.P,REF\u002A\u002A,1*%
%TO.N,N/C*%
X165700000Y-105000000D03*
%TD*%
%TO.P,REF\u002A\u002A,1*%
%TO.N,N/C*%
X154300000Y-105000000D03*
%TD*%
%TO.P,REF\u002A\u002A,1*%
%TO.N,N/C*%
X163800000Y-101200000D03*
%TD*%
%TO.P,REF\u002A\u002A,1*%
%TO.N,N/C*%
X158100000Y-81200000D03*
%TD*%
D11*
%TO.P,REF\u002A\u002A,1*%
%TO.N,GND*%
X162800000Y-86900000D03*
%TD*%
D10*
%TO.P,REF\u002A\u002A,1*%
%TO.N,N/C*%
X165700000Y-85000000D03*
%TD*%
%TO.P,REF\u002A\u002A,1*%
%TO.N,N/C*%
X156200000Y-95500000D03*
%TD*%
%TO.P,REF\u002A\u002A,1*%
%TO.N,N/C*%
X158100000Y-79300000D03*
%TD*%
%TO.P,REF\u002A\u002A,1*%
%TO.N,N/C*%
X164700000Y-86900000D03*
%TD*%
%TO.P,REF\u002A\u002A,1*%
%TO.N,N/C*%
X158100000Y-95500000D03*
%TD*%
%TO.P,REF\u002A\u002A,1*%
%TO.N,N/C*%
X156200000Y-81200000D03*
%TD*%
D14*
%TO.P,REF\u002A\u002A,1*%
%TO.N,GND*%
X160000000Y-79300000D03*
%TD*%
D10*
%TO.P,REF\u002A\u002A,1*%
%TO.N,N/C*%
X158100000Y-108800000D03*
%TD*%
%TO.P,REF\u002A\u002A,1*%
%TO.N,N/C*%
X160000000Y-95500000D03*
%TD*%
D15*
%TO.P,J2,1,Pin_1*%
%TO.N,N/C*%
X168500000Y-105000000D03*
D16*
%TO.P,J2,2,Pin_2*%
%TO.N,GND*%
X168500000Y-106000000D03*
D17*
X168500000Y-106600000D03*
D16*
X168000000Y-103500000D03*
X169500000Y-106000000D03*
X169500000Y-104000000D03*
X168000000Y-106500000D03*
X169000000Y-103500000D03*
X169000000Y-106500000D03*
X167500000Y-104000000D03*
X167500000Y-106000000D03*
X168500000Y-104000000D03*
D17*
X168500000Y-103400000D03*
%TD*%
D18*
%TO.P,REF\u002A\u002A,1*%
%TO.N,N/C*%
X162850000Y-94050000D03*
%TD*%
D15*
%TO.P,J2,1,Pin_1*%
%TO.N,N/C*%
X168500000Y-85000000D03*
D16*
%TO.P,J2,2,Pin_2*%
%TO.N,GND*%
X168000000Y-83500000D03*
X168000000Y-86500000D03*
X169500000Y-86000000D03*
D17*
X168500000Y-83400000D03*
D16*
X167500000Y-86000000D03*
X169000000Y-86500000D03*
X169000000Y-83500000D03*
X169500000Y-84000000D03*
X168500000Y-84000000D03*
X168500000Y-86000000D03*
D17*
X168500000Y-86600000D03*
D16*
X167500000Y-84000000D03*
%TD*%
D10*
%TO.P,REF\u002A\u002A,1*%
%TO.N,N/C*%
X163800000Y-97400000D03*
%TD*%
D12*
%TO.P,H1,1,1*%
%TO.N,GND*%
X152500000Y-77500000D03*
%TD*%
D18*
%TO.P,REF\u002A\u002A,1*%
%TO.N,N/C*%
X164750000Y-94050000D03*
%TD*%
D10*
%TO.P,REF\u002A\u002A,1*%
%TO.N,N/C*%
X161900000Y-101200000D03*
%TD*%
%TO.P,REF\u002A\u002A,1*%
%TO.N,N/C*%
X159000000Y-106900000D03*
%TD*%
D11*
%TO.P,REF\u002A\u002A,1*%
%TO.N,GND*%
X162800000Y-106900000D03*
%TD*%
D10*
%TO.P,REF\u002A\u002A,1*%
%TO.N,N/C*%
X154300000Y-88800000D03*
%TD*%
%TO.P,REF\u002A\u002A,1*%
%TO.N,N/C*%
X158100000Y-92600000D03*
%TD*%
%TO.P,REF\u002A\u002A,1*%
%TO.N,N/C*%
X161900000Y-110700000D03*
%TD*%
%TO.P,REF\u002A\u002A,1*%
%TO.N,N/C*%
X160900000Y-106900000D03*
%TD*%
%TO.P,REF\u002A\u002A,1*%
%TO.N,N/C*%
X163800000Y-108800000D03*
%TD*%
D12*
%TO.P,H2,1,1*%
%TO.N,GND*%
X152500000Y-97500000D03*
%TD*%
D10*
%TO.P,REF\u002A\u002A,1*%
%TO.N,N/C*%
X159000000Y-103100000D03*
%TD*%
%TO.P,REF\u002A\u002A,1*%
%TO.N,N/C*%
X161900000Y-85000000D03*
%TD*%
D12*
%TO.P,H4,1,1*%
%TO.N,GND*%
X167500000Y-77500000D03*
%TD*%
D10*
%TO.P,REF\u002A\u002A,1*%
%TO.N,N/C*%
X156200000Y-99300000D03*
%TD*%
D15*
%TO.P,J2,1,Pin_1*%
%TO.N,N/C*%
X151500000Y-105000000D03*
D16*
%TO.P,J2,2,Pin_2*%
%TO.N,GND*%
X152500000Y-106000000D03*
X152500000Y-104000000D03*
X150500000Y-106000000D03*
X152000000Y-106500000D03*
X151500000Y-104000000D03*
X152000000Y-103500000D03*
X150500000Y-104000000D03*
D17*
X151500000Y-106600000D03*
D16*
X151500000Y-106000000D03*
X151000000Y-103500000D03*
X151000000Y-106500000D03*
D17*
X151500000Y-103400000D03*
%TD*%
D10*
%TO.P,REF\u002A\u002A,1*%
%TO.N,N/C*%
X156200000Y-101200000D03*
%TD*%
%TO.P,REF\u002A\u002A,1*%
%TO.N,N/C*%
X163800000Y-110700000D03*
%TD*%
%TO.P,REF\u002A\u002A,1*%
%TO.N,N/C*%
X161900000Y-81200000D03*
%TD*%
%TO.P,REF\u002A\u002A,1*%
%TO.N,N/C*%
X156200000Y-92600000D03*
%TD*%
%TO.P,REF\u002A\u002A,1*%
%TO.N,N/C*%
X155200000Y-83100000D03*
%TD*%
D18*
%TO.P,REF\u002A\u002A,1*%
%TO.N,N/C*%
X160950000Y-94050000D03*
%TD*%
%TO.P,REF\u002A\u002A,1*%
%TO.N,N/C*%
X155250000Y-94050000D03*
%TD*%
D11*
%TO.P,REF\u002A\u002A,1*%
%TO.N,GND*%
X162800000Y-103100000D03*
%TD*%
%TO.P,REF\u002A\u002A,1*%
%TO.N,GND*%
X157100000Y-103100000D03*
%TD*%
D10*
%TO.P,REF\u002A\u002A,1*%
%TO.N,N/C*%
X161900000Y-105000000D03*
%TD*%
D18*
%TO.P,REF\u002A\u002A,1*%
%TO.N,N/C*%
X157150000Y-94050000D03*
%TD*%
D10*
%TO.P,REF\u002A\u002A,1*%
%TO.N,N/C*%
X161900000Y-90700000D03*
%TD*%
D19*
%TO.P,J2,1,Pin_1*%
%TO.N,N/C*%
X160000000Y-113500000D03*
D16*
%TO.P,J2,2,Pin_2*%
%TO.N,GND*%
X158500000Y-114000000D03*
D20*
X158400000Y-113500000D03*
D16*
X159000000Y-113500000D03*
X158500000Y-113000000D03*
X161000000Y-114500000D03*
X159000000Y-114500000D03*
X161500000Y-113000000D03*
X159000000Y-112500000D03*
X161000000Y-112500000D03*
D20*
X161600000Y-113500000D03*
D16*
X161000000Y-113500000D03*
X161500000Y-114000000D03*
%TD*%
D10*
%TO.P,REF\u002A\u002A,1*%
%TO.N,N/C*%
X160000000Y-85000000D03*
%TD*%
%TO.P,REF\u002A\u002A,1*%
%TO.N,N/C*%
X163800000Y-90700000D03*
%TD*%
D13*
%TO.P,REF\u002A\u002A,1*%
%TO.N,N/C*%
X157500000Y-77500000D03*
%TD*%
D10*
%TO.P,REF\u002A\u002A,1*%
%TO.N,N/C*%
X160000000Y-90700000D03*
%TD*%
D15*
%TO.P,J2,1,Pin_1*%
%TO.N,N/C*%
X151500000Y-85000000D03*
D16*
%TO.P,J2,2,Pin_2*%
%TO.N,GND*%
X151000000Y-83500000D03*
X152000000Y-83500000D03*
X151500000Y-84000000D03*
X151500000Y-86000000D03*
X152000000Y-86500000D03*
X152500000Y-84000000D03*
X152500000Y-86000000D03*
X150500000Y-86000000D03*
D17*
X151500000Y-83400000D03*
X151500000Y-86600000D03*
D16*
X151000000Y-86500000D03*
X150500000Y-84000000D03*
%TD*%
D18*
%TO.P,REF\u002A\u002A,1*%
%TO.N,N/C*%
X159050000Y-94050000D03*
%TD*%
D12*
%TO.P,H2,1,1*%
%TO.N,GND*%
X167500000Y-112500000D03*
%TD*%
D10*
%TO.P,REF\u002A\u002A,1*%
%TO.N,N/C*%
X160900000Y-86900000D03*
%TD*%
D11*
%TO.P,REF\u002A\u002A,1*%
%TO.N,GND*%
X162800000Y-83100000D03*
%TD*%
D12*
%TO.P,H3,1,1*%
%TO.N,GND*%
X167500000Y-97500000D03*
%TD*%
%TO.P,H3,1,1*%
%TO.N,GND*%
X167500000Y-92500000D03*
%TD*%
D10*
%TO.P,REF\u002A\u002A,1*%
%TO.N,N/C*%
X154300000Y-85000000D03*
%TD*%
%TO.P,REF\u002A\u002A,1*%
%TO.N,N/C*%
X164700000Y-106900000D03*
%TD*%
%TO.P,REF\u002A\u002A,1*%
%TO.N,N/C*%
X163800000Y-81200000D03*
%TD*%
%TO.P,REF\u002A\u002A,1*%
%TO.N,N/C*%
X163800000Y-99300000D03*
%TD*%
D11*
%TO.P,REF\u002A\u002A,1*%
%TO.N,GND*%
X157100000Y-86900000D03*
%TD*%
D10*
%TO.P,REF\u002A\u002A,1*%
%TO.N,N/C*%
X160000000Y-81200000D03*
%TD*%
%TO.P,REF\u002A\u002A,1*%
%TO.N,N/C*%
X155200000Y-106900000D03*
%TD*%
%TO.P,REF\u002A\u002A,1*%
%TO.N,N/C*%
X163800000Y-88800000D03*
%TD*%
%TO.P,REF\u002A\u002A,1*%
%TO.N,N/C*%
X156200000Y-105000000D03*
%TD*%
%TO.P,REF\u002A\u002A,1*%
%TO.N,N/C*%
X160000000Y-88800000D03*
%TD*%
%TO.P,REF\u002A\u002A,1*%
%TO.N,N/C*%
X163800000Y-105000000D03*
%TD*%
%TO.P,REF\u002A\u002A,1*%
%TO.N,N/C*%
X161900000Y-108800000D03*
%TD*%
%TO.P,REF\u002A\u002A,1*%
%TO.N,N/C*%
X160900000Y-103100000D03*
%TD*%
%TO.P,REF\u002A\u002A,1*%
%TO.N,N/C*%
X160000000Y-110700000D03*
%TD*%
%TO.P,REF\u002A\u002A,1*%
%TO.N,N/C*%
X160000000Y-101200000D03*
%TD*%
%TO.P,REF\u002A\u002A,1*%
%TO.N,N/C*%
X156200000Y-79300000D03*
%TD*%
%TO.P,REF\u002A\u002A,1*%
%TO.N,N/C*%
X160000000Y-97400000D03*
%TD*%
D12*
%TO.P,H2,1,1*%
%TO.N,GND*%
X152500000Y-92500000D03*
%TD*%
D21*
%TO.N,GND*%
X162800000Y-103100000D03*
X157100000Y-86900000D03*
X157100000Y-103100000D03*
X157100000Y-106900000D03*
X162800000Y-106900000D03*
X157100000Y-83100000D03*
X162800000Y-83100000D03*
X162800000Y-86900000D03*
X160000000Y-79300000D03*
X160000000Y-99300000D03*
%TD*%
D22*
%TO.N,*%
X160000000Y-113500000D02*
X160000000Y-110700000D01*
X151500000Y-105000000D02*
X154300000Y-105000000D01*
X151500000Y-85000000D02*
X154300000Y-85000000D01*
X158100000Y-78100000D02*
X157500000Y-77500000D01*
X168500000Y-85000000D02*
X165700000Y-85000000D01*
X158100000Y-99300000D02*
X158100000Y-98100000D01*
X168500000Y-105000000D02*
X165700000Y-105000000D01*
X158100000Y-79300000D02*
X158100000Y-78100000D01*
X158100000Y-98100000D02*
X157500000Y-97500000D01*
%TD*%
%TA.AperFunction,Conductor*%
%TO.N,GND*%
G36*
X169758691Y-105619407D02*
G01*
X169794655Y-105668907D01*
X169799500Y-105699500D01*
X169799500Y-112465983D01*
X169796982Y-112488169D01*
X169794344Y-112499641D01*
X169796805Y-112510517D01*
X169796786Y-112521664D01*
X169796757Y-112521664D01*
X169797578Y-112531772D01*
X169783096Y-112771197D01*
X169781656Y-112783056D01*
X169733761Y-113044415D01*
X169730900Y-113056023D01*
X169651852Y-113309695D01*
X169647613Y-113320873D01*
X169538564Y-113563170D01*
X169533008Y-113573756D01*
X169395548Y-113801142D01*
X169388757Y-113810980D01*
X169224897Y-114020132D01*
X169216970Y-114029081D01*
X169029081Y-114216970D01*
X169020132Y-114224897D01*
X168810980Y-114388757D01*
X168801142Y-114395548D01*
X168573756Y-114533008D01*
X168563170Y-114538564D01*
X168320873Y-114647613D01*
X168309695Y-114651852D01*
X168056015Y-114730902D01*
X168044422Y-114733759D01*
X167783056Y-114781656D01*
X167771204Y-114783095D01*
X167532288Y-114797547D01*
X167522372Y-114796724D01*
X167522372Y-114796862D01*
X167511224Y-114796842D01*
X167500359Y-114794344D01*
X167488359Y-114797059D01*
X167466512Y-114799500D01*
X160699500Y-114799500D01*
X160641309Y-114780593D01*
X160605345Y-114731093D01*
X160600500Y-114700500D01*
X160600500Y-111799000D01*
X160619407Y-111740809D01*
X160668907Y-111704845D01*
X160699500Y-111700000D01*
X164900000Y-111700000D01*
X164900000Y-109849500D01*
X164918907Y-109791309D01*
X164968407Y-109755345D01*
X164999000Y-109750500D01*
X166469748Y-109750500D01*
X166500003Y-109744482D01*
X166518666Y-109740770D01*
X166518668Y-109740769D01*
X166528231Y-109738867D01*
X166594552Y-109694552D01*
X166638867Y-109628231D01*
X166650500Y-109569748D01*
X166650500Y-108030252D01*
X166638867Y-107971769D01*
X166594552Y-107905448D01*
X166528231Y-107861133D01*
X166518668Y-107859231D01*
X166518666Y-107859230D01*
X166495995Y-107854721D01*
X166469748Y-107849500D01*
X165734741Y-107849500D01*
X165676550Y-107830593D01*
X165640586Y-107781093D01*
X165640586Y-107728573D01*
X165638867Y-107728231D01*
X165649552Y-107674512D01*
X165650500Y-107669748D01*
X165650500Y-106130252D01*
X165638867Y-106071769D01*
X165641999Y-106071146D01*
X165638476Y-106026389D01*
X165670446Y-105974220D01*
X165726974Y-105950805D01*
X165734741Y-105950500D01*
X166469748Y-105950500D01*
X166500003Y-105944482D01*
X166518666Y-105940770D01*
X166518668Y-105940769D01*
X166528231Y-105938867D01*
X166594552Y-105894552D01*
X166638867Y-105828231D01*
X166650500Y-105769748D01*
X166650500Y-105699500D01*
X166669407Y-105641309D01*
X166718907Y-105605345D01*
X166749500Y-105600500D01*
X169700500Y-105600500D01*
X169758691Y-105619407D01*
G37*
%TD.AperFunction*%
%TA.AperFunction,Conductor*%
G36*
X153308691Y-105619407D02*
G01*
X153344655Y-105668907D01*
X153349500Y-105699500D01*
X153349500Y-105769748D01*
X153361133Y-105828231D01*
X153405448Y-105894552D01*
X153471769Y-105938867D01*
X153481332Y-105940769D01*
X153481334Y-105940770D01*
X153499997Y-105944482D01*
X153530252Y-105950500D01*
X154165259Y-105950500D01*
X154223450Y-105969407D01*
X154259414Y-106018907D01*
X154259414Y-106071427D01*
X154261133Y-106071769D01*
X154249500Y-106130252D01*
X154249500Y-107669748D01*
X154250448Y-107674512D01*
X154261133Y-107728231D01*
X154258001Y-107728854D01*
X154261524Y-107773611D01*
X154229554Y-107825780D01*
X154173026Y-107849195D01*
X154165259Y-107849500D01*
X153530252Y-107849500D01*
X153504005Y-107854721D01*
X153481334Y-107859230D01*
X153481332Y-107859231D01*
X153471769Y-107861133D01*
X153405448Y-107905448D01*
X153361133Y-107971769D01*
X153349500Y-108030252D01*
X153349500Y-109569748D01*
X153361133Y-109628231D01*
X153405448Y-109694552D01*
X153471769Y-109738867D01*
X153481332Y-109740769D01*
X153481334Y-109740770D01*
X153499997Y-109744482D01*
X153530252Y-109750500D01*
X155001000Y-109750500D01*
X155059191Y-109769407D01*
X155095155Y-109818907D01*
X155100000Y-109849500D01*
X155100000Y-111700000D01*
X159300500Y-111700000D01*
X159358691Y-111718907D01*
X159394655Y-111768407D01*
X159399500Y-111799000D01*
X159399500Y-114700500D01*
X159380593Y-114758691D01*
X159331093Y-114794655D01*
X159300500Y-114799500D01*
X152534017Y-114799500D01*
X152511831Y-114796982D01*
X152511801Y-114796975D01*
X152500359Y-114794344D01*
X152489483Y-114796805D01*
X152478336Y-114796786D01*
X152478336Y-114796757D01*
X152468228Y-114797578D01*
X152338014Y-114789702D01*
X152228796Y-114783095D01*
X152216944Y-114781656D01*
X151955578Y-114733759D01*
X151943985Y-114730902D01*
X151690305Y-114651852D01*
X151679127Y-114647613D01*
X151436830Y-114538564D01*
X151426244Y-114533008D01*
X151198858Y-114395548D01*
X151189020Y-114388757D01*
X150979868Y-114224897D01*
X150970919Y-114216970D01*
X150783030Y-114029081D01*
X150775103Y-114020132D01*
X150611243Y-113810980D01*
X150604452Y-113801142D01*
X150466992Y-113573756D01*
X150461436Y-113563170D01*
X150352387Y-113320873D01*
X150348148Y-113309695D01*
X150269100Y-113056023D01*
X150266239Y-113044415D01*
X150218344Y-112783056D01*
X150216904Y-112771197D01*
X150202469Y-112532548D01*
X150204207Y-112511810D01*
X150203747Y-112511757D01*
X150204389Y-112506179D01*
X150205655Y-112500718D01*
X150205656Y-112500000D01*
X150204412Y-112494545D01*
X150202980Y-112488266D01*
X150200500Y-112466248D01*
X150200500Y-105699500D01*
X150219407Y-105641309D01*
X150268907Y-105605345D01*
X150299500Y-105600500D01*
X153250500Y-105600500D01*
X153308691Y-105619407D01*
G37*
%TD.AperFunction*%
%TA.AperFunction,Conductor*%
G36*
X169758691Y-85619407D02*
G01*
X169794655Y-85668907D01*
X169799500Y-85699500D01*
X169799500Y-104300500D01*
X169780593Y-104358691D01*
X169731093Y-104394655D01*
X169700500Y-104399500D01*
X166749500Y-104399500D01*
X166691309Y-104380593D01*
X166655345Y-104331093D01*
X166650500Y-104300500D01*
X166650500Y-104230252D01*
X166638867Y-104171769D01*
X166594552Y-104105448D01*
X166528231Y-104061133D01*
X166518668Y-104059231D01*
X166518666Y-104059230D01*
X166495995Y-104054721D01*
X166469748Y-104049500D01*
X165734741Y-104049500D01*
X165676550Y-104030593D01*
X165640586Y-103981093D01*
X165640586Y-103928573D01*
X165638867Y-103928231D01*
X165649552Y-103874512D01*
X165650500Y-103869748D01*
X165650500Y-102330252D01*
X165638867Y-102271769D01*
X165641999Y-102271146D01*
X165638476Y-102226389D01*
X165670446Y-102174220D01*
X165726974Y-102150805D01*
X165734741Y-102150500D01*
X166469748Y-102150500D01*
X166500003Y-102144482D01*
X166518666Y-102140770D01*
X166518668Y-102140769D01*
X166528231Y-102138867D01*
X166594552Y-102094552D01*
X166638867Y-102028231D01*
X166650500Y-101969748D01*
X166650500Y-100430252D01*
X166638867Y-100371769D01*
X166594552Y-100305448D01*
X166528231Y-100261133D01*
X166518668Y-100259231D01*
X166518666Y-100259230D01*
X166495995Y-100254721D01*
X166469748Y-100249500D01*
X164999000Y-100249500D01*
X164940809Y-100230593D01*
X164904845Y-100181093D01*
X164900000Y-100150500D01*
X164900000Y-94849500D01*
X164918907Y-94791309D01*
X164968407Y-94755345D01*
X164999000Y-94750500D01*
X165269748Y-94750500D01*
X165295995Y-94745279D01*
X165318666Y-94740770D01*
X165318668Y-94740769D01*
X165328231Y-94738867D01*
X165394552Y-94694552D01*
X165438867Y-94628231D01*
X165450500Y-94569748D01*
X165450500Y-93530252D01*
X165438867Y-93471769D01*
X165394552Y-93405448D01*
X165328231Y-93361133D01*
X165318668Y-93359231D01*
X165318666Y-93359230D01*
X165295995Y-93354721D01*
X165269748Y-93349500D01*
X164999000Y-93349500D01*
X164940809Y-93330593D01*
X164904845Y-93281093D01*
X164900000Y-93250500D01*
X164900000Y-89849500D01*
X164918907Y-89791309D01*
X164968407Y-89755345D01*
X164999000Y-89750500D01*
X166469748Y-89750500D01*
X166500003Y-89744482D01*
X166518666Y-89740770D01*
X166518668Y-89740769D01*
X166528231Y-89738867D01*
X166594552Y-89694552D01*
X166638867Y-89628231D01*
X166650500Y-89569748D01*
X166650500Y-88030252D01*
X166638867Y-87971769D01*
X166594552Y-87905448D01*
X166528231Y-87861133D01*
X166518668Y-87859231D01*
X166518666Y-87859230D01*
X166495995Y-87854721D01*
X166469748Y-87849500D01*
X165734741Y-87849500D01*
X165676550Y-87830593D01*
X165640586Y-87781093D01*
X165640586Y-87728573D01*
X165638867Y-87728231D01*
X165649552Y-87674512D01*
X165650500Y-87669748D01*
X165650500Y-86130252D01*
X165638867Y-86071769D01*
X165641999Y-86071146D01*
X165638476Y-86026389D01*
X165670446Y-85974220D01*
X165726974Y-85950805D01*
X165734741Y-85950500D01*
X166469748Y-85950500D01*
X166500003Y-85944482D01*
X166518666Y-85940770D01*
X166518668Y-85940769D01*
X166528231Y-85938867D01*
X166594552Y-85894552D01*
X166638867Y-85828231D01*
X166650500Y-85769748D01*
X166650500Y-85699500D01*
X166669407Y-85641309D01*
X166718907Y-85605345D01*
X166749500Y-85600500D01*
X169700500Y-85600500D01*
X169758691Y-85619407D01*
G37*
%TD.AperFunction*%
%TA.AperFunction,Conductor*%
G36*
X153308691Y-85619407D02*
G01*
X153344655Y-85668907D01*
X153349500Y-85699500D01*
X153349500Y-85769748D01*
X153361133Y-85828231D01*
X153405448Y-85894552D01*
X153471769Y-85938867D01*
X153481332Y-85940769D01*
X153481334Y-85940770D01*
X153499997Y-85944482D01*
X153530252Y-85950500D01*
X154165259Y-85950500D01*
X154223450Y-85969407D01*
X154259414Y-86018907D01*
X154259414Y-86071427D01*
X154261133Y-86071769D01*
X154249500Y-86130252D01*
X154249500Y-87669748D01*
X154250448Y-87674512D01*
X154261133Y-87728231D01*
X154258001Y-87728854D01*
X154261524Y-87773611D01*
X154229554Y-87825780D01*
X154173026Y-87849195D01*
X154165259Y-87849500D01*
X153530252Y-87849500D01*
X153504005Y-87854721D01*
X153481334Y-87859230D01*
X153481332Y-87859231D01*
X153471769Y-87861133D01*
X153405448Y-87905448D01*
X153361133Y-87971769D01*
X153349500Y-88030252D01*
X153349500Y-89569748D01*
X153361133Y-89628231D01*
X153405448Y-89694552D01*
X153471769Y-89738867D01*
X153481332Y-89740769D01*
X153481334Y-89740770D01*
X153499997Y-89744482D01*
X153530252Y-89750500D01*
X155001000Y-89750500D01*
X155059191Y-89769407D01*
X155095155Y-89818907D01*
X155100000Y-89849500D01*
X155100000Y-93250500D01*
X155081093Y-93308691D01*
X155031593Y-93344655D01*
X155001000Y-93349500D01*
X154730252Y-93349500D01*
X154704005Y-93354721D01*
X154681334Y-93359230D01*
X154681332Y-93359231D01*
X154671769Y-93361133D01*
X154605448Y-93405448D01*
X154561133Y-93471769D01*
X154549500Y-93530252D01*
X154549500Y-94569748D01*
X154561133Y-94628231D01*
X154605448Y-94694552D01*
X154671769Y-94738867D01*
X154681332Y-94740769D01*
X154681334Y-94740770D01*
X154704005Y-94745279D01*
X154730252Y-94750500D01*
X155001000Y-94750500D01*
X155059191Y-94769407D01*
X155095155Y-94818907D01*
X155100000Y-94849500D01*
X155100000Y-100150500D01*
X155081093Y-100208691D01*
X155031593Y-100244655D01*
X155001000Y-100249500D01*
X153530252Y-100249500D01*
X153504005Y-100254721D01*
X153481334Y-100259230D01*
X153481332Y-100259231D01*
X153471769Y-100261133D01*
X153405448Y-100305448D01*
X153361133Y-100371769D01*
X153349500Y-100430252D01*
X153349500Y-101969748D01*
X153361133Y-102028231D01*
X153405448Y-102094552D01*
X153471769Y-102138867D01*
X153481332Y-102140769D01*
X153481334Y-102140770D01*
X153499997Y-102144482D01*
X153530252Y-102150500D01*
X154165259Y-102150500D01*
X154223450Y-102169407D01*
X154259414Y-102218907D01*
X154259414Y-102271427D01*
X154261133Y-102271769D01*
X154249500Y-102330252D01*
X154249500Y-103869748D01*
X154250448Y-103874512D01*
X154261133Y-103928231D01*
X154258001Y-103928854D01*
X154261524Y-103973611D01*
X154229554Y-104025780D01*
X154173026Y-104049195D01*
X154165259Y-104049500D01*
X153530252Y-104049500D01*
X153504005Y-104054721D01*
X153481334Y-104059230D01*
X153481332Y-104059231D01*
X153471769Y-104061133D01*
X153405448Y-104105448D01*
X153361133Y-104171769D01*
X153349500Y-104230252D01*
X153349500Y-104300500D01*
X153330593Y-104358691D01*
X153281093Y-104394655D01*
X153250500Y-104399500D01*
X150299500Y-104399500D01*
X150241309Y-104380593D01*
X150205345Y-104331093D01*
X150200500Y-104300500D01*
X150200500Y-85699500D01*
X150219407Y-85641309D01*
X150268907Y-85605345D01*
X150299500Y-85600500D01*
X153250500Y-85600500D01*
X153308691Y-85619407D01*
G37*
%TD.AperFunction*%
%TA.AperFunction,Conductor*%
G36*
X167488169Y-75203018D02*
G01*
X167499641Y-75205656D01*
X167510517Y-75203195D01*
X167521664Y-75203214D01*
X167521664Y-75203243D01*
X167531772Y-75202422D01*
X167661986Y-75210298D01*
X167771204Y-75216905D01*
X167783056Y-75218344D01*
X168044422Y-75266241D01*
X168056015Y-75269098D01*
X168262244Y-75333361D01*
X168309695Y-75348148D01*
X168320873Y-75352387D01*
X168563170Y-75461436D01*
X168573756Y-75466992D01*
X168801142Y-75604452D01*
X168810980Y-75611243D01*
X169020132Y-75775103D01*
X169029081Y-75783030D01*
X169216970Y-75970919D01*
X169224897Y-75979868D01*
X169388757Y-76189020D01*
X169395548Y-76198858D01*
X169533008Y-76426244D01*
X169538564Y-76436830D01*
X169647613Y-76679127D01*
X169651852Y-76690305D01*
X169730900Y-76943977D01*
X169733759Y-76955578D01*
X169781655Y-77216936D01*
X169783095Y-77228796D01*
X169788113Y-77311744D01*
X169797547Y-77467712D01*
X169796724Y-77477628D01*
X169796862Y-77477628D01*
X169796842Y-77488776D01*
X169794344Y-77499641D01*
X169796804Y-77510513D01*
X169797059Y-77511638D01*
X169799500Y-77533488D01*
X169799500Y-84300500D01*
X169780593Y-84358691D01*
X169731093Y-84394655D01*
X169700500Y-84399500D01*
X166749500Y-84399500D01*
X166691309Y-84380593D01*
X166655345Y-84331093D01*
X166650500Y-84300500D01*
X166650500Y-84230252D01*
X166638867Y-84171769D01*
X166594552Y-84105448D01*
X166528231Y-84061133D01*
X166518668Y-84059231D01*
X166518666Y-84059230D01*
X166495995Y-84054721D01*
X166469748Y-84049500D01*
X165734741Y-84049500D01*
X165676550Y-84030593D01*
X165640586Y-83981093D01*
X165640586Y-83928573D01*
X165638867Y-83928231D01*
X165649552Y-83874512D01*
X165650500Y-83869748D01*
X165650500Y-82330252D01*
X165638867Y-82271769D01*
X165641999Y-82271146D01*
X165638476Y-82226389D01*
X165670446Y-82174220D01*
X165726974Y-82150805D01*
X165734741Y-82150500D01*
X166469748Y-82150500D01*
X166500003Y-82144482D01*
X166518666Y-82140770D01*
X166518668Y-82140769D01*
X166528231Y-82138867D01*
X166594552Y-82094552D01*
X166638867Y-82028231D01*
X166650500Y-81969748D01*
X166650500Y-80430252D01*
X166638867Y-80371769D01*
X166594552Y-80305448D01*
X166528231Y-80261133D01*
X166518668Y-80259231D01*
X166518666Y-80259230D01*
X166495995Y-80254721D01*
X166469748Y-80249500D01*
X164999000Y-80249500D01*
X164940809Y-80230593D01*
X164904845Y-80181093D01*
X164900000Y-80150500D01*
X164900000Y-78250000D01*
X160750000Y-78250000D01*
X160750000Y-78551000D01*
X160731093Y-78609191D01*
X160681593Y-78645155D01*
X160651000Y-78650000D01*
X159349000Y-78650000D01*
X159290809Y-78631093D01*
X159254845Y-78581593D01*
X159250000Y-78551000D01*
X159250000Y-78250000D01*
X158799500Y-78250000D01*
X158741309Y-78231093D01*
X158705345Y-78181593D01*
X158700500Y-78151000D01*
X158700500Y-78145849D01*
X158701347Y-78132927D01*
X158704835Y-78106433D01*
X158705682Y-78100000D01*
X158685044Y-77943238D01*
X158624536Y-77797159D01*
X158620590Y-77792017D01*
X158620588Y-77792013D01*
X158552450Y-77703215D01*
X158552449Y-77703213D01*
X158532233Y-77676866D01*
X158532229Y-77676862D01*
X158528282Y-77671718D01*
X158501936Y-77651502D01*
X158492199Y-77642964D01*
X158433502Y-77584267D01*
X158405725Y-77529750D01*
X158405218Y-77510347D01*
X158404918Y-77510347D01*
X158404918Y-77505157D01*
X158405460Y-77500000D01*
X158385674Y-77311744D01*
X158384073Y-77306817D01*
X158384072Y-77306812D01*
X158328781Y-77136646D01*
X158328780Y-77136645D01*
X158327179Y-77131716D01*
X158232533Y-76967784D01*
X158169821Y-76898135D01*
X158109341Y-76830965D01*
X158109337Y-76830962D01*
X158105871Y-76827112D01*
X157952730Y-76715849D01*
X157947998Y-76713742D01*
X157947996Y-76713741D01*
X157784540Y-76640965D01*
X157784539Y-76640965D01*
X157779803Y-76638856D01*
X157774733Y-76637778D01*
X157774732Y-76637778D01*
X157737390Y-76629841D01*
X157594646Y-76599500D01*
X157405354Y-76599500D01*
X157262610Y-76629841D01*
X157225268Y-76637778D01*
X157225267Y-76637778D01*
X157220197Y-76638856D01*
X157215461Y-76640965D01*
X157215460Y-76640965D01*
X157052004Y-76713741D01*
X157052002Y-76713742D01*
X157047270Y-76715849D01*
X156894129Y-76827112D01*
X156890663Y-76830962D01*
X156890659Y-76830965D01*
X156830179Y-76898135D01*
X156767467Y-76967784D01*
X156672821Y-77131716D01*
X156671220Y-77136645D01*
X156671219Y-77136646D01*
X156615928Y-77306812D01*
X156615927Y-77306817D01*
X156614326Y-77311744D01*
X156594540Y-77500000D01*
X156614326Y-77688256D01*
X156615927Y-77693183D01*
X156615928Y-77693188D01*
X156648039Y-77792013D01*
X156672821Y-77868284D01*
X156675412Y-77872772D01*
X156675413Y-77872774D01*
X156719811Y-77949674D01*
X156767467Y-78032216D01*
X156770939Y-78036072D01*
X156814774Y-78084756D01*
X156839661Y-78140652D01*
X156826939Y-78200500D01*
X156781470Y-78241441D01*
X156741203Y-78250000D01*
X155100000Y-78250000D01*
X155100000Y-80150500D01*
X155081093Y-80208691D01*
X155031593Y-80244655D01*
X155001000Y-80249500D01*
X153530252Y-80249500D01*
X153504005Y-80254721D01*
X153481334Y-80259230D01*
X153481332Y-80259231D01*
X153471769Y-80261133D01*
X153405448Y-80305448D01*
X153361133Y-80371769D01*
X153349500Y-80430252D01*
X153349500Y-81969748D01*
X153361133Y-82028231D01*
X153405448Y-82094552D01*
X153471769Y-82138867D01*
X153481332Y-82140769D01*
X153481334Y-82140770D01*
X153499997Y-82144482D01*
X153530252Y-82150500D01*
X154165259Y-82150500D01*
X154223450Y-82169407D01*
X154259414Y-82218907D01*
X154259414Y-82271427D01*
X154261133Y-82271769D01*
X154249500Y-82330252D01*
X154249500Y-83869748D01*
X154250448Y-83874512D01*
X154261133Y-83928231D01*
X154258001Y-83928854D01*
X154261524Y-83973611D01*
X154229554Y-84025780D01*
X154173026Y-84049195D01*
X154165259Y-84049500D01*
X153530252Y-84049500D01*
X153504005Y-84054721D01*
X153481334Y-84059230D01*
X153481332Y-84059231D01*
X153471769Y-84061133D01*
X153405448Y-84105448D01*
X153361133Y-84171769D01*
X153349500Y-84230252D01*
X153349500Y-84300500D01*
X153330593Y-84358691D01*
X153281093Y-84394655D01*
X153250500Y-84399500D01*
X150299500Y-84399500D01*
X150241309Y-84380593D01*
X150205345Y-84331093D01*
X150200500Y-84300500D01*
X150200500Y-77534281D01*
X150203057Y-77511926D01*
X150203141Y-77511565D01*
X150205655Y-77500718D01*
X150205656Y-77500000D01*
X150204413Y-77494549D01*
X150203791Y-77488995D01*
X150204159Y-77488954D01*
X150202438Y-77467973D01*
X150209909Y-77344459D01*
X150216905Y-77228797D01*
X150218345Y-77216936D01*
X150266241Y-76955578D01*
X150269100Y-76943977D01*
X150348148Y-76690305D01*
X150352387Y-76679127D01*
X150461436Y-76436830D01*
X150466992Y-76426244D01*
X150604452Y-76198858D01*
X150611243Y-76189020D01*
X150775103Y-75979868D01*
X150783030Y-75970919D01*
X150970919Y-75783030D01*
X150979868Y-75775103D01*
X151189020Y-75611243D01*
X151198858Y-75604452D01*
X151426244Y-75466992D01*
X151436830Y-75461436D01*
X151679127Y-75352387D01*
X151690305Y-75348148D01*
X151737756Y-75333361D01*
X151943985Y-75269098D01*
X151955578Y-75266241D01*
X152216944Y-75218344D01*
X152228796Y-75216905D01*
X152467712Y-75202453D01*
X152477628Y-75203276D01*
X152477628Y-75203138D01*
X152488776Y-75203158D01*
X152499641Y-75205656D01*
X152511641Y-75202941D01*
X152533488Y-75200500D01*
X167465983Y-75200500D01*
X167488169Y-75203018D01*
G37*
%TD.AperFunction*%
%TD*%
M02*
