%TF.GenerationSoftware,KiCad,Pcbnew,6.0.9+dfsg-1~bpo11+1*%
%TF.CreationDate,2022-11-09T23:39:42+01:00*%
%TF.ProjectId,013-prototype-board,3031332d-7072-46f7-946f-747970652d62,1*%
%TF.SameCoordinates,Original*%
%TF.FileFunction,Drillmap*%
%TF.FilePolarity,Positive*%
%FSLAX45Y45*%
G04 Gerber Fmt 4.5, Leading zero omitted, Abs format (unit mm)*
G04 Created by KiCad (PCBNEW 6.0.9+dfsg-1~bpo11+1) date 2022-11-09 23:39:42*
%MOMM*%
%LPD*%
G01*
G04 APERTURE LIST*
%ADD10C,0.100000*%
%ADD11C,0.200000*%
%ADD12C,0.040000*%
%ADD13C,0.065000*%
G04 APERTURE END LIST*
D10*
X15250000Y-7500000D02*
G75*
G03*
X15000000Y-7750000I0J-250000D01*
G01*
X15250000Y-7500000D02*
X16750000Y-7500000D01*
X17000000Y-7750000D02*
G75*
G03*
X16750000Y-7500000I-250000J0D01*
G01*
X15000000Y-11250000D02*
X15000000Y-7750000D01*
X15000000Y-11250000D02*
G75*
G03*
X15250000Y-11500000I250000J0D01*
G01*
X17000000Y-7750000D02*
X17000000Y-11250000D01*
X16750000Y-11500000D02*
G75*
G03*
X17000000Y-11250000I0J250000D01*
G01*
X16750000Y-11500000D02*
X15250000Y-11500000D01*
D11*
D12*
X15690000Y-8290000D02*
X15730000Y-8330000D01*
X15730000Y-8290000D02*
X15690000Y-8330000D01*
X15690000Y-8670000D02*
X15730000Y-8710000D01*
X15730000Y-8670000D02*
X15690000Y-8710000D01*
X15690000Y-10290000D02*
X15730000Y-10330000D01*
X15730000Y-10290000D02*
X15690000Y-10330000D01*
X15690000Y-10670000D02*
X15730000Y-10710000D01*
X15730000Y-10670000D02*
X15690000Y-10710000D01*
X15980000Y-7910000D02*
X16020000Y-7950000D01*
X16020000Y-7910000D02*
X15980000Y-7950000D01*
X15980000Y-9910000D02*
X16020000Y-9950000D01*
X16020000Y-9910000D02*
X15980000Y-9950000D01*
X16260000Y-8290000D02*
X16300000Y-8330000D01*
X16300000Y-8290000D02*
X16260000Y-8330000D01*
X16260000Y-8670000D02*
X16300000Y-8710000D01*
X16300000Y-8670000D02*
X16260000Y-8710000D01*
X16260000Y-10290000D02*
X16300000Y-10330000D01*
X16300000Y-10290000D02*
X16260000Y-10330000D01*
X16260000Y-10670000D02*
X16300000Y-10710000D01*
X16300000Y-10670000D02*
X16260000Y-10710000D01*
X15070000Y-8400000D02*
G75*
G03*
X15070000Y-8400000I-20000J0D01*
G01*
X15070000Y-8600000D02*
G75*
G03*
X15070000Y-8600000I-20000J0D01*
G01*
X15070000Y-10400000D02*
G75*
G03*
X15070000Y-10400000I-20000J0D01*
G01*
X15070000Y-10600000D02*
G75*
G03*
X15070000Y-10600000I-20000J0D01*
G01*
X15120000Y-8350000D02*
G75*
G03*
X15120000Y-8350000I-20000J0D01*
G01*
X15120000Y-8650000D02*
G75*
G03*
X15120000Y-8650000I-20000J0D01*
G01*
X15120000Y-10350000D02*
G75*
G03*
X15120000Y-10350000I-20000J0D01*
G01*
X15120000Y-10650000D02*
G75*
G03*
X15120000Y-10650000I-20000J0D01*
G01*
X15170000Y-8400000D02*
G75*
G03*
X15170000Y-8400000I-20000J0D01*
G01*
X15170000Y-8600000D02*
G75*
G03*
X15170000Y-8600000I-20000J0D01*
G01*
X15170000Y-10400000D02*
G75*
G03*
X15170000Y-10400000I-20000J0D01*
G01*
X15170000Y-10600000D02*
G75*
G03*
X15170000Y-10600000I-20000J0D01*
G01*
X15220000Y-8350000D02*
G75*
G03*
X15220000Y-8350000I-20000J0D01*
G01*
X15220000Y-8650000D02*
G75*
G03*
X15220000Y-8650000I-20000J0D01*
G01*
X15220000Y-10350000D02*
G75*
G03*
X15220000Y-10350000I-20000J0D01*
G01*
X15220000Y-10650000D02*
G75*
G03*
X15220000Y-10650000I-20000J0D01*
G01*
X15270000Y-8400000D02*
G75*
G03*
X15270000Y-8400000I-20000J0D01*
G01*
X15270000Y-8600000D02*
G75*
G03*
X15270000Y-8600000I-20000J0D01*
G01*
X15270000Y-10400000D02*
G75*
G03*
X15270000Y-10400000I-20000J0D01*
G01*
X15270000Y-10600000D02*
G75*
G03*
X15270000Y-10600000I-20000J0D01*
G01*
X15870000Y-11300000D02*
G75*
G03*
X15870000Y-11300000I-20000J0D01*
G01*
X15870000Y-11400000D02*
G75*
G03*
X15870000Y-11400000I-20000J0D01*
G01*
X15920000Y-11250000D02*
G75*
G03*
X15920000Y-11250000I-20000J0D01*
G01*
X15920000Y-11350000D02*
G75*
G03*
X15920000Y-11350000I-20000J0D01*
G01*
X15920000Y-11450000D02*
G75*
G03*
X15920000Y-11450000I-20000J0D01*
G01*
X16120000Y-11250000D02*
G75*
G03*
X16120000Y-11250000I-20000J0D01*
G01*
X16120000Y-11350000D02*
G75*
G03*
X16120000Y-11350000I-20000J0D01*
G01*
X16120000Y-11450000D02*
G75*
G03*
X16120000Y-11450000I-20000J0D01*
G01*
X16170000Y-11300000D02*
G75*
G03*
X16170000Y-11300000I-20000J0D01*
G01*
X16170000Y-11400000D02*
G75*
G03*
X16170000Y-11400000I-20000J0D01*
G01*
X16770000Y-8400000D02*
G75*
G03*
X16770000Y-8400000I-20000J0D01*
G01*
X16770000Y-8600000D02*
G75*
G03*
X16770000Y-8600000I-20000J0D01*
G01*
X16770000Y-10400000D02*
G75*
G03*
X16770000Y-10400000I-20000J0D01*
G01*
X16770000Y-10600000D02*
G75*
G03*
X16770000Y-10600000I-20000J0D01*
G01*
X16820000Y-8350000D02*
G75*
G03*
X16820000Y-8350000I-20000J0D01*
G01*
X16820000Y-8650000D02*
G75*
G03*
X16820000Y-8650000I-20000J0D01*
G01*
X16820000Y-10350000D02*
G75*
G03*
X16820000Y-10350000I-20000J0D01*
G01*
X16820000Y-10650000D02*
G75*
G03*
X16820000Y-10650000I-20000J0D01*
G01*
X16870000Y-8400000D02*
G75*
G03*
X16870000Y-8400000I-20000J0D01*
G01*
X16870000Y-8600000D02*
G75*
G03*
X16870000Y-8600000I-20000J0D01*
G01*
X16870000Y-10400000D02*
G75*
G03*
X16870000Y-10400000I-20000J0D01*
G01*
X16870000Y-10600000D02*
G75*
G03*
X16870000Y-10600000I-20000J0D01*
G01*
X16920000Y-8350000D02*
G75*
G03*
X16920000Y-8350000I-20000J0D01*
G01*
X16920000Y-8650000D02*
G75*
G03*
X16920000Y-8650000I-20000J0D01*
G01*
X16920000Y-10350000D02*
G75*
G03*
X16920000Y-10350000I-20000J0D01*
G01*
X16920000Y-10650000D02*
G75*
G03*
X16920000Y-10650000I-20000J0D01*
G01*
X16970000Y-8400000D02*
G75*
G03*
X16970000Y-8400000I-20000J0D01*
G01*
X16970000Y-8600000D02*
G75*
G03*
X16970000Y-8600000I-20000J0D01*
G01*
X16970000Y-10400000D02*
G75*
G03*
X16970000Y-10400000I-20000J0D01*
G01*
X16970000Y-10600000D02*
G75*
G03*
X16970000Y-10600000I-20000J0D01*
G01*
D13*
X15750000Y-7717500D02*
X15750000Y-7782500D01*
X15717500Y-7750000D02*
X15782500Y-7750000D01*
X15750000Y-9717500D02*
X15750000Y-9782500D01*
X15717500Y-9750000D02*
X15782500Y-9750000D01*
D11*
X15320711Y-7820711D02*
X15320711Y-7679289D01*
X15179289Y-7679289D01*
X15179289Y-7820711D01*
X15320711Y-7820711D01*
X15320711Y-9320711D02*
X15320711Y-9179289D01*
X15179289Y-9179289D01*
X15179289Y-9320711D01*
X15320711Y-9320711D01*
X15320711Y-9820711D02*
X15320711Y-9679289D01*
X15179289Y-9679289D01*
X15179289Y-9820711D01*
X15320711Y-9820711D01*
X15320711Y-11320711D02*
X15320711Y-11179289D01*
X15179289Y-11179289D01*
X15179289Y-11320711D01*
X15320711Y-11320711D01*
X16820711Y-7820711D02*
X16820711Y-7679289D01*
X16679289Y-7679289D01*
X16679289Y-7820711D01*
X16820711Y-7820711D01*
X16820711Y-9320711D02*
X16820711Y-9179289D01*
X16679289Y-9179289D01*
X16679289Y-9320711D01*
X16820711Y-9320711D01*
X16820711Y-9820711D02*
X16820711Y-9679289D01*
X16679289Y-9679289D01*
X16679289Y-9820711D01*
X16820711Y-9820711D01*
X16820711Y-11320711D02*
X16820711Y-11179289D01*
X16679289Y-11179289D01*
X16679289Y-11320711D01*
X16820711Y-11320711D01*
X15252619Y-11815476D02*
X15252619Y-11615476D01*
X15300238Y-11615476D01*
X15328809Y-11625000D01*
X15347857Y-11644048D01*
X15357381Y-11663095D01*
X15366905Y-11701190D01*
X15366905Y-11729762D01*
X15357381Y-11767857D01*
X15347857Y-11786905D01*
X15328809Y-11805952D01*
X15300238Y-11815476D01*
X15252619Y-11815476D01*
X15452619Y-11815476D02*
X15452619Y-11682143D01*
X15452619Y-11720238D02*
X15462143Y-11701190D01*
X15471667Y-11691667D01*
X15490714Y-11682143D01*
X15509762Y-11682143D01*
X15576428Y-11815476D02*
X15576428Y-11682143D01*
X15576428Y-11615476D02*
X15566905Y-11625000D01*
X15576428Y-11634524D01*
X15585952Y-11625000D01*
X15576428Y-11615476D01*
X15576428Y-11634524D01*
X15700238Y-11815476D02*
X15681190Y-11805952D01*
X15671667Y-11786905D01*
X15671667Y-11615476D01*
X15805000Y-11815476D02*
X15785952Y-11805952D01*
X15776428Y-11786905D01*
X15776428Y-11615476D01*
X16033571Y-11815476D02*
X16033571Y-11615476D01*
X16100238Y-11758333D01*
X16166905Y-11615476D01*
X16166905Y-11815476D01*
X16347857Y-11815476D02*
X16347857Y-11710714D01*
X16338333Y-11691667D01*
X16319286Y-11682143D01*
X16281190Y-11682143D01*
X16262143Y-11691667D01*
X16347857Y-11805952D02*
X16328809Y-11815476D01*
X16281190Y-11815476D01*
X16262143Y-11805952D01*
X16252619Y-11786905D01*
X16252619Y-11767857D01*
X16262143Y-11748809D01*
X16281190Y-11739286D01*
X16328809Y-11739286D01*
X16347857Y-11729762D01*
X16443095Y-11682143D02*
X16443095Y-11882143D01*
X16443095Y-11691667D02*
X16462143Y-11682143D01*
X16500238Y-11682143D01*
X16519286Y-11691667D01*
X16528809Y-11701190D01*
X16538333Y-11720238D01*
X16538333Y-11777381D01*
X16528809Y-11796428D01*
X16519286Y-11805952D01*
X16500238Y-11815476D01*
X16462143Y-11815476D01*
X16443095Y-11805952D01*
X16624048Y-11796428D02*
X16633571Y-11805952D01*
X16624048Y-11815476D01*
X16614524Y-11805952D01*
X16624048Y-11796428D01*
X16624048Y-11815476D01*
X16624048Y-11691667D02*
X16633571Y-11701190D01*
X16624048Y-11710714D01*
X16614524Y-11701190D01*
X16624048Y-11691667D01*
X16624048Y-11710714D01*
D12*
X14955000Y-12125000D02*
X14995000Y-12165000D01*
X14995000Y-12125000D02*
X14955000Y-12165000D01*
D11*
X15290714Y-12035476D02*
X15309762Y-12035476D01*
X15328809Y-12045000D01*
X15338333Y-12054524D01*
X15347857Y-12073571D01*
X15357381Y-12111667D01*
X15357381Y-12159286D01*
X15347857Y-12197381D01*
X15338333Y-12216428D01*
X15328809Y-12225952D01*
X15309762Y-12235476D01*
X15290714Y-12235476D01*
X15271667Y-12225952D01*
X15262143Y-12216428D01*
X15252619Y-12197381D01*
X15243095Y-12159286D01*
X15243095Y-12111667D01*
X15252619Y-12073571D01*
X15262143Y-12054524D01*
X15271667Y-12045000D01*
X15290714Y-12035476D01*
X15443095Y-12216428D02*
X15452619Y-12225952D01*
X15443095Y-12235476D01*
X15433571Y-12225952D01*
X15443095Y-12216428D01*
X15443095Y-12235476D01*
X15624048Y-12102143D02*
X15624048Y-12235476D01*
X15576428Y-12025952D02*
X15528809Y-12168809D01*
X15652619Y-12168809D01*
X15766905Y-12035476D02*
X15785952Y-12035476D01*
X15805000Y-12045000D01*
X15814524Y-12054524D01*
X15824048Y-12073571D01*
X15833571Y-12111667D01*
X15833571Y-12159286D01*
X15824048Y-12197381D01*
X15814524Y-12216428D01*
X15805000Y-12225952D01*
X15785952Y-12235476D01*
X15766905Y-12235476D01*
X15747857Y-12225952D01*
X15738333Y-12216428D01*
X15728809Y-12197381D01*
X15719286Y-12159286D01*
X15719286Y-12111667D01*
X15728809Y-12073571D01*
X15738333Y-12054524D01*
X15747857Y-12045000D01*
X15766905Y-12035476D01*
X15957381Y-12035476D02*
X15976428Y-12035476D01*
X15995476Y-12045000D01*
X16005000Y-12054524D01*
X16014524Y-12073571D01*
X16024048Y-12111667D01*
X16024048Y-12159286D01*
X16014524Y-12197381D01*
X16005000Y-12216428D01*
X15995476Y-12225952D01*
X15976428Y-12235476D01*
X15957381Y-12235476D01*
X15938333Y-12225952D01*
X15928809Y-12216428D01*
X15919286Y-12197381D01*
X15909762Y-12159286D01*
X15909762Y-12111667D01*
X15919286Y-12073571D01*
X15928809Y-12054524D01*
X15938333Y-12045000D01*
X15957381Y-12035476D01*
X16109762Y-12235476D02*
X16109762Y-12102143D01*
X16109762Y-12121190D02*
X16119286Y-12111667D01*
X16138333Y-12102143D01*
X16166905Y-12102143D01*
X16185952Y-12111667D01*
X16195476Y-12130714D01*
X16195476Y-12235476D01*
X16195476Y-12130714D02*
X16205000Y-12111667D01*
X16224048Y-12102143D01*
X16252619Y-12102143D01*
X16271667Y-12111667D01*
X16281190Y-12130714D01*
X16281190Y-12235476D01*
X16376428Y-12235476D02*
X16376428Y-12102143D01*
X16376428Y-12121190D02*
X16385952Y-12111667D01*
X16405000Y-12102143D01*
X16433571Y-12102143D01*
X16452619Y-12111667D01*
X16462143Y-12130714D01*
X16462143Y-12235476D01*
X16462143Y-12130714D02*
X16471667Y-12111667D01*
X16490714Y-12102143D01*
X16519286Y-12102143D01*
X16538333Y-12111667D01*
X16547857Y-12130714D01*
X16547857Y-12235476D01*
X16938333Y-12025952D02*
X16766905Y-12283095D01*
X17195476Y-12035476D02*
X17214524Y-12035476D01*
X17233571Y-12045000D01*
X17243095Y-12054524D01*
X17252619Y-12073571D01*
X17262143Y-12111667D01*
X17262143Y-12159286D01*
X17252619Y-12197381D01*
X17243095Y-12216428D01*
X17233571Y-12225952D01*
X17214524Y-12235476D01*
X17195476Y-12235476D01*
X17176429Y-12225952D01*
X17166905Y-12216428D01*
X17157381Y-12197381D01*
X17147857Y-12159286D01*
X17147857Y-12111667D01*
X17157381Y-12073571D01*
X17166905Y-12054524D01*
X17176429Y-12045000D01*
X17195476Y-12035476D01*
X17347857Y-12216428D02*
X17357381Y-12225952D01*
X17347857Y-12235476D01*
X17338333Y-12225952D01*
X17347857Y-12216428D01*
X17347857Y-12235476D01*
X17481190Y-12035476D02*
X17500238Y-12035476D01*
X17519286Y-12045000D01*
X17528810Y-12054524D01*
X17538333Y-12073571D01*
X17547857Y-12111667D01*
X17547857Y-12159286D01*
X17538333Y-12197381D01*
X17528810Y-12216428D01*
X17519286Y-12225952D01*
X17500238Y-12235476D01*
X17481190Y-12235476D01*
X17462143Y-12225952D01*
X17452619Y-12216428D01*
X17443095Y-12197381D01*
X17433571Y-12159286D01*
X17433571Y-12111667D01*
X17443095Y-12073571D01*
X17452619Y-12054524D01*
X17462143Y-12045000D01*
X17481190Y-12035476D01*
X17738333Y-12235476D02*
X17624048Y-12235476D01*
X17681190Y-12235476D02*
X17681190Y-12035476D01*
X17662143Y-12064048D01*
X17643095Y-12083095D01*
X17624048Y-12092619D01*
X17919286Y-12035476D02*
X17824048Y-12035476D01*
X17814524Y-12130714D01*
X17824048Y-12121190D01*
X17843095Y-12111667D01*
X17890714Y-12111667D01*
X17909762Y-12121190D01*
X17919286Y-12130714D01*
X17928810Y-12149762D01*
X17928810Y-12197381D01*
X17919286Y-12216428D01*
X17909762Y-12225952D01*
X17890714Y-12235476D01*
X17843095Y-12235476D01*
X17824048Y-12225952D01*
X17814524Y-12216428D01*
X17995476Y-12035476D02*
X18128810Y-12035476D01*
X18043095Y-12235476D01*
X18195476Y-12035476D02*
X18195476Y-12073571D01*
X18271667Y-12035476D02*
X18271667Y-12073571D01*
X18566905Y-12311667D02*
X18557381Y-12302143D01*
X18538333Y-12273571D01*
X18528810Y-12254524D01*
X18519286Y-12225952D01*
X18509762Y-12178333D01*
X18509762Y-12140238D01*
X18519286Y-12092619D01*
X18528810Y-12064048D01*
X18538333Y-12045000D01*
X18557381Y-12016428D01*
X18566905Y-12006905D01*
X18747857Y-12235476D02*
X18633571Y-12235476D01*
X18690714Y-12235476D02*
X18690714Y-12035476D01*
X18671667Y-12064048D01*
X18652619Y-12083095D01*
X18633571Y-12092619D01*
X18871667Y-12035476D02*
X18890714Y-12035476D01*
X18909762Y-12045000D01*
X18919286Y-12054524D01*
X18928810Y-12073571D01*
X18938333Y-12111667D01*
X18938333Y-12159286D01*
X18928810Y-12197381D01*
X18919286Y-12216428D01*
X18909762Y-12225952D01*
X18890714Y-12235476D01*
X18871667Y-12235476D01*
X18852619Y-12225952D01*
X18843095Y-12216428D01*
X18833571Y-12197381D01*
X18824048Y-12159286D01*
X18824048Y-12111667D01*
X18833571Y-12073571D01*
X18843095Y-12054524D01*
X18852619Y-12045000D01*
X18871667Y-12035476D01*
X19176429Y-12235476D02*
X19176429Y-12035476D01*
X19262143Y-12235476D02*
X19262143Y-12130714D01*
X19252619Y-12111667D01*
X19233571Y-12102143D01*
X19205000Y-12102143D01*
X19185952Y-12111667D01*
X19176429Y-12121190D01*
X19385952Y-12235476D02*
X19366905Y-12225952D01*
X19357381Y-12216428D01*
X19347857Y-12197381D01*
X19347857Y-12140238D01*
X19357381Y-12121190D01*
X19366905Y-12111667D01*
X19385952Y-12102143D01*
X19414524Y-12102143D01*
X19433571Y-12111667D01*
X19443095Y-12121190D01*
X19452619Y-12140238D01*
X19452619Y-12197381D01*
X19443095Y-12216428D01*
X19433571Y-12225952D01*
X19414524Y-12235476D01*
X19385952Y-12235476D01*
X19566905Y-12235476D02*
X19547857Y-12225952D01*
X19538333Y-12206905D01*
X19538333Y-12035476D01*
X19719286Y-12225952D02*
X19700238Y-12235476D01*
X19662143Y-12235476D01*
X19643095Y-12225952D01*
X19633571Y-12206905D01*
X19633571Y-12130714D01*
X19643095Y-12111667D01*
X19662143Y-12102143D01*
X19700238Y-12102143D01*
X19719286Y-12111667D01*
X19728810Y-12130714D01*
X19728810Y-12149762D01*
X19633571Y-12168809D01*
X19805000Y-12225952D02*
X19824048Y-12235476D01*
X19862143Y-12235476D01*
X19881190Y-12225952D01*
X19890714Y-12206905D01*
X19890714Y-12197381D01*
X19881190Y-12178333D01*
X19862143Y-12168809D01*
X19833571Y-12168809D01*
X19814524Y-12159286D01*
X19805000Y-12140238D01*
X19805000Y-12130714D01*
X19814524Y-12111667D01*
X19833571Y-12102143D01*
X19862143Y-12102143D01*
X19881190Y-12111667D01*
X19957381Y-12311667D02*
X19966905Y-12302143D01*
X19985952Y-12273571D01*
X19995476Y-12254524D01*
X20005000Y-12225952D01*
X20014524Y-12178333D01*
X20014524Y-12140238D01*
X20005000Y-12092619D01*
X19995476Y-12064048D01*
X19985952Y-12045000D01*
X19966905Y-12016428D01*
X19957381Y-12006905D01*
D12*
X14995000Y-12409000D02*
G75*
G03*
X14995000Y-12409000I-20000J0D01*
G01*
D11*
X15290714Y-12299476D02*
X15309762Y-12299476D01*
X15328809Y-12309000D01*
X15338333Y-12318524D01*
X15347857Y-12337571D01*
X15357381Y-12375667D01*
X15357381Y-12423286D01*
X15347857Y-12461381D01*
X15338333Y-12480428D01*
X15328809Y-12489952D01*
X15309762Y-12499476D01*
X15290714Y-12499476D01*
X15271667Y-12489952D01*
X15262143Y-12480428D01*
X15252619Y-12461381D01*
X15243095Y-12423286D01*
X15243095Y-12375667D01*
X15252619Y-12337571D01*
X15262143Y-12318524D01*
X15271667Y-12309000D01*
X15290714Y-12299476D01*
X15443095Y-12480428D02*
X15452619Y-12489952D01*
X15443095Y-12499476D01*
X15433571Y-12489952D01*
X15443095Y-12480428D01*
X15443095Y-12499476D01*
X15624048Y-12366143D02*
X15624048Y-12499476D01*
X15576428Y-12289952D02*
X15528809Y-12432809D01*
X15652619Y-12432809D01*
X15766905Y-12299476D02*
X15785952Y-12299476D01*
X15805000Y-12309000D01*
X15814524Y-12318524D01*
X15824048Y-12337571D01*
X15833571Y-12375667D01*
X15833571Y-12423286D01*
X15824048Y-12461381D01*
X15814524Y-12480428D01*
X15805000Y-12489952D01*
X15785952Y-12499476D01*
X15766905Y-12499476D01*
X15747857Y-12489952D01*
X15738333Y-12480428D01*
X15728809Y-12461381D01*
X15719286Y-12423286D01*
X15719286Y-12375667D01*
X15728809Y-12337571D01*
X15738333Y-12318524D01*
X15747857Y-12309000D01*
X15766905Y-12299476D01*
X15957381Y-12299476D02*
X15976428Y-12299476D01*
X15995476Y-12309000D01*
X16005000Y-12318524D01*
X16014524Y-12337571D01*
X16024048Y-12375667D01*
X16024048Y-12423286D01*
X16014524Y-12461381D01*
X16005000Y-12480428D01*
X15995476Y-12489952D01*
X15976428Y-12499476D01*
X15957381Y-12499476D01*
X15938333Y-12489952D01*
X15928809Y-12480428D01*
X15919286Y-12461381D01*
X15909762Y-12423286D01*
X15909762Y-12375667D01*
X15919286Y-12337571D01*
X15928809Y-12318524D01*
X15938333Y-12309000D01*
X15957381Y-12299476D01*
X16109762Y-12499476D02*
X16109762Y-12366143D01*
X16109762Y-12385190D02*
X16119286Y-12375667D01*
X16138333Y-12366143D01*
X16166905Y-12366143D01*
X16185952Y-12375667D01*
X16195476Y-12394714D01*
X16195476Y-12499476D01*
X16195476Y-12394714D02*
X16205000Y-12375667D01*
X16224048Y-12366143D01*
X16252619Y-12366143D01*
X16271667Y-12375667D01*
X16281190Y-12394714D01*
X16281190Y-12499476D01*
X16376428Y-12499476D02*
X16376428Y-12366143D01*
X16376428Y-12385190D02*
X16385952Y-12375667D01*
X16405000Y-12366143D01*
X16433571Y-12366143D01*
X16452619Y-12375667D01*
X16462143Y-12394714D01*
X16462143Y-12499476D01*
X16462143Y-12394714D02*
X16471667Y-12375667D01*
X16490714Y-12366143D01*
X16519286Y-12366143D01*
X16538333Y-12375667D01*
X16547857Y-12394714D01*
X16547857Y-12499476D01*
X16938333Y-12289952D02*
X16766905Y-12547095D01*
X17195476Y-12299476D02*
X17214524Y-12299476D01*
X17233571Y-12309000D01*
X17243095Y-12318524D01*
X17252619Y-12337571D01*
X17262143Y-12375667D01*
X17262143Y-12423286D01*
X17252619Y-12461381D01*
X17243095Y-12480428D01*
X17233571Y-12489952D01*
X17214524Y-12499476D01*
X17195476Y-12499476D01*
X17176429Y-12489952D01*
X17166905Y-12480428D01*
X17157381Y-12461381D01*
X17147857Y-12423286D01*
X17147857Y-12375667D01*
X17157381Y-12337571D01*
X17166905Y-12318524D01*
X17176429Y-12309000D01*
X17195476Y-12299476D01*
X17347857Y-12480428D02*
X17357381Y-12489952D01*
X17347857Y-12499476D01*
X17338333Y-12489952D01*
X17347857Y-12480428D01*
X17347857Y-12499476D01*
X17481190Y-12299476D02*
X17500238Y-12299476D01*
X17519286Y-12309000D01*
X17528810Y-12318524D01*
X17538333Y-12337571D01*
X17547857Y-12375667D01*
X17547857Y-12423286D01*
X17538333Y-12461381D01*
X17528810Y-12480428D01*
X17519286Y-12489952D01*
X17500238Y-12499476D01*
X17481190Y-12499476D01*
X17462143Y-12489952D01*
X17452619Y-12480428D01*
X17443095Y-12461381D01*
X17433571Y-12423286D01*
X17433571Y-12375667D01*
X17443095Y-12337571D01*
X17452619Y-12318524D01*
X17462143Y-12309000D01*
X17481190Y-12299476D01*
X17738333Y-12499476D02*
X17624048Y-12499476D01*
X17681190Y-12499476D02*
X17681190Y-12299476D01*
X17662143Y-12328048D01*
X17643095Y-12347095D01*
X17624048Y-12356619D01*
X17919286Y-12299476D02*
X17824048Y-12299476D01*
X17814524Y-12394714D01*
X17824048Y-12385190D01*
X17843095Y-12375667D01*
X17890714Y-12375667D01*
X17909762Y-12385190D01*
X17919286Y-12394714D01*
X17928810Y-12413762D01*
X17928810Y-12461381D01*
X17919286Y-12480428D01*
X17909762Y-12489952D01*
X17890714Y-12499476D01*
X17843095Y-12499476D01*
X17824048Y-12489952D01*
X17814524Y-12480428D01*
X17995476Y-12299476D02*
X18128810Y-12299476D01*
X18043095Y-12499476D01*
X18195476Y-12299476D02*
X18195476Y-12337571D01*
X18271667Y-12299476D02*
X18271667Y-12337571D01*
X18566905Y-12575667D02*
X18557381Y-12566143D01*
X18538333Y-12537571D01*
X18528810Y-12518524D01*
X18519286Y-12489952D01*
X18509762Y-12442333D01*
X18509762Y-12404238D01*
X18519286Y-12356619D01*
X18528810Y-12328048D01*
X18538333Y-12309000D01*
X18557381Y-12280428D01*
X18566905Y-12270905D01*
X18738333Y-12299476D02*
X18643095Y-12299476D01*
X18633571Y-12394714D01*
X18643095Y-12385190D01*
X18662143Y-12375667D01*
X18709762Y-12375667D01*
X18728810Y-12385190D01*
X18738333Y-12394714D01*
X18747857Y-12413762D01*
X18747857Y-12461381D01*
X18738333Y-12480428D01*
X18728810Y-12489952D01*
X18709762Y-12499476D01*
X18662143Y-12499476D01*
X18643095Y-12489952D01*
X18633571Y-12480428D01*
X18871667Y-12299476D02*
X18890714Y-12299476D01*
X18909762Y-12309000D01*
X18919286Y-12318524D01*
X18928810Y-12337571D01*
X18938333Y-12375667D01*
X18938333Y-12423286D01*
X18928810Y-12461381D01*
X18919286Y-12480428D01*
X18909762Y-12489952D01*
X18890714Y-12499476D01*
X18871667Y-12499476D01*
X18852619Y-12489952D01*
X18843095Y-12480428D01*
X18833571Y-12461381D01*
X18824048Y-12423286D01*
X18824048Y-12375667D01*
X18833571Y-12337571D01*
X18843095Y-12318524D01*
X18852619Y-12309000D01*
X18871667Y-12299476D01*
X19176429Y-12499476D02*
X19176429Y-12299476D01*
X19262143Y-12499476D02*
X19262143Y-12394714D01*
X19252619Y-12375667D01*
X19233571Y-12366143D01*
X19205000Y-12366143D01*
X19185952Y-12375667D01*
X19176429Y-12385190D01*
X19385952Y-12499476D02*
X19366905Y-12489952D01*
X19357381Y-12480428D01*
X19347857Y-12461381D01*
X19347857Y-12404238D01*
X19357381Y-12385190D01*
X19366905Y-12375667D01*
X19385952Y-12366143D01*
X19414524Y-12366143D01*
X19433571Y-12375667D01*
X19443095Y-12385190D01*
X19452619Y-12404238D01*
X19452619Y-12461381D01*
X19443095Y-12480428D01*
X19433571Y-12489952D01*
X19414524Y-12499476D01*
X19385952Y-12499476D01*
X19566905Y-12499476D02*
X19547857Y-12489952D01*
X19538333Y-12470905D01*
X19538333Y-12299476D01*
X19719286Y-12489952D02*
X19700238Y-12499476D01*
X19662143Y-12499476D01*
X19643095Y-12489952D01*
X19633571Y-12470905D01*
X19633571Y-12394714D01*
X19643095Y-12375667D01*
X19662143Y-12366143D01*
X19700238Y-12366143D01*
X19719286Y-12375667D01*
X19728810Y-12394714D01*
X19728810Y-12413762D01*
X19633571Y-12432809D01*
X19805000Y-12489952D02*
X19824048Y-12499476D01*
X19862143Y-12499476D01*
X19881190Y-12489952D01*
X19890714Y-12470905D01*
X19890714Y-12461381D01*
X19881190Y-12442333D01*
X19862143Y-12432809D01*
X19833571Y-12432809D01*
X19814524Y-12423286D01*
X19805000Y-12404238D01*
X19805000Y-12394714D01*
X19814524Y-12375667D01*
X19833571Y-12366143D01*
X19862143Y-12366143D01*
X19881190Y-12375667D01*
X19957381Y-12575667D02*
X19966905Y-12566143D01*
X19985952Y-12537571D01*
X19995476Y-12518524D01*
X20005000Y-12489952D01*
X20014524Y-12442333D01*
X20014524Y-12404238D01*
X20005000Y-12356619D01*
X19995476Y-12328048D01*
X19985952Y-12309000D01*
X19966905Y-12280428D01*
X19957381Y-12270905D01*
D13*
X14962500Y-12640500D02*
X14962500Y-12705500D01*
X14930000Y-12673000D02*
X14995000Y-12673000D01*
D11*
X15290714Y-12563476D02*
X15309762Y-12563476D01*
X15328809Y-12573000D01*
X15338333Y-12582524D01*
X15347857Y-12601571D01*
X15357381Y-12639667D01*
X15357381Y-12687286D01*
X15347857Y-12725381D01*
X15338333Y-12744428D01*
X15328809Y-12753952D01*
X15309762Y-12763476D01*
X15290714Y-12763476D01*
X15271667Y-12753952D01*
X15262143Y-12744428D01*
X15252619Y-12725381D01*
X15243095Y-12687286D01*
X15243095Y-12639667D01*
X15252619Y-12601571D01*
X15262143Y-12582524D01*
X15271667Y-12573000D01*
X15290714Y-12563476D01*
X15443095Y-12744428D02*
X15452619Y-12753952D01*
X15443095Y-12763476D01*
X15433571Y-12753952D01*
X15443095Y-12744428D01*
X15443095Y-12763476D01*
X15624048Y-12563476D02*
X15585952Y-12563476D01*
X15566905Y-12573000D01*
X15557381Y-12582524D01*
X15538333Y-12611095D01*
X15528809Y-12649190D01*
X15528809Y-12725381D01*
X15538333Y-12744428D01*
X15547857Y-12753952D01*
X15566905Y-12763476D01*
X15605000Y-12763476D01*
X15624048Y-12753952D01*
X15633571Y-12744428D01*
X15643095Y-12725381D01*
X15643095Y-12677762D01*
X15633571Y-12658714D01*
X15624048Y-12649190D01*
X15605000Y-12639667D01*
X15566905Y-12639667D01*
X15547857Y-12649190D01*
X15538333Y-12658714D01*
X15528809Y-12677762D01*
X15824048Y-12563476D02*
X15728809Y-12563476D01*
X15719286Y-12658714D01*
X15728809Y-12649190D01*
X15747857Y-12639667D01*
X15795476Y-12639667D01*
X15814524Y-12649190D01*
X15824048Y-12658714D01*
X15833571Y-12677762D01*
X15833571Y-12725381D01*
X15824048Y-12744428D01*
X15814524Y-12753952D01*
X15795476Y-12763476D01*
X15747857Y-12763476D01*
X15728809Y-12753952D01*
X15719286Y-12744428D01*
X15957381Y-12563476D02*
X15976428Y-12563476D01*
X15995476Y-12573000D01*
X16005000Y-12582524D01*
X16014524Y-12601571D01*
X16024048Y-12639667D01*
X16024048Y-12687286D01*
X16014524Y-12725381D01*
X16005000Y-12744428D01*
X15995476Y-12753952D01*
X15976428Y-12763476D01*
X15957381Y-12763476D01*
X15938333Y-12753952D01*
X15928809Y-12744428D01*
X15919286Y-12725381D01*
X15909762Y-12687286D01*
X15909762Y-12639667D01*
X15919286Y-12601571D01*
X15928809Y-12582524D01*
X15938333Y-12573000D01*
X15957381Y-12563476D01*
X16109762Y-12763476D02*
X16109762Y-12630143D01*
X16109762Y-12649190D02*
X16119286Y-12639667D01*
X16138333Y-12630143D01*
X16166905Y-12630143D01*
X16185952Y-12639667D01*
X16195476Y-12658714D01*
X16195476Y-12763476D01*
X16195476Y-12658714D02*
X16205000Y-12639667D01*
X16224048Y-12630143D01*
X16252619Y-12630143D01*
X16271667Y-12639667D01*
X16281190Y-12658714D01*
X16281190Y-12763476D01*
X16376428Y-12763476D02*
X16376428Y-12630143D01*
X16376428Y-12649190D02*
X16385952Y-12639667D01*
X16405000Y-12630143D01*
X16433571Y-12630143D01*
X16452619Y-12639667D01*
X16462143Y-12658714D01*
X16462143Y-12763476D01*
X16462143Y-12658714D02*
X16471667Y-12639667D01*
X16490714Y-12630143D01*
X16519286Y-12630143D01*
X16538333Y-12639667D01*
X16547857Y-12658714D01*
X16547857Y-12763476D01*
X16938333Y-12553952D02*
X16766905Y-12811095D01*
X17195476Y-12563476D02*
X17214524Y-12563476D01*
X17233571Y-12573000D01*
X17243095Y-12582524D01*
X17252619Y-12601571D01*
X17262143Y-12639667D01*
X17262143Y-12687286D01*
X17252619Y-12725381D01*
X17243095Y-12744428D01*
X17233571Y-12753952D01*
X17214524Y-12763476D01*
X17195476Y-12763476D01*
X17176429Y-12753952D01*
X17166905Y-12744428D01*
X17157381Y-12725381D01*
X17147857Y-12687286D01*
X17147857Y-12639667D01*
X17157381Y-12601571D01*
X17166905Y-12582524D01*
X17176429Y-12573000D01*
X17195476Y-12563476D01*
X17347857Y-12744428D02*
X17357381Y-12753952D01*
X17347857Y-12763476D01*
X17338333Y-12753952D01*
X17347857Y-12744428D01*
X17347857Y-12763476D01*
X17481190Y-12563476D02*
X17500238Y-12563476D01*
X17519286Y-12573000D01*
X17528810Y-12582524D01*
X17538333Y-12601571D01*
X17547857Y-12639667D01*
X17547857Y-12687286D01*
X17538333Y-12725381D01*
X17528810Y-12744428D01*
X17519286Y-12753952D01*
X17500238Y-12763476D01*
X17481190Y-12763476D01*
X17462143Y-12753952D01*
X17452619Y-12744428D01*
X17443095Y-12725381D01*
X17433571Y-12687286D01*
X17433571Y-12639667D01*
X17443095Y-12601571D01*
X17452619Y-12582524D01*
X17462143Y-12573000D01*
X17481190Y-12563476D01*
X17624048Y-12582524D02*
X17633571Y-12573000D01*
X17652619Y-12563476D01*
X17700238Y-12563476D01*
X17719286Y-12573000D01*
X17728810Y-12582524D01*
X17738333Y-12601571D01*
X17738333Y-12620619D01*
X17728810Y-12649190D01*
X17614524Y-12763476D01*
X17738333Y-12763476D01*
X17919286Y-12563476D02*
X17824048Y-12563476D01*
X17814524Y-12658714D01*
X17824048Y-12649190D01*
X17843095Y-12639667D01*
X17890714Y-12639667D01*
X17909762Y-12649190D01*
X17919286Y-12658714D01*
X17928810Y-12677762D01*
X17928810Y-12725381D01*
X17919286Y-12744428D01*
X17909762Y-12753952D01*
X17890714Y-12763476D01*
X17843095Y-12763476D01*
X17824048Y-12753952D01*
X17814524Y-12744428D01*
X18100238Y-12563476D02*
X18062143Y-12563476D01*
X18043095Y-12573000D01*
X18033571Y-12582524D01*
X18014524Y-12611095D01*
X18005000Y-12649190D01*
X18005000Y-12725381D01*
X18014524Y-12744428D01*
X18024048Y-12753952D01*
X18043095Y-12763476D01*
X18081190Y-12763476D01*
X18100238Y-12753952D01*
X18109762Y-12744428D01*
X18119286Y-12725381D01*
X18119286Y-12677762D01*
X18109762Y-12658714D01*
X18100238Y-12649190D01*
X18081190Y-12639667D01*
X18043095Y-12639667D01*
X18024048Y-12649190D01*
X18014524Y-12658714D01*
X18005000Y-12677762D01*
X18195476Y-12563476D02*
X18195476Y-12601571D01*
X18271667Y-12563476D02*
X18271667Y-12601571D01*
X18566905Y-12839667D02*
X18557381Y-12830143D01*
X18538333Y-12801571D01*
X18528810Y-12782524D01*
X18519286Y-12753952D01*
X18509762Y-12706333D01*
X18509762Y-12668238D01*
X18519286Y-12620619D01*
X18528810Y-12592048D01*
X18538333Y-12573000D01*
X18557381Y-12544428D01*
X18566905Y-12534905D01*
X18633571Y-12582524D02*
X18643095Y-12573000D01*
X18662143Y-12563476D01*
X18709762Y-12563476D01*
X18728810Y-12573000D01*
X18738333Y-12582524D01*
X18747857Y-12601571D01*
X18747857Y-12620619D01*
X18738333Y-12649190D01*
X18624048Y-12763476D01*
X18747857Y-12763476D01*
X18985952Y-12763476D02*
X18985952Y-12563476D01*
X19071667Y-12763476D02*
X19071667Y-12658714D01*
X19062143Y-12639667D01*
X19043095Y-12630143D01*
X19014524Y-12630143D01*
X18995476Y-12639667D01*
X18985952Y-12649190D01*
X19195476Y-12763476D02*
X19176429Y-12753952D01*
X19166905Y-12744428D01*
X19157381Y-12725381D01*
X19157381Y-12668238D01*
X19166905Y-12649190D01*
X19176429Y-12639667D01*
X19195476Y-12630143D01*
X19224048Y-12630143D01*
X19243095Y-12639667D01*
X19252619Y-12649190D01*
X19262143Y-12668238D01*
X19262143Y-12725381D01*
X19252619Y-12744428D01*
X19243095Y-12753952D01*
X19224048Y-12763476D01*
X19195476Y-12763476D01*
X19376429Y-12763476D02*
X19357381Y-12753952D01*
X19347857Y-12734905D01*
X19347857Y-12563476D01*
X19528810Y-12753952D02*
X19509762Y-12763476D01*
X19471667Y-12763476D01*
X19452619Y-12753952D01*
X19443095Y-12734905D01*
X19443095Y-12658714D01*
X19452619Y-12639667D01*
X19471667Y-12630143D01*
X19509762Y-12630143D01*
X19528810Y-12639667D01*
X19538333Y-12658714D01*
X19538333Y-12677762D01*
X19443095Y-12696809D01*
X19614524Y-12753952D02*
X19633571Y-12763476D01*
X19671667Y-12763476D01*
X19690714Y-12753952D01*
X19700238Y-12734905D01*
X19700238Y-12725381D01*
X19690714Y-12706333D01*
X19671667Y-12696809D01*
X19643095Y-12696809D01*
X19624048Y-12687286D01*
X19614524Y-12668238D01*
X19614524Y-12658714D01*
X19624048Y-12639667D01*
X19643095Y-12630143D01*
X19671667Y-12630143D01*
X19690714Y-12639667D01*
X19766905Y-12839667D02*
X19776429Y-12830143D01*
X19795476Y-12801571D01*
X19805000Y-12782524D01*
X19814524Y-12753952D01*
X19824048Y-12706333D01*
X19824048Y-12668238D01*
X19814524Y-12620619D01*
X19805000Y-12592048D01*
X19795476Y-12573000D01*
X19776429Y-12544428D01*
X19766905Y-12534905D01*
X14965711Y-13007711D02*
X14965711Y-12866289D01*
X14824289Y-12866289D01*
X14824289Y-13007711D01*
X14965711Y-13007711D01*
X15243095Y-12846524D02*
X15252619Y-12837000D01*
X15271667Y-12827476D01*
X15319286Y-12827476D01*
X15338333Y-12837000D01*
X15347857Y-12846524D01*
X15357381Y-12865571D01*
X15357381Y-12884619D01*
X15347857Y-12913190D01*
X15233571Y-13027476D01*
X15357381Y-13027476D01*
X15443095Y-13008428D02*
X15452619Y-13017952D01*
X15443095Y-13027476D01*
X15433571Y-13017952D01*
X15443095Y-13008428D01*
X15443095Y-13027476D01*
X15576428Y-12827476D02*
X15595476Y-12827476D01*
X15614524Y-12837000D01*
X15624048Y-12846524D01*
X15633571Y-12865571D01*
X15643095Y-12903667D01*
X15643095Y-12951286D01*
X15633571Y-12989381D01*
X15624048Y-13008428D01*
X15614524Y-13017952D01*
X15595476Y-13027476D01*
X15576428Y-13027476D01*
X15557381Y-13017952D01*
X15547857Y-13008428D01*
X15538333Y-12989381D01*
X15528809Y-12951286D01*
X15528809Y-12903667D01*
X15538333Y-12865571D01*
X15547857Y-12846524D01*
X15557381Y-12837000D01*
X15576428Y-12827476D01*
X15766905Y-12827476D02*
X15785952Y-12827476D01*
X15805000Y-12837000D01*
X15814524Y-12846524D01*
X15824048Y-12865571D01*
X15833571Y-12903667D01*
X15833571Y-12951286D01*
X15824048Y-12989381D01*
X15814524Y-13008428D01*
X15805000Y-13017952D01*
X15785952Y-13027476D01*
X15766905Y-13027476D01*
X15747857Y-13017952D01*
X15738333Y-13008428D01*
X15728809Y-12989381D01*
X15719286Y-12951286D01*
X15719286Y-12903667D01*
X15728809Y-12865571D01*
X15738333Y-12846524D01*
X15747857Y-12837000D01*
X15766905Y-12827476D01*
X15957381Y-12827476D02*
X15976428Y-12827476D01*
X15995476Y-12837000D01*
X16005000Y-12846524D01*
X16014524Y-12865571D01*
X16024048Y-12903667D01*
X16024048Y-12951286D01*
X16014524Y-12989381D01*
X16005000Y-13008428D01*
X15995476Y-13017952D01*
X15976428Y-13027476D01*
X15957381Y-13027476D01*
X15938333Y-13017952D01*
X15928809Y-13008428D01*
X15919286Y-12989381D01*
X15909762Y-12951286D01*
X15909762Y-12903667D01*
X15919286Y-12865571D01*
X15928809Y-12846524D01*
X15938333Y-12837000D01*
X15957381Y-12827476D01*
X16109762Y-13027476D02*
X16109762Y-12894143D01*
X16109762Y-12913190D02*
X16119286Y-12903667D01*
X16138333Y-12894143D01*
X16166905Y-12894143D01*
X16185952Y-12903667D01*
X16195476Y-12922714D01*
X16195476Y-13027476D01*
X16195476Y-12922714D02*
X16205000Y-12903667D01*
X16224048Y-12894143D01*
X16252619Y-12894143D01*
X16271667Y-12903667D01*
X16281190Y-12922714D01*
X16281190Y-13027476D01*
X16376428Y-13027476D02*
X16376428Y-12894143D01*
X16376428Y-12913190D02*
X16385952Y-12903667D01*
X16405000Y-12894143D01*
X16433571Y-12894143D01*
X16452619Y-12903667D01*
X16462143Y-12922714D01*
X16462143Y-13027476D01*
X16462143Y-12922714D02*
X16471667Y-12903667D01*
X16490714Y-12894143D01*
X16519286Y-12894143D01*
X16538333Y-12903667D01*
X16547857Y-12922714D01*
X16547857Y-13027476D01*
X16938333Y-12817952D02*
X16766905Y-13075095D01*
X17195476Y-12827476D02*
X17214524Y-12827476D01*
X17233571Y-12837000D01*
X17243095Y-12846524D01*
X17252619Y-12865571D01*
X17262143Y-12903667D01*
X17262143Y-12951286D01*
X17252619Y-12989381D01*
X17243095Y-13008428D01*
X17233571Y-13017952D01*
X17214524Y-13027476D01*
X17195476Y-13027476D01*
X17176429Y-13017952D01*
X17166905Y-13008428D01*
X17157381Y-12989381D01*
X17147857Y-12951286D01*
X17147857Y-12903667D01*
X17157381Y-12865571D01*
X17166905Y-12846524D01*
X17176429Y-12837000D01*
X17195476Y-12827476D01*
X17347857Y-13008428D02*
X17357381Y-13017952D01*
X17347857Y-13027476D01*
X17338333Y-13017952D01*
X17347857Y-13008428D01*
X17347857Y-13027476D01*
X17481190Y-12827476D02*
X17500238Y-12827476D01*
X17519286Y-12837000D01*
X17528810Y-12846524D01*
X17538333Y-12865571D01*
X17547857Y-12903667D01*
X17547857Y-12951286D01*
X17538333Y-12989381D01*
X17528810Y-13008428D01*
X17519286Y-13017952D01*
X17500238Y-13027476D01*
X17481190Y-13027476D01*
X17462143Y-13017952D01*
X17452619Y-13008428D01*
X17443095Y-12989381D01*
X17433571Y-12951286D01*
X17433571Y-12903667D01*
X17443095Y-12865571D01*
X17452619Y-12846524D01*
X17462143Y-12837000D01*
X17481190Y-12827476D01*
X17614524Y-12827476D02*
X17747857Y-12827476D01*
X17662143Y-13027476D01*
X17852619Y-12913190D02*
X17833571Y-12903667D01*
X17824048Y-12894143D01*
X17814524Y-12875095D01*
X17814524Y-12865571D01*
X17824048Y-12846524D01*
X17833571Y-12837000D01*
X17852619Y-12827476D01*
X17890714Y-12827476D01*
X17909762Y-12837000D01*
X17919286Y-12846524D01*
X17928810Y-12865571D01*
X17928810Y-12875095D01*
X17919286Y-12894143D01*
X17909762Y-12903667D01*
X17890714Y-12913190D01*
X17852619Y-12913190D01*
X17833571Y-12922714D01*
X17824048Y-12932238D01*
X17814524Y-12951286D01*
X17814524Y-12989381D01*
X17824048Y-13008428D01*
X17833571Y-13017952D01*
X17852619Y-13027476D01*
X17890714Y-13027476D01*
X17909762Y-13017952D01*
X17919286Y-13008428D01*
X17928810Y-12989381D01*
X17928810Y-12951286D01*
X17919286Y-12932238D01*
X17909762Y-12922714D01*
X17890714Y-12913190D01*
X17995476Y-12827476D02*
X18128810Y-12827476D01*
X18043095Y-13027476D01*
X18195476Y-12827476D02*
X18195476Y-12865571D01*
X18271667Y-12827476D02*
X18271667Y-12865571D01*
X18566905Y-13103667D02*
X18557381Y-13094143D01*
X18538333Y-13065571D01*
X18528810Y-13046524D01*
X18519286Y-13017952D01*
X18509762Y-12970333D01*
X18509762Y-12932238D01*
X18519286Y-12884619D01*
X18528810Y-12856048D01*
X18538333Y-12837000D01*
X18557381Y-12808428D01*
X18566905Y-12798905D01*
X18671667Y-12913190D02*
X18652619Y-12903667D01*
X18643095Y-12894143D01*
X18633571Y-12875095D01*
X18633571Y-12865571D01*
X18643095Y-12846524D01*
X18652619Y-12837000D01*
X18671667Y-12827476D01*
X18709762Y-12827476D01*
X18728810Y-12837000D01*
X18738333Y-12846524D01*
X18747857Y-12865571D01*
X18747857Y-12875095D01*
X18738333Y-12894143D01*
X18728810Y-12903667D01*
X18709762Y-12913190D01*
X18671667Y-12913190D01*
X18652619Y-12922714D01*
X18643095Y-12932238D01*
X18633571Y-12951286D01*
X18633571Y-12989381D01*
X18643095Y-13008428D01*
X18652619Y-13017952D01*
X18671667Y-13027476D01*
X18709762Y-13027476D01*
X18728810Y-13017952D01*
X18738333Y-13008428D01*
X18747857Y-12989381D01*
X18747857Y-12951286D01*
X18738333Y-12932238D01*
X18728810Y-12922714D01*
X18709762Y-12913190D01*
X18985952Y-13027476D02*
X18985952Y-12827476D01*
X19071667Y-13027476D02*
X19071667Y-12922714D01*
X19062143Y-12903667D01*
X19043095Y-12894143D01*
X19014524Y-12894143D01*
X18995476Y-12903667D01*
X18985952Y-12913190D01*
X19195476Y-13027476D02*
X19176429Y-13017952D01*
X19166905Y-13008428D01*
X19157381Y-12989381D01*
X19157381Y-12932238D01*
X19166905Y-12913190D01*
X19176429Y-12903667D01*
X19195476Y-12894143D01*
X19224048Y-12894143D01*
X19243095Y-12903667D01*
X19252619Y-12913190D01*
X19262143Y-12932238D01*
X19262143Y-12989381D01*
X19252619Y-13008428D01*
X19243095Y-13017952D01*
X19224048Y-13027476D01*
X19195476Y-13027476D01*
X19376429Y-13027476D02*
X19357381Y-13017952D01*
X19347857Y-12998905D01*
X19347857Y-12827476D01*
X19528810Y-13017952D02*
X19509762Y-13027476D01*
X19471667Y-13027476D01*
X19452619Y-13017952D01*
X19443095Y-12998905D01*
X19443095Y-12922714D01*
X19452619Y-12903667D01*
X19471667Y-12894143D01*
X19509762Y-12894143D01*
X19528810Y-12903667D01*
X19538333Y-12922714D01*
X19538333Y-12941762D01*
X19443095Y-12960809D01*
X19614524Y-13017952D02*
X19633571Y-13027476D01*
X19671667Y-13027476D01*
X19690714Y-13017952D01*
X19700238Y-12998905D01*
X19700238Y-12989381D01*
X19690714Y-12970333D01*
X19671667Y-12960809D01*
X19643095Y-12960809D01*
X19624048Y-12951286D01*
X19614524Y-12932238D01*
X19614524Y-12922714D01*
X19624048Y-12903667D01*
X19643095Y-12894143D01*
X19671667Y-12894143D01*
X19690714Y-12903667D01*
X19766905Y-13103667D02*
X19776429Y-13094143D01*
X19795476Y-13065571D01*
X19805000Y-13046524D01*
X19814524Y-13017952D01*
X19824048Y-12970333D01*
X19824048Y-12932238D01*
X19814524Y-12884619D01*
X19805000Y-12856048D01*
X19795476Y-12837000D01*
X19776429Y-12808428D01*
X19766905Y-12798905D01*
M02*
