%FSLAX45Y45*%
G04 Gerber Fmt 4.5, Leading zero omitted, Abs format (unit mm)*
G04 Created by KiCad (PCBNEW 6.0.1-79c1e3a40b~116~ubuntu20.04.1) date 2022-01-29 12:22:15*
%MOMM*%
%LPD*%
G01*
G04 APERTURE LIST*
%TA.AperFunction,Profile*%
%ADD10C,0.100000*%
%TD*%
%ADD11C,0.200000*%
G04 APERTURE END LIST*
D10*
X13500000Y-9800000D02*
G75*
G03*
X13500000Y-10200000I0J-200000D01*
G01*
X14200000Y-10000000D02*
X15300000Y-10000000D01*
X13800000Y-10500000D02*
G75*
G03*
X14200000Y-10500000I200000J0D01*
G01*
X14200000Y-10500000D02*
X15300000Y-10500000D01*
X15700000Y-10000000D02*
G75*
G03*
X15300000Y-10000000I-200000J0D01*
G01*
X14200000Y-10000000D02*
G75*
G03*
X14000000Y-9800000I-200000J0D01*
G01*
X13500000Y-8300000D02*
G75*
G03*
X13500000Y-8700000I0J-200000D01*
G01*
X15700000Y-10000000D02*
X15700000Y-10500000D01*
X13800000Y-10500000D02*
G75*
G03*
X13500000Y-10200000I-300000J0D01*
G01*
X13500000Y-8300000D02*
X14000000Y-8300000D01*
X13500000Y-8700000D02*
X13500000Y-9800000D01*
X15300000Y-10500000D02*
G75*
G03*
X15700000Y-10500000I200000J0D01*
G01*
X14000000Y-8700000D02*
X14000000Y-9800000D01*
X14000000Y-8700000D02*
G75*
G03*
X14000000Y-8300000I0J200000D01*
G01*
D11*
X13552619Y-11015476D02*
X13552619Y-10815476D01*
X13600238Y-10815476D01*
X13628809Y-10825000D01*
X13647857Y-10844048D01*
X13657381Y-10863095D01*
X13666905Y-10901190D01*
X13666905Y-10929762D01*
X13657381Y-10967857D01*
X13647857Y-10986905D01*
X13628809Y-11005952D01*
X13600238Y-11015476D01*
X13552619Y-11015476D01*
X13752619Y-11015476D02*
X13752619Y-10882143D01*
X13752619Y-10920238D02*
X13762143Y-10901190D01*
X13771667Y-10891667D01*
X13790714Y-10882143D01*
X13809762Y-10882143D01*
X13876428Y-11015476D02*
X13876428Y-10882143D01*
X13876428Y-10815476D02*
X13866905Y-10825000D01*
X13876428Y-10834524D01*
X13885952Y-10825000D01*
X13876428Y-10815476D01*
X13876428Y-10834524D01*
X14000238Y-11015476D02*
X13981190Y-11005952D01*
X13971667Y-10986905D01*
X13971667Y-10815476D01*
X14105000Y-11015476D02*
X14085952Y-11005952D01*
X14076428Y-10986905D01*
X14076428Y-10815476D01*
X14333571Y-11015476D02*
X14333571Y-10815476D01*
X14400238Y-10958333D01*
X14466905Y-10815476D01*
X14466905Y-11015476D01*
X14647857Y-11015476D02*
X14647857Y-10910714D01*
X14638333Y-10891667D01*
X14619286Y-10882143D01*
X14581190Y-10882143D01*
X14562143Y-10891667D01*
X14647857Y-11005952D02*
X14628809Y-11015476D01*
X14581190Y-11015476D01*
X14562143Y-11005952D01*
X14552619Y-10986905D01*
X14552619Y-10967857D01*
X14562143Y-10948810D01*
X14581190Y-10939286D01*
X14628809Y-10939286D01*
X14647857Y-10929762D01*
X14743095Y-10882143D02*
X14743095Y-11082143D01*
X14743095Y-10891667D02*
X14762143Y-10882143D01*
X14800238Y-10882143D01*
X14819286Y-10891667D01*
X14828809Y-10901190D01*
X14838333Y-10920238D01*
X14838333Y-10977381D01*
X14828809Y-10996429D01*
X14819286Y-11005952D01*
X14800238Y-11015476D01*
X14762143Y-11015476D01*
X14743095Y-11005952D01*
X14924048Y-10996429D02*
X14933571Y-11005952D01*
X14924048Y-11015476D01*
X14914524Y-11005952D01*
X14924048Y-10996429D01*
X14924048Y-11015476D01*
X14924048Y-10891667D02*
X14933571Y-10901190D01*
X14924048Y-10910714D01*
X14914524Y-10901190D01*
X14924048Y-10891667D01*
X14924048Y-10910714D01*
M02*
