%TF.GenerationSoftware,KiCad,Pcbnew,6.0.1-79c1e3a40b~116~ubuntu20.04.1*%
%TF.CreationDate,2022-01-29T12:22:12+01:00*%
%TF.ProjectId,pcb-connector-x2,7063622d-636f-46e6-9e65-63746f722d78,1*%
%TF.SameCoordinates,Original*%
%TF.FileFunction,Legend,Bot*%
%TF.FilePolarity,Positive*%
%FSLAX46Y46*%
G04 Gerber Fmt 4.6, Leading zero omitted, Abs format (unit mm)*
G04 Created by KiCad (PCBNEW 6.0.1-79c1e3a40b~116~ubuntu20.04.1) date 2022-01-29 12:22:12*
%MOMM*%
%LPD*%
G01*
G04 APERTURE LIST*
%ADD10C,0.150000*%
G04 APERTURE END LIST*
D10*
X138500000Y-87452380D02*
X138404761Y-87452380D01*
X138309523Y-87500000D01*
X138261904Y-87547619D01*
X138214285Y-87642857D01*
X138166666Y-87833333D01*
X138166666Y-88071428D01*
X138214285Y-88261904D01*
X138261904Y-88357142D01*
X138309523Y-88404761D01*
X138404761Y-88452380D01*
X138500000Y-88452380D01*
X138595238Y-88404761D01*
X138642857Y-88357142D01*
X138690476Y-88261904D01*
X138738095Y-88071428D01*
X138738095Y-87833333D01*
X138690476Y-87642857D01*
X138642857Y-87547619D01*
X138595238Y-87500000D01*
X138500000Y-87452380D01*
X137547619Y-87452380D02*
X137452380Y-87452380D01*
X137357142Y-87500000D01*
X137309523Y-87547619D01*
X137261904Y-87642857D01*
X137214285Y-87833333D01*
X137214285Y-88071428D01*
X137261904Y-88261904D01*
X137309523Y-88357142D01*
X137357142Y-88404761D01*
X137452380Y-88452380D01*
X137547619Y-88452380D01*
X137642857Y-88404761D01*
X137690476Y-88357142D01*
X137738095Y-88261904D01*
X137785714Y-88071428D01*
X137785714Y-87833333D01*
X137738095Y-87642857D01*
X137690476Y-87547619D01*
X137642857Y-87500000D01*
X137547619Y-87452380D01*
X136309523Y-87452380D02*
X136785714Y-87452380D01*
X136833333Y-87928571D01*
X136785714Y-87880952D01*
X136690476Y-87833333D01*
X136452380Y-87833333D01*
X136357142Y-87880952D01*
X136309523Y-87928571D01*
X136261904Y-88023809D01*
X136261904Y-88261904D01*
X136309523Y-88357142D01*
X136357142Y-88404761D01*
X136452380Y-88452380D01*
X136690476Y-88452380D01*
X136785714Y-88404761D01*
X136833333Y-88357142D01*
M02*
