%TF.GenerationSoftware,KiCad,Pcbnew,6.0.1-79c1e3a40b~116~ubuntu20.04.1*%
%TF.CreationDate,2022-01-28T23:27:19+01:00*%
%TF.ProjectId,pcb-connector-x2,7063622d-636f-46e6-9e65-63746f722d78,1*%
%TF.SameCoordinates,Original*%
%TF.FileFunction,Soldermask,Bot*%
%TF.FilePolarity,Negative*%
%FSLAX46Y46*%
G04 Gerber Fmt 4.6, Leading zero omitted, Abs format (unit mm)*
G04 Created by KiCad (PCBNEW 6.0.1-79c1e3a40b~116~ubuntu20.04.1) date 2022-01-28 23:27:19*
%MOMM*%
%LPD*%
G01*
G04 APERTURE LIST*
%ADD10C,3.400000*%
G04 APERTURE END LIST*
D10*
%TO.C,H2*%
X140000000Y-105000000D03*
%TD*%
%TO.C,H7*%
X140000000Y-85000000D03*
%TD*%
%TO.C,H1*%
X155000000Y-100000000D03*
%TD*%
%TO.C,H3*%
X140000000Y-100000000D03*
%TD*%
%TO.C,H6*%
X135000000Y-85000000D03*
%TD*%
%TO.C,H5*%
X155000000Y-105000000D03*
%TD*%
%TO.C,H4*%
X135000000Y-100000000D03*
%TD*%
G36*
X140004487Y-83000321D02*
G01*
X140275645Y-83019714D01*
X140293440Y-83022273D01*
X140554654Y-83079097D01*
X140571903Y-83084161D01*
X140822386Y-83177586D01*
X140838740Y-83185055D01*
X141073375Y-83313176D01*
X141088498Y-83322895D01*
X141302510Y-83483103D01*
X141316096Y-83494876D01*
X141505124Y-83683904D01*
X141516897Y-83697490D01*
X141677105Y-83911502D01*
X141686824Y-83926625D01*
X141814945Y-84161260D01*
X141822414Y-84177614D01*
X141915839Y-84428097D01*
X141920903Y-84445346D01*
X141977727Y-84706560D01*
X141980286Y-84724355D01*
X141999357Y-84991012D01*
X141999357Y-85008988D01*
X141980286Y-85275645D01*
X141977727Y-85293440D01*
X141920903Y-85554654D01*
X141915839Y-85571903D01*
X141822414Y-85822386D01*
X141814945Y-85838740D01*
X141686824Y-86073375D01*
X141677105Y-86088498D01*
X141516897Y-86302510D01*
X141505124Y-86316096D01*
X141316096Y-86505124D01*
X141302510Y-86516897D01*
X141088498Y-86677105D01*
X141073375Y-86686824D01*
X140838740Y-86814945D01*
X140822386Y-86822414D01*
X140571903Y-86915839D01*
X140554654Y-86920903D01*
X140293440Y-86977727D01*
X140275645Y-86980286D01*
X140018068Y-86998708D01*
X140003187Y-87004258D01*
X140000656Y-87007640D01*
X140000000Y-87011274D01*
X140000000Y-87128000D01*
X139979998Y-87196121D01*
X139926342Y-87242614D01*
X139874000Y-87254000D01*
X139126000Y-87254000D01*
X139057879Y-87233998D01*
X139011386Y-87180342D01*
X139000000Y-87128000D01*
X139000000Y-87018115D01*
X138995525Y-87002876D01*
X138994135Y-87001671D01*
X138986452Y-87000000D01*
X136018115Y-87000000D01*
X136002876Y-87004475D01*
X136001671Y-87005865D01*
X136000000Y-87013548D01*
X136000000Y-87128000D01*
X135979998Y-87196121D01*
X135926342Y-87242614D01*
X135874000Y-87254000D01*
X135126000Y-87254000D01*
X135057879Y-87233998D01*
X135011386Y-87180342D01*
X135000000Y-87128000D01*
X135000000Y-87018115D01*
X134995525Y-87002876D01*
X134992331Y-87000108D01*
X134988755Y-86999196D01*
X134724355Y-86980286D01*
X134706560Y-86977727D01*
X134445346Y-86920903D01*
X134428097Y-86915839D01*
X134177614Y-86822414D01*
X134161260Y-86814945D01*
X133926625Y-86686824D01*
X133911502Y-86677105D01*
X133697490Y-86516897D01*
X133683904Y-86505124D01*
X133494876Y-86316096D01*
X133483103Y-86302510D01*
X133322895Y-86088498D01*
X133313176Y-86073375D01*
X133185055Y-85838740D01*
X133177586Y-85822386D01*
X133084161Y-85571903D01*
X133079097Y-85554654D01*
X133022273Y-85293440D01*
X133019714Y-85275645D01*
X133000643Y-85008988D01*
X133000643Y-84991012D01*
X133019714Y-84724355D01*
X133022273Y-84706560D01*
X133079097Y-84445346D01*
X133084161Y-84428097D01*
X133177586Y-84177614D01*
X133185055Y-84161260D01*
X133313176Y-83926625D01*
X133322895Y-83911502D01*
X133483103Y-83697490D01*
X133494876Y-83683904D01*
X133683904Y-83494876D01*
X133697490Y-83483103D01*
X133911502Y-83322895D01*
X133926625Y-83313176D01*
X134161260Y-83185055D01*
X134177614Y-83177586D01*
X134428097Y-83084161D01*
X134445346Y-83079097D01*
X134706560Y-83022273D01*
X134724355Y-83019714D01*
X134995513Y-83000321D01*
X135004501Y-83000000D01*
X139995499Y-83000000D01*
X140004487Y-83000321D01*
G37*
G36*
X135942121Y-88766002D02*
G01*
X135988614Y-88819658D01*
X136000000Y-88872000D01*
X136000000Y-88981885D01*
X136004475Y-88997124D01*
X136005865Y-88998329D01*
X136013548Y-89000000D01*
X139874000Y-89000000D01*
X139942121Y-89020002D01*
X139988614Y-89073658D01*
X140000000Y-89126000D01*
X140000000Y-97981885D01*
X140004475Y-97997124D01*
X140007669Y-97999892D01*
X140011245Y-98000804D01*
X140275645Y-98019714D01*
X140293440Y-98022273D01*
X140554654Y-98079097D01*
X140571903Y-98084161D01*
X140822386Y-98177586D01*
X140838740Y-98185055D01*
X141073375Y-98313176D01*
X141088498Y-98322895D01*
X141302511Y-98483103D01*
X141316097Y-98494876D01*
X141505124Y-98683903D01*
X141516897Y-98697489D01*
X141677105Y-98911502D01*
X141686824Y-98926625D01*
X141814945Y-99161260D01*
X141822414Y-99177614D01*
X141915839Y-99428097D01*
X141920903Y-99445346D01*
X141977727Y-99706560D01*
X141980286Y-99724355D01*
X141998708Y-99981932D01*
X142004258Y-99996813D01*
X142007640Y-99999344D01*
X142011274Y-100000000D01*
X152981885Y-100000000D01*
X152997124Y-99995525D01*
X152999892Y-99992331D01*
X153000804Y-99988755D01*
X153019714Y-99724355D01*
X153022273Y-99706560D01*
X153079097Y-99445346D01*
X153084161Y-99428097D01*
X153177586Y-99177614D01*
X153185055Y-99161260D01*
X153313176Y-98926625D01*
X153322895Y-98911502D01*
X153483103Y-98697490D01*
X153494876Y-98683904D01*
X153683904Y-98494876D01*
X153697490Y-98483103D01*
X153911502Y-98322895D01*
X153926625Y-98313176D01*
X154161260Y-98185055D01*
X154177614Y-98177586D01*
X154428097Y-98084161D01*
X154445346Y-98079097D01*
X154706560Y-98022273D01*
X154724355Y-98019714D01*
X154991012Y-98000643D01*
X155008988Y-98000643D01*
X155275645Y-98019714D01*
X155293440Y-98022273D01*
X155554654Y-98079097D01*
X155571903Y-98084161D01*
X155822386Y-98177586D01*
X155838740Y-98185055D01*
X156073375Y-98313176D01*
X156088498Y-98322895D01*
X156302510Y-98483103D01*
X156316096Y-98494876D01*
X156505124Y-98683904D01*
X156516897Y-98697490D01*
X156677105Y-98911502D01*
X156686824Y-98926625D01*
X156814945Y-99161260D01*
X156822414Y-99177614D01*
X156915839Y-99428097D01*
X156920903Y-99445346D01*
X156977727Y-99706560D01*
X156980286Y-99724355D01*
X156999679Y-99995513D01*
X157000000Y-100004501D01*
X157000000Y-104995499D01*
X156999679Y-105004487D01*
X156980286Y-105275645D01*
X156977727Y-105293440D01*
X156920903Y-105554654D01*
X156915839Y-105571903D01*
X156822414Y-105822386D01*
X156814945Y-105838740D01*
X156686824Y-106073375D01*
X156677105Y-106088498D01*
X156516897Y-106302510D01*
X156505124Y-106316096D01*
X156316096Y-106505124D01*
X156302510Y-106516897D01*
X156088498Y-106677105D01*
X156073375Y-106686824D01*
X155838740Y-106814945D01*
X155822386Y-106822414D01*
X155571903Y-106915839D01*
X155554654Y-106920903D01*
X155293440Y-106977727D01*
X155275645Y-106980286D01*
X155008988Y-106999357D01*
X154991012Y-106999357D01*
X154724355Y-106980286D01*
X154706560Y-106977727D01*
X154445346Y-106920903D01*
X154428097Y-106915839D01*
X154177614Y-106822414D01*
X154161260Y-106814945D01*
X153926625Y-106686824D01*
X153911502Y-106677105D01*
X153697490Y-106516897D01*
X153683904Y-106505124D01*
X153494876Y-106316096D01*
X153483103Y-106302510D01*
X153322895Y-106088498D01*
X153313176Y-106073375D01*
X153185055Y-105838740D01*
X153177586Y-105822386D01*
X153084161Y-105571903D01*
X153079097Y-105554654D01*
X153022273Y-105293440D01*
X153019714Y-105275645D01*
X153001292Y-105018068D01*
X152995742Y-105003187D01*
X152992360Y-105000656D01*
X152988726Y-105000000D01*
X142018115Y-105000000D01*
X142002876Y-105004475D01*
X142000108Y-105007669D01*
X141999196Y-105011245D01*
X141980286Y-105275645D01*
X141977727Y-105293440D01*
X141920903Y-105554654D01*
X141915839Y-105571903D01*
X141822414Y-105822386D01*
X141814945Y-105838740D01*
X141686824Y-106073375D01*
X141677105Y-106088498D01*
X141516897Y-106302510D01*
X141505124Y-106316096D01*
X141316096Y-106505124D01*
X141302510Y-106516897D01*
X141088498Y-106677105D01*
X141073375Y-106686824D01*
X140838740Y-106814945D01*
X140822386Y-106822414D01*
X140571903Y-106915839D01*
X140554654Y-106920903D01*
X140293440Y-106977727D01*
X140275645Y-106980286D01*
X140008988Y-106999357D01*
X139991012Y-106999357D01*
X139724355Y-106980286D01*
X139706560Y-106977727D01*
X139445346Y-106920903D01*
X139428097Y-106915839D01*
X139177614Y-106822414D01*
X139161260Y-106814945D01*
X138926625Y-106686824D01*
X138911502Y-106677105D01*
X138697490Y-106516897D01*
X138683904Y-106505124D01*
X138494876Y-106316096D01*
X138483103Y-106302510D01*
X138322895Y-106088498D01*
X138313176Y-106073375D01*
X138185055Y-105838740D01*
X138177586Y-105822386D01*
X138084161Y-105571903D01*
X138079097Y-105554654D01*
X138022273Y-105293440D01*
X138019714Y-105275645D01*
X138000070Y-105000972D01*
X137999947Y-104999049D01*
X137981335Y-104667636D01*
X137980545Y-104660623D01*
X137925375Y-104335916D01*
X137923807Y-104329047D01*
X137832629Y-104012561D01*
X137830296Y-104005895D01*
X137704260Y-103701617D01*
X137701195Y-103695253D01*
X137541879Y-103406993D01*
X137538132Y-103401029D01*
X137347529Y-103132399D01*
X137343149Y-103126907D01*
X137123665Y-102881304D01*
X137118696Y-102876335D01*
X136873093Y-102656851D01*
X136867601Y-102652471D01*
X136598971Y-102461868D01*
X136593007Y-102458121D01*
X136304747Y-102298805D01*
X136298383Y-102295740D01*
X135994105Y-102169704D01*
X135987439Y-102167371D01*
X135670953Y-102076193D01*
X135664084Y-102074625D01*
X135339377Y-102019455D01*
X135332364Y-102018665D01*
X135000951Y-102000053D01*
X134999028Y-101999930D01*
X134724355Y-101980286D01*
X134706560Y-101977727D01*
X134445346Y-101920903D01*
X134428097Y-101915839D01*
X134177614Y-101822414D01*
X134161260Y-101814945D01*
X133926625Y-101686824D01*
X133911502Y-101677105D01*
X133697490Y-101516897D01*
X133683904Y-101505124D01*
X133494876Y-101316096D01*
X133483103Y-101302510D01*
X133322895Y-101088498D01*
X133313176Y-101073375D01*
X133185055Y-100838740D01*
X133177586Y-100822386D01*
X133084161Y-100571903D01*
X133079097Y-100554654D01*
X133022273Y-100293440D01*
X133019714Y-100275645D01*
X133000643Y-100008988D01*
X133000643Y-99991012D01*
X133019714Y-99724355D01*
X133022273Y-99706560D01*
X133079097Y-99445346D01*
X133084161Y-99428097D01*
X133177586Y-99177614D01*
X133185055Y-99161260D01*
X133313176Y-98926625D01*
X133322895Y-98911502D01*
X133483103Y-98697490D01*
X133494876Y-98683904D01*
X133683904Y-98494876D01*
X133697490Y-98483103D01*
X133911502Y-98322895D01*
X133926625Y-98313176D01*
X134161260Y-98185055D01*
X134177614Y-98177586D01*
X134428097Y-98084161D01*
X134445346Y-98079097D01*
X134706560Y-98022273D01*
X134724355Y-98019714D01*
X134981932Y-98001292D01*
X134996813Y-97995742D01*
X134999344Y-97992360D01*
X135000000Y-97988726D01*
X135000000Y-88872000D01*
X135020002Y-88803879D01*
X135073658Y-88757386D01*
X135126000Y-88746000D01*
X135874000Y-88746000D01*
X135942121Y-88766002D01*
G37*
G36*
X136003094Y-86746152D02*
G01*
X136018709Y-86746919D01*
X136031018Y-86748131D01*
X136039329Y-86749364D01*
X136103777Y-86779146D01*
X136141892Y-86839044D01*
X136141574Y-86910040D01*
X136102923Y-86969593D01*
X136038210Y-86998797D01*
X136020838Y-87000000D01*
X136018115Y-87000000D01*
X136002876Y-87004475D01*
X136001671Y-87005865D01*
X136000000Y-87013548D01*
X136000000Y-88981885D01*
X136004475Y-88997124D01*
X136005865Y-88998329D01*
X136013548Y-89000000D01*
X136020838Y-89000000D01*
X136088959Y-89020002D01*
X136135452Y-89073658D01*
X136145556Y-89143932D01*
X136116062Y-89208512D01*
X136056336Y-89246896D01*
X136039329Y-89250636D01*
X136031018Y-89251869D01*
X136018709Y-89253081D01*
X136003094Y-89253848D01*
X135996912Y-89254000D01*
X135126000Y-89254000D01*
X135057879Y-89233998D01*
X135011386Y-89180342D01*
X135000000Y-89128000D01*
X135000000Y-87018115D01*
X134995525Y-87002876D01*
X134992331Y-87000108D01*
X134988756Y-86999196D01*
X134967548Y-86997679D01*
X134901028Y-86972868D01*
X134858481Y-86916033D01*
X134853416Y-86845217D01*
X134887442Y-86782905D01*
X134949754Y-86748880D01*
X134976537Y-86746000D01*
X135996912Y-86746000D01*
X136003094Y-86746152D01*
G37*
G36*
X140091584Y-86766002D02*
G01*
X140138077Y-86819658D01*
X140148181Y-86889932D01*
X140118687Y-86954512D01*
X140058961Y-86992896D01*
X140032452Y-86997679D01*
X140018068Y-86998708D01*
X140003187Y-87004258D01*
X140000656Y-87007640D01*
X140000000Y-87011274D01*
X140000000Y-89128000D01*
X139979998Y-89196121D01*
X139926342Y-89242614D01*
X139874000Y-89254000D01*
X139003088Y-89254000D01*
X138996906Y-89253848D01*
X138981291Y-89253081D01*
X138968982Y-89251869D01*
X138960671Y-89250636D01*
X138896223Y-89220854D01*
X138858108Y-89160956D01*
X138858426Y-89089960D01*
X138897077Y-89030407D01*
X138961790Y-89001203D01*
X138979162Y-89000000D01*
X138981885Y-89000000D01*
X138997124Y-88995525D01*
X138998329Y-88994135D01*
X139000000Y-88986452D01*
X139000000Y-87018115D01*
X138995525Y-87002876D01*
X138994135Y-87001671D01*
X138986452Y-87000000D01*
X138979162Y-87000000D01*
X138911041Y-86979998D01*
X138864548Y-86926342D01*
X138854444Y-86856068D01*
X138883938Y-86791488D01*
X138943664Y-86753104D01*
X138960671Y-86749364D01*
X138968982Y-86748131D01*
X138981291Y-86746919D01*
X138996906Y-86746152D01*
X139003088Y-86746000D01*
X140023463Y-86746000D01*
X140091584Y-86766002D01*
G37*
M02*
