M48
; DRILL file {KiCad 6.0.1-79c1e3a40b~116~ubuntu20.04.1} date Sat 29 Jan 2022 12:22:14 CET
; FORMAT={-:-/ absolute / metric / decimal}
; #@! TF.CreationDate,2022-01-29T12:22:14+01:00
; #@! TF.GenerationSoftware,Kicad,Pcbnew,6.0.1-79c1e3a40b~116~ubuntu20.04.1
; #@! TF.FileFunction,Plated,1,2,PTH
FMAT,2
METRIC
; #@! TA.AperFunction,Plated,PTH,ComponentDrill
T1C0.400
; #@! TA.AperFunction,Plated,PTH,ComponentDrill
T2C2.200
%
G90
G05
T1
X135.5Y-91.5
X135.5Y-93.5
X136.0Y-91.0
X136.0Y-94.0
X136.5Y-91.5
X136.5Y-93.5
X137.0Y-91.0
X137.0Y-94.0
X137.5Y-91.5
X137.5Y-91.5
X137.5Y-93.5
X137.5Y-93.5
X138.0Y-91.0
X138.0Y-94.0
X138.5Y-91.5
X138.5Y-93.5
X139.0Y-91.0
X139.0Y-94.0
X139.5Y-91.5
X139.5Y-93.5
X146.0Y-101.0
X146.0Y-102.0
X146.0Y-103.0
X146.0Y-104.0
X146.5Y-100.5
X146.5Y-101.5
X146.5Y-102.5
X146.5Y-102.5
X146.5Y-103.5
X146.5Y-104.5
X148.5Y-100.5
X148.5Y-101.5
X148.5Y-102.5
X148.5Y-102.5
X148.5Y-103.5
X148.5Y-104.5
X149.0Y-101.0
X149.0Y-102.0
X149.0Y-103.0
X149.0Y-104.0
T2
X135.0Y-85.0
X135.0Y-100.0
X140.0Y-85.0
X140.0Y-100.0
X140.0Y-105.0
X155.0Y-100.0
X155.0Y-105.0
T0
M30
