%TF.GenerationSoftware,KiCad,Pcbnew,6.0.1-79c1e3a40b~116~ubuntu20.04.1*%
%TF.CreationDate,2022-01-28T23:27:18+01:00*%
%TF.ProjectId,pcb-connector-x2,7063622d-636f-46e6-9e65-63746f722d78,1*%
%TF.SameCoordinates,Original*%
%TF.FileFunction,Copper,L2,Bot*%
%TF.FilePolarity,Positive*%
%FSLAX46Y46*%
G04 Gerber Fmt 4.6, Leading zero omitted, Abs format (unit mm)*
G04 Created by KiCad (PCBNEW 6.0.1-79c1e3a40b~116~ubuntu20.04.1) date 2022-01-28 23:27:18*
%MOMM*%
%LPD*%
G01*
G04 APERTURE LIST*
%TA.AperFunction,ComponentPad*%
%ADD10C,3.400000*%
%TD*%
%TA.AperFunction,ComponentPad*%
%ADD11C,0.800000*%
%TD*%
%TA.AperFunction,SMDPad,CuDef*%
%ADD12R,3.000000X5.200000*%
%TD*%
%TA.AperFunction,SMDPad,CuDef*%
%ADD13R,5.200000X3.000000*%
%TD*%
G04 APERTURE END LIST*
%TO.C,G\u002A\u002A\u002A*%
G36*
X143738353Y-101038252D02*
G01*
X143748363Y-101046101D01*
X143761968Y-101061733D01*
X143772036Y-101074546D01*
X143789896Y-101099452D01*
X143805533Y-101123559D01*
X143825975Y-101157494D01*
X143840444Y-101145778D01*
X143858706Y-101135849D01*
X143883632Y-101133994D01*
X143910456Y-101142896D01*
X143938125Y-101161981D01*
X143965589Y-101190676D01*
X143991797Y-101228407D01*
X143991896Y-101228572D01*
X144002959Y-101245955D01*
X144011591Y-101257598D01*
X144015929Y-101260989D01*
X144016050Y-101260890D01*
X144023478Y-101257614D01*
X144040120Y-101251282D01*
X144063626Y-101242766D01*
X144091646Y-101232935D01*
X144125651Y-101221667D01*
X144150263Y-101215093D01*
X144166610Y-101213501D01*
X144176298Y-101217016D01*
X144180933Y-101225759D01*
X144182121Y-101239853D01*
X144181697Y-101245248D01*
X144177188Y-101256305D01*
X144166118Y-101268716D01*
X144146473Y-101285032D01*
X144145225Y-101286007D01*
X144127779Y-101300462D01*
X144108352Y-101317734D01*
X144088821Y-101335987D01*
X144071068Y-101353382D01*
X144056969Y-101368082D01*
X144048406Y-101378250D01*
X144047258Y-101382048D01*
X144052530Y-101380761D01*
X144066694Y-101376102D01*
X144085766Y-101369214D01*
X144096604Y-101365422D01*
X144122925Y-101359226D01*
X144140913Y-101360194D01*
X144149683Y-101368336D01*
X144149057Y-101371587D01*
X144141944Y-101382878D01*
X144128662Y-101399104D01*
X144111029Y-101417934D01*
X144097014Y-101432913D01*
X144073308Y-101460741D01*
X144048913Y-101491734D01*
X144027342Y-101521540D01*
X144007038Y-101550665D01*
X143987267Y-101576865D01*
X143969845Y-101596411D01*
X143952582Y-101611447D01*
X143933287Y-101624115D01*
X143909771Y-101636557D01*
X143902985Y-101639823D01*
X143885400Y-101647309D01*
X143866160Y-101653824D01*
X143843737Y-101659653D01*
X143816601Y-101665080D01*
X143783223Y-101670389D01*
X143742075Y-101675864D01*
X143691628Y-101681787D01*
X143630352Y-101688445D01*
X143612838Y-101690312D01*
X143568035Y-101695298D01*
X143532117Y-101699806D01*
X143502494Y-101704316D01*
X143476574Y-101709309D01*
X143451766Y-101715262D01*
X143425477Y-101722656D01*
X143395117Y-101731971D01*
X143390607Y-101733377D01*
X143348527Y-101745858D01*
X143300568Y-101759201D01*
X143252297Y-101771896D01*
X143209281Y-101782430D01*
X143199872Y-101784630D01*
X143156473Y-101795333D01*
X143123066Y-101804881D01*
X143097767Y-101814045D01*
X143078696Y-101823595D01*
X143063971Y-101834301D01*
X143051710Y-101846933D01*
X143045068Y-101855411D01*
X143036785Y-101869758D01*
X143032228Y-101885834D01*
X143031392Y-101905660D01*
X143034267Y-101931258D01*
X143040848Y-101964650D01*
X143051126Y-102007858D01*
X143055353Y-102024946D01*
X143063283Y-102058313D01*
X143068683Y-102084697D01*
X143071984Y-102107620D01*
X143073621Y-102130602D01*
X143074024Y-102157165D01*
X143073629Y-102190828D01*
X143073390Y-102219752D01*
X143074016Y-102251771D01*
X143075931Y-102282540D01*
X143079440Y-102314270D01*
X143084845Y-102349167D01*
X143092452Y-102389441D01*
X143102564Y-102437300D01*
X143115485Y-102494953D01*
X143126156Y-102543622D01*
X143137925Y-102605070D01*
X143145957Y-102659901D01*
X143150577Y-102711063D01*
X143152113Y-102761504D01*
X143150891Y-102814169D01*
X143145219Y-102883523D01*
X143130337Y-102970777D01*
X143107464Y-103051830D01*
X143077034Y-103125942D01*
X143039480Y-103192378D01*
X142995235Y-103250400D01*
X142944730Y-103299271D01*
X142888399Y-103338252D01*
X142826675Y-103366607D01*
X142806142Y-103372379D01*
X142769917Y-103377928D01*
X142731498Y-103379564D01*
X142695499Y-103377172D01*
X142666531Y-103370634D01*
X142657068Y-103367171D01*
X142647891Y-103363023D01*
X142648805Y-103360388D01*
X142658781Y-103357525D01*
X142670827Y-103352810D01*
X142674620Y-103345834D01*
X142667692Y-103337894D01*
X142650872Y-103329527D01*
X142624989Y-103321266D01*
X142590873Y-103313650D01*
X142578984Y-103311168D01*
X142547575Y-103303214D01*
X142512824Y-103293003D01*
X142480315Y-103282127D01*
X142418324Y-103261256D01*
X142336424Y-103239046D01*
X142261809Y-103225499D01*
X142195131Y-103220756D01*
X142182754Y-103220717D01*
X142155628Y-103221061D01*
X142135849Y-103222600D01*
X142119711Y-103226012D01*
X142103509Y-103231974D01*
X142083537Y-103241164D01*
X142059039Y-103252540D01*
X142010918Y-103272324D01*
X141966345Y-103286208D01*
X141923239Y-103294223D01*
X141879518Y-103296397D01*
X141833103Y-103292762D01*
X141781914Y-103283347D01*
X141723868Y-103268181D01*
X141656887Y-103247295D01*
X141641526Y-103242172D01*
X141581488Y-103220411D01*
X141531664Y-103198996D01*
X141490344Y-103177043D01*
X141455817Y-103153666D01*
X141426373Y-103127979D01*
X141411849Y-103114069D01*
X141395497Y-103100527D01*
X141383053Y-103093910D01*
X141372126Y-103092662D01*
X141355077Y-103094088D01*
X141355077Y-103032205D01*
X141355081Y-103024809D01*
X141355311Y-102999257D01*
X141356226Y-102983490D01*
X141358281Y-102975379D01*
X141361934Y-102972795D01*
X141367641Y-102973607D01*
X141374103Y-102976256D01*
X141390624Y-102987603D01*
X141408404Y-103004117D01*
X141423564Y-103022415D01*
X141423709Y-103022621D01*
X141431207Y-103029014D01*
X141445021Y-103035528D01*
X141466005Y-103042360D01*
X141495017Y-103049708D01*
X141532912Y-103057769D01*
X141580546Y-103066742D01*
X141638776Y-103076824D01*
X141708458Y-103088212D01*
X141713359Y-103088942D01*
X141754520Y-103091940D01*
X141799817Y-103090837D01*
X141843872Y-103085962D01*
X141881305Y-103077642D01*
X141885407Y-103076326D01*
X141900118Y-103070319D01*
X141915026Y-103061553D01*
X141932227Y-103048478D01*
X141953813Y-103029544D01*
X141981879Y-103003202D01*
X142023288Y-102965877D01*
X142063221Y-102935498D01*
X142101815Y-102912899D01*
X142141624Y-102896596D01*
X142185202Y-102885104D01*
X142187689Y-102884588D01*
X142215561Y-102878277D01*
X142235958Y-102871638D01*
X142252920Y-102862541D01*
X142270488Y-102848857D01*
X142292703Y-102828457D01*
X142296506Y-102824965D01*
X142327109Y-102801447D01*
X142363729Y-102779136D01*
X142401583Y-102760693D01*
X142435892Y-102748776D01*
X142453264Y-102744416D01*
X142423392Y-102727300D01*
X142417200Y-102723640D01*
X142373199Y-102689819D01*
X142336280Y-102646244D01*
X142306255Y-102592651D01*
X142282938Y-102528777D01*
X142272011Y-102486062D01*
X142262675Y-102433955D01*
X142257006Y-102377691D01*
X142254752Y-102314637D01*
X142255664Y-102242164D01*
X142259097Y-102131039D01*
X142239513Y-102134420D01*
X142232013Y-102135629D01*
X142186988Y-102140341D01*
X142133369Y-102142486D01*
X142074129Y-102142004D01*
X142012241Y-102138840D01*
X141976607Y-102136123D01*
X141933820Y-102132236D01*
X141898205Y-102127871D01*
X141866685Y-102122477D01*
X141836182Y-102115500D01*
X141803618Y-102106388D01*
X141765917Y-102094588D01*
X141737454Y-102085961D01*
X141698515Y-102075472D01*
X141660796Y-102066551D01*
X141629524Y-102060505D01*
X141581391Y-102052346D01*
X141538955Y-102043705D01*
X141504044Y-102034607D01*
X141474142Y-102024388D01*
X141446731Y-102012387D01*
X141430440Y-102004748D01*
X141413561Y-101998276D01*
X141402515Y-101996849D01*
X141394389Y-101999765D01*
X141380681Y-102006020D01*
X141362827Y-102011209D01*
X141342678Y-102015398D01*
X141342678Y-101834161D01*
X141378326Y-101858278D01*
X141380934Y-101860029D01*
X141404973Y-101874210D01*
X141427271Y-101882294D01*
X141454272Y-101886693D01*
X141461029Y-101887472D01*
X141485554Y-101890724D01*
X141517596Y-101895371D01*
X141553763Y-101900910D01*
X141590664Y-101906842D01*
X141610518Y-101910030D01*
X141655903Y-101916227D01*
X141693887Y-101919084D01*
X141727808Y-101918423D01*
X141761005Y-101914065D01*
X141796817Y-101905831D01*
X141838584Y-101893541D01*
X141878450Y-101881300D01*
X141923465Y-101868447D01*
X141965390Y-101857910D01*
X142008085Y-101848812D01*
X142055405Y-101840272D01*
X142111209Y-101831413D01*
X142141703Y-101826607D01*
X142184441Y-101818960D01*
X142216180Y-101811801D01*
X142237782Y-101804885D01*
X142250110Y-101797967D01*
X142254028Y-101790801D01*
X142254031Y-101790697D01*
X142258213Y-101783088D01*
X142268769Y-101769553D01*
X142283476Y-101752951D01*
X142297626Y-101739036D01*
X142317810Y-101723356D01*
X142343291Y-101708133D01*
X142377319Y-101691227D01*
X142449047Y-101653765D01*
X142524850Y-101603656D01*
X142595093Y-101544671D01*
X142627898Y-101515181D01*
X142666901Y-101484450D01*
X142705036Y-101460285D01*
X142745723Y-101440581D01*
X142792377Y-101423236D01*
X142856624Y-101404661D01*
X142927925Y-101389609D01*
X143007469Y-101377984D01*
X143097181Y-101369445D01*
X143115114Y-101367966D01*
X143159913Y-101363450D01*
X143209727Y-101357565D01*
X143259674Y-101350907D01*
X143304870Y-101344072D01*
X143327549Y-101340331D01*
X143363359Y-101334080D01*
X143390941Y-101328485D01*
X143412958Y-101322814D01*
X143432074Y-101316332D01*
X143450954Y-101308307D01*
X143472260Y-101298006D01*
X143486445Y-101291158D01*
X143512721Y-101279575D01*
X143535558Y-101270825D01*
X143551207Y-101266410D01*
X143554087Y-101265883D01*
X143571107Y-101260452D01*
X143582205Y-101253237D01*
X143584254Y-101249197D01*
X143587965Y-101232521D01*
X143590993Y-101205579D01*
X143593154Y-101169787D01*
X143593968Y-101151255D01*
X143595492Y-101125318D01*
X143597480Y-101108016D01*
X143600447Y-101096908D01*
X143604908Y-101089555D01*
X143611378Y-101083519D01*
X143623369Y-101071682D01*
X143633270Y-101057720D01*
X143635245Y-101054323D01*
X143645837Y-101046073D01*
X143664643Y-101042865D01*
X143666024Y-101042788D01*
X143690200Y-101040717D01*
X143714047Y-101037702D01*
X143727930Y-101036172D01*
X143738353Y-101038252D01*
G37*
%TD*%
D10*
%TO.P,H2,1,1*%
%TO.N,GND*%
X140000000Y-105000000D03*
%TD*%
%TO.P,H7,1,1*%
%TO.N,GND*%
X140000000Y-85000000D03*
%TD*%
D11*
%TO.P,J2,2,Pin_2*%
%TO.N,GND*%
X139500000Y-91500000D03*
X138000000Y-91000000D03*
X139000000Y-94100000D03*
X138500000Y-91500000D03*
X137500000Y-91500000D03*
X138000000Y-94000000D03*
X138500000Y-93500000D03*
X137500000Y-93500000D03*
D12*
X138500000Y-92500000D03*
D11*
X139500000Y-93500000D03*
X139000000Y-91000000D03*
%TD*%
%TO.P,J3,2,Pin_2*%
%TO.N,GND*%
X146500000Y-103500000D03*
X148500000Y-103500000D03*
X148500000Y-104500000D03*
X149000000Y-104000000D03*
X145900000Y-104000000D03*
X146000000Y-103000000D03*
X149000000Y-103000000D03*
D13*
X147500000Y-103500000D03*
D11*
X146500000Y-104500000D03*
X146500000Y-102500000D03*
X148500000Y-102500000D03*
%TD*%
%TO.P,J1,2,Pin_2*%
%TO.N,GND*%
X148500000Y-101500000D03*
X146500000Y-101500000D03*
X146500000Y-100500000D03*
X146500000Y-102500000D03*
X149000000Y-102000000D03*
X146000000Y-101000000D03*
D13*
X147500000Y-101500000D03*
D11*
X146000000Y-102000000D03*
X148500000Y-102500000D03*
X148500000Y-100500000D03*
X149100000Y-101000000D03*
%TD*%
D10*
%TO.P,H1,1,1*%
%TO.N,GND*%
X155000000Y-100000000D03*
%TD*%
D11*
%TO.P,J4,2,Pin_2*%
%TO.N,GND*%
X136500000Y-91500000D03*
D12*
X136500000Y-92500000D03*
D11*
X136500000Y-93500000D03*
X137500000Y-91500000D03*
X137000000Y-91000000D03*
X137000000Y-94000000D03*
X135500000Y-91500000D03*
X135500000Y-93500000D03*
X137500000Y-93500000D03*
X136000000Y-94000000D03*
X136000000Y-90900000D03*
%TD*%
D10*
%TO.P,H3,1,1*%
%TO.N,GND*%
X140000000Y-100000000D03*
%TD*%
%TO.P,H6,1,1*%
%TO.N,GND*%
X135000000Y-85000000D03*
%TD*%
%TO.P,H5,1,1*%
%TO.N,GND*%
X155000000Y-105000000D03*
%TD*%
%TO.P,H4,1,1*%
%TO.N,GND*%
X135000000Y-100000000D03*
%TD*%
%TA.AperFunction,Conductor*%
%TO.N,GND*%
G36*
X139988227Y-83202518D02*
G01*
X139999642Y-83205143D01*
X140010517Y-83202682D01*
X140021663Y-83202702D01*
X140021662Y-83203015D01*
X140031612Y-83202261D01*
X140249112Y-83217816D01*
X140263088Y-83219827D01*
X140500200Y-83271408D01*
X140513747Y-83275385D01*
X140603110Y-83308716D01*
X140741113Y-83360188D01*
X140753962Y-83366056D01*
X140966938Y-83482351D01*
X140978820Y-83489987D01*
X141173077Y-83635405D01*
X141183753Y-83644655D01*
X141355345Y-83816247D01*
X141364595Y-83826923D01*
X141510013Y-84021180D01*
X141517649Y-84033062D01*
X141633944Y-84246038D01*
X141639812Y-84258887D01*
X141724614Y-84486250D01*
X141728593Y-84499803D01*
X141780173Y-84736909D01*
X141782184Y-84750891D01*
X141799495Y-84992938D01*
X141799495Y-85007062D01*
X141782184Y-85249109D01*
X141780173Y-85263091D01*
X141728593Y-85500197D01*
X141724614Y-85513750D01*
X141639812Y-85741113D01*
X141633944Y-85753962D01*
X141517649Y-85966938D01*
X141510013Y-85978820D01*
X141364595Y-86173077D01*
X141355345Y-86183753D01*
X141183753Y-86355345D01*
X141173077Y-86364595D01*
X140978820Y-86510013D01*
X140966938Y-86517649D01*
X140753962Y-86633944D01*
X140741113Y-86639812D01*
X140603110Y-86691284D01*
X140513747Y-86724615D01*
X140500200Y-86728592D01*
X140263088Y-86780173D01*
X140249112Y-86782184D01*
X140032127Y-86797702D01*
X140022372Y-86796946D01*
X140022371Y-86797374D01*
X140011221Y-86797355D01*
X140000358Y-86794857D01*
X139989486Y-86797317D01*
X139989485Y-86797317D01*
X139989096Y-86797405D01*
X139988566Y-86797525D01*
X139966640Y-86799965D01*
X139965702Y-86799964D01*
X139965699Y-86799965D01*
X139954551Y-86799955D01*
X139943894Y-86805072D01*
X139922890Y-86812386D01*
X139922235Y-86812534D01*
X139922233Y-86812535D01*
X139911361Y-86814995D01*
X139901894Y-86822512D01*
X139883193Y-86834220D01*
X139872295Y-86839453D01*
X139865334Y-86848157D01*
X139865333Y-86848158D01*
X139864913Y-86848684D01*
X139849157Y-86864385D01*
X139848633Y-86864801D01*
X139848631Y-86864803D01*
X139839900Y-86871736D01*
X139835039Y-86881770D01*
X139835038Y-86881771D01*
X139834630Y-86882613D01*
X139822853Y-86901278D01*
X139815306Y-86910715D01*
X139812808Y-86921578D01*
X139812806Y-86921583D01*
X139812656Y-86922236D01*
X139805267Y-86943220D01*
X139800115Y-86953853D01*
X139800054Y-86977041D01*
X139798333Y-86977036D01*
X139798357Y-86977277D01*
X139800000Y-86977277D01*
X139800000Y-86997758D01*
X139799876Y-87045100D01*
X139799995Y-87045350D01*
X139800000Y-87045390D01*
X139800000Y-97994123D01*
X139799955Y-98045449D01*
X139804781Y-98055498D01*
X139804781Y-98055500D01*
X139805185Y-98056341D01*
X139812463Y-98077183D01*
X139812670Y-98078093D01*
X139812672Y-98078096D01*
X139815150Y-98088962D01*
X139822097Y-98097680D01*
X139822520Y-98098211D01*
X139834334Y-98117046D01*
X139834625Y-98117653D01*
X139834628Y-98117657D01*
X139839453Y-98127705D01*
X139848893Y-98135254D01*
X139864484Y-98150872D01*
X139872015Y-98160323D01*
X139882058Y-98165167D01*
X139882663Y-98165459D01*
X139901478Y-98177308D01*
X139902005Y-98177730D01*
X139902010Y-98177732D01*
X139910715Y-98184694D01*
X139922405Y-98187382D01*
X139922492Y-98187402D01*
X139943318Y-98194715D01*
X139954202Y-98199965D01*
X139966018Y-98199975D01*
X139988120Y-98202494D01*
X139988774Y-98202644D01*
X139988775Y-98202644D01*
X139999642Y-98205143D01*
X140010517Y-98202682D01*
X140021664Y-98202702D01*
X140021664Y-98202863D01*
X140031669Y-98202076D01*
X140103759Y-98206801D01*
X140228475Y-98214975D01*
X140241302Y-98216663D01*
X140459516Y-98260068D01*
X140472016Y-98263418D01*
X140682691Y-98334933D01*
X140694653Y-98339889D01*
X140735816Y-98360188D01*
X140894180Y-98438284D01*
X140905386Y-98444753D01*
X141090385Y-98568365D01*
X141100639Y-98576233D01*
X141267914Y-98722930D01*
X141277069Y-98732085D01*
X141423767Y-98899361D01*
X141431635Y-98909615D01*
X141555247Y-99094614D01*
X141561716Y-99105820D01*
X141633929Y-99252253D01*
X141660111Y-99305346D01*
X141665067Y-99317309D01*
X141736581Y-99527980D01*
X141739932Y-99540484D01*
X141780381Y-99743833D01*
X141783336Y-99758691D01*
X141785026Y-99771530D01*
X141797891Y-99967816D01*
X141797101Y-99977628D01*
X141797375Y-99977628D01*
X141797355Y-99988778D01*
X141794857Y-99999642D01*
X141797317Y-100010514D01*
X141797317Y-100010516D01*
X141797525Y-100011433D01*
X141799965Y-100033360D01*
X141799964Y-100034298D01*
X141799965Y-100034301D01*
X141799955Y-100045449D01*
X141805072Y-100056106D01*
X141812386Y-100077110D01*
X141814995Y-100088639D01*
X141822512Y-100098106D01*
X141834220Y-100116807D01*
X141839453Y-100127705D01*
X141848157Y-100134666D01*
X141848158Y-100134667D01*
X141848684Y-100135087D01*
X141864385Y-100150843D01*
X141864801Y-100151367D01*
X141864803Y-100151369D01*
X141871736Y-100160100D01*
X141881770Y-100164961D01*
X141881771Y-100164962D01*
X141882613Y-100165370D01*
X141901279Y-100177147D01*
X141910715Y-100184694D01*
X141921578Y-100187192D01*
X141921583Y-100187194D01*
X141922236Y-100187344D01*
X141943220Y-100194733D01*
X141943822Y-100195025D01*
X141943823Y-100195025D01*
X141953853Y-100199885D01*
X141977041Y-100199946D01*
X141977036Y-100201667D01*
X141977277Y-100201643D01*
X141977277Y-100200000D01*
X141997758Y-100200000D01*
X142044297Y-100200122D01*
X142044298Y-100200122D01*
X142045100Y-100200124D01*
X142045350Y-100200005D01*
X142045390Y-100200000D01*
X152997758Y-100200000D01*
X153033953Y-100200095D01*
X153033954Y-100200095D01*
X153045100Y-100200124D01*
X153055157Y-100195317D01*
X153055159Y-100195316D01*
X153056242Y-100194798D01*
X153076918Y-100187598D01*
X153088962Y-100184850D01*
X153098001Y-100177647D01*
X153117001Y-100165752D01*
X153117365Y-100165578D01*
X153117366Y-100165577D01*
X153127424Y-100160769D01*
X153135153Y-100151139D01*
X153150664Y-100135682D01*
X153151604Y-100134933D01*
X153160323Y-100127985D01*
X153165344Y-100117575D01*
X153177306Y-100098618D01*
X153177560Y-100098301D01*
X153184538Y-100089607D01*
X153187328Y-100077572D01*
X153194601Y-100056920D01*
X153199965Y-100045798D01*
X153199975Y-100034243D01*
X153202532Y-100011975D01*
X153202871Y-100010516D01*
X153205142Y-100000716D01*
X153205143Y-100000000D01*
X153203899Y-99994545D01*
X153203278Y-99988995D01*
X153203870Y-99988929D01*
X153202280Y-99968132D01*
X153217816Y-99750891D01*
X153219827Y-99736909D01*
X153263941Y-99534126D01*
X153271408Y-99499800D01*
X153275386Y-99486250D01*
X153280499Y-99472543D01*
X153340687Y-99311170D01*
X153360188Y-99258887D01*
X153366056Y-99246038D01*
X153482351Y-99033062D01*
X153489987Y-99021180D01*
X153635405Y-98826923D01*
X153644655Y-98816247D01*
X153816247Y-98644655D01*
X153826923Y-98635405D01*
X154021180Y-98489987D01*
X154033062Y-98482351D01*
X154246038Y-98366056D01*
X154258887Y-98360188D01*
X154396890Y-98308716D01*
X154486253Y-98275385D01*
X154499800Y-98271408D01*
X154736912Y-98219827D01*
X154750888Y-98217816D01*
X154992939Y-98200505D01*
X155007061Y-98200505D01*
X155249112Y-98217816D01*
X155263088Y-98219827D01*
X155500200Y-98271408D01*
X155513747Y-98275385D01*
X155603110Y-98308716D01*
X155741113Y-98360188D01*
X155753962Y-98366056D01*
X155966938Y-98482351D01*
X155978820Y-98489987D01*
X156173077Y-98635405D01*
X156183753Y-98644655D01*
X156355345Y-98816247D01*
X156364595Y-98826923D01*
X156510013Y-99021180D01*
X156517649Y-99033062D01*
X156633944Y-99246038D01*
X156639812Y-99258887D01*
X156659313Y-99311170D01*
X156719502Y-99472543D01*
X156724614Y-99486250D01*
X156728592Y-99499800D01*
X156736060Y-99534126D01*
X156780173Y-99736909D01*
X156782184Y-99750891D01*
X156797702Y-99967873D01*
X156796946Y-99977628D01*
X156797374Y-99977629D01*
X156797355Y-99988779D01*
X156794857Y-99999642D01*
X156797317Y-100010514D01*
X156797317Y-100010515D01*
X156797559Y-100011583D01*
X156800000Y-100033432D01*
X156800000Y-104966040D01*
X156797482Y-104988227D01*
X156794857Y-104999642D01*
X156797318Y-105010517D01*
X156797298Y-105021663D01*
X156796985Y-105021662D01*
X156797739Y-105031614D01*
X156782184Y-105249109D01*
X156780173Y-105263091D01*
X156728593Y-105500197D01*
X156724614Y-105513750D01*
X156639812Y-105741113D01*
X156633944Y-105753962D01*
X156517649Y-105966938D01*
X156510013Y-105978820D01*
X156364595Y-106173077D01*
X156355345Y-106183753D01*
X156183753Y-106355345D01*
X156173077Y-106364595D01*
X155978820Y-106510013D01*
X155966938Y-106517649D01*
X155753962Y-106633944D01*
X155741113Y-106639812D01*
X155603110Y-106691284D01*
X155513747Y-106724615D01*
X155500200Y-106728592D01*
X155263088Y-106780173D01*
X155249112Y-106782184D01*
X155007061Y-106799495D01*
X154992939Y-106799495D01*
X154750888Y-106782184D01*
X154736912Y-106780173D01*
X154499800Y-106728592D01*
X154486253Y-106724615D01*
X154396890Y-106691284D01*
X154258887Y-106639812D01*
X154246038Y-106633944D01*
X154033062Y-106517649D01*
X154021180Y-106510013D01*
X153826923Y-106364595D01*
X153816247Y-106355345D01*
X153644655Y-106183753D01*
X153635405Y-106173077D01*
X153489987Y-105978820D01*
X153482351Y-105966938D01*
X153366056Y-105753962D01*
X153360188Y-105741113D01*
X153275386Y-105513750D01*
X153271407Y-105500197D01*
X153219827Y-105263091D01*
X153217816Y-105249109D01*
X153202316Y-105032382D01*
X153203927Y-105011833D01*
X153203235Y-105011753D01*
X153203877Y-105006175D01*
X153205142Y-105000716D01*
X153205143Y-105000000D01*
X153203900Y-104994550D01*
X153203899Y-104994543D01*
X153202514Y-104988470D01*
X153200035Y-104966372D01*
X153200036Y-104965701D01*
X153200035Y-104965698D01*
X153200045Y-104954551D01*
X153195058Y-104944164D01*
X153194815Y-104943659D01*
X153187537Y-104922817D01*
X153187330Y-104921907D01*
X153187328Y-104921904D01*
X153184850Y-104911038D01*
X153177480Y-104901789D01*
X153165666Y-104882954D01*
X153165375Y-104882347D01*
X153165372Y-104882343D01*
X153160547Y-104872295D01*
X153151107Y-104864746D01*
X153135516Y-104849128D01*
X153127985Y-104839677D01*
X153117337Y-104834541D01*
X153098522Y-104822692D01*
X153097995Y-104822270D01*
X153097990Y-104822268D01*
X153089285Y-104815306D01*
X153077508Y-104812598D01*
X153056682Y-104805285D01*
X153055836Y-104804877D01*
X153045798Y-104800035D01*
X153034653Y-104800025D01*
X153034652Y-104800025D01*
X153022787Y-104800015D01*
X153022789Y-104798270D01*
X153022723Y-104798276D01*
X153022723Y-104800000D01*
X153005877Y-104800000D01*
X152954840Y-104799955D01*
X152954551Y-104799955D01*
X152954463Y-104799997D01*
X152954439Y-104800000D01*
X142005877Y-104800000D01*
X141954551Y-104799955D01*
X141944502Y-104804781D01*
X141944500Y-104804781D01*
X141943659Y-104805185D01*
X141922817Y-104812463D01*
X141921907Y-104812670D01*
X141921904Y-104812672D01*
X141911038Y-104815150D01*
X141902320Y-104822097D01*
X141901789Y-104822520D01*
X141882954Y-104834334D01*
X141882347Y-104834625D01*
X141882343Y-104834628D01*
X141872295Y-104839453D01*
X141864746Y-104848893D01*
X141849128Y-104864484D01*
X141839677Y-104872015D01*
X141834593Y-104882555D01*
X141834541Y-104882663D01*
X141822692Y-104901478D01*
X141822270Y-104902005D01*
X141822268Y-104902010D01*
X141815306Y-104910715D01*
X141812808Y-104921581D01*
X141812598Y-104922492D01*
X141805285Y-104943318D01*
X141800035Y-104954202D01*
X141800025Y-104965701D01*
X141800025Y-104966016D01*
X141797506Y-104988120D01*
X141797426Y-104988470D01*
X141794857Y-104999642D01*
X141797318Y-105010517D01*
X141797298Y-105021663D01*
X141796985Y-105021662D01*
X141797739Y-105031614D01*
X141782184Y-105249109D01*
X141780173Y-105263091D01*
X141728593Y-105500197D01*
X141724614Y-105513750D01*
X141639812Y-105741113D01*
X141633944Y-105753962D01*
X141517649Y-105966938D01*
X141510013Y-105978820D01*
X141364595Y-106173077D01*
X141355345Y-106183753D01*
X141183753Y-106355345D01*
X141173077Y-106364595D01*
X140978820Y-106510013D01*
X140966938Y-106517649D01*
X140753962Y-106633944D01*
X140741113Y-106639812D01*
X140603110Y-106691284D01*
X140513747Y-106724615D01*
X140500200Y-106728592D01*
X140263088Y-106780173D01*
X140249112Y-106782184D01*
X140007061Y-106799495D01*
X139992939Y-106799495D01*
X139750888Y-106782184D01*
X139736912Y-106780173D01*
X139499800Y-106728592D01*
X139486253Y-106724615D01*
X139396890Y-106691284D01*
X139258887Y-106639812D01*
X139246038Y-106633944D01*
X139033062Y-106517649D01*
X139021180Y-106510013D01*
X138826923Y-106364595D01*
X138816247Y-106355345D01*
X138644655Y-106183753D01*
X138635405Y-106173077D01*
X138489987Y-105978820D01*
X138482351Y-105966938D01*
X138366056Y-105753962D01*
X138360188Y-105741113D01*
X138275386Y-105513750D01*
X138271407Y-105500197D01*
X138219827Y-105263091D01*
X138217816Y-105249109D01*
X138202316Y-105032382D01*
X138203927Y-105011833D01*
X138203235Y-105011753D01*
X138203877Y-105006176D01*
X138205142Y-105000716D01*
X138205143Y-105000000D01*
X138204197Y-104995852D01*
X138204135Y-104995100D01*
X138203804Y-104988774D01*
X138186838Y-104665050D01*
X138134368Y-104333769D01*
X138047558Y-104009788D01*
X137927357Y-103696656D01*
X137926184Y-103694353D01*
X137926180Y-103694345D01*
X137776261Y-103400111D01*
X137776256Y-103400103D01*
X137775085Y-103397804D01*
X137773671Y-103395626D01*
X137593824Y-103118687D01*
X137593818Y-103118679D01*
X137592407Y-103116506D01*
X137381327Y-102855844D01*
X137144156Y-102618673D01*
X136883494Y-102407593D01*
X136881321Y-102406182D01*
X136881313Y-102406176D01*
X136604374Y-102226329D01*
X136604368Y-102226326D01*
X136602196Y-102224915D01*
X136599897Y-102223744D01*
X136599889Y-102223739D01*
X136305655Y-102073820D01*
X136305647Y-102073816D01*
X136303344Y-102072643D01*
X136143440Y-102011261D01*
X141137577Y-102011261D01*
X141142626Y-102035654D01*
X141142678Y-102035980D01*
X141142678Y-102037944D01*
X141143714Y-102042486D01*
X141143715Y-102042492D01*
X141147016Y-102056961D01*
X141147440Y-102058912D01*
X141150145Y-102071981D01*
X141156072Y-102100614D01*
X141157357Y-102102295D01*
X141157828Y-102104360D01*
X141164106Y-102112238D01*
X141164107Y-102112241D01*
X141184377Y-102137678D01*
X141185606Y-102139252D01*
X141211486Y-102173109D01*
X141213376Y-102174068D01*
X141214693Y-102175721D01*
X141250628Y-102193054D01*
X141253020Y-102194208D01*
X141254805Y-102195091D01*
X141292856Y-102214399D01*
X141294974Y-102214444D01*
X141296880Y-102215363D01*
X141306934Y-102215372D01*
X141306935Y-102215372D01*
X141327731Y-102215390D01*
X141339499Y-102215400D01*
X141341469Y-102215422D01*
X141361140Y-102215836D01*
X141363061Y-102215437D01*
X141363397Y-102215421D01*
X141388127Y-102215443D01*
X141388128Y-102215443D01*
X141388126Y-102217834D01*
X141428434Y-102220751D01*
X141431619Y-102222413D01*
X141437040Y-102223826D01*
X141437041Y-102223826D01*
X141442858Y-102225342D01*
X141449900Y-102227460D01*
X141460701Y-102231151D01*
X141466222Y-102231733D01*
X141468055Y-102232138D01*
X141473300Y-102233565D01*
X141476783Y-102235149D01*
X141491121Y-102238069D01*
X141496320Y-102239275D01*
X141504958Y-102241526D01*
X141504962Y-102241527D01*
X141510336Y-102242927D01*
X141515247Y-102243078D01*
X141518447Y-102243633D01*
X141521718Y-102244299D01*
X141522665Y-102244532D01*
X141525562Y-102245736D01*
X141531073Y-102246670D01*
X141531083Y-102246673D01*
X141543137Y-102248716D01*
X141546328Y-102249310D01*
X141563578Y-102252823D01*
X141566708Y-102252750D01*
X141567677Y-102252875D01*
X141592747Y-102257125D01*
X141594976Y-102257529D01*
X141616789Y-102261746D01*
X141620755Y-102262598D01*
X141647988Y-102269039D01*
X141650924Y-102269781D01*
X141680971Y-102277876D01*
X141683920Y-102278720D01*
X141706538Y-102285575D01*
X141707395Y-102285839D01*
X141724510Y-102291196D01*
X141725286Y-102291475D01*
X141727842Y-102292867D01*
X141733235Y-102294376D01*
X141733237Y-102294377D01*
X141745332Y-102297762D01*
X141748220Y-102298618D01*
X141762872Y-102303203D01*
X141762879Y-102303205D01*
X141765394Y-102303992D01*
X141765946Y-102304036D01*
X141767482Y-102304452D01*
X141769436Y-102305398D01*
X141784616Y-102308870D01*
X141789190Y-102310033D01*
X141804001Y-102314177D01*
X141806346Y-102314291D01*
X141807745Y-102314606D01*
X141810552Y-102315778D01*
X141822443Y-102317813D01*
X141824774Y-102318212D01*
X141830147Y-102319285D01*
X141838646Y-102321229D01*
X141838649Y-102321229D01*
X141844069Y-102322469D01*
X141847214Y-102322471D01*
X141849030Y-102322789D01*
X141851321Y-102323621D01*
X141866853Y-102325525D01*
X141871460Y-102326202D01*
X141881206Y-102327870D01*
X141881212Y-102327870D01*
X141886692Y-102328808D01*
X141889276Y-102328666D01*
X141892116Y-102329039D01*
X141893096Y-102329360D01*
X141897863Y-102329793D01*
X141911051Y-102330991D01*
X141914140Y-102331320D01*
X141926357Y-102332818D01*
X141926362Y-102332818D01*
X141931868Y-102333493D01*
X141934833Y-102333189D01*
X141935739Y-102333234D01*
X141937242Y-102333371D01*
X141937370Y-102333389D01*
X141938744Y-102333817D01*
X141959335Y-102335387D01*
X141960581Y-102335491D01*
X141971234Y-102336459D01*
X142027474Y-102360556D01*
X142058810Y-102413108D01*
X142060774Y-102425129D01*
X142061229Y-102429649D01*
X142061440Y-102431743D01*
X142061543Y-102435688D01*
X142061716Y-102435677D01*
X142062075Y-102441262D01*
X142061802Y-102446860D01*
X142062790Y-102452373D01*
X142062790Y-102452375D01*
X142063783Y-102457916D01*
X142064835Y-102465448D01*
X142065385Y-102470907D01*
X142065387Y-102470915D01*
X142065943Y-102476437D01*
X142067714Y-102481699D01*
X142068888Y-102487136D01*
X142068729Y-102487170D01*
X142069709Y-102490994D01*
X142071197Y-102499302D01*
X142071814Y-102503190D01*
X142072482Y-102508019D01*
X142072619Y-102513614D01*
X142074005Y-102519032D01*
X142074006Y-102519038D01*
X142075537Y-102525020D01*
X142077076Y-102532107D01*
X142079122Y-102543527D01*
X142081293Y-102548639D01*
X142082774Y-102553615D01*
X142083795Y-102557303D01*
X142084299Y-102559269D01*
X142084474Y-102559954D01*
X142086038Y-102568210D01*
X142086581Y-102570457D01*
X142087273Y-102576014D01*
X142089193Y-102581273D01*
X142089194Y-102581278D01*
X142089954Y-102583359D01*
X142092865Y-102592762D01*
X142093387Y-102594802D01*
X142093390Y-102594810D01*
X142093828Y-102596521D01*
X142093828Y-102596526D01*
X142094763Y-102600180D01*
X142094014Y-102600372D01*
X142096754Y-102656997D01*
X142063224Y-102708177D01*
X142038753Y-102722604D01*
X142037843Y-102722977D01*
X142029946Y-102725825D01*
X142020363Y-102728828D01*
X142015530Y-102731658D01*
X142012995Y-102732780D01*
X142010295Y-102734258D01*
X142005155Y-102736363D01*
X141996878Y-102742184D01*
X141989965Y-102746627D01*
X141975811Y-102754915D01*
X141966548Y-102759703D01*
X141960213Y-102762565D01*
X141955760Y-102765952D01*
X141954851Y-102766494D01*
X141948499Y-102770748D01*
X141947503Y-102771492D01*
X141942705Y-102774302D01*
X141938655Y-102778105D01*
X141938651Y-102778108D01*
X141937574Y-102779120D01*
X141929749Y-102785739D01*
X141919244Y-102793731D01*
X141915668Y-102796069D01*
X141915710Y-102796128D01*
X141911155Y-102799384D01*
X141906261Y-102802106D01*
X141902101Y-102805856D01*
X141902099Y-102805857D01*
X141898627Y-102808987D01*
X141892295Y-102814234D01*
X141884252Y-102820353D01*
X141880692Y-102824613D01*
X141876667Y-102828458D01*
X141876625Y-102828414D01*
X141873659Y-102831492D01*
X141863537Y-102840615D01*
X141863265Y-102840838D01*
X141861576Y-102841822D01*
X141858169Y-102845019D01*
X141858165Y-102845023D01*
X141857982Y-102845195D01*
X141848587Y-102854014D01*
X141847208Y-102855308D01*
X141845759Y-102856641D01*
X141835338Y-102866034D01*
X141779455Y-102890949D01*
X141771469Y-102891468D01*
X141766267Y-102891595D01*
X141764159Y-102891646D01*
X141754573Y-102891414D01*
X141740415Y-102890383D01*
X141731671Y-102889352D01*
X141672365Y-102879660D01*
X141671454Y-102879507D01*
X141616821Y-102870048D01*
X141615484Y-102869806D01*
X141573299Y-102861860D01*
X141571116Y-102861421D01*
X141569935Y-102861170D01*
X141527104Y-102839830D01*
X141526771Y-102839230D01*
X141524324Y-102837501D01*
X141522584Y-102835607D01*
X141518114Y-102832537D01*
X141517803Y-102832293D01*
X141516297Y-102830986D01*
X141514283Y-102829498D01*
X141510212Y-102825717D01*
X141505402Y-102822936D01*
X141500933Y-102819634D01*
X141501228Y-102819235D01*
X141499050Y-102817509D01*
X141498944Y-102817667D01*
X141489690Y-102811449D01*
X141482052Y-102803331D01*
X141445267Y-102789175D01*
X141432711Y-102783303D01*
X141429006Y-102781243D01*
X141429003Y-102781242D01*
X141419256Y-102775822D01*
X141409832Y-102775266D01*
X141405424Y-102773518D01*
X141394300Y-102774309D01*
X141385986Y-102773025D01*
X141378605Y-102772679D01*
X141366441Y-102770656D01*
X141366440Y-102770656D01*
X141355441Y-102768827D01*
X141346825Y-102771340D01*
X141343277Y-102771341D01*
X141339298Y-102771106D01*
X141339296Y-102771106D01*
X141328167Y-102770450D01*
X141317855Y-102774684D01*
X141314369Y-102775266D01*
X141311005Y-102776333D01*
X141299898Y-102777257D01*
X141290289Y-102782906D01*
X141290287Y-102782907D01*
X141288945Y-102783696D01*
X141283715Y-102786404D01*
X141273918Y-102788385D01*
X141254022Y-102803450D01*
X141244450Y-102809856D01*
X141221238Y-102823503D01*
X141215440Y-102832149D01*
X141210171Y-102836605D01*
X141210058Y-102836740D01*
X141201172Y-102843468D01*
X141196082Y-102853386D01*
X141192549Y-102857594D01*
X141189017Y-102862728D01*
X141186346Y-102867541D01*
X141178904Y-102875843D01*
X141173392Y-102894846D01*
X141173038Y-102894743D01*
X141172896Y-102895586D01*
X141170414Y-102899286D01*
X141169341Y-102906783D01*
X141167687Y-102913311D01*
X141167685Y-102913316D01*
X141165696Y-102921167D01*
X141164813Y-102924419D01*
X141153484Y-102963477D01*
X141155328Y-102974468D01*
X141155046Y-102979317D01*
X141155438Y-102984291D01*
X141155385Y-102990138D01*
X141155223Y-102994964D01*
X141154341Y-103010178D01*
X141155064Y-103014488D01*
X141155077Y-103014953D01*
X141155077Y-103023882D01*
X141155073Y-103024773D01*
X141154966Y-103036691D01*
X141154886Y-103045554D01*
X141155066Y-103046377D01*
X141155069Y-103046444D01*
X141155065Y-103054142D01*
X141154807Y-103057768D01*
X141151991Y-103065116D01*
X141152910Y-103076223D01*
X141154740Y-103098336D01*
X141155077Y-103106500D01*
X141155077Y-103116634D01*
X141156312Y-103122050D01*
X141156934Y-103127571D01*
X141156861Y-103127579D01*
X141157503Y-103131730D01*
X141157756Y-103134791D01*
X141159516Y-103156053D01*
X141165162Y-103165664D01*
X141166223Y-103169014D01*
X141167748Y-103172182D01*
X141170227Y-103183050D01*
X141185440Y-103202141D01*
X141193366Y-103213677D01*
X141205733Y-103234730D01*
X141214991Y-103240944D01*
X141217400Y-103243502D01*
X141220145Y-103245693D01*
X141227092Y-103254411D01*
X141237132Y-103259254D01*
X141237134Y-103259255D01*
X141249068Y-103265011D01*
X141261230Y-103271978D01*
X141281497Y-103285581D01*
X141292532Y-103287165D01*
X141295996Y-103288496D01*
X141323135Y-103304671D01*
X141324872Y-103306537D01*
X141329511Y-103309678D01*
X141330566Y-103310581D01*
X141335859Y-103314657D01*
X141337142Y-103315544D01*
X141341328Y-103319197D01*
X141346222Y-103321827D01*
X141346225Y-103321829D01*
X141347745Y-103322646D01*
X141356374Y-103327866D01*
X141363406Y-103332627D01*
X141371546Y-103338878D01*
X141372208Y-103339332D01*
X141376440Y-103343002D01*
X141381383Y-103345628D01*
X141381389Y-103345632D01*
X141382393Y-103346165D01*
X141391453Y-103351617D01*
X141392280Y-103352177D01*
X141392283Y-103352179D01*
X141396884Y-103355294D01*
X141402062Y-103357308D01*
X141402650Y-103357616D01*
X141412066Y-103361930D01*
X141418803Y-103365509D01*
X141422389Y-103367758D01*
X141422431Y-103367684D01*
X141427290Y-103370459D01*
X141431811Y-103373769D01*
X141441354Y-103377871D01*
X141448709Y-103381398D01*
X141452832Y-103383588D01*
X141452834Y-103383589D01*
X141457738Y-103386194D01*
X141463099Y-103387644D01*
X141468263Y-103389684D01*
X141468236Y-103389751D01*
X141472230Y-103391142D01*
X141483993Y-103396198D01*
X141487570Y-103397853D01*
X141491973Y-103400698D01*
X141497233Y-103402605D01*
X141497238Y-103402607D01*
X141505159Y-103405478D01*
X141510512Y-103407597D01*
X141518114Y-103410864D01*
X141518120Y-103410866D01*
X141523225Y-103413060D01*
X141528371Y-103414005D01*
X141532160Y-103415264D01*
X141554045Y-103423197D01*
X141554572Y-103423414D01*
X141556695Y-103424710D01*
X141562000Y-103426479D01*
X141562012Y-103426484D01*
X141573688Y-103430377D01*
X141574007Y-103430500D01*
X141575657Y-103431464D01*
X141580043Y-103432832D01*
X141580051Y-103432835D01*
X141582084Y-103433469D01*
X141586330Y-103434899D01*
X141589340Y-103435990D01*
X141589343Y-103435991D01*
X141594570Y-103437885D01*
X141597038Y-103438191D01*
X141597601Y-103438353D01*
X141615000Y-103444155D01*
X141616901Y-103444341D01*
X141617224Y-103444426D01*
X141624864Y-103446808D01*
X141645433Y-103453222D01*
X141647500Y-103453942D01*
X141651325Y-103455941D01*
X141656743Y-103457357D01*
X141656747Y-103457358D01*
X141666552Y-103459920D01*
X141670982Y-103461188D01*
X141685855Y-103465826D01*
X141690154Y-103466162D01*
X141692321Y-103466653D01*
X141709536Y-103471151D01*
X141713276Y-103472207D01*
X141718253Y-103473718D01*
X141723387Y-103475937D01*
X141734889Y-103478052D01*
X141742003Y-103479634D01*
X141747789Y-103481146D01*
X141747799Y-103481147D01*
X141753170Y-103482551D01*
X141758720Y-103482725D01*
X141764150Y-103483509D01*
X141767903Y-103484125D01*
X141778882Y-103486144D01*
X141788118Y-103488434D01*
X141789491Y-103488700D01*
X141794834Y-103490377D01*
X141800413Y-103490814D01*
X141800414Y-103490814D01*
X141801481Y-103490897D01*
X141802014Y-103490939D01*
X141812186Y-103492269D01*
X141819099Y-103493541D01*
X141824651Y-103493305D01*
X141825874Y-103493391D01*
X141835512Y-103493563D01*
X141849208Y-103494636D01*
X141858841Y-103495869D01*
X141861238Y-103496296D01*
X141861241Y-103496296D01*
X141866756Y-103497279D01*
X141872351Y-103497001D01*
X141874973Y-103497167D01*
X141877996Y-103497210D01*
X141880843Y-103497113D01*
X141886380Y-103497547D01*
X141891878Y-103496738D01*
X141891881Y-103496738D01*
X141894427Y-103496364D01*
X141903913Y-103495432D01*
X141912454Y-103495007D01*
X141919391Y-103494662D01*
X141928482Y-103494628D01*
X141929288Y-103494662D01*
X141931868Y-103494771D01*
X141931869Y-103494771D01*
X141937460Y-103495007D01*
X141942962Y-103493984D01*
X141946448Y-103493737D01*
X141950149Y-103493133D01*
X141955690Y-103492857D01*
X141961028Y-103491357D01*
X141961034Y-103491356D01*
X141964431Y-103490401D01*
X141973111Y-103488378D01*
X141986983Y-103485799D01*
X141997571Y-103484416D01*
X141998543Y-103484342D01*
X142004129Y-103483917D01*
X142009482Y-103482250D01*
X142010061Y-103482139D01*
X142018869Y-103479957D01*
X142019605Y-103479733D01*
X142025072Y-103478716D01*
X142030170Y-103476512D01*
X142030180Y-103476509D01*
X142031197Y-103476069D01*
X142041030Y-103472423D01*
X142050653Y-103469426D01*
X142055096Y-103468371D01*
X142060423Y-103466856D01*
X142065951Y-103465941D01*
X142074768Y-103462316D01*
X142082972Y-103459358D01*
X142086617Y-103458223D01*
X142086619Y-103458222D01*
X142091923Y-103456570D01*
X142096724Y-103453781D01*
X142101543Y-103451663D01*
X142105872Y-103449528D01*
X142116760Y-103445052D01*
X142118603Y-103444367D01*
X142122664Y-103443507D01*
X142127744Y-103441148D01*
X142127747Y-103441147D01*
X142137226Y-103436745D01*
X142141275Y-103434974D01*
X142155939Y-103428945D01*
X142156917Y-103431325D01*
X142200782Y-103421663D01*
X142231416Y-103423843D01*
X142242065Y-103425184D01*
X142288161Y-103433554D01*
X142296381Y-103435411D01*
X142357324Y-103451937D01*
X142362989Y-103453656D01*
X142395146Y-103464484D01*
X142395312Y-103464585D01*
X142403709Y-103467394D01*
X142416571Y-103471697D01*
X142416551Y-103471756D01*
X142416749Y-103471757D01*
X142430956Y-103476541D01*
X142431636Y-103476798D01*
X142434640Y-103478485D01*
X142443696Y-103481146D01*
X142451138Y-103483333D01*
X142454631Y-103484431D01*
X142465481Y-103488061D01*
X142465489Y-103488063D01*
X142470751Y-103489823D01*
X142472286Y-103489975D01*
X142474991Y-103490768D01*
X142476449Y-103491516D01*
X142481347Y-103492756D01*
X142506074Y-103506433D01*
X142508957Y-103508628D01*
X142508961Y-103508634D01*
X142507915Y-103510009D01*
X142519063Y-103516992D01*
X142524269Y-103522176D01*
X142539091Y-103536937D01*
X142549622Y-103540600D01*
X142562061Y-103544927D01*
X142566247Y-103546694D01*
X142566996Y-103547181D01*
X142570050Y-103548299D01*
X142570070Y-103548307D01*
X142577987Y-103551204D01*
X142584734Y-103553959D01*
X142591150Y-103556858D01*
X142591153Y-103556859D01*
X142595237Y-103558705D01*
X142596788Y-103559020D01*
X142600334Y-103560724D01*
X142605800Y-103561958D01*
X142608522Y-103562905D01*
X142610745Y-103563560D01*
X142613759Y-103564293D01*
X142618972Y-103566201D01*
X142627186Y-103567246D01*
X142636460Y-103568878D01*
X142641153Y-103569937D01*
X142647860Y-103571701D01*
X142659566Y-103575225D01*
X142665158Y-103575596D01*
X142666447Y-103575830D01*
X142668043Y-103576006D01*
X142673460Y-103577229D01*
X142682655Y-103577208D01*
X142685789Y-103577201D01*
X142692574Y-103577419D01*
X142700691Y-103577958D01*
X142711369Y-103579298D01*
X142711799Y-103579328D01*
X142717304Y-103580350D01*
X142723737Y-103580076D01*
X142734495Y-103580205D01*
X142735186Y-103580251D01*
X142735192Y-103580251D01*
X142740734Y-103580619D01*
X142746221Y-103579745D01*
X142746509Y-103579732D01*
X142757304Y-103578647D01*
X142760942Y-103578492D01*
X142771798Y-103578662D01*
X142772147Y-103578648D01*
X142777739Y-103579063D01*
X142784022Y-103578100D01*
X142794777Y-103577051D01*
X142800952Y-103576788D01*
X142806316Y-103575322D01*
X142806513Y-103575291D01*
X142817227Y-103573014D01*
X142820978Y-103572439D01*
X142831228Y-103571410D01*
X142832797Y-103571335D01*
X142832801Y-103571334D01*
X142838391Y-103571066D01*
X142843780Y-103569551D01*
X142845109Y-103569335D01*
X142851735Y-103567901D01*
X142853214Y-103567501D01*
X142858712Y-103566659D01*
X142863884Y-103564615D01*
X142864278Y-103564509D01*
X142880031Y-103559801D01*
X142884028Y-103558972D01*
X142884032Y-103558971D01*
X142889515Y-103557833D01*
X142894610Y-103555493D01*
X142895746Y-103555119D01*
X142897151Y-103554548D01*
X142902504Y-103553043D01*
X142913480Y-103547072D01*
X142919413Y-103544099D01*
X142964854Y-103523224D01*
X142969487Y-103521238D01*
X142983521Y-103515644D01*
X142987698Y-103512753D01*
X142987916Y-103512629D01*
X142992375Y-103510581D01*
X142996782Y-103507197D01*
X142996788Y-103507193D01*
X143004442Y-103501315D01*
X143008402Y-103498427D01*
X143029471Y-103483847D01*
X143050790Y-103469095D01*
X143055966Y-103465747D01*
X143062684Y-103461693D01*
X143062685Y-103461692D01*
X143067478Y-103458800D01*
X143071483Y-103454925D01*
X143072051Y-103454510D01*
X143072614Y-103453993D01*
X143077077Y-103450904D01*
X143080822Y-103446812D01*
X143080827Y-103446808D01*
X143086199Y-103440938D01*
X143090383Y-103436637D01*
X143126137Y-103402039D01*
X143131715Y-103397036D01*
X143133412Y-103395626D01*
X143140493Y-103389743D01*
X143143888Y-103385291D01*
X143145151Y-103383974D01*
X143146519Y-103382316D01*
X143150515Y-103378449D01*
X143156771Y-103368850D01*
X143156804Y-103368800D01*
X143161019Y-103362828D01*
X143190405Y-103324290D01*
X143196057Y-103317525D01*
X143198627Y-103314714D01*
X143198632Y-103314707D01*
X143202407Y-103310577D01*
X143205162Y-103305703D01*
X143207044Y-103303108D01*
X143208820Y-103300141D01*
X143212188Y-103295724D01*
X143216136Y-103287053D01*
X143220044Y-103279376D01*
X143226439Y-103268064D01*
X143240652Y-103242920D01*
X143243670Y-103237581D01*
X143249027Y-103229132D01*
X143250179Y-103227504D01*
X143250184Y-103227496D01*
X143253415Y-103222927D01*
X143255543Y-103217744D01*
X143256474Y-103216050D01*
X143258666Y-103211537D01*
X143259504Y-103209568D01*
X143262237Y-103204733D01*
X143264435Y-103197371D01*
X143267714Y-103188101D01*
X143280873Y-103156053D01*
X143286123Y-103143267D01*
X143290865Y-103133330D01*
X143293775Y-103128017D01*
X143295297Y-103122625D01*
X143295308Y-103122597D01*
X143298885Y-103112231D01*
X143298929Y-103112078D01*
X143301039Y-103106938D01*
X143302047Y-103100899D01*
X143304417Y-103090304D01*
X143308391Y-103076223D01*
X143317935Y-103042403D01*
X143321253Y-103032874D01*
X143321515Y-103031971D01*
X143323669Y-103026803D01*
X143324819Y-103020057D01*
X143327132Y-103009814D01*
X143327433Y-103008748D01*
X143327434Y-103008744D01*
X143328943Y-103003396D01*
X143329225Y-102997842D01*
X143329351Y-102997077D01*
X143330471Y-102986927D01*
X143338876Y-102937652D01*
X143339932Y-102933305D01*
X143339922Y-102933303D01*
X143341004Y-102927816D01*
X143342701Y-102922473D01*
X143343488Y-102912848D01*
X143344568Y-102904273D01*
X143345229Y-102900399D01*
X143346163Y-102894924D01*
X143345856Y-102889381D01*
X143346169Y-102883882D01*
X143346228Y-102879345D01*
X143348582Y-102850559D01*
X143349013Y-102846620D01*
X143350310Y-102841525D01*
X143350573Y-102830187D01*
X143350635Y-102827541D01*
X143350937Y-102821776D01*
X143351610Y-102813541D01*
X143352063Y-102808000D01*
X143351316Y-102802806D01*
X143351302Y-102798770D01*
X143351538Y-102788592D01*
X143351596Y-102786063D01*
X143351763Y-102782919D01*
X143352712Y-102778129D01*
X143352511Y-102771515D01*
X143352265Y-102763421D01*
X143352246Y-102758122D01*
X143352453Y-102749163D01*
X143352582Y-102743604D01*
X143351608Y-102738825D01*
X143351418Y-102735639D01*
X143351101Y-102725220D01*
X143351085Y-102721006D01*
X143351810Y-102715707D01*
X143350568Y-102701949D01*
X143350213Y-102696063D01*
X143349967Y-102687996D01*
X143349798Y-102682440D01*
X143348452Y-102677272D01*
X143347955Y-102673017D01*
X143346945Y-102661834D01*
X143346735Y-102658405D01*
X143347139Y-102653396D01*
X143345046Y-102639106D01*
X143344402Y-102633669D01*
X143343619Y-102624993D01*
X143343618Y-102624990D01*
X143343119Y-102619459D01*
X143341568Y-102614688D01*
X143340969Y-102611277D01*
X143338686Y-102595694D01*
X143338479Y-102593837D01*
X143338629Y-102589766D01*
X143337402Y-102583359D01*
X143335583Y-102573860D01*
X143334862Y-102569590D01*
X143333350Y-102559269D01*
X143332545Y-102553774D01*
X143331075Y-102549981D01*
X143330656Y-102548136D01*
X143326446Y-102526154D01*
X143326356Y-102525544D01*
X143326382Y-102522984D01*
X143325184Y-102517519D01*
X143322364Y-102504656D01*
X143321834Y-102502076D01*
X143321303Y-102499302D01*
X143318345Y-102483857D01*
X143317317Y-102481516D01*
X143317157Y-102480910D01*
X143315614Y-102473870D01*
X143315610Y-102473846D01*
X143315613Y-102473387D01*
X143312146Y-102457916D01*
X143310787Y-102451850D01*
X143310688Y-102451405D01*
X143310477Y-102450445D01*
X143306016Y-102430096D01*
X143305817Y-102429672D01*
X143305813Y-102429658D01*
X143298108Y-102395281D01*
X143297862Y-102394150D01*
X143292474Y-102368646D01*
X143288787Y-102351195D01*
X143288376Y-102349139D01*
X143282283Y-102316877D01*
X143281733Y-102313679D01*
X143281628Y-102312997D01*
X143278078Y-102290077D01*
X143277512Y-102285806D01*
X143275508Y-102267682D01*
X143275099Y-102262950D01*
X143274026Y-102245706D01*
X143273854Y-102241497D01*
X143273433Y-102220004D01*
X143273417Y-102217247D01*
X143273430Y-102215737D01*
X143273617Y-102193054D01*
X143273770Y-102180012D01*
X143273805Y-102179381D01*
X143274346Y-102176851D01*
X143274062Y-102158135D01*
X143274058Y-102155468D01*
X143274212Y-102142377D01*
X143274478Y-102142380D01*
X143274356Y-102141455D01*
X143274730Y-102139057D01*
X143273710Y-102124738D01*
X143273471Y-102119205D01*
X143273340Y-102110571D01*
X143273256Y-102105025D01*
X143272988Y-102103926D01*
X143273181Y-102101604D01*
X143271473Y-102089745D01*
X143270715Y-102082687D01*
X143270272Y-102076459D01*
X143270271Y-102076455D01*
X143269877Y-102070921D01*
X143269138Y-102068491D01*
X143269177Y-102066856D01*
X143268056Y-102061377D01*
X143267933Y-102060004D01*
X143281592Y-102000363D01*
X143327699Y-101960141D01*
X143340003Y-101955826D01*
X143352158Y-101952444D01*
X143353515Y-101952077D01*
X143373241Y-101946889D01*
X143374477Y-101946243D01*
X143374644Y-101946188D01*
X143381702Y-101944224D01*
X143381957Y-101944166D01*
X143383614Y-101944063D01*
X143387548Y-101942896D01*
X143387553Y-101942895D01*
X143402976Y-101938320D01*
X143404594Y-101937855D01*
X143419930Y-101933589D01*
X143419941Y-101933585D01*
X143423856Y-101932496D01*
X143425303Y-101931713D01*
X143425596Y-101931611D01*
X143426977Y-101931202D01*
X143427056Y-101931183D01*
X143428439Y-101931077D01*
X143431784Y-101930034D01*
X143431793Y-101930032D01*
X143448122Y-101924941D01*
X143449432Y-101924543D01*
X143466529Y-101919472D01*
X143466546Y-101919466D01*
X143469094Y-101918710D01*
X143469961Y-101918222D01*
X143470180Y-101918142D01*
X143480807Y-101914882D01*
X143482980Y-101914243D01*
X143500364Y-101909353D01*
X143504049Y-101908393D01*
X143516659Y-101905367D01*
X143521033Y-101904422D01*
X143534580Y-101901813D01*
X143538390Y-101901156D01*
X143558367Y-101898114D01*
X143560909Y-101897762D01*
X143571049Y-101896489D01*
X143590836Y-101894005D01*
X143592202Y-101893843D01*
X143628943Y-101889755D01*
X143629366Y-101889732D01*
X143629366Y-101889729D01*
X143651698Y-101887302D01*
X143651727Y-101887299D01*
X143658366Y-101886591D01*
X143673971Y-101884928D01*
X143674165Y-101884861D01*
X143674169Y-101884861D01*
X143691460Y-101882983D01*
X143691527Y-101882979D01*
X143692382Y-101883072D01*
X143703107Y-101881813D01*
X143713654Y-101880575D01*
X143714500Y-101880480D01*
X143733327Y-101878434D01*
X143733343Y-101878431D01*
X143735646Y-101878181D01*
X143736455Y-101877901D01*
X143736536Y-101877888D01*
X143744223Y-101876986D01*
X143744418Y-101876972D01*
X143745929Y-101877114D01*
X143766182Y-101874419D01*
X143767689Y-101874230D01*
X143787790Y-101871870D01*
X143787803Y-101871983D01*
X143791727Y-101871443D01*
X143792199Y-101871475D01*
X143810875Y-101868504D01*
X143813372Y-101868140D01*
X143831951Y-101865668D01*
X143831959Y-101865730D01*
X143832589Y-101865626D01*
X143833541Y-101865653D01*
X143838884Y-101864585D01*
X143838905Y-101864581D01*
X143850031Y-101862356D01*
X143853888Y-101861664D01*
X143867175Y-101859550D01*
X143867184Y-101859548D01*
X143870284Y-101859055D01*
X143870465Y-101858982D01*
X143872064Y-101858937D01*
X143883615Y-101855934D01*
X143885828Y-101855359D01*
X143891309Y-101854100D01*
X143905067Y-101851348D01*
X143906296Y-101850797D01*
X143908783Y-101850546D01*
X143914083Y-101848751D01*
X143914089Y-101848750D01*
X143920089Y-101846718D01*
X143926912Y-101844678D01*
X143938299Y-101841718D01*
X143940299Y-101840680D01*
X143942830Y-101840229D01*
X143953283Y-101835779D01*
X143960300Y-101833101D01*
X143970901Y-101829512D01*
X143974050Y-101827578D01*
X143975467Y-101826896D01*
X143975468Y-101826896D01*
X143978507Y-101825433D01*
X143979756Y-101824889D01*
X143983219Y-101823965D01*
X143988168Y-101821347D01*
X143988539Y-101821151D01*
X143996038Y-101817579D01*
X144002067Y-101815012D01*
X144005523Y-101812510D01*
X144007410Y-101811523D01*
X144016821Y-101806994D01*
X144017751Y-101806253D01*
X144018807Y-101805719D01*
X144024058Y-101803773D01*
X144031260Y-101799044D01*
X144039286Y-101794301D01*
X144041836Y-101792952D01*
X144041840Y-101792949D01*
X144046749Y-101790352D01*
X144050958Y-101786727D01*
X144053791Y-101784794D01*
X144060928Y-101780471D01*
X144061866Y-101779824D01*
X144066806Y-101777186D01*
X144071029Y-101773507D01*
X144073774Y-101771615D01*
X144076551Y-101769308D01*
X144081195Y-101766260D01*
X144085042Y-101762257D01*
X144085047Y-101762253D01*
X144085639Y-101761637D01*
X144098050Y-101750948D01*
X144099457Y-101749690D01*
X144104026Y-101746450D01*
X144107755Y-101742267D01*
X144109416Y-101740781D01*
X144112379Y-101737852D01*
X144114018Y-101736064D01*
X144118205Y-101732417D01*
X144121476Y-101727930D01*
X144122482Y-101726833D01*
X144128977Y-101719039D01*
X144133225Y-101715474D01*
X144139566Y-101707071D01*
X144144685Y-101700834D01*
X144147608Y-101697555D01*
X144151569Y-101693111D01*
X144154249Y-101688248D01*
X144155318Y-101686738D01*
X144156783Y-101684883D01*
X144158110Y-101683682D01*
X144167908Y-101669628D01*
X144170059Y-101666663D01*
X144180264Y-101653139D01*
X144181715Y-101649907D01*
X144182426Y-101648802D01*
X144189926Y-101638045D01*
X144190936Y-101636624D01*
X144207381Y-101613901D01*
X144209789Y-101610711D01*
X144226890Y-101588985D01*
X144229318Y-101586020D01*
X144244742Y-101567913D01*
X144247816Y-101564470D01*
X144257328Y-101554304D01*
X144257355Y-101554275D01*
X144260257Y-101551176D01*
X144263472Y-101547899D01*
X144264603Y-101546798D01*
X144269031Y-101543370D01*
X144277122Y-101533485D01*
X144281444Y-101528550D01*
X144290058Y-101519352D01*
X144291083Y-101517597D01*
X144291674Y-101516915D01*
X144295087Y-101512653D01*
X144299053Y-101508708D01*
X144299717Y-101507654D01*
X144302694Y-101504584D01*
X144305055Y-101501416D01*
X144313537Y-101494184D01*
X144318044Y-101483990D01*
X144319553Y-101480577D01*
X144320909Y-101477912D01*
X144327211Y-101471135D01*
X144333695Y-101450218D01*
X144337700Y-101439528D01*
X144341153Y-101431717D01*
X144341225Y-101431341D01*
X144341333Y-101431125D01*
X144341338Y-101430757D01*
X144342227Y-101426141D01*
X144343887Y-101420824D01*
X144344645Y-101421061D01*
X144345045Y-101417140D01*
X144349455Y-101404588D01*
X144349456Y-101404584D01*
X144352878Y-101394845D01*
X144352346Y-101390054D01*
X144354229Y-101383979D01*
X144352695Y-101373683D01*
X144352858Y-101373161D01*
X144352912Y-101372687D01*
X144353003Y-101372697D01*
X144360341Y-101349204D01*
X144358828Y-101348729D01*
X144361422Y-101340473D01*
X144368870Y-101323064D01*
X144368969Y-101322720D01*
X144374354Y-101312958D01*
X144374763Y-101305607D01*
X144375629Y-101299544D01*
X144375686Y-101299346D01*
X144376795Y-101294454D01*
X144376558Y-101294408D01*
X144377623Y-101288915D01*
X144379302Y-101283571D01*
X144380087Y-101273581D01*
X144381094Y-101265276D01*
X144386454Y-101232673D01*
X144384465Y-101225900D01*
X144385935Y-101218136D01*
X144383053Y-101207365D01*
X144383053Y-101207362D01*
X144379200Y-101192960D01*
X144378696Y-101190799D01*
X144378333Y-101186494D01*
X144376646Y-101181199D01*
X144375605Y-101175962D01*
X144374082Y-101169369D01*
X144373793Y-101168510D01*
X144373373Y-101165647D01*
X144372299Y-101164058D01*
X144371883Y-101162819D01*
X144370774Y-101151725D01*
X144364963Y-101142209D01*
X144362352Y-101134431D01*
X144361042Y-101132208D01*
X144357658Y-101121585D01*
X144350001Y-101113480D01*
X144349935Y-101113367D01*
X144343445Y-101105310D01*
X144342442Y-101103418D01*
X144338908Y-101099320D01*
X144336512Y-101095613D01*
X144333636Y-101090903D01*
X144323222Y-101073848D01*
X144313860Y-101067794D01*
X144309854Y-101063682D01*
X144305231Y-101060277D01*
X144297948Y-101051834D01*
X144274805Y-101041762D01*
X144270530Y-101039770D01*
X144265872Y-101036758D01*
X144260604Y-101034847D01*
X144258134Y-101033620D01*
X144248129Y-101027901D01*
X144246912Y-101027108D01*
X144237572Y-101021022D01*
X144222733Y-101019098D01*
X144222814Y-101018473D01*
X144221298Y-101018473D01*
X144214282Y-101015420D01*
X144201743Y-101015897D01*
X144201243Y-101015916D01*
X144194130Y-101015377D01*
X144192385Y-101015160D01*
X144188862Y-101013614D01*
X144182228Y-101013846D01*
X144174678Y-101012867D01*
X144171267Y-101012425D01*
X144169840Y-101012240D01*
X144169330Y-101012290D01*
X144169301Y-101012288D01*
X144157092Y-101010769D01*
X144157089Y-101010769D01*
X144146028Y-101009393D01*
X144135463Y-101012950D01*
X144124372Y-101014069D01*
X144124048Y-101010852D01*
X144081095Y-101011312D01*
X144053782Y-100995046D01*
X144053369Y-100995725D01*
X144044204Y-100990150D01*
X144025576Y-100978820D01*
X144021639Y-100976425D01*
X144016877Y-100973338D01*
X144010034Y-100968618D01*
X144010031Y-100968616D01*
X144005455Y-100965460D01*
X144000672Y-100963552D01*
X144000090Y-100963220D01*
X143999536Y-100962981D01*
X143995018Y-100960233D01*
X143989327Y-100958344D01*
X143986615Y-100957444D01*
X143978577Y-100953459D01*
X143978532Y-100953574D01*
X143968165Y-100949481D01*
X143958964Y-100943183D01*
X143947944Y-100941498D01*
X143937573Y-100937404D01*
X143938767Y-100934380D01*
X143900429Y-100915100D01*
X143893292Y-100907209D01*
X143893178Y-100907096D01*
X143889653Y-100902736D01*
X143886737Y-100900450D01*
X143884425Y-100897793D01*
X143879934Y-100894516D01*
X143879692Y-100894294D01*
X143870869Y-100885079D01*
X143869236Y-100883137D01*
X143869234Y-100883135D01*
X143862057Y-100874602D01*
X143837477Y-100863537D01*
X143829395Y-100857640D01*
X143821961Y-100856274D01*
X143821222Y-100855625D01*
X143821000Y-100856096D01*
X143812543Y-100852107D01*
X143807603Y-100849391D01*
X143805858Y-100848773D01*
X143796446Y-100842809D01*
X143791635Y-100842247D01*
X143782407Y-100837895D01*
X143771262Y-100837982D01*
X143771260Y-100837982D01*
X143767487Y-100838012D01*
X143755969Y-100836920D01*
X143755946Y-100837185D01*
X143750407Y-100836714D01*
X143744960Y-100835627D01*
X143739404Y-100835778D01*
X143736636Y-100835543D01*
X143734165Y-100835535D01*
X143728607Y-100834886D01*
X143723052Y-100835498D01*
X143723047Y-100835498D01*
X143718341Y-100836017D01*
X143711831Y-100836464D01*
X143711504Y-100836431D01*
X143710540Y-100836552D01*
X143710207Y-100836575D01*
X143676863Y-100837486D01*
X143670782Y-100840620D01*
X143661368Y-100842079D01*
X143659002Y-100842212D01*
X143653412Y-100841892D01*
X143647720Y-100842863D01*
X143636595Y-100844117D01*
X143636546Y-100844120D01*
X143636540Y-100844121D01*
X143630998Y-100844430D01*
X143629941Y-100844734D01*
X143617648Y-100845688D01*
X143614402Y-100845647D01*
X143602784Y-100845498D01*
X143592676Y-100850204D01*
X143567177Y-100862075D01*
X143563331Y-100863767D01*
X143527058Y-100878815D01*
X143523056Y-100883296D01*
X143520452Y-100884305D01*
X143514182Y-100891000D01*
X143503663Y-100902231D01*
X143500595Y-100905365D01*
X143498945Y-100906977D01*
X143494560Y-100910392D01*
X143486359Y-100920436D01*
X143486246Y-100920574D01*
X143480422Y-100924322D01*
X143481781Y-100925595D01*
X143473764Y-100934155D01*
X143471305Y-100938384D01*
X143458765Y-100950868D01*
X143454021Y-100956373D01*
X143445049Y-100962986D01*
X143439832Y-100972836D01*
X143439830Y-100972839D01*
X143433185Y-100985387D01*
X143432942Y-100985791D01*
X143432847Y-100986026D01*
X143430663Y-100990150D01*
X143430659Y-100990156D01*
X143430509Y-100990076D01*
X143430238Y-100990776D01*
X143427241Y-100995198D01*
X143424185Y-100998232D01*
X143423092Y-101001317D01*
X143413762Y-101015078D01*
X143412126Y-101026102D01*
X143411661Y-101027297D01*
X143410393Y-101033421D01*
X143409557Y-101036549D01*
X143407856Y-101042228D01*
X143397899Y-101072169D01*
X143361595Y-101121420D01*
X143320982Y-101138453D01*
X143300759Y-101141983D01*
X143294555Y-101143066D01*
X143293679Y-101143215D01*
X143274228Y-101146424D01*
X143272946Y-101146626D01*
X143232405Y-101152756D01*
X143230688Y-101153001D01*
X143185499Y-101159026D01*
X143184030Y-101159210D01*
X143175341Y-101160237D01*
X143138973Y-101164533D01*
X143137358Y-101164710D01*
X143103049Y-101168168D01*
X143101239Y-101168243D01*
X143100850Y-101168192D01*
X143099602Y-101168311D01*
X143099597Y-101168311D01*
X143080076Y-101170169D01*
X143078878Y-101170276D01*
X143058272Y-101171975D01*
X143057086Y-101172350D01*
X143056946Y-101172370D01*
X143008269Y-101177004D01*
X143005623Y-101177173D01*
X143001031Y-101176800D01*
X142985980Y-101179000D01*
X142981055Y-101179593D01*
X142971619Y-101180491D01*
X142971608Y-101180493D01*
X142966074Y-101181020D01*
X142961702Y-101182465D01*
X142959076Y-101182932D01*
X142919353Y-101188737D01*
X142914450Y-101189329D01*
X142908847Y-101189229D01*
X142895829Y-101191978D01*
X142889704Y-101193070D01*
X142882201Y-101194166D01*
X142882190Y-101194169D01*
X142876694Y-101194972D01*
X142871505Y-101196981D01*
X142871334Y-101197026D01*
X142866609Y-101198146D01*
X142837281Y-101204337D01*
X142833447Y-101205067D01*
X142828498Y-101205909D01*
X142822904Y-101206219D01*
X142811997Y-101209372D01*
X142811624Y-101209480D01*
X142804584Y-101211239D01*
X142793254Y-101213631D01*
X142788208Y-101215959D01*
X142783175Y-101217628D01*
X142779512Y-101218764D01*
X142758665Y-101224791D01*
X142754924Y-101225595D01*
X142754970Y-101225780D01*
X142749531Y-101227128D01*
X142743981Y-101227854D01*
X142733128Y-101231889D01*
X142726130Y-101234198D01*
X142720510Y-101235823D01*
X142715169Y-101237367D01*
X142710305Y-101240061D01*
X142705175Y-101242191D01*
X142705097Y-101242004D01*
X142701622Y-101243602D01*
X142694435Y-101246274D01*
X142687697Y-101248287D01*
X142684462Y-101249424D01*
X142679002Y-101250674D01*
X142673960Y-101253116D01*
X142673957Y-101253117D01*
X142671352Y-101254379D01*
X142662696Y-101258074D01*
X142660110Y-101259035D01*
X142660107Y-101259036D01*
X142654895Y-101260974D01*
X142650247Y-101264021D01*
X142647376Y-101265472D01*
X142641107Y-101269025D01*
X142633033Y-101272936D01*
X142622769Y-101277214D01*
X142622463Y-101277322D01*
X142622461Y-101277323D01*
X142617179Y-101279184D01*
X142612365Y-101282234D01*
X142602612Y-101287663D01*
X142602577Y-101287685D01*
X142597572Y-101290109D01*
X142592876Y-101293870D01*
X142583992Y-101300214D01*
X142575496Y-101305598D01*
X142567428Y-101310037D01*
X142566036Y-101310899D01*
X142560972Y-101313291D01*
X142556574Y-101316756D01*
X142556565Y-101316762D01*
X142555168Y-101317863D01*
X142546895Y-101323721D01*
X142545500Y-101324605D01*
X142545496Y-101324608D01*
X142540806Y-101327580D01*
X142536895Y-101331520D01*
X142535745Y-101332444D01*
X142528780Y-101338656D01*
X142520465Y-101345207D01*
X142516671Y-101348051D01*
X142515988Y-101348538D01*
X142511091Y-101351253D01*
X142501389Y-101359975D01*
X142496494Y-101364095D01*
X142486411Y-101372039D01*
X142482921Y-101376363D01*
X142482196Y-101377079D01*
X142478792Y-101380288D01*
X142476174Y-101382642D01*
X142465141Y-101392559D01*
X142462629Y-101394741D01*
X142419045Y-101431341D01*
X142409345Y-101439486D01*
X142400273Y-101446258D01*
X142351579Y-101478446D01*
X142342818Y-101483611D01*
X142287428Y-101512540D01*
X142285653Y-101513445D01*
X142284021Y-101514256D01*
X142274266Y-101519103D01*
X142270585Y-101520600D01*
X142270654Y-101520753D01*
X142265558Y-101523063D01*
X142260224Y-101524786D01*
X142255411Y-101527662D01*
X142255410Y-101527662D01*
X142250669Y-101530494D01*
X142243941Y-101534169D01*
X142239085Y-101536581D01*
X142239082Y-101536583D01*
X142234112Y-101539052D01*
X142229812Y-101542567D01*
X142229352Y-101542864D01*
X142219343Y-101548382D01*
X142218139Y-101549116D01*
X142213057Y-101551474D01*
X142208636Y-101554909D01*
X142207513Y-101555593D01*
X142201858Y-101559458D01*
X142200654Y-101560374D01*
X142195881Y-101563226D01*
X142191864Y-101567065D01*
X142187440Y-101570433D01*
X142187361Y-101570330D01*
X142182650Y-101573963D01*
X142182775Y-101574122D01*
X142178370Y-101577569D01*
X142173596Y-101580503D01*
X142169602Y-101584431D01*
X142169323Y-101584649D01*
X142161868Y-101591170D01*
X142161512Y-101591517D01*
X142157124Y-101594926D01*
X142153603Y-101599227D01*
X142150943Y-101601819D01*
X142148836Y-101603323D01*
X142145213Y-101607412D01*
X142094596Y-101631545D01*
X142079934Y-101633873D01*
X142079823Y-101633891D01*
X142058135Y-101637309D01*
X142058129Y-101637310D01*
X142057801Y-101637362D01*
X142057697Y-101637404D01*
X142057695Y-101637404D01*
X142053659Y-101638045D01*
X142044684Y-101639470D01*
X142044295Y-101639514D01*
X142042245Y-101639416D01*
X142022949Y-101642899D01*
X142020924Y-101643242D01*
X142006552Y-101645523D01*
X142006545Y-101645524D01*
X142001780Y-101646281D01*
X141999875Y-101647046D01*
X141999511Y-101647129D01*
X141992468Y-101648399D01*
X141991627Y-101648516D01*
X141988627Y-101648468D01*
X141983154Y-101649634D01*
X141983147Y-101649635D01*
X141970982Y-101652228D01*
X141967986Y-101652818D01*
X141950377Y-101655996D01*
X141947622Y-101657170D01*
X141946774Y-101657387D01*
X141943287Y-101658130D01*
X141942103Y-101658335D01*
X141938678Y-101658404D01*
X141933249Y-101659768D01*
X141933245Y-101659769D01*
X141921905Y-101662619D01*
X141918410Y-101663431D01*
X141901656Y-101667001D01*
X141898551Y-101668441D01*
X141897370Y-101668786D01*
X141894317Y-101669553D01*
X141893441Y-101669736D01*
X141890404Y-101669894D01*
X141876592Y-101673838D01*
X141873153Y-101674820D01*
X141870099Y-101675640D01*
X141858240Y-101678620D01*
X141858238Y-101678621D01*
X141852849Y-101679975D01*
X141850143Y-101681351D01*
X141849268Y-101681640D01*
X141845140Y-101682818D01*
X141843711Y-101683226D01*
X141843391Y-101683301D01*
X141841466Y-101683440D01*
X141837055Y-101684794D01*
X141837057Y-101684794D01*
X141822555Y-101689247D01*
X141820678Y-101689803D01*
X141801859Y-101695176D01*
X141800169Y-101696104D01*
X141799852Y-101696218D01*
X141790397Y-101699121D01*
X141781655Y-101701805D01*
X141780546Y-101702139D01*
X141748975Y-101711429D01*
X141743227Y-101712934D01*
X141730107Y-101715951D01*
X141720826Y-101717623D01*
X141718269Y-101717959D01*
X141707307Y-101718784D01*
X141704131Y-101718846D01*
X141694780Y-101718586D01*
X141679941Y-101717470D01*
X141673989Y-101716841D01*
X141641066Y-101712346D01*
X141638777Y-101712006D01*
X141621035Y-101709157D01*
X141621019Y-101709154D01*
X141607246Y-101706940D01*
X141607188Y-101706928D01*
X141606502Y-101706655D01*
X141585066Y-101703372D01*
X141584437Y-101703273D01*
X141569033Y-101700797D01*
X141569218Y-101699645D01*
X141568947Y-101699542D01*
X141568779Y-101700702D01*
X141566001Y-101700298D01*
X141564645Y-101700092D01*
X141563266Y-101699870D01*
X141563386Y-101699121D01*
X141563203Y-101699111D01*
X141563092Y-101699877D01*
X141547397Y-101697600D01*
X141546654Y-101697489D01*
X141535104Y-101695721D01*
X141535172Y-101695277D01*
X141534787Y-101695263D01*
X141534412Y-101695126D01*
X141534370Y-101695446D01*
X141526485Y-101694401D01*
X141526533Y-101694036D01*
X141526030Y-101694015D01*
X141525549Y-101693895D01*
X141525499Y-101694270D01*
X141525497Y-101694270D01*
X141513538Y-101692684D01*
X141512408Y-101692526D01*
X141511627Y-101692412D01*
X141471641Y-101675066D01*
X141470663Y-101673838D01*
X141460622Y-101668995D01*
X141460621Y-101668994D01*
X141449154Y-101663463D01*
X141445658Y-101661451D01*
X141445597Y-101661567D01*
X141440671Y-101658986D01*
X141436073Y-101655875D01*
X141430899Y-101653865D01*
X141430895Y-101653863D01*
X141426086Y-101651995D01*
X141418933Y-101648887D01*
X141388476Y-101634196D01*
X141380247Y-101634189D01*
X141372574Y-101631208D01*
X141338837Y-101633845D01*
X141331056Y-101634146D01*
X141297229Y-101634116D01*
X141289810Y-101637679D01*
X141281605Y-101638320D01*
X141252360Y-101655321D01*
X141245483Y-101658963D01*
X141214973Y-101673614D01*
X141209831Y-101680044D01*
X141202718Y-101684179D01*
X141183737Y-101712182D01*
X141179121Y-101718445D01*
X141157984Y-101744876D01*
X141156139Y-101752899D01*
X141151522Y-101759711D01*
X141146981Y-101790352D01*
X141146565Y-101793156D01*
X141145118Y-101800823D01*
X141144440Y-101803773D01*
X141142678Y-101811438D01*
X141142678Y-101817038D01*
X141142047Y-101822599D01*
X141141905Y-101822583D01*
X141141608Y-101826605D01*
X141138145Y-101849972D01*
X141141456Y-101860622D01*
X141142315Y-101871734D01*
X141141496Y-101871797D01*
X141142678Y-101879586D01*
X141142678Y-101978650D01*
X141140329Y-101997773D01*
X141140275Y-102000444D01*
X141137577Y-102011261D01*
X136143440Y-102011261D01*
X135990212Y-101952442D01*
X135987715Y-101951773D01*
X135987709Y-101951771D01*
X135668740Y-101866304D01*
X135668735Y-101866303D01*
X135666231Y-101865632D01*
X135601370Y-101855359D01*
X135337516Y-101813568D01*
X135337508Y-101813567D01*
X135334950Y-101813162D01*
X135006046Y-101795925D01*
X135004910Y-101795831D01*
X135000716Y-101794858D01*
X135000360Y-101794858D01*
X135000358Y-101794857D01*
X135000000Y-101794857D01*
X134994588Y-101796091D01*
X134989061Y-101796714D01*
X134988995Y-101796124D01*
X134968132Y-101797720D01*
X134829375Y-101787797D01*
X134750888Y-101782184D01*
X134736912Y-101780173D01*
X134499800Y-101728592D01*
X134486253Y-101724615D01*
X134379488Y-101684794D01*
X134258887Y-101639812D01*
X134246038Y-101633944D01*
X134033062Y-101517649D01*
X134021180Y-101510013D01*
X133826923Y-101364595D01*
X133816247Y-101355345D01*
X133644655Y-101183753D01*
X133635405Y-101173077D01*
X133489987Y-100978820D01*
X133482351Y-100966938D01*
X133366056Y-100753962D01*
X133360188Y-100741113D01*
X133275386Y-100513750D01*
X133271407Y-100500197D01*
X133219827Y-100263091D01*
X133217816Y-100249109D01*
X133214313Y-100200122D01*
X133200505Y-100007061D01*
X133200505Y-99992938D01*
X133217816Y-99750891D01*
X133219827Y-99736909D01*
X133263941Y-99534126D01*
X133271408Y-99499800D01*
X133275386Y-99486250D01*
X133280499Y-99472543D01*
X133340687Y-99311170D01*
X133360188Y-99258887D01*
X133366056Y-99246038D01*
X133482351Y-99033062D01*
X133489987Y-99021180D01*
X133635405Y-98826923D01*
X133644655Y-98816247D01*
X133816247Y-98644655D01*
X133826923Y-98635405D01*
X134021180Y-98489987D01*
X134033062Y-98482351D01*
X134246038Y-98366056D01*
X134258887Y-98360188D01*
X134396890Y-98308716D01*
X134486253Y-98275385D01*
X134499800Y-98271408D01*
X134736912Y-98219827D01*
X134750888Y-98217816D01*
X134967873Y-98202298D01*
X134977628Y-98203054D01*
X134977629Y-98202626D01*
X134988779Y-98202645D01*
X134999642Y-98205143D01*
X135010514Y-98202683D01*
X135010515Y-98202683D01*
X135010904Y-98202595D01*
X135011434Y-98202475D01*
X135033360Y-98200035D01*
X135034298Y-98200036D01*
X135034301Y-98200035D01*
X135045449Y-98200045D01*
X135056106Y-98194928D01*
X135077110Y-98187614D01*
X135077765Y-98187466D01*
X135077767Y-98187465D01*
X135088639Y-98185005D01*
X135098106Y-98177488D01*
X135116809Y-98165779D01*
X135127705Y-98160547D01*
X135134666Y-98151843D01*
X135134667Y-98151842D01*
X135135087Y-98151316D01*
X135150843Y-98135615D01*
X135151367Y-98135199D01*
X135151369Y-98135197D01*
X135160100Y-98128264D01*
X135165370Y-98117387D01*
X135177147Y-98098722D01*
X135177731Y-98097992D01*
X135177731Y-98097991D01*
X135184694Y-98089285D01*
X135187192Y-98078422D01*
X135187194Y-98078417D01*
X135187344Y-98077764D01*
X135194733Y-98056780D01*
X135195025Y-98056178D01*
X135195025Y-98056177D01*
X135199885Y-98046147D01*
X135199946Y-98022959D01*
X135201667Y-98022964D01*
X135201643Y-98022723D01*
X135200000Y-98022723D01*
X135200000Y-98002242D01*
X135200122Y-97955703D01*
X135200122Y-97955702D01*
X135200124Y-97954900D01*
X135200005Y-97954650D01*
X135200000Y-97954610D01*
X135200000Y-87005877D01*
X135200035Y-86965700D01*
X135200045Y-86954551D01*
X135194815Y-86943659D01*
X135187537Y-86922817D01*
X135187330Y-86921907D01*
X135187328Y-86921904D01*
X135184850Y-86911038D01*
X135177480Y-86901789D01*
X135165666Y-86882954D01*
X135165375Y-86882347D01*
X135165372Y-86882343D01*
X135160547Y-86872295D01*
X135151107Y-86864746D01*
X135135516Y-86849128D01*
X135127985Y-86839677D01*
X135117337Y-86834541D01*
X135098522Y-86822692D01*
X135097995Y-86822270D01*
X135097990Y-86822268D01*
X135089285Y-86815306D01*
X135077508Y-86812598D01*
X135056682Y-86805285D01*
X135055836Y-86804877D01*
X135045798Y-86800035D01*
X135033982Y-86800025D01*
X135011880Y-86797506D01*
X135011226Y-86797356D01*
X135011225Y-86797356D01*
X135000358Y-86794857D01*
X134989483Y-86797318D01*
X134978337Y-86797298D01*
X134978338Y-86796985D01*
X134968388Y-86797739D01*
X134750888Y-86782184D01*
X134736912Y-86780173D01*
X134499800Y-86728592D01*
X134486253Y-86724615D01*
X134396890Y-86691284D01*
X134258887Y-86639812D01*
X134246038Y-86633944D01*
X134033062Y-86517649D01*
X134021180Y-86510013D01*
X133826923Y-86364595D01*
X133816247Y-86355345D01*
X133644655Y-86183753D01*
X133635405Y-86173077D01*
X133489987Y-85978820D01*
X133482351Y-85966938D01*
X133366056Y-85753962D01*
X133360188Y-85741113D01*
X133275386Y-85513750D01*
X133271407Y-85500197D01*
X133219827Y-85263091D01*
X133217816Y-85249109D01*
X133200505Y-85007062D01*
X133200505Y-84992938D01*
X133217816Y-84750891D01*
X133219827Y-84736909D01*
X133271407Y-84499803D01*
X133275386Y-84486250D01*
X133360188Y-84258887D01*
X133366056Y-84246038D01*
X133482351Y-84033062D01*
X133489987Y-84021180D01*
X133635405Y-83826923D01*
X133644655Y-83816247D01*
X133816247Y-83644655D01*
X133826923Y-83635405D01*
X134021180Y-83489987D01*
X134033062Y-83482351D01*
X134246038Y-83366056D01*
X134258887Y-83360188D01*
X134396890Y-83308716D01*
X134486253Y-83275385D01*
X134499800Y-83271408D01*
X134736912Y-83219827D01*
X134750888Y-83217816D01*
X134967873Y-83202298D01*
X134977628Y-83203054D01*
X134977629Y-83202626D01*
X134988779Y-83202645D01*
X134999642Y-83205143D01*
X135010514Y-83202683D01*
X135010515Y-83202683D01*
X135011583Y-83202441D01*
X135033432Y-83200000D01*
X139966040Y-83200000D01*
X139988227Y-83202518D01*
G37*
%TD.AperFunction*%
%TD*%
M02*
