%FSLAX45Y45*%
G04 Gerber Fmt 4.5, Leading zero omitted, Abs format (unit mm)*
G04 Created by KiCad (PCBNEW 6.0.1-79c1e3a40b~116~ubuntu20.04.1) date 2022-01-22 22:37:36*
%MOMM*%
%LPD*%
G01*
G04 APERTURE LIST*
%TA.AperFunction,Profile*%
%ADD10C,0.100000*%
%TD*%
%ADD11C,0.200000*%
%ADD12C,0.040000*%
%ADD13C,0.085000*%
%ADD14C,0.220000*%
G04 APERTURE END LIST*
D10*
X14000000Y-8250000D02*
X14000000Y-6750000D01*
X15750000Y-8500000D02*
X14250000Y-8500000D01*
X16000000Y-6750000D02*
X16000000Y-8250000D01*
X14250000Y-6500000D02*
X15750000Y-6500000D01*
X14000000Y-8250000D02*
G75*
G03*
X14250000Y-8500000I250000J0D01*
G01*
X15750000Y-8500000D02*
G75*
G03*
X16000000Y-8250000I0J250000D01*
G01*
X16000000Y-6750000D02*
G75*
G03*
X15750000Y-6500000I-250000J0D01*
G01*
X14250000Y-6500000D02*
G75*
G03*
X14000000Y-6750000I0J-250000D01*
G01*
D11*
D12*
X14030000Y-7230000D02*
X14070000Y-7270000D01*
X14070000Y-7230000D02*
X14030000Y-7270000D01*
X14030000Y-7330000D02*
X14070000Y-7370000D01*
X14070000Y-7330000D02*
X14030000Y-7370000D01*
X14030000Y-7630000D02*
X14070000Y-7670000D01*
X14070000Y-7630000D02*
X14030000Y-7670000D01*
X14030000Y-7730000D02*
X14070000Y-7770000D01*
X14070000Y-7730000D02*
X14030000Y-7770000D01*
X14080000Y-7280000D02*
X14120000Y-7320000D01*
X14120000Y-7280000D02*
X14080000Y-7320000D01*
X14080000Y-7680000D02*
X14120000Y-7720000D01*
X14120000Y-7680000D02*
X14080000Y-7720000D01*
X14130000Y-7230000D02*
X14170000Y-7270000D01*
X14170000Y-7230000D02*
X14130000Y-7270000D01*
X14130000Y-7330000D02*
X14170000Y-7370000D01*
X14170000Y-7330000D02*
X14130000Y-7370000D01*
X14130000Y-7630000D02*
X14170000Y-7670000D01*
X14170000Y-7630000D02*
X14130000Y-7670000D01*
X14130000Y-7730000D02*
X14170000Y-7770000D01*
X14170000Y-7730000D02*
X14130000Y-7770000D01*
X14180000Y-7280000D02*
X14220000Y-7320000D01*
X14220000Y-7280000D02*
X14180000Y-7320000D01*
X14180000Y-7680000D02*
X14220000Y-7720000D01*
X14220000Y-7680000D02*
X14180000Y-7720000D01*
X14230000Y-7230000D02*
X14270000Y-7270000D01*
X14270000Y-7230000D02*
X14230000Y-7270000D01*
X14230000Y-7330000D02*
X14270000Y-7370000D01*
X14270000Y-7330000D02*
X14230000Y-7370000D01*
X14230000Y-7630000D02*
X14270000Y-7670000D01*
X14270000Y-7630000D02*
X14230000Y-7670000D01*
X14230000Y-7730000D02*
X14270000Y-7770000D01*
X14270000Y-7730000D02*
X14230000Y-7770000D01*
X14331000Y-7676200D02*
X14371000Y-7716200D01*
X14371000Y-7676200D02*
X14331000Y-7716200D01*
X14369100Y-7346000D02*
X14409100Y-7386000D01*
X14409100Y-7346000D02*
X14369100Y-7386000D01*
X14369100Y-7612700D02*
X14409100Y-7652700D01*
X14409100Y-7612700D02*
X14369100Y-7652700D01*
X14407200Y-7282500D02*
X14447200Y-7322500D01*
X14447200Y-7282500D02*
X14407200Y-7322500D01*
X14407200Y-7676200D02*
X14447200Y-7716200D01*
X14447200Y-7676200D02*
X14407200Y-7716200D01*
X14432600Y-6990400D02*
X14472600Y-7030400D01*
X14472600Y-6990400D02*
X14432600Y-7030400D01*
X14432600Y-7066600D02*
X14472600Y-7106600D01*
X14472600Y-7066600D02*
X14432600Y-7106600D01*
X14445300Y-7346000D02*
X14485300Y-7386000D01*
X14485300Y-7346000D02*
X14445300Y-7386000D01*
X14445300Y-7612700D02*
X14485300Y-7652700D01*
X14485300Y-7612700D02*
X14445300Y-7652700D01*
X14483400Y-7282500D02*
X14523400Y-7322500D01*
X14523400Y-7282500D02*
X14483400Y-7322500D01*
X14496100Y-6952300D02*
X14536100Y-6992300D01*
X14536100Y-6952300D02*
X14496100Y-6992300D01*
X14496100Y-7028500D02*
X14536100Y-7068500D01*
X14536100Y-7028500D02*
X14496100Y-7068500D01*
X14496100Y-7104700D02*
X14536100Y-7144700D01*
X14536100Y-7104700D02*
X14496100Y-7144700D01*
X14521500Y-7219000D02*
X14561500Y-7259000D01*
X14561500Y-7219000D02*
X14521500Y-7259000D01*
X14521500Y-7346000D02*
X14561500Y-7386000D01*
X14561500Y-7346000D02*
X14521500Y-7386000D01*
X14559600Y-7282500D02*
X14599600Y-7322500D01*
X14599600Y-7282500D02*
X14559600Y-7322500D01*
X14572300Y-7866700D02*
X14612300Y-7906700D01*
X14612300Y-7866700D02*
X14572300Y-7906700D01*
X14585000Y-7790500D02*
X14625000Y-7830500D01*
X14625000Y-7790500D02*
X14585000Y-7830500D01*
X14597700Y-7219000D02*
X14637700Y-7259000D01*
X14637700Y-7219000D02*
X14597700Y-7259000D01*
X14597700Y-7346000D02*
X14637700Y-7386000D01*
X14637700Y-7346000D02*
X14597700Y-7386000D01*
X14635800Y-7282500D02*
X14675800Y-7322500D01*
X14675800Y-7282500D02*
X14635800Y-7322500D01*
X14648500Y-7841300D02*
X14688500Y-7881300D01*
X14688500Y-7841300D02*
X14648500Y-7881300D01*
X14673900Y-7346000D02*
X14713900Y-7386000D01*
X14713900Y-7346000D02*
X14673900Y-7386000D01*
X14686600Y-7701600D02*
X14726600Y-7741600D01*
X14726600Y-7701600D02*
X14686600Y-7741600D01*
X14737400Y-7841300D02*
X14777400Y-7881300D01*
X14777400Y-7841300D02*
X14737400Y-7881300D01*
X14800900Y-7790500D02*
X14840900Y-7830500D01*
X14840900Y-7790500D02*
X14800900Y-7830500D01*
X14813600Y-7866700D02*
X14853600Y-7906700D01*
X14853600Y-7866700D02*
X14813600Y-7906700D01*
X14915200Y-7041200D02*
X14955200Y-7081200D01*
X14955200Y-7041200D02*
X14915200Y-7081200D01*
X14915200Y-7117400D02*
X14955200Y-7157400D01*
X14955200Y-7117400D02*
X14915200Y-7157400D01*
X14915200Y-7193600D02*
X14955200Y-7233600D01*
X14955200Y-7193600D02*
X14915200Y-7233600D01*
X14915200Y-7269800D02*
X14955200Y-7309800D01*
X14955200Y-7269800D02*
X14915200Y-7309800D01*
X14915200Y-7346000D02*
X14955200Y-7386000D01*
X14955200Y-7346000D02*
X14915200Y-7386000D01*
X14915200Y-7612700D02*
X14955200Y-7652700D01*
X14955200Y-7612700D02*
X14915200Y-7652700D01*
X14915200Y-7688900D02*
X14955200Y-7728900D01*
X14955200Y-7688900D02*
X14915200Y-7728900D01*
X14915200Y-7765100D02*
X14955200Y-7805100D01*
X14955200Y-7765100D02*
X14915200Y-7805100D01*
X14978700Y-7155500D02*
X15018700Y-7195500D01*
X15018700Y-7155500D02*
X14978700Y-7195500D01*
X14978700Y-7650800D02*
X15018700Y-7690800D01*
X15018700Y-7650800D02*
X14978700Y-7690800D01*
X14978700Y-7727000D02*
X15018700Y-7767000D01*
X15018700Y-7727000D02*
X14978700Y-7767000D01*
X14978700Y-7803200D02*
X15018700Y-7843200D01*
X15018700Y-7803200D02*
X14978700Y-7843200D01*
X15004100Y-7028500D02*
X15044100Y-7068500D01*
X15044100Y-7028500D02*
X15004100Y-7068500D01*
X15118400Y-7155500D02*
X15158400Y-7195500D01*
X15158400Y-7155500D02*
X15118400Y-7195500D01*
X15131100Y-7815900D02*
X15171100Y-7855900D01*
X15171100Y-7815900D02*
X15131100Y-7855900D01*
X15194600Y-7155500D02*
X15234600Y-7195500D01*
X15234600Y-7155500D02*
X15194600Y-7195500D01*
X15232700Y-7727000D02*
X15272700Y-7767000D01*
X15272700Y-7727000D02*
X15232700Y-7767000D01*
X15232700Y-7803200D02*
X15272700Y-7843200D01*
X15272700Y-7803200D02*
X15232700Y-7843200D01*
X15232700Y-7879400D02*
X15272700Y-7919400D01*
X15272700Y-7879400D02*
X15232700Y-7919400D01*
X15296200Y-7612700D02*
X15336200Y-7652700D01*
X15336200Y-7612700D02*
X15296200Y-7652700D01*
X15296200Y-7688900D02*
X15336200Y-7728900D01*
X15336200Y-7688900D02*
X15296200Y-7728900D01*
X15296200Y-7765100D02*
X15336200Y-7805100D01*
X15336200Y-7765100D02*
X15296200Y-7805100D01*
X15296200Y-7841300D02*
X15336200Y-7881300D01*
X15336200Y-7841300D02*
X15296200Y-7881300D01*
X15435900Y-6761800D02*
X15475900Y-6801800D01*
X15475900Y-6761800D02*
X15435900Y-6801800D01*
X15435900Y-7790500D02*
X15475900Y-7830500D01*
X15475900Y-7790500D02*
X15435900Y-7830500D01*
X15448600Y-7231700D02*
X15488600Y-7271700D01*
X15488600Y-7231700D02*
X15448600Y-7271700D01*
X15448600Y-7358700D02*
X15488600Y-7398700D01*
X15488600Y-7358700D02*
X15448600Y-7398700D01*
X15474000Y-7854000D02*
X15514000Y-7894000D01*
X15514000Y-7854000D02*
X15474000Y-7894000D01*
X15486700Y-7168200D02*
X15526700Y-7208200D01*
X15526700Y-7168200D02*
X15486700Y-7208200D01*
X15486700Y-7295200D02*
X15526700Y-7335200D01*
X15526700Y-7295200D02*
X15486700Y-7335200D01*
X15499400Y-6799900D02*
X15539400Y-6839900D01*
X15539400Y-6799900D02*
X15499400Y-6839900D01*
X15512100Y-6876100D02*
X15552100Y-6916100D01*
X15552100Y-6876100D02*
X15512100Y-6916100D01*
X15512100Y-7790500D02*
X15552100Y-7830500D01*
X15552100Y-7790500D02*
X15512100Y-7830500D01*
X15524800Y-7231700D02*
X15564800Y-7271700D01*
X15564800Y-7231700D02*
X15524800Y-7271700D01*
X15524800Y-7358700D02*
X15564800Y-7398700D01*
X15564800Y-7358700D02*
X15524800Y-7398700D01*
X15550200Y-7854000D02*
X15590200Y-7894000D01*
X15590200Y-7854000D02*
X15550200Y-7894000D01*
X15562900Y-7168200D02*
X15602900Y-7208200D01*
X15602900Y-7168200D02*
X15562900Y-7208200D01*
X15562900Y-7295200D02*
X15602900Y-7335200D01*
X15602900Y-7295200D02*
X15562900Y-7335200D01*
X15575600Y-6939600D02*
X15615600Y-6979600D01*
X15615600Y-6939600D02*
X15575600Y-6979600D01*
X15588300Y-7790500D02*
X15628300Y-7830500D01*
X15628300Y-7790500D02*
X15588300Y-7830500D01*
X15601000Y-7231700D02*
X15641000Y-7271700D01*
X15641000Y-7231700D02*
X15601000Y-7271700D01*
X15601000Y-7358700D02*
X15641000Y-7398700D01*
X15641000Y-7358700D02*
X15601000Y-7398700D01*
X15613700Y-7028500D02*
X15653700Y-7068500D01*
X15653700Y-7028500D02*
X15613700Y-7068500D01*
X15651800Y-6965000D02*
X15691800Y-7005000D01*
X15691800Y-6965000D02*
X15651800Y-7005000D01*
X15651800Y-7092000D02*
X15691800Y-7132000D01*
X15691800Y-7092000D02*
X15651800Y-7132000D01*
X15651800Y-7168200D02*
X15691800Y-7208200D01*
X15691800Y-7168200D02*
X15651800Y-7208200D01*
X15689900Y-7028500D02*
X15729900Y-7068500D01*
X15729900Y-7028500D02*
X15689900Y-7068500D01*
X15730000Y-7230000D02*
X15770000Y-7270000D01*
X15770000Y-7230000D02*
X15730000Y-7270000D01*
X15730000Y-7330000D02*
X15770000Y-7370000D01*
X15770000Y-7330000D02*
X15730000Y-7370000D01*
X15730000Y-7630000D02*
X15770000Y-7670000D01*
X15770000Y-7630000D02*
X15730000Y-7670000D01*
X15730000Y-7730000D02*
X15770000Y-7770000D01*
X15770000Y-7730000D02*
X15730000Y-7770000D01*
X15780000Y-7280000D02*
X15820000Y-7320000D01*
X15820000Y-7280000D02*
X15780000Y-7320000D01*
X15780000Y-7680000D02*
X15820000Y-7720000D01*
X15820000Y-7680000D02*
X15780000Y-7720000D01*
X15830000Y-7230000D02*
X15870000Y-7270000D01*
X15870000Y-7230000D02*
X15830000Y-7270000D01*
X15830000Y-7330000D02*
X15870000Y-7370000D01*
X15870000Y-7330000D02*
X15830000Y-7370000D01*
X15830000Y-7630000D02*
X15870000Y-7670000D01*
X15870000Y-7630000D02*
X15830000Y-7670000D01*
X15830000Y-7730000D02*
X15870000Y-7770000D01*
X15870000Y-7730000D02*
X15830000Y-7770000D01*
X15880000Y-7280000D02*
X15920000Y-7320000D01*
X15920000Y-7280000D02*
X15880000Y-7320000D01*
X15880000Y-7680000D02*
X15920000Y-7720000D01*
X15920000Y-7680000D02*
X15880000Y-7720000D01*
X15930000Y-7230000D02*
X15970000Y-7270000D01*
X15970000Y-7230000D02*
X15930000Y-7270000D01*
X15930000Y-7330000D02*
X15970000Y-7370000D01*
X15970000Y-7330000D02*
X15930000Y-7370000D01*
X15930000Y-7630000D02*
X15970000Y-7670000D01*
X15970000Y-7630000D02*
X15930000Y-7670000D01*
X15930000Y-7730000D02*
X15970000Y-7770000D01*
X15970000Y-7730000D02*
X15930000Y-7770000D01*
D13*
X15292500Y-6750000D02*
G75*
G03*
X15292500Y-6750000I-42500J0D01*
G01*
D14*
X14250000Y-6640000D02*
X14250000Y-6860000D01*
X14140000Y-6750000D02*
X14360000Y-6750000D01*
X14250000Y-8140000D02*
X14250000Y-8360000D01*
X14140000Y-8250000D02*
X14360000Y-8250000D01*
X15750000Y-6640000D02*
X15750000Y-6860000D01*
X15640000Y-6750000D02*
X15860000Y-6750000D01*
X15750000Y-8140000D02*
X15750000Y-8360000D01*
X15640000Y-8250000D02*
X15860000Y-8250000D01*
D11*
X14252619Y-8815476D02*
X14252619Y-8615476D01*
X14300238Y-8615476D01*
X14328809Y-8625000D01*
X14347857Y-8644048D01*
X14357381Y-8663095D01*
X14366905Y-8701190D01*
X14366905Y-8729762D01*
X14357381Y-8767857D01*
X14347857Y-8786905D01*
X14328809Y-8805952D01*
X14300238Y-8815476D01*
X14252619Y-8815476D01*
X14452619Y-8815476D02*
X14452619Y-8682143D01*
X14452619Y-8720238D02*
X14462143Y-8701190D01*
X14471667Y-8691667D01*
X14490714Y-8682143D01*
X14509762Y-8682143D01*
X14576428Y-8815476D02*
X14576428Y-8682143D01*
X14576428Y-8615476D02*
X14566905Y-8625000D01*
X14576428Y-8634524D01*
X14585952Y-8625000D01*
X14576428Y-8615476D01*
X14576428Y-8634524D01*
X14700238Y-8815476D02*
X14681190Y-8805952D01*
X14671667Y-8786905D01*
X14671667Y-8615476D01*
X14805000Y-8815476D02*
X14785952Y-8805952D01*
X14776428Y-8786905D01*
X14776428Y-8615476D01*
X15033571Y-8815476D02*
X15033571Y-8615476D01*
X15100238Y-8758333D01*
X15166905Y-8615476D01*
X15166905Y-8815476D01*
X15347857Y-8815476D02*
X15347857Y-8710714D01*
X15338333Y-8691667D01*
X15319286Y-8682143D01*
X15281190Y-8682143D01*
X15262143Y-8691667D01*
X15347857Y-8805952D02*
X15328809Y-8815476D01*
X15281190Y-8815476D01*
X15262143Y-8805952D01*
X15252619Y-8786905D01*
X15252619Y-8767857D01*
X15262143Y-8748810D01*
X15281190Y-8739286D01*
X15328809Y-8739286D01*
X15347857Y-8729762D01*
X15443095Y-8682143D02*
X15443095Y-8882143D01*
X15443095Y-8691667D02*
X15462143Y-8682143D01*
X15500238Y-8682143D01*
X15519286Y-8691667D01*
X15528809Y-8701190D01*
X15538333Y-8720238D01*
X15538333Y-8777381D01*
X15528809Y-8796429D01*
X15519286Y-8805952D01*
X15500238Y-8815476D01*
X15462143Y-8815476D01*
X15443095Y-8805952D01*
X15624048Y-8796429D02*
X15633571Y-8805952D01*
X15624048Y-8815476D01*
X15614524Y-8805952D01*
X15624048Y-8796429D01*
X15624048Y-8815476D01*
X15624048Y-8691667D02*
X15633571Y-8701190D01*
X15624048Y-8710714D01*
X15614524Y-8701190D01*
X15624048Y-8691667D01*
X15624048Y-8710714D01*
D12*
X13955000Y-9125000D02*
X13995000Y-9165000D01*
X13995000Y-9125000D02*
X13955000Y-9165000D01*
D11*
X14290714Y-9035476D02*
X14309762Y-9035476D01*
X14328809Y-9045000D01*
X14338333Y-9054524D01*
X14347857Y-9073571D01*
X14357381Y-9111667D01*
X14357381Y-9159286D01*
X14347857Y-9197381D01*
X14338333Y-9216429D01*
X14328809Y-9225952D01*
X14309762Y-9235476D01*
X14290714Y-9235476D01*
X14271667Y-9225952D01*
X14262143Y-9216429D01*
X14252619Y-9197381D01*
X14243095Y-9159286D01*
X14243095Y-9111667D01*
X14252619Y-9073571D01*
X14262143Y-9054524D01*
X14271667Y-9045000D01*
X14290714Y-9035476D01*
X14443095Y-9216429D02*
X14452619Y-9225952D01*
X14443095Y-9235476D01*
X14433571Y-9225952D01*
X14443095Y-9216429D01*
X14443095Y-9235476D01*
X14624048Y-9102143D02*
X14624048Y-9235476D01*
X14576428Y-9025952D02*
X14528809Y-9168810D01*
X14652619Y-9168810D01*
X14766905Y-9035476D02*
X14785952Y-9035476D01*
X14805000Y-9045000D01*
X14814524Y-9054524D01*
X14824048Y-9073571D01*
X14833571Y-9111667D01*
X14833571Y-9159286D01*
X14824048Y-9197381D01*
X14814524Y-9216429D01*
X14805000Y-9225952D01*
X14785952Y-9235476D01*
X14766905Y-9235476D01*
X14747857Y-9225952D01*
X14738333Y-9216429D01*
X14728809Y-9197381D01*
X14719286Y-9159286D01*
X14719286Y-9111667D01*
X14728809Y-9073571D01*
X14738333Y-9054524D01*
X14747857Y-9045000D01*
X14766905Y-9035476D01*
X14957381Y-9035476D02*
X14976428Y-9035476D01*
X14995476Y-9045000D01*
X15005000Y-9054524D01*
X15014524Y-9073571D01*
X15024048Y-9111667D01*
X15024048Y-9159286D01*
X15014524Y-9197381D01*
X15005000Y-9216429D01*
X14995476Y-9225952D01*
X14976428Y-9235476D01*
X14957381Y-9235476D01*
X14938333Y-9225952D01*
X14928809Y-9216429D01*
X14919286Y-9197381D01*
X14909762Y-9159286D01*
X14909762Y-9111667D01*
X14919286Y-9073571D01*
X14928809Y-9054524D01*
X14938333Y-9045000D01*
X14957381Y-9035476D01*
X15109762Y-9235476D02*
X15109762Y-9102143D01*
X15109762Y-9121190D02*
X15119286Y-9111667D01*
X15138333Y-9102143D01*
X15166905Y-9102143D01*
X15185952Y-9111667D01*
X15195476Y-9130714D01*
X15195476Y-9235476D01*
X15195476Y-9130714D02*
X15205000Y-9111667D01*
X15224048Y-9102143D01*
X15252619Y-9102143D01*
X15271667Y-9111667D01*
X15281190Y-9130714D01*
X15281190Y-9235476D01*
X15376428Y-9235476D02*
X15376428Y-9102143D01*
X15376428Y-9121190D02*
X15385952Y-9111667D01*
X15405000Y-9102143D01*
X15433571Y-9102143D01*
X15452619Y-9111667D01*
X15462143Y-9130714D01*
X15462143Y-9235476D01*
X15462143Y-9130714D02*
X15471667Y-9111667D01*
X15490714Y-9102143D01*
X15519286Y-9102143D01*
X15538333Y-9111667D01*
X15547857Y-9130714D01*
X15547857Y-9235476D01*
X15938333Y-9025952D02*
X15766905Y-9283095D01*
X16195476Y-9035476D02*
X16214524Y-9035476D01*
X16233571Y-9045000D01*
X16243095Y-9054524D01*
X16252619Y-9073571D01*
X16262143Y-9111667D01*
X16262143Y-9159286D01*
X16252619Y-9197381D01*
X16243095Y-9216429D01*
X16233571Y-9225952D01*
X16214524Y-9235476D01*
X16195476Y-9235476D01*
X16176428Y-9225952D01*
X16166905Y-9216429D01*
X16157381Y-9197381D01*
X16147857Y-9159286D01*
X16147857Y-9111667D01*
X16157381Y-9073571D01*
X16166905Y-9054524D01*
X16176428Y-9045000D01*
X16195476Y-9035476D01*
X16347857Y-9216429D02*
X16357381Y-9225952D01*
X16347857Y-9235476D01*
X16338333Y-9225952D01*
X16347857Y-9216429D01*
X16347857Y-9235476D01*
X16481190Y-9035476D02*
X16500238Y-9035476D01*
X16519286Y-9045000D01*
X16528809Y-9054524D01*
X16538333Y-9073571D01*
X16547857Y-9111667D01*
X16547857Y-9159286D01*
X16538333Y-9197381D01*
X16528809Y-9216429D01*
X16519286Y-9225952D01*
X16500238Y-9235476D01*
X16481190Y-9235476D01*
X16462143Y-9225952D01*
X16452619Y-9216429D01*
X16443095Y-9197381D01*
X16433571Y-9159286D01*
X16433571Y-9111667D01*
X16443095Y-9073571D01*
X16452619Y-9054524D01*
X16462143Y-9045000D01*
X16481190Y-9035476D01*
X16738333Y-9235476D02*
X16624048Y-9235476D01*
X16681190Y-9235476D02*
X16681190Y-9035476D01*
X16662143Y-9064048D01*
X16643095Y-9083095D01*
X16624048Y-9092619D01*
X16919286Y-9035476D02*
X16824048Y-9035476D01*
X16814524Y-9130714D01*
X16824048Y-9121190D01*
X16843095Y-9111667D01*
X16890714Y-9111667D01*
X16909762Y-9121190D01*
X16919286Y-9130714D01*
X16928810Y-9149762D01*
X16928810Y-9197381D01*
X16919286Y-9216429D01*
X16909762Y-9225952D01*
X16890714Y-9235476D01*
X16843095Y-9235476D01*
X16824048Y-9225952D01*
X16814524Y-9216429D01*
X16995476Y-9035476D02*
X17128810Y-9035476D01*
X17043095Y-9235476D01*
X17195476Y-9035476D02*
X17195476Y-9073571D01*
X17271667Y-9035476D02*
X17271667Y-9073571D01*
X17566905Y-9311667D02*
X17557381Y-9302143D01*
X17538333Y-9273571D01*
X17528810Y-9254524D01*
X17519286Y-9225952D01*
X17509762Y-9178333D01*
X17509762Y-9140238D01*
X17519286Y-9092619D01*
X17528810Y-9064048D01*
X17538333Y-9045000D01*
X17557381Y-9016429D01*
X17566905Y-9006905D01*
X17747857Y-9235476D02*
X17633571Y-9235476D01*
X17690714Y-9235476D02*
X17690714Y-9035476D01*
X17671667Y-9064048D01*
X17652619Y-9083095D01*
X17633571Y-9092619D01*
X17871667Y-9035476D02*
X17890714Y-9035476D01*
X17909762Y-9045000D01*
X17919286Y-9054524D01*
X17928810Y-9073571D01*
X17938333Y-9111667D01*
X17938333Y-9159286D01*
X17928810Y-9197381D01*
X17919286Y-9216429D01*
X17909762Y-9225952D01*
X17890714Y-9235476D01*
X17871667Y-9235476D01*
X17852619Y-9225952D01*
X17843095Y-9216429D01*
X17833571Y-9197381D01*
X17824048Y-9159286D01*
X17824048Y-9111667D01*
X17833571Y-9073571D01*
X17843095Y-9054524D01*
X17852619Y-9045000D01*
X17871667Y-9035476D01*
X18109762Y-9035476D02*
X18071667Y-9035476D01*
X18052619Y-9045000D01*
X18043095Y-9054524D01*
X18024048Y-9083095D01*
X18014524Y-9121190D01*
X18014524Y-9197381D01*
X18024048Y-9216429D01*
X18033571Y-9225952D01*
X18052619Y-9235476D01*
X18090714Y-9235476D01*
X18109762Y-9225952D01*
X18119286Y-9216429D01*
X18128810Y-9197381D01*
X18128810Y-9149762D01*
X18119286Y-9130714D01*
X18109762Y-9121190D01*
X18090714Y-9111667D01*
X18052619Y-9111667D01*
X18033571Y-9121190D01*
X18024048Y-9130714D01*
X18014524Y-9149762D01*
X18366905Y-9235476D02*
X18366905Y-9035476D01*
X18452619Y-9235476D02*
X18452619Y-9130714D01*
X18443095Y-9111667D01*
X18424048Y-9102143D01*
X18395476Y-9102143D01*
X18376429Y-9111667D01*
X18366905Y-9121190D01*
X18576429Y-9235476D02*
X18557381Y-9225952D01*
X18547857Y-9216429D01*
X18538333Y-9197381D01*
X18538333Y-9140238D01*
X18547857Y-9121190D01*
X18557381Y-9111667D01*
X18576429Y-9102143D01*
X18605000Y-9102143D01*
X18624048Y-9111667D01*
X18633571Y-9121190D01*
X18643095Y-9140238D01*
X18643095Y-9197381D01*
X18633571Y-9216429D01*
X18624048Y-9225952D01*
X18605000Y-9235476D01*
X18576429Y-9235476D01*
X18757381Y-9235476D02*
X18738333Y-9225952D01*
X18728810Y-9206905D01*
X18728810Y-9035476D01*
X18909762Y-9225952D02*
X18890714Y-9235476D01*
X18852619Y-9235476D01*
X18833571Y-9225952D01*
X18824048Y-9206905D01*
X18824048Y-9130714D01*
X18833571Y-9111667D01*
X18852619Y-9102143D01*
X18890714Y-9102143D01*
X18909762Y-9111667D01*
X18919286Y-9130714D01*
X18919286Y-9149762D01*
X18824048Y-9168810D01*
X18995476Y-9225952D02*
X19014524Y-9235476D01*
X19052619Y-9235476D01*
X19071667Y-9225952D01*
X19081190Y-9206905D01*
X19081190Y-9197381D01*
X19071667Y-9178333D01*
X19052619Y-9168810D01*
X19024048Y-9168810D01*
X19005000Y-9159286D01*
X18995476Y-9140238D01*
X18995476Y-9130714D01*
X19005000Y-9111667D01*
X19024048Y-9102143D01*
X19052619Y-9102143D01*
X19071667Y-9111667D01*
X19147857Y-9311667D02*
X19157381Y-9302143D01*
X19176429Y-9273571D01*
X19185952Y-9254524D01*
X19195476Y-9225952D01*
X19205000Y-9178333D01*
X19205000Y-9140238D01*
X19195476Y-9092619D01*
X19185952Y-9064048D01*
X19176429Y-9045000D01*
X19157381Y-9016429D01*
X19147857Y-9006905D01*
D13*
X13995000Y-9409000D02*
G75*
G03*
X13995000Y-9409000I-42500J0D01*
G01*
D11*
X14290714Y-9299476D02*
X14309762Y-9299476D01*
X14328809Y-9309000D01*
X14338333Y-9318524D01*
X14347857Y-9337571D01*
X14357381Y-9375667D01*
X14357381Y-9423286D01*
X14347857Y-9461381D01*
X14338333Y-9480429D01*
X14328809Y-9489952D01*
X14309762Y-9499476D01*
X14290714Y-9499476D01*
X14271667Y-9489952D01*
X14262143Y-9480429D01*
X14252619Y-9461381D01*
X14243095Y-9423286D01*
X14243095Y-9375667D01*
X14252619Y-9337571D01*
X14262143Y-9318524D01*
X14271667Y-9309000D01*
X14290714Y-9299476D01*
X14443095Y-9480429D02*
X14452619Y-9489952D01*
X14443095Y-9499476D01*
X14433571Y-9489952D01*
X14443095Y-9480429D01*
X14443095Y-9499476D01*
X14566905Y-9385190D02*
X14547857Y-9375667D01*
X14538333Y-9366143D01*
X14528809Y-9347095D01*
X14528809Y-9337571D01*
X14538333Y-9318524D01*
X14547857Y-9309000D01*
X14566905Y-9299476D01*
X14605000Y-9299476D01*
X14624048Y-9309000D01*
X14633571Y-9318524D01*
X14643095Y-9337571D01*
X14643095Y-9347095D01*
X14633571Y-9366143D01*
X14624048Y-9375667D01*
X14605000Y-9385190D01*
X14566905Y-9385190D01*
X14547857Y-9394714D01*
X14538333Y-9404238D01*
X14528809Y-9423286D01*
X14528809Y-9461381D01*
X14538333Y-9480429D01*
X14547857Y-9489952D01*
X14566905Y-9499476D01*
X14605000Y-9499476D01*
X14624048Y-9489952D01*
X14633571Y-9480429D01*
X14643095Y-9461381D01*
X14643095Y-9423286D01*
X14633571Y-9404238D01*
X14624048Y-9394714D01*
X14605000Y-9385190D01*
X14824048Y-9299476D02*
X14728809Y-9299476D01*
X14719286Y-9394714D01*
X14728809Y-9385190D01*
X14747857Y-9375667D01*
X14795476Y-9375667D01*
X14814524Y-9385190D01*
X14824048Y-9394714D01*
X14833571Y-9413762D01*
X14833571Y-9461381D01*
X14824048Y-9480429D01*
X14814524Y-9489952D01*
X14795476Y-9499476D01*
X14747857Y-9499476D01*
X14728809Y-9489952D01*
X14719286Y-9480429D01*
X14957381Y-9299476D02*
X14976428Y-9299476D01*
X14995476Y-9309000D01*
X15005000Y-9318524D01*
X15014524Y-9337571D01*
X15024048Y-9375667D01*
X15024048Y-9423286D01*
X15014524Y-9461381D01*
X15005000Y-9480429D01*
X14995476Y-9489952D01*
X14976428Y-9499476D01*
X14957381Y-9499476D01*
X14938333Y-9489952D01*
X14928809Y-9480429D01*
X14919286Y-9461381D01*
X14909762Y-9423286D01*
X14909762Y-9375667D01*
X14919286Y-9337571D01*
X14928809Y-9318524D01*
X14938333Y-9309000D01*
X14957381Y-9299476D01*
X15109762Y-9499476D02*
X15109762Y-9366143D01*
X15109762Y-9385190D02*
X15119286Y-9375667D01*
X15138333Y-9366143D01*
X15166905Y-9366143D01*
X15185952Y-9375667D01*
X15195476Y-9394714D01*
X15195476Y-9499476D01*
X15195476Y-9394714D02*
X15205000Y-9375667D01*
X15224048Y-9366143D01*
X15252619Y-9366143D01*
X15271667Y-9375667D01*
X15281190Y-9394714D01*
X15281190Y-9499476D01*
X15376428Y-9499476D02*
X15376428Y-9366143D01*
X15376428Y-9385190D02*
X15385952Y-9375667D01*
X15405000Y-9366143D01*
X15433571Y-9366143D01*
X15452619Y-9375667D01*
X15462143Y-9394714D01*
X15462143Y-9499476D01*
X15462143Y-9394714D02*
X15471667Y-9375667D01*
X15490714Y-9366143D01*
X15519286Y-9366143D01*
X15538333Y-9375667D01*
X15547857Y-9394714D01*
X15547857Y-9499476D01*
X15938333Y-9289952D02*
X15766905Y-9547095D01*
X16195476Y-9299476D02*
X16214524Y-9299476D01*
X16233571Y-9309000D01*
X16243095Y-9318524D01*
X16252619Y-9337571D01*
X16262143Y-9375667D01*
X16262143Y-9423286D01*
X16252619Y-9461381D01*
X16243095Y-9480429D01*
X16233571Y-9489952D01*
X16214524Y-9499476D01*
X16195476Y-9499476D01*
X16176428Y-9489952D01*
X16166905Y-9480429D01*
X16157381Y-9461381D01*
X16147857Y-9423286D01*
X16147857Y-9375667D01*
X16157381Y-9337571D01*
X16166905Y-9318524D01*
X16176428Y-9309000D01*
X16195476Y-9299476D01*
X16347857Y-9480429D02*
X16357381Y-9489952D01*
X16347857Y-9499476D01*
X16338333Y-9489952D01*
X16347857Y-9480429D01*
X16347857Y-9499476D01*
X16481190Y-9299476D02*
X16500238Y-9299476D01*
X16519286Y-9309000D01*
X16528809Y-9318524D01*
X16538333Y-9337571D01*
X16547857Y-9375667D01*
X16547857Y-9423286D01*
X16538333Y-9461381D01*
X16528809Y-9480429D01*
X16519286Y-9489952D01*
X16500238Y-9499476D01*
X16481190Y-9499476D01*
X16462143Y-9489952D01*
X16452619Y-9480429D01*
X16443095Y-9461381D01*
X16433571Y-9423286D01*
X16433571Y-9375667D01*
X16443095Y-9337571D01*
X16452619Y-9318524D01*
X16462143Y-9309000D01*
X16481190Y-9299476D01*
X16614524Y-9299476D02*
X16738333Y-9299476D01*
X16671667Y-9375667D01*
X16700238Y-9375667D01*
X16719286Y-9385190D01*
X16728809Y-9394714D01*
X16738333Y-9413762D01*
X16738333Y-9461381D01*
X16728809Y-9480429D01*
X16719286Y-9489952D01*
X16700238Y-9499476D01*
X16643095Y-9499476D01*
X16624048Y-9489952D01*
X16614524Y-9480429D01*
X16805000Y-9299476D02*
X16928810Y-9299476D01*
X16862143Y-9375667D01*
X16890714Y-9375667D01*
X16909762Y-9385190D01*
X16919286Y-9394714D01*
X16928810Y-9413762D01*
X16928810Y-9461381D01*
X16919286Y-9480429D01*
X16909762Y-9489952D01*
X16890714Y-9499476D01*
X16833571Y-9499476D01*
X16814524Y-9489952D01*
X16805000Y-9480429D01*
X17109762Y-9299476D02*
X17014524Y-9299476D01*
X17005000Y-9394714D01*
X17014524Y-9385190D01*
X17033571Y-9375667D01*
X17081190Y-9375667D01*
X17100238Y-9385190D01*
X17109762Y-9394714D01*
X17119286Y-9413762D01*
X17119286Y-9461381D01*
X17109762Y-9480429D01*
X17100238Y-9489952D01*
X17081190Y-9499476D01*
X17033571Y-9499476D01*
X17014524Y-9489952D01*
X17005000Y-9480429D01*
X17195476Y-9299476D02*
X17195476Y-9337571D01*
X17271667Y-9299476D02*
X17271667Y-9337571D01*
X17566905Y-9575667D02*
X17557381Y-9566143D01*
X17538333Y-9537571D01*
X17528810Y-9518524D01*
X17519286Y-9489952D01*
X17509762Y-9442333D01*
X17509762Y-9404238D01*
X17519286Y-9356619D01*
X17528810Y-9328048D01*
X17538333Y-9309000D01*
X17557381Y-9280429D01*
X17566905Y-9270905D01*
X17747857Y-9499476D02*
X17633571Y-9499476D01*
X17690714Y-9499476D02*
X17690714Y-9299476D01*
X17671667Y-9328048D01*
X17652619Y-9347095D01*
X17633571Y-9356619D01*
X17985952Y-9499476D02*
X17985952Y-9299476D01*
X18071667Y-9499476D02*
X18071667Y-9394714D01*
X18062143Y-9375667D01*
X18043095Y-9366143D01*
X18014524Y-9366143D01*
X17995476Y-9375667D01*
X17985952Y-9385190D01*
X18195476Y-9499476D02*
X18176429Y-9489952D01*
X18166905Y-9480429D01*
X18157381Y-9461381D01*
X18157381Y-9404238D01*
X18166905Y-9385190D01*
X18176429Y-9375667D01*
X18195476Y-9366143D01*
X18224048Y-9366143D01*
X18243095Y-9375667D01*
X18252619Y-9385190D01*
X18262143Y-9404238D01*
X18262143Y-9461381D01*
X18252619Y-9480429D01*
X18243095Y-9489952D01*
X18224048Y-9499476D01*
X18195476Y-9499476D01*
X18376429Y-9499476D02*
X18357381Y-9489952D01*
X18347857Y-9470905D01*
X18347857Y-9299476D01*
X18528810Y-9489952D02*
X18509762Y-9499476D01*
X18471667Y-9499476D01*
X18452619Y-9489952D01*
X18443095Y-9470905D01*
X18443095Y-9394714D01*
X18452619Y-9375667D01*
X18471667Y-9366143D01*
X18509762Y-9366143D01*
X18528810Y-9375667D01*
X18538333Y-9394714D01*
X18538333Y-9413762D01*
X18443095Y-9432810D01*
X18605000Y-9575667D02*
X18614524Y-9566143D01*
X18633571Y-9537571D01*
X18643095Y-9518524D01*
X18652619Y-9489952D01*
X18662143Y-9442333D01*
X18662143Y-9404238D01*
X18652619Y-9356619D01*
X18643095Y-9328048D01*
X18633571Y-9309000D01*
X18614524Y-9280429D01*
X18605000Y-9270905D01*
X13895000Y-9573000D02*
X13895000Y-9773000D01*
X13795000Y-9673000D02*
X13995000Y-9673000D01*
X14243095Y-9582524D02*
X14252619Y-9573000D01*
X14271667Y-9563476D01*
X14319286Y-9563476D01*
X14338333Y-9573000D01*
X14347857Y-9582524D01*
X14357381Y-9601571D01*
X14357381Y-9620619D01*
X14347857Y-9649190D01*
X14233571Y-9763476D01*
X14357381Y-9763476D01*
X14443095Y-9744429D02*
X14452619Y-9753952D01*
X14443095Y-9763476D01*
X14433571Y-9753952D01*
X14443095Y-9744429D01*
X14443095Y-9763476D01*
X14528809Y-9582524D02*
X14538333Y-9573000D01*
X14557381Y-9563476D01*
X14605000Y-9563476D01*
X14624048Y-9573000D01*
X14633571Y-9582524D01*
X14643095Y-9601571D01*
X14643095Y-9620619D01*
X14633571Y-9649190D01*
X14519286Y-9763476D01*
X14643095Y-9763476D01*
X14766905Y-9563476D02*
X14785952Y-9563476D01*
X14805000Y-9573000D01*
X14814524Y-9582524D01*
X14824048Y-9601571D01*
X14833571Y-9639667D01*
X14833571Y-9687286D01*
X14824048Y-9725381D01*
X14814524Y-9744429D01*
X14805000Y-9753952D01*
X14785952Y-9763476D01*
X14766905Y-9763476D01*
X14747857Y-9753952D01*
X14738333Y-9744429D01*
X14728809Y-9725381D01*
X14719286Y-9687286D01*
X14719286Y-9639667D01*
X14728809Y-9601571D01*
X14738333Y-9582524D01*
X14747857Y-9573000D01*
X14766905Y-9563476D01*
X14957381Y-9563476D02*
X14976428Y-9563476D01*
X14995476Y-9573000D01*
X15005000Y-9582524D01*
X15014524Y-9601571D01*
X15024048Y-9639667D01*
X15024048Y-9687286D01*
X15014524Y-9725381D01*
X15005000Y-9744429D01*
X14995476Y-9753952D01*
X14976428Y-9763476D01*
X14957381Y-9763476D01*
X14938333Y-9753952D01*
X14928809Y-9744429D01*
X14919286Y-9725381D01*
X14909762Y-9687286D01*
X14909762Y-9639667D01*
X14919286Y-9601571D01*
X14928809Y-9582524D01*
X14938333Y-9573000D01*
X14957381Y-9563476D01*
X15109762Y-9763476D02*
X15109762Y-9630143D01*
X15109762Y-9649190D02*
X15119286Y-9639667D01*
X15138333Y-9630143D01*
X15166905Y-9630143D01*
X15185952Y-9639667D01*
X15195476Y-9658714D01*
X15195476Y-9763476D01*
X15195476Y-9658714D02*
X15205000Y-9639667D01*
X15224048Y-9630143D01*
X15252619Y-9630143D01*
X15271667Y-9639667D01*
X15281190Y-9658714D01*
X15281190Y-9763476D01*
X15376428Y-9763476D02*
X15376428Y-9630143D01*
X15376428Y-9649190D02*
X15385952Y-9639667D01*
X15405000Y-9630143D01*
X15433571Y-9630143D01*
X15452619Y-9639667D01*
X15462143Y-9658714D01*
X15462143Y-9763476D01*
X15462143Y-9658714D02*
X15471667Y-9639667D01*
X15490714Y-9630143D01*
X15519286Y-9630143D01*
X15538333Y-9639667D01*
X15547857Y-9658714D01*
X15547857Y-9763476D01*
X15938333Y-9553952D02*
X15766905Y-9811095D01*
X16195476Y-9563476D02*
X16214524Y-9563476D01*
X16233571Y-9573000D01*
X16243095Y-9582524D01*
X16252619Y-9601571D01*
X16262143Y-9639667D01*
X16262143Y-9687286D01*
X16252619Y-9725381D01*
X16243095Y-9744429D01*
X16233571Y-9753952D01*
X16214524Y-9763476D01*
X16195476Y-9763476D01*
X16176428Y-9753952D01*
X16166905Y-9744429D01*
X16157381Y-9725381D01*
X16147857Y-9687286D01*
X16147857Y-9639667D01*
X16157381Y-9601571D01*
X16166905Y-9582524D01*
X16176428Y-9573000D01*
X16195476Y-9563476D01*
X16347857Y-9744429D02*
X16357381Y-9753952D01*
X16347857Y-9763476D01*
X16338333Y-9753952D01*
X16347857Y-9744429D01*
X16347857Y-9763476D01*
X16481190Y-9563476D02*
X16500238Y-9563476D01*
X16519286Y-9573000D01*
X16528809Y-9582524D01*
X16538333Y-9601571D01*
X16547857Y-9639667D01*
X16547857Y-9687286D01*
X16538333Y-9725381D01*
X16528809Y-9744429D01*
X16519286Y-9753952D01*
X16500238Y-9763476D01*
X16481190Y-9763476D01*
X16462143Y-9753952D01*
X16452619Y-9744429D01*
X16443095Y-9725381D01*
X16433571Y-9687286D01*
X16433571Y-9639667D01*
X16443095Y-9601571D01*
X16452619Y-9582524D01*
X16462143Y-9573000D01*
X16481190Y-9563476D01*
X16662143Y-9649190D02*
X16643095Y-9639667D01*
X16633571Y-9630143D01*
X16624048Y-9611095D01*
X16624048Y-9601571D01*
X16633571Y-9582524D01*
X16643095Y-9573000D01*
X16662143Y-9563476D01*
X16700238Y-9563476D01*
X16719286Y-9573000D01*
X16728809Y-9582524D01*
X16738333Y-9601571D01*
X16738333Y-9611095D01*
X16728809Y-9630143D01*
X16719286Y-9639667D01*
X16700238Y-9649190D01*
X16662143Y-9649190D01*
X16643095Y-9658714D01*
X16633571Y-9668238D01*
X16624048Y-9687286D01*
X16624048Y-9725381D01*
X16633571Y-9744429D01*
X16643095Y-9753952D01*
X16662143Y-9763476D01*
X16700238Y-9763476D01*
X16719286Y-9753952D01*
X16728809Y-9744429D01*
X16738333Y-9725381D01*
X16738333Y-9687286D01*
X16728809Y-9668238D01*
X16719286Y-9658714D01*
X16700238Y-9649190D01*
X16909762Y-9563476D02*
X16871667Y-9563476D01*
X16852619Y-9573000D01*
X16843095Y-9582524D01*
X16824048Y-9611095D01*
X16814524Y-9649190D01*
X16814524Y-9725381D01*
X16824048Y-9744429D01*
X16833571Y-9753952D01*
X16852619Y-9763476D01*
X16890714Y-9763476D01*
X16909762Y-9753952D01*
X16919286Y-9744429D01*
X16928810Y-9725381D01*
X16928810Y-9677762D01*
X16919286Y-9658714D01*
X16909762Y-9649190D01*
X16890714Y-9639667D01*
X16852619Y-9639667D01*
X16833571Y-9649190D01*
X16824048Y-9658714D01*
X16814524Y-9677762D01*
X17100238Y-9563476D02*
X17062143Y-9563476D01*
X17043095Y-9573000D01*
X17033571Y-9582524D01*
X17014524Y-9611095D01*
X17005000Y-9649190D01*
X17005000Y-9725381D01*
X17014524Y-9744429D01*
X17024048Y-9753952D01*
X17043095Y-9763476D01*
X17081190Y-9763476D01*
X17100238Y-9753952D01*
X17109762Y-9744429D01*
X17119286Y-9725381D01*
X17119286Y-9677762D01*
X17109762Y-9658714D01*
X17100238Y-9649190D01*
X17081190Y-9639667D01*
X17043095Y-9639667D01*
X17024048Y-9649190D01*
X17014524Y-9658714D01*
X17005000Y-9677762D01*
X17195476Y-9563476D02*
X17195476Y-9601571D01*
X17271667Y-9563476D02*
X17271667Y-9601571D01*
X17566905Y-9839667D02*
X17557381Y-9830143D01*
X17538333Y-9801571D01*
X17528810Y-9782524D01*
X17519286Y-9753952D01*
X17509762Y-9706333D01*
X17509762Y-9668238D01*
X17519286Y-9620619D01*
X17528810Y-9592048D01*
X17538333Y-9573000D01*
X17557381Y-9544429D01*
X17566905Y-9534905D01*
X17728810Y-9630143D02*
X17728810Y-9763476D01*
X17681190Y-9553952D02*
X17633571Y-9696810D01*
X17757381Y-9696810D01*
X17985952Y-9763476D02*
X17985952Y-9563476D01*
X18071667Y-9763476D02*
X18071667Y-9658714D01*
X18062143Y-9639667D01*
X18043095Y-9630143D01*
X18014524Y-9630143D01*
X17995476Y-9639667D01*
X17985952Y-9649190D01*
X18195476Y-9763476D02*
X18176429Y-9753952D01*
X18166905Y-9744429D01*
X18157381Y-9725381D01*
X18157381Y-9668238D01*
X18166905Y-9649190D01*
X18176429Y-9639667D01*
X18195476Y-9630143D01*
X18224048Y-9630143D01*
X18243095Y-9639667D01*
X18252619Y-9649190D01*
X18262143Y-9668238D01*
X18262143Y-9725381D01*
X18252619Y-9744429D01*
X18243095Y-9753952D01*
X18224048Y-9763476D01*
X18195476Y-9763476D01*
X18376429Y-9763476D02*
X18357381Y-9753952D01*
X18347857Y-9734905D01*
X18347857Y-9563476D01*
X18528810Y-9753952D02*
X18509762Y-9763476D01*
X18471667Y-9763476D01*
X18452619Y-9753952D01*
X18443095Y-9734905D01*
X18443095Y-9658714D01*
X18452619Y-9639667D01*
X18471667Y-9630143D01*
X18509762Y-9630143D01*
X18528810Y-9639667D01*
X18538333Y-9658714D01*
X18538333Y-9677762D01*
X18443095Y-9696810D01*
X18614524Y-9753952D02*
X18633571Y-9763476D01*
X18671667Y-9763476D01*
X18690714Y-9753952D01*
X18700238Y-9734905D01*
X18700238Y-9725381D01*
X18690714Y-9706333D01*
X18671667Y-9696810D01*
X18643095Y-9696810D01*
X18624048Y-9687286D01*
X18614524Y-9668238D01*
X18614524Y-9658714D01*
X18624048Y-9639667D01*
X18643095Y-9630143D01*
X18671667Y-9630143D01*
X18690714Y-9639667D01*
X18766905Y-9839667D02*
X18776429Y-9830143D01*
X18795476Y-9801571D01*
X18805000Y-9782524D01*
X18814524Y-9753952D01*
X18824048Y-9706333D01*
X18824048Y-9668238D01*
X18814524Y-9620619D01*
X18805000Y-9592048D01*
X18795476Y-9573000D01*
X18776429Y-9544429D01*
X18766905Y-9534905D01*
M02*
