%FSLAX45Y45*%
G04 Gerber Fmt 4.5, Leading zero omitted, Abs format (unit mm)*
G04 Created by KiCad (PCBNEW 6.0.1-79c1e3a40b~116~ubuntu20.04.1) date 2022-01-22 22:37:36*
%MOMM*%
%LPD*%
G01*
G04 APERTURE LIST*
%TA.AperFunction,Profile*%
%ADD10C,0.100000*%
%TD*%
%ADD11C,0.200000*%
G04 APERTURE END LIST*
D10*
X14000000Y-8250000D02*
X14000000Y-6750000D01*
X15750000Y-8500000D02*
X14250000Y-8500000D01*
X16000000Y-6750000D02*
X16000000Y-8250000D01*
X14250000Y-6500000D02*
X15750000Y-6500000D01*
X14000000Y-8250000D02*
G75*
G03*
X14250000Y-8500000I250000J0D01*
G01*
X15750000Y-8500000D02*
G75*
G03*
X16000000Y-8250000I0J250000D01*
G01*
X16000000Y-6750000D02*
G75*
G03*
X15750000Y-6500000I-250000J0D01*
G01*
X14250000Y-6500000D02*
G75*
G03*
X14000000Y-6750000I0J-250000D01*
G01*
D11*
X14252619Y-8815476D02*
X14252619Y-8615476D01*
X14300238Y-8615476D01*
X14328809Y-8625000D01*
X14347857Y-8644048D01*
X14357381Y-8663095D01*
X14366905Y-8701190D01*
X14366905Y-8729762D01*
X14357381Y-8767857D01*
X14347857Y-8786905D01*
X14328809Y-8805952D01*
X14300238Y-8815476D01*
X14252619Y-8815476D01*
X14452619Y-8815476D02*
X14452619Y-8682143D01*
X14452619Y-8720238D02*
X14462143Y-8701190D01*
X14471667Y-8691667D01*
X14490714Y-8682143D01*
X14509762Y-8682143D01*
X14576428Y-8815476D02*
X14576428Y-8682143D01*
X14576428Y-8615476D02*
X14566905Y-8625000D01*
X14576428Y-8634524D01*
X14585952Y-8625000D01*
X14576428Y-8615476D01*
X14576428Y-8634524D01*
X14700238Y-8815476D02*
X14681190Y-8805952D01*
X14671667Y-8786905D01*
X14671667Y-8615476D01*
X14805000Y-8815476D02*
X14785952Y-8805952D01*
X14776428Y-8786905D01*
X14776428Y-8615476D01*
X15033571Y-8815476D02*
X15033571Y-8615476D01*
X15100238Y-8758333D01*
X15166905Y-8615476D01*
X15166905Y-8815476D01*
X15347857Y-8815476D02*
X15347857Y-8710714D01*
X15338333Y-8691667D01*
X15319286Y-8682143D01*
X15281190Y-8682143D01*
X15262143Y-8691667D01*
X15347857Y-8805952D02*
X15328809Y-8815476D01*
X15281190Y-8815476D01*
X15262143Y-8805952D01*
X15252619Y-8786905D01*
X15252619Y-8767857D01*
X15262143Y-8748810D01*
X15281190Y-8739286D01*
X15328809Y-8739286D01*
X15347857Y-8729762D01*
X15443095Y-8682143D02*
X15443095Y-8882143D01*
X15443095Y-8691667D02*
X15462143Y-8682143D01*
X15500238Y-8682143D01*
X15519286Y-8691667D01*
X15528809Y-8701190D01*
X15538333Y-8720238D01*
X15538333Y-8777381D01*
X15528809Y-8796429D01*
X15519286Y-8805952D01*
X15500238Y-8815476D01*
X15462143Y-8815476D01*
X15443095Y-8805952D01*
X15624048Y-8796429D02*
X15633571Y-8805952D01*
X15624048Y-8815476D01*
X15614524Y-8805952D01*
X15624048Y-8796429D01*
X15624048Y-8815476D01*
X15624048Y-8691667D02*
X15633571Y-8701190D01*
X15624048Y-8710714D01*
X15614524Y-8701190D01*
X15624048Y-8691667D01*
X15624048Y-8710714D01*
M02*
