M48
; DRILL file {KiCad 6.0.1-79c1e3a40b~116~ubuntu20.04.1} date sob, 22 sty 2022, 22:37:35
; FORMAT={-:-/ absolute / metric / decimal}
; #@! TF.CreationDate,2022-01-22T22:37:35+01:00
; #@! TF.GenerationSoftware,Kicad,Pcbnew,6.0.1-79c1e3a40b~116~ubuntu20.04.1
; #@! TF.FileFunction,Plated,1,2,PTH
FMAT,2
METRIC
; #@! TA.AperFunction,Plated,PTH,ViaDrill
T1C0.400
; #@! TA.AperFunction,Plated,PTH,ComponentDrill
T2C0.850
; #@! TA.AperFunction,Plated,PTH,ComponentDrill
T3C2.200
%
G90
G05
T1
X140.5Y-72.5
X140.5Y-73.5
X140.5Y-76.5
X140.5Y-77.5
X141.0Y-73.0
X141.0Y-77.0
X141.5Y-72.5
X141.5Y-73.5
X141.5Y-76.5
X141.5Y-77.5
X142.0Y-73.0
X142.0Y-77.0
X142.5Y-72.5
X142.5Y-73.5
X142.5Y-76.5
X142.5Y-77.5
X143.51Y-76.962
X143.891Y-73.66
X143.891Y-76.327
X144.272Y-73.025
X144.272Y-76.962
X144.526Y-70.104
X144.526Y-70.866
X144.653Y-73.66
X144.653Y-76.327
X145.034Y-73.025
X145.161Y-69.723
X145.161Y-70.485
X145.161Y-71.247
X145.415Y-72.39
X145.415Y-73.66
X145.796Y-73.025
X145.923Y-78.867
X146.05Y-78.105
X146.177Y-72.39
X146.177Y-73.66
X146.558Y-73.025
X146.685Y-78.613
X146.939Y-73.66
X147.066Y-77.216
X147.574Y-78.613
X148.209Y-78.105
X148.336Y-78.867
X149.352Y-70.612
X149.352Y-71.374
X149.352Y-72.136
X149.352Y-72.898
X149.352Y-73.66
X149.352Y-76.327
X149.352Y-77.089
X149.352Y-77.851
X149.987Y-71.755
X149.987Y-76.708
X149.987Y-77.47
X149.987Y-78.232
X150.241Y-70.485
X151.384Y-71.755
X151.511Y-78.359
X152.146Y-71.755
X152.527Y-77.47
X152.527Y-78.232
X152.527Y-78.994
X153.162Y-76.327
X153.162Y-77.089
X153.162Y-77.851
X153.162Y-78.613
X154.559Y-67.818
X154.559Y-78.105
X154.686Y-72.517
X154.686Y-73.787
X154.94Y-78.74
X155.067Y-71.882
X155.067Y-73.152
X155.194Y-68.199
X155.321Y-68.961
X155.321Y-78.105
X155.448Y-72.517
X155.448Y-73.787
X155.702Y-78.74
X155.829Y-71.882
X155.829Y-73.152
X155.956Y-69.596
X156.083Y-78.105
X156.21Y-72.517
X156.21Y-73.787
X156.337Y-70.485
X156.718Y-69.85
X156.718Y-71.12
X156.718Y-71.882
X157.099Y-70.485
X157.5Y-72.5
X157.5Y-73.5
X157.5Y-76.5
X157.5Y-77.5
X158.0Y-73.0
X158.0Y-77.0
X158.5Y-72.5
X158.5Y-73.5
X158.5Y-76.5
X158.5Y-77.5
X159.0Y-73.0
X159.0Y-77.0
X159.5Y-72.5
X159.5Y-73.5
X159.5Y-76.5
X159.5Y-77.5
T2
X152.5Y-67.5
T3
X142.5Y-67.5
X142.5Y-82.5
X157.5Y-67.5
X157.5Y-82.5
T0
M30
