%TF.GenerationSoftware,KiCad,Pcbnew,6.0.1-79c1e3a40b~116~ubuntu20.04.1*%
%TF.CreationDate,2022-01-22T22:37:32+01:00*%
%TF.ProjectId,bjt-amp,626a742d-616d-4702-9e6b-696361645f70,rev?*%
%TF.SameCoordinates,Original*%
%TF.FileFunction,Copper,L2,Bot*%
%TF.FilePolarity,Positive*%
%FSLAX46Y46*%
G04 Gerber Fmt 4.6, Leading zero omitted, Abs format (unit mm)*
G04 Created by KiCad (PCBNEW 6.0.1-79c1e3a40b~116~ubuntu20.04.1) date 2022-01-22 22:37:32*
%MOMM*%
%LPD*%
G01*
G04 APERTURE LIST*
G04 Aperture macros list*
%AMRoundRect*
0 Rectangle with rounded corners*
0 $1 Rounding radius*
0 $2 $3 $4 $5 $6 $7 $8 $9 X,Y pos of 4 corners*
0 Add a 4 corners polygon primitive as box body*
4,1,4,$2,$3,$4,$5,$6,$7,$8,$9,$2,$3,0*
0 Add four circle primitives for the rounded corners*
1,1,$1+$1,$2,$3*
1,1,$1+$1,$4,$5*
1,1,$1+$1,$6,$7*
1,1,$1+$1,$8,$9*
0 Add four rect primitives between the rounded corners*
20,1,$1+$1,$2,$3,$4,$5,0*
20,1,$1+$1,$4,$5,$6,$7,0*
20,1,$1+$1,$6,$7,$8,$9,0*
20,1,$1+$1,$8,$9,$2,$3,0*%
G04 Aperture macros list end*
%TA.AperFunction,ComponentPad*%
%ADD10RoundRect,0.925000X0.000000X0.000000X0.000000X0.000000X0.000000X0.000000X0.000000X0.000000X0*%
%TD*%
%TA.AperFunction,ComponentPad*%
%ADD11C,3.400000*%
%TD*%
%TA.AperFunction,ViaPad*%
%ADD12C,0.800000*%
%TD*%
G04 APERTURE END LIST*
D10*
%TO.P,J1,1,Pin_1*%
%TO.N,Net-(J1-Pad1)*%
X152500000Y-67500000D03*
%TD*%
D11*
%TO.P,H4,1,1*%
%TO.N,GND*%
X142500000Y-67500000D03*
%TD*%
%TO.P,H3,1,1*%
%TO.N,GND*%
X157500000Y-82500000D03*
%TD*%
%TO.P,H2,1,1*%
%TO.N,GND*%
X157500000Y-67500000D03*
%TD*%
%TO.P,H1,1,1*%
%TO.N,GND*%
X142500000Y-82500000D03*
%TD*%
D12*
%TO.N,GND*%
X156718000Y-71882000D03*
X156718000Y-71120000D03*
X157099000Y-70485000D03*
X154559000Y-67818000D03*
X155194000Y-68199000D03*
X156718000Y-69850000D03*
X155956000Y-69596000D03*
X144526000Y-70866000D03*
X144526000Y-70104000D03*
X145161000Y-70485000D03*
X145161000Y-69723000D03*
X145923000Y-78867000D03*
X148336000Y-78867000D03*
X155702000Y-78740000D03*
X154940000Y-78740000D03*
X145415000Y-72390000D03*
X146177000Y-72390000D03*
X147066000Y-77216000D03*
X143510000Y-76962000D03*
X144272000Y-76962000D03*
X143891000Y-76327000D03*
X144653000Y-76327000D03*
X146558000Y-73025000D03*
X145796000Y-73025000D03*
X145034000Y-73025000D03*
X144272000Y-73025000D03*
X143891000Y-73660000D03*
X144653000Y-73660000D03*
X145415000Y-73660000D03*
X146177000Y-73660000D03*
X146939000Y-73660000D03*
X155829000Y-71882000D03*
X155067000Y-71882000D03*
X149987000Y-78232000D03*
X152527000Y-78994000D03*
X153162000Y-78613000D03*
X152527000Y-78232000D03*
X152527000Y-77470000D03*
X153162000Y-77851000D03*
X153162000Y-77089000D03*
X153162000Y-76327000D03*
X151384000Y-71755000D03*
X152146000Y-71755000D03*
X149987000Y-76708000D03*
X149987000Y-77470000D03*
X149352000Y-77851000D03*
X149352000Y-77089000D03*
X149352000Y-76327000D03*
X149987000Y-71755000D03*
X149352000Y-70612000D03*
X149352000Y-71374000D03*
X149352000Y-72136000D03*
X149352000Y-72898000D03*
X149352000Y-73660000D03*
X147574000Y-78613000D03*
X146685000Y-78613000D03*
X155321000Y-78105000D03*
X154686000Y-72517000D03*
X156210000Y-72517000D03*
X155448000Y-72517000D03*
X155829000Y-73152000D03*
X155067000Y-73152000D03*
X154686000Y-73787000D03*
X155448000Y-73787000D03*
X156210000Y-73787000D03*
X142500000Y-72500000D03*
X141500000Y-72500000D03*
X140500000Y-72500000D03*
X141000000Y-73000000D03*
X142000000Y-73000000D03*
X142500000Y-77500000D03*
X141500000Y-77500000D03*
X140500000Y-77500000D03*
X141000000Y-77000000D03*
X142000000Y-77000000D03*
X142500000Y-76500000D03*
X141500000Y-76500000D03*
X140500000Y-76500000D03*
X142500000Y-73500000D03*
X141500000Y-73500000D03*
X140500000Y-73500000D03*
X155321000Y-68961000D03*
X156337000Y-70485000D03*
X150241000Y-70485000D03*
X145161000Y-71247000D03*
X146050000Y-78105000D03*
X148209000Y-78105000D03*
X151511000Y-78359000D03*
X154559000Y-78105000D03*
X156083000Y-78105000D03*
X157500000Y-77500000D03*
X158500000Y-77500000D03*
X159500000Y-77500000D03*
X159000000Y-77000000D03*
X158000000Y-77000000D03*
X157500000Y-76500000D03*
X159500000Y-76500000D03*
X158500000Y-76500000D03*
X157500000Y-72500000D03*
X158500000Y-72500000D03*
X159500000Y-72500000D03*
X159000000Y-73000000D03*
X158000000Y-73000000D03*
X157500000Y-73500000D03*
X158500000Y-73500000D03*
X159500000Y-73500000D03*
%TD*%
%TA.AperFunction,Conductor*%
%TO.N,GND*%
G36*
X157488227Y-65202518D02*
G01*
X157499642Y-65205143D01*
X157510517Y-65202682D01*
X157521663Y-65202702D01*
X157521663Y-65202737D01*
X157531724Y-65201919D01*
X157771264Y-65216409D01*
X157783116Y-65217848D01*
X158044542Y-65265756D01*
X158056135Y-65268613D01*
X158261078Y-65332476D01*
X158309872Y-65347681D01*
X158321050Y-65351920D01*
X158563406Y-65460995D01*
X158573991Y-65466551D01*
X158801422Y-65604038D01*
X158811261Y-65610829D01*
X159020463Y-65774728D01*
X159029412Y-65782655D01*
X159217345Y-65970588D01*
X159225272Y-65979537D01*
X159389171Y-66188739D01*
X159395962Y-66198578D01*
X159533449Y-66426009D01*
X159539005Y-66436594D01*
X159648080Y-66678950D01*
X159652319Y-66690128D01*
X159731385Y-66943857D01*
X159734244Y-66955458D01*
X159782152Y-67216884D01*
X159783591Y-67228734D01*
X159792014Y-67367974D01*
X159798050Y-67467755D01*
X159797230Y-67477627D01*
X159797375Y-67477627D01*
X159797355Y-67488778D01*
X159794857Y-67499642D01*
X159797317Y-67510514D01*
X159797317Y-67510516D01*
X159797559Y-67511583D01*
X159800000Y-67533432D01*
X159800000Y-82466040D01*
X159797482Y-82488227D01*
X159794857Y-82499642D01*
X159797318Y-82510517D01*
X159797298Y-82521663D01*
X159797263Y-82521663D01*
X159798081Y-82531726D01*
X159783592Y-82771257D01*
X159782152Y-82783116D01*
X159778549Y-82802780D01*
X159734246Y-83044535D01*
X159731385Y-83056143D01*
X159652319Y-83309872D01*
X159648080Y-83321050D01*
X159539005Y-83563406D01*
X159533449Y-83573991D01*
X159395962Y-83801422D01*
X159389171Y-83811261D01*
X159225272Y-84020463D01*
X159217345Y-84029412D01*
X159029412Y-84217345D01*
X159020463Y-84225272D01*
X158811261Y-84389171D01*
X158801422Y-84395962D01*
X158573991Y-84533449D01*
X158563406Y-84539005D01*
X158321050Y-84648080D01*
X158309872Y-84652319D01*
X158056135Y-84731387D01*
X158044542Y-84734244D01*
X157783116Y-84782152D01*
X157771266Y-84783591D01*
X157532243Y-84798050D01*
X157522373Y-84797230D01*
X157522373Y-84797375D01*
X157511222Y-84797355D01*
X157500358Y-84794857D01*
X157489486Y-84797317D01*
X157489484Y-84797317D01*
X157488417Y-84797559D01*
X157466568Y-84800000D01*
X142533960Y-84800000D01*
X142511773Y-84797482D01*
X142500358Y-84794857D01*
X142489483Y-84797318D01*
X142478337Y-84797298D01*
X142478337Y-84797263D01*
X142468276Y-84798081D01*
X142228736Y-84783591D01*
X142216884Y-84782152D01*
X141955458Y-84734244D01*
X141943865Y-84731387D01*
X141690128Y-84652319D01*
X141678950Y-84648080D01*
X141436594Y-84539005D01*
X141426009Y-84533449D01*
X141198578Y-84395962D01*
X141188739Y-84389171D01*
X140979537Y-84225272D01*
X140970588Y-84217345D01*
X140782655Y-84029412D01*
X140774728Y-84020463D01*
X140610829Y-83811261D01*
X140604038Y-83801422D01*
X140466551Y-83573991D01*
X140460995Y-83563406D01*
X140351920Y-83321050D01*
X140347681Y-83309872D01*
X140268615Y-83056143D01*
X140265754Y-83044535D01*
X140217850Y-82783125D01*
X140217848Y-82783118D01*
X140216408Y-82771256D01*
X140201966Y-82532500D01*
X140203702Y-82511805D01*
X140203235Y-82511751D01*
X140203876Y-82506177D01*
X140205142Y-82500716D01*
X140205143Y-82500000D01*
X140202479Y-82488321D01*
X140200000Y-82466304D01*
X140200000Y-67534222D01*
X140202557Y-67511867D01*
X140203875Y-67506181D01*
X140205142Y-67500716D01*
X140205143Y-67500000D01*
X140203900Y-67494552D01*
X140203278Y-67488992D01*
X140203654Y-67488950D01*
X140201935Y-67468016D01*
X140205213Y-67413817D01*
X151374500Y-67413817D01*
X151374501Y-67586182D01*
X151377569Y-67635829D01*
X151378385Y-67639555D01*
X151422083Y-67839138D01*
X151423503Y-67845625D01*
X151508281Y-68042950D01*
X151628842Y-68220684D01*
X151632176Y-68224012D01*
X151632180Y-68224017D01*
X151705309Y-68297018D01*
X151780837Y-68372414D01*
X151958781Y-68492665D01*
X152156254Y-68577098D01*
X152366130Y-68622667D01*
X152369939Y-68622893D01*
X152369944Y-68622894D01*
X152392328Y-68624223D01*
X152413817Y-68625500D01*
X152498909Y-68625500D01*
X152586182Y-68625499D01*
X152587682Y-68625406D01*
X152587692Y-68625406D01*
X152632026Y-68622666D01*
X152635829Y-68622431D01*
X152719370Y-68604140D01*
X152841018Y-68577506D01*
X152841021Y-68577505D01*
X152845625Y-68576497D01*
X153042950Y-68491719D01*
X153220684Y-68371158D01*
X153224012Y-68367824D01*
X153224017Y-68367820D01*
X153367568Y-68224017D01*
X153372414Y-68219163D01*
X153492665Y-68041219D01*
X153577098Y-67843746D01*
X153622667Y-67633870D01*
X153625500Y-67586183D01*
X153625499Y-67413818D01*
X153622431Y-67364171D01*
X153585878Y-67197220D01*
X153577506Y-67158982D01*
X153577505Y-67158979D01*
X153576497Y-67154375D01*
X153491719Y-66957050D01*
X153371158Y-66779316D01*
X153367824Y-66775988D01*
X153367820Y-66775983D01*
X153276085Y-66684409D01*
X153219163Y-66627586D01*
X153041219Y-66507335D01*
X152843746Y-66422902D01*
X152633870Y-66377333D01*
X152630061Y-66377107D01*
X152630056Y-66377106D01*
X152607672Y-66375777D01*
X152586183Y-66374500D01*
X152501091Y-66374500D01*
X152413818Y-66374501D01*
X152412318Y-66374594D01*
X152412308Y-66374594D01*
X152371663Y-66377106D01*
X152364171Y-66377569D01*
X152280630Y-66395860D01*
X152158982Y-66422494D01*
X152158979Y-66422495D01*
X152154375Y-66423503D01*
X151957050Y-66508281D01*
X151779316Y-66628842D01*
X151775988Y-66632176D01*
X151775983Y-66632180D01*
X151729295Y-66678950D01*
X151627586Y-66780837D01*
X151507335Y-66958781D01*
X151422902Y-67156254D01*
X151377333Y-67366130D01*
X151374500Y-67413817D01*
X140205213Y-67413817D01*
X140216408Y-67228743D01*
X140216409Y-67228742D01*
X140216409Y-67228736D01*
X140217848Y-67216884D01*
X140265756Y-66955458D01*
X140268615Y-66943857D01*
X140347681Y-66690128D01*
X140351920Y-66678950D01*
X140460995Y-66436594D01*
X140466551Y-66426009D01*
X140604038Y-66198578D01*
X140610829Y-66188739D01*
X140774728Y-65979537D01*
X140782655Y-65970588D01*
X140970588Y-65782655D01*
X140979537Y-65774728D01*
X141188739Y-65610829D01*
X141198578Y-65604038D01*
X141426009Y-65466551D01*
X141436594Y-65460995D01*
X141678950Y-65351920D01*
X141690128Y-65347681D01*
X141738922Y-65332476D01*
X141943865Y-65268613D01*
X141955458Y-65265756D01*
X142216884Y-65217848D01*
X142228734Y-65216409D01*
X142467757Y-65201950D01*
X142477627Y-65202770D01*
X142477627Y-65202625D01*
X142488778Y-65202645D01*
X142499642Y-65205143D01*
X142510514Y-65202683D01*
X142510516Y-65202683D01*
X142511583Y-65202441D01*
X142533432Y-65200000D01*
X157466040Y-65200000D01*
X157488227Y-65202518D01*
G37*
%TD.AperFunction*%
%TD*%
M02*
