%TF.GenerationSoftware,KiCad,Pcbnew,6.0.1-79c1e3a40b~116~ubuntu20.04.1*%
%TF.CreationDate,2022-01-22T22:37:32+01:00*%
%TF.ProjectId,bjt-amp,626a742d-616d-4702-9e6b-696361645f70,rev?*%
%TF.SameCoordinates,Original*%
%TF.FileFunction,Soldermask,Bot*%
%TF.FilePolarity,Negative*%
%FSLAX46Y46*%
G04 Gerber Fmt 4.6, Leading zero omitted, Abs format (unit mm)*
G04 Created by KiCad (PCBNEW 6.0.1-79c1e3a40b~116~ubuntu20.04.1) date 2022-01-22 22:37:32*
%MOMM*%
%LPD*%
G01*
G04 APERTURE LIST*
G04 Aperture macros list*
%AMRoundRect*
0 Rectangle with rounded corners*
0 $1 Rounding radius*
0 $2 $3 $4 $5 $6 $7 $8 $9 X,Y pos of 4 corners*
0 Add a 4 corners polygon primitive as box body*
4,1,4,$2,$3,$4,$5,$6,$7,$8,$9,$2,$3,0*
0 Add four circle primitives for the rounded corners*
1,1,$1+$1,$2,$3*
1,1,$1+$1,$4,$5*
1,1,$1+$1,$6,$7*
1,1,$1+$1,$8,$9*
0 Add four rect primitives between the rounded corners*
20,1,$1+$1,$2,$3,$4,$5,0*
20,1,$1+$1,$4,$5,$6,$7,0*
20,1,$1+$1,$6,$7,$8,$9,0*
20,1,$1+$1,$8,$9,$2,$3,0*%
G04 Aperture macros list end*
%ADD10RoundRect,0.925000X0.000000X0.000000X0.000000X0.000000X0.000000X0.000000X0.000000X0.000000X0*%
%ADD11C,3.400000*%
G04 APERTURE END LIST*
D10*
%TO.C,J1*%
X152500000Y-67500000D03*
%TD*%
D11*
%TO.C,H4*%
X142500000Y-67500000D03*
%TD*%
%TO.C,H3*%
X157500000Y-82500000D03*
%TD*%
%TO.C,H2*%
X157500000Y-67500000D03*
%TD*%
%TO.C,H1*%
X142500000Y-82500000D03*
%TD*%
G36*
X157504119Y-65000270D02*
G01*
X157818073Y-65020848D01*
X157834413Y-65022999D01*
X158138950Y-65083574D01*
X158154871Y-65087840D01*
X158448888Y-65187646D01*
X158464114Y-65193953D01*
X158742592Y-65331283D01*
X158756866Y-65339524D01*
X159015034Y-65512027D01*
X159028109Y-65522060D01*
X159261557Y-65726788D01*
X159273212Y-65738443D01*
X159477940Y-65971891D01*
X159487973Y-65984966D01*
X159660476Y-66243134D01*
X159668717Y-66257408D01*
X159806047Y-66535886D01*
X159812354Y-66551112D01*
X159912160Y-66845129D01*
X159916426Y-66861050D01*
X159977001Y-67165587D01*
X159979152Y-67181927D01*
X159999730Y-67495881D01*
X160000000Y-67504122D01*
X160000000Y-82495878D01*
X159999730Y-82504119D01*
X159979152Y-82818073D01*
X159977001Y-82834413D01*
X159916426Y-83138950D01*
X159912160Y-83154871D01*
X159812354Y-83448888D01*
X159806047Y-83464114D01*
X159668717Y-83742592D01*
X159660476Y-83756866D01*
X159487973Y-84015034D01*
X159477940Y-84028109D01*
X159273212Y-84261557D01*
X159261557Y-84273212D01*
X159028109Y-84477940D01*
X159015034Y-84487973D01*
X158756866Y-84660476D01*
X158742592Y-84668717D01*
X158464114Y-84806047D01*
X158448888Y-84812354D01*
X158154871Y-84912160D01*
X158138950Y-84916426D01*
X157834413Y-84977001D01*
X157818073Y-84979152D01*
X157504119Y-84999730D01*
X157495878Y-85000000D01*
X142504122Y-85000000D01*
X142495881Y-84999730D01*
X142181927Y-84979152D01*
X142165587Y-84977001D01*
X141861050Y-84916426D01*
X141845129Y-84912160D01*
X141551112Y-84812354D01*
X141535886Y-84806047D01*
X141257408Y-84668717D01*
X141243134Y-84660476D01*
X140984966Y-84487973D01*
X140971891Y-84477940D01*
X140738443Y-84273212D01*
X140726788Y-84261557D01*
X140522060Y-84028109D01*
X140512027Y-84015034D01*
X140339524Y-83756866D01*
X140331283Y-83742592D01*
X140193953Y-83464114D01*
X140187646Y-83448888D01*
X140087840Y-83154871D01*
X140083574Y-83138950D01*
X140022999Y-82834413D01*
X140020848Y-82818073D01*
X140000270Y-82504119D01*
X140000000Y-82495878D01*
X140000000Y-67504122D01*
X140000270Y-67495881D01*
X140020848Y-67181927D01*
X140022999Y-67165587D01*
X140083574Y-66861050D01*
X140087840Y-66845129D01*
X140187646Y-66551112D01*
X140193953Y-66535886D01*
X140331283Y-66257408D01*
X140339524Y-66243134D01*
X140512027Y-65984966D01*
X140522060Y-65971891D01*
X140726788Y-65738443D01*
X140738443Y-65726788D01*
X140971891Y-65522060D01*
X140984966Y-65512027D01*
X141243134Y-65339524D01*
X141257408Y-65331283D01*
X141535886Y-65193953D01*
X141551112Y-65187646D01*
X141845129Y-65087840D01*
X141861050Y-65083574D01*
X142165587Y-65022999D01*
X142181927Y-65020848D01*
X142495881Y-65000270D01*
X142504122Y-65000000D01*
X157495878Y-65000000D01*
X157504119Y-65000270D01*
G37*
M02*
