%TF.GenerationSoftware,KiCad,Pcbnew,6.0.1-79c1e3a40b~116~ubuntu20.04.1*%
%TF.CreationDate,2022-01-22T22:37:32+01:00*%
%TF.ProjectId,bjt-amp,626a742d-616d-4702-9e6b-696361645f70,rev?*%
%TF.SameCoordinates,Original*%
%TF.FileFunction,Legend,Top*%
%TF.FilePolarity,Positive*%
%FSLAX46Y46*%
G04 Gerber Fmt 4.6, Leading zero omitted, Abs format (unit mm)*
G04 Created by KiCad (PCBNEW 6.0.1-79c1e3a40b~116~ubuntu20.04.1) date 2022-01-22 22:37:32*
%MOMM*%
%LPD*%
G01*
G04 APERTURE LIST*
%ADD10C,0.120000*%
G04 APERTURE END LIST*
D10*
%TO.C,C6*%
X145782420Y-69213000D02*
X146063580Y-69213000D01*
X145782420Y-70233000D02*
X146063580Y-70233000D01*
%TO.C,R10*%
X156605500Y-77041742D02*
X156605500Y-77516258D01*
X155560500Y-77041742D02*
X155560500Y-77516258D01*
%TO.C,R9*%
X155337742Y-75522500D02*
X155812258Y-75522500D01*
X155337742Y-74477500D02*
X155812258Y-74477500D01*
%TO.C,R8*%
X155081500Y-77041742D02*
X155081500Y-77516258D01*
X154036500Y-77041742D02*
X154036500Y-77516258D01*
%TO.C,R7*%
X152022500Y-77295742D02*
X152022500Y-77770258D01*
X150977500Y-77295742D02*
X150977500Y-77770258D01*
%TO.C,R6*%
X153811500Y-71009742D02*
X153811500Y-71484258D01*
X152766500Y-71009742D02*
X152766500Y-71484258D01*
%TO.C,R5*%
X147686500Y-69485742D02*
X147686500Y-69960258D01*
X148731500Y-69485742D02*
X148731500Y-69960258D01*
%TO.C,R4*%
X146160258Y-71769500D02*
X145685742Y-71769500D01*
X146160258Y-70724500D02*
X145685742Y-70724500D01*
%TO.C,R3*%
X148731500Y-77041742D02*
X148731500Y-77516258D01*
X147686500Y-77041742D02*
X147686500Y-77516258D01*
%TO.C,R2*%
X147336742Y-74477500D02*
X147811258Y-74477500D01*
X147336742Y-75522500D02*
X147811258Y-75522500D01*
%TO.C,R1*%
X146572500Y-77041742D02*
X146572500Y-77516258D01*
X145527500Y-77041742D02*
X145527500Y-77516258D01*
%TO.C,Q1*%
X152370000Y-74062500D02*
X152370000Y-73412500D01*
X152370000Y-74062500D02*
X152370000Y-74712500D01*
X149250000Y-74062500D02*
X149250000Y-73412500D01*
X149250000Y-74062500D02*
X149250000Y-75737500D01*
%TO.C,L2*%
X148719000Y-72582721D02*
X148719000Y-72908279D01*
X147699000Y-72582721D02*
X147699000Y-72908279D01*
%TO.C,L1*%
X149162779Y-67510000D02*
X148837221Y-67510000D01*
X149162779Y-66490000D02*
X148837221Y-66490000D01*
%TO.C,C5*%
X153799000Y-74154420D02*
X153799000Y-74435580D01*
X152779000Y-74154420D02*
X152779000Y-74435580D01*
%TO.C,C4*%
X155434420Y-69975000D02*
X155715580Y-69975000D01*
X155434420Y-70995000D02*
X155715580Y-70995000D01*
%TO.C,C3*%
X151143580Y-70995000D02*
X150862420Y-70995000D01*
X151143580Y-69975000D02*
X150862420Y-69975000D01*
%TO.C,C2*%
X154359420Y-68451000D02*
X154640580Y-68451000D01*
X154359420Y-69471000D02*
X154640580Y-69471000D01*
%TO.C,C1*%
X144398420Y-74490000D02*
X144679580Y-74490000D01*
X144398420Y-75510000D02*
X144679580Y-75510000D01*
%TD*%
M02*
