%TF.GenerationSoftware,KiCad,Pcbnew,7.0.5+dfsg-2*%
%TF.CreationDate,2023-07-22T00:58:46+02:00*%
%TF.ProjectId,019-tayloe-quadrature-product-detector,3031392d-7461-4796-9c6f-652d71756164,2*%
%TF.SameCoordinates,Original*%
%TF.FileFunction,Drillmap*%
%TF.FilePolarity,Positive*%
%FSLAX45Y45*%
G04 Gerber Fmt 4.5, Leading zero omitted, Abs format (unit mm)*
G04 Created by KiCad (PCBNEW 7.0.5+dfsg-2) date 2023-07-22 00:58:46*
%MOMM*%
%LPD*%
G01*
G04 APERTURE LIST*
%ADD10C,0.100000*%
%ADD11C,0.200000*%
%ADD12C,0.040000*%
%ADD13C,0.070000*%
G04 APERTURE END LIST*
D10*
X13500000Y-5750000D02*
G75*
G03*
X13250000Y-6000000I0J-250000D01*
G01*
X13500000Y-5750000D02*
X15000000Y-5750000D01*
X15250000Y-6000000D02*
G75*
G03*
X15000000Y-5750000I-250000J0D01*
G01*
X13250000Y-13500000D02*
X13250000Y-6000000D01*
X13250000Y-13500000D02*
G75*
G03*
X13500000Y-13750000I250000J0D01*
G01*
X15250000Y-6000000D02*
X15250000Y-13500000D01*
X15000000Y-13750000D02*
G75*
G03*
X15250000Y-13500000I0J250000D01*
G01*
X15000000Y-13750000D02*
X13500000Y-13750000D01*
D11*
D12*
X13480000Y-6230000D02*
X13520000Y-6270000D01*
X13520000Y-6230000D02*
X13480000Y-6270000D01*
X13480000Y-6480000D02*
X13520000Y-6520000D01*
X13520000Y-6480000D02*
X13480000Y-6520000D01*
X13480000Y-6730000D02*
X13520000Y-6770000D01*
X13520000Y-6730000D02*
X13480000Y-6770000D01*
X13480000Y-7230000D02*
X13520000Y-7270000D01*
X13520000Y-7230000D02*
X13480000Y-7270000D01*
X13480000Y-7480000D02*
X13520000Y-7520000D01*
X13520000Y-7480000D02*
X13480000Y-7520000D01*
X13480000Y-7730000D02*
X13520000Y-7770000D01*
X13520000Y-7730000D02*
X13480000Y-7770000D01*
X13480000Y-8230000D02*
X13520000Y-8270000D01*
X13520000Y-8230000D02*
X13480000Y-8270000D01*
X13480000Y-8480000D02*
X13520000Y-8520000D01*
X13520000Y-8480000D02*
X13480000Y-8520000D01*
X13480000Y-8980000D02*
X13520000Y-9020000D01*
X13520000Y-8980000D02*
X13480000Y-9020000D01*
X13480000Y-9230000D02*
X13520000Y-9270000D01*
X13520000Y-9230000D02*
X13480000Y-9270000D01*
X13480000Y-9730000D02*
X13520000Y-9770000D01*
X13520000Y-9730000D02*
X13480000Y-9770000D01*
X13480000Y-9980000D02*
X13520000Y-10020000D01*
X13520000Y-9980000D02*
X13480000Y-10020000D01*
X13480000Y-10230000D02*
X13520000Y-10270000D01*
X13520000Y-10230000D02*
X13480000Y-10270000D01*
X13480000Y-10730000D02*
X13520000Y-10770000D01*
X13520000Y-10730000D02*
X13480000Y-10770000D01*
X13480000Y-11230000D02*
X13520000Y-11270000D01*
X13520000Y-11230000D02*
X13480000Y-11270000D01*
X13480000Y-11480000D02*
X13520000Y-11520000D01*
X13520000Y-11480000D02*
X13480000Y-11520000D01*
X13480000Y-11730000D02*
X13520000Y-11770000D01*
X13520000Y-11730000D02*
X13480000Y-11770000D01*
X13480000Y-12230000D02*
X13520000Y-12270000D01*
X13520000Y-12230000D02*
X13480000Y-12270000D01*
X13480000Y-12480000D02*
X13520000Y-12520000D01*
X13520000Y-12480000D02*
X13480000Y-12520000D01*
X13480000Y-12730000D02*
X13520000Y-12770000D01*
X13520000Y-12730000D02*
X13480000Y-12770000D01*
X13480000Y-12980000D02*
X13520000Y-13020000D01*
X13520000Y-12980000D02*
X13480000Y-13020000D01*
X13480000Y-13230000D02*
X13520000Y-13270000D01*
X13520000Y-13230000D02*
X13480000Y-13270000D01*
X13585504Y-8625425D02*
X13625504Y-8665425D01*
X13625504Y-8625425D02*
X13585504Y-8665425D01*
X13677505Y-8832024D02*
X13717505Y-8872024D01*
X13717505Y-8832024D02*
X13677505Y-8872024D01*
X13730000Y-5980000D02*
X13770000Y-6020000D01*
X13770000Y-5980000D02*
X13730000Y-6020000D01*
X13730000Y-6230000D02*
X13770000Y-6270000D01*
X13770000Y-6230000D02*
X13730000Y-6270000D01*
X13730000Y-6730000D02*
X13770000Y-6770000D01*
X13770000Y-6730000D02*
X13730000Y-6770000D01*
X13730000Y-7230000D02*
X13770000Y-7270000D01*
X13770000Y-7230000D02*
X13730000Y-7270000D01*
X13730000Y-7480000D02*
X13770000Y-7520000D01*
X13770000Y-7480000D02*
X13730000Y-7520000D01*
X13730000Y-7730000D02*
X13770000Y-7770000D01*
X13770000Y-7730000D02*
X13730000Y-7770000D01*
X13730000Y-7980000D02*
X13770000Y-8020000D01*
X13770000Y-7980000D02*
X13730000Y-8020000D01*
X13730000Y-8230000D02*
X13770000Y-8270000D01*
X13770000Y-8230000D02*
X13730000Y-8270000D01*
X13730000Y-8480000D02*
X13770000Y-8520000D01*
X13770000Y-8480000D02*
X13730000Y-8520000D01*
X13730000Y-8980000D02*
X13770000Y-9020000D01*
X13770000Y-8980000D02*
X13730000Y-9020000D01*
X13730000Y-9230000D02*
X13770000Y-9270000D01*
X13770000Y-9230000D02*
X13730000Y-9270000D01*
X13730000Y-9480000D02*
X13770000Y-9520000D01*
X13770000Y-9480000D02*
X13730000Y-9520000D01*
X13730000Y-9730000D02*
X13770000Y-9770000D01*
X13770000Y-9730000D02*
X13730000Y-9770000D01*
X13730000Y-10730000D02*
X13770000Y-10770000D01*
X13770000Y-10730000D02*
X13730000Y-10770000D01*
X13730000Y-11230000D02*
X13770000Y-11270000D01*
X13770000Y-11230000D02*
X13730000Y-11270000D01*
X13730000Y-11480000D02*
X13770000Y-11520000D01*
X13770000Y-11480000D02*
X13730000Y-11520000D01*
X13730000Y-11730000D02*
X13770000Y-11770000D01*
X13770000Y-11730000D02*
X13730000Y-11770000D01*
X13730000Y-11980000D02*
X13770000Y-12020000D01*
X13770000Y-11980000D02*
X13730000Y-12020000D01*
X13730000Y-12230000D02*
X13770000Y-12270000D01*
X13770000Y-12230000D02*
X13730000Y-12270000D01*
X13730000Y-12480000D02*
X13770000Y-12520000D01*
X13770000Y-12480000D02*
X13730000Y-12520000D01*
X13730000Y-12730000D02*
X13770000Y-12770000D01*
X13770000Y-12730000D02*
X13730000Y-12770000D01*
X13730000Y-12980000D02*
X13770000Y-13020000D01*
X13770000Y-12980000D02*
X13730000Y-13020000D01*
X13730000Y-13230000D02*
X13770000Y-13270000D01*
X13770000Y-13230000D02*
X13730000Y-13270000D01*
X13730000Y-13480000D02*
X13770000Y-13520000D01*
X13770000Y-13480000D02*
X13730000Y-13520000D01*
X13787261Y-8623810D02*
X13827261Y-8663810D01*
X13827261Y-8623810D02*
X13787261Y-8663810D01*
X13873427Y-9672057D02*
X13913427Y-9712057D01*
X13913427Y-9672057D02*
X13873427Y-9712057D01*
X13873427Y-10425400D02*
X13913427Y-10465400D01*
X13913427Y-10425400D02*
X13873427Y-10465400D01*
X13882491Y-8832024D02*
X13922491Y-8872024D01*
X13922491Y-8832024D02*
X13882491Y-8872024D01*
X13944980Y-12309740D02*
X13984980Y-12349740D01*
X13984980Y-12309740D02*
X13944980Y-12349740D01*
X13956570Y-12760000D02*
X13996570Y-12800000D01*
X13996570Y-12760000D02*
X13956570Y-12800000D01*
X13966422Y-8629460D02*
X14006422Y-8669460D01*
X14006422Y-8629460D02*
X13966422Y-8669460D01*
X13980000Y-5980000D02*
X14020000Y-6020000D01*
X14020000Y-5980000D02*
X13980000Y-6020000D01*
X13980000Y-6230000D02*
X14020000Y-6270000D01*
X14020000Y-6230000D02*
X13980000Y-6270000D01*
X13980000Y-6980000D02*
X14020000Y-7020000D01*
X14020000Y-6980000D02*
X13980000Y-7020000D01*
X13980000Y-7230000D02*
X14020000Y-7270000D01*
X14020000Y-7230000D02*
X13980000Y-7270000D01*
X13980000Y-7480000D02*
X14020000Y-7520000D01*
X14020000Y-7480000D02*
X13980000Y-7520000D01*
X13980000Y-7730000D02*
X14020000Y-7770000D01*
X14020000Y-7730000D02*
X13980000Y-7770000D01*
X13980000Y-7980000D02*
X14020000Y-8020000D01*
X14020000Y-7980000D02*
X13980000Y-8020000D01*
X13980000Y-8230000D02*
X14020000Y-8270000D01*
X14020000Y-8230000D02*
X13980000Y-8270000D01*
X13980000Y-8480000D02*
X14020000Y-8520000D01*
X14020000Y-8480000D02*
X13980000Y-8520000D01*
X13980000Y-9980000D02*
X14020000Y-10020000D01*
X14020000Y-9980000D02*
X13980000Y-10020000D01*
X13980000Y-10230000D02*
X14020000Y-10270000D01*
X14020000Y-10230000D02*
X13980000Y-10270000D01*
X13980000Y-10480000D02*
X14020000Y-10520000D01*
X14020000Y-10480000D02*
X13980000Y-10520000D01*
X13980000Y-10730000D02*
X14020000Y-10770000D01*
X14020000Y-10730000D02*
X13980000Y-10770000D01*
X13980000Y-10980000D02*
X14020000Y-11020000D01*
X14020000Y-10980000D02*
X13980000Y-11020000D01*
X13980000Y-11230000D02*
X14020000Y-11270000D01*
X14020000Y-11230000D02*
X13980000Y-11270000D01*
X13980000Y-11480000D02*
X14020000Y-11520000D01*
X14020000Y-11480000D02*
X13980000Y-11520000D01*
X13980000Y-11730000D02*
X14020000Y-11770000D01*
X14020000Y-11730000D02*
X13980000Y-11770000D01*
X13980000Y-11980000D02*
X14020000Y-12020000D01*
X14020000Y-11980000D02*
X13980000Y-12020000D01*
X13980000Y-13230000D02*
X14020000Y-13270000D01*
X14020000Y-13230000D02*
X13980000Y-13270000D01*
X13980000Y-13480000D02*
X14020000Y-13520000D01*
X14020000Y-13480000D02*
X13980000Y-13520000D01*
X14025335Y-8832024D02*
X14065335Y-8872024D01*
X14065335Y-8832024D02*
X14025335Y-8872024D01*
X14026949Y-9046694D02*
X14066949Y-9086694D01*
X14066949Y-9046694D02*
X14026949Y-9086694D01*
X14026949Y-9269435D02*
X14066949Y-9309435D01*
X14066949Y-9269435D02*
X14026949Y-9309435D01*
X14031476Y-9665084D02*
X14071476Y-9705084D01*
X14071476Y-9665084D02*
X14031476Y-9705084D01*
X14045421Y-10346375D02*
X14085421Y-10386375D01*
X14085421Y-10346375D02*
X14045421Y-10386375D01*
X14050000Y-12610000D02*
X14090000Y-12650000D01*
X14090000Y-12610000D02*
X14050000Y-12650000D01*
X14066900Y-13140000D02*
X14106900Y-13180000D01*
X14106900Y-13140000D02*
X14066900Y-13180000D01*
X14093126Y-9467157D02*
X14133126Y-9507157D01*
X14133126Y-9467157D02*
X14093126Y-9507157D01*
X14127012Y-13349701D02*
X14167012Y-13389701D01*
X14167012Y-13349701D02*
X14127012Y-13389701D01*
X14144776Y-8662548D02*
X14184776Y-8702548D01*
X14184776Y-8662548D02*
X14144776Y-8702548D01*
X14146810Y-12691760D02*
X14186810Y-12731760D01*
X14186810Y-12691760D02*
X14146810Y-12731760D01*
X14224672Y-8770690D02*
X14264672Y-8810690D01*
X14264672Y-8770690D02*
X14224672Y-8810690D01*
X14229514Y-9520421D02*
X14269514Y-9560421D01*
X14269514Y-9520421D02*
X14229514Y-9560421D01*
X14230000Y-5980000D02*
X14270000Y-6020000D01*
X14270000Y-5980000D02*
X14230000Y-6020000D01*
X14230000Y-6730000D02*
X14270000Y-6770000D01*
X14270000Y-6730000D02*
X14230000Y-6770000D01*
X14230000Y-6980000D02*
X14270000Y-7020000D01*
X14270000Y-6980000D02*
X14230000Y-7020000D01*
X14230000Y-7230000D02*
X14270000Y-7270000D01*
X14270000Y-7230000D02*
X14230000Y-7270000D01*
X14230000Y-7480000D02*
X14270000Y-7520000D01*
X14270000Y-7480000D02*
X14230000Y-7520000D01*
X14230000Y-7730000D02*
X14270000Y-7770000D01*
X14270000Y-7730000D02*
X14230000Y-7770000D01*
X14230000Y-7980000D02*
X14270000Y-8020000D01*
X14270000Y-7980000D02*
X14230000Y-8020000D01*
X14230000Y-8230000D02*
X14270000Y-8270000D01*
X14270000Y-8230000D02*
X14230000Y-8270000D01*
X14230000Y-8480000D02*
X14270000Y-8520000D01*
X14270000Y-8480000D02*
X14230000Y-8520000D01*
X14230000Y-9730000D02*
X14270000Y-9770000D01*
X14270000Y-9730000D02*
X14230000Y-9770000D01*
X14230000Y-10480000D02*
X14270000Y-10520000D01*
X14270000Y-10480000D02*
X14230000Y-10520000D01*
X14230000Y-10730000D02*
X14270000Y-10770000D01*
X14270000Y-10730000D02*
X14230000Y-10770000D01*
X14230000Y-11230000D02*
X14270000Y-11270000D01*
X14270000Y-11230000D02*
X14230000Y-11270000D01*
X14230000Y-11480000D02*
X14270000Y-11520000D01*
X14270000Y-11480000D02*
X14230000Y-11520000D01*
X14230000Y-11730000D02*
X14270000Y-11770000D01*
X14270000Y-11730000D02*
X14230000Y-11770000D01*
X14230000Y-11980000D02*
X14270000Y-12020000D01*
X14270000Y-11980000D02*
X14230000Y-12020000D01*
X14234356Y-9032975D02*
X14274356Y-9072975D01*
X14274356Y-9032975D02*
X14234356Y-9072975D01*
X14235970Y-9165328D02*
X14275970Y-9205328D01*
X14275970Y-9165328D02*
X14235970Y-9205328D01*
X14237584Y-9292031D02*
X14277584Y-9332031D01*
X14277584Y-9292031D02*
X14237584Y-9332031D01*
X14238391Y-9643090D02*
X14278391Y-9683090D01*
X14278391Y-9643090D02*
X14238391Y-9683090D01*
X14251530Y-12177577D02*
X14291530Y-12217577D01*
X14291530Y-12177577D02*
X14251530Y-12217577D01*
X14267560Y-10061520D02*
X14307560Y-10101520D01*
X14307560Y-10061520D02*
X14267560Y-10101520D01*
X14267560Y-10311520D02*
X14307560Y-10351520D01*
X14307560Y-10311520D02*
X14267560Y-10351520D01*
X14290000Y-12760000D02*
X14330000Y-12800000D01*
X14330000Y-12760000D02*
X14290000Y-12800000D01*
X14331460Y-13349701D02*
X14371460Y-13389701D01*
X14371460Y-13349701D02*
X14331460Y-13389701D01*
X14332133Y-13188967D02*
X14372133Y-13228967D01*
X14372133Y-13188967D02*
X14332133Y-13228967D01*
X14340000Y-12600000D02*
X14380000Y-12640000D01*
X14380000Y-12600000D02*
X14340000Y-12640000D01*
X14380000Y-12700000D02*
X14420000Y-12740000D01*
X14420000Y-12700000D02*
X14380000Y-12740000D01*
X14460600Y-10108320D02*
X14500600Y-10148320D01*
X14500600Y-10108320D02*
X14460600Y-10148320D01*
X14463110Y-11479766D02*
X14503110Y-11519766D01*
X14503110Y-11479766D02*
X14463110Y-11519766D01*
X14463505Y-10324281D02*
X14503505Y-10364281D01*
X14503505Y-10324281D02*
X14463505Y-10364281D01*
X14463555Y-11231574D02*
X14503555Y-11271574D01*
X14503555Y-11231574D02*
X14463555Y-11271574D01*
X14465167Y-7144883D02*
X14505167Y-7184883D01*
X14505167Y-7144883D02*
X14465167Y-7184883D01*
X14465167Y-7726026D02*
X14505167Y-7766026D01*
X14505167Y-7726026D02*
X14465167Y-7766026D01*
X14465554Y-10518359D02*
X14505554Y-10558359D01*
X14505554Y-10518359D02*
X14465554Y-10558359D01*
X14465974Y-8770690D02*
X14505974Y-8810690D01*
X14505974Y-8770690D02*
X14465974Y-8810690D01*
X14466014Y-8470943D02*
X14506014Y-8510943D01*
X14506014Y-8470943D02*
X14466014Y-8510943D01*
X14466781Y-6914879D02*
X14506781Y-6954879D01*
X14506781Y-6914879D02*
X14466781Y-6954879D01*
X14466781Y-8304226D02*
X14506781Y-8344226D01*
X14506781Y-8304226D02*
X14466781Y-8344226D01*
X14466781Y-8629460D02*
X14506781Y-8669460D01*
X14506781Y-8629460D02*
X14466781Y-8669460D01*
X14467588Y-7545977D02*
X14507588Y-7585977D01*
X14507588Y-7545977D02*
X14467588Y-7585977D01*
X14467588Y-8127120D02*
X14507588Y-8167120D01*
X14507588Y-8127120D02*
X14467588Y-8167120D01*
X14468459Y-10734320D02*
X14508459Y-10774320D01*
X14508459Y-10734320D02*
X14468459Y-10774320D01*
X14468459Y-10997734D02*
X14508459Y-11037734D01*
X14508459Y-10997734D02*
X14468459Y-11037734D01*
X14468459Y-11738875D02*
X14508459Y-11778875D01*
X14508459Y-11738875D02*
X14468459Y-11778875D01*
X14469361Y-7341723D02*
X14509361Y-7381723D01*
X14509361Y-7341723D02*
X14469361Y-7381723D01*
X14469361Y-7922866D02*
X14509361Y-7962866D01*
X14509361Y-7922866D02*
X14469361Y-7962866D01*
X14469428Y-12096228D02*
X14509428Y-12136228D01*
X14509428Y-12096228D02*
X14469428Y-12136228D01*
X14480000Y-5980000D02*
X14520000Y-6020000D01*
X14520000Y-5980000D02*
X14480000Y-6020000D01*
X14480000Y-6730000D02*
X14520000Y-6770000D01*
X14520000Y-6730000D02*
X14480000Y-6770000D01*
X14480000Y-13230000D02*
X14520000Y-13270000D01*
X14520000Y-13230000D02*
X14480000Y-13270000D01*
X14480000Y-13480000D02*
X14520000Y-13520000D01*
X14520000Y-13480000D02*
X14480000Y-13520000D01*
X14526565Y-12772196D02*
X14566565Y-12812196D01*
X14566565Y-12772196D02*
X14526565Y-12812196D01*
X14538606Y-9416314D02*
X14578606Y-9456314D01*
X14578606Y-9416314D02*
X14538606Y-9456314D01*
X14671766Y-7081127D02*
X14711766Y-7121127D01*
X14711766Y-7081127D02*
X14671766Y-7121127D01*
X14672799Y-11098452D02*
X14712799Y-11138452D01*
X14712799Y-11098452D02*
X14672799Y-11138452D01*
X14672799Y-11852182D02*
X14712799Y-11892182D01*
X14712799Y-11852182D02*
X14672799Y-11892182D01*
X14673380Y-6830948D02*
X14713380Y-6870948D01*
X14713380Y-6830948D02*
X14673380Y-6870948D01*
X14673497Y-12101558D02*
X14713497Y-12141558D01*
X14713497Y-12101558D02*
X14673497Y-12141558D01*
X14673497Y-12350903D02*
X14713497Y-12390903D01*
X14713497Y-12350903D02*
X14673497Y-12390903D01*
X14673768Y-12626931D02*
X14713768Y-12666931D01*
X14713768Y-12626931D02*
X14673768Y-12666931D01*
X14674187Y-7357132D02*
X14714187Y-7397132D01*
X14714187Y-7357132D02*
X14674187Y-7397132D01*
X14675801Y-7596013D02*
X14715801Y-7636013D01*
X14715801Y-7596013D02*
X14675801Y-7636013D01*
X14675801Y-7842640D02*
X14715801Y-7882640D01*
X14715801Y-7842640D02*
X14675801Y-7882640D01*
X14675801Y-8355876D02*
X14715801Y-8395876D01*
X14715801Y-8355876D02*
X14675801Y-8395876D01*
X14678223Y-8153347D02*
X14718223Y-8193347D01*
X14718223Y-8153347D02*
X14678223Y-8193347D01*
X14678223Y-8666583D02*
X14718223Y-8706583D01*
X14718223Y-8666583D02*
X14678223Y-8706583D01*
X14680644Y-6625962D02*
X14720644Y-6665962D01*
X14720644Y-6625962D02*
X14680644Y-6665962D01*
X14697979Y-12831271D02*
X14737979Y-12871271D01*
X14737979Y-12831271D02*
X14697979Y-12871271D01*
X14720333Y-10814754D02*
X14760333Y-10854754D01*
X14760333Y-10814754D02*
X14720333Y-10854754D01*
X14730000Y-5980000D02*
X14770000Y-6020000D01*
X14770000Y-5980000D02*
X14730000Y-6020000D01*
X14730000Y-6230000D02*
X14770000Y-6270000D01*
X14770000Y-6230000D02*
X14730000Y-6270000D01*
X14730000Y-6480000D02*
X14770000Y-6520000D01*
X14770000Y-6480000D02*
X14730000Y-6520000D01*
X14730000Y-6980000D02*
X14770000Y-7020000D01*
X14770000Y-6980000D02*
X14730000Y-7020000D01*
X14730000Y-7230000D02*
X14770000Y-7270000D01*
X14770000Y-7230000D02*
X14730000Y-7270000D01*
X14730000Y-7480000D02*
X14770000Y-7520000D01*
X14770000Y-7480000D02*
X14730000Y-7520000D01*
X14730000Y-7730000D02*
X14770000Y-7770000D01*
X14770000Y-7730000D02*
X14730000Y-7770000D01*
X14730000Y-7980000D02*
X14770000Y-8020000D01*
X14770000Y-7980000D02*
X14730000Y-8020000D01*
X14730000Y-8480000D02*
X14770000Y-8520000D01*
X14770000Y-8480000D02*
X14730000Y-8520000D01*
X14730000Y-9480000D02*
X14770000Y-9520000D01*
X14770000Y-9480000D02*
X14730000Y-9520000D01*
X14730000Y-10980000D02*
X14770000Y-11020000D01*
X14770000Y-10980000D02*
X14730000Y-11020000D01*
X14730000Y-11230000D02*
X14770000Y-11270000D01*
X14770000Y-11230000D02*
X14730000Y-11270000D01*
X14730000Y-11480000D02*
X14770000Y-11520000D01*
X14770000Y-11480000D02*
X14730000Y-11520000D01*
X14730000Y-11730000D02*
X14770000Y-11770000D01*
X14770000Y-11730000D02*
X14730000Y-11770000D01*
X14730000Y-11980000D02*
X14770000Y-12020000D01*
X14770000Y-11980000D02*
X14730000Y-12020000D01*
X14730000Y-12230000D02*
X14770000Y-12270000D01*
X14770000Y-12230000D02*
X14730000Y-12270000D01*
X14730000Y-12480000D02*
X14770000Y-12520000D01*
X14770000Y-12480000D02*
X14730000Y-12520000D01*
X14730000Y-12980000D02*
X14770000Y-13020000D01*
X14770000Y-12980000D02*
X14730000Y-13020000D01*
X14730000Y-13230000D02*
X14770000Y-13270000D01*
X14770000Y-13230000D02*
X14730000Y-13270000D01*
X14730000Y-13480000D02*
X14770000Y-13520000D01*
X14770000Y-13480000D02*
X14730000Y-13520000D01*
X14737136Y-9341260D02*
X14777136Y-9381260D01*
X14777136Y-9341260D02*
X14737136Y-9381260D01*
X14801472Y-9654840D02*
X14841472Y-9694840D01*
X14841472Y-9654840D02*
X14801472Y-9694840D01*
X14801472Y-9803520D02*
X14841472Y-9843520D01*
X14841472Y-9803520D02*
X14801472Y-9843520D01*
X14801472Y-10143880D02*
X14841472Y-10183880D01*
X14841472Y-10143880D02*
X14801472Y-10183880D01*
X14802505Y-9051536D02*
X14842505Y-9091536D01*
X14842505Y-9051536D02*
X14802505Y-9091536D01*
X14808154Y-8841709D02*
X14848154Y-8881709D01*
X14848154Y-8841709D02*
X14808154Y-8881709D01*
X14870979Y-10624429D02*
X14910979Y-10664429D01*
X14910979Y-10624429D02*
X14870979Y-10664429D01*
X14873524Y-6834176D02*
X14913524Y-6874176D01*
X14913524Y-6834176D02*
X14873524Y-6874176D01*
X14878108Y-12832239D02*
X14918108Y-12872239D01*
X14918108Y-12832239D02*
X14878108Y-12872239D01*
X14884430Y-10832912D02*
X14924430Y-10872912D01*
X14924430Y-10832912D02*
X14884430Y-10872912D01*
X14980000Y-6230000D02*
X15020000Y-6270000D01*
X15020000Y-6230000D02*
X14980000Y-6270000D01*
X14980000Y-6480000D02*
X15020000Y-6520000D01*
X15020000Y-6480000D02*
X14980000Y-6520000D01*
X14980000Y-6980000D02*
X15020000Y-7020000D01*
X15020000Y-6980000D02*
X14980000Y-7020000D01*
X14980000Y-7230000D02*
X15020000Y-7270000D01*
X15020000Y-7230000D02*
X14980000Y-7270000D01*
X14980000Y-7730000D02*
X15020000Y-7770000D01*
X15020000Y-7730000D02*
X14980000Y-7770000D01*
X14980000Y-8230000D02*
X15020000Y-8270000D01*
X15020000Y-8230000D02*
X14980000Y-8270000D01*
X14980000Y-8480000D02*
X15020000Y-8520000D01*
X15020000Y-8480000D02*
X14980000Y-8520000D01*
X14980000Y-8980000D02*
X15020000Y-9020000D01*
X15020000Y-8980000D02*
X14980000Y-9020000D01*
X14980000Y-9230000D02*
X15020000Y-9270000D01*
X15020000Y-9230000D02*
X14980000Y-9270000D01*
X14980000Y-9730000D02*
X15020000Y-9770000D01*
X15020000Y-9730000D02*
X14980000Y-9770000D01*
X14980000Y-10230000D02*
X15020000Y-10270000D01*
X15020000Y-10230000D02*
X14980000Y-10270000D01*
X14980000Y-10480000D02*
X15020000Y-10520000D01*
X15020000Y-10480000D02*
X14980000Y-10520000D01*
X14980000Y-10980000D02*
X15020000Y-11020000D01*
X15020000Y-10980000D02*
X14980000Y-11020000D01*
X14980000Y-11230000D02*
X15020000Y-11270000D01*
X15020000Y-11230000D02*
X14980000Y-11270000D01*
X14980000Y-11730000D02*
X15020000Y-11770000D01*
X15020000Y-11730000D02*
X14980000Y-11770000D01*
X14980000Y-12230000D02*
X15020000Y-12270000D01*
X15020000Y-12230000D02*
X14980000Y-12270000D01*
X14980000Y-12480000D02*
X15020000Y-12520000D01*
X15020000Y-12480000D02*
X14980000Y-12520000D01*
X14980000Y-12980000D02*
X15020000Y-13020000D01*
X15020000Y-12980000D02*
X14980000Y-13020000D01*
X14980000Y-13230000D02*
X15020000Y-13270000D01*
X15020000Y-13230000D02*
X14980000Y-13270000D01*
X13320000Y-8650000D02*
G75*
G03*
X13320000Y-8650000I-20000J0D01*
G01*
X13320000Y-8850000D02*
G75*
G03*
X13320000Y-8850000I-20000J0D01*
G01*
X13370000Y-8600000D02*
G75*
G03*
X13370000Y-8600000I-20000J0D01*
G01*
X13370000Y-8900000D02*
G75*
G03*
X13370000Y-8900000I-20000J0D01*
G01*
X13420000Y-8650000D02*
G75*
G03*
X13420000Y-8650000I-20000J0D01*
G01*
X13420000Y-8850000D02*
G75*
G03*
X13420000Y-8850000I-20000J0D01*
G01*
X13470000Y-8600000D02*
G75*
G03*
X13470000Y-8600000I-20000J0D01*
G01*
X13470000Y-8900000D02*
G75*
G03*
X13470000Y-8900000I-20000J0D01*
G01*
X13520000Y-8650000D02*
G75*
G03*
X13520000Y-8650000I-20000J0D01*
G01*
X13520000Y-8850000D02*
G75*
G03*
X13520000Y-8850000I-20000J0D01*
G01*
X14120000Y-13550000D02*
G75*
G03*
X14120000Y-13550000I-20000J0D01*
G01*
X14120000Y-13650000D02*
G75*
G03*
X14120000Y-13650000I-20000J0D01*
G01*
X14170000Y-13500000D02*
G75*
G03*
X14170000Y-13500000I-20000J0D01*
G01*
X14170000Y-13600000D02*
G75*
G03*
X14170000Y-13600000I-20000J0D01*
G01*
X14170000Y-13700000D02*
G75*
G03*
X14170000Y-13700000I-20000J0D01*
G01*
X14370000Y-13500000D02*
G75*
G03*
X14370000Y-13500000I-20000J0D01*
G01*
X14370000Y-13600000D02*
G75*
G03*
X14370000Y-13600000I-20000J0D01*
G01*
X14370000Y-13700000D02*
G75*
G03*
X14370000Y-13700000I-20000J0D01*
G01*
X14420000Y-13550000D02*
G75*
G03*
X14420000Y-13550000I-20000J0D01*
G01*
X14420000Y-13650000D02*
G75*
G03*
X14420000Y-13650000I-20000J0D01*
G01*
X15020000Y-6650000D02*
G75*
G03*
X15020000Y-6650000I-20000J0D01*
G01*
X15020000Y-6850000D02*
G75*
G03*
X15020000Y-6850000I-20000J0D01*
G01*
X15020000Y-8650000D02*
G75*
G03*
X15020000Y-8650000I-20000J0D01*
G01*
X15020000Y-8850000D02*
G75*
G03*
X15020000Y-8850000I-20000J0D01*
G01*
X15020000Y-10650000D02*
G75*
G03*
X15020000Y-10650000I-20000J0D01*
G01*
X15020000Y-10850000D02*
G75*
G03*
X15020000Y-10850000I-20000J0D01*
G01*
X15020000Y-12650000D02*
G75*
G03*
X15020000Y-12650000I-20000J0D01*
G01*
X15020000Y-12850000D02*
G75*
G03*
X15020000Y-12850000I-20000J0D01*
G01*
X15070000Y-6600000D02*
G75*
G03*
X15070000Y-6600000I-20000J0D01*
G01*
X15070000Y-6900000D02*
G75*
G03*
X15070000Y-6900000I-20000J0D01*
G01*
X15070000Y-8600000D02*
G75*
G03*
X15070000Y-8600000I-20000J0D01*
G01*
X15070000Y-8900000D02*
G75*
G03*
X15070000Y-8900000I-20000J0D01*
G01*
X15070000Y-10600000D02*
G75*
G03*
X15070000Y-10600000I-20000J0D01*
G01*
X15070000Y-10900000D02*
G75*
G03*
X15070000Y-10900000I-20000J0D01*
G01*
X15070000Y-12600000D02*
G75*
G03*
X15070000Y-12600000I-20000J0D01*
G01*
X15070000Y-12900000D02*
G75*
G03*
X15070000Y-12900000I-20000J0D01*
G01*
X15120000Y-6650000D02*
G75*
G03*
X15120000Y-6650000I-20000J0D01*
G01*
X15120000Y-6850000D02*
G75*
G03*
X15120000Y-6850000I-20000J0D01*
G01*
X15120000Y-8650000D02*
G75*
G03*
X15120000Y-8650000I-20000J0D01*
G01*
X15120000Y-8850000D02*
G75*
G03*
X15120000Y-8850000I-20000J0D01*
G01*
X15120000Y-10650000D02*
G75*
G03*
X15120000Y-10650000I-20000J0D01*
G01*
X15120000Y-10850000D02*
G75*
G03*
X15120000Y-10850000I-20000J0D01*
G01*
X15120000Y-12650000D02*
G75*
G03*
X15120000Y-12650000I-20000J0D01*
G01*
X15120000Y-12850000D02*
G75*
G03*
X15120000Y-12850000I-20000J0D01*
G01*
X15170000Y-6600000D02*
G75*
G03*
X15170000Y-6600000I-20000J0D01*
G01*
X15170000Y-6900000D02*
G75*
G03*
X15170000Y-6900000I-20000J0D01*
G01*
X15170000Y-8600000D02*
G75*
G03*
X15170000Y-8600000I-20000J0D01*
G01*
X15170000Y-8900000D02*
G75*
G03*
X15170000Y-8900000I-20000J0D01*
G01*
X15170000Y-10600000D02*
G75*
G03*
X15170000Y-10600000I-20000J0D01*
G01*
X15170000Y-10900000D02*
G75*
G03*
X15170000Y-10900000I-20000J0D01*
G01*
X15170000Y-12600000D02*
G75*
G03*
X15170000Y-12600000I-20000J0D01*
G01*
X15170000Y-12900000D02*
G75*
G03*
X15170000Y-12900000I-20000J0D01*
G01*
X15220000Y-6650000D02*
G75*
G03*
X15220000Y-6650000I-20000J0D01*
G01*
X15220000Y-6850000D02*
G75*
G03*
X15220000Y-6850000I-20000J0D01*
G01*
X15220000Y-8650000D02*
G75*
G03*
X15220000Y-8650000I-20000J0D01*
G01*
X15220000Y-8850000D02*
G75*
G03*
X15220000Y-8850000I-20000J0D01*
G01*
X15220000Y-10650000D02*
G75*
G03*
X15220000Y-10650000I-20000J0D01*
G01*
X15220000Y-10850000D02*
G75*
G03*
X15220000Y-10850000I-20000J0D01*
G01*
X15220000Y-12650000D02*
G75*
G03*
X15220000Y-12650000I-20000J0D01*
G01*
X15220000Y-12850000D02*
G75*
G03*
X15220000Y-12850000I-20000J0D01*
G01*
D13*
X13500000Y-6965000D02*
X13500000Y-7035000D01*
X13465000Y-7000000D02*
X13535000Y-7000000D01*
X13500000Y-10465000D02*
X13500000Y-10535000D01*
X13465000Y-10500000D02*
X13535000Y-10500000D01*
X13500000Y-10965000D02*
X13500000Y-11035000D01*
X13465000Y-11000000D02*
X13535000Y-11000000D01*
D11*
X13570711Y-6070711D02*
X13570711Y-5929289D01*
X13429289Y-5929289D01*
X13429289Y-6070711D01*
X13570711Y-6070711D01*
X13570711Y-8070711D02*
X13570711Y-7929289D01*
X13429289Y-7929289D01*
X13429289Y-8070711D01*
X13570711Y-8070711D01*
X13570711Y-9570711D02*
X13570711Y-9429289D01*
X13429289Y-9429289D01*
X13429289Y-9570711D01*
X13570711Y-9570711D01*
X13570711Y-12070711D02*
X13570711Y-11929289D01*
X13429289Y-11929289D01*
X13429289Y-12070711D01*
X13570711Y-12070711D01*
X13570711Y-13570711D02*
X13570711Y-13429289D01*
X13429289Y-13429289D01*
X13429289Y-13570711D01*
X13570711Y-13570711D01*
X15070711Y-6070711D02*
X15070711Y-5929289D01*
X14929289Y-5929289D01*
X14929289Y-6070711D01*
X15070711Y-6070711D01*
X15070711Y-7570711D02*
X15070711Y-7429289D01*
X14929289Y-7429289D01*
X14929289Y-7570711D01*
X15070711Y-7570711D01*
X15070711Y-8070711D02*
X15070711Y-7929289D01*
X14929289Y-7929289D01*
X14929289Y-8070711D01*
X15070711Y-8070711D01*
X15070711Y-9570711D02*
X15070711Y-9429289D01*
X14929289Y-9429289D01*
X14929289Y-9570711D01*
X15070711Y-9570711D01*
X15070711Y-10070711D02*
X15070711Y-9929289D01*
X14929289Y-9929289D01*
X14929289Y-10070711D01*
X15070711Y-10070711D01*
X15070711Y-11570711D02*
X15070711Y-11429289D01*
X14929289Y-11429289D01*
X14929289Y-11570711D01*
X15070711Y-11570711D01*
X15070711Y-12070711D02*
X15070711Y-11929289D01*
X14929289Y-11929289D01*
X14929289Y-12070711D01*
X15070711Y-12070711D01*
X15070711Y-13570711D02*
X15070711Y-13429289D01*
X14929289Y-13429289D01*
X14929289Y-13570711D01*
X15070711Y-13570711D01*
X13505777Y-14066484D02*
X13505777Y-13866484D01*
X13505777Y-13866484D02*
X13553396Y-13866484D01*
X13553396Y-13866484D02*
X13581967Y-13876008D01*
X13581967Y-13876008D02*
X13601015Y-13895055D01*
X13601015Y-13895055D02*
X13610539Y-13914103D01*
X13610539Y-13914103D02*
X13620062Y-13952198D01*
X13620062Y-13952198D02*
X13620062Y-13980769D01*
X13620062Y-13980769D02*
X13610539Y-14018865D01*
X13610539Y-14018865D02*
X13601015Y-14037912D01*
X13601015Y-14037912D02*
X13581967Y-14056960D01*
X13581967Y-14056960D02*
X13553396Y-14066484D01*
X13553396Y-14066484D02*
X13505777Y-14066484D01*
X13705777Y-14066484D02*
X13705777Y-13933150D01*
X13705777Y-13971246D02*
X13715301Y-13952198D01*
X13715301Y-13952198D02*
X13724824Y-13942674D01*
X13724824Y-13942674D02*
X13743872Y-13933150D01*
X13743872Y-13933150D02*
X13762920Y-13933150D01*
X13829586Y-14066484D02*
X13829586Y-13933150D01*
X13829586Y-13866484D02*
X13820062Y-13876008D01*
X13820062Y-13876008D02*
X13829586Y-13885531D01*
X13829586Y-13885531D02*
X13839110Y-13876008D01*
X13839110Y-13876008D02*
X13829586Y-13866484D01*
X13829586Y-13866484D02*
X13829586Y-13885531D01*
X13953396Y-14066484D02*
X13934348Y-14056960D01*
X13934348Y-14056960D02*
X13924824Y-14037912D01*
X13924824Y-14037912D02*
X13924824Y-13866484D01*
X14058158Y-14066484D02*
X14039110Y-14056960D01*
X14039110Y-14056960D02*
X14029586Y-14037912D01*
X14029586Y-14037912D02*
X14029586Y-13866484D01*
X14286729Y-14066484D02*
X14286729Y-13866484D01*
X14286729Y-13866484D02*
X14353396Y-14009341D01*
X14353396Y-14009341D02*
X14420062Y-13866484D01*
X14420062Y-13866484D02*
X14420062Y-14066484D01*
X14601015Y-14066484D02*
X14601015Y-13961722D01*
X14601015Y-13961722D02*
X14591491Y-13942674D01*
X14591491Y-13942674D02*
X14572443Y-13933150D01*
X14572443Y-13933150D02*
X14534348Y-13933150D01*
X14534348Y-13933150D02*
X14515301Y-13942674D01*
X14601015Y-14056960D02*
X14581967Y-14066484D01*
X14581967Y-14066484D02*
X14534348Y-14066484D01*
X14534348Y-14066484D02*
X14515301Y-14056960D01*
X14515301Y-14056960D02*
X14505777Y-14037912D01*
X14505777Y-14037912D02*
X14505777Y-14018865D01*
X14505777Y-14018865D02*
X14515301Y-13999817D01*
X14515301Y-13999817D02*
X14534348Y-13990293D01*
X14534348Y-13990293D02*
X14581967Y-13990293D01*
X14581967Y-13990293D02*
X14601015Y-13980769D01*
X14696253Y-13933150D02*
X14696253Y-14133150D01*
X14696253Y-13942674D02*
X14715301Y-13933150D01*
X14715301Y-13933150D02*
X14753396Y-13933150D01*
X14753396Y-13933150D02*
X14772443Y-13942674D01*
X14772443Y-13942674D02*
X14781967Y-13952198D01*
X14781967Y-13952198D02*
X14791491Y-13971246D01*
X14791491Y-13971246D02*
X14791491Y-14028388D01*
X14791491Y-14028388D02*
X14781967Y-14047436D01*
X14781967Y-14047436D02*
X14772443Y-14056960D01*
X14772443Y-14056960D02*
X14753396Y-14066484D01*
X14753396Y-14066484D02*
X14715301Y-14066484D01*
X14715301Y-14066484D02*
X14696253Y-14056960D01*
X14877205Y-14047436D02*
X14886729Y-14056960D01*
X14886729Y-14056960D02*
X14877205Y-14066484D01*
X14877205Y-14066484D02*
X14867682Y-14056960D01*
X14867682Y-14056960D02*
X14877205Y-14047436D01*
X14877205Y-14047436D02*
X14877205Y-14066484D01*
X14877205Y-13942674D02*
X14886729Y-13952198D01*
X14886729Y-13952198D02*
X14877205Y-13961722D01*
X14877205Y-13961722D02*
X14867682Y-13952198D01*
X14867682Y-13952198D02*
X14877205Y-13942674D01*
X14877205Y-13942674D02*
X14877205Y-13961722D01*
D12*
X13205000Y-14375000D02*
X13245000Y-14415000D01*
X13245000Y-14375000D02*
X13205000Y-14415000D01*
D11*
X13543872Y-14286484D02*
X13562920Y-14286484D01*
X13562920Y-14286484D02*
X13581967Y-14296008D01*
X13581967Y-14296008D02*
X13591491Y-14305531D01*
X13591491Y-14305531D02*
X13601015Y-14324579D01*
X13601015Y-14324579D02*
X13610539Y-14362674D01*
X13610539Y-14362674D02*
X13610539Y-14410293D01*
X13610539Y-14410293D02*
X13601015Y-14448388D01*
X13601015Y-14448388D02*
X13591491Y-14467436D01*
X13591491Y-14467436D02*
X13581967Y-14476960D01*
X13581967Y-14476960D02*
X13562920Y-14486484D01*
X13562920Y-14486484D02*
X13543872Y-14486484D01*
X13543872Y-14486484D02*
X13524824Y-14476960D01*
X13524824Y-14476960D02*
X13515301Y-14467436D01*
X13515301Y-14467436D02*
X13505777Y-14448388D01*
X13505777Y-14448388D02*
X13496253Y-14410293D01*
X13496253Y-14410293D02*
X13496253Y-14362674D01*
X13496253Y-14362674D02*
X13505777Y-14324579D01*
X13505777Y-14324579D02*
X13515301Y-14305531D01*
X13515301Y-14305531D02*
X13524824Y-14296008D01*
X13524824Y-14296008D02*
X13543872Y-14286484D01*
X13696253Y-14467436D02*
X13705777Y-14476960D01*
X13705777Y-14476960D02*
X13696253Y-14486484D01*
X13696253Y-14486484D02*
X13686729Y-14476960D01*
X13686729Y-14476960D02*
X13696253Y-14467436D01*
X13696253Y-14467436D02*
X13696253Y-14486484D01*
X13877205Y-14353150D02*
X13877205Y-14486484D01*
X13829586Y-14276960D02*
X13781967Y-14419817D01*
X13781967Y-14419817D02*
X13905777Y-14419817D01*
X14020062Y-14286484D02*
X14039110Y-14286484D01*
X14039110Y-14286484D02*
X14058158Y-14296008D01*
X14058158Y-14296008D02*
X14067682Y-14305531D01*
X14067682Y-14305531D02*
X14077205Y-14324579D01*
X14077205Y-14324579D02*
X14086729Y-14362674D01*
X14086729Y-14362674D02*
X14086729Y-14410293D01*
X14086729Y-14410293D02*
X14077205Y-14448388D01*
X14077205Y-14448388D02*
X14067682Y-14467436D01*
X14067682Y-14467436D02*
X14058158Y-14476960D01*
X14058158Y-14476960D02*
X14039110Y-14486484D01*
X14039110Y-14486484D02*
X14020062Y-14486484D01*
X14020062Y-14486484D02*
X14001015Y-14476960D01*
X14001015Y-14476960D02*
X13991491Y-14467436D01*
X13991491Y-14467436D02*
X13981967Y-14448388D01*
X13981967Y-14448388D02*
X13972443Y-14410293D01*
X13972443Y-14410293D02*
X13972443Y-14362674D01*
X13972443Y-14362674D02*
X13981967Y-14324579D01*
X13981967Y-14324579D02*
X13991491Y-14305531D01*
X13991491Y-14305531D02*
X14001015Y-14296008D01*
X14001015Y-14296008D02*
X14020062Y-14286484D01*
X14210539Y-14286484D02*
X14229586Y-14286484D01*
X14229586Y-14286484D02*
X14248634Y-14296008D01*
X14248634Y-14296008D02*
X14258158Y-14305531D01*
X14258158Y-14305531D02*
X14267682Y-14324579D01*
X14267682Y-14324579D02*
X14277205Y-14362674D01*
X14277205Y-14362674D02*
X14277205Y-14410293D01*
X14277205Y-14410293D02*
X14267682Y-14448388D01*
X14267682Y-14448388D02*
X14258158Y-14467436D01*
X14258158Y-14467436D02*
X14248634Y-14476960D01*
X14248634Y-14476960D02*
X14229586Y-14486484D01*
X14229586Y-14486484D02*
X14210539Y-14486484D01*
X14210539Y-14486484D02*
X14191491Y-14476960D01*
X14191491Y-14476960D02*
X14181967Y-14467436D01*
X14181967Y-14467436D02*
X14172443Y-14448388D01*
X14172443Y-14448388D02*
X14162920Y-14410293D01*
X14162920Y-14410293D02*
X14162920Y-14362674D01*
X14162920Y-14362674D02*
X14172443Y-14324579D01*
X14172443Y-14324579D02*
X14181967Y-14305531D01*
X14181967Y-14305531D02*
X14191491Y-14296008D01*
X14191491Y-14296008D02*
X14210539Y-14286484D01*
X14362920Y-14486484D02*
X14362920Y-14353150D01*
X14362920Y-14372198D02*
X14372443Y-14362674D01*
X14372443Y-14362674D02*
X14391491Y-14353150D01*
X14391491Y-14353150D02*
X14420063Y-14353150D01*
X14420063Y-14353150D02*
X14439110Y-14362674D01*
X14439110Y-14362674D02*
X14448634Y-14381722D01*
X14448634Y-14381722D02*
X14448634Y-14486484D01*
X14448634Y-14381722D02*
X14458158Y-14362674D01*
X14458158Y-14362674D02*
X14477205Y-14353150D01*
X14477205Y-14353150D02*
X14505777Y-14353150D01*
X14505777Y-14353150D02*
X14524824Y-14362674D01*
X14524824Y-14362674D02*
X14534348Y-14381722D01*
X14534348Y-14381722D02*
X14534348Y-14486484D01*
X14629586Y-14486484D02*
X14629586Y-14353150D01*
X14629586Y-14372198D02*
X14639110Y-14362674D01*
X14639110Y-14362674D02*
X14658158Y-14353150D01*
X14658158Y-14353150D02*
X14686729Y-14353150D01*
X14686729Y-14353150D02*
X14705777Y-14362674D01*
X14705777Y-14362674D02*
X14715301Y-14381722D01*
X14715301Y-14381722D02*
X14715301Y-14486484D01*
X14715301Y-14381722D02*
X14724824Y-14362674D01*
X14724824Y-14362674D02*
X14743872Y-14353150D01*
X14743872Y-14353150D02*
X14772443Y-14353150D01*
X14772443Y-14353150D02*
X14791491Y-14362674D01*
X14791491Y-14362674D02*
X14801015Y-14381722D01*
X14801015Y-14381722D02*
X14801015Y-14486484D01*
X15191491Y-14276960D02*
X15020063Y-14534103D01*
X15448634Y-14286484D02*
X15467682Y-14286484D01*
X15467682Y-14286484D02*
X15486729Y-14296008D01*
X15486729Y-14296008D02*
X15496253Y-14305531D01*
X15496253Y-14305531D02*
X15505777Y-14324579D01*
X15505777Y-14324579D02*
X15515301Y-14362674D01*
X15515301Y-14362674D02*
X15515301Y-14410293D01*
X15515301Y-14410293D02*
X15505777Y-14448388D01*
X15505777Y-14448388D02*
X15496253Y-14467436D01*
X15496253Y-14467436D02*
X15486729Y-14476960D01*
X15486729Y-14476960D02*
X15467682Y-14486484D01*
X15467682Y-14486484D02*
X15448634Y-14486484D01*
X15448634Y-14486484D02*
X15429586Y-14476960D01*
X15429586Y-14476960D02*
X15420063Y-14467436D01*
X15420063Y-14467436D02*
X15410539Y-14448388D01*
X15410539Y-14448388D02*
X15401015Y-14410293D01*
X15401015Y-14410293D02*
X15401015Y-14362674D01*
X15401015Y-14362674D02*
X15410539Y-14324579D01*
X15410539Y-14324579D02*
X15420063Y-14305531D01*
X15420063Y-14305531D02*
X15429586Y-14296008D01*
X15429586Y-14296008D02*
X15448634Y-14286484D01*
X15601015Y-14467436D02*
X15610539Y-14476960D01*
X15610539Y-14476960D02*
X15601015Y-14486484D01*
X15601015Y-14486484D02*
X15591491Y-14476960D01*
X15591491Y-14476960D02*
X15601015Y-14467436D01*
X15601015Y-14467436D02*
X15601015Y-14486484D01*
X15734348Y-14286484D02*
X15753396Y-14286484D01*
X15753396Y-14286484D02*
X15772444Y-14296008D01*
X15772444Y-14296008D02*
X15781967Y-14305531D01*
X15781967Y-14305531D02*
X15791491Y-14324579D01*
X15791491Y-14324579D02*
X15801015Y-14362674D01*
X15801015Y-14362674D02*
X15801015Y-14410293D01*
X15801015Y-14410293D02*
X15791491Y-14448388D01*
X15791491Y-14448388D02*
X15781967Y-14467436D01*
X15781967Y-14467436D02*
X15772444Y-14476960D01*
X15772444Y-14476960D02*
X15753396Y-14486484D01*
X15753396Y-14486484D02*
X15734348Y-14486484D01*
X15734348Y-14486484D02*
X15715301Y-14476960D01*
X15715301Y-14476960D02*
X15705777Y-14467436D01*
X15705777Y-14467436D02*
X15696253Y-14448388D01*
X15696253Y-14448388D02*
X15686729Y-14410293D01*
X15686729Y-14410293D02*
X15686729Y-14362674D01*
X15686729Y-14362674D02*
X15696253Y-14324579D01*
X15696253Y-14324579D02*
X15705777Y-14305531D01*
X15705777Y-14305531D02*
X15715301Y-14296008D01*
X15715301Y-14296008D02*
X15734348Y-14286484D01*
X15991491Y-14486484D02*
X15877206Y-14486484D01*
X15934348Y-14486484D02*
X15934348Y-14286484D01*
X15934348Y-14286484D02*
X15915301Y-14315055D01*
X15915301Y-14315055D02*
X15896253Y-14334103D01*
X15896253Y-14334103D02*
X15877206Y-14343627D01*
X16172444Y-14286484D02*
X16077206Y-14286484D01*
X16077206Y-14286484D02*
X16067682Y-14381722D01*
X16067682Y-14381722D02*
X16077206Y-14372198D01*
X16077206Y-14372198D02*
X16096253Y-14362674D01*
X16096253Y-14362674D02*
X16143872Y-14362674D01*
X16143872Y-14362674D02*
X16162920Y-14372198D01*
X16162920Y-14372198D02*
X16172444Y-14381722D01*
X16172444Y-14381722D02*
X16181967Y-14400769D01*
X16181967Y-14400769D02*
X16181967Y-14448388D01*
X16181967Y-14448388D02*
X16172444Y-14467436D01*
X16172444Y-14467436D02*
X16162920Y-14476960D01*
X16162920Y-14476960D02*
X16143872Y-14486484D01*
X16143872Y-14486484D02*
X16096253Y-14486484D01*
X16096253Y-14486484D02*
X16077206Y-14476960D01*
X16077206Y-14476960D02*
X16067682Y-14467436D01*
X16248634Y-14286484D02*
X16381967Y-14286484D01*
X16381967Y-14286484D02*
X16296253Y-14486484D01*
X16448634Y-14286484D02*
X16448634Y-14324579D01*
X16524825Y-14286484D02*
X16524825Y-14324579D01*
X16820063Y-14562674D02*
X16810539Y-14553150D01*
X16810539Y-14553150D02*
X16791491Y-14524579D01*
X16791491Y-14524579D02*
X16781968Y-14505531D01*
X16781968Y-14505531D02*
X16772444Y-14476960D01*
X16772444Y-14476960D02*
X16762920Y-14429341D01*
X16762920Y-14429341D02*
X16762920Y-14391246D01*
X16762920Y-14391246D02*
X16772444Y-14343627D01*
X16772444Y-14343627D02*
X16781968Y-14315055D01*
X16781968Y-14315055D02*
X16791491Y-14296008D01*
X16791491Y-14296008D02*
X16810539Y-14267436D01*
X16810539Y-14267436D02*
X16820063Y-14257912D01*
X16886730Y-14305531D02*
X16896253Y-14296008D01*
X16896253Y-14296008D02*
X16915301Y-14286484D01*
X16915301Y-14286484D02*
X16962920Y-14286484D01*
X16962920Y-14286484D02*
X16981968Y-14296008D01*
X16981968Y-14296008D02*
X16991491Y-14305531D01*
X16991491Y-14305531D02*
X17001015Y-14324579D01*
X17001015Y-14324579D02*
X17001015Y-14343627D01*
X17001015Y-14343627D02*
X16991491Y-14372198D01*
X16991491Y-14372198D02*
X16877206Y-14486484D01*
X16877206Y-14486484D02*
X17001015Y-14486484D01*
X17124825Y-14286484D02*
X17143872Y-14286484D01*
X17143872Y-14286484D02*
X17162920Y-14296008D01*
X17162920Y-14296008D02*
X17172444Y-14305531D01*
X17172444Y-14305531D02*
X17181968Y-14324579D01*
X17181968Y-14324579D02*
X17191491Y-14362674D01*
X17191491Y-14362674D02*
X17191491Y-14410293D01*
X17191491Y-14410293D02*
X17181968Y-14448388D01*
X17181968Y-14448388D02*
X17172444Y-14467436D01*
X17172444Y-14467436D02*
X17162920Y-14476960D01*
X17162920Y-14476960D02*
X17143872Y-14486484D01*
X17143872Y-14486484D02*
X17124825Y-14486484D01*
X17124825Y-14486484D02*
X17105777Y-14476960D01*
X17105777Y-14476960D02*
X17096253Y-14467436D01*
X17096253Y-14467436D02*
X17086730Y-14448388D01*
X17086730Y-14448388D02*
X17077206Y-14410293D01*
X17077206Y-14410293D02*
X17077206Y-14362674D01*
X17077206Y-14362674D02*
X17086730Y-14324579D01*
X17086730Y-14324579D02*
X17096253Y-14305531D01*
X17096253Y-14305531D02*
X17105777Y-14296008D01*
X17105777Y-14296008D02*
X17124825Y-14286484D01*
X17258158Y-14286484D02*
X17391491Y-14286484D01*
X17391491Y-14286484D02*
X17305777Y-14486484D01*
X17620063Y-14486484D02*
X17620063Y-14286484D01*
X17705777Y-14486484D02*
X17705777Y-14381722D01*
X17705777Y-14381722D02*
X17696253Y-14362674D01*
X17696253Y-14362674D02*
X17677206Y-14353150D01*
X17677206Y-14353150D02*
X17648634Y-14353150D01*
X17648634Y-14353150D02*
X17629587Y-14362674D01*
X17629587Y-14362674D02*
X17620063Y-14372198D01*
X17829587Y-14486484D02*
X17810539Y-14476960D01*
X17810539Y-14476960D02*
X17801015Y-14467436D01*
X17801015Y-14467436D02*
X17791492Y-14448388D01*
X17791492Y-14448388D02*
X17791492Y-14391246D01*
X17791492Y-14391246D02*
X17801015Y-14372198D01*
X17801015Y-14372198D02*
X17810539Y-14362674D01*
X17810539Y-14362674D02*
X17829587Y-14353150D01*
X17829587Y-14353150D02*
X17858158Y-14353150D01*
X17858158Y-14353150D02*
X17877206Y-14362674D01*
X17877206Y-14362674D02*
X17886730Y-14372198D01*
X17886730Y-14372198D02*
X17896253Y-14391246D01*
X17896253Y-14391246D02*
X17896253Y-14448388D01*
X17896253Y-14448388D02*
X17886730Y-14467436D01*
X17886730Y-14467436D02*
X17877206Y-14476960D01*
X17877206Y-14476960D02*
X17858158Y-14486484D01*
X17858158Y-14486484D02*
X17829587Y-14486484D01*
X18010539Y-14486484D02*
X17991492Y-14476960D01*
X17991492Y-14476960D02*
X17981968Y-14457912D01*
X17981968Y-14457912D02*
X17981968Y-14286484D01*
X18162920Y-14476960D02*
X18143873Y-14486484D01*
X18143873Y-14486484D02*
X18105777Y-14486484D01*
X18105777Y-14486484D02*
X18086730Y-14476960D01*
X18086730Y-14476960D02*
X18077206Y-14457912D01*
X18077206Y-14457912D02*
X18077206Y-14381722D01*
X18077206Y-14381722D02*
X18086730Y-14362674D01*
X18086730Y-14362674D02*
X18105777Y-14353150D01*
X18105777Y-14353150D02*
X18143873Y-14353150D01*
X18143873Y-14353150D02*
X18162920Y-14362674D01*
X18162920Y-14362674D02*
X18172444Y-14381722D01*
X18172444Y-14381722D02*
X18172444Y-14400769D01*
X18172444Y-14400769D02*
X18077206Y-14419817D01*
X18248634Y-14476960D02*
X18267682Y-14486484D01*
X18267682Y-14486484D02*
X18305777Y-14486484D01*
X18305777Y-14486484D02*
X18324825Y-14476960D01*
X18324825Y-14476960D02*
X18334349Y-14457912D01*
X18334349Y-14457912D02*
X18334349Y-14448388D01*
X18334349Y-14448388D02*
X18324825Y-14429341D01*
X18324825Y-14429341D02*
X18305777Y-14419817D01*
X18305777Y-14419817D02*
X18277206Y-14419817D01*
X18277206Y-14419817D02*
X18258158Y-14410293D01*
X18258158Y-14410293D02*
X18248634Y-14391246D01*
X18248634Y-14391246D02*
X18248634Y-14381722D01*
X18248634Y-14381722D02*
X18258158Y-14362674D01*
X18258158Y-14362674D02*
X18277206Y-14353150D01*
X18277206Y-14353150D02*
X18305777Y-14353150D01*
X18305777Y-14353150D02*
X18324825Y-14362674D01*
X18401015Y-14562674D02*
X18410539Y-14553150D01*
X18410539Y-14553150D02*
X18429587Y-14524579D01*
X18429587Y-14524579D02*
X18439111Y-14505531D01*
X18439111Y-14505531D02*
X18448634Y-14476960D01*
X18448634Y-14476960D02*
X18458158Y-14429341D01*
X18458158Y-14429341D02*
X18458158Y-14391246D01*
X18458158Y-14391246D02*
X18448634Y-14343627D01*
X18448634Y-14343627D02*
X18439111Y-14315055D01*
X18439111Y-14315055D02*
X18429587Y-14296008D01*
X18429587Y-14296008D02*
X18410539Y-14267436D01*
X18410539Y-14267436D02*
X18401015Y-14257912D01*
D12*
X13245000Y-14659000D02*
G75*
G03*
X13245000Y-14659000I-20000J0D01*
G01*
D11*
X13543872Y-14550484D02*
X13562920Y-14550484D01*
X13562920Y-14550484D02*
X13581967Y-14560008D01*
X13581967Y-14560008D02*
X13591491Y-14569531D01*
X13591491Y-14569531D02*
X13601015Y-14588579D01*
X13601015Y-14588579D02*
X13610539Y-14626674D01*
X13610539Y-14626674D02*
X13610539Y-14674293D01*
X13610539Y-14674293D02*
X13601015Y-14712388D01*
X13601015Y-14712388D02*
X13591491Y-14731436D01*
X13591491Y-14731436D02*
X13581967Y-14740960D01*
X13581967Y-14740960D02*
X13562920Y-14750484D01*
X13562920Y-14750484D02*
X13543872Y-14750484D01*
X13543872Y-14750484D02*
X13524824Y-14740960D01*
X13524824Y-14740960D02*
X13515301Y-14731436D01*
X13515301Y-14731436D02*
X13505777Y-14712388D01*
X13505777Y-14712388D02*
X13496253Y-14674293D01*
X13496253Y-14674293D02*
X13496253Y-14626674D01*
X13496253Y-14626674D02*
X13505777Y-14588579D01*
X13505777Y-14588579D02*
X13515301Y-14569531D01*
X13515301Y-14569531D02*
X13524824Y-14560008D01*
X13524824Y-14560008D02*
X13543872Y-14550484D01*
X13696253Y-14731436D02*
X13705777Y-14740960D01*
X13705777Y-14740960D02*
X13696253Y-14750484D01*
X13696253Y-14750484D02*
X13686729Y-14740960D01*
X13686729Y-14740960D02*
X13696253Y-14731436D01*
X13696253Y-14731436D02*
X13696253Y-14750484D01*
X13877205Y-14617150D02*
X13877205Y-14750484D01*
X13829586Y-14540960D02*
X13781967Y-14683817D01*
X13781967Y-14683817D02*
X13905777Y-14683817D01*
X14020062Y-14550484D02*
X14039110Y-14550484D01*
X14039110Y-14550484D02*
X14058158Y-14560008D01*
X14058158Y-14560008D02*
X14067682Y-14569531D01*
X14067682Y-14569531D02*
X14077205Y-14588579D01*
X14077205Y-14588579D02*
X14086729Y-14626674D01*
X14086729Y-14626674D02*
X14086729Y-14674293D01*
X14086729Y-14674293D02*
X14077205Y-14712388D01*
X14077205Y-14712388D02*
X14067682Y-14731436D01*
X14067682Y-14731436D02*
X14058158Y-14740960D01*
X14058158Y-14740960D02*
X14039110Y-14750484D01*
X14039110Y-14750484D02*
X14020062Y-14750484D01*
X14020062Y-14750484D02*
X14001015Y-14740960D01*
X14001015Y-14740960D02*
X13991491Y-14731436D01*
X13991491Y-14731436D02*
X13981967Y-14712388D01*
X13981967Y-14712388D02*
X13972443Y-14674293D01*
X13972443Y-14674293D02*
X13972443Y-14626674D01*
X13972443Y-14626674D02*
X13981967Y-14588579D01*
X13981967Y-14588579D02*
X13991491Y-14569531D01*
X13991491Y-14569531D02*
X14001015Y-14560008D01*
X14001015Y-14560008D02*
X14020062Y-14550484D01*
X14210539Y-14550484D02*
X14229586Y-14550484D01*
X14229586Y-14550484D02*
X14248634Y-14560008D01*
X14248634Y-14560008D02*
X14258158Y-14569531D01*
X14258158Y-14569531D02*
X14267682Y-14588579D01*
X14267682Y-14588579D02*
X14277205Y-14626674D01*
X14277205Y-14626674D02*
X14277205Y-14674293D01*
X14277205Y-14674293D02*
X14267682Y-14712388D01*
X14267682Y-14712388D02*
X14258158Y-14731436D01*
X14258158Y-14731436D02*
X14248634Y-14740960D01*
X14248634Y-14740960D02*
X14229586Y-14750484D01*
X14229586Y-14750484D02*
X14210539Y-14750484D01*
X14210539Y-14750484D02*
X14191491Y-14740960D01*
X14191491Y-14740960D02*
X14181967Y-14731436D01*
X14181967Y-14731436D02*
X14172443Y-14712388D01*
X14172443Y-14712388D02*
X14162920Y-14674293D01*
X14162920Y-14674293D02*
X14162920Y-14626674D01*
X14162920Y-14626674D02*
X14172443Y-14588579D01*
X14172443Y-14588579D02*
X14181967Y-14569531D01*
X14181967Y-14569531D02*
X14191491Y-14560008D01*
X14191491Y-14560008D02*
X14210539Y-14550484D01*
X14362920Y-14750484D02*
X14362920Y-14617150D01*
X14362920Y-14636198D02*
X14372443Y-14626674D01*
X14372443Y-14626674D02*
X14391491Y-14617150D01*
X14391491Y-14617150D02*
X14420063Y-14617150D01*
X14420063Y-14617150D02*
X14439110Y-14626674D01*
X14439110Y-14626674D02*
X14448634Y-14645722D01*
X14448634Y-14645722D02*
X14448634Y-14750484D01*
X14448634Y-14645722D02*
X14458158Y-14626674D01*
X14458158Y-14626674D02*
X14477205Y-14617150D01*
X14477205Y-14617150D02*
X14505777Y-14617150D01*
X14505777Y-14617150D02*
X14524824Y-14626674D01*
X14524824Y-14626674D02*
X14534348Y-14645722D01*
X14534348Y-14645722D02*
X14534348Y-14750484D01*
X14629586Y-14750484D02*
X14629586Y-14617150D01*
X14629586Y-14636198D02*
X14639110Y-14626674D01*
X14639110Y-14626674D02*
X14658158Y-14617150D01*
X14658158Y-14617150D02*
X14686729Y-14617150D01*
X14686729Y-14617150D02*
X14705777Y-14626674D01*
X14705777Y-14626674D02*
X14715301Y-14645722D01*
X14715301Y-14645722D02*
X14715301Y-14750484D01*
X14715301Y-14645722D02*
X14724824Y-14626674D01*
X14724824Y-14626674D02*
X14743872Y-14617150D01*
X14743872Y-14617150D02*
X14772443Y-14617150D01*
X14772443Y-14617150D02*
X14791491Y-14626674D01*
X14791491Y-14626674D02*
X14801015Y-14645722D01*
X14801015Y-14645722D02*
X14801015Y-14750484D01*
X15191491Y-14540960D02*
X15020063Y-14798103D01*
X15448634Y-14550484D02*
X15467682Y-14550484D01*
X15467682Y-14550484D02*
X15486729Y-14560008D01*
X15486729Y-14560008D02*
X15496253Y-14569531D01*
X15496253Y-14569531D02*
X15505777Y-14588579D01*
X15505777Y-14588579D02*
X15515301Y-14626674D01*
X15515301Y-14626674D02*
X15515301Y-14674293D01*
X15515301Y-14674293D02*
X15505777Y-14712388D01*
X15505777Y-14712388D02*
X15496253Y-14731436D01*
X15496253Y-14731436D02*
X15486729Y-14740960D01*
X15486729Y-14740960D02*
X15467682Y-14750484D01*
X15467682Y-14750484D02*
X15448634Y-14750484D01*
X15448634Y-14750484D02*
X15429586Y-14740960D01*
X15429586Y-14740960D02*
X15420063Y-14731436D01*
X15420063Y-14731436D02*
X15410539Y-14712388D01*
X15410539Y-14712388D02*
X15401015Y-14674293D01*
X15401015Y-14674293D02*
X15401015Y-14626674D01*
X15401015Y-14626674D02*
X15410539Y-14588579D01*
X15410539Y-14588579D02*
X15420063Y-14569531D01*
X15420063Y-14569531D02*
X15429586Y-14560008D01*
X15429586Y-14560008D02*
X15448634Y-14550484D01*
X15601015Y-14731436D02*
X15610539Y-14740960D01*
X15610539Y-14740960D02*
X15601015Y-14750484D01*
X15601015Y-14750484D02*
X15591491Y-14740960D01*
X15591491Y-14740960D02*
X15601015Y-14731436D01*
X15601015Y-14731436D02*
X15601015Y-14750484D01*
X15734348Y-14550484D02*
X15753396Y-14550484D01*
X15753396Y-14550484D02*
X15772444Y-14560008D01*
X15772444Y-14560008D02*
X15781967Y-14569531D01*
X15781967Y-14569531D02*
X15791491Y-14588579D01*
X15791491Y-14588579D02*
X15801015Y-14626674D01*
X15801015Y-14626674D02*
X15801015Y-14674293D01*
X15801015Y-14674293D02*
X15791491Y-14712388D01*
X15791491Y-14712388D02*
X15781967Y-14731436D01*
X15781967Y-14731436D02*
X15772444Y-14740960D01*
X15772444Y-14740960D02*
X15753396Y-14750484D01*
X15753396Y-14750484D02*
X15734348Y-14750484D01*
X15734348Y-14750484D02*
X15715301Y-14740960D01*
X15715301Y-14740960D02*
X15705777Y-14731436D01*
X15705777Y-14731436D02*
X15696253Y-14712388D01*
X15696253Y-14712388D02*
X15686729Y-14674293D01*
X15686729Y-14674293D02*
X15686729Y-14626674D01*
X15686729Y-14626674D02*
X15696253Y-14588579D01*
X15696253Y-14588579D02*
X15705777Y-14569531D01*
X15705777Y-14569531D02*
X15715301Y-14560008D01*
X15715301Y-14560008D02*
X15734348Y-14550484D01*
X15991491Y-14750484D02*
X15877206Y-14750484D01*
X15934348Y-14750484D02*
X15934348Y-14550484D01*
X15934348Y-14550484D02*
X15915301Y-14579055D01*
X15915301Y-14579055D02*
X15896253Y-14598103D01*
X15896253Y-14598103D02*
X15877206Y-14607627D01*
X16172444Y-14550484D02*
X16077206Y-14550484D01*
X16077206Y-14550484D02*
X16067682Y-14645722D01*
X16067682Y-14645722D02*
X16077206Y-14636198D01*
X16077206Y-14636198D02*
X16096253Y-14626674D01*
X16096253Y-14626674D02*
X16143872Y-14626674D01*
X16143872Y-14626674D02*
X16162920Y-14636198D01*
X16162920Y-14636198D02*
X16172444Y-14645722D01*
X16172444Y-14645722D02*
X16181967Y-14664769D01*
X16181967Y-14664769D02*
X16181967Y-14712388D01*
X16181967Y-14712388D02*
X16172444Y-14731436D01*
X16172444Y-14731436D02*
X16162920Y-14740960D01*
X16162920Y-14740960D02*
X16143872Y-14750484D01*
X16143872Y-14750484D02*
X16096253Y-14750484D01*
X16096253Y-14750484D02*
X16077206Y-14740960D01*
X16077206Y-14740960D02*
X16067682Y-14731436D01*
X16248634Y-14550484D02*
X16381967Y-14550484D01*
X16381967Y-14550484D02*
X16296253Y-14750484D01*
X16448634Y-14550484D02*
X16448634Y-14588579D01*
X16524825Y-14550484D02*
X16524825Y-14588579D01*
X16820063Y-14826674D02*
X16810539Y-14817150D01*
X16810539Y-14817150D02*
X16791491Y-14788579D01*
X16791491Y-14788579D02*
X16781968Y-14769531D01*
X16781968Y-14769531D02*
X16772444Y-14740960D01*
X16772444Y-14740960D02*
X16762920Y-14693341D01*
X16762920Y-14693341D02*
X16762920Y-14655246D01*
X16762920Y-14655246D02*
X16772444Y-14607627D01*
X16772444Y-14607627D02*
X16781968Y-14579055D01*
X16781968Y-14579055D02*
X16791491Y-14560008D01*
X16791491Y-14560008D02*
X16810539Y-14531436D01*
X16810539Y-14531436D02*
X16820063Y-14521912D01*
X16981968Y-14550484D02*
X16943872Y-14550484D01*
X16943872Y-14550484D02*
X16924825Y-14560008D01*
X16924825Y-14560008D02*
X16915301Y-14569531D01*
X16915301Y-14569531D02*
X16896253Y-14598103D01*
X16896253Y-14598103D02*
X16886730Y-14636198D01*
X16886730Y-14636198D02*
X16886730Y-14712388D01*
X16886730Y-14712388D02*
X16896253Y-14731436D01*
X16896253Y-14731436D02*
X16905777Y-14740960D01*
X16905777Y-14740960D02*
X16924825Y-14750484D01*
X16924825Y-14750484D02*
X16962920Y-14750484D01*
X16962920Y-14750484D02*
X16981968Y-14740960D01*
X16981968Y-14740960D02*
X16991491Y-14731436D01*
X16991491Y-14731436D02*
X17001015Y-14712388D01*
X17001015Y-14712388D02*
X17001015Y-14664769D01*
X17001015Y-14664769D02*
X16991491Y-14645722D01*
X16991491Y-14645722D02*
X16981968Y-14636198D01*
X16981968Y-14636198D02*
X16962920Y-14626674D01*
X16962920Y-14626674D02*
X16924825Y-14626674D01*
X16924825Y-14626674D02*
X16905777Y-14636198D01*
X16905777Y-14636198D02*
X16896253Y-14645722D01*
X16896253Y-14645722D02*
X16886730Y-14664769D01*
X17124825Y-14550484D02*
X17143872Y-14550484D01*
X17143872Y-14550484D02*
X17162920Y-14560008D01*
X17162920Y-14560008D02*
X17172444Y-14569531D01*
X17172444Y-14569531D02*
X17181968Y-14588579D01*
X17181968Y-14588579D02*
X17191491Y-14626674D01*
X17191491Y-14626674D02*
X17191491Y-14674293D01*
X17191491Y-14674293D02*
X17181968Y-14712388D01*
X17181968Y-14712388D02*
X17172444Y-14731436D01*
X17172444Y-14731436D02*
X17162920Y-14740960D01*
X17162920Y-14740960D02*
X17143872Y-14750484D01*
X17143872Y-14750484D02*
X17124825Y-14750484D01*
X17124825Y-14750484D02*
X17105777Y-14740960D01*
X17105777Y-14740960D02*
X17096253Y-14731436D01*
X17096253Y-14731436D02*
X17086730Y-14712388D01*
X17086730Y-14712388D02*
X17077206Y-14674293D01*
X17077206Y-14674293D02*
X17077206Y-14626674D01*
X17077206Y-14626674D02*
X17086730Y-14588579D01*
X17086730Y-14588579D02*
X17096253Y-14569531D01*
X17096253Y-14569531D02*
X17105777Y-14560008D01*
X17105777Y-14560008D02*
X17124825Y-14550484D01*
X17429587Y-14750484D02*
X17429587Y-14550484D01*
X17515301Y-14750484D02*
X17515301Y-14645722D01*
X17515301Y-14645722D02*
X17505777Y-14626674D01*
X17505777Y-14626674D02*
X17486730Y-14617150D01*
X17486730Y-14617150D02*
X17458158Y-14617150D01*
X17458158Y-14617150D02*
X17439111Y-14626674D01*
X17439111Y-14626674D02*
X17429587Y-14636198D01*
X17639111Y-14750484D02*
X17620063Y-14740960D01*
X17620063Y-14740960D02*
X17610539Y-14731436D01*
X17610539Y-14731436D02*
X17601015Y-14712388D01*
X17601015Y-14712388D02*
X17601015Y-14655246D01*
X17601015Y-14655246D02*
X17610539Y-14636198D01*
X17610539Y-14636198D02*
X17620063Y-14626674D01*
X17620063Y-14626674D02*
X17639111Y-14617150D01*
X17639111Y-14617150D02*
X17667682Y-14617150D01*
X17667682Y-14617150D02*
X17686730Y-14626674D01*
X17686730Y-14626674D02*
X17696253Y-14636198D01*
X17696253Y-14636198D02*
X17705777Y-14655246D01*
X17705777Y-14655246D02*
X17705777Y-14712388D01*
X17705777Y-14712388D02*
X17696253Y-14731436D01*
X17696253Y-14731436D02*
X17686730Y-14740960D01*
X17686730Y-14740960D02*
X17667682Y-14750484D01*
X17667682Y-14750484D02*
X17639111Y-14750484D01*
X17820063Y-14750484D02*
X17801015Y-14740960D01*
X17801015Y-14740960D02*
X17791492Y-14721912D01*
X17791492Y-14721912D02*
X17791492Y-14550484D01*
X17972444Y-14740960D02*
X17953396Y-14750484D01*
X17953396Y-14750484D02*
X17915301Y-14750484D01*
X17915301Y-14750484D02*
X17896253Y-14740960D01*
X17896253Y-14740960D02*
X17886730Y-14721912D01*
X17886730Y-14721912D02*
X17886730Y-14645722D01*
X17886730Y-14645722D02*
X17896253Y-14626674D01*
X17896253Y-14626674D02*
X17915301Y-14617150D01*
X17915301Y-14617150D02*
X17953396Y-14617150D01*
X17953396Y-14617150D02*
X17972444Y-14626674D01*
X17972444Y-14626674D02*
X17981968Y-14645722D01*
X17981968Y-14645722D02*
X17981968Y-14664769D01*
X17981968Y-14664769D02*
X17886730Y-14683817D01*
X18058158Y-14740960D02*
X18077206Y-14750484D01*
X18077206Y-14750484D02*
X18115301Y-14750484D01*
X18115301Y-14750484D02*
X18134349Y-14740960D01*
X18134349Y-14740960D02*
X18143873Y-14721912D01*
X18143873Y-14721912D02*
X18143873Y-14712388D01*
X18143873Y-14712388D02*
X18134349Y-14693341D01*
X18134349Y-14693341D02*
X18115301Y-14683817D01*
X18115301Y-14683817D02*
X18086730Y-14683817D01*
X18086730Y-14683817D02*
X18067682Y-14674293D01*
X18067682Y-14674293D02*
X18058158Y-14655246D01*
X18058158Y-14655246D02*
X18058158Y-14645722D01*
X18058158Y-14645722D02*
X18067682Y-14626674D01*
X18067682Y-14626674D02*
X18086730Y-14617150D01*
X18086730Y-14617150D02*
X18115301Y-14617150D01*
X18115301Y-14617150D02*
X18134349Y-14626674D01*
X18210539Y-14826674D02*
X18220063Y-14817150D01*
X18220063Y-14817150D02*
X18239111Y-14788579D01*
X18239111Y-14788579D02*
X18248634Y-14769531D01*
X18248634Y-14769531D02*
X18258158Y-14740960D01*
X18258158Y-14740960D02*
X18267682Y-14693341D01*
X18267682Y-14693341D02*
X18267682Y-14655246D01*
X18267682Y-14655246D02*
X18258158Y-14607627D01*
X18258158Y-14607627D02*
X18248634Y-14579055D01*
X18248634Y-14579055D02*
X18239111Y-14560008D01*
X18239111Y-14560008D02*
X18220063Y-14531436D01*
X18220063Y-14531436D02*
X18210539Y-14521912D01*
D13*
X13210000Y-14888000D02*
X13210000Y-14958000D01*
X13175000Y-14923000D02*
X13245000Y-14923000D01*
D11*
X13543872Y-14814484D02*
X13562920Y-14814484D01*
X13562920Y-14814484D02*
X13581967Y-14824008D01*
X13581967Y-14824008D02*
X13591491Y-14833531D01*
X13591491Y-14833531D02*
X13601015Y-14852579D01*
X13601015Y-14852579D02*
X13610539Y-14890674D01*
X13610539Y-14890674D02*
X13610539Y-14938293D01*
X13610539Y-14938293D02*
X13601015Y-14976388D01*
X13601015Y-14976388D02*
X13591491Y-14995436D01*
X13591491Y-14995436D02*
X13581967Y-15004960D01*
X13581967Y-15004960D02*
X13562920Y-15014484D01*
X13562920Y-15014484D02*
X13543872Y-15014484D01*
X13543872Y-15014484D02*
X13524824Y-15004960D01*
X13524824Y-15004960D02*
X13515301Y-14995436D01*
X13515301Y-14995436D02*
X13505777Y-14976388D01*
X13505777Y-14976388D02*
X13496253Y-14938293D01*
X13496253Y-14938293D02*
X13496253Y-14890674D01*
X13496253Y-14890674D02*
X13505777Y-14852579D01*
X13505777Y-14852579D02*
X13515301Y-14833531D01*
X13515301Y-14833531D02*
X13524824Y-14824008D01*
X13524824Y-14824008D02*
X13543872Y-14814484D01*
X13696253Y-14995436D02*
X13705777Y-15004960D01*
X13705777Y-15004960D02*
X13696253Y-15014484D01*
X13696253Y-15014484D02*
X13686729Y-15004960D01*
X13686729Y-15004960D02*
X13696253Y-14995436D01*
X13696253Y-14995436D02*
X13696253Y-15014484D01*
X13772443Y-14814484D02*
X13905777Y-14814484D01*
X13905777Y-14814484D02*
X13820062Y-15014484D01*
X14020062Y-14814484D02*
X14039110Y-14814484D01*
X14039110Y-14814484D02*
X14058158Y-14824008D01*
X14058158Y-14824008D02*
X14067682Y-14833531D01*
X14067682Y-14833531D02*
X14077205Y-14852579D01*
X14077205Y-14852579D02*
X14086729Y-14890674D01*
X14086729Y-14890674D02*
X14086729Y-14938293D01*
X14086729Y-14938293D02*
X14077205Y-14976388D01*
X14077205Y-14976388D02*
X14067682Y-14995436D01*
X14067682Y-14995436D02*
X14058158Y-15004960D01*
X14058158Y-15004960D02*
X14039110Y-15014484D01*
X14039110Y-15014484D02*
X14020062Y-15014484D01*
X14020062Y-15014484D02*
X14001015Y-15004960D01*
X14001015Y-15004960D02*
X13991491Y-14995436D01*
X13991491Y-14995436D02*
X13981967Y-14976388D01*
X13981967Y-14976388D02*
X13972443Y-14938293D01*
X13972443Y-14938293D02*
X13972443Y-14890674D01*
X13972443Y-14890674D02*
X13981967Y-14852579D01*
X13981967Y-14852579D02*
X13991491Y-14833531D01*
X13991491Y-14833531D02*
X14001015Y-14824008D01*
X14001015Y-14824008D02*
X14020062Y-14814484D01*
X14210539Y-14814484D02*
X14229586Y-14814484D01*
X14229586Y-14814484D02*
X14248634Y-14824008D01*
X14248634Y-14824008D02*
X14258158Y-14833531D01*
X14258158Y-14833531D02*
X14267682Y-14852579D01*
X14267682Y-14852579D02*
X14277205Y-14890674D01*
X14277205Y-14890674D02*
X14277205Y-14938293D01*
X14277205Y-14938293D02*
X14267682Y-14976388D01*
X14267682Y-14976388D02*
X14258158Y-14995436D01*
X14258158Y-14995436D02*
X14248634Y-15004960D01*
X14248634Y-15004960D02*
X14229586Y-15014484D01*
X14229586Y-15014484D02*
X14210539Y-15014484D01*
X14210539Y-15014484D02*
X14191491Y-15004960D01*
X14191491Y-15004960D02*
X14181967Y-14995436D01*
X14181967Y-14995436D02*
X14172443Y-14976388D01*
X14172443Y-14976388D02*
X14162920Y-14938293D01*
X14162920Y-14938293D02*
X14162920Y-14890674D01*
X14162920Y-14890674D02*
X14172443Y-14852579D01*
X14172443Y-14852579D02*
X14181967Y-14833531D01*
X14181967Y-14833531D02*
X14191491Y-14824008D01*
X14191491Y-14824008D02*
X14210539Y-14814484D01*
X14362920Y-15014484D02*
X14362920Y-14881150D01*
X14362920Y-14900198D02*
X14372443Y-14890674D01*
X14372443Y-14890674D02*
X14391491Y-14881150D01*
X14391491Y-14881150D02*
X14420063Y-14881150D01*
X14420063Y-14881150D02*
X14439110Y-14890674D01*
X14439110Y-14890674D02*
X14448634Y-14909722D01*
X14448634Y-14909722D02*
X14448634Y-15014484D01*
X14448634Y-14909722D02*
X14458158Y-14890674D01*
X14458158Y-14890674D02*
X14477205Y-14881150D01*
X14477205Y-14881150D02*
X14505777Y-14881150D01*
X14505777Y-14881150D02*
X14524824Y-14890674D01*
X14524824Y-14890674D02*
X14534348Y-14909722D01*
X14534348Y-14909722D02*
X14534348Y-15014484D01*
X14629586Y-15014484D02*
X14629586Y-14881150D01*
X14629586Y-14900198D02*
X14639110Y-14890674D01*
X14639110Y-14890674D02*
X14658158Y-14881150D01*
X14658158Y-14881150D02*
X14686729Y-14881150D01*
X14686729Y-14881150D02*
X14705777Y-14890674D01*
X14705777Y-14890674D02*
X14715301Y-14909722D01*
X14715301Y-14909722D02*
X14715301Y-15014484D01*
X14715301Y-14909722D02*
X14724824Y-14890674D01*
X14724824Y-14890674D02*
X14743872Y-14881150D01*
X14743872Y-14881150D02*
X14772443Y-14881150D01*
X14772443Y-14881150D02*
X14791491Y-14890674D01*
X14791491Y-14890674D02*
X14801015Y-14909722D01*
X14801015Y-14909722D02*
X14801015Y-15014484D01*
X15191491Y-14804960D02*
X15020063Y-15062103D01*
X15448634Y-14814484D02*
X15467682Y-14814484D01*
X15467682Y-14814484D02*
X15486729Y-14824008D01*
X15486729Y-14824008D02*
X15496253Y-14833531D01*
X15496253Y-14833531D02*
X15505777Y-14852579D01*
X15505777Y-14852579D02*
X15515301Y-14890674D01*
X15515301Y-14890674D02*
X15515301Y-14938293D01*
X15515301Y-14938293D02*
X15505777Y-14976388D01*
X15505777Y-14976388D02*
X15496253Y-14995436D01*
X15496253Y-14995436D02*
X15486729Y-15004960D01*
X15486729Y-15004960D02*
X15467682Y-15014484D01*
X15467682Y-15014484D02*
X15448634Y-15014484D01*
X15448634Y-15014484D02*
X15429586Y-15004960D01*
X15429586Y-15004960D02*
X15420063Y-14995436D01*
X15420063Y-14995436D02*
X15410539Y-14976388D01*
X15410539Y-14976388D02*
X15401015Y-14938293D01*
X15401015Y-14938293D02*
X15401015Y-14890674D01*
X15401015Y-14890674D02*
X15410539Y-14852579D01*
X15410539Y-14852579D02*
X15420063Y-14833531D01*
X15420063Y-14833531D02*
X15429586Y-14824008D01*
X15429586Y-14824008D02*
X15448634Y-14814484D01*
X15601015Y-14995436D02*
X15610539Y-15004960D01*
X15610539Y-15004960D02*
X15601015Y-15014484D01*
X15601015Y-15014484D02*
X15591491Y-15004960D01*
X15591491Y-15004960D02*
X15601015Y-14995436D01*
X15601015Y-14995436D02*
X15601015Y-15014484D01*
X15734348Y-14814484D02*
X15753396Y-14814484D01*
X15753396Y-14814484D02*
X15772444Y-14824008D01*
X15772444Y-14824008D02*
X15781967Y-14833531D01*
X15781967Y-14833531D02*
X15791491Y-14852579D01*
X15791491Y-14852579D02*
X15801015Y-14890674D01*
X15801015Y-14890674D02*
X15801015Y-14938293D01*
X15801015Y-14938293D02*
X15791491Y-14976388D01*
X15791491Y-14976388D02*
X15781967Y-14995436D01*
X15781967Y-14995436D02*
X15772444Y-15004960D01*
X15772444Y-15004960D02*
X15753396Y-15014484D01*
X15753396Y-15014484D02*
X15734348Y-15014484D01*
X15734348Y-15014484D02*
X15715301Y-15004960D01*
X15715301Y-15004960D02*
X15705777Y-14995436D01*
X15705777Y-14995436D02*
X15696253Y-14976388D01*
X15696253Y-14976388D02*
X15686729Y-14938293D01*
X15686729Y-14938293D02*
X15686729Y-14890674D01*
X15686729Y-14890674D02*
X15696253Y-14852579D01*
X15696253Y-14852579D02*
X15705777Y-14833531D01*
X15705777Y-14833531D02*
X15715301Y-14824008D01*
X15715301Y-14824008D02*
X15734348Y-14814484D01*
X15877206Y-14833531D02*
X15886729Y-14824008D01*
X15886729Y-14824008D02*
X15905777Y-14814484D01*
X15905777Y-14814484D02*
X15953396Y-14814484D01*
X15953396Y-14814484D02*
X15972444Y-14824008D01*
X15972444Y-14824008D02*
X15981967Y-14833531D01*
X15981967Y-14833531D02*
X15991491Y-14852579D01*
X15991491Y-14852579D02*
X15991491Y-14871627D01*
X15991491Y-14871627D02*
X15981967Y-14900198D01*
X15981967Y-14900198D02*
X15867682Y-15014484D01*
X15867682Y-15014484D02*
X15991491Y-15014484D01*
X16058158Y-14814484D02*
X16191491Y-14814484D01*
X16191491Y-14814484D02*
X16105777Y-15014484D01*
X16353396Y-14814484D02*
X16315301Y-14814484D01*
X16315301Y-14814484D02*
X16296253Y-14824008D01*
X16296253Y-14824008D02*
X16286729Y-14833531D01*
X16286729Y-14833531D02*
X16267682Y-14862103D01*
X16267682Y-14862103D02*
X16258158Y-14900198D01*
X16258158Y-14900198D02*
X16258158Y-14976388D01*
X16258158Y-14976388D02*
X16267682Y-14995436D01*
X16267682Y-14995436D02*
X16277206Y-15004960D01*
X16277206Y-15004960D02*
X16296253Y-15014484D01*
X16296253Y-15014484D02*
X16334348Y-15014484D01*
X16334348Y-15014484D02*
X16353396Y-15004960D01*
X16353396Y-15004960D02*
X16362920Y-14995436D01*
X16362920Y-14995436D02*
X16372444Y-14976388D01*
X16372444Y-14976388D02*
X16372444Y-14928769D01*
X16372444Y-14928769D02*
X16362920Y-14909722D01*
X16362920Y-14909722D02*
X16353396Y-14900198D01*
X16353396Y-14900198D02*
X16334348Y-14890674D01*
X16334348Y-14890674D02*
X16296253Y-14890674D01*
X16296253Y-14890674D02*
X16277206Y-14900198D01*
X16277206Y-14900198D02*
X16267682Y-14909722D01*
X16267682Y-14909722D02*
X16258158Y-14928769D01*
X16448634Y-14814484D02*
X16448634Y-14852579D01*
X16524825Y-14814484D02*
X16524825Y-14852579D01*
X16820063Y-15090674D02*
X16810539Y-15081150D01*
X16810539Y-15081150D02*
X16791491Y-15052579D01*
X16791491Y-15052579D02*
X16781968Y-15033531D01*
X16781968Y-15033531D02*
X16772444Y-15004960D01*
X16772444Y-15004960D02*
X16762920Y-14957341D01*
X16762920Y-14957341D02*
X16762920Y-14919246D01*
X16762920Y-14919246D02*
X16772444Y-14871627D01*
X16772444Y-14871627D02*
X16781968Y-14843055D01*
X16781968Y-14843055D02*
X16791491Y-14824008D01*
X16791491Y-14824008D02*
X16810539Y-14795436D01*
X16810539Y-14795436D02*
X16820063Y-14785912D01*
X16877206Y-14814484D02*
X17001015Y-14814484D01*
X17001015Y-14814484D02*
X16934349Y-14890674D01*
X16934349Y-14890674D02*
X16962920Y-14890674D01*
X16962920Y-14890674D02*
X16981968Y-14900198D01*
X16981968Y-14900198D02*
X16991491Y-14909722D01*
X16991491Y-14909722D02*
X17001015Y-14928769D01*
X17001015Y-14928769D02*
X17001015Y-14976388D01*
X17001015Y-14976388D02*
X16991491Y-14995436D01*
X16991491Y-14995436D02*
X16981968Y-15004960D01*
X16981968Y-15004960D02*
X16962920Y-15014484D01*
X16962920Y-15014484D02*
X16905777Y-15014484D01*
X16905777Y-15014484D02*
X16886730Y-15004960D01*
X16886730Y-15004960D02*
X16877206Y-14995436D01*
X17239111Y-15014484D02*
X17239111Y-14814484D01*
X17324825Y-15014484D02*
X17324825Y-14909722D01*
X17324825Y-14909722D02*
X17315301Y-14890674D01*
X17315301Y-14890674D02*
X17296253Y-14881150D01*
X17296253Y-14881150D02*
X17267682Y-14881150D01*
X17267682Y-14881150D02*
X17248634Y-14890674D01*
X17248634Y-14890674D02*
X17239111Y-14900198D01*
X17448634Y-15014484D02*
X17429587Y-15004960D01*
X17429587Y-15004960D02*
X17420063Y-14995436D01*
X17420063Y-14995436D02*
X17410539Y-14976388D01*
X17410539Y-14976388D02*
X17410539Y-14919246D01*
X17410539Y-14919246D02*
X17420063Y-14900198D01*
X17420063Y-14900198D02*
X17429587Y-14890674D01*
X17429587Y-14890674D02*
X17448634Y-14881150D01*
X17448634Y-14881150D02*
X17477206Y-14881150D01*
X17477206Y-14881150D02*
X17496253Y-14890674D01*
X17496253Y-14890674D02*
X17505777Y-14900198D01*
X17505777Y-14900198D02*
X17515301Y-14919246D01*
X17515301Y-14919246D02*
X17515301Y-14976388D01*
X17515301Y-14976388D02*
X17505777Y-14995436D01*
X17505777Y-14995436D02*
X17496253Y-15004960D01*
X17496253Y-15004960D02*
X17477206Y-15014484D01*
X17477206Y-15014484D02*
X17448634Y-15014484D01*
X17629587Y-15014484D02*
X17610539Y-15004960D01*
X17610539Y-15004960D02*
X17601015Y-14985912D01*
X17601015Y-14985912D02*
X17601015Y-14814484D01*
X17781968Y-15004960D02*
X17762920Y-15014484D01*
X17762920Y-15014484D02*
X17724825Y-15014484D01*
X17724825Y-15014484D02*
X17705777Y-15004960D01*
X17705777Y-15004960D02*
X17696253Y-14985912D01*
X17696253Y-14985912D02*
X17696253Y-14909722D01*
X17696253Y-14909722D02*
X17705777Y-14890674D01*
X17705777Y-14890674D02*
X17724825Y-14881150D01*
X17724825Y-14881150D02*
X17762920Y-14881150D01*
X17762920Y-14881150D02*
X17781968Y-14890674D01*
X17781968Y-14890674D02*
X17791492Y-14909722D01*
X17791492Y-14909722D02*
X17791492Y-14928769D01*
X17791492Y-14928769D02*
X17696253Y-14947817D01*
X17867682Y-15004960D02*
X17886730Y-15014484D01*
X17886730Y-15014484D02*
X17924825Y-15014484D01*
X17924825Y-15014484D02*
X17943873Y-15004960D01*
X17943873Y-15004960D02*
X17953396Y-14985912D01*
X17953396Y-14985912D02*
X17953396Y-14976388D01*
X17953396Y-14976388D02*
X17943873Y-14957341D01*
X17943873Y-14957341D02*
X17924825Y-14947817D01*
X17924825Y-14947817D02*
X17896253Y-14947817D01*
X17896253Y-14947817D02*
X17877206Y-14938293D01*
X17877206Y-14938293D02*
X17867682Y-14919246D01*
X17867682Y-14919246D02*
X17867682Y-14909722D01*
X17867682Y-14909722D02*
X17877206Y-14890674D01*
X17877206Y-14890674D02*
X17896253Y-14881150D01*
X17896253Y-14881150D02*
X17924825Y-14881150D01*
X17924825Y-14881150D02*
X17943873Y-14890674D01*
X18020063Y-15090674D02*
X18029587Y-15081150D01*
X18029587Y-15081150D02*
X18048634Y-15052579D01*
X18048634Y-15052579D02*
X18058158Y-15033531D01*
X18058158Y-15033531D02*
X18067682Y-15004960D01*
X18067682Y-15004960D02*
X18077206Y-14957341D01*
X18077206Y-14957341D02*
X18077206Y-14919246D01*
X18077206Y-14919246D02*
X18067682Y-14871627D01*
X18067682Y-14871627D02*
X18058158Y-14843055D01*
X18058158Y-14843055D02*
X18048634Y-14824008D01*
X18048634Y-14824008D02*
X18029587Y-14795436D01*
X18029587Y-14795436D02*
X18020063Y-14785912D01*
X13215711Y-15257711D02*
X13215711Y-15116289D01*
X13074289Y-15116289D01*
X13074289Y-15257711D01*
X13215711Y-15257711D01*
X13496253Y-15097531D02*
X13505777Y-15088008D01*
X13505777Y-15088008D02*
X13524824Y-15078484D01*
X13524824Y-15078484D02*
X13572443Y-15078484D01*
X13572443Y-15078484D02*
X13591491Y-15088008D01*
X13591491Y-15088008D02*
X13601015Y-15097531D01*
X13601015Y-15097531D02*
X13610539Y-15116579D01*
X13610539Y-15116579D02*
X13610539Y-15135627D01*
X13610539Y-15135627D02*
X13601015Y-15164198D01*
X13601015Y-15164198D02*
X13486729Y-15278484D01*
X13486729Y-15278484D02*
X13610539Y-15278484D01*
X13696253Y-15259436D02*
X13705777Y-15268960D01*
X13705777Y-15268960D02*
X13696253Y-15278484D01*
X13696253Y-15278484D02*
X13686729Y-15268960D01*
X13686729Y-15268960D02*
X13696253Y-15259436D01*
X13696253Y-15259436D02*
X13696253Y-15278484D01*
X13829586Y-15078484D02*
X13848634Y-15078484D01*
X13848634Y-15078484D02*
X13867682Y-15088008D01*
X13867682Y-15088008D02*
X13877205Y-15097531D01*
X13877205Y-15097531D02*
X13886729Y-15116579D01*
X13886729Y-15116579D02*
X13896253Y-15154674D01*
X13896253Y-15154674D02*
X13896253Y-15202293D01*
X13896253Y-15202293D02*
X13886729Y-15240388D01*
X13886729Y-15240388D02*
X13877205Y-15259436D01*
X13877205Y-15259436D02*
X13867682Y-15268960D01*
X13867682Y-15268960D02*
X13848634Y-15278484D01*
X13848634Y-15278484D02*
X13829586Y-15278484D01*
X13829586Y-15278484D02*
X13810539Y-15268960D01*
X13810539Y-15268960D02*
X13801015Y-15259436D01*
X13801015Y-15259436D02*
X13791491Y-15240388D01*
X13791491Y-15240388D02*
X13781967Y-15202293D01*
X13781967Y-15202293D02*
X13781967Y-15154674D01*
X13781967Y-15154674D02*
X13791491Y-15116579D01*
X13791491Y-15116579D02*
X13801015Y-15097531D01*
X13801015Y-15097531D02*
X13810539Y-15088008D01*
X13810539Y-15088008D02*
X13829586Y-15078484D01*
X14020062Y-15078484D02*
X14039110Y-15078484D01*
X14039110Y-15078484D02*
X14058158Y-15088008D01*
X14058158Y-15088008D02*
X14067682Y-15097531D01*
X14067682Y-15097531D02*
X14077205Y-15116579D01*
X14077205Y-15116579D02*
X14086729Y-15154674D01*
X14086729Y-15154674D02*
X14086729Y-15202293D01*
X14086729Y-15202293D02*
X14077205Y-15240388D01*
X14077205Y-15240388D02*
X14067682Y-15259436D01*
X14067682Y-15259436D02*
X14058158Y-15268960D01*
X14058158Y-15268960D02*
X14039110Y-15278484D01*
X14039110Y-15278484D02*
X14020062Y-15278484D01*
X14020062Y-15278484D02*
X14001015Y-15268960D01*
X14001015Y-15268960D02*
X13991491Y-15259436D01*
X13991491Y-15259436D02*
X13981967Y-15240388D01*
X13981967Y-15240388D02*
X13972443Y-15202293D01*
X13972443Y-15202293D02*
X13972443Y-15154674D01*
X13972443Y-15154674D02*
X13981967Y-15116579D01*
X13981967Y-15116579D02*
X13991491Y-15097531D01*
X13991491Y-15097531D02*
X14001015Y-15088008D01*
X14001015Y-15088008D02*
X14020062Y-15078484D01*
X14210539Y-15078484D02*
X14229586Y-15078484D01*
X14229586Y-15078484D02*
X14248634Y-15088008D01*
X14248634Y-15088008D02*
X14258158Y-15097531D01*
X14258158Y-15097531D02*
X14267682Y-15116579D01*
X14267682Y-15116579D02*
X14277205Y-15154674D01*
X14277205Y-15154674D02*
X14277205Y-15202293D01*
X14277205Y-15202293D02*
X14267682Y-15240388D01*
X14267682Y-15240388D02*
X14258158Y-15259436D01*
X14258158Y-15259436D02*
X14248634Y-15268960D01*
X14248634Y-15268960D02*
X14229586Y-15278484D01*
X14229586Y-15278484D02*
X14210539Y-15278484D01*
X14210539Y-15278484D02*
X14191491Y-15268960D01*
X14191491Y-15268960D02*
X14181967Y-15259436D01*
X14181967Y-15259436D02*
X14172443Y-15240388D01*
X14172443Y-15240388D02*
X14162920Y-15202293D01*
X14162920Y-15202293D02*
X14162920Y-15154674D01*
X14162920Y-15154674D02*
X14172443Y-15116579D01*
X14172443Y-15116579D02*
X14181967Y-15097531D01*
X14181967Y-15097531D02*
X14191491Y-15088008D01*
X14191491Y-15088008D02*
X14210539Y-15078484D01*
X14362920Y-15278484D02*
X14362920Y-15145150D01*
X14362920Y-15164198D02*
X14372443Y-15154674D01*
X14372443Y-15154674D02*
X14391491Y-15145150D01*
X14391491Y-15145150D02*
X14420063Y-15145150D01*
X14420063Y-15145150D02*
X14439110Y-15154674D01*
X14439110Y-15154674D02*
X14448634Y-15173722D01*
X14448634Y-15173722D02*
X14448634Y-15278484D01*
X14448634Y-15173722D02*
X14458158Y-15154674D01*
X14458158Y-15154674D02*
X14477205Y-15145150D01*
X14477205Y-15145150D02*
X14505777Y-15145150D01*
X14505777Y-15145150D02*
X14524824Y-15154674D01*
X14524824Y-15154674D02*
X14534348Y-15173722D01*
X14534348Y-15173722D02*
X14534348Y-15278484D01*
X14629586Y-15278484D02*
X14629586Y-15145150D01*
X14629586Y-15164198D02*
X14639110Y-15154674D01*
X14639110Y-15154674D02*
X14658158Y-15145150D01*
X14658158Y-15145150D02*
X14686729Y-15145150D01*
X14686729Y-15145150D02*
X14705777Y-15154674D01*
X14705777Y-15154674D02*
X14715301Y-15173722D01*
X14715301Y-15173722D02*
X14715301Y-15278484D01*
X14715301Y-15173722D02*
X14724824Y-15154674D01*
X14724824Y-15154674D02*
X14743872Y-15145150D01*
X14743872Y-15145150D02*
X14772443Y-15145150D01*
X14772443Y-15145150D02*
X14791491Y-15154674D01*
X14791491Y-15154674D02*
X14801015Y-15173722D01*
X14801015Y-15173722D02*
X14801015Y-15278484D01*
X15191491Y-15068960D02*
X15020063Y-15326103D01*
X15448634Y-15078484D02*
X15467682Y-15078484D01*
X15467682Y-15078484D02*
X15486729Y-15088008D01*
X15486729Y-15088008D02*
X15496253Y-15097531D01*
X15496253Y-15097531D02*
X15505777Y-15116579D01*
X15505777Y-15116579D02*
X15515301Y-15154674D01*
X15515301Y-15154674D02*
X15515301Y-15202293D01*
X15515301Y-15202293D02*
X15505777Y-15240388D01*
X15505777Y-15240388D02*
X15496253Y-15259436D01*
X15496253Y-15259436D02*
X15486729Y-15268960D01*
X15486729Y-15268960D02*
X15467682Y-15278484D01*
X15467682Y-15278484D02*
X15448634Y-15278484D01*
X15448634Y-15278484D02*
X15429586Y-15268960D01*
X15429586Y-15268960D02*
X15420063Y-15259436D01*
X15420063Y-15259436D02*
X15410539Y-15240388D01*
X15410539Y-15240388D02*
X15401015Y-15202293D01*
X15401015Y-15202293D02*
X15401015Y-15154674D01*
X15401015Y-15154674D02*
X15410539Y-15116579D01*
X15410539Y-15116579D02*
X15420063Y-15097531D01*
X15420063Y-15097531D02*
X15429586Y-15088008D01*
X15429586Y-15088008D02*
X15448634Y-15078484D01*
X15601015Y-15259436D02*
X15610539Y-15268960D01*
X15610539Y-15268960D02*
X15601015Y-15278484D01*
X15601015Y-15278484D02*
X15591491Y-15268960D01*
X15591491Y-15268960D02*
X15601015Y-15259436D01*
X15601015Y-15259436D02*
X15601015Y-15278484D01*
X15734348Y-15078484D02*
X15753396Y-15078484D01*
X15753396Y-15078484D02*
X15772444Y-15088008D01*
X15772444Y-15088008D02*
X15781967Y-15097531D01*
X15781967Y-15097531D02*
X15791491Y-15116579D01*
X15791491Y-15116579D02*
X15801015Y-15154674D01*
X15801015Y-15154674D02*
X15801015Y-15202293D01*
X15801015Y-15202293D02*
X15791491Y-15240388D01*
X15791491Y-15240388D02*
X15781967Y-15259436D01*
X15781967Y-15259436D02*
X15772444Y-15268960D01*
X15772444Y-15268960D02*
X15753396Y-15278484D01*
X15753396Y-15278484D02*
X15734348Y-15278484D01*
X15734348Y-15278484D02*
X15715301Y-15268960D01*
X15715301Y-15268960D02*
X15705777Y-15259436D01*
X15705777Y-15259436D02*
X15696253Y-15240388D01*
X15696253Y-15240388D02*
X15686729Y-15202293D01*
X15686729Y-15202293D02*
X15686729Y-15154674D01*
X15686729Y-15154674D02*
X15696253Y-15116579D01*
X15696253Y-15116579D02*
X15705777Y-15097531D01*
X15705777Y-15097531D02*
X15715301Y-15088008D01*
X15715301Y-15088008D02*
X15734348Y-15078484D01*
X15867682Y-15078484D02*
X16001015Y-15078484D01*
X16001015Y-15078484D02*
X15915301Y-15278484D01*
X16105777Y-15164198D02*
X16086729Y-15154674D01*
X16086729Y-15154674D02*
X16077206Y-15145150D01*
X16077206Y-15145150D02*
X16067682Y-15126103D01*
X16067682Y-15126103D02*
X16067682Y-15116579D01*
X16067682Y-15116579D02*
X16077206Y-15097531D01*
X16077206Y-15097531D02*
X16086729Y-15088008D01*
X16086729Y-15088008D02*
X16105777Y-15078484D01*
X16105777Y-15078484D02*
X16143872Y-15078484D01*
X16143872Y-15078484D02*
X16162920Y-15088008D01*
X16162920Y-15088008D02*
X16172444Y-15097531D01*
X16172444Y-15097531D02*
X16181967Y-15116579D01*
X16181967Y-15116579D02*
X16181967Y-15126103D01*
X16181967Y-15126103D02*
X16172444Y-15145150D01*
X16172444Y-15145150D02*
X16162920Y-15154674D01*
X16162920Y-15154674D02*
X16143872Y-15164198D01*
X16143872Y-15164198D02*
X16105777Y-15164198D01*
X16105777Y-15164198D02*
X16086729Y-15173722D01*
X16086729Y-15173722D02*
X16077206Y-15183246D01*
X16077206Y-15183246D02*
X16067682Y-15202293D01*
X16067682Y-15202293D02*
X16067682Y-15240388D01*
X16067682Y-15240388D02*
X16077206Y-15259436D01*
X16077206Y-15259436D02*
X16086729Y-15268960D01*
X16086729Y-15268960D02*
X16105777Y-15278484D01*
X16105777Y-15278484D02*
X16143872Y-15278484D01*
X16143872Y-15278484D02*
X16162920Y-15268960D01*
X16162920Y-15268960D02*
X16172444Y-15259436D01*
X16172444Y-15259436D02*
X16181967Y-15240388D01*
X16181967Y-15240388D02*
X16181967Y-15202293D01*
X16181967Y-15202293D02*
X16172444Y-15183246D01*
X16172444Y-15183246D02*
X16162920Y-15173722D01*
X16162920Y-15173722D02*
X16143872Y-15164198D01*
X16248634Y-15078484D02*
X16381967Y-15078484D01*
X16381967Y-15078484D02*
X16296253Y-15278484D01*
X16448634Y-15078484D02*
X16448634Y-15116579D01*
X16524825Y-15078484D02*
X16524825Y-15116579D01*
X16820063Y-15354674D02*
X16810539Y-15345150D01*
X16810539Y-15345150D02*
X16791491Y-15316579D01*
X16791491Y-15316579D02*
X16781968Y-15297531D01*
X16781968Y-15297531D02*
X16772444Y-15268960D01*
X16772444Y-15268960D02*
X16762920Y-15221341D01*
X16762920Y-15221341D02*
X16762920Y-15183246D01*
X16762920Y-15183246D02*
X16772444Y-15135627D01*
X16772444Y-15135627D02*
X16781968Y-15107055D01*
X16781968Y-15107055D02*
X16791491Y-15088008D01*
X16791491Y-15088008D02*
X16810539Y-15059436D01*
X16810539Y-15059436D02*
X16820063Y-15049912D01*
X17001015Y-15278484D02*
X16886730Y-15278484D01*
X16943872Y-15278484D02*
X16943872Y-15078484D01*
X16943872Y-15078484D02*
X16924825Y-15107055D01*
X16924825Y-15107055D02*
X16905777Y-15126103D01*
X16905777Y-15126103D02*
X16886730Y-15135627D01*
X17067682Y-15078484D02*
X17191491Y-15078484D01*
X17191491Y-15078484D02*
X17124825Y-15154674D01*
X17124825Y-15154674D02*
X17153396Y-15154674D01*
X17153396Y-15154674D02*
X17172444Y-15164198D01*
X17172444Y-15164198D02*
X17181968Y-15173722D01*
X17181968Y-15173722D02*
X17191491Y-15192769D01*
X17191491Y-15192769D02*
X17191491Y-15240388D01*
X17191491Y-15240388D02*
X17181968Y-15259436D01*
X17181968Y-15259436D02*
X17172444Y-15268960D01*
X17172444Y-15268960D02*
X17153396Y-15278484D01*
X17153396Y-15278484D02*
X17096253Y-15278484D01*
X17096253Y-15278484D02*
X17077206Y-15268960D01*
X17077206Y-15268960D02*
X17067682Y-15259436D01*
X17429587Y-15278484D02*
X17429587Y-15078484D01*
X17515301Y-15278484D02*
X17515301Y-15173722D01*
X17515301Y-15173722D02*
X17505777Y-15154674D01*
X17505777Y-15154674D02*
X17486730Y-15145150D01*
X17486730Y-15145150D02*
X17458158Y-15145150D01*
X17458158Y-15145150D02*
X17439111Y-15154674D01*
X17439111Y-15154674D02*
X17429587Y-15164198D01*
X17639111Y-15278484D02*
X17620063Y-15268960D01*
X17620063Y-15268960D02*
X17610539Y-15259436D01*
X17610539Y-15259436D02*
X17601015Y-15240388D01*
X17601015Y-15240388D02*
X17601015Y-15183246D01*
X17601015Y-15183246D02*
X17610539Y-15164198D01*
X17610539Y-15164198D02*
X17620063Y-15154674D01*
X17620063Y-15154674D02*
X17639111Y-15145150D01*
X17639111Y-15145150D02*
X17667682Y-15145150D01*
X17667682Y-15145150D02*
X17686730Y-15154674D01*
X17686730Y-15154674D02*
X17696253Y-15164198D01*
X17696253Y-15164198D02*
X17705777Y-15183246D01*
X17705777Y-15183246D02*
X17705777Y-15240388D01*
X17705777Y-15240388D02*
X17696253Y-15259436D01*
X17696253Y-15259436D02*
X17686730Y-15268960D01*
X17686730Y-15268960D02*
X17667682Y-15278484D01*
X17667682Y-15278484D02*
X17639111Y-15278484D01*
X17820063Y-15278484D02*
X17801015Y-15268960D01*
X17801015Y-15268960D02*
X17791492Y-15249912D01*
X17791492Y-15249912D02*
X17791492Y-15078484D01*
X17972444Y-15268960D02*
X17953396Y-15278484D01*
X17953396Y-15278484D02*
X17915301Y-15278484D01*
X17915301Y-15278484D02*
X17896253Y-15268960D01*
X17896253Y-15268960D02*
X17886730Y-15249912D01*
X17886730Y-15249912D02*
X17886730Y-15173722D01*
X17886730Y-15173722D02*
X17896253Y-15154674D01*
X17896253Y-15154674D02*
X17915301Y-15145150D01*
X17915301Y-15145150D02*
X17953396Y-15145150D01*
X17953396Y-15145150D02*
X17972444Y-15154674D01*
X17972444Y-15154674D02*
X17981968Y-15173722D01*
X17981968Y-15173722D02*
X17981968Y-15192769D01*
X17981968Y-15192769D02*
X17886730Y-15211817D01*
X18058158Y-15268960D02*
X18077206Y-15278484D01*
X18077206Y-15278484D02*
X18115301Y-15278484D01*
X18115301Y-15278484D02*
X18134349Y-15268960D01*
X18134349Y-15268960D02*
X18143873Y-15249912D01*
X18143873Y-15249912D02*
X18143873Y-15240388D01*
X18143873Y-15240388D02*
X18134349Y-15221341D01*
X18134349Y-15221341D02*
X18115301Y-15211817D01*
X18115301Y-15211817D02*
X18086730Y-15211817D01*
X18086730Y-15211817D02*
X18067682Y-15202293D01*
X18067682Y-15202293D02*
X18058158Y-15183246D01*
X18058158Y-15183246D02*
X18058158Y-15173722D01*
X18058158Y-15173722D02*
X18067682Y-15154674D01*
X18067682Y-15154674D02*
X18086730Y-15145150D01*
X18086730Y-15145150D02*
X18115301Y-15145150D01*
X18115301Y-15145150D02*
X18134349Y-15154674D01*
X18210539Y-15354674D02*
X18220063Y-15345150D01*
X18220063Y-15345150D02*
X18239111Y-15316579D01*
X18239111Y-15316579D02*
X18248634Y-15297531D01*
X18248634Y-15297531D02*
X18258158Y-15268960D01*
X18258158Y-15268960D02*
X18267682Y-15221341D01*
X18267682Y-15221341D02*
X18267682Y-15183246D01*
X18267682Y-15183246D02*
X18258158Y-15135627D01*
X18258158Y-15135627D02*
X18248634Y-15107055D01*
X18248634Y-15107055D02*
X18239111Y-15088008D01*
X18239111Y-15088008D02*
X18220063Y-15059436D01*
X18220063Y-15059436D02*
X18210539Y-15049912D01*
M02*
