%TF.GenerationSoftware,KiCad,Pcbnew,6.0.9+dfsg-1~bpo11+1*%
%TF.CreationDate,2022-12-01T10:00:25+01:00*%
%TF.ProjectId,019-tayloe-quadrature-product-detector,3031392d-7461-4796-9c6f-652d71756164,1*%
%TF.SameCoordinates,Original*%
%TF.FileFunction,Drillmap*%
%TF.FilePolarity,Positive*%
%FSLAX45Y45*%
G04 Gerber Fmt 4.5, Leading zero omitted, Abs format (unit mm)*
G04 Created by KiCad (PCBNEW 6.0.9+dfsg-1~bpo11+1) date 2022-12-01 10:00:25*
%MOMM*%
%LPD*%
G01*
G04 APERTURE LIST*
%ADD10C,0.100000*%
%ADD11C,0.200000*%
G04 APERTURE END LIST*
D10*
X15250000Y-3000000D02*
G75*
G03*
X15000000Y-3250000I0J-250000D01*
G01*
X15250000Y-3000000D02*
X16750000Y-3000000D01*
X17000000Y-3250000D02*
G75*
G03*
X16750000Y-3000000I-250000J0D01*
G01*
X15000000Y-9250000D02*
X15000000Y-3250000D01*
X15000000Y-9250000D02*
G75*
G03*
X15250000Y-9500000I250000J0D01*
G01*
X17000000Y-3250000D02*
X17000000Y-9250000D01*
X16750000Y-9500000D02*
G75*
G03*
X17000000Y-9250000I0J250000D01*
G01*
X16750000Y-9500000D02*
X15250000Y-9500000D01*
D11*
X15252619Y-9815476D02*
X15252619Y-9615476D01*
X15300238Y-9615476D01*
X15328809Y-9625000D01*
X15347857Y-9644048D01*
X15357381Y-9663095D01*
X15366905Y-9701190D01*
X15366905Y-9729762D01*
X15357381Y-9767857D01*
X15347857Y-9786905D01*
X15328809Y-9805952D01*
X15300238Y-9815476D01*
X15252619Y-9815476D01*
X15452619Y-9815476D02*
X15452619Y-9682143D01*
X15452619Y-9720238D02*
X15462143Y-9701190D01*
X15471667Y-9691667D01*
X15490714Y-9682143D01*
X15509762Y-9682143D01*
X15576428Y-9815476D02*
X15576428Y-9682143D01*
X15576428Y-9615476D02*
X15566905Y-9625000D01*
X15576428Y-9634524D01*
X15585952Y-9625000D01*
X15576428Y-9615476D01*
X15576428Y-9634524D01*
X15700238Y-9815476D02*
X15681190Y-9805952D01*
X15671667Y-9786905D01*
X15671667Y-9615476D01*
X15805000Y-9815476D02*
X15785952Y-9805952D01*
X15776428Y-9786905D01*
X15776428Y-9615476D01*
X16033571Y-9815476D02*
X16033571Y-9615476D01*
X16100238Y-9758333D01*
X16166905Y-9615476D01*
X16166905Y-9815476D01*
X16347857Y-9815476D02*
X16347857Y-9710714D01*
X16338333Y-9691667D01*
X16319286Y-9682143D01*
X16281190Y-9682143D01*
X16262143Y-9691667D01*
X16347857Y-9805952D02*
X16328809Y-9815476D01*
X16281190Y-9815476D01*
X16262143Y-9805952D01*
X16252619Y-9786905D01*
X16252619Y-9767857D01*
X16262143Y-9748810D01*
X16281190Y-9739286D01*
X16328809Y-9739286D01*
X16347857Y-9729762D01*
X16443095Y-9682143D02*
X16443095Y-9882143D01*
X16443095Y-9691667D02*
X16462143Y-9682143D01*
X16500238Y-9682143D01*
X16519286Y-9691667D01*
X16528809Y-9701190D01*
X16538333Y-9720238D01*
X16538333Y-9777381D01*
X16528809Y-9796429D01*
X16519286Y-9805952D01*
X16500238Y-9815476D01*
X16462143Y-9815476D01*
X16443095Y-9805952D01*
X16624048Y-9796429D02*
X16633571Y-9805952D01*
X16624048Y-9815476D01*
X16614524Y-9805952D01*
X16624048Y-9796429D01*
X16624048Y-9815476D01*
X16624048Y-9691667D02*
X16633571Y-9701190D01*
X16624048Y-9710714D01*
X16614524Y-9701190D01*
X16624048Y-9691667D01*
X16624048Y-9710714D01*
M02*
