%TF.GenerationSoftware,KiCad,Pcbnew,7.0.5+dfsg-2*%
%TF.CreationDate,2023-07-22T00:58:44+02:00*%
%TF.ProjectId,019-tayloe-quadrature-product-detector,3031392d-7461-4796-9c6f-652d71756164,2*%
%TF.SameCoordinates,Original*%
%TF.FileFunction,Copper,L1,Top*%
%TF.FilePolarity,Positive*%
%FSLAX46Y46*%
G04 Gerber Fmt 4.6, Leading zero omitted, Abs format (unit mm)*
G04 Created by KiCad (PCBNEW 7.0.5+dfsg-2) date 2023-07-22 00:58:44*
%MOMM*%
%LPD*%
G01*
G04 APERTURE LIST*
G04 Aperture macros list*
%AMRoundRect*
0 Rectangle with rounded corners*
0 $1 Rounding radius*
0 $2 $3 $4 $5 $6 $7 $8 $9 X,Y pos of 4 corners*
0 Add a 4 corners polygon primitive as box body*
4,1,4,$2,$3,$4,$5,$6,$7,$8,$9,$2,$3,0*
0 Add four circle primitives for the rounded corners*
1,1,$1+$1,$2,$3*
1,1,$1+$1,$4,$5*
1,1,$1+$1,$6,$7*
1,1,$1+$1,$8,$9*
0 Add four rect primitives between the rounded corners*
20,1,$1+$1,$2,$3,$4,$5,0*
20,1,$1+$1,$4,$5,$6,$7,0*
20,1,$1+$1,$6,$7,$8,$9,0*
20,1,$1+$1,$8,$9,$2,$3,0*%
G04 Aperture macros list end*
%TA.AperFunction,SMDPad,CuDef*%
%ADD10RoundRect,0.225000X0.225000X0.250000X-0.225000X0.250000X-0.225000X-0.250000X0.225000X-0.250000X0*%
%TD*%
%TA.AperFunction,ComponentPad*%
%ADD11C,3.400000*%
%TD*%
%TA.AperFunction,SMDPad,CuDef*%
%ADD12RoundRect,0.200000X-0.200000X-0.275000X0.200000X-0.275000X0.200000X0.275000X-0.200000X0.275000X0*%
%TD*%
%TA.AperFunction,SMDPad,CuDef*%
%ADD13R,3.000000X0.800000*%
%TD*%
%TA.AperFunction,ComponentPad*%
%ADD14C,0.800000*%
%TD*%
%TA.AperFunction,SMDPad,CuDef*%
%ADD15R,3.000000X2.000000*%
%TD*%
%TA.AperFunction,ComponentPad*%
%ADD16C,1.400000*%
%TD*%
%TA.AperFunction,SMDPad,CuDef*%
%ADD17RoundRect,0.225000X0.250000X-0.225000X0.250000X0.225000X-0.250000X0.225000X-0.250000X-0.225000X0*%
%TD*%
%TA.AperFunction,SMDPad,CuDef*%
%ADD18RoundRect,0.100000X-0.100000X0.637500X-0.100000X-0.637500X0.100000X-0.637500X0.100000X0.637500X0*%
%TD*%
%TA.AperFunction,SMDPad,CuDef*%
%ADD19RoundRect,0.150000X-0.725000X-0.150000X0.725000X-0.150000X0.725000X0.150000X-0.725000X0.150000X0*%
%TD*%
%TA.AperFunction,SMDPad,CuDef*%
%ADD20RoundRect,0.225000X-0.225000X-0.250000X0.225000X-0.250000X0.225000X0.250000X-0.225000X0.250000X0*%
%TD*%
%TA.AperFunction,SMDPad,CuDef*%
%ADD21R,0.800000X3.000000*%
%TD*%
%TA.AperFunction,SMDPad,CuDef*%
%ADD22R,2.000000X3.000000*%
%TD*%
%TA.AperFunction,ViaPad*%
%ADD23C,0.800000*%
%TD*%
%TA.AperFunction,Conductor*%
%ADD24C,0.200000*%
%TD*%
%TA.AperFunction,Conductor*%
%ADD25C,0.800000*%
%TD*%
G04 APERTURE END LIST*
D10*
%TO.P,C3,1*%
%TO.N,/VE*%
X137000000Y-99000000D03*
%TO.P,C3,2*%
%TO.N,GND*%
X135450000Y-99000000D03*
%TD*%
D11*
%TO.P,H12,1,1*%
%TO.N,GND*%
X150000000Y-115000000D03*
%TD*%
D12*
%TO.P,R3,1*%
%TO.N,GND*%
X140856800Y-131600000D03*
%TO.P,R3,2*%
%TO.N,/2xIF*%
X142506800Y-131600000D03*
%TD*%
D10*
%TO.P,C2,1*%
%TO.N,/VA*%
X144500000Y-89000000D03*
%TO.P,C2,2*%
%TO.N,GND*%
X142950000Y-89000000D03*
%TD*%
D13*
%TO.P,J5,1,Pin_1*%
%TO.N,/270*%
X151000000Y-87500000D03*
D14*
%TO.P,J5,2,Pin_2*%
%TO.N,GND*%
X150000000Y-86500000D03*
X150000000Y-88500000D03*
X150500000Y-86000000D03*
X150500000Y-89000000D03*
D15*
X151000000Y-85900000D03*
D14*
X151000000Y-86500000D03*
X151000000Y-88500000D03*
D15*
X151000000Y-89100000D03*
D14*
X151500000Y-86000000D03*
X151500000Y-89000000D03*
X152000000Y-86500000D03*
X152000000Y-88500000D03*
%TD*%
D11*
%TO.P,H7,1,1*%
%TO.N,GND*%
X135000000Y-80000000D03*
%TD*%
D16*
%TO.P,J7,1,Pin_1*%
%TO.N,/VCC*%
X135000000Y-110000000D03*
%TD*%
D11*
%TO.P,H9,1,1*%
%TO.N,GND*%
X135000000Y-60000000D03*
%TD*%
D13*
%TO.P,J3,1,Pin_1*%
%TO.N,/180*%
X151000000Y-107500000D03*
D14*
%TO.P,J3,2,Pin_2*%
%TO.N,GND*%
X150000000Y-106500000D03*
X150000000Y-108500000D03*
X150500000Y-106000000D03*
X150500000Y-109000000D03*
D15*
X151000000Y-105900000D03*
D14*
X151000000Y-106500000D03*
X151000000Y-108500000D03*
D15*
X151000000Y-109100000D03*
D14*
X151500000Y-106000000D03*
X151500000Y-109000000D03*
X152000000Y-106500000D03*
X152000000Y-108500000D03*
%TD*%
D11*
%TO.P,H1,1,1*%
%TO.N,GND*%
X135000000Y-120000000D03*
%TD*%
%TO.P,H5,1,1*%
%TO.N,GND*%
X150000000Y-95000000D03*
%TD*%
%TO.P,H2,1,1*%
%TO.N,GND*%
X135000000Y-135000000D03*
%TD*%
D16*
%TO.P,J8,1,Pin_1*%
%TO.N,/VA*%
X135000000Y-70000000D03*
%TD*%
D17*
%TO.P,C4,1*%
%TO.N,/180*%
X148500000Y-107500000D03*
%TO.P,C4,2*%
%TO.N,GND*%
X148500000Y-105950000D03*
%TD*%
D11*
%TO.P,H4,1,1*%
%TO.N,GND*%
X150000000Y-120000000D03*
%TD*%
D18*
%TO.P,U1,1,~{R}*%
%TO.N,/VCC*%
X144317600Y-123330500D03*
%TO.P,U1,2,D*%
%TO.N,/CLK2*%
X143667600Y-123330500D03*
%TO.P,U1,3,C*%
%TO.N,/2xIF*%
X143017600Y-123330500D03*
%TO.P,U1,4,~{S}*%
%TO.N,/VCC*%
X142367600Y-123330500D03*
%TO.P,U1,5,Q*%
%TO.N,/CLK1*%
X141717600Y-123330500D03*
%TO.P,U1,6,~{Q}*%
%TO.N,unconnected-(U1A-~{Q}-Pad6)*%
X141067600Y-123330500D03*
%TO.P,U1,7,GND*%
%TO.N,GND*%
X140417600Y-123330500D03*
%TO.P,U1,8,~{Q}*%
%TO.N,/CLK2*%
X140417600Y-129055500D03*
%TO.P,U1,9,Q*%
%TO.N,unconnected-(U1B-Q-Pad9)*%
X141067600Y-129055500D03*
%TO.P,U1,10,~{S}*%
%TO.N,/VCC*%
X141717600Y-129055500D03*
%TO.P,U1,11,C*%
%TO.N,/2xIF*%
X142367600Y-129055500D03*
%TO.P,U1,12,D*%
%TO.N,/CLK1*%
X143017600Y-129055500D03*
%TO.P,U1,13,~{R}*%
%TO.N,/VCC*%
X143667600Y-129055500D03*
%TO.P,U1,14,VCC*%
X144317600Y-129055500D03*
%TD*%
D19*
%TO.P,U2,1,Y0*%
%TO.N,unconnected-(U2-Y0-Pad1)*%
X138925000Y-90555000D03*
%TO.P,U2,2,Y2*%
%TO.N,unconnected-(U2-Y2-Pad2)*%
X138925000Y-91825000D03*
%TO.P,U2,3,Y*%
%TO.N,unconnected-(U2-Y-Pad3)*%
X138925000Y-93095000D03*
%TO.P,U2,4,Y3*%
%TO.N,unconnected-(U2-Y3-Pad4)*%
X138925000Y-94365000D03*
%TO.P,U2,5,Y1*%
%TO.N,unconnected-(U2-Y1-Pad5)*%
X138925000Y-95635000D03*
%TO.P,U2,6,~{E}*%
%TO.N,GND*%
X138925000Y-96905000D03*
%TO.P,U2,7,VEE*%
%TO.N,/VE*%
X138925000Y-98175000D03*
%TO.P,U2,8,VSS*%
%TO.N,GND*%
X138925000Y-99445000D03*
%TO.P,U2,9,B*%
%TO.N,/CLK2*%
X144075000Y-99445000D03*
%TO.P,U2,10,A*%
%TO.N,/CLK1*%
X144075000Y-98175000D03*
%TO.P,U2,11,X3*%
%TO.N,/0*%
X144075000Y-96905000D03*
%TO.P,U2,12,X0*%
%TO.N,/180*%
X144075000Y-95635000D03*
%TO.P,U2,13,X*%
%TO.N,/RF*%
X144075000Y-94365000D03*
%TO.P,U2,14,X1*%
%TO.N,/270*%
X144075000Y-93095000D03*
%TO.P,U2,15,X2*%
%TO.N,/90*%
X144075000Y-91825000D03*
%TO.P,U2,16,VDD*%
%TO.N,/VA*%
X144075000Y-90555000D03*
%TD*%
D11*
%TO.P,H8,1,1*%
%TO.N,GND*%
X150000000Y-75000000D03*
%TD*%
D20*
%TO.P,C1,1*%
%TO.N,/VCC*%
X144325000Y-130900000D03*
%TO.P,C1,2*%
%TO.N,GND*%
X145875000Y-130900000D03*
%TD*%
D17*
%TO.P,C6,1*%
%TO.N,/90*%
X148500000Y-67500000D03*
%TO.P,C6,2*%
%TO.N,GND*%
X148500000Y-65950000D03*
%TD*%
D11*
%TO.P,H11,1,1*%
%TO.N,GND*%
X150000000Y-80000000D03*
%TD*%
D13*
%TO.P,J4,1,Pin_1*%
%TO.N,/90*%
X151000000Y-67500000D03*
D14*
%TO.P,J4,2,Pin_2*%
%TO.N,GND*%
X150000000Y-66500000D03*
X150000000Y-68500000D03*
X150500000Y-66000000D03*
X150500000Y-69000000D03*
D15*
X151000000Y-65900000D03*
D14*
X151000000Y-66500000D03*
X151000000Y-68500000D03*
D15*
X151000000Y-69100000D03*
D14*
X151500000Y-66000000D03*
X151500000Y-69000000D03*
X152000000Y-66500000D03*
X152000000Y-68500000D03*
%TD*%
D13*
%TO.P,J2,1,Pin_1*%
%TO.N,/0*%
X151000000Y-127500000D03*
D14*
%TO.P,J2,2,Pin_2*%
%TO.N,GND*%
X150000000Y-126500000D03*
X150000000Y-128500000D03*
X150500000Y-126000000D03*
X150500000Y-129000000D03*
D15*
X151000000Y-125900000D03*
D14*
X151000000Y-126500000D03*
X151000000Y-128500000D03*
D15*
X151000000Y-129100000D03*
D14*
X151500000Y-126000000D03*
X151500000Y-129000000D03*
X152000000Y-126500000D03*
X152000000Y-128500000D03*
%TD*%
D11*
%TO.P,H6,1,1*%
%TO.N,GND*%
X135000000Y-95000000D03*
%TD*%
D13*
%TO.P,J6,1,Pin_1*%
%TO.N,/RF*%
X134000000Y-87500000D03*
D14*
%TO.P,J6,2,Pin_2*%
%TO.N,GND*%
X135000000Y-88500000D03*
X135000000Y-86500000D03*
X134500000Y-89000000D03*
X134500000Y-86000000D03*
D15*
X134000000Y-89100000D03*
D14*
X134000000Y-88500000D03*
X134000000Y-86500000D03*
D15*
X134000000Y-85900000D03*
D14*
X133500000Y-89000000D03*
X133500000Y-86000000D03*
X133000000Y-88500000D03*
X133000000Y-86500000D03*
%TD*%
D11*
%TO.P,H3,1,1*%
%TO.N,GND*%
X150000000Y-135000000D03*
%TD*%
%TO.P,H13,1,1*%
%TO.N,GND*%
X150000000Y-100000000D03*
%TD*%
D17*
%TO.P,C5,1*%
%TO.N,/270*%
X148500000Y-87500000D03*
%TO.P,C5,2*%
%TO.N,GND*%
X148500000Y-85950000D03*
%TD*%
D11*
%TO.P,H10,1,1*%
%TO.N,GND*%
X150000000Y-60000000D03*
%TD*%
D16*
%TO.P,J9,1,Pin_1*%
%TO.N,/VE*%
X135000000Y-105000000D03*
%TD*%
D17*
%TO.P,C7,1*%
%TO.N,/0*%
X148500000Y-127500000D03*
%TO.P,C7,2*%
%TO.N,GND*%
X148500000Y-125950000D03*
%TD*%
D21*
%TO.P,J1,1,Pin_1*%
%TO.N,/2xIF*%
X142500000Y-136000000D03*
D14*
%TO.P,J1,2,Pin_2*%
%TO.N,GND*%
X143500000Y-135000000D03*
X141500000Y-135000000D03*
X144000000Y-135500000D03*
X141000000Y-135500000D03*
D22*
X144100000Y-136000000D03*
D14*
X143500000Y-136000000D03*
X141500000Y-136000000D03*
D22*
X140900000Y-136000000D03*
D14*
X144000000Y-136500000D03*
X141000000Y-136500000D03*
X143500000Y-137000000D03*
X141500000Y-137000000D03*
%TD*%
D23*
%TO.N,GND*%
X147500000Y-122500000D03*
X146958015Y-78626400D03*
X147500000Y-117500000D03*
X144835549Y-112515738D03*
X140000000Y-115000000D03*
X135000000Y-92500000D03*
X142500000Y-77500000D03*
X142446717Y-87906899D03*
X145465655Y-127921964D03*
X145000000Y-132500000D03*
X137500000Y-75000000D03*
X144884593Y-107543198D03*
X137500000Y-60000000D03*
X148225052Y-90715364D03*
X144859737Y-87906899D03*
X142500000Y-70000000D03*
X146917664Y-71011275D03*
X137500000Y-67500000D03*
X146927994Y-118721820D03*
X135000000Y-122500000D03*
X147403334Y-108347538D03*
X147500000Y-110000000D03*
X135000000Y-132500000D03*
X147500000Y-95000000D03*
X137500000Y-132500000D03*
X137500000Y-80000000D03*
X147179787Y-128512710D03*
X142583912Y-96630895D03*
X137500000Y-82500000D03*
X147500000Y-72500000D03*
X140000000Y-70000000D03*
X137500000Y-107500000D03*
X140469493Y-90666942D03*
X140000000Y-85000000D03*
X150000000Y-105000000D03*
X140000000Y-105000000D03*
X142500000Y-85000000D03*
X148214722Y-96748398D03*
X140000000Y-110000000D03*
X150000000Y-125000000D03*
X142500000Y-107500000D03*
X146958015Y-83758764D03*
X138072613Y-86438104D03*
X147571358Y-93612602D03*
X146933804Y-68509481D03*
X142495138Y-95404209D03*
X136975052Y-88520242D03*
X147500000Y-65000000D03*
X135000000Y-100000000D03*
X144855540Y-105383585D03*
X137500000Y-97500000D03*
X150000000Y-130000000D03*
X146937678Y-126469310D03*
X146958015Y-76160127D03*
X140453352Y-88520242D03*
X140000000Y-102500000D03*
X140000000Y-77500000D03*
X140000000Y-60000000D03*
X147500000Y-85000000D03*
X150000000Y-132500000D03*
X137500000Y-62500000D03*
X144867807Y-69348793D03*
X140000000Y-100000000D03*
X137500000Y-122500000D03*
X147500000Y-132500000D03*
X140000000Y-75000000D03*
X144893613Y-73617227D03*
X150000000Y-77500000D03*
X147500000Y-130000000D03*
X147500000Y-120000000D03*
X144884593Y-110177344D03*
X137500000Y-127500000D03*
X150000000Y-90000000D03*
X142500000Y-82500000D03*
X150000000Y-62500000D03*
X150000000Y-112500000D03*
X137500000Y-92500000D03*
X135000000Y-90000000D03*
X146934966Y-123709034D03*
X142500000Y-67500000D03*
X142543560Y-90529747D03*
X147500000Y-77500000D03*
X147006437Y-66459625D03*
X135000000Y-82500000D03*
X135000000Y-62500000D03*
X142500000Y-115000000D03*
X142500000Y-60000000D03*
X140869000Y-131600000D03*
X140000000Y-112500000D03*
X144831102Y-114997660D03*
X147500000Y-80000000D03*
X148935239Y-68541763D03*
X141131258Y-94871569D03*
X140000000Y-132500000D03*
X150000000Y-70000000D03*
X137500000Y-95000000D03*
X144875877Y-75659768D03*
X135000000Y-75000000D03*
X143521327Y-132089671D03*
X144860144Y-84909428D03*
X135000000Y-102500000D03*
X142559701Y-91853276D03*
X147500000Y-135000000D03*
X141647757Y-86825479D03*
X135000000Y-125000000D03*
X137500000Y-90000000D03*
X142500000Y-112500000D03*
X142575842Y-93120314D03*
X140000000Y-82500000D03*
X139649800Y-123297400D03*
X135000000Y-77500000D03*
X147500000Y-125000000D03*
X147500000Y-60000000D03*
X135000000Y-117500000D03*
X144875877Y-81471200D03*
X140000000Y-117500000D03*
X148214722Y-101638800D03*
X150000000Y-82500000D03*
X147500000Y-62500000D03*
X142875600Y-103315200D03*
X142500000Y-105000000D03*
X135000000Y-107500000D03*
X135000000Y-72500000D03*
X137500000Y-77500000D03*
X140000000Y-80000000D03*
X142500000Y-72500000D03*
X144851666Y-71648829D03*
X140469493Y-92894345D03*
X135000000Y-127500000D03*
X141470125Y-133697006D03*
X140654213Y-103663751D03*
X150000000Y-110000000D03*
X138934270Y-96920566D03*
X150000000Y-72500000D03*
X138934270Y-104453995D03*
X144894278Y-121162280D03*
X140000000Y-135000000D03*
X150000000Y-65000000D03*
X144835053Y-103442813D03*
X135000000Y-112500000D03*
X143514602Y-133697006D03*
X144867807Y-83242265D03*
X137500000Y-112500000D03*
X150000000Y-85000000D03*
X135000000Y-85000000D03*
X145000000Y-67500000D03*
X137500000Y-117500000D03*
X142500000Y-80000000D03*
X137500000Y-120000000D03*
X135000000Y-67500000D03*
X144806000Y-101283200D03*
X148281545Y-88617086D03*
X149044296Y-108529119D03*
X145586064Y-94363140D03*
X150000000Y-117500000D03*
X145000000Y-135000000D03*
X137500000Y-125000000D03*
X140000000Y-62500000D03*
X137500000Y-72500000D03*
X150000000Y-97500000D03*
X147500000Y-75000000D03*
X139864220Y-86494596D03*
X137500000Y-115000000D03*
X135000000Y-65000000D03*
X144867807Y-86494596D03*
X142715296Y-121975766D03*
X137500000Y-135000000D03*
X144851666Y-77460261D03*
X142500000Y-120000000D03*
X148909791Y-106444292D03*
X140000000Y-72500000D03*
X146927994Y-111184518D03*
X139024909Y-88520242D03*
X146982226Y-86865830D03*
X140000000Y-107500000D03*
X147500000Y-112500000D03*
X150000000Y-92500000D03*
X147500000Y-70000000D03*
X147500000Y-115000000D03*
X150000000Y-122500000D03*
X135000000Y-115000000D03*
X142500000Y-97500000D03*
X145000000Y-60000000D03*
X137500000Y-85000000D03*
X142500000Y-75000000D03*
X146941875Y-73771318D03*
X144893613Y-79428659D03*
X146934966Y-121215582D03*
X148214722Y-98235200D03*
X137500000Y-130000000D03*
X135000000Y-97500000D03*
X136055038Y-86454245D03*
X150000000Y-102500000D03*
X146982226Y-81733466D03*
X148981078Y-128522394D03*
X140000000Y-120000000D03*
X142875600Y-100815200D03*
X144884593Y-117588750D03*
X135000000Y-130000000D03*
X140514758Y-96850839D03*
X142500000Y-117500000D03*
%TO.N,/VCC*%
X141668100Y-127117600D03*
X144000000Y-127200000D03*
%TO.N,/CLK2*%
X140700000Y-126300000D03*
X143600000Y-126200000D03*
%TO.N,/CLK1*%
X143100000Y-127800000D03*
X139765700Y-127800000D03*
%TD*%
D24*
%TO.N,/VCC*%
X141717600Y-127068100D02*
X141668100Y-127117600D01*
X143667600Y-129055500D02*
X144317600Y-129055500D01*
X141717600Y-126004800D02*
X142367600Y-125354800D01*
X144317600Y-123330500D02*
X144317600Y-127917600D01*
X138600000Y-129200000D02*
X139700000Y-130300000D01*
X141717600Y-130082400D02*
X141717600Y-129055500D01*
X144325000Y-129062900D02*
X144317600Y-129055500D01*
X141717600Y-127017600D02*
X141717600Y-126004800D01*
X141717600Y-129055500D02*
X141717600Y-127017600D01*
X139700000Y-130300000D02*
X141500000Y-130300000D01*
X144000000Y-127200000D02*
X144317600Y-127517600D01*
X144317600Y-127517600D02*
X144317600Y-127917600D01*
X141500000Y-130300000D02*
X141717600Y-130082400D01*
X138600000Y-112610051D02*
X138600000Y-129200000D01*
X135000000Y-110000000D02*
X135989949Y-110000000D01*
X142367600Y-125354800D02*
X142367600Y-123330500D01*
X144347700Y-129025400D02*
X144317600Y-129055500D01*
X135989949Y-110000000D02*
X138600000Y-112610051D01*
X144317600Y-127917600D02*
X144317600Y-129055500D01*
X141717600Y-127017600D02*
X141717600Y-127068100D01*
X144325000Y-130900000D02*
X144325000Y-129062900D01*
%TO.N,/VA*%
X144075000Y-90555000D02*
X144075000Y-89425000D01*
X142500000Y-71500000D02*
X143500000Y-72500000D01*
X143500000Y-88000000D02*
X144500000Y-89000000D01*
X143500000Y-72500000D02*
X143500000Y-88000000D01*
X144075000Y-89425000D02*
X144500000Y-89000000D01*
X136500000Y-71500000D02*
X142500000Y-71500000D01*
X135000000Y-70000000D02*
X136500000Y-71500000D01*
%TO.N,/VE*%
X137825000Y-98175000D02*
X138925000Y-98175000D01*
X137000000Y-103000000D02*
X137000000Y-99000000D01*
X137000000Y-99000000D02*
X137825000Y-98175000D01*
X135000000Y-105000000D02*
X137000000Y-103000000D01*
D25*
%TO.N,/180*%
X144075000Y-95635000D02*
X146200000Y-95635000D01*
X148200000Y-107500000D02*
X148500000Y-107500000D01*
X148500000Y-107500000D02*
X151000000Y-107500000D01*
X147200000Y-96635000D02*
X147200000Y-106500000D01*
X147200000Y-106500000D02*
G75*
G03*
X148200000Y-107500000I1000000J0D01*
G01*
X147200000Y-96635000D02*
G75*
G03*
X146200000Y-95635000I-1000000J0D01*
G01*
%TO.N,/270*%
X148500000Y-87500000D02*
X151000000Y-87500000D01*
X144075000Y-93095000D02*
X146200000Y-93095000D01*
X147200000Y-92095000D02*
X147200000Y-88500000D01*
X148200000Y-87500000D02*
X148500000Y-87500000D01*
X146200000Y-93095000D02*
G75*
G03*
X147200000Y-92095000I0J1000000D01*
G01*
X148200000Y-87500000D02*
G75*
G03*
X147200000Y-88500000I0J-1000000D01*
G01*
%TO.N,/90*%
X145900000Y-90825000D02*
X145900000Y-68500000D01*
X146900000Y-67500000D02*
X148500000Y-67500000D01*
X148500000Y-67500000D02*
X151000000Y-67500000D01*
X144075000Y-91825000D02*
X144900000Y-91825000D01*
X144900000Y-91825000D02*
G75*
G03*
X145900000Y-90825000I0J1000000D01*
G01*
X146900000Y-67500000D02*
G75*
G03*
X145900000Y-68500000I0J-1000000D01*
G01*
%TO.N,/0*%
X144075000Y-96905000D02*
X144900000Y-96905000D01*
X145900000Y-97905000D02*
X145900000Y-126500000D01*
X148500000Y-127500000D02*
X151000000Y-127500000D01*
X146900000Y-127500000D02*
X148500000Y-127500000D01*
X145900000Y-126500000D02*
G75*
G03*
X146900000Y-127500000I1000000J0D01*
G01*
X145900000Y-97905000D02*
G75*
G03*
X144900000Y-96905000I-1000000J0D01*
G01*
%TO.N,/2xIF*%
X142500000Y-136000000D02*
X142500000Y-131500000D01*
D24*
X142367600Y-130829000D02*
X142506800Y-130968200D01*
X142367600Y-126294600D02*
X142367600Y-129055500D01*
X142506800Y-130968200D02*
X142506800Y-131600000D01*
X142367600Y-129055500D02*
X142367600Y-130829000D01*
X143017600Y-123330500D02*
X143017600Y-125644600D01*
X143017600Y-125644600D02*
X142367600Y-126294600D01*
D25*
%TO.N,/RF*%
X141500000Y-93365000D02*
X141500000Y-88500000D01*
X140500000Y-87500000D02*
X134000000Y-87500000D01*
X144075000Y-94365000D02*
X142500000Y-94365000D01*
X141500000Y-93365000D02*
G75*
G03*
X142500000Y-94365000I1000000J0D01*
G01*
X141500000Y-88500000D02*
G75*
G03*
X140500000Y-87500000I-1000000J0D01*
G01*
D24*
%TO.N,/CLK2*%
X143667600Y-110167600D02*
X143667600Y-123330500D01*
X143967600Y-108667600D02*
X144247181Y-108667600D01*
X144075000Y-99445000D02*
X144075000Y-104445000D01*
X143600000Y-123398100D02*
X143667600Y-123330500D01*
X143667600Y-104852400D02*
X143667600Y-108367600D01*
X143600000Y-126200000D02*
X143600000Y-123398100D01*
X140417600Y-129055500D02*
X140417600Y-126582400D01*
X143088019Y-109867600D02*
X143367600Y-109867600D01*
X140417600Y-126582400D02*
X140700000Y-126300000D01*
X144075000Y-104445000D02*
X143667600Y-104852400D01*
X144247181Y-109267600D02*
X143088019Y-109267600D01*
X144247181Y-109267581D02*
G75*
G03*
X144547181Y-108967600I19J299981D01*
G01*
X143088019Y-109267619D02*
G75*
G03*
X142788019Y-109567600I-19J-299981D01*
G01*
X143667600Y-110167600D02*
G75*
G03*
X143367600Y-109867600I-300000J0D01*
G01*
X143667600Y-108367600D02*
G75*
G03*
X143967600Y-108667600I300000J0D01*
G01*
X142788000Y-109567600D02*
G75*
G03*
X143088019Y-109867600I300000J0D01*
G01*
X144547200Y-108967600D02*
G75*
G03*
X144247181Y-108667600I-300000J0D01*
G01*
%TO.N,/CLK1*%
X139765700Y-127800000D02*
X139765700Y-125868269D01*
X143100000Y-127800000D02*
X143017600Y-129055500D01*
X142925000Y-98200000D02*
X141717600Y-99407400D01*
X141717600Y-99407400D02*
X141717600Y-123330500D01*
X139765700Y-125868269D02*
X141717600Y-123916369D01*
X144075000Y-98200000D02*
X142925000Y-98200000D01*
X141717600Y-123916369D02*
X141717600Y-123330500D01*
%TD*%
%TA.AperFunction,Conductor*%
%TO.N,GND*%
G36*
X140503219Y-88100924D02*
G01*
X140521718Y-88103359D01*
X140590481Y-88112412D01*
X140615435Y-88119099D01*
X140687711Y-88149036D01*
X140710083Y-88161952D01*
X140772152Y-88209579D01*
X140790420Y-88227847D01*
X140838045Y-88289913D01*
X140850962Y-88312285D01*
X140880899Y-88384559D01*
X140887587Y-88409520D01*
X140899076Y-88496778D01*
X140899500Y-88503247D01*
X140899500Y-93479474D01*
X140932081Y-93706077D01*
X140996580Y-93925741D01*
X140996581Y-93925744D01*
X140996582Y-93925746D01*
X141091687Y-94133997D01*
X141091688Y-94133998D01*
X141091692Y-94134006D01*
X141215455Y-94326586D01*
X141215461Y-94326594D01*
X141365385Y-94499615D01*
X141365392Y-94499621D01*
X141365394Y-94499623D01*
X141538401Y-94649535D01*
X141538413Y-94649544D01*
X141730993Y-94773307D01*
X141730995Y-94773308D01*
X141731003Y-94773313D01*
X141939254Y-94868418D01*
X142158920Y-94932918D01*
X142234456Y-94943778D01*
X142385526Y-94965500D01*
X143186688Y-94965500D01*
X143244879Y-94984407D01*
X143280843Y-95033907D01*
X143280843Y-95095093D01*
X143244879Y-95144593D01*
X143230168Y-95153441D01*
X143143518Y-95195801D01*
X143060801Y-95278518D01*
X143009427Y-95383604D01*
X143009427Y-95383607D01*
X142999500Y-95451740D01*
X142999500Y-95818260D01*
X143006118Y-95863681D01*
X143009427Y-95886395D01*
X143060801Y-95991481D01*
X143060802Y-95991483D01*
X143143517Y-96074198D01*
X143197285Y-96100483D01*
X143248604Y-96125572D01*
X143248605Y-96125572D01*
X143248607Y-96125573D01*
X143316740Y-96135500D01*
X143707228Y-96135500D01*
X143765419Y-96154407D01*
X143767494Y-96155957D01*
X143772157Y-96159535D01*
X143772159Y-96159536D01*
X143818028Y-96178536D01*
X143864554Y-96218273D01*
X143878837Y-96277768D01*
X143855422Y-96334296D01*
X143818028Y-96361464D01*
X143772159Y-96380463D01*
X143772157Y-96380464D01*
X143767494Y-96384043D01*
X143709818Y-96404466D01*
X143707228Y-96404500D01*
X143316740Y-96404500D01*
X143282673Y-96409463D01*
X143248604Y-96414427D01*
X143143518Y-96465801D01*
X143060801Y-96548518D01*
X143009427Y-96653604D01*
X143009427Y-96653607D01*
X142999500Y-96721740D01*
X142999500Y-97088260D01*
X143006118Y-97133682D01*
X143009427Y-97156395D01*
X143060801Y-97261481D01*
X143060802Y-97261483D01*
X143143517Y-97344198D01*
X143197285Y-97370483D01*
X143248604Y-97395572D01*
X143248605Y-97395572D01*
X143248607Y-97395573D01*
X143316740Y-97405500D01*
X143707228Y-97405500D01*
X143765419Y-97424407D01*
X143767494Y-97425957D01*
X143772157Y-97429535D01*
X143772161Y-97429537D01*
X143903733Y-97484036D01*
X143950259Y-97523772D01*
X143964543Y-97583267D01*
X143941128Y-97639795D01*
X143888959Y-97671765D01*
X143865848Y-97674500D01*
X143316740Y-97674500D01*
X143282673Y-97679463D01*
X143248604Y-97684427D01*
X143143518Y-97735801D01*
X143060801Y-97818518D01*
X143049361Y-97841919D01*
X143006816Y-97885892D01*
X142964994Y-97897330D01*
X142932901Y-97898814D01*
X142919205Y-97899447D01*
X142916930Y-97899500D01*
X142897153Y-97899500D01*
X142893658Y-97900153D01*
X142886845Y-97900943D01*
X142855009Y-97902414D01*
X142846005Y-97906389D01*
X142824226Y-97913132D01*
X142814568Y-97914937D01*
X142814566Y-97914938D01*
X142787471Y-97931714D01*
X142781403Y-97934913D01*
X142752234Y-97947793D01*
X142745280Y-97954747D01*
X142727403Y-97968907D01*
X142719047Y-97974081D01*
X142699842Y-97999512D01*
X142695338Y-98004688D01*
X141551190Y-99148837D01*
X141539961Y-99156950D01*
X141540690Y-99157915D01*
X141533371Y-99163441D01*
X141500972Y-99198980D01*
X141499396Y-99200631D01*
X141485430Y-99214598D01*
X141485417Y-99214613D01*
X141483413Y-99217538D01*
X141479161Y-99222904D01*
X141457684Y-99246465D01*
X141457683Y-99246467D01*
X141454129Y-99255640D01*
X141443496Y-99275812D01*
X141437946Y-99283915D01*
X141437942Y-99283924D01*
X141430645Y-99314945D01*
X141428616Y-99321498D01*
X141417100Y-99351224D01*
X141417100Y-99361051D01*
X141414470Y-99383718D01*
X141412221Y-99393279D01*
X141416625Y-99424852D01*
X141417100Y-99431698D01*
X141417100Y-122322742D01*
X141398193Y-122380933D01*
X141348693Y-122416897D01*
X141287507Y-122416897D01*
X141278113Y-122413307D01*
X141237591Y-122395415D01*
X141237588Y-122395414D01*
X141212468Y-122392500D01*
X140922740Y-122392500D01*
X140922735Y-122392501D01*
X140897609Y-122395414D01*
X140794835Y-122440794D01*
X140715394Y-122520235D01*
X140670014Y-122623011D01*
X140667100Y-122648130D01*
X140667100Y-124012860D01*
X140667101Y-124012863D01*
X140670014Y-124037990D01*
X140695356Y-124095384D01*
X140715394Y-124140765D01*
X140794835Y-124220206D01*
X140797170Y-124221237D01*
X140799880Y-124223662D01*
X140802403Y-124225390D01*
X140802178Y-124225717D01*
X140842766Y-124262033D01*
X140855675Y-124321841D01*
X140830964Y-124377815D01*
X140827189Y-124381806D01*
X139599290Y-125609706D01*
X139588061Y-125617819D01*
X139588790Y-125618784D01*
X139581471Y-125624310D01*
X139549072Y-125659849D01*
X139547496Y-125661500D01*
X139533530Y-125675467D01*
X139533517Y-125675482D01*
X139531513Y-125678407D01*
X139527261Y-125683773D01*
X139505784Y-125707334D01*
X139505783Y-125707336D01*
X139502229Y-125716509D01*
X139491596Y-125736681D01*
X139486046Y-125744784D01*
X139486042Y-125744793D01*
X139478745Y-125775814D01*
X139476716Y-125782367D01*
X139465200Y-125812093D01*
X139465200Y-125821920D01*
X139462570Y-125844587D01*
X139460321Y-125854148D01*
X139464725Y-125885721D01*
X139465200Y-125892567D01*
X139465200Y-127224846D01*
X139446293Y-127283037D01*
X139426467Y-127303388D01*
X139337423Y-127371713D01*
X139337413Y-127371723D01*
X139241162Y-127497160D01*
X139241162Y-127497161D01*
X139180657Y-127643233D01*
X139180655Y-127643241D01*
X139160018Y-127799999D01*
X139160018Y-127800000D01*
X139180655Y-127956758D01*
X139180657Y-127956766D01*
X139241162Y-128102838D01*
X139241162Y-128102839D01*
X139332999Y-128222523D01*
X139337418Y-128228282D01*
X139462859Y-128324536D01*
X139462860Y-128324536D01*
X139462861Y-128324537D01*
X139580197Y-128373139D01*
X139608938Y-128385044D01*
X139710912Y-128398469D01*
X139765699Y-128405682D01*
X139765700Y-128405682D01*
X139905179Y-128387319D01*
X139965338Y-128398469D01*
X140007456Y-128442851D01*
X140017100Y-128485472D01*
X140017100Y-129737860D01*
X140017101Y-129737863D01*
X140020014Y-129762990D01*
X140063075Y-129860512D01*
X140069283Y-129921381D01*
X140038527Y-129974275D01*
X139982555Y-129998989D01*
X139972510Y-129999500D01*
X139865479Y-129999500D01*
X139807288Y-129980593D01*
X139795475Y-129970504D01*
X138929496Y-129104525D01*
X138901719Y-129050008D01*
X138900500Y-129034521D01*
X138900500Y-112675223D01*
X138902731Y-112661546D01*
X138901506Y-112661376D01*
X138902774Y-112652284D01*
X138900553Y-112604245D01*
X138900500Y-112601958D01*
X138900500Y-112582211D01*
X138900500Y-112582207D01*
X138899846Y-112578712D01*
X138899058Y-112571921D01*
X138897586Y-112540060D01*
X138893615Y-112531069D01*
X138886864Y-112509268D01*
X138885061Y-112499618D01*
X138868278Y-112472513D01*
X138865084Y-112466452D01*
X138852205Y-112437284D01*
X138845256Y-112430335D01*
X138831090Y-112412450D01*
X138825919Y-112404099D01*
X138800483Y-112384890D01*
X138795306Y-112380385D01*
X136248514Y-109833594D01*
X136240428Y-109822344D01*
X136239436Y-109823094D01*
X136233907Y-109815772D01*
X136198377Y-109783382D01*
X136196724Y-109781804D01*
X136182746Y-109767826D01*
X136181825Y-109767195D01*
X136179808Y-109765813D01*
X136174445Y-109761564D01*
X136150882Y-109740084D01*
X136141711Y-109736531D01*
X136121535Y-109725895D01*
X136113433Y-109720345D01*
X136113428Y-109720343D01*
X136082406Y-109713046D01*
X136075851Y-109711016D01*
X136046126Y-109699501D01*
X136046123Y-109699500D01*
X136046122Y-109699500D01*
X136046121Y-109699500D01*
X136036297Y-109699500D01*
X136013632Y-109696870D01*
X136004068Y-109694621D01*
X136004067Y-109694621D01*
X135972496Y-109699025D01*
X135965650Y-109699500D01*
X135921131Y-109699500D01*
X135862940Y-109680593D01*
X135830480Y-109635918D01*
X135829286Y-109636450D01*
X135827180Y-109631720D01*
X135827179Y-109631716D01*
X135827176Y-109631711D01*
X135827174Y-109631706D01*
X135766475Y-109526573D01*
X135732533Y-109467784D01*
X135642697Y-109368011D01*
X135605875Y-109327116D01*
X135605870Y-109327111D01*
X135452731Y-109215850D01*
X135452732Y-109215850D01*
X135452730Y-109215849D01*
X135452725Y-109215847D01*
X135452722Y-109215845D01*
X135279805Y-109138857D01*
X135279803Y-109138856D01*
X135279800Y-109138855D01*
X135279799Y-109138855D01*
X135244580Y-109131369D01*
X135094646Y-109099500D01*
X134905354Y-109099500D01*
X134787289Y-109124595D01*
X134720200Y-109138855D01*
X134720194Y-109138857D01*
X134547277Y-109215845D01*
X134547268Y-109215850D01*
X134394129Y-109327111D01*
X134394124Y-109327116D01*
X134267469Y-109467781D01*
X134267465Y-109467787D01*
X134172825Y-109631706D01*
X134172819Y-109631720D01*
X134114327Y-109811738D01*
X134114326Y-109811742D01*
X134114326Y-109811744D01*
X134094540Y-110000000D01*
X134105044Y-110099945D01*
X134114327Y-110188261D01*
X134172819Y-110368279D01*
X134172825Y-110368293D01*
X134198501Y-110412764D01*
X134267467Y-110532216D01*
X134394129Y-110672888D01*
X134547270Y-110784151D01*
X134720197Y-110861144D01*
X134905354Y-110900500D01*
X134905357Y-110900500D01*
X135094643Y-110900500D01*
X135094646Y-110900500D01*
X135279803Y-110861144D01*
X135452730Y-110784151D01*
X135605871Y-110672888D01*
X135732533Y-110532216D01*
X135801500Y-110412761D01*
X135846967Y-110371823D01*
X135907817Y-110365427D01*
X135957238Y-110392259D01*
X138270505Y-112705527D01*
X138298281Y-112760042D01*
X138299500Y-112775529D01*
X138299500Y-129134835D01*
X138297280Y-129148513D01*
X138298494Y-129148683D01*
X138297226Y-129157766D01*
X138299447Y-129205783D01*
X138299500Y-129208069D01*
X138299500Y-129227842D01*
X138300152Y-129231332D01*
X138300943Y-129238149D01*
X138302414Y-129269987D01*
X138302415Y-129269994D01*
X138306384Y-129278982D01*
X138313133Y-129300773D01*
X138314939Y-129310433D01*
X138331717Y-129337533D01*
X138334915Y-129343600D01*
X138347793Y-129372763D01*
X138347794Y-129372765D01*
X138354745Y-129379716D01*
X138368907Y-129397596D01*
X138374081Y-129405952D01*
X138399511Y-129425156D01*
X138404690Y-129429662D01*
X139441436Y-130466407D01*
X139449537Y-130477647D01*
X139450516Y-130476909D01*
X139456044Y-130484230D01*
X139491569Y-130516616D01*
X139493223Y-130518195D01*
X139500947Y-130525918D01*
X139507203Y-130532174D01*
X139510128Y-130534178D01*
X139515505Y-130538437D01*
X139539064Y-130559914D01*
X139539065Y-130559914D01*
X139539067Y-130559916D01*
X139548225Y-130563463D01*
X139568412Y-130574103D01*
X139576519Y-130579657D01*
X139607552Y-130586955D01*
X139614095Y-130588982D01*
X139626065Y-130593619D01*
X139636302Y-130597585D01*
X139643827Y-130600500D01*
X139653652Y-130600500D01*
X139676316Y-130603129D01*
X139685881Y-130605379D01*
X139713645Y-130601506D01*
X139717453Y-130600975D01*
X139724299Y-130600500D01*
X141434836Y-130600500D01*
X141448511Y-130602732D01*
X141448683Y-130601506D01*
X141457764Y-130602772D01*
X141457765Y-130602773D01*
X141457765Y-130602772D01*
X141457766Y-130602773D01*
X141466507Y-130602368D01*
X141505793Y-130600552D01*
X141508070Y-130600500D01*
X141527841Y-130600500D01*
X141527844Y-130600500D01*
X141531337Y-130599846D01*
X141538141Y-130599056D01*
X141569992Y-130597585D01*
X141578976Y-130593617D01*
X141600777Y-130586865D01*
X141610433Y-130585061D01*
X141637543Y-130568274D01*
X141643589Y-130565088D01*
X141672765Y-130552206D01*
X141679709Y-130545260D01*
X141697601Y-130531089D01*
X141705952Y-130525919D01*
X141725165Y-130500474D01*
X141729662Y-130495308D01*
X141758563Y-130466407D01*
X141884005Y-130340964D01*
X141895262Y-130332894D01*
X141894503Y-130331889D01*
X141908441Y-130321364D01*
X141966273Y-130301386D01*
X142024803Y-130319216D01*
X142061674Y-130368044D01*
X142067100Y-130400369D01*
X142067100Y-130763835D01*
X142064880Y-130777513D01*
X142066094Y-130777683D01*
X142064826Y-130786766D01*
X142067047Y-130834783D01*
X142067100Y-130837069D01*
X142067100Y-130856844D01*
X142067273Y-130857767D01*
X142067752Y-130860332D01*
X142068543Y-130867149D01*
X142070014Y-130898987D01*
X142070016Y-130898995D01*
X142072151Y-130903831D01*
X142078357Y-130964701D01*
X142051589Y-131013818D01*
X141978751Y-131086656D01*
X141978750Y-131086658D01*
X141921154Y-131199695D01*
X141906300Y-131293478D01*
X141906300Y-131405738D01*
X141905876Y-131412205D01*
X141899500Y-131460636D01*
X141899500Y-137400500D01*
X141880593Y-137458691D01*
X141831093Y-137494655D01*
X141800500Y-137499500D01*
X135001490Y-137499500D01*
X134998524Y-137499410D01*
X134965819Y-137497432D01*
X134901162Y-137493520D01*
X134728105Y-137482178D01*
X134692881Y-137479870D01*
X134687205Y-137479166D01*
X134550823Y-137454173D01*
X134383706Y-137420931D01*
X134378633Y-137419640D01*
X134239438Y-137376265D01*
X134238254Y-137375879D01*
X134084401Y-137323654D01*
X134079995Y-137321919D01*
X133944298Y-137260847D01*
X133942745Y-137260115D01*
X133889851Y-137234030D01*
X133799673Y-137189559D01*
X133795957Y-137187524D01*
X133667380Y-137109797D01*
X133665487Y-137108593D01*
X133534028Y-137020755D01*
X133531001Y-137018562D01*
X133412155Y-136925454D01*
X133410064Y-136923721D01*
X133291628Y-136819855D01*
X133289263Y-136817640D01*
X133182358Y-136710735D01*
X133180143Y-136708370D01*
X133076272Y-136589928D01*
X133074544Y-136587843D01*
X132981436Y-136468997D01*
X132979243Y-136465970D01*
X132891405Y-136334511D01*
X132890201Y-136332618D01*
X132812474Y-136204041D01*
X132810439Y-136200325D01*
X132739860Y-136057206D01*
X132739174Y-136055750D01*
X132678073Y-135919989D01*
X132676353Y-135915621D01*
X132624115Y-135761733D01*
X132623752Y-135760621D01*
X132580354Y-135621349D01*
X132579067Y-135616292D01*
X132545834Y-135449219D01*
X132520828Y-135312765D01*
X132520131Y-135307148D01*
X132506493Y-135099080D01*
X132500589Y-135001476D01*
X132500500Y-134998510D01*
X132500500Y-105000000D01*
X134094540Y-105000000D01*
X134114327Y-105188261D01*
X134172819Y-105368279D01*
X134172825Y-105368293D01*
X134248015Y-105498525D01*
X134267467Y-105532216D01*
X134394129Y-105672888D01*
X134547270Y-105784151D01*
X134720197Y-105861144D01*
X134905354Y-105900500D01*
X134905357Y-105900500D01*
X135094643Y-105900500D01*
X135094646Y-105900500D01*
X135279803Y-105861144D01*
X135452730Y-105784151D01*
X135605871Y-105672888D01*
X135732533Y-105532216D01*
X135827179Y-105368284D01*
X135885674Y-105188256D01*
X135905460Y-105000000D01*
X135885674Y-104811744D01*
X135858764Y-104728924D01*
X135837607Y-104663809D01*
X135837606Y-104602624D01*
X135861755Y-104563214D01*
X137166405Y-103258564D01*
X137177664Y-103250493D01*
X137176905Y-103249487D01*
X137184221Y-103243961D01*
X137184228Y-103243958D01*
X137216632Y-103208411D01*
X137218186Y-103206783D01*
X137232174Y-103192797D01*
X137234181Y-103189865D01*
X137238440Y-103184490D01*
X137259916Y-103160933D01*
X137263465Y-103151770D01*
X137274106Y-103131582D01*
X137279656Y-103123481D01*
X137286955Y-103092443D01*
X137288977Y-103085914D01*
X137300500Y-103056173D01*
X137300500Y-103046348D01*
X137303129Y-103023683D01*
X137305379Y-103014119D01*
X137300975Y-102982546D01*
X137300500Y-102975699D01*
X137300500Y-99749747D01*
X137319407Y-99691556D01*
X137354555Y-99661537D01*
X137358121Y-99659719D01*
X137358126Y-99659719D01*
X137478220Y-99598528D01*
X137573528Y-99503220D01*
X137634719Y-99383126D01*
X137650432Y-99283919D01*
X137650500Y-99283489D01*
X137650500Y-98815478D01*
X137669407Y-98757287D01*
X137679496Y-98745474D01*
X137832141Y-98592829D01*
X137886658Y-98565052D01*
X137947090Y-98574623D01*
X137972145Y-98592826D01*
X137993517Y-98614198D01*
X138047285Y-98640483D01*
X138098604Y-98665572D01*
X138098605Y-98665572D01*
X138098607Y-98665573D01*
X138166740Y-98675500D01*
X138166743Y-98675500D01*
X139683257Y-98675500D01*
X139683260Y-98675500D01*
X139751393Y-98665573D01*
X139856483Y-98614198D01*
X139939198Y-98531483D01*
X139990573Y-98426393D01*
X140000500Y-98358260D01*
X140000500Y-97991740D01*
X139990573Y-97923607D01*
X139983879Y-97909915D01*
X139942462Y-97825194D01*
X139939198Y-97818517D01*
X139856483Y-97735802D01*
X139856481Y-97735801D01*
X139751395Y-97684427D01*
X139724139Y-97680456D01*
X139683260Y-97674500D01*
X138166740Y-97674500D01*
X138132673Y-97679463D01*
X138098604Y-97684427D01*
X137993518Y-97735801D01*
X137910800Y-97818519D01*
X137910799Y-97818521D01*
X137910705Y-97818714D01*
X137910539Y-97818884D01*
X137906035Y-97825194D01*
X137905088Y-97824518D01*
X137868156Y-97862683D01*
X137826348Y-97874117D01*
X137825039Y-97874177D01*
X137819201Y-97874447D01*
X137816931Y-97874500D01*
X137797153Y-97874500D01*
X137793658Y-97875153D01*
X137786845Y-97875943D01*
X137755010Y-97877414D01*
X137755006Y-97877415D01*
X137746015Y-97881385D01*
X137724227Y-97888132D01*
X137714570Y-97889937D01*
X137714564Y-97889939D01*
X137687466Y-97906717D01*
X137681399Y-97909915D01*
X137652237Y-97922792D01*
X137652233Y-97922795D01*
X137645284Y-97929744D01*
X137627409Y-97943903D01*
X137619048Y-97949080D01*
X137599836Y-97974519D01*
X137595332Y-97979695D01*
X137279526Y-98295503D01*
X137225009Y-98323281D01*
X137209522Y-98324500D01*
X136741510Y-98324500D01*
X136641874Y-98340281D01*
X136641867Y-98340283D01*
X136521782Y-98401470D01*
X136426470Y-98496782D01*
X136365283Y-98616867D01*
X136365281Y-98616874D01*
X136349500Y-98716510D01*
X136349500Y-99283489D01*
X136365281Y-99383125D01*
X136365283Y-99383132D01*
X136426470Y-99503217D01*
X136426472Y-99503220D01*
X136521780Y-99598528D01*
X136641874Y-99659719D01*
X136641878Y-99659719D01*
X136645445Y-99661537D01*
X136688709Y-99704802D01*
X136699500Y-99749747D01*
X136699500Y-102834520D01*
X136680593Y-102892711D01*
X136670504Y-102904524D01*
X135436111Y-104138916D01*
X135381594Y-104166693D01*
X135325841Y-104159353D01*
X135279809Y-104138858D01*
X135279804Y-104138856D01*
X135279803Y-104138856D01*
X135279800Y-104138855D01*
X135279799Y-104138855D01*
X135244580Y-104131369D01*
X135094646Y-104099500D01*
X134905354Y-104099500D01*
X134787289Y-104124595D01*
X134720200Y-104138855D01*
X134720194Y-104138857D01*
X134547277Y-104215845D01*
X134547268Y-104215850D01*
X134394129Y-104327111D01*
X134394124Y-104327116D01*
X134267469Y-104467781D01*
X134267465Y-104467787D01*
X134172825Y-104631706D01*
X134172819Y-104631720D01*
X134114327Y-104811738D01*
X134114326Y-104811742D01*
X134114326Y-104811744D01*
X134112542Y-104828718D01*
X134094540Y-105000000D01*
X132500500Y-105000000D01*
X132500500Y-95818260D01*
X137849500Y-95818260D01*
X137856118Y-95863681D01*
X137859427Y-95886395D01*
X137910801Y-95991481D01*
X137910802Y-95991483D01*
X137993517Y-96074198D01*
X138047285Y-96100483D01*
X138098604Y-96125572D01*
X138098605Y-96125572D01*
X138098607Y-96125573D01*
X138166740Y-96135500D01*
X138166743Y-96135500D01*
X139683257Y-96135500D01*
X139683260Y-96135500D01*
X139751393Y-96125573D01*
X139856483Y-96074198D01*
X139939198Y-95991483D01*
X139990573Y-95886393D01*
X140000500Y-95818260D01*
X140000500Y-95451740D01*
X139990573Y-95383607D01*
X139974370Y-95350464D01*
X139939198Y-95278518D01*
X139939198Y-95278517D01*
X139856483Y-95195802D01*
X139856481Y-95195801D01*
X139751395Y-95144427D01*
X139724139Y-95140456D01*
X139683260Y-95134500D01*
X138166740Y-95134500D01*
X138132673Y-95139463D01*
X138098604Y-95144427D01*
X137993518Y-95195801D01*
X137910801Y-95278518D01*
X137859427Y-95383604D01*
X137859427Y-95383607D01*
X137849500Y-95451740D01*
X137849500Y-95818260D01*
X132500500Y-95818260D01*
X132500500Y-94548260D01*
X137849500Y-94548260D01*
X137856118Y-94593682D01*
X137859427Y-94616395D01*
X137875633Y-94649544D01*
X137910802Y-94721483D01*
X137993517Y-94804198D01*
X138047285Y-94830483D01*
X138098604Y-94855572D01*
X138098605Y-94855572D01*
X138098607Y-94855573D01*
X138166740Y-94865500D01*
X138166743Y-94865500D01*
X139683257Y-94865500D01*
X139683260Y-94865500D01*
X139751393Y-94855573D01*
X139856483Y-94804198D01*
X139939198Y-94721483D01*
X139990573Y-94616393D01*
X140000500Y-94548260D01*
X140000500Y-94181740D01*
X139990573Y-94113607D01*
X139939198Y-94008517D01*
X139856483Y-93925802D01*
X139856358Y-93925741D01*
X139751395Y-93874427D01*
X139724139Y-93870456D01*
X139683260Y-93864500D01*
X138166740Y-93864500D01*
X138132673Y-93869463D01*
X138098604Y-93874427D01*
X137993518Y-93925801D01*
X137910801Y-94008518D01*
X137859427Y-94113604D01*
X137859427Y-94113607D01*
X137849500Y-94181740D01*
X137849500Y-94548260D01*
X132500500Y-94548260D01*
X132500500Y-93278260D01*
X137849500Y-93278260D01*
X137856118Y-93323681D01*
X137859427Y-93346395D01*
X137875633Y-93379544D01*
X137910802Y-93451483D01*
X137993517Y-93534198D01*
X138031378Y-93552707D01*
X138098604Y-93585572D01*
X138098605Y-93585572D01*
X138098607Y-93585573D01*
X138166740Y-93595500D01*
X138166743Y-93595500D01*
X139683257Y-93595500D01*
X139683260Y-93595500D01*
X139751393Y-93585573D01*
X139856483Y-93534198D01*
X139939198Y-93451483D01*
X139990573Y-93346393D01*
X140000500Y-93278260D01*
X140000500Y-92911740D01*
X139990573Y-92843607D01*
X139939198Y-92738517D01*
X139856483Y-92655802D01*
X139856358Y-92655741D01*
X139751395Y-92604427D01*
X139724139Y-92600456D01*
X139683260Y-92594500D01*
X138166740Y-92594500D01*
X138132673Y-92599463D01*
X138098604Y-92604427D01*
X137993518Y-92655801D01*
X137910801Y-92738518D01*
X137859427Y-92843604D01*
X137859427Y-92843607D01*
X137849500Y-92911740D01*
X137849500Y-93278260D01*
X132500500Y-93278260D01*
X132500500Y-92008260D01*
X137849500Y-92008260D01*
X137856118Y-92053682D01*
X137859427Y-92076395D01*
X137875633Y-92109544D01*
X137910802Y-92181483D01*
X137993517Y-92264198D01*
X138031378Y-92282707D01*
X138098604Y-92315572D01*
X138098605Y-92315572D01*
X138098607Y-92315573D01*
X138166740Y-92325500D01*
X138166743Y-92325500D01*
X139683257Y-92325500D01*
X139683260Y-92325500D01*
X139751393Y-92315573D01*
X139856483Y-92264198D01*
X139939198Y-92181483D01*
X139990573Y-92076393D01*
X140000500Y-92008260D01*
X140000500Y-91641740D01*
X139990573Y-91573607D01*
X139939198Y-91468517D01*
X139856483Y-91385802D01*
X139841796Y-91378622D01*
X139751395Y-91334427D01*
X139724139Y-91330456D01*
X139683260Y-91324500D01*
X138166740Y-91324500D01*
X138132673Y-91329463D01*
X138098604Y-91334427D01*
X137993518Y-91385801D01*
X137910801Y-91468518D01*
X137859427Y-91573604D01*
X137859427Y-91573607D01*
X137849500Y-91641740D01*
X137849500Y-92008260D01*
X132500500Y-92008260D01*
X132500500Y-90738260D01*
X137849500Y-90738260D01*
X137856118Y-90783681D01*
X137859427Y-90806395D01*
X137868523Y-90825000D01*
X137910802Y-90911483D01*
X137993517Y-90994198D01*
X138047285Y-91020483D01*
X138098604Y-91045572D01*
X138098605Y-91045572D01*
X138098607Y-91045573D01*
X138166740Y-91055500D01*
X138166743Y-91055500D01*
X139683257Y-91055500D01*
X139683260Y-91055500D01*
X139751393Y-91045573D01*
X139856483Y-90994198D01*
X139939198Y-90911483D01*
X139990573Y-90806393D01*
X140000500Y-90738260D01*
X140000500Y-90371740D01*
X139990573Y-90303607D01*
X139968750Y-90258968D01*
X139961559Y-90244258D01*
X139939198Y-90198517D01*
X139856483Y-90115802D01*
X139856481Y-90115801D01*
X139751395Y-90064427D01*
X139724139Y-90060456D01*
X139683260Y-90054500D01*
X138166740Y-90054500D01*
X138132673Y-90059463D01*
X138098604Y-90064427D01*
X137993518Y-90115801D01*
X137910801Y-90198518D01*
X137859427Y-90303604D01*
X137859427Y-90303607D01*
X137849500Y-90371740D01*
X137849500Y-90738260D01*
X132500500Y-90738260D01*
X132500500Y-88199500D01*
X132519407Y-88141309D01*
X132568907Y-88105345D01*
X132599500Y-88100500D01*
X133960639Y-88100500D01*
X140427086Y-88100500D01*
X140496752Y-88100500D01*
X140503219Y-88100924D01*
G37*
%TD.AperFunction*%
%TA.AperFunction,Conductor*%
G36*
X145269336Y-99728070D02*
G01*
X145298012Y-99782120D01*
X145299500Y-99799222D01*
X145299500Y-126614474D01*
X145332081Y-126841077D01*
X145396580Y-127060741D01*
X145396581Y-127060744D01*
X145396582Y-127060746D01*
X145491687Y-127268997D01*
X145491688Y-127268998D01*
X145491692Y-127269006D01*
X145615455Y-127461586D01*
X145615464Y-127461598D01*
X145765376Y-127634605D01*
X145765385Y-127634615D01*
X145765392Y-127634621D01*
X145765394Y-127634623D01*
X145938401Y-127784535D01*
X145938413Y-127784544D01*
X146130993Y-127908307D01*
X146130995Y-127908308D01*
X146131003Y-127908313D01*
X146339254Y-128003418D01*
X146558920Y-128067918D01*
X146634456Y-128078778D01*
X146785526Y-128100500D01*
X146785530Y-128100500D01*
X146860639Y-128100500D01*
X148025947Y-128100500D01*
X148070891Y-128111289D01*
X148116874Y-128134719D01*
X148189263Y-128146184D01*
X148216510Y-128150500D01*
X148216512Y-128150500D01*
X148783490Y-128150500D01*
X148804885Y-128147111D01*
X148883126Y-128134719D01*
X148929108Y-128111289D01*
X148974053Y-128100500D01*
X149480252Y-128100500D01*
X152400500Y-128100500D01*
X152458691Y-128119407D01*
X152494655Y-128168907D01*
X152499500Y-128199500D01*
X152499500Y-134998509D01*
X152499410Y-135001476D01*
X152497644Y-135030672D01*
X152493520Y-135098836D01*
X152479871Y-135307110D01*
X152479165Y-135312801D01*
X152454175Y-135449165D01*
X152420931Y-135616292D01*
X152419640Y-135621365D01*
X152376265Y-135760560D01*
X152375879Y-135761744D01*
X152323654Y-135915597D01*
X152321919Y-135920003D01*
X152260847Y-136055700D01*
X152260103Y-136057279D01*
X152189559Y-136200325D01*
X152187524Y-136204041D01*
X152109797Y-136332618D01*
X152108593Y-136334511D01*
X152020755Y-136465970D01*
X152018562Y-136468997D01*
X151925454Y-136587843D01*
X151923704Y-136589954D01*
X151819855Y-136708370D01*
X151817640Y-136710735D01*
X151710735Y-136817640D01*
X151708370Y-136819855D01*
X151589954Y-136923704D01*
X151587843Y-136925454D01*
X151468997Y-137018562D01*
X151465970Y-137020755D01*
X151334511Y-137108593D01*
X151332618Y-137109797D01*
X151204041Y-137187524D01*
X151200325Y-137189559D01*
X151057279Y-137260103D01*
X151055700Y-137260847D01*
X150920003Y-137321919D01*
X150915597Y-137323654D01*
X150761744Y-137375879D01*
X150760560Y-137376265D01*
X150621365Y-137419640D01*
X150616292Y-137420931D01*
X150449165Y-137454175D01*
X150395351Y-137464037D01*
X150312798Y-137479165D01*
X150307113Y-137479870D01*
X150284788Y-137481333D01*
X150098836Y-137493520D01*
X150032463Y-137497536D01*
X150001475Y-137499410D01*
X149998510Y-137499500D01*
X143199500Y-137499500D01*
X143141309Y-137480593D01*
X143105345Y-137431093D01*
X143100500Y-137400500D01*
X143100500Y-131957243D01*
X143101719Y-131941755D01*
X143107300Y-131906519D01*
X143107299Y-131293482D01*
X143107298Y-131293478D01*
X143107298Y-131293476D01*
X143092447Y-131199700D01*
X143092446Y-131199698D01*
X143092446Y-131199696D01*
X143034850Y-131086658D01*
X142945142Y-130996950D01*
X142851169Y-130949068D01*
X142807905Y-130905804D01*
X142805552Y-130900851D01*
X142804386Y-130898210D01*
X142804386Y-130898209D01*
X142800413Y-130889212D01*
X142793664Y-130867417D01*
X142791861Y-130857767D01*
X142775078Y-130830662D01*
X142771884Y-130824601D01*
X142759005Y-130795433D01*
X142752056Y-130788484D01*
X142737890Y-130770599D01*
X142732719Y-130762248D01*
X142707279Y-130743036D01*
X142702095Y-130738524D01*
X142697083Y-130733510D01*
X142669316Y-130678988D01*
X142668100Y-130663520D01*
X142668100Y-130063257D01*
X142687007Y-130005066D01*
X142736507Y-129969102D01*
X142797693Y-129969102D01*
X142807076Y-129972688D01*
X142847609Y-129990585D01*
X142872735Y-129993500D01*
X143162464Y-129993499D01*
X143187591Y-129990585D01*
X143290365Y-129945206D01*
X143290366Y-129945204D01*
X143298757Y-129941500D01*
X143299805Y-129943875D01*
X143345339Y-129930462D01*
X143385548Y-129943526D01*
X143386443Y-129941500D01*
X143394833Y-129945204D01*
X143394835Y-129945206D01*
X143497609Y-129990585D01*
X143522735Y-129993500D01*
X143812464Y-129993499D01*
X143837591Y-129990585D01*
X143885511Y-129969425D01*
X143946381Y-129963217D01*
X143999274Y-129993972D01*
X144023989Y-130049944D01*
X144024500Y-130059990D01*
X144024500Y-130150251D01*
X144005593Y-130208442D01*
X143970446Y-130238460D01*
X143846781Y-130301471D01*
X143751470Y-130396782D01*
X143690283Y-130516867D01*
X143690281Y-130516874D01*
X143674500Y-130616510D01*
X143674500Y-131183489D01*
X143690281Y-131283125D01*
X143690283Y-131283132D01*
X143751470Y-131403217D01*
X143751472Y-131403220D01*
X143846780Y-131498528D01*
X143846782Y-131498529D01*
X143966867Y-131559716D01*
X143966869Y-131559716D01*
X143966874Y-131559719D01*
X144042541Y-131571703D01*
X144066510Y-131575500D01*
X144066512Y-131575500D01*
X144583490Y-131575500D01*
X144604885Y-131572111D01*
X144683126Y-131559719D01*
X144803220Y-131498528D01*
X144898528Y-131403220D01*
X144959719Y-131283126D01*
X144975500Y-131183488D01*
X144975500Y-130616512D01*
X144973317Y-130602732D01*
X144970519Y-130585061D01*
X144959719Y-130516874D01*
X144959716Y-130516869D01*
X144959716Y-130516867D01*
X144898529Y-130396782D01*
X144898528Y-130396780D01*
X144803220Y-130301472D01*
X144780660Y-130289977D01*
X144679554Y-130238460D01*
X144636290Y-130195195D01*
X144625500Y-130150251D01*
X144625500Y-129951078D01*
X144644407Y-129892887D01*
X144654490Y-129881080D01*
X144669806Y-129865765D01*
X144715185Y-129762991D01*
X144718100Y-129737865D01*
X144718099Y-128373136D01*
X144715185Y-128348009D01*
X144669806Y-128245235D01*
X144669804Y-128245233D01*
X144669805Y-128245233D01*
X144647095Y-128222523D01*
X144619319Y-128168006D01*
X144618100Y-128152521D01*
X144618100Y-127582768D01*
X144620331Y-127569095D01*
X144619105Y-127568924D01*
X144620373Y-127559832D01*
X144618153Y-127511815D01*
X144618100Y-127509528D01*
X144618100Y-124233477D01*
X144637007Y-124175286D01*
X144647094Y-124163475D01*
X144669806Y-124140765D01*
X144715185Y-124037991D01*
X144718100Y-124012865D01*
X144718099Y-122648136D01*
X144715185Y-122623009D01*
X144669806Y-122520235D01*
X144590365Y-122440794D01*
X144487591Y-122395415D01*
X144487590Y-122395414D01*
X144487588Y-122395414D01*
X144462468Y-122392500D01*
X144172740Y-122392500D01*
X144172735Y-122392501D01*
X144147609Y-122395414D01*
X144116231Y-122409269D01*
X144107087Y-122413307D01*
X144046219Y-122419515D01*
X143993325Y-122388759D01*
X143968611Y-122332787D01*
X143968100Y-122322742D01*
X143968100Y-110099945D01*
X143968099Y-110099944D01*
X143968100Y-110099940D01*
X143937989Y-109968012D01*
X143879275Y-109846093D01*
X143794905Y-109740295D01*
X143794900Y-109740291D01*
X143791713Y-109737104D01*
X143763936Y-109682587D01*
X143773507Y-109622155D01*
X143816772Y-109578890D01*
X143861717Y-109568100D01*
X144277192Y-109568100D01*
X144277554Y-109568082D01*
X144314823Y-109568085D01*
X144446753Y-109537981D01*
X144568676Y-109479272D01*
X144674478Y-109394905D01*
X144758852Y-109289108D01*
X144817568Y-109167189D01*
X144847681Y-109035261D01*
X144847681Y-109008626D01*
X144847700Y-109008567D01*
X144847700Y-108899940D01*
X144847700Y-108899937D01*
X144817586Y-108768005D01*
X144758868Y-108646081D01*
X144674491Y-108540282D01*
X144674489Y-108540281D01*
X144674489Y-108540280D01*
X144568689Y-108455913D01*
X144568683Y-108455909D01*
X144446759Y-108397201D01*
X144314831Y-108367097D01*
X144314827Y-108367096D01*
X144314825Y-108367096D01*
X144314822Y-108367096D01*
X144247159Y-108367100D01*
X144067100Y-108367100D01*
X144008909Y-108348193D01*
X143972945Y-108298693D01*
X143968100Y-108268100D01*
X143968100Y-105017878D01*
X143987007Y-104959687D01*
X143997090Y-104947880D01*
X144241407Y-104703563D01*
X144252665Y-104695494D01*
X144251905Y-104694487D01*
X144259221Y-104688961D01*
X144259228Y-104688958D01*
X144291643Y-104653398D01*
X144293155Y-104651815D01*
X144307175Y-104637797D01*
X144309188Y-104634857D01*
X144313437Y-104629492D01*
X144334916Y-104605933D01*
X144338465Y-104596769D01*
X144349111Y-104576575D01*
X144354657Y-104568480D01*
X144361956Y-104537443D01*
X144363980Y-104530908D01*
X144375500Y-104501173D01*
X144375500Y-104491348D01*
X144378129Y-104468683D01*
X144380379Y-104459119D01*
X144375975Y-104427546D01*
X144375500Y-104420699D01*
X144375500Y-100044500D01*
X144394407Y-99986309D01*
X144443907Y-99950345D01*
X144474500Y-99945500D01*
X144833257Y-99945500D01*
X144833260Y-99945500D01*
X144901393Y-99935573D01*
X145006483Y-99884198D01*
X145089198Y-99801483D01*
X145111559Y-99755741D01*
X145154102Y-99711768D01*
X145214368Y-99701198D01*
X145269336Y-99728070D01*
G37*
%TD.AperFunction*%
%TA.AperFunction,Conductor*%
G36*
X146679593Y-107023322D02*
G01*
X146694490Y-107053622D01*
X146696582Y-107060746D01*
X146791687Y-107268997D01*
X146791688Y-107268998D01*
X146791692Y-107269006D01*
X146915455Y-107461586D01*
X146915461Y-107461594D01*
X147065385Y-107634615D01*
X147065392Y-107634621D01*
X147065394Y-107634623D01*
X147238401Y-107784535D01*
X147238413Y-107784544D01*
X147430993Y-107908307D01*
X147430995Y-107908308D01*
X147431003Y-107908313D01*
X147639254Y-108003418D01*
X147858920Y-108067918D01*
X148019400Y-108090991D01*
X148050250Y-108100772D01*
X148116874Y-108134719D01*
X148175639Y-108144026D01*
X148216509Y-108150500D01*
X148216512Y-108150500D01*
X148783490Y-108150500D01*
X148804885Y-108147111D01*
X148883126Y-108134719D01*
X148929108Y-108111289D01*
X148974053Y-108100500D01*
X149480252Y-108100500D01*
X152400500Y-108100500D01*
X152458691Y-108119407D01*
X152494655Y-108168907D01*
X152499500Y-108199500D01*
X152499500Y-126800500D01*
X152480593Y-126858691D01*
X152431093Y-126894655D01*
X152400500Y-126899500D01*
X148974053Y-126899500D01*
X148929108Y-126888710D01*
X148900632Y-126874201D01*
X148883126Y-126865281D01*
X148883125Y-126865280D01*
X148783490Y-126849500D01*
X148783488Y-126849500D01*
X148216512Y-126849500D01*
X148216510Y-126849500D01*
X148116874Y-126865281D01*
X148116872Y-126865281D01*
X148070892Y-126888710D01*
X148025947Y-126899500D01*
X146903248Y-126899500D01*
X146896780Y-126899076D01*
X146809522Y-126887588D01*
X146784560Y-126880899D01*
X146746854Y-126865281D01*
X146712291Y-126850964D01*
X146689913Y-126838045D01*
X146627847Y-126790420D01*
X146609579Y-126772152D01*
X146561952Y-126710083D01*
X146549036Y-126687711D01*
X146519099Y-126615435D01*
X146512412Y-126590481D01*
X146500924Y-126503219D01*
X146500500Y-126496752D01*
X146500500Y-107081513D01*
X146519407Y-107023322D01*
X146568907Y-106987358D01*
X146630093Y-106987358D01*
X146679593Y-107023322D01*
G37*
%TD.AperFunction*%
%TA.AperFunction,Conductor*%
G36*
X145269336Y-98458070D02*
G01*
X145298012Y-98512120D01*
X145299500Y-98529222D01*
X145299500Y-99090777D01*
X145280593Y-99148968D01*
X145231093Y-99184932D01*
X145169907Y-99184932D01*
X145120407Y-99148968D01*
X145111559Y-99134258D01*
X145089198Y-99088517D01*
X145006483Y-99005802D01*
X145006481Y-99005801D01*
X144901395Y-98954427D01*
X144874139Y-98950456D01*
X144833260Y-98944500D01*
X143316740Y-98944500D01*
X143282673Y-98949463D01*
X143248604Y-98954427D01*
X143143518Y-99005801D01*
X143060801Y-99088518D01*
X143009427Y-99193604D01*
X143006368Y-99214603D01*
X142999500Y-99261740D01*
X142999500Y-99628260D01*
X143005413Y-99668845D01*
X143009427Y-99696395D01*
X143051336Y-99782120D01*
X143060802Y-99801483D01*
X143143517Y-99884198D01*
X143197285Y-99910483D01*
X143248604Y-99935572D01*
X143248605Y-99935572D01*
X143248607Y-99935573D01*
X143316740Y-99945500D01*
X143675500Y-99945500D01*
X143733691Y-99964407D01*
X143769655Y-100013907D01*
X143774500Y-100044500D01*
X143774500Y-104279521D01*
X143755593Y-104337712D01*
X143745503Y-104349525D01*
X143501191Y-104593836D01*
X143489961Y-104601950D01*
X143490690Y-104602915D01*
X143483371Y-104608441D01*
X143450972Y-104643980D01*
X143449396Y-104645631D01*
X143435430Y-104659598D01*
X143435417Y-104659613D01*
X143433413Y-104662538D01*
X143429161Y-104667904D01*
X143407684Y-104691465D01*
X143407683Y-104691467D01*
X143404129Y-104700640D01*
X143393496Y-104720812D01*
X143387946Y-104728915D01*
X143387942Y-104728924D01*
X143380645Y-104759945D01*
X143378616Y-104766498D01*
X143367100Y-104796224D01*
X143367100Y-104806051D01*
X143364470Y-104828718D01*
X143362221Y-104838279D01*
X143366625Y-104869852D01*
X143367100Y-104876698D01*
X143367100Y-108435259D01*
X143397209Y-108567184D01*
X143397210Y-108567186D01*
X143397211Y-108567188D01*
X143455925Y-108689107D01*
X143540295Y-108794905D01*
X143540299Y-108794908D01*
X143543487Y-108798096D01*
X143571264Y-108852613D01*
X143561693Y-108913045D01*
X143518428Y-108956310D01*
X143473483Y-108967100D01*
X143058006Y-108967100D01*
X143057633Y-108967116D01*
X143020379Y-108967115D01*
X143020377Y-108967115D01*
X143020376Y-108967115D01*
X143020375Y-108967115D01*
X142888448Y-108997218D01*
X142766524Y-109055927D01*
X142660727Y-109140290D01*
X142660719Y-109140298D01*
X142576347Y-109246092D01*
X142517634Y-109368005D01*
X142517633Y-109368008D01*
X142517632Y-109368011D01*
X142495523Y-109464869D01*
X142487519Y-109499938D01*
X142487519Y-109526573D01*
X142487500Y-109526631D01*
X142487500Y-109567600D01*
X142487500Y-109635263D01*
X142517614Y-109767195D01*
X142517615Y-109767197D01*
X142517616Y-109767201D01*
X142576328Y-109889111D01*
X142576332Y-109889119D01*
X142660709Y-109994918D01*
X142766514Y-110079289D01*
X142888441Y-110137999D01*
X143020375Y-110168104D01*
X143088029Y-110168100D01*
X143088041Y-110168100D01*
X143268100Y-110168100D01*
X143326291Y-110187007D01*
X143362255Y-110236507D01*
X143367100Y-110267100D01*
X143367100Y-122322742D01*
X143348193Y-122380933D01*
X143298693Y-122416897D01*
X143237507Y-122416897D01*
X143228113Y-122413307D01*
X143187591Y-122395415D01*
X143187588Y-122395414D01*
X143162468Y-122392500D01*
X142872740Y-122392500D01*
X142872735Y-122392501D01*
X142847609Y-122395414D01*
X142777366Y-122426430D01*
X142744835Y-122440794D01*
X142744834Y-122440794D01*
X142736443Y-122444500D01*
X142735395Y-122442127D01*
X142689830Y-122455536D01*
X142649650Y-122442475D01*
X142648757Y-122444500D01*
X142640366Y-122440795D01*
X142640365Y-122440794D01*
X142537591Y-122395415D01*
X142537590Y-122395414D01*
X142537588Y-122395414D01*
X142512468Y-122392500D01*
X142222740Y-122392500D01*
X142222735Y-122392501D01*
X142197609Y-122395414D01*
X142166231Y-122409269D01*
X142157087Y-122413307D01*
X142096219Y-122419515D01*
X142043325Y-122388759D01*
X142018611Y-122332787D01*
X142018100Y-122322742D01*
X142018100Y-99572878D01*
X142037007Y-99514687D01*
X142047090Y-99502880D01*
X142969641Y-98580328D01*
X143024158Y-98552552D01*
X143084590Y-98562123D01*
X143109645Y-98580326D01*
X143143517Y-98614198D01*
X143197285Y-98640483D01*
X143248604Y-98665572D01*
X143248605Y-98665572D01*
X143248607Y-98665573D01*
X143316740Y-98675500D01*
X143316743Y-98675500D01*
X144833257Y-98675500D01*
X144833260Y-98675500D01*
X144901393Y-98665573D01*
X145006483Y-98614198D01*
X145089198Y-98531483D01*
X145111559Y-98485741D01*
X145154102Y-98441768D01*
X145214368Y-98431198D01*
X145269336Y-98458070D01*
G37*
%TD.AperFunction*%
%TA.AperFunction,Conductor*%
G36*
X152458691Y-88119407D02*
G01*
X152494655Y-88168907D01*
X152499500Y-88199500D01*
X152499500Y-106800500D01*
X152480593Y-106858691D01*
X152431093Y-106894655D01*
X152400500Y-106899500D01*
X148974053Y-106899500D01*
X148929108Y-106888710D01*
X148883126Y-106865281D01*
X148783490Y-106849500D01*
X148783488Y-106849500D01*
X148216512Y-106849500D01*
X148216510Y-106849500D01*
X148116869Y-106865281D01*
X148112356Y-106866748D01*
X148051171Y-106866740D01*
X148043890Y-106864053D01*
X148012291Y-106850964D01*
X147989910Y-106838042D01*
X147927851Y-106790423D01*
X147909579Y-106772152D01*
X147861952Y-106710083D01*
X147849036Y-106687711D01*
X147819099Y-106615435D01*
X147812412Y-106590481D01*
X147800924Y-106503219D01*
X147800500Y-106496752D01*
X147800500Y-96520525D01*
X147769439Y-96304500D01*
X147767918Y-96293920D01*
X147703418Y-96074254D01*
X147608313Y-95866003D01*
X147577628Y-95818256D01*
X147484544Y-95673413D01*
X147484535Y-95673401D01*
X147334623Y-95500394D01*
X147334621Y-95500392D01*
X147334615Y-95500385D01*
X147334605Y-95500376D01*
X147161598Y-95350464D01*
X147161586Y-95350455D01*
X146969006Y-95226692D01*
X146969000Y-95226689D01*
X146968997Y-95226687D01*
X146760746Y-95131582D01*
X146760744Y-95131581D01*
X146760741Y-95131580D01*
X146541077Y-95067081D01*
X146314474Y-95034500D01*
X146314470Y-95034500D01*
X146239361Y-95034500D01*
X144963312Y-95034500D01*
X144905121Y-95015593D01*
X144869157Y-94966093D01*
X144869157Y-94904907D01*
X144905121Y-94855407D01*
X144919832Y-94846559D01*
X144935320Y-94838986D01*
X145006483Y-94804198D01*
X145089198Y-94721483D01*
X145140573Y-94616393D01*
X145150500Y-94548260D01*
X145150500Y-94181740D01*
X145140573Y-94113607D01*
X145089198Y-94008517D01*
X145006483Y-93925802D01*
X144919832Y-93883441D01*
X144875858Y-93840897D01*
X144865288Y-93780632D01*
X144892161Y-93725663D01*
X144946210Y-93696988D01*
X144963312Y-93695500D01*
X146314474Y-93695500D01*
X146443961Y-93676881D01*
X146541080Y-93662918D01*
X146760746Y-93598418D01*
X146968997Y-93503313D01*
X147161594Y-93379539D01*
X147334615Y-93229615D01*
X147484539Y-93056594D01*
X147608313Y-92863997D01*
X147703418Y-92655746D01*
X147767918Y-92436080D01*
X147786752Y-92305090D01*
X147800500Y-92209474D01*
X147800500Y-88503247D01*
X147800924Y-88496779D01*
X147812412Y-88409521D01*
X147819097Y-88384568D01*
X147849040Y-88312279D01*
X147861950Y-88289919D01*
X147909582Y-88227843D01*
X147927843Y-88209582D01*
X147989917Y-88161951D01*
X148012285Y-88149037D01*
X148043894Y-88135944D01*
X148104890Y-88131146D01*
X148112367Y-88133254D01*
X148116870Y-88134717D01*
X148116874Y-88134719D01*
X148153090Y-88140455D01*
X148216510Y-88150500D01*
X148216512Y-88150500D01*
X148783490Y-88150500D01*
X148804885Y-88147111D01*
X148883126Y-88134719D01*
X148929108Y-88111289D01*
X148974053Y-88100500D01*
X149480252Y-88100500D01*
X152400500Y-88100500D01*
X152458691Y-88119407D01*
G37*
%TD.AperFunction*%
%TA.AperFunction,Conductor*%
G36*
X150001476Y-57500589D02*
G01*
X150099080Y-57506493D01*
X150307148Y-57520131D01*
X150312765Y-57520828D01*
X150449219Y-57545834D01*
X150616297Y-57579068D01*
X150621349Y-57580354D01*
X150760621Y-57623752D01*
X150761733Y-57624115D01*
X150915621Y-57676353D01*
X150919989Y-57678073D01*
X151055750Y-57739174D01*
X151057206Y-57739860D01*
X151200325Y-57810439D01*
X151204041Y-57812474D01*
X151332633Y-57890210D01*
X151334511Y-57891405D01*
X151465970Y-57979243D01*
X151468997Y-57981436D01*
X151587843Y-58074544D01*
X151589928Y-58076272D01*
X151708370Y-58180143D01*
X151710735Y-58182358D01*
X151817640Y-58289263D01*
X151819855Y-58291628D01*
X151923721Y-58410064D01*
X151925454Y-58412155D01*
X152018562Y-58531001D01*
X152020755Y-58534028D01*
X152108593Y-58665487D01*
X152109797Y-58667380D01*
X152187524Y-58795957D01*
X152189559Y-58799673D01*
X152234030Y-58889851D01*
X152260115Y-58942745D01*
X152260847Y-58944298D01*
X152321919Y-59079995D01*
X152323654Y-59084401D01*
X152375879Y-59238254D01*
X152376265Y-59239438D01*
X152419640Y-59378633D01*
X152420931Y-59383706D01*
X152454175Y-59550833D01*
X152479165Y-59687197D01*
X152479871Y-59692888D01*
X152493520Y-59901162D01*
X152497432Y-59965819D01*
X152499410Y-59998524D01*
X152499500Y-60001490D01*
X152499500Y-66800500D01*
X152480593Y-66858691D01*
X152431093Y-66894655D01*
X152400500Y-66899500D01*
X148974053Y-66899500D01*
X148929108Y-66888710D01*
X148883126Y-66865281D01*
X148783490Y-66849500D01*
X148783488Y-66849500D01*
X148216512Y-66849500D01*
X148216510Y-66849500D01*
X148116874Y-66865281D01*
X148116872Y-66865281D01*
X148070892Y-66888710D01*
X148025947Y-66899500D01*
X146785526Y-66899500D01*
X146558922Y-66932081D01*
X146339258Y-66996580D01*
X146131001Y-67091688D01*
X146130993Y-67091692D01*
X145938413Y-67215455D01*
X145938401Y-67215464D01*
X145765394Y-67365376D01*
X145765376Y-67365394D01*
X145615464Y-67538401D01*
X145615455Y-67538413D01*
X145491692Y-67730993D01*
X145491688Y-67731001D01*
X145396580Y-67939258D01*
X145332081Y-68158922D01*
X145299500Y-68385525D01*
X145299500Y-88527910D01*
X145280593Y-88586101D01*
X145231093Y-88622065D01*
X145169907Y-88622065D01*
X145120407Y-88586101D01*
X145112291Y-88572856D01*
X145097633Y-88544090D01*
X145073528Y-88496780D01*
X144978220Y-88401472D01*
X144978217Y-88401470D01*
X144858132Y-88340283D01*
X144858127Y-88340281D01*
X144858126Y-88340281D01*
X144824913Y-88335020D01*
X144758490Y-88324500D01*
X144758488Y-88324500D01*
X144290479Y-88324500D01*
X144232288Y-88305593D01*
X144220475Y-88295504D01*
X143829496Y-87904525D01*
X143801719Y-87850008D01*
X143800500Y-87834521D01*
X143800500Y-72565171D01*
X143802731Y-72551494D01*
X143801506Y-72551324D01*
X143802774Y-72542233D01*
X143800553Y-72494203D01*
X143800500Y-72491917D01*
X143800500Y-72472161D01*
X143800500Y-72472156D01*
X143799845Y-72468654D01*
X143799057Y-72461865D01*
X143797585Y-72430009D01*
X143793615Y-72421019D01*
X143786865Y-72399220D01*
X143785061Y-72389567D01*
X143768278Y-72362462D01*
X143765085Y-72356406D01*
X143756090Y-72336031D01*
X143752207Y-72327236D01*
X143745257Y-72320286D01*
X143731088Y-72302396D01*
X143725920Y-72294049D01*
X143725919Y-72294048D01*
X143700483Y-72274839D01*
X143695306Y-72270334D01*
X142758565Y-71333594D01*
X142750479Y-71322344D01*
X142749487Y-71323094D01*
X142743958Y-71315772D01*
X142708428Y-71283382D01*
X142706775Y-71281804D01*
X142692797Y-71267826D01*
X142689859Y-71265813D01*
X142684496Y-71261564D01*
X142660933Y-71240084D01*
X142651762Y-71236531D01*
X142631586Y-71225895D01*
X142623484Y-71220345D01*
X142623479Y-71220343D01*
X142592457Y-71213046D01*
X142585902Y-71211016D01*
X142556177Y-71199501D01*
X142556174Y-71199500D01*
X142556173Y-71199500D01*
X142556172Y-71199500D01*
X142546348Y-71199500D01*
X142523683Y-71196870D01*
X142514119Y-71194621D01*
X142514118Y-71194621D01*
X142482547Y-71199025D01*
X142475701Y-71199500D01*
X136665480Y-71199500D01*
X136607289Y-71180593D01*
X136595476Y-71170504D01*
X135861757Y-70436785D01*
X135833980Y-70382268D01*
X135837606Y-70336191D01*
X135885674Y-70188256D01*
X135905460Y-70000000D01*
X135885674Y-69811744D01*
X135827179Y-69631716D01*
X135827176Y-69631711D01*
X135827174Y-69631706D01*
X135778551Y-69547490D01*
X135732533Y-69467784D01*
X135605871Y-69327112D01*
X135452730Y-69215849D01*
X135452725Y-69215847D01*
X135452722Y-69215845D01*
X135279805Y-69138857D01*
X135279803Y-69138856D01*
X135279800Y-69138855D01*
X135279799Y-69138855D01*
X135244580Y-69131369D01*
X135094646Y-69099500D01*
X134905354Y-69099500D01*
X134787288Y-69124595D01*
X134720200Y-69138855D01*
X134720194Y-69138857D01*
X134547277Y-69215845D01*
X134547268Y-69215850D01*
X134394129Y-69327111D01*
X134394124Y-69327116D01*
X134267469Y-69467781D01*
X134267465Y-69467787D01*
X134172825Y-69631706D01*
X134172819Y-69631720D01*
X134114327Y-69811738D01*
X134094540Y-70000000D01*
X134114327Y-70188261D01*
X134172819Y-70368279D01*
X134172825Y-70368293D01*
X134248015Y-70498525D01*
X134267467Y-70532216D01*
X134394129Y-70672888D01*
X134547270Y-70784151D01*
X134720197Y-70861144D01*
X134905354Y-70900500D01*
X134905357Y-70900500D01*
X135094643Y-70900500D01*
X135094646Y-70900500D01*
X135279803Y-70861144D01*
X135325841Y-70840645D01*
X135386691Y-70834250D01*
X135436112Y-70861083D01*
X136241436Y-71666407D01*
X136249537Y-71677647D01*
X136250516Y-71676909D01*
X136256044Y-71684230D01*
X136291569Y-71716616D01*
X136293223Y-71718195D01*
X136307201Y-71732172D01*
X136307203Y-71732174D01*
X136310128Y-71734178D01*
X136315505Y-71738437D01*
X136339064Y-71759914D01*
X136339065Y-71759914D01*
X136339067Y-71759916D01*
X136348230Y-71763466D01*
X136368416Y-71774105D01*
X136376519Y-71779656D01*
X136407553Y-71786955D01*
X136414090Y-71788979D01*
X136443827Y-71800500D01*
X136453652Y-71800500D01*
X136476316Y-71803129D01*
X136485881Y-71805379D01*
X136510494Y-71801945D01*
X136517453Y-71800975D01*
X136524299Y-71800500D01*
X142334521Y-71800500D01*
X142392712Y-71819407D01*
X142404525Y-71829496D01*
X143170504Y-72595475D01*
X143198281Y-72649992D01*
X143199500Y-72665479D01*
X143199500Y-87934835D01*
X143197280Y-87948513D01*
X143198494Y-87948683D01*
X143197226Y-87957766D01*
X143199447Y-88005783D01*
X143199500Y-88008069D01*
X143199500Y-88027842D01*
X143200152Y-88031332D01*
X143200943Y-88038149D01*
X143202414Y-88069987D01*
X143202415Y-88069994D01*
X143206384Y-88078982D01*
X143213133Y-88100773D01*
X143214939Y-88110433D01*
X143231717Y-88137533D01*
X143234915Y-88143600D01*
X143246090Y-88168907D01*
X143247794Y-88172765D01*
X143254745Y-88179716D01*
X143268907Y-88197596D01*
X143274081Y-88205952D01*
X143299511Y-88225156D01*
X143304690Y-88229662D01*
X143459588Y-88384559D01*
X143820505Y-88745476D01*
X143848281Y-88799991D01*
X143849500Y-88815478D01*
X143849500Y-89187960D01*
X143830593Y-89246151D01*
X143823664Y-89254653D01*
X143815085Y-89264063D01*
X143815083Y-89264067D01*
X143811529Y-89273240D01*
X143800896Y-89293412D01*
X143795346Y-89301515D01*
X143795342Y-89301524D01*
X143788045Y-89332545D01*
X143786016Y-89339098D01*
X143774500Y-89368824D01*
X143774500Y-89378651D01*
X143771870Y-89401318D01*
X143769621Y-89410879D01*
X143774025Y-89442452D01*
X143774500Y-89449298D01*
X143774500Y-89955500D01*
X143755593Y-90013691D01*
X143706093Y-90049655D01*
X143675500Y-90054500D01*
X143316740Y-90054500D01*
X143282673Y-90059463D01*
X143248604Y-90064427D01*
X143143518Y-90115801D01*
X143060801Y-90198518D01*
X143009427Y-90303604D01*
X143009427Y-90303607D01*
X142999500Y-90371740D01*
X142999500Y-90738260D01*
X143006118Y-90783682D01*
X143009427Y-90806395D01*
X143018523Y-90825000D01*
X143060802Y-90911483D01*
X143143517Y-90994198D01*
X143197285Y-91020483D01*
X143248604Y-91045572D01*
X143248605Y-91045572D01*
X143248607Y-91045573D01*
X143316740Y-91055500D01*
X143316743Y-91055500D01*
X143865848Y-91055500D01*
X143924039Y-91074407D01*
X143960003Y-91123907D01*
X143960003Y-91185093D01*
X143924039Y-91234593D01*
X143903733Y-91245964D01*
X143772161Y-91300462D01*
X143772157Y-91300464D01*
X143767494Y-91304043D01*
X143709818Y-91324466D01*
X143707228Y-91324500D01*
X143316740Y-91324500D01*
X143282673Y-91329463D01*
X143248604Y-91334427D01*
X143143518Y-91385801D01*
X143060801Y-91468518D01*
X143009427Y-91573604D01*
X143009427Y-91573607D01*
X142999500Y-91641740D01*
X142999500Y-92008260D01*
X143006118Y-92053681D01*
X143009427Y-92076395D01*
X143025633Y-92109544D01*
X143060802Y-92181483D01*
X143143517Y-92264198D01*
X143181378Y-92282707D01*
X143248604Y-92315572D01*
X143248605Y-92315572D01*
X143248607Y-92315573D01*
X143316740Y-92325500D01*
X143707228Y-92325500D01*
X143765419Y-92344407D01*
X143767494Y-92345957D01*
X143772157Y-92349535D01*
X143772159Y-92349536D01*
X143818028Y-92368536D01*
X143864554Y-92408273D01*
X143878837Y-92467768D01*
X143855422Y-92524296D01*
X143818028Y-92551464D01*
X143772159Y-92570463D01*
X143772157Y-92570464D01*
X143767494Y-92574043D01*
X143709818Y-92594466D01*
X143707228Y-92594500D01*
X143316740Y-92594500D01*
X143282673Y-92599463D01*
X143248604Y-92604427D01*
X143143518Y-92655801D01*
X143060801Y-92738518D01*
X143009427Y-92843604D01*
X143009427Y-92843607D01*
X142999500Y-92911740D01*
X142999500Y-93278260D01*
X143006118Y-93323682D01*
X143009427Y-93346395D01*
X143025633Y-93379544D01*
X143060802Y-93451483D01*
X143143517Y-93534198D01*
X143181378Y-93552707D01*
X143230168Y-93576559D01*
X143274142Y-93619103D01*
X143284712Y-93679368D01*
X143257839Y-93734337D01*
X143203790Y-93763012D01*
X143186688Y-93764500D01*
X142503248Y-93764500D01*
X142496780Y-93764076D01*
X142409522Y-93752588D01*
X142384560Y-93745899D01*
X142312292Y-93715965D01*
X142289913Y-93703045D01*
X142227847Y-93655420D01*
X142209579Y-93637152D01*
X142161952Y-93575083D01*
X142149036Y-93552711D01*
X142119099Y-93480435D01*
X142112412Y-93455481D01*
X142100924Y-93368219D01*
X142100500Y-93361752D01*
X142100500Y-88385525D01*
X142074680Y-88205952D01*
X142067918Y-88158920D01*
X142003418Y-87939254D01*
X141908313Y-87731003D01*
X141908307Y-87730993D01*
X141784544Y-87538413D01*
X141784535Y-87538401D01*
X141634623Y-87365394D01*
X141634621Y-87365392D01*
X141634615Y-87365385D01*
X141634605Y-87365376D01*
X141461598Y-87215464D01*
X141461586Y-87215455D01*
X141269006Y-87091692D01*
X141269000Y-87091689D01*
X141268997Y-87091687D01*
X141060746Y-86996582D01*
X141060744Y-86996581D01*
X141060741Y-86996580D01*
X140841077Y-86932081D01*
X140614474Y-86899500D01*
X140614470Y-86899500D01*
X140539361Y-86899500D01*
X135519748Y-86899500D01*
X132599500Y-86899500D01*
X132541309Y-86880593D01*
X132505345Y-86831093D01*
X132500500Y-86800500D01*
X132500500Y-60001489D01*
X132500589Y-59998524D01*
X132506485Y-59901053D01*
X132520131Y-59692847D01*
X132520827Y-59687239D01*
X132545839Y-59550752D01*
X132579070Y-59383693D01*
X132580351Y-59378659D01*
X132623767Y-59239332D01*
X132624099Y-59238314D01*
X132676358Y-59084364D01*
X132678067Y-59080024D01*
X132739195Y-58944203D01*
X132739839Y-58942836D01*
X132810449Y-58799654D01*
X132812462Y-58795978D01*
X132890235Y-58667325D01*
X132891386Y-58665516D01*
X132979259Y-58534004D01*
X132981436Y-58531001D01*
X132993875Y-58515122D01*
X133074571Y-58412122D01*
X133076242Y-58410106D01*
X133180174Y-58291594D01*
X133182343Y-58289278D01*
X133289278Y-58182343D01*
X133291594Y-58180174D01*
X133410106Y-58076242D01*
X133412122Y-58074571D01*
X133531001Y-57981436D01*
X133534004Y-57979259D01*
X133665516Y-57891386D01*
X133667325Y-57890235D01*
X133795978Y-57812462D01*
X133799654Y-57810449D01*
X133942836Y-57739839D01*
X133944203Y-57739195D01*
X134080024Y-57678067D01*
X134084364Y-57676358D01*
X134238314Y-57624099D01*
X134239332Y-57623767D01*
X134378659Y-57580351D01*
X134383693Y-57579070D01*
X134550752Y-57545839D01*
X134687239Y-57520827D01*
X134692847Y-57520131D01*
X134901019Y-57506487D01*
X134998523Y-57500589D01*
X135001490Y-57500500D01*
X149998510Y-57500500D01*
X150001476Y-57500589D01*
G37*
%TD.AperFunction*%
%TA.AperFunction,Conductor*%
G36*
X148070891Y-68111289D02*
G01*
X148116874Y-68134719D01*
X148189263Y-68146184D01*
X148216510Y-68150500D01*
X148216512Y-68150500D01*
X148783490Y-68150500D01*
X148804885Y-68147111D01*
X148883126Y-68134719D01*
X148929108Y-68111289D01*
X148974053Y-68100500D01*
X149480252Y-68100500D01*
X152400500Y-68100500D01*
X152458691Y-68119407D01*
X152494655Y-68168907D01*
X152499500Y-68199500D01*
X152499500Y-86800500D01*
X152480593Y-86858691D01*
X152431093Y-86894655D01*
X152400500Y-86899500D01*
X148974053Y-86899500D01*
X148929108Y-86888710D01*
X148913177Y-86880593D01*
X148883126Y-86865281D01*
X148883125Y-86865280D01*
X148783490Y-86849500D01*
X148783488Y-86849500D01*
X148216512Y-86849500D01*
X148216510Y-86849500D01*
X148116872Y-86865281D01*
X148116870Y-86865282D01*
X148050251Y-86899225D01*
X148019398Y-86909007D01*
X147858922Y-86932081D01*
X147639258Y-86996580D01*
X147431001Y-87091688D01*
X147430993Y-87091692D01*
X147238413Y-87215455D01*
X147238401Y-87215464D01*
X147065394Y-87365376D01*
X147065376Y-87365394D01*
X146915464Y-87538401D01*
X146915455Y-87538413D01*
X146791692Y-87730993D01*
X146791688Y-87731001D01*
X146696578Y-87939262D01*
X146696578Y-87939263D01*
X146694489Y-87946379D01*
X146659953Y-87996886D01*
X146602325Y-88017446D01*
X146543619Y-88000207D01*
X146506257Y-87951753D01*
X146500500Y-87918486D01*
X146500500Y-68503247D01*
X146500924Y-68496780D01*
X146505682Y-68460639D01*
X146512412Y-68409516D01*
X146519098Y-68384566D01*
X146549037Y-68312285D01*
X146561950Y-68289919D01*
X146609582Y-68227843D01*
X146627843Y-68209582D01*
X146689919Y-68161950D01*
X146712285Y-68149037D01*
X146784566Y-68119098D01*
X146809518Y-68112412D01*
X146878281Y-68103359D01*
X146896781Y-68100924D01*
X146903248Y-68100500D01*
X146972914Y-68100500D01*
X148025947Y-68100500D01*
X148070891Y-68111289D01*
G37*
%TD.AperFunction*%
%TD*%
M02*
