%TF.GenerationSoftware,KiCad,Pcbnew,6.0.9+dfsg-1~bpo11+1*%
%TF.CreationDate,2022-12-01T10:00:23+01:00*%
%TF.ProjectId,019-tayloe-quadrature-product-detector,3031392d-7461-4796-9c6f-652d71756164,1*%
%TF.SameCoordinates,Original*%
%TF.FileFunction,Legend,Top*%
%TF.FilePolarity,Positive*%
%FSLAX46Y46*%
G04 Gerber Fmt 4.6, Leading zero omitted, Abs format (unit mm)*
G04 Created by KiCad (PCBNEW 6.0.9+dfsg-1~bpo11+1) date 2022-12-01 10:00:23*
%MOMM*%
%LPD*%
G01*
G04 APERTURE LIST*
%ADD10C,0.150000*%
%ADD11C,0.120000*%
G04 APERTURE END LIST*
D10*
X160750000Y-35000000D02*
X164250000Y-35000000D01*
X164250000Y-35000000D02*
X164250000Y-37000000D01*
X164250000Y-37000000D02*
X160750000Y-37000000D01*
X160750000Y-37000000D02*
X160750000Y-35000000D01*
X161500000Y-35452380D02*
X161595238Y-35452380D01*
X161690476Y-35500000D01*
X161738095Y-35547619D01*
X161785714Y-35642857D01*
X161833333Y-35833333D01*
X161833333Y-36071428D01*
X161785714Y-36261904D01*
X161738095Y-36357142D01*
X161690476Y-36404761D01*
X161595238Y-36452380D01*
X161500000Y-36452380D01*
X161404761Y-36404761D01*
X161357142Y-36357142D01*
X161309523Y-36261904D01*
X161261904Y-36071428D01*
X161261904Y-35833333D01*
X161309523Y-35642857D01*
X161357142Y-35547619D01*
X161404761Y-35500000D01*
X161500000Y-35452380D01*
X162785714Y-36452380D02*
X162214285Y-36452380D01*
X162500000Y-36452380D02*
X162500000Y-35452380D01*
X162404761Y-35595238D01*
X162309523Y-35690476D01*
X162214285Y-35738095D01*
X163261904Y-36452380D02*
X163452380Y-36452380D01*
X163547619Y-36404761D01*
X163595238Y-36357142D01*
X163690476Y-36214285D01*
X163738095Y-36023809D01*
X163738095Y-35642857D01*
X163690476Y-35547619D01*
X163642857Y-35500000D01*
X163547619Y-35452380D01*
X163357142Y-35452380D01*
X163261904Y-35500000D01*
X163214285Y-35547619D01*
X163166666Y-35642857D01*
X163166666Y-35880952D01*
X163214285Y-35976190D01*
X163261904Y-36023809D01*
X163357142Y-36071428D01*
X163547619Y-36071428D01*
X163642857Y-36023809D01*
X163690476Y-35976190D01*
X163738095Y-35880952D01*
D11*
%TO.C,U2*%
X159000000Y-57440000D02*
X155550000Y-57440000D01*
X159000000Y-57440000D02*
X160950000Y-57440000D01*
X159000000Y-67560000D02*
X157050000Y-67560000D01*
X159000000Y-67560000D02*
X160950000Y-67560000D01*
%TO.C,C7*%
X166510000Y-84365580D02*
X166510000Y-84084420D01*
X165490000Y-84365580D02*
X165490000Y-84084420D01*
%TO.C,C6*%
X166510000Y-39365580D02*
X166510000Y-39084420D01*
X165490000Y-39365580D02*
X165490000Y-39084420D01*
%TO.C,C5*%
X166510000Y-54365580D02*
X166510000Y-54084420D01*
X165490000Y-54365580D02*
X165490000Y-54084420D01*
%TO.C,C4*%
X166510000Y-69365580D02*
X166510000Y-69084420D01*
X165490000Y-69365580D02*
X165490000Y-69084420D01*
%TO.C,C3*%
X153865580Y-65190000D02*
X153584420Y-65190000D01*
X153865580Y-66210000D02*
X153584420Y-66210000D01*
%TO.C,C2*%
X161365580Y-55990000D02*
X161084420Y-55990000D01*
X161365580Y-57010000D02*
X161084420Y-57010000D01*
%TO.C,R3*%
X158944542Y-89622500D02*
X159419058Y-89622500D01*
X158944542Y-88577500D02*
X159419058Y-88577500D01*
%TO.C,U1*%
X157257600Y-83693000D02*
X157257600Y-81493000D01*
X162477600Y-83693000D02*
X162477600Y-80093000D01*
X157257600Y-83693000D02*
X157257600Y-85893000D01*
X162477600Y-83693000D02*
X162477600Y-85893000D01*
%TO.C,C1*%
X162459420Y-87890000D02*
X162740580Y-87890000D01*
X162459420Y-88910000D02*
X162740580Y-88910000D01*
%TO.C,G\u002A\u002A\u002A*%
G36*
X159207208Y-35114917D02*
G01*
X159221780Y-35122643D01*
X159227638Y-35138791D01*
X159224986Y-35166038D01*
X159214028Y-35207062D01*
X159195246Y-35263741D01*
X159178860Y-35310446D01*
X159164665Y-35349625D01*
X159154112Y-35377364D01*
X159148650Y-35389745D01*
X159148486Y-35389946D01*
X159154138Y-35397178D01*
X159173545Y-35411565D01*
X159202518Y-35430004D01*
X159202794Y-35430170D01*
X159265684Y-35473854D01*
X159313512Y-35519631D01*
X159345324Y-35565750D01*
X159360162Y-35610459D01*
X159357070Y-35652007D01*
X159340520Y-35682445D01*
X159320991Y-35706562D01*
X159377555Y-35740636D01*
X159417737Y-35766699D01*
X159459250Y-35796467D01*
X159480607Y-35813250D01*
X159506661Y-35835927D01*
X159519745Y-35852611D01*
X159523211Y-35869984D01*
X159520661Y-35893124D01*
X159515636Y-35932872D01*
X159512184Y-35973169D01*
X159512056Y-35975472D01*
X159506709Y-36006817D01*
X159492958Y-36024471D01*
X159487295Y-36027764D01*
X159464024Y-36044266D01*
X159444294Y-36064253D01*
X159434232Y-36075038D01*
X159421977Y-36082474D01*
X159403462Y-36087419D01*
X159374622Y-36090732D01*
X159331391Y-36093272D01*
X159300502Y-36094630D01*
X159240844Y-36098231D01*
X159195936Y-36103279D01*
X159168140Y-36109464D01*
X159161407Y-36112879D01*
X159149381Y-36131376D01*
X159140328Y-36159745D01*
X159139450Y-36164547D01*
X159132091Y-36190629D01*
X159117507Y-36228695D01*
X159098200Y-36272492D01*
X159086787Y-36296135D01*
X159069617Y-36331648D01*
X159056241Y-36363117D01*
X159045437Y-36394981D01*
X159035983Y-36431679D01*
X159026657Y-36477652D01*
X159016238Y-36537340D01*
X159010003Y-36575142D01*
X158998611Y-36650475D01*
X158987513Y-36733726D01*
X158977703Y-36816757D01*
X158970177Y-36891427D01*
X158967711Y-36921318D01*
X158953479Y-37070850D01*
X158934101Y-37203435D01*
X158909013Y-37322278D01*
X158878053Y-37429366D01*
X158849141Y-37507130D01*
X158816299Y-37574946D01*
X158776020Y-37638510D01*
X158724798Y-37703520D01*
X158675643Y-37758199D01*
X158577329Y-37875280D01*
X158493806Y-38001629D01*
X158431364Y-38121186D01*
X158403186Y-38177903D01*
X158377811Y-38220375D01*
X158351675Y-38254018D01*
X158328482Y-38277604D01*
X158300811Y-38302117D01*
X158278251Y-38319713D01*
X158265568Y-38326682D01*
X158265395Y-38326688D01*
X158253451Y-38333218D01*
X158241919Y-38353767D01*
X158230392Y-38389773D01*
X158218459Y-38442674D01*
X158205712Y-38513910D01*
X158197702Y-38564739D01*
X158182935Y-38657753D01*
X158168702Y-38736626D01*
X158153537Y-38807789D01*
X158135974Y-38877671D01*
X158114550Y-38952702D01*
X158094147Y-39019151D01*
X158073662Y-39088767D01*
X158059937Y-39148459D01*
X158052673Y-39203792D01*
X158051572Y-39260332D01*
X158056334Y-39323643D01*
X158066662Y-39399292D01*
X158071976Y-39432384D01*
X158081863Y-39493891D01*
X158091097Y-39554175D01*
X158098842Y-39607582D01*
X158104263Y-39648460D01*
X158105561Y-39659723D01*
X158112893Y-39704728D01*
X158126368Y-39741894D01*
X158150004Y-39781963D01*
X158152923Y-39786310D01*
X158193121Y-39845728D01*
X157891035Y-39845728D01*
X157898018Y-39812144D01*
X157906666Y-39782384D01*
X157917092Y-39759536D01*
X157921952Y-39745992D01*
X157919574Y-39727580D01*
X157908787Y-39699446D01*
X157896054Y-39672292D01*
X157876050Y-39626603D01*
X157859018Y-39576762D01*
X157843853Y-39518573D01*
X157829451Y-39447840D01*
X157815851Y-39367612D01*
X157805774Y-39315487D01*
X157790904Y-39252618D01*
X157773420Y-39187715D01*
X157759042Y-39140272D01*
X157739373Y-39077432D01*
X157724185Y-39023154D01*
X157712556Y-38972312D01*
X157703565Y-38919774D01*
X157696290Y-38860411D01*
X157689810Y-38789094D01*
X157685282Y-38729699D01*
X157680007Y-38626544D01*
X157679205Y-38527802D01*
X157682780Y-38438429D01*
X157690634Y-38363381D01*
X157692649Y-38350881D01*
X157698285Y-38318238D01*
X157513062Y-38323960D01*
X157392262Y-38325480D01*
X157287165Y-38321724D01*
X157193384Y-38312274D01*
X157106532Y-38296713D01*
X157035335Y-38278501D01*
X156928868Y-38239636D01*
X156839540Y-38189590D01*
X156766909Y-38128052D01*
X156710536Y-38054711D01*
X156704435Y-38044391D01*
X156675907Y-37994600D01*
X156668639Y-38023556D01*
X156648777Y-38080742D01*
X156618034Y-38143838D01*
X156580847Y-38204875D01*
X156541648Y-38255885D01*
X156535826Y-38262224D01*
X156501823Y-38299253D01*
X156479015Y-38328535D01*
X156463853Y-38356807D01*
X156452786Y-38390804D01*
X156442267Y-38437262D01*
X156441407Y-38441406D01*
X156422253Y-38514043D01*
X156395078Y-38580397D01*
X156357410Y-38644725D01*
X156306775Y-38711286D01*
X156244562Y-38780306D01*
X156200655Y-38827086D01*
X156169096Y-38863066D01*
X156147302Y-38891736D01*
X156132691Y-38916586D01*
X156122679Y-38941105D01*
X156120484Y-38947943D01*
X156106617Y-39010336D01*
X156098490Y-39083767D01*
X156096652Y-39159269D01*
X156101650Y-39227875D01*
X156102867Y-39236045D01*
X156121849Y-39352191D01*
X156138653Y-39449249D01*
X156153608Y-39528646D01*
X156167045Y-39591809D01*
X156179292Y-39640166D01*
X156190680Y-39675143D01*
X156201537Y-39698166D01*
X156212194Y-39710664D01*
X156212536Y-39710907D01*
X156243036Y-39736176D01*
X156270562Y-39765811D01*
X156289476Y-39793348D01*
X156293891Y-39804120D01*
X156295244Y-39813632D01*
X156290936Y-39819721D01*
X156277416Y-39823146D01*
X156251136Y-39824671D01*
X156208547Y-39825054D01*
X156196219Y-39825061D01*
X156093072Y-39825061D01*
X156095449Y-39796643D01*
X156093369Y-39778430D01*
X156082341Y-39757689D01*
X156059769Y-39730433D01*
X156036582Y-39706224D01*
X155993768Y-39657147D01*
X155954802Y-39599598D01*
X155918211Y-39530726D01*
X155882517Y-39447679D01*
X155846246Y-39347608D01*
X155837706Y-39322003D01*
X155802894Y-39210358D01*
X155777616Y-39113609D01*
X155761922Y-39028285D01*
X155755862Y-38950921D01*
X155759487Y-38878048D01*
X155772846Y-38806198D01*
X155795988Y-38731903D01*
X155828964Y-38651696D01*
X155847925Y-38610862D01*
X155863244Y-38577573D01*
X155873181Y-38550567D01*
X155878868Y-38523669D01*
X155881433Y-38490701D01*
X155882007Y-38445488D01*
X155881942Y-38424857D01*
X155874037Y-38313717D01*
X155851457Y-38189349D01*
X155814436Y-38052839D01*
X155779648Y-37949512D01*
X155761521Y-37895325D01*
X155744501Y-37837402D01*
X155731243Y-37785050D01*
X155727106Y-37765233D01*
X155714411Y-37708368D01*
X155700643Y-37665227D01*
X155686695Y-37637191D01*
X155673461Y-37625643D01*
X155661834Y-37631965D01*
X155653974Y-37652044D01*
X155649203Y-37668673D01*
X155644810Y-37670196D01*
X155637896Y-37654900D01*
X155632125Y-37639127D01*
X155621228Y-37590843D01*
X155617240Y-37530839D01*
X155619967Y-37466803D01*
X155629216Y-37406422D01*
X155638838Y-37372197D01*
X155686099Y-37269316D01*
X155751074Y-37175424D01*
X155832531Y-37091243D01*
X155929242Y-37017494D01*
X156039977Y-36954898D01*
X156163509Y-36904178D01*
X156298607Y-36866054D01*
X156444042Y-36841248D01*
X156559642Y-36831795D01*
X156647425Y-36829758D01*
X156731499Y-36832317D01*
X156816776Y-36840018D01*
X156908169Y-36853405D01*
X157010590Y-36873023D01*
X157091711Y-36890808D01*
X157187807Y-36912345D01*
X157267579Y-36929200D01*
X157334708Y-36941879D01*
X157392875Y-36950889D01*
X157445762Y-36956737D01*
X157497049Y-36959929D01*
X157550417Y-36960973D01*
X157598629Y-36960575D01*
X157654738Y-36959915D01*
X157699013Y-36960589D01*
X157737320Y-36963316D01*
X157775528Y-36968818D01*
X157819505Y-36977819D01*
X157875120Y-36991038D01*
X157903604Y-36998082D01*
X157975622Y-37015214D01*
X158031279Y-37026183D01*
X158073946Y-37030976D01*
X158106992Y-37029581D01*
X158133788Y-37021987D01*
X158157703Y-37008180D01*
X158171833Y-36997109D01*
X158192889Y-36976673D01*
X158210733Y-36952129D01*
X158226651Y-36920341D01*
X158241925Y-36878173D01*
X158257840Y-36822489D01*
X158275680Y-36750153D01*
X158279346Y-36734469D01*
X158296905Y-36662770D01*
X158318065Y-36582312D01*
X158340306Y-36502374D01*
X158361109Y-36432234D01*
X158363452Y-36424717D01*
X158378978Y-36374113D01*
X158391303Y-36330295D01*
X158401226Y-36288944D01*
X158409547Y-36245741D01*
X158417065Y-36196365D01*
X158424579Y-36136498D01*
X158432889Y-36061819D01*
X158436002Y-36032628D01*
X158447098Y-35930493D01*
X158456972Y-35846407D01*
X158466097Y-35777821D01*
X158474945Y-35722188D01*
X158483991Y-35676957D01*
X158493707Y-35639582D01*
X158504567Y-35607513D01*
X158517044Y-35578202D01*
X158522488Y-35566892D01*
X158543227Y-35527695D01*
X158564341Y-35495534D01*
X158589403Y-35466760D01*
X158621983Y-35437721D01*
X158665654Y-35404766D01*
X158714198Y-35370923D01*
X158763880Y-35334968D01*
X158815539Y-35294307D01*
X158861923Y-35254795D01*
X158886890Y-35231435D01*
X158918275Y-35202043D01*
X158945322Y-35179904D01*
X158964140Y-35168049D01*
X158969559Y-35167005D01*
X158983132Y-35181623D01*
X158984744Y-35211606D01*
X158974416Y-35255478D01*
X158968097Y-35273543D01*
X158956615Y-35305332D01*
X158948850Y-35328941D01*
X158946704Y-35337728D01*
X158953034Y-35335813D01*
X158969982Y-35321540D01*
X158994485Y-35298042D01*
X159023480Y-35268450D01*
X159053903Y-35235896D01*
X159082693Y-35203515D01*
X159106785Y-35174437D01*
X159108411Y-35172355D01*
X159135607Y-35139612D01*
X159156294Y-35121160D01*
X159174724Y-35113645D01*
X159183716Y-35112937D01*
X159207208Y-35114917D01*
G37*
%TD*%
M02*
