%TF.GenerationSoftware,KiCad,Pcbnew,6.0.9+dfsg-1~bpo11+1*%
%TF.CreationDate,2022-12-01T10:00:23+01:00*%
%TF.ProjectId,019-tayloe-quadrature-product-detector,3031392d-7461-4796-9c6f-652d71756164,1*%
%TF.SameCoordinates,Original*%
%TF.FileFunction,Soldermask,Top*%
%TF.FilePolarity,Negative*%
%FSLAX46Y46*%
G04 Gerber Fmt 4.6, Leading zero omitted, Abs format (unit mm)*
G04 Created by KiCad (PCBNEW 6.0.9+dfsg-1~bpo11+1) date 2022-12-01 10:00:23*
%MOMM*%
%LPD*%
G01*
G04 APERTURE LIST*
G04 Aperture macros list*
%AMRoundRect*
0 Rectangle with rounded corners*
0 $1 Rounding radius*
0 $2 $3 $4 $5 $6 $7 $8 $9 X,Y pos of 4 corners*
0 Add a 4 corners polygon primitive as box body*
4,1,4,$2,$3,$4,$5,$6,$7,$8,$9,$2,$3,0*
0 Add four circle primitives for the rounded corners*
1,1,$1+$1,$2,$3*
1,1,$1+$1,$4,$5*
1,1,$1+$1,$6,$7*
1,1,$1+$1,$8,$9*
0 Add four rect primitives between the rounded corners*
20,1,$1+$1,$2,$3,$4,$5,0*
20,1,$1+$1,$4,$5,$6,$7,0*
20,1,$1+$1,$6,$7,$8,$9,0*
20,1,$1+$1,$8,$9,$2,$3,0*%
G04 Aperture macros list end*
%ADD10C,1.500000*%
%ADD11C,3.400000*%
%ADD12RoundRect,0.150000X-0.725000X-0.150000X0.725000X-0.150000X0.725000X0.150000X-0.725000X0.150000X0*%
%ADD13C,1.400000*%
%ADD14RoundRect,0.225000X0.250000X-0.225000X0.250000X0.225000X-0.250000X0.225000X-0.250000X-0.225000X0*%
%ADD15RoundRect,0.225000X0.225000X0.250000X-0.225000X0.250000X-0.225000X-0.250000X0.225000X-0.250000X0*%
%ADD16RoundRect,0.200000X-0.200000X-0.275000X0.200000X-0.275000X0.200000X0.275000X-0.200000X0.275000X0*%
%ADD17RoundRect,0.100000X-0.100000X0.637500X-0.100000X-0.637500X0.100000X-0.637500X0.100000X0.637500X0*%
%ADD18RoundRect,0.225000X-0.225000X-0.250000X0.225000X-0.250000X0.225000X0.250000X-0.225000X0.250000X0*%
G04 APERTURE END LIST*
D10*
X160000000Y-94200000D02*
X160000000Y-89100000D01*
X160000000Y-61910155D02*
X161200000Y-61910155D01*
X159000000Y-56100000D02*
X159000000Y-60700000D01*
X158999999Y-60810155D02*
G75*
G03*
X160000000Y-61910155I941372J-148753D01*
G01*
X159000000Y-56100000D02*
G75*
G03*
X158000000Y-55000000I-941371J148754D01*
G01*
X151700000Y-55000000D02*
X158000000Y-55000000D01*
X162300000Y-59300000D02*
G75*
G03*
X163400000Y-58300000I148754J941371D01*
G01*
X163400000Y-41000000D02*
X163400000Y-58300000D01*
X164500000Y-40000000D02*
G75*
G03*
X163400000Y-41000000I-148754J-941371D01*
G01*
X164500000Y-40000000D02*
X168900000Y-40000000D01*
X164400000Y-85000000D02*
X168600000Y-85000000D01*
X165700000Y-70000000D02*
X168600000Y-70000000D01*
X163400000Y-83900000D02*
G75*
G03*
X164400000Y-85000000I941371J-148754D01*
G01*
X163400000Y-65500000D02*
X163400000Y-83900000D01*
X163400000Y-65500000D02*
G75*
G03*
X162400000Y-64400000I-941371J148754D01*
G01*
X164700000Y-68900000D02*
G75*
G03*
X165700000Y-70000000I941371J-148754D01*
G01*
X164700000Y-64300000D02*
X164700000Y-69100000D01*
X164700000Y-64200000D02*
G75*
G03*
X163700000Y-63100000I-941371J148754D01*
G01*
X162400000Y-63100000D02*
X163600000Y-63100000D01*
X162300000Y-60600000D02*
X163600000Y-60600000D01*
X163600000Y-60600000D02*
G75*
G03*
X164700000Y-59600000I148754J941371D01*
G01*
X164700000Y-56000000D02*
X164700000Y-59600000D01*
X165800000Y-55000000D02*
X168400000Y-55000000D01*
X165800000Y-55000000D02*
G75*
G03*
X164700000Y-56000000I-148754J-941371D01*
G01*
%TO.C,J6*%
G36*
X153000000Y-58000000D02*
G01*
X150000000Y-58000000D01*
X150000000Y-52000000D01*
X153000000Y-52000000D01*
X153000000Y-58000000D01*
G37*
%TO.C,J5*%
G36*
X170000000Y-58000000D02*
G01*
X167000000Y-58000000D01*
X167000000Y-52000000D01*
X170000000Y-52000000D01*
X170000000Y-58000000D01*
G37*
%TO.C,J4*%
G36*
X170000000Y-43000000D02*
G01*
X167000000Y-43000000D01*
X167000000Y-37000000D01*
X170000000Y-37000000D01*
X170000000Y-43000000D01*
G37*
%TO.C,J3*%
G36*
X170000000Y-73000000D02*
G01*
X167000000Y-73000000D01*
X167000000Y-67000000D01*
X170000000Y-67000000D01*
X170000000Y-73000000D01*
G37*
%TO.C,J2*%
G36*
X170000000Y-88000000D02*
G01*
X167000000Y-88000000D01*
X167000000Y-82000000D01*
X170000000Y-82000000D01*
X170000000Y-88000000D01*
G37*
%TO.C,J1*%
G36*
X163000000Y-95000000D02*
G01*
X157000000Y-95000000D01*
X157000000Y-92000000D01*
X163000000Y-92000000D01*
X163000000Y-95000000D01*
G37*
%TD*%
D11*
%TO.C,H10*%
X167500000Y-32500000D03*
%TD*%
%TO.C,H9*%
X152500000Y-32500000D03*
%TD*%
%TO.C,H8*%
X167500000Y-47500000D03*
%TD*%
%TO.C,H7*%
X152500000Y-47500000D03*
%TD*%
%TO.C,H6*%
X152500000Y-62500000D03*
%TD*%
%TO.C,H5*%
X167500000Y-62500000D03*
%TD*%
D12*
%TO.C,U2*%
X156425000Y-58055000D03*
X156425000Y-59325000D03*
X156425000Y-60595000D03*
X156425000Y-61865000D03*
X156425000Y-63135000D03*
X156425000Y-64405000D03*
X156425000Y-65675000D03*
X156425000Y-66945000D03*
X161575000Y-66945000D03*
X161575000Y-65675000D03*
X161575000Y-64405000D03*
X161575000Y-63135000D03*
X161575000Y-61865000D03*
X161575000Y-60595000D03*
X161575000Y-59325000D03*
X161575000Y-58055000D03*
%TD*%
D13*
%TO.C,J9*%
X152500000Y-67500000D03*
%TD*%
%TO.C,J8*%
X152500000Y-42500000D03*
%TD*%
%TO.C,J7*%
X152500000Y-72500000D03*
%TD*%
D14*
%TO.C,C7*%
X166000000Y-85000000D03*
X166000000Y-83450000D03*
%TD*%
%TO.C,C6*%
X166000000Y-40000000D03*
X166000000Y-38450000D03*
%TD*%
%TO.C,C5*%
X166000000Y-55000000D03*
X166000000Y-53450000D03*
%TD*%
%TO.C,C4*%
X166000000Y-70000000D03*
X166000000Y-68450000D03*
%TD*%
D15*
%TO.C,C3*%
X154500000Y-65700000D03*
X152950000Y-65700000D03*
%TD*%
%TO.C,C2*%
X162000000Y-56500000D03*
X160450000Y-56500000D03*
%TD*%
D16*
%TO.C,R3*%
X158356800Y-89100000D03*
X160006800Y-89100000D03*
%TD*%
D11*
%TO.C,H1*%
X152500000Y-77500000D03*
%TD*%
%TO.C,H2*%
X152500000Y-92500000D03*
%TD*%
%TO.C,H4*%
X167500000Y-77500000D03*
%TD*%
D17*
%TO.C,U1*%
X161817600Y-80830500D03*
X161167600Y-80830500D03*
X160517600Y-80830500D03*
X159867600Y-80830500D03*
X159217600Y-80830500D03*
X158567600Y-80830500D03*
X157917600Y-80830500D03*
X157917600Y-86555500D03*
X158567600Y-86555500D03*
X159217600Y-86555500D03*
X159867600Y-86555500D03*
X160517600Y-86555500D03*
X161167600Y-86555500D03*
X161817600Y-86555500D03*
%TD*%
D18*
%TO.C,C1*%
X161825000Y-88400000D03*
X163375000Y-88400000D03*
%TD*%
D11*
%TO.C,H3*%
X167500000Y-92500000D03*
%TD*%
G36*
X152615121Y-92266002D02*
G01*
X152661614Y-92319658D01*
X152673000Y-92372000D01*
X152673000Y-92481885D01*
X152677475Y-92497124D01*
X152678865Y-92498329D01*
X152686548Y-92500000D01*
X167481885Y-92500000D01*
X167497124Y-92495525D01*
X167498329Y-92494135D01*
X167500000Y-92486452D01*
X167500000Y-92372000D01*
X167520002Y-92303879D01*
X167573658Y-92257386D01*
X167626000Y-92246000D01*
X169874000Y-92246000D01*
X169942121Y-92266002D01*
X169988614Y-92319658D01*
X170000000Y-92372000D01*
X170000000Y-92495878D01*
X169999730Y-92504119D01*
X169979152Y-92818073D01*
X169977001Y-92834413D01*
X169916426Y-93138950D01*
X169912160Y-93154871D01*
X169812354Y-93448888D01*
X169806047Y-93464114D01*
X169668717Y-93742592D01*
X169660476Y-93756866D01*
X169487973Y-94015034D01*
X169477940Y-94028109D01*
X169273212Y-94261557D01*
X169261557Y-94273212D01*
X169028109Y-94477940D01*
X169015034Y-94487973D01*
X168756866Y-94660476D01*
X168742592Y-94668717D01*
X168464114Y-94806047D01*
X168448888Y-94812354D01*
X168154871Y-94912160D01*
X168138950Y-94916426D01*
X167834413Y-94977001D01*
X167818073Y-94979152D01*
X167504119Y-94999730D01*
X167495878Y-95000000D01*
X152504122Y-95000000D01*
X152495881Y-94999730D01*
X152181927Y-94979152D01*
X152165587Y-94977001D01*
X151861050Y-94916426D01*
X151845129Y-94912160D01*
X151551112Y-94812354D01*
X151535886Y-94806047D01*
X151257408Y-94668717D01*
X151243134Y-94660476D01*
X150984966Y-94487973D01*
X150971891Y-94477940D01*
X150738443Y-94273212D01*
X150726788Y-94261557D01*
X150522060Y-94028109D01*
X150512027Y-94015034D01*
X150339524Y-93756866D01*
X150331283Y-93742592D01*
X150193953Y-93464114D01*
X150187646Y-93448888D01*
X150087840Y-93154871D01*
X150083574Y-93138950D01*
X150022999Y-92834413D01*
X150020848Y-92818073D01*
X150000270Y-92504119D01*
X150000000Y-92495878D01*
X150000000Y-92372000D01*
X150020002Y-92303879D01*
X150073658Y-92257386D01*
X150126000Y-92246000D01*
X152547000Y-92246000D01*
X152615121Y-92266002D01*
G37*
G36*
X167504119Y-30000270D02*
G01*
X167818073Y-30020848D01*
X167834413Y-30022999D01*
X168138950Y-30083574D01*
X168154871Y-30087840D01*
X168448888Y-30187646D01*
X168464114Y-30193953D01*
X168742592Y-30331283D01*
X168756866Y-30339524D01*
X169015034Y-30512027D01*
X169028109Y-30522060D01*
X169261557Y-30726788D01*
X169273212Y-30738443D01*
X169477940Y-30971891D01*
X169487973Y-30984966D01*
X169660476Y-31243134D01*
X169668717Y-31257408D01*
X169806047Y-31535886D01*
X169812354Y-31551112D01*
X169912160Y-31845129D01*
X169916426Y-31861050D01*
X169977001Y-32165587D01*
X169979152Y-32181927D01*
X169999730Y-32495881D01*
X170000000Y-32504122D01*
X170000000Y-32628000D01*
X169979998Y-32696121D01*
X169926342Y-32742614D01*
X169874000Y-32754000D01*
X167626000Y-32754000D01*
X167557879Y-32733998D01*
X167511386Y-32680342D01*
X167500000Y-32628000D01*
X167500000Y-32518115D01*
X167495525Y-32502876D01*
X167494135Y-32501671D01*
X167486452Y-32500000D01*
X152691115Y-32500000D01*
X152675876Y-32504475D01*
X152674671Y-32505865D01*
X152673000Y-32513548D01*
X152673000Y-32628000D01*
X152652998Y-32696121D01*
X152599342Y-32742614D01*
X152547000Y-32754000D01*
X150126000Y-32754000D01*
X150057879Y-32733998D01*
X150011386Y-32680342D01*
X150000000Y-32628000D01*
X150000000Y-32504122D01*
X150000270Y-32495881D01*
X150020848Y-32181927D01*
X150022999Y-32165587D01*
X150083574Y-31861050D01*
X150087840Y-31845129D01*
X150187646Y-31551112D01*
X150193953Y-31535886D01*
X150331283Y-31257408D01*
X150339524Y-31243134D01*
X150512027Y-30984966D01*
X150522060Y-30971891D01*
X150726788Y-30738443D01*
X150738443Y-30726788D01*
X150971891Y-30522060D01*
X150984966Y-30512027D01*
X151243134Y-30339524D01*
X151257408Y-30331283D01*
X151535886Y-30193953D01*
X151551112Y-30187646D01*
X151845129Y-30087840D01*
X151861050Y-30083574D01*
X152165587Y-30022999D01*
X152181927Y-30020848D01*
X152495881Y-30000270D01*
X152504122Y-30000000D01*
X167495878Y-30000000D01*
X167504119Y-30000270D01*
G37*
G36*
X167504119Y-30000270D02*
G01*
X167818073Y-30020848D01*
X167834413Y-30022999D01*
X168138950Y-30083574D01*
X168154871Y-30087840D01*
X168448888Y-30187646D01*
X168464114Y-30193953D01*
X168742592Y-30331283D01*
X168756866Y-30339524D01*
X169015034Y-30512027D01*
X169028109Y-30522060D01*
X169261557Y-30726788D01*
X169273212Y-30738443D01*
X169477940Y-30971891D01*
X169487973Y-30984966D01*
X169660476Y-31243134D01*
X169668717Y-31257408D01*
X169806047Y-31535886D01*
X169812354Y-31551112D01*
X169912160Y-31845129D01*
X169916426Y-31861050D01*
X169977001Y-32165587D01*
X169979152Y-32181927D01*
X169999730Y-32495881D01*
X170000000Y-32504122D01*
X170000000Y-92495878D01*
X169999730Y-92504119D01*
X169979152Y-92818073D01*
X169977001Y-92834413D01*
X169916426Y-93138950D01*
X169912160Y-93154871D01*
X169812354Y-93448888D01*
X169806047Y-93464114D01*
X169668717Y-93742592D01*
X169660476Y-93756866D01*
X169487973Y-94015034D01*
X169477940Y-94028109D01*
X169273212Y-94261557D01*
X169261557Y-94273212D01*
X169028109Y-94477940D01*
X169015034Y-94487973D01*
X168756866Y-94660476D01*
X168742592Y-94668717D01*
X168464114Y-94806047D01*
X168448888Y-94812354D01*
X168154871Y-94912160D01*
X168138950Y-94916426D01*
X167834413Y-94977001D01*
X167818073Y-94979152D01*
X167504119Y-94999730D01*
X167495878Y-95000000D01*
X167372000Y-95000000D01*
X167303879Y-94979998D01*
X167257386Y-94926342D01*
X167246000Y-94874000D01*
X167246000Y-92626000D01*
X167266002Y-92557879D01*
X167319658Y-92511386D01*
X167372000Y-92500000D01*
X167481885Y-92500000D01*
X167497124Y-92495525D01*
X167498329Y-92494135D01*
X167500000Y-92486452D01*
X167500000Y-32518115D01*
X167495525Y-32502876D01*
X167494135Y-32501671D01*
X167486452Y-32500000D01*
X167372000Y-32500000D01*
X167303879Y-32479998D01*
X167257386Y-32426342D01*
X167246000Y-32374000D01*
X167246000Y-30126000D01*
X167266002Y-30057879D01*
X167319658Y-30011386D01*
X167372000Y-30000000D01*
X167495878Y-30000000D01*
X167504119Y-30000270D01*
G37*
G36*
X152869121Y-30020002D02*
G01*
X152915614Y-30073658D01*
X152927000Y-30126000D01*
X152927000Y-32374000D01*
X152906998Y-32442121D01*
X152853342Y-32488614D01*
X152801000Y-32500000D01*
X152691115Y-32500000D01*
X152675876Y-32504475D01*
X152674671Y-32505865D01*
X152673000Y-32513548D01*
X152673000Y-92481885D01*
X152677475Y-92497124D01*
X152678865Y-92498329D01*
X152686548Y-92500000D01*
X152801000Y-92500000D01*
X152869121Y-92520002D01*
X152915614Y-92573658D01*
X152927000Y-92626000D01*
X152927000Y-94874000D01*
X152906998Y-94942121D01*
X152853342Y-94988614D01*
X152801000Y-95000000D01*
X152504122Y-95000000D01*
X152495881Y-94999730D01*
X152181927Y-94979152D01*
X152165587Y-94977001D01*
X151861050Y-94916426D01*
X151845129Y-94912160D01*
X151551112Y-94812354D01*
X151535886Y-94806047D01*
X151257408Y-94668717D01*
X151243134Y-94660476D01*
X150984966Y-94487973D01*
X150971891Y-94477940D01*
X150738443Y-94273212D01*
X150726788Y-94261557D01*
X150522060Y-94028109D01*
X150512027Y-94015034D01*
X150339524Y-93756866D01*
X150331283Y-93742592D01*
X150193953Y-93464114D01*
X150187646Y-93448888D01*
X150087840Y-93154871D01*
X150083574Y-93138950D01*
X150022999Y-92834413D01*
X150020848Y-92818073D01*
X150000270Y-92504119D01*
X150000000Y-92495878D01*
X150000000Y-32504122D01*
X150000270Y-32495881D01*
X150020848Y-32181927D01*
X150022999Y-32165587D01*
X150083574Y-31861050D01*
X150087840Y-31845129D01*
X150187646Y-31551112D01*
X150193953Y-31535886D01*
X150331283Y-31257408D01*
X150339524Y-31243134D01*
X150512027Y-30984966D01*
X150522060Y-30971891D01*
X150726788Y-30738443D01*
X150738443Y-30726788D01*
X150971891Y-30522060D01*
X150984966Y-30512027D01*
X151243134Y-30339524D01*
X151257408Y-30331283D01*
X151535886Y-30193953D01*
X151551112Y-30187646D01*
X151845129Y-30087840D01*
X151861050Y-30083574D01*
X152165587Y-30022999D01*
X152181927Y-30020848D01*
X152495881Y-30000270D01*
X152504122Y-30000000D01*
X152801000Y-30000000D01*
X152869121Y-30020002D01*
G37*
M02*
