%TF.GenerationSoftware,KiCad,Pcbnew,7.0.5+dfsg-2*%
%TF.CreationDate,2023-07-22T00:58:44+02:00*%
%TF.ProjectId,019-tayloe-quadrature-product-detector,3031392d-7461-4796-9c6f-652d71756164,2*%
%TF.SameCoordinates,Original*%
%TF.FileFunction,Legend,Top*%
%TF.FilePolarity,Positive*%
%FSLAX46Y46*%
G04 Gerber Fmt 4.6, Leading zero omitted, Abs format (unit mm)*
G04 Created by KiCad (PCBNEW 7.0.5+dfsg-2) date 2023-07-22 00:58:44*
%MOMM*%
%LPD*%
G01*
G04 APERTURE LIST*
%ADD10C,0.150000*%
%ADD11C,0.120000*%
G04 APERTURE END LIST*
D10*
X142800000Y-61600000D02*
X146800000Y-61600000D01*
X146800000Y-64800000D01*
X142800000Y-64800000D01*
X142800000Y-61600000D01*
X143800000Y-61849819D02*
X143895238Y-61849819D01*
X143895238Y-61849819D02*
X143990476Y-61897438D01*
X143990476Y-61897438D02*
X144038095Y-61945057D01*
X144038095Y-61945057D02*
X144085714Y-62040295D01*
X144085714Y-62040295D02*
X144133333Y-62230771D01*
X144133333Y-62230771D02*
X144133333Y-62468866D01*
X144133333Y-62468866D02*
X144085714Y-62659342D01*
X144085714Y-62659342D02*
X144038095Y-62754580D01*
X144038095Y-62754580D02*
X143990476Y-62802200D01*
X143990476Y-62802200D02*
X143895238Y-62849819D01*
X143895238Y-62849819D02*
X143800000Y-62849819D01*
X143800000Y-62849819D02*
X143704762Y-62802200D01*
X143704762Y-62802200D02*
X143657143Y-62754580D01*
X143657143Y-62754580D02*
X143609524Y-62659342D01*
X143609524Y-62659342D02*
X143561905Y-62468866D01*
X143561905Y-62468866D02*
X143561905Y-62230771D01*
X143561905Y-62230771D02*
X143609524Y-62040295D01*
X143609524Y-62040295D02*
X143657143Y-61945057D01*
X143657143Y-61945057D02*
X143704762Y-61897438D01*
X143704762Y-61897438D02*
X143800000Y-61849819D01*
X145085714Y-62849819D02*
X144514286Y-62849819D01*
X144800000Y-62849819D02*
X144800000Y-61849819D01*
X144800000Y-61849819D02*
X144704762Y-61992676D01*
X144704762Y-61992676D02*
X144609524Y-62087914D01*
X144609524Y-62087914D02*
X144514286Y-62135533D01*
X145561905Y-62849819D02*
X145752381Y-62849819D01*
X145752381Y-62849819D02*
X145847619Y-62802200D01*
X145847619Y-62802200D02*
X145895238Y-62754580D01*
X145895238Y-62754580D02*
X145990476Y-62611723D01*
X145990476Y-62611723D02*
X146038095Y-62421247D01*
X146038095Y-62421247D02*
X146038095Y-62040295D01*
X146038095Y-62040295D02*
X145990476Y-61945057D01*
X145990476Y-61945057D02*
X145942857Y-61897438D01*
X145942857Y-61897438D02*
X145847619Y-61849819D01*
X145847619Y-61849819D02*
X145657143Y-61849819D01*
X145657143Y-61849819D02*
X145561905Y-61897438D01*
X145561905Y-61897438D02*
X145514286Y-61945057D01*
X145514286Y-61945057D02*
X145466667Y-62040295D01*
X145466667Y-62040295D02*
X145466667Y-62278390D01*
X145466667Y-62278390D02*
X145514286Y-62373628D01*
X145514286Y-62373628D02*
X145561905Y-62421247D01*
X145561905Y-62421247D02*
X145657143Y-62468866D01*
X145657143Y-62468866D02*
X145847619Y-62468866D01*
X145847619Y-62468866D02*
X145942857Y-62421247D01*
X145942857Y-62421247D02*
X145990476Y-62373628D01*
X145990476Y-62373628D02*
X146038095Y-62278390D01*
X143752380Y-64459819D02*
X143419047Y-63983628D01*
X143180952Y-64459819D02*
X143180952Y-63459819D01*
X143180952Y-63459819D02*
X143561904Y-63459819D01*
X143561904Y-63459819D02*
X143657142Y-63507438D01*
X143657142Y-63507438D02*
X143704761Y-63555057D01*
X143704761Y-63555057D02*
X143752380Y-63650295D01*
X143752380Y-63650295D02*
X143752380Y-63793152D01*
X143752380Y-63793152D02*
X143704761Y-63888390D01*
X143704761Y-63888390D02*
X143657142Y-63936009D01*
X143657142Y-63936009D02*
X143561904Y-63983628D01*
X143561904Y-63983628D02*
X143180952Y-63983628D01*
X144180952Y-63936009D02*
X144514285Y-63936009D01*
X144657142Y-64459819D02*
X144180952Y-64459819D01*
X144180952Y-64459819D02*
X144180952Y-63459819D01*
X144180952Y-63459819D02*
X144657142Y-63459819D01*
X144942857Y-63459819D02*
X145276190Y-64459819D01*
X145276190Y-64459819D02*
X145609523Y-63459819D01*
X145895238Y-63555057D02*
X145942857Y-63507438D01*
X145942857Y-63507438D02*
X146038095Y-63459819D01*
X146038095Y-63459819D02*
X146276190Y-63459819D01*
X146276190Y-63459819D02*
X146371428Y-63507438D01*
X146371428Y-63507438D02*
X146419047Y-63555057D01*
X146419047Y-63555057D02*
X146466666Y-63650295D01*
X146466666Y-63650295D02*
X146466666Y-63745533D01*
X146466666Y-63745533D02*
X146419047Y-63888390D01*
X146419047Y-63888390D02*
X145847619Y-64459819D01*
X145847619Y-64459819D02*
X146466666Y-64459819D01*
D11*
%TO.C,C3*%
X136365580Y-99510000D02*
X136084420Y-99510000D01*
X136365580Y-98490000D02*
X136084420Y-98490000D01*
%TO.C,R3*%
X141444542Y-131077500D02*
X141919058Y-131077500D01*
X141444542Y-132122500D02*
X141919058Y-132122500D01*
%TO.C,C2*%
X143865580Y-89510000D02*
X143584420Y-89510000D01*
X143865580Y-88490000D02*
X143584420Y-88490000D01*
%TO.C,C4*%
X147990000Y-106865580D02*
X147990000Y-106584420D01*
X149010000Y-106865580D02*
X149010000Y-106584420D01*
%TO.C,U1*%
X144977600Y-126193000D02*
X144977600Y-122593000D01*
X144977600Y-126193000D02*
X144977600Y-128393000D01*
X139757600Y-126193000D02*
X139757600Y-123993000D01*
X139757600Y-126193000D02*
X139757600Y-128393000D01*
%TO.C,U2*%
X141500000Y-89940000D02*
X138050000Y-89940000D01*
X141500000Y-89940000D02*
X143450000Y-89940000D01*
X141500000Y-100060000D02*
X139550000Y-100060000D01*
X141500000Y-100060000D02*
X143450000Y-100060000D01*
%TO.C,C1*%
X144959420Y-130390000D02*
X145240580Y-130390000D01*
X144959420Y-131410000D02*
X145240580Y-131410000D01*
%TO.C,C6*%
X147990000Y-66865580D02*
X147990000Y-66584420D01*
X149010000Y-66865580D02*
X149010000Y-66584420D01*
%TO.C,C5*%
X147990000Y-86865580D02*
X147990000Y-86584420D01*
X149010000Y-86865580D02*
X149010000Y-86584420D01*
%TO.C,G\u002A\u002A\u002A*%
G36*
X141707208Y-62614917D02*
G01*
X141721780Y-62622643D01*
X141727638Y-62638791D01*
X141724986Y-62666038D01*
X141714028Y-62707062D01*
X141695246Y-62763741D01*
X141678860Y-62810446D01*
X141664665Y-62849625D01*
X141654112Y-62877364D01*
X141648650Y-62889745D01*
X141648486Y-62889946D01*
X141654138Y-62897178D01*
X141673545Y-62911565D01*
X141702518Y-62930004D01*
X141702794Y-62930170D01*
X141765684Y-62973854D01*
X141813512Y-63019631D01*
X141845324Y-63065750D01*
X141860162Y-63110459D01*
X141857070Y-63152007D01*
X141840520Y-63182445D01*
X141820991Y-63206562D01*
X141877555Y-63240636D01*
X141917737Y-63266699D01*
X141959250Y-63296467D01*
X141980607Y-63313250D01*
X142006661Y-63335927D01*
X142019745Y-63352611D01*
X142023211Y-63369984D01*
X142020661Y-63393124D01*
X142015636Y-63432872D01*
X142012184Y-63473169D01*
X142012056Y-63475472D01*
X142006709Y-63506817D01*
X141992958Y-63524471D01*
X141987295Y-63527764D01*
X141964024Y-63544266D01*
X141944294Y-63564253D01*
X141934232Y-63575038D01*
X141921977Y-63582474D01*
X141903462Y-63587419D01*
X141874622Y-63590732D01*
X141831391Y-63593272D01*
X141800502Y-63594630D01*
X141740844Y-63598231D01*
X141695936Y-63603279D01*
X141668140Y-63609464D01*
X141661407Y-63612879D01*
X141649381Y-63631376D01*
X141640328Y-63659745D01*
X141639450Y-63664547D01*
X141632091Y-63690629D01*
X141617507Y-63728695D01*
X141598200Y-63772492D01*
X141586787Y-63796135D01*
X141569617Y-63831648D01*
X141556241Y-63863117D01*
X141545437Y-63894981D01*
X141535983Y-63931679D01*
X141526657Y-63977652D01*
X141516238Y-64037340D01*
X141510003Y-64075142D01*
X141498611Y-64150475D01*
X141487513Y-64233726D01*
X141477703Y-64316757D01*
X141470177Y-64391427D01*
X141467711Y-64421318D01*
X141453479Y-64570850D01*
X141434101Y-64703435D01*
X141409013Y-64822278D01*
X141378053Y-64929366D01*
X141349141Y-65007130D01*
X141316299Y-65074946D01*
X141276020Y-65138510D01*
X141224798Y-65203520D01*
X141175643Y-65258199D01*
X141077329Y-65375280D01*
X140993806Y-65501629D01*
X140931364Y-65621186D01*
X140903186Y-65677903D01*
X140877811Y-65720375D01*
X140851675Y-65754018D01*
X140828482Y-65777604D01*
X140800811Y-65802117D01*
X140778251Y-65819713D01*
X140765568Y-65826682D01*
X140765395Y-65826688D01*
X140753451Y-65833218D01*
X140741919Y-65853767D01*
X140730392Y-65889773D01*
X140718459Y-65942674D01*
X140705712Y-66013910D01*
X140697702Y-66064739D01*
X140682935Y-66157753D01*
X140668702Y-66236626D01*
X140653537Y-66307789D01*
X140635974Y-66377671D01*
X140614550Y-66452702D01*
X140594147Y-66519151D01*
X140573662Y-66588767D01*
X140559937Y-66648459D01*
X140552673Y-66703792D01*
X140551572Y-66760332D01*
X140556334Y-66823643D01*
X140566662Y-66899292D01*
X140571976Y-66932384D01*
X140581863Y-66993891D01*
X140591097Y-67054175D01*
X140598842Y-67107582D01*
X140604263Y-67148460D01*
X140605561Y-67159723D01*
X140612893Y-67204728D01*
X140626368Y-67241894D01*
X140650004Y-67281963D01*
X140652923Y-67286310D01*
X140693121Y-67345728D01*
X140391035Y-67345728D01*
X140398018Y-67312144D01*
X140406666Y-67282384D01*
X140417092Y-67259536D01*
X140421952Y-67245992D01*
X140419574Y-67227580D01*
X140408787Y-67199446D01*
X140396054Y-67172292D01*
X140376050Y-67126603D01*
X140359018Y-67076762D01*
X140343853Y-67018573D01*
X140329451Y-66947840D01*
X140315851Y-66867612D01*
X140305774Y-66815487D01*
X140290904Y-66752618D01*
X140273420Y-66687715D01*
X140259042Y-66640272D01*
X140239373Y-66577432D01*
X140224185Y-66523154D01*
X140212556Y-66472312D01*
X140203565Y-66419774D01*
X140196290Y-66360411D01*
X140189810Y-66289094D01*
X140185282Y-66229699D01*
X140180007Y-66126544D01*
X140179205Y-66027802D01*
X140182780Y-65938429D01*
X140190634Y-65863381D01*
X140192649Y-65850881D01*
X140198285Y-65818238D01*
X140013062Y-65823960D01*
X139892262Y-65825480D01*
X139787165Y-65821724D01*
X139693384Y-65812274D01*
X139606532Y-65796713D01*
X139535335Y-65778501D01*
X139428868Y-65739636D01*
X139339540Y-65689590D01*
X139266909Y-65628052D01*
X139210536Y-65554711D01*
X139204435Y-65544391D01*
X139175907Y-65494600D01*
X139168639Y-65523556D01*
X139148777Y-65580742D01*
X139118034Y-65643838D01*
X139080847Y-65704875D01*
X139041648Y-65755885D01*
X139035826Y-65762224D01*
X139001823Y-65799253D01*
X138979015Y-65828535D01*
X138963853Y-65856807D01*
X138952786Y-65890804D01*
X138942267Y-65937262D01*
X138941407Y-65941406D01*
X138922253Y-66014043D01*
X138895078Y-66080397D01*
X138857410Y-66144725D01*
X138806775Y-66211286D01*
X138744562Y-66280306D01*
X138700655Y-66327086D01*
X138669096Y-66363066D01*
X138647302Y-66391736D01*
X138632691Y-66416586D01*
X138622679Y-66441105D01*
X138620484Y-66447943D01*
X138606617Y-66510336D01*
X138598490Y-66583767D01*
X138596652Y-66659269D01*
X138601650Y-66727875D01*
X138602867Y-66736045D01*
X138621849Y-66852191D01*
X138638653Y-66949249D01*
X138653608Y-67028646D01*
X138667045Y-67091809D01*
X138679292Y-67140166D01*
X138690680Y-67175143D01*
X138701537Y-67198166D01*
X138712194Y-67210664D01*
X138712536Y-67210907D01*
X138743036Y-67236176D01*
X138770562Y-67265811D01*
X138789476Y-67293348D01*
X138793891Y-67304120D01*
X138795244Y-67313632D01*
X138790936Y-67319721D01*
X138777416Y-67323146D01*
X138751136Y-67324671D01*
X138708547Y-67325054D01*
X138696219Y-67325061D01*
X138593072Y-67325061D01*
X138595449Y-67296643D01*
X138593369Y-67278430D01*
X138582341Y-67257689D01*
X138559769Y-67230433D01*
X138536582Y-67206224D01*
X138493768Y-67157147D01*
X138454802Y-67099598D01*
X138418211Y-67030726D01*
X138382517Y-66947679D01*
X138346246Y-66847608D01*
X138337706Y-66822003D01*
X138302894Y-66710358D01*
X138277616Y-66613609D01*
X138261922Y-66528285D01*
X138255862Y-66450921D01*
X138259487Y-66378048D01*
X138272846Y-66306198D01*
X138295988Y-66231903D01*
X138328964Y-66151696D01*
X138347925Y-66110862D01*
X138363244Y-66077573D01*
X138373181Y-66050567D01*
X138378868Y-66023669D01*
X138381433Y-65990701D01*
X138382007Y-65945488D01*
X138381942Y-65924857D01*
X138374037Y-65813717D01*
X138351457Y-65689349D01*
X138314436Y-65552839D01*
X138279648Y-65449512D01*
X138261521Y-65395325D01*
X138244501Y-65337402D01*
X138231243Y-65285050D01*
X138227106Y-65265233D01*
X138214411Y-65208368D01*
X138200643Y-65165227D01*
X138186695Y-65137191D01*
X138173461Y-65125643D01*
X138161834Y-65131965D01*
X138153974Y-65152044D01*
X138149203Y-65168673D01*
X138144810Y-65170196D01*
X138137896Y-65154900D01*
X138132125Y-65139127D01*
X138121228Y-65090843D01*
X138117240Y-65030839D01*
X138119967Y-64966803D01*
X138129216Y-64906422D01*
X138138838Y-64872197D01*
X138186099Y-64769316D01*
X138251074Y-64675424D01*
X138332531Y-64591243D01*
X138429242Y-64517494D01*
X138539977Y-64454898D01*
X138663509Y-64404178D01*
X138798607Y-64366054D01*
X138944042Y-64341248D01*
X139059642Y-64331795D01*
X139147425Y-64329758D01*
X139231499Y-64332317D01*
X139316776Y-64340018D01*
X139408169Y-64353405D01*
X139510590Y-64373023D01*
X139591711Y-64390808D01*
X139687807Y-64412345D01*
X139767579Y-64429200D01*
X139834708Y-64441879D01*
X139892875Y-64450889D01*
X139945762Y-64456737D01*
X139997049Y-64459929D01*
X140050417Y-64460973D01*
X140098629Y-64460575D01*
X140154738Y-64459915D01*
X140199013Y-64460589D01*
X140237320Y-64463316D01*
X140275528Y-64468818D01*
X140319505Y-64477819D01*
X140375120Y-64491038D01*
X140403604Y-64498082D01*
X140475622Y-64515214D01*
X140531279Y-64526183D01*
X140573946Y-64530976D01*
X140606992Y-64529581D01*
X140633788Y-64521987D01*
X140657703Y-64508180D01*
X140671833Y-64497109D01*
X140692889Y-64476673D01*
X140710733Y-64452129D01*
X140726651Y-64420341D01*
X140741925Y-64378173D01*
X140757840Y-64322489D01*
X140775680Y-64250153D01*
X140779346Y-64234469D01*
X140796905Y-64162770D01*
X140818065Y-64082312D01*
X140840306Y-64002374D01*
X140861109Y-63932234D01*
X140863452Y-63924717D01*
X140878978Y-63874113D01*
X140891303Y-63830295D01*
X140901226Y-63788944D01*
X140909547Y-63745741D01*
X140917065Y-63696365D01*
X140924579Y-63636498D01*
X140932889Y-63561819D01*
X140936002Y-63532628D01*
X140947098Y-63430493D01*
X140956972Y-63346407D01*
X140966097Y-63277821D01*
X140974945Y-63222188D01*
X140983991Y-63176957D01*
X140993707Y-63139582D01*
X141004567Y-63107513D01*
X141017044Y-63078202D01*
X141022488Y-63066892D01*
X141043227Y-63027695D01*
X141064341Y-62995534D01*
X141089403Y-62966760D01*
X141121983Y-62937721D01*
X141165654Y-62904766D01*
X141214198Y-62870923D01*
X141263880Y-62834968D01*
X141315539Y-62794307D01*
X141361923Y-62754795D01*
X141386890Y-62731435D01*
X141418275Y-62702043D01*
X141445322Y-62679904D01*
X141464140Y-62668049D01*
X141469559Y-62667005D01*
X141483132Y-62681623D01*
X141484744Y-62711606D01*
X141474416Y-62755478D01*
X141468097Y-62773543D01*
X141456615Y-62805332D01*
X141448850Y-62828941D01*
X141446704Y-62837728D01*
X141453034Y-62835813D01*
X141469982Y-62821540D01*
X141494485Y-62798042D01*
X141523480Y-62768450D01*
X141553903Y-62735896D01*
X141582693Y-62703515D01*
X141606785Y-62674437D01*
X141608411Y-62672355D01*
X141635607Y-62639612D01*
X141656294Y-62621160D01*
X141674724Y-62613645D01*
X141683716Y-62612937D01*
X141707208Y-62614917D01*
G37*
%TO.C,C7*%
X147990000Y-126865580D02*
X147990000Y-126584420D01*
X149010000Y-126865580D02*
X149010000Y-126584420D01*
%TD*%
M02*
