%TF.GenerationSoftware,KiCad,Pcbnew,7.0.5+dfsg-2*%
%TF.CreationDate,2023-07-22T00:58:44+02:00*%
%TF.ProjectId,019-tayloe-quadrature-product-detector,3031392d-7461-4796-9c6f-652d71756164,2*%
%TF.SameCoordinates,Original*%
%TF.FileFunction,Copper,L2,Bot*%
%TF.FilePolarity,Positive*%
%FSLAX46Y46*%
G04 Gerber Fmt 4.6, Leading zero omitted, Abs format (unit mm)*
G04 Created by KiCad (PCBNEW 7.0.5+dfsg-2) date 2023-07-22 00:58:44*
%MOMM*%
%LPD*%
G01*
G04 APERTURE LIST*
%TA.AperFunction,ComponentPad*%
%ADD10C,3.400000*%
%TD*%
%TA.AperFunction,ComponentPad*%
%ADD11C,0.800000*%
%TD*%
%TA.AperFunction,SMDPad,CuDef*%
%ADD12R,3.000000X5.200000*%
%TD*%
%TA.AperFunction,ComponentPad*%
%ADD13C,1.400000*%
%TD*%
%TA.AperFunction,SMDPad,CuDef*%
%ADD14R,5.200000X3.000000*%
%TD*%
%TA.AperFunction,ViaPad*%
%ADD15C,0.800000*%
%TD*%
%TA.AperFunction,Conductor*%
%ADD16C,0.200000*%
%TD*%
G04 APERTURE END LIST*
D10*
%TO.P,H12,1,1*%
%TO.N,GND*%
X150000000Y-115000000D03*
%TD*%
D11*
%TO.P,J5,2,Pin_2*%
%TO.N,GND*%
X150000000Y-86500000D03*
X150000000Y-88500000D03*
X150500000Y-86000000D03*
X150500000Y-89000000D03*
X151000000Y-86500000D03*
D12*
X151000000Y-87500000D03*
D11*
X151000000Y-88500000D03*
X151500000Y-86000000D03*
X151500000Y-89000000D03*
X152000000Y-86500000D03*
X152000000Y-88500000D03*
%TD*%
D10*
%TO.P,H7,1,1*%
%TO.N,GND*%
X135000000Y-80000000D03*
%TD*%
D13*
%TO.P,J7,1,Pin_1*%
%TO.N,/VCC*%
X135000000Y-110000000D03*
%TD*%
D10*
%TO.P,H9,1,1*%
%TO.N,GND*%
X135000000Y-60000000D03*
%TD*%
D11*
%TO.P,J3,2,Pin_2*%
%TO.N,GND*%
X150000000Y-106500000D03*
X150000000Y-108500000D03*
X150500000Y-106000000D03*
X150500000Y-109000000D03*
X151000000Y-106500000D03*
D12*
X151000000Y-107500000D03*
D11*
X151000000Y-108500000D03*
X151500000Y-106000000D03*
X151500000Y-109000000D03*
X152000000Y-106500000D03*
X152000000Y-108500000D03*
%TD*%
D10*
%TO.P,H1,1,1*%
%TO.N,GND*%
X135000000Y-120000000D03*
%TD*%
%TO.P,H5,1,1*%
%TO.N,GND*%
X150000000Y-95000000D03*
%TD*%
%TO.P,H2,1,1*%
%TO.N,GND*%
X135000000Y-135000000D03*
%TD*%
D13*
%TO.P,J8,1,Pin_1*%
%TO.N,/VA*%
X135000000Y-70000000D03*
%TD*%
D10*
%TO.P,H4,1,1*%
%TO.N,GND*%
X150000000Y-120000000D03*
%TD*%
%TO.P,H8,1,1*%
%TO.N,GND*%
X150000000Y-75000000D03*
%TD*%
%TO.P,H11,1,1*%
%TO.N,GND*%
X150000000Y-80000000D03*
%TD*%
D11*
%TO.P,J4,2,Pin_2*%
%TO.N,GND*%
X150000000Y-66500000D03*
X150000000Y-68500000D03*
X150500000Y-66000000D03*
X150500000Y-69000000D03*
X151000000Y-66500000D03*
D12*
X151000000Y-67500000D03*
D11*
X151000000Y-68500000D03*
X151500000Y-66000000D03*
X151500000Y-69000000D03*
X152000000Y-66500000D03*
X152000000Y-68500000D03*
%TD*%
%TO.P,J2,2,Pin_2*%
%TO.N,GND*%
X150000000Y-126500000D03*
X150000000Y-128500000D03*
X150500000Y-126000000D03*
X150500000Y-129000000D03*
X151000000Y-126500000D03*
D12*
X151000000Y-127500000D03*
D11*
X151000000Y-128500000D03*
X151500000Y-126000000D03*
X151500000Y-129000000D03*
X152000000Y-126500000D03*
X152000000Y-128500000D03*
%TD*%
D10*
%TO.P,H6,1,1*%
%TO.N,GND*%
X135000000Y-95000000D03*
%TD*%
D11*
%TO.P,J6,2,Pin_2*%
%TO.N,GND*%
X135000000Y-88500000D03*
X135000000Y-86500000D03*
X134500000Y-89000000D03*
X134500000Y-86000000D03*
X134000000Y-88500000D03*
D12*
X134000000Y-87500000D03*
D11*
X134000000Y-86500000D03*
X133500000Y-89000000D03*
X133500000Y-86000000D03*
X133000000Y-88500000D03*
X133000000Y-86500000D03*
%TD*%
D10*
%TO.P,H3,1,1*%
%TO.N,GND*%
X150000000Y-135000000D03*
%TD*%
%TO.P,H13,1,1*%
%TO.N,GND*%
X150000000Y-100000000D03*
%TD*%
%TO.P,H10,1,1*%
%TO.N,GND*%
X150000000Y-60000000D03*
%TD*%
D13*
%TO.P,J9,1,Pin_1*%
%TO.N,/VE*%
X135000000Y-105000000D03*
%TD*%
D11*
%TO.P,J1,2,Pin_2*%
%TO.N,GND*%
X143500000Y-135000000D03*
X141500000Y-135000000D03*
X144000000Y-135500000D03*
X141000000Y-135500000D03*
X143500000Y-136000000D03*
D14*
X142500000Y-136000000D03*
D11*
X141500000Y-136000000D03*
X144000000Y-136500000D03*
X141000000Y-136500000D03*
X143500000Y-137000000D03*
X141500000Y-137000000D03*
%TD*%
D15*
%TO.N,GND*%
X147500000Y-122500000D03*
X146958015Y-78626400D03*
X147500000Y-117500000D03*
X144835549Y-112515738D03*
X140000000Y-115000000D03*
X135000000Y-92500000D03*
X142500000Y-77500000D03*
X142446717Y-87906899D03*
X145465655Y-127921964D03*
X145000000Y-132500000D03*
X137500000Y-75000000D03*
X144884593Y-107543198D03*
X137500000Y-60000000D03*
X148225052Y-90715364D03*
X144859737Y-87906899D03*
X142500000Y-70000000D03*
X146917664Y-71011275D03*
X137500000Y-67500000D03*
X146927994Y-118721820D03*
X135000000Y-122500000D03*
X147403334Y-108347538D03*
X147500000Y-110000000D03*
X135000000Y-132500000D03*
X147500000Y-95000000D03*
X137500000Y-132500000D03*
X137500000Y-80000000D03*
X147179787Y-128512710D03*
X142583912Y-96630895D03*
X137500000Y-82500000D03*
X147500000Y-72500000D03*
X140000000Y-70000000D03*
X137500000Y-107500000D03*
X140469493Y-90666942D03*
X140000000Y-85000000D03*
X150000000Y-105000000D03*
X140000000Y-105000000D03*
X142500000Y-85000000D03*
X148214722Y-96748398D03*
X140000000Y-110000000D03*
X150000000Y-125000000D03*
X142500000Y-107500000D03*
X146958015Y-83758764D03*
X138072613Y-86438104D03*
X147571358Y-93612602D03*
X146933804Y-68509481D03*
X142495138Y-95404209D03*
X136975052Y-88520242D03*
X147500000Y-65000000D03*
X135000000Y-100000000D03*
X144855540Y-105383585D03*
X137500000Y-97500000D03*
X150000000Y-130000000D03*
X146937678Y-126469310D03*
X146958015Y-76160127D03*
X140453352Y-88520242D03*
X140000000Y-102500000D03*
X140000000Y-77500000D03*
X140000000Y-60000000D03*
X147500000Y-85000000D03*
X150000000Y-132500000D03*
X137500000Y-62500000D03*
X144867807Y-69348793D03*
X140000000Y-100000000D03*
X137500000Y-122500000D03*
X147500000Y-132500000D03*
X140000000Y-75000000D03*
X144893613Y-73617227D03*
X150000000Y-77500000D03*
X147500000Y-130000000D03*
X147500000Y-120000000D03*
X144884593Y-110177344D03*
X137500000Y-127500000D03*
X150000000Y-90000000D03*
X142500000Y-82500000D03*
X150000000Y-62500000D03*
X150000000Y-112500000D03*
X137500000Y-92500000D03*
X135000000Y-90000000D03*
X146934966Y-123709034D03*
X142500000Y-67500000D03*
X142543560Y-90529747D03*
X147500000Y-77500000D03*
X147006437Y-66459625D03*
X135000000Y-82500000D03*
X135000000Y-62500000D03*
X142500000Y-115000000D03*
X142500000Y-60000000D03*
X140869000Y-131600000D03*
X140000000Y-112500000D03*
X144831102Y-114997660D03*
X147500000Y-80000000D03*
X148935239Y-68541763D03*
X141131258Y-94871569D03*
X140000000Y-132500000D03*
X150000000Y-70000000D03*
X137500000Y-95000000D03*
X144875877Y-75659768D03*
X135000000Y-75000000D03*
X143521327Y-132089671D03*
X144860144Y-84909428D03*
X135000000Y-102500000D03*
X142559701Y-91853276D03*
X147500000Y-135000000D03*
X141647757Y-86825479D03*
X135000000Y-125000000D03*
X137500000Y-90000000D03*
X142500000Y-112500000D03*
X142575842Y-93120314D03*
X140000000Y-82500000D03*
X139649800Y-123297400D03*
X135000000Y-77500000D03*
X147500000Y-125000000D03*
X147500000Y-60000000D03*
X135000000Y-117500000D03*
X144875877Y-81471200D03*
X140000000Y-117500000D03*
X148214722Y-101638800D03*
X150000000Y-82500000D03*
X147500000Y-62500000D03*
X142875600Y-103315200D03*
X142500000Y-105000000D03*
X135000000Y-107500000D03*
X135000000Y-72500000D03*
X137500000Y-77500000D03*
X140000000Y-80000000D03*
X142500000Y-72500000D03*
X144851666Y-71648829D03*
X140469493Y-92894345D03*
X135000000Y-127500000D03*
X141470125Y-133697006D03*
X140654213Y-103663751D03*
X150000000Y-110000000D03*
X138934270Y-96920566D03*
X150000000Y-72500000D03*
X138934270Y-104453995D03*
X144894278Y-121162280D03*
X140000000Y-135000000D03*
X150000000Y-65000000D03*
X144835053Y-103442813D03*
X135000000Y-112500000D03*
X143514602Y-133697006D03*
X144867807Y-83242265D03*
X137500000Y-112500000D03*
X150000000Y-85000000D03*
X135000000Y-85000000D03*
X145000000Y-67500000D03*
X137500000Y-117500000D03*
X142500000Y-80000000D03*
X137500000Y-120000000D03*
X135000000Y-67500000D03*
X144806000Y-101283200D03*
X148281545Y-88617086D03*
X149044296Y-108529119D03*
X145586064Y-94363140D03*
X150000000Y-117500000D03*
X145000000Y-135000000D03*
X137500000Y-125000000D03*
X140000000Y-62500000D03*
X137500000Y-72500000D03*
X150000000Y-97500000D03*
X147500000Y-75000000D03*
X139864220Y-86494596D03*
X137500000Y-115000000D03*
X135000000Y-65000000D03*
X144867807Y-86494596D03*
X142715296Y-121975766D03*
X137500000Y-135000000D03*
X144851666Y-77460261D03*
X142500000Y-120000000D03*
X148909791Y-106444292D03*
X140000000Y-72500000D03*
X146927994Y-111184518D03*
X139024909Y-88520242D03*
X146982226Y-86865830D03*
X140000000Y-107500000D03*
X147500000Y-112500000D03*
X150000000Y-92500000D03*
X147500000Y-70000000D03*
X147500000Y-115000000D03*
X150000000Y-122500000D03*
X135000000Y-115000000D03*
X142500000Y-97500000D03*
X145000000Y-60000000D03*
X137500000Y-85000000D03*
X142500000Y-75000000D03*
X146941875Y-73771318D03*
X144893613Y-79428659D03*
X146934966Y-121215582D03*
X148214722Y-98235200D03*
X137500000Y-130000000D03*
X135000000Y-97500000D03*
X136055038Y-86454245D03*
X150000000Y-102500000D03*
X146982226Y-81733466D03*
X148981078Y-128522394D03*
X140000000Y-120000000D03*
X142875600Y-100815200D03*
X144884593Y-117588750D03*
X135000000Y-130000000D03*
X140514758Y-96850839D03*
X142500000Y-117500000D03*
%TO.N,/VCC*%
X141668100Y-127117600D03*
X144000000Y-127200000D03*
%TO.N,/CLK2*%
X140700000Y-126300000D03*
X143600000Y-126200000D03*
%TO.N,/CLK1*%
X143100000Y-127800000D03*
X139765700Y-127800000D03*
%TD*%
D16*
%TO.N,/VCC*%
X143917600Y-127117600D02*
X144000000Y-127200000D01*
X141668100Y-127117600D02*
X143917600Y-127117600D01*
%TO.N,/CLK2*%
X140700000Y-126300000D02*
X143500000Y-126300000D01*
X143500000Y-126300000D02*
X143600000Y-126200000D01*
%TO.N,/CLK1*%
X139765700Y-127800000D02*
X143100000Y-127800000D01*
%TD*%
%TA.AperFunction,Conductor*%
%TO.N,GND*%
G36*
X150001476Y-57500589D02*
G01*
X150099080Y-57506493D01*
X150307148Y-57520131D01*
X150312765Y-57520828D01*
X150449219Y-57545834D01*
X150616297Y-57579068D01*
X150621349Y-57580354D01*
X150760621Y-57623752D01*
X150761733Y-57624115D01*
X150915621Y-57676353D01*
X150919989Y-57678073D01*
X151055750Y-57739174D01*
X151057206Y-57739860D01*
X151200325Y-57810439D01*
X151204041Y-57812474D01*
X151332633Y-57890210D01*
X151334511Y-57891405D01*
X151465970Y-57979243D01*
X151468997Y-57981436D01*
X151587843Y-58074544D01*
X151589928Y-58076272D01*
X151708370Y-58180143D01*
X151710735Y-58182358D01*
X151817640Y-58289263D01*
X151819855Y-58291628D01*
X151923721Y-58410064D01*
X151925454Y-58412155D01*
X152018562Y-58531001D01*
X152020755Y-58534028D01*
X152108593Y-58665487D01*
X152109797Y-58667380D01*
X152187524Y-58795957D01*
X152189559Y-58799673D01*
X152234030Y-58889851D01*
X152260115Y-58942745D01*
X152260847Y-58944298D01*
X152321919Y-59079995D01*
X152323654Y-59084401D01*
X152375879Y-59238254D01*
X152376265Y-59239438D01*
X152419640Y-59378633D01*
X152420931Y-59383706D01*
X152454175Y-59550833D01*
X152479165Y-59687197D01*
X152479871Y-59692888D01*
X152493520Y-59901162D01*
X152497432Y-59965819D01*
X152499410Y-59998524D01*
X152499500Y-60001490D01*
X152499500Y-134998509D01*
X152499410Y-135001476D01*
X152497644Y-135030672D01*
X152493520Y-135098836D01*
X152479871Y-135307110D01*
X152479165Y-135312801D01*
X152454175Y-135449165D01*
X152420931Y-135616292D01*
X152419640Y-135621365D01*
X152376265Y-135760560D01*
X152375879Y-135761744D01*
X152323654Y-135915597D01*
X152321919Y-135920003D01*
X152260847Y-136055700D01*
X152260103Y-136057279D01*
X152189559Y-136200325D01*
X152187524Y-136204041D01*
X152109797Y-136332618D01*
X152108593Y-136334511D01*
X152020755Y-136465970D01*
X152018562Y-136468997D01*
X151925454Y-136587843D01*
X151923704Y-136589954D01*
X151819855Y-136708370D01*
X151817640Y-136710735D01*
X151710735Y-136817640D01*
X151708370Y-136819855D01*
X151589954Y-136923704D01*
X151587843Y-136925454D01*
X151468997Y-137018562D01*
X151465970Y-137020755D01*
X151334511Y-137108593D01*
X151332618Y-137109797D01*
X151204041Y-137187524D01*
X151200325Y-137189559D01*
X151057279Y-137260103D01*
X151055700Y-137260847D01*
X150920003Y-137321919D01*
X150915597Y-137323654D01*
X150761744Y-137375879D01*
X150760560Y-137376265D01*
X150621365Y-137419640D01*
X150616292Y-137420931D01*
X150449165Y-137454175D01*
X150395351Y-137464037D01*
X150312798Y-137479165D01*
X150307113Y-137479870D01*
X150284788Y-137481333D01*
X150098836Y-137493520D01*
X150032463Y-137497536D01*
X150001475Y-137499410D01*
X149998510Y-137499500D01*
X135001490Y-137499500D01*
X134998524Y-137499410D01*
X134965819Y-137497432D01*
X134901162Y-137493520D01*
X134728105Y-137482178D01*
X134692881Y-137479870D01*
X134687205Y-137479166D01*
X134550823Y-137454173D01*
X134383706Y-137420931D01*
X134378633Y-137419640D01*
X134239438Y-137376265D01*
X134238254Y-137375879D01*
X134084401Y-137323654D01*
X134079995Y-137321919D01*
X133944298Y-137260847D01*
X133942745Y-137260115D01*
X133889851Y-137234030D01*
X133799673Y-137189559D01*
X133795957Y-137187524D01*
X133667380Y-137109797D01*
X133665487Y-137108593D01*
X133534028Y-137020755D01*
X133531001Y-137018562D01*
X133412155Y-136925454D01*
X133410064Y-136923721D01*
X133291628Y-136819855D01*
X133289263Y-136817640D01*
X133182358Y-136710735D01*
X133180143Y-136708370D01*
X133076272Y-136589928D01*
X133074544Y-136587843D01*
X132981436Y-136468997D01*
X132979243Y-136465970D01*
X132891405Y-136334511D01*
X132890201Y-136332618D01*
X132812474Y-136204041D01*
X132810439Y-136200325D01*
X132739860Y-136057206D01*
X132739174Y-136055750D01*
X132678073Y-135919989D01*
X132676353Y-135915621D01*
X132624115Y-135761733D01*
X132623752Y-135760621D01*
X132580354Y-135621349D01*
X132579067Y-135616292D01*
X132545834Y-135449219D01*
X132520828Y-135312765D01*
X132520131Y-135307148D01*
X132506493Y-135099080D01*
X132500589Y-135001476D01*
X132500500Y-134998510D01*
X132500500Y-127800000D01*
X139160018Y-127800000D01*
X139180655Y-127956758D01*
X139180657Y-127956766D01*
X139241162Y-128102838D01*
X139241162Y-128102839D01*
X139269088Y-128139233D01*
X139337418Y-128228282D01*
X139462859Y-128324536D01*
X139608938Y-128385044D01*
X139726509Y-128400522D01*
X139765699Y-128405682D01*
X139765700Y-128405682D01*
X139765701Y-128405682D01*
X139797052Y-128401554D01*
X139922462Y-128385044D01*
X140068541Y-128324536D01*
X140193982Y-128228282D01*
X140262310Y-128139233D01*
X140312737Y-128104577D01*
X140340854Y-128100500D01*
X142524846Y-128100500D01*
X142583037Y-128119407D01*
X142603388Y-128139233D01*
X142671718Y-128228282D01*
X142797159Y-128324536D01*
X142943238Y-128385044D01*
X143060809Y-128400522D01*
X143099999Y-128405682D01*
X143100000Y-128405682D01*
X143100001Y-128405682D01*
X143131352Y-128401554D01*
X143256762Y-128385044D01*
X143402841Y-128324536D01*
X143528282Y-128228282D01*
X143624536Y-128102841D01*
X143685044Y-127956762D01*
X143697822Y-127859700D01*
X143724163Y-127804476D01*
X143777933Y-127775281D01*
X143833860Y-127781159D01*
X143843238Y-127785044D01*
X143956833Y-127799999D01*
X143999999Y-127805682D01*
X144000000Y-127805682D01*
X144000001Y-127805682D01*
X144043167Y-127799999D01*
X144156762Y-127785044D01*
X144302841Y-127724536D01*
X144428282Y-127628282D01*
X144524536Y-127502841D01*
X144585044Y-127356762D01*
X144605682Y-127200000D01*
X144585044Y-127043238D01*
X144538415Y-126930665D01*
X144524537Y-126897161D01*
X144524537Y-126897160D01*
X144428286Y-126771723D01*
X144428285Y-126771722D01*
X144428282Y-126771718D01*
X144428277Y-126771714D01*
X144428276Y-126771713D01*
X144302838Y-126675462D01*
X144181081Y-126625029D01*
X144134555Y-126585293D01*
X144120271Y-126525798D01*
X144127501Y-126495682D01*
X144185044Y-126356762D01*
X144205682Y-126200000D01*
X144185044Y-126043238D01*
X144165958Y-125997160D01*
X144124537Y-125897161D01*
X144124537Y-125897160D01*
X144028286Y-125771723D01*
X144028285Y-125771722D01*
X144028282Y-125771718D01*
X144028277Y-125771714D01*
X144028276Y-125771713D01*
X143902838Y-125675462D01*
X143756766Y-125614957D01*
X143756758Y-125614955D01*
X143600001Y-125594318D01*
X143599999Y-125594318D01*
X143443241Y-125614955D01*
X143443233Y-125614957D01*
X143297161Y-125675462D01*
X143297160Y-125675462D01*
X143171723Y-125771713D01*
X143171713Y-125771723D01*
X143075464Y-125897157D01*
X143075463Y-125897160D01*
X143058387Y-125938386D01*
X143018650Y-125984912D01*
X142966923Y-125999500D01*
X141275154Y-125999500D01*
X141216963Y-125980593D01*
X141196612Y-125960767D01*
X141128286Y-125871723D01*
X141128285Y-125871722D01*
X141128282Y-125871718D01*
X141128277Y-125871714D01*
X141128276Y-125871713D01*
X141002838Y-125775462D01*
X140856766Y-125714957D01*
X140856758Y-125714955D01*
X140700001Y-125694318D01*
X140699999Y-125694318D01*
X140543241Y-125714955D01*
X140543233Y-125714957D01*
X140397161Y-125775462D01*
X140397160Y-125775462D01*
X140271723Y-125871713D01*
X140271713Y-125871723D01*
X140175462Y-125997160D01*
X140175462Y-125997161D01*
X140114957Y-126143233D01*
X140114955Y-126143241D01*
X140094318Y-126299999D01*
X140094318Y-126300000D01*
X140114955Y-126456758D01*
X140114957Y-126456766D01*
X140175462Y-126602838D01*
X140175462Y-126602839D01*
X140271713Y-126728276D01*
X140271718Y-126728282D01*
X140397159Y-126824536D01*
X140543238Y-126885044D01*
X140660809Y-126900522D01*
X140699999Y-126905682D01*
X140700000Y-126905682D01*
X140700001Y-126905682D01*
X140731352Y-126901554D01*
X140856762Y-126885044D01*
X140948683Y-126846968D01*
X141009678Y-126842168D01*
X141061847Y-126874137D01*
X141085262Y-126930665D01*
X141083091Y-126954298D01*
X141083903Y-126954405D01*
X141062418Y-127117599D01*
X141062418Y-127117600D01*
X141083055Y-127274358D01*
X141083057Y-127274366D01*
X141119611Y-127362615D01*
X141124412Y-127423611D01*
X141092442Y-127475780D01*
X141035914Y-127499195D01*
X141028147Y-127499500D01*
X140340854Y-127499500D01*
X140282663Y-127480593D01*
X140262312Y-127460767D01*
X140193986Y-127371723D01*
X140193985Y-127371722D01*
X140193982Y-127371718D01*
X140193977Y-127371714D01*
X140193976Y-127371713D01*
X140068538Y-127275462D01*
X139922466Y-127214957D01*
X139922458Y-127214955D01*
X139765701Y-127194318D01*
X139765699Y-127194318D01*
X139608941Y-127214955D01*
X139608933Y-127214957D01*
X139462861Y-127275462D01*
X139462860Y-127275462D01*
X139337423Y-127371713D01*
X139337413Y-127371723D01*
X139241162Y-127497160D01*
X139241162Y-127497161D01*
X139180657Y-127643233D01*
X139180655Y-127643241D01*
X139160018Y-127799999D01*
X139160018Y-127800000D01*
X132500500Y-127800000D01*
X132500500Y-110000000D01*
X134094540Y-110000000D01*
X134114327Y-110188261D01*
X134172819Y-110368279D01*
X134172825Y-110368293D01*
X134248015Y-110498525D01*
X134267467Y-110532216D01*
X134394129Y-110672888D01*
X134547270Y-110784151D01*
X134720197Y-110861144D01*
X134905354Y-110900500D01*
X134905357Y-110900500D01*
X135094643Y-110900500D01*
X135094646Y-110900500D01*
X135279803Y-110861144D01*
X135452730Y-110784151D01*
X135605871Y-110672888D01*
X135732533Y-110532216D01*
X135827179Y-110368284D01*
X135885674Y-110188256D01*
X135905460Y-110000000D01*
X135885674Y-109811744D01*
X135827179Y-109631716D01*
X135827176Y-109631711D01*
X135827174Y-109631706D01*
X135778551Y-109547490D01*
X135732533Y-109467784D01*
X135605871Y-109327112D01*
X135452730Y-109215849D01*
X135452725Y-109215847D01*
X135452722Y-109215845D01*
X135279805Y-109138857D01*
X135279803Y-109138856D01*
X135279800Y-109138855D01*
X135279799Y-109138855D01*
X135244580Y-109131369D01*
X135094646Y-109099500D01*
X134905354Y-109099500D01*
X134787289Y-109124595D01*
X134720200Y-109138855D01*
X134720194Y-109138857D01*
X134547277Y-109215845D01*
X134547268Y-109215850D01*
X134394129Y-109327111D01*
X134394124Y-109327116D01*
X134267469Y-109467781D01*
X134267465Y-109467787D01*
X134172825Y-109631706D01*
X134172819Y-109631720D01*
X134114327Y-109811738D01*
X134094540Y-110000000D01*
X132500500Y-110000000D01*
X132500500Y-105000000D01*
X134094540Y-105000000D01*
X134114327Y-105188261D01*
X134172819Y-105368279D01*
X134172825Y-105368293D01*
X134248015Y-105498525D01*
X134267467Y-105532216D01*
X134394129Y-105672888D01*
X134547270Y-105784151D01*
X134720197Y-105861144D01*
X134905354Y-105900500D01*
X134905357Y-105900500D01*
X135094643Y-105900500D01*
X135094646Y-105900500D01*
X135279803Y-105861144D01*
X135452730Y-105784151D01*
X135605871Y-105672888D01*
X135732533Y-105532216D01*
X135827179Y-105368284D01*
X135885674Y-105188256D01*
X135905460Y-105000000D01*
X135885674Y-104811744D01*
X135827179Y-104631716D01*
X135827176Y-104631711D01*
X135827174Y-104631706D01*
X135778551Y-104547490D01*
X135732533Y-104467784D01*
X135605871Y-104327112D01*
X135452730Y-104215849D01*
X135452725Y-104215847D01*
X135452722Y-104215845D01*
X135279805Y-104138857D01*
X135279803Y-104138856D01*
X135279800Y-104138855D01*
X135279799Y-104138855D01*
X135244580Y-104131369D01*
X135094646Y-104099500D01*
X134905354Y-104099500D01*
X134787289Y-104124595D01*
X134720200Y-104138855D01*
X134720194Y-104138857D01*
X134547277Y-104215845D01*
X134547268Y-104215850D01*
X134394129Y-104327111D01*
X134394124Y-104327116D01*
X134267469Y-104467781D01*
X134267465Y-104467787D01*
X134172825Y-104631706D01*
X134172819Y-104631720D01*
X134114327Y-104811738D01*
X134094540Y-105000000D01*
X132500500Y-105000000D01*
X132500500Y-70000000D01*
X134094540Y-70000000D01*
X134114327Y-70188261D01*
X134172819Y-70368279D01*
X134172825Y-70368293D01*
X134248015Y-70498525D01*
X134267467Y-70532216D01*
X134394129Y-70672888D01*
X134547270Y-70784151D01*
X134720197Y-70861144D01*
X134905354Y-70900500D01*
X134905357Y-70900500D01*
X135094643Y-70900500D01*
X135094646Y-70900500D01*
X135279803Y-70861144D01*
X135452730Y-70784151D01*
X135605871Y-70672888D01*
X135732533Y-70532216D01*
X135827179Y-70368284D01*
X135885674Y-70188256D01*
X135905460Y-70000000D01*
X135885674Y-69811744D01*
X135827179Y-69631716D01*
X135827176Y-69631711D01*
X135827174Y-69631706D01*
X135778551Y-69547490D01*
X135732533Y-69467784D01*
X135605871Y-69327112D01*
X135452730Y-69215849D01*
X135452725Y-69215847D01*
X135452722Y-69215845D01*
X135279805Y-69138857D01*
X135279803Y-69138856D01*
X135279800Y-69138855D01*
X135279799Y-69138855D01*
X135244580Y-69131369D01*
X135094646Y-69099500D01*
X134905354Y-69099500D01*
X134787288Y-69124595D01*
X134720200Y-69138855D01*
X134720194Y-69138857D01*
X134547277Y-69215845D01*
X134547268Y-69215850D01*
X134394129Y-69327111D01*
X134394124Y-69327116D01*
X134267469Y-69467781D01*
X134267465Y-69467787D01*
X134172825Y-69631706D01*
X134172819Y-69631720D01*
X134114327Y-69811738D01*
X134094540Y-70000000D01*
X132500500Y-70000000D01*
X132500500Y-60001489D01*
X132500589Y-59998524D01*
X132506485Y-59901053D01*
X132520131Y-59692847D01*
X132520827Y-59687239D01*
X132545839Y-59550752D01*
X132579070Y-59383693D01*
X132580351Y-59378659D01*
X132623767Y-59239332D01*
X132624099Y-59238314D01*
X132676358Y-59084364D01*
X132678067Y-59080024D01*
X132739195Y-58944203D01*
X132739839Y-58942836D01*
X132810449Y-58799654D01*
X132812462Y-58795978D01*
X132890235Y-58667325D01*
X132891386Y-58665516D01*
X132979259Y-58534004D01*
X132981436Y-58531001D01*
X132993875Y-58515122D01*
X133074571Y-58412122D01*
X133076242Y-58410106D01*
X133180174Y-58291594D01*
X133182343Y-58289278D01*
X133289278Y-58182343D01*
X133291594Y-58180174D01*
X133410106Y-58076242D01*
X133412122Y-58074571D01*
X133531001Y-57981436D01*
X133534004Y-57979259D01*
X133665516Y-57891386D01*
X133667325Y-57890235D01*
X133795978Y-57812462D01*
X133799654Y-57810449D01*
X133942836Y-57739839D01*
X133944203Y-57739195D01*
X134080024Y-57678067D01*
X134084364Y-57676358D01*
X134238314Y-57624099D01*
X134239332Y-57623767D01*
X134378659Y-57580351D01*
X134383693Y-57579070D01*
X134550752Y-57545839D01*
X134687239Y-57520827D01*
X134692847Y-57520131D01*
X134901019Y-57506487D01*
X134998523Y-57500589D01*
X135001490Y-57500500D01*
X149998510Y-57500500D01*
X150001476Y-57500589D01*
G37*
%TD.AperFunction*%
%TD*%
M02*
