%TF.GenerationSoftware,KiCad,Pcbnew,6.0.9+dfsg-1~bpo11+1*%
%TF.CreationDate,2022-12-01T10:00:23+01:00*%
%TF.ProjectId,019-tayloe-quadrature-product-detector,3031392d-7461-4796-9c6f-652d71756164,1*%
%TF.SameCoordinates,Original*%
%TF.FileFunction,Copper,L1,Top*%
%TF.FilePolarity,Positive*%
%FSLAX46Y46*%
G04 Gerber Fmt 4.6, Leading zero omitted, Abs format (unit mm)*
G04 Created by KiCad (PCBNEW 6.0.9+dfsg-1~bpo11+1) date 2022-12-01 10:00:23*
%MOMM*%
%LPD*%
G01*
G04 APERTURE LIST*
G04 Aperture macros list*
%AMRoundRect*
0 Rectangle with rounded corners*
0 $1 Rounding radius*
0 $2 $3 $4 $5 $6 $7 $8 $9 X,Y pos of 4 corners*
0 Add a 4 corners polygon primitive as box body*
4,1,4,$2,$3,$4,$5,$6,$7,$8,$9,$2,$3,0*
0 Add four circle primitives for the rounded corners*
1,1,$1+$1,$2,$3*
1,1,$1+$1,$4,$5*
1,1,$1+$1,$6,$7*
1,1,$1+$1,$8,$9*
0 Add four rect primitives between the rounded corners*
20,1,$1+$1,$2,$3,$4,$5,0*
20,1,$1+$1,$4,$5,$6,$7,0*
20,1,$1+$1,$6,$7,$8,$9,0*
20,1,$1+$1,$8,$9,$2,$3,0*%
G04 Aperture macros list end*
%TA.AperFunction,ComponentPad*%
%ADD10C,3.400000*%
%TD*%
%TA.AperFunction,SMDPad,CuDef*%
%ADD11RoundRect,0.150000X-0.725000X-0.150000X0.725000X-0.150000X0.725000X0.150000X-0.725000X0.150000X0*%
%TD*%
%TA.AperFunction,ComponentPad*%
%ADD12C,1.400000*%
%TD*%
%TA.AperFunction,SMDPad,CuDef*%
%ADD13R,3.000000X0.800000*%
%TD*%
%TA.AperFunction,ComponentPad*%
%ADD14C,0.800000*%
%TD*%
%TA.AperFunction,SMDPad,CuDef*%
%ADD15R,3.000000X2.000000*%
%TD*%
%TA.AperFunction,SMDPad,CuDef*%
%ADD16RoundRect,0.225000X0.250000X-0.225000X0.250000X0.225000X-0.250000X0.225000X-0.250000X-0.225000X0*%
%TD*%
%TA.AperFunction,SMDPad,CuDef*%
%ADD17RoundRect,0.225000X0.225000X0.250000X-0.225000X0.250000X-0.225000X-0.250000X0.225000X-0.250000X0*%
%TD*%
%TA.AperFunction,SMDPad,CuDef*%
%ADD18RoundRect,0.200000X-0.200000X-0.275000X0.200000X-0.275000X0.200000X0.275000X-0.200000X0.275000X0*%
%TD*%
%TA.AperFunction,SMDPad,CuDef*%
%ADD19RoundRect,0.100000X-0.100000X0.637500X-0.100000X-0.637500X0.100000X-0.637500X0.100000X0.637500X0*%
%TD*%
%TA.AperFunction,SMDPad,CuDef*%
%ADD20RoundRect,0.225000X-0.225000X-0.250000X0.225000X-0.250000X0.225000X0.250000X-0.225000X0.250000X0*%
%TD*%
%TA.AperFunction,SMDPad,CuDef*%
%ADD21R,0.800000X3.000000*%
%TD*%
%TA.AperFunction,SMDPad,CuDef*%
%ADD22R,2.000000X3.000000*%
%TD*%
%TA.AperFunction,ViaPad*%
%ADD23C,0.800000*%
%TD*%
%TA.AperFunction,Conductor*%
%ADD24C,0.200000*%
%TD*%
%TA.AperFunction,Conductor*%
%ADD25C,0.800000*%
%TD*%
G04 APERTURE END LIST*
D10*
%TO.P,H10,1,1*%
%TO.N,GND*%
X167500000Y-32500000D03*
%TD*%
%TO.P,H9,1,1*%
%TO.N,GND*%
X152500000Y-32500000D03*
%TD*%
%TO.P,H8,1,1*%
%TO.N,GND*%
X167500000Y-47500000D03*
%TD*%
%TO.P,H7,1,1*%
%TO.N,GND*%
X152500000Y-47500000D03*
%TD*%
%TO.P,H6,1,1*%
%TO.N,GND*%
X152500000Y-62500000D03*
%TD*%
%TO.P,H5,1,1*%
%TO.N,GND*%
X167500000Y-62500000D03*
%TD*%
D11*
%TO.P,U2,1,Y0*%
%TO.N,unconnected-(U2-Pad1)*%
X156425000Y-58055000D03*
%TO.P,U2,2,Y2*%
%TO.N,unconnected-(U2-Pad2)*%
X156425000Y-59325000D03*
%TO.P,U2,3,Y*%
%TO.N,unconnected-(U2-Pad3)*%
X156425000Y-60595000D03*
%TO.P,U2,4,Y3*%
%TO.N,unconnected-(U2-Pad4)*%
X156425000Y-61865000D03*
%TO.P,U2,5,Y1*%
%TO.N,unconnected-(U2-Pad5)*%
X156425000Y-63135000D03*
%TO.P,U2,6,~{E}*%
%TO.N,GND*%
X156425000Y-64405000D03*
%TO.P,U2,7,VEE*%
%TO.N,/VE*%
X156425000Y-65675000D03*
%TO.P,U2,8,VSS*%
%TO.N,GND*%
X156425000Y-66945000D03*
%TO.P,U2,9,B*%
%TO.N,/CLK2*%
X161575000Y-66945000D03*
%TO.P,U2,10,A*%
%TO.N,/CLK1*%
X161575000Y-65675000D03*
%TO.P,U2,11,X3*%
%TO.N,/0*%
X161575000Y-64405000D03*
%TO.P,U2,12,X0*%
%TO.N,/180*%
X161575000Y-63135000D03*
%TO.P,U2,13,X*%
%TO.N,/RF*%
X161575000Y-61865000D03*
%TO.P,U2,14,X1*%
%TO.N,/270*%
X161575000Y-60595000D03*
%TO.P,U2,15,X2*%
%TO.N,/90*%
X161575000Y-59325000D03*
%TO.P,U2,16,VDD*%
%TO.N,/VA*%
X161575000Y-58055000D03*
%TD*%
D12*
%TO.P,J9,1,Pin_1*%
%TO.N,/VE*%
X152500000Y-67500000D03*
%TD*%
%TO.P,J8,1,Pin_1*%
%TO.N,/VA*%
X152500000Y-42500000D03*
%TD*%
%TO.P,J7,1,Pin_1*%
%TO.N,/VCC*%
X152500000Y-72500000D03*
%TD*%
D13*
%TO.P,J6,1,Pin_1*%
%TO.N,/RF*%
X151500000Y-55000000D03*
D14*
%TO.P,J6,2,Pin_2*%
%TO.N,GND*%
X152000000Y-53500000D03*
X151000000Y-53500000D03*
X150500000Y-56000000D03*
X152500000Y-56000000D03*
X150500000Y-54000000D03*
D15*
X151500000Y-56600000D03*
X151500000Y-53400000D03*
D14*
X152000000Y-56500000D03*
X151000000Y-56500000D03*
X151500000Y-56000000D03*
X152500000Y-54000000D03*
X151500000Y-54000000D03*
%TD*%
%TO.P,J5,2,Pin_2*%
%TO.N,GND*%
X168500000Y-56000000D03*
X167500000Y-56000000D03*
X168500000Y-54000000D03*
X169000000Y-53500000D03*
X168000000Y-53500000D03*
D15*
X168500000Y-56600000D03*
X168500000Y-53400000D03*
D14*
X169500000Y-56000000D03*
X167500000Y-54000000D03*
X169500000Y-54000000D03*
X169000000Y-56500000D03*
X168000000Y-56500000D03*
D13*
%TO.P,J5,1,Pin_1*%
%TO.N,/270*%
X168500000Y-55000000D03*
%TD*%
D14*
%TO.P,J4,2,Pin_2*%
%TO.N,GND*%
X168500000Y-41000000D03*
X167500000Y-41000000D03*
X168500000Y-39000000D03*
X169000000Y-38500000D03*
X168000000Y-38500000D03*
D15*
X168500000Y-41600000D03*
X168500000Y-38400000D03*
D14*
X169500000Y-41000000D03*
X167500000Y-39000000D03*
X169500000Y-39000000D03*
X169000000Y-41500000D03*
X168000000Y-41500000D03*
D13*
%TO.P,J4,1,Pin_1*%
%TO.N,/90*%
X168500000Y-40000000D03*
%TD*%
D16*
%TO.P,C7,1*%
%TO.N,/0*%
X166000000Y-85000000D03*
%TO.P,C7,2*%
%TO.N,GND*%
X166000000Y-83450000D03*
%TD*%
%TO.P,C6,1*%
%TO.N,/90*%
X166000000Y-40000000D03*
%TO.P,C6,2*%
%TO.N,GND*%
X166000000Y-38450000D03*
%TD*%
%TO.P,C5,1*%
%TO.N,/270*%
X166000000Y-55000000D03*
%TO.P,C5,2*%
%TO.N,GND*%
X166000000Y-53450000D03*
%TD*%
%TO.P,C4,1*%
%TO.N,/180*%
X166000000Y-70000000D03*
%TO.P,C4,2*%
%TO.N,GND*%
X166000000Y-68450000D03*
%TD*%
D17*
%TO.P,C3,1*%
%TO.N,/VE*%
X154500000Y-65700000D03*
%TO.P,C3,2*%
%TO.N,GND*%
X152950000Y-65700000D03*
%TD*%
%TO.P,C2,1*%
%TO.N,/VA*%
X162000000Y-56500000D03*
%TO.P,C2,2*%
%TO.N,GND*%
X160450000Y-56500000D03*
%TD*%
D18*
%TO.P,R3,1*%
%TO.N,GND*%
X158356800Y-89100000D03*
%TO.P,R3,2*%
%TO.N,/2xIF*%
X160006800Y-89100000D03*
%TD*%
D13*
%TO.P,J3,1,Pin_1*%
%TO.N,/180*%
X168500000Y-70000000D03*
D14*
%TO.P,J3,2,Pin_2*%
%TO.N,GND*%
X168000000Y-68500000D03*
X168000000Y-71500000D03*
X169500000Y-71000000D03*
D15*
X168500000Y-68400000D03*
D14*
X167500000Y-71000000D03*
X169000000Y-71500000D03*
X169000000Y-68500000D03*
X169500000Y-69000000D03*
X168500000Y-69000000D03*
X168500000Y-71000000D03*
D15*
X168500000Y-71600000D03*
D14*
X167500000Y-69000000D03*
%TD*%
D10*
%TO.P,H1,1,1*%
%TO.N,GND*%
X152500000Y-77500000D03*
%TD*%
%TO.P,H2,1,1*%
%TO.N,GND*%
X152500000Y-92500000D03*
%TD*%
%TO.P,H4,1,1*%
%TO.N,GND*%
X167500000Y-77500000D03*
%TD*%
D19*
%TO.P,U1,1,~{R}*%
%TO.N,/VCC*%
X161817600Y-80830500D03*
%TO.P,U1,2,D*%
%TO.N,/CLK2*%
X161167600Y-80830500D03*
%TO.P,U1,3,C*%
%TO.N,/2xIF*%
X160517600Y-80830500D03*
%TO.P,U1,4,~{S}*%
%TO.N,/VCC*%
X159867600Y-80830500D03*
%TO.P,U1,5,Q*%
%TO.N,/CLK1*%
X159217600Y-80830500D03*
%TO.P,U1,6,~{Q}*%
%TO.N,unconnected-(U1-Pad6)*%
X158567600Y-80830500D03*
%TO.P,U1,7,GND*%
%TO.N,GND*%
X157917600Y-80830500D03*
%TO.P,U1,8,~{Q}*%
%TO.N,/CLK2*%
X157917600Y-86555500D03*
%TO.P,U1,9,Q*%
%TO.N,unconnected-(U1-Pad9)*%
X158567600Y-86555500D03*
%TO.P,U1,10,~{S}*%
%TO.N,/VCC*%
X159217600Y-86555500D03*
%TO.P,U1,11,C*%
%TO.N,/2xIF*%
X159867600Y-86555500D03*
%TO.P,U1,12,D*%
%TO.N,/CLK1*%
X160517600Y-86555500D03*
%TO.P,U1,13,~{R}*%
%TO.N,/VCC*%
X161167600Y-86555500D03*
%TO.P,U1,14,VCC*%
X161817600Y-86555500D03*
%TD*%
D20*
%TO.P,C1,1*%
%TO.N,/VCC*%
X161825000Y-88400000D03*
%TO.P,C1,2*%
%TO.N,GND*%
X163375000Y-88400000D03*
%TD*%
D13*
%TO.P,J2,1,Pin_1*%
%TO.N,/0*%
X168500000Y-85000000D03*
D14*
%TO.P,J2,2,Pin_2*%
%TO.N,GND*%
X169000000Y-86500000D03*
X168000000Y-86500000D03*
X168500000Y-86000000D03*
X168500000Y-84000000D03*
X168000000Y-83500000D03*
X167500000Y-86000000D03*
X167500000Y-84000000D03*
X169500000Y-84000000D03*
D15*
X168500000Y-86600000D03*
X168500000Y-83400000D03*
D14*
X169000000Y-83500000D03*
X169500000Y-86000000D03*
%TD*%
D10*
%TO.P,H3,1,1*%
%TO.N,GND*%
X167500000Y-92500000D03*
%TD*%
D21*
%TO.P,J1,1,Pin_1*%
%TO.N,/2xIF*%
X160000000Y-93500000D03*
D14*
%TO.P,J1,2,Pin_2*%
%TO.N,GND*%
X158500000Y-93000000D03*
D22*
X161600000Y-93500000D03*
D14*
X161500000Y-93000000D03*
X161000000Y-92500000D03*
X159000000Y-93500000D03*
X161000000Y-93500000D03*
X161000000Y-94500000D03*
X158500000Y-94000000D03*
X159000000Y-92500000D03*
D22*
X158400000Y-93500000D03*
D14*
X159000000Y-94500000D03*
X161500000Y-94000000D03*
%TD*%
D23*
%TO.N,/CLK2*%
X161100000Y-83700000D03*
X158200000Y-83800000D03*
%TO.N,/VCC*%
X161500000Y-84700000D03*
X159168100Y-84617600D03*
%TO.N,GND*%
X162360144Y-52409428D03*
X162393613Y-46117227D03*
X156434270Y-66953995D03*
X156434270Y-64420566D03*
X158154213Y-66163751D03*
X158014758Y-64350839D03*
X161014602Y-91197006D03*
X161021327Y-89589671D03*
X158970125Y-91197006D03*
X164434966Y-78715582D03*
X164434966Y-81209034D03*
X164437678Y-83969310D03*
X166481078Y-86022394D03*
X164679787Y-86012710D03*
X162965655Y-85421964D03*
X160215296Y-79475766D03*
X162384593Y-70043198D03*
X162355540Y-67883585D03*
X162384593Y-72677344D03*
X162384593Y-75088750D03*
X162394278Y-78662280D03*
X164427994Y-76221820D03*
X164427994Y-73684518D03*
X166544296Y-71029119D03*
X164903334Y-70847538D03*
X166409791Y-68944292D03*
X165714722Y-66479675D03*
X165714722Y-64248398D03*
X159946717Y-55406899D03*
X159147757Y-54325479D03*
X157364220Y-53994596D03*
X155572613Y-53938104D03*
X153555038Y-53954245D03*
X154475052Y-56020242D03*
X156524909Y-56020242D03*
X157953352Y-56020242D03*
X157969493Y-58166942D03*
X157969493Y-60394345D03*
X158631258Y-62371569D03*
X160043560Y-58029747D03*
X162359737Y-55406899D03*
X162367807Y-53994596D03*
X162367807Y-50742265D03*
X162375877Y-48159768D03*
X162351666Y-44148829D03*
X162367807Y-41848793D03*
X164506437Y-38959625D03*
X166435239Y-41041763D03*
X164433804Y-41009481D03*
X164417664Y-43511275D03*
X164441875Y-46271318D03*
X164458015Y-48660127D03*
X164458015Y-51258764D03*
X164482226Y-54365830D03*
X165781545Y-56117086D03*
X165725052Y-58215364D03*
X165071358Y-61112602D03*
X160083912Y-64130895D03*
X159995138Y-62904209D03*
X163086064Y-61863140D03*
X160059701Y-59353276D03*
X160075842Y-60620314D03*
X152500000Y-65000000D03*
X152500000Y-85000000D03*
X155000000Y-85000000D03*
X157500000Y-67500000D03*
X160000000Y-65000000D03*
X160000000Y-67500000D03*
X160000000Y-70000000D03*
X160000000Y-75000000D03*
X160000000Y-77500000D03*
X157500000Y-77500000D03*
X155000000Y-72500000D03*
X157500000Y-70000000D03*
X157500000Y-72500000D03*
X157500000Y-75000000D03*
X155000000Y-75000000D03*
X152500000Y-75000000D03*
X152500000Y-70000000D03*
X155000000Y-70000000D03*
X155000000Y-67500000D03*
X155000000Y-62500000D03*
X155000000Y-60000000D03*
X155000000Y-57500000D03*
X152500000Y-57500000D03*
X152500000Y-60000000D03*
X155000000Y-52500000D03*
X157500000Y-52500000D03*
X160000000Y-52500000D03*
X160000000Y-50000000D03*
X157500000Y-50000000D03*
X155000000Y-50000000D03*
X155000000Y-47500000D03*
X157500000Y-47500000D03*
X160000000Y-47500000D03*
X160000000Y-45000000D03*
X157500000Y-45000000D03*
X155000000Y-45000000D03*
X160000000Y-42500000D03*
X157500000Y-42500000D03*
X155000000Y-42500000D03*
X162500000Y-40000000D03*
X157500000Y-40000000D03*
X155000000Y-40000000D03*
X155000000Y-37500000D03*
X157500000Y-37500000D03*
X162500000Y-35000000D03*
X160000000Y-35000000D03*
X157500000Y-35000000D03*
X160000000Y-40000000D03*
X160000000Y-37500000D03*
X162500000Y-37500000D03*
X165000000Y-37500000D03*
X165000000Y-35000000D03*
X165000000Y-32500000D03*
X162500000Y-32500000D03*
X160000000Y-32500000D03*
X157500000Y-32500000D03*
X155000000Y-32500000D03*
X155000000Y-35000000D03*
X152500000Y-35000000D03*
X152500000Y-37500000D03*
X152500000Y-40000000D03*
X152500000Y-45000000D03*
X152500000Y-50000000D03*
X152500000Y-52500000D03*
X165000000Y-52500000D03*
X165000000Y-50000000D03*
X165000000Y-47500000D03*
X165000000Y-45000000D03*
X165000000Y-42500000D03*
X167500000Y-35000000D03*
X167500000Y-37500000D03*
X167500000Y-42500000D03*
X167500000Y-45000000D03*
X167500000Y-50000000D03*
X167500000Y-52500000D03*
X167500000Y-57500000D03*
X167500000Y-60000000D03*
X165000000Y-62500000D03*
X167500000Y-65000000D03*
X167500000Y-67500000D03*
X167500000Y-72500000D03*
X167500000Y-75000000D03*
X165000000Y-72500000D03*
X165000000Y-75000000D03*
X165000000Y-77500000D03*
X165000000Y-82500000D03*
X165000000Y-80000000D03*
X162500000Y-90000000D03*
X152500000Y-80000000D03*
X152500000Y-90000000D03*
X155000000Y-90000000D03*
X167500000Y-82500000D03*
X167500000Y-87500000D03*
X167500000Y-90000000D03*
X155000000Y-80000000D03*
X165000000Y-90000000D03*
X165000000Y-87500000D03*
X158369000Y-89100000D03*
X157500000Y-90000000D03*
X165000000Y-92500000D03*
X152500000Y-82500000D03*
X157149800Y-80797400D03*
X157500000Y-92500000D03*
X155000000Y-77500000D03*
X162500000Y-92500000D03*
X155000000Y-82500000D03*
X155000000Y-92500000D03*
X167500000Y-80000000D03*
X155000000Y-87500000D03*
X152500000Y-87500000D03*
%TO.N,/CLK1*%
X160600000Y-85300000D03*
X157265700Y-85300000D03*
%TD*%
D24*
%TO.N,/2xIF*%
X159867600Y-86555500D02*
X159867600Y-88329000D01*
X159867600Y-88329000D02*
X160006800Y-88468200D01*
X160006800Y-88468200D02*
X160006800Y-89100000D01*
D25*
X160000000Y-93500000D02*
X160000000Y-89000000D01*
D24*
%TO.N,/VCC*%
X161825000Y-88400000D02*
X161825000Y-86562900D01*
X161825000Y-86562900D02*
X161817600Y-86555500D01*
X152500000Y-72500000D02*
X153489949Y-72500000D01*
X153489949Y-72500000D02*
X156100000Y-75110051D01*
X156100000Y-75110051D02*
X156100000Y-86700000D01*
X159000000Y-87800000D02*
X159217600Y-87582400D01*
X156100000Y-86700000D02*
X157200000Y-87800000D01*
X157200000Y-87800000D02*
X159000000Y-87800000D01*
X159217600Y-87582400D02*
X159217600Y-86555500D01*
%TO.N,/CLK1*%
X157265700Y-85300000D02*
X157265700Y-83368269D01*
X159217600Y-81416369D02*
X159217600Y-80830500D01*
X157265700Y-83368269D02*
X159217600Y-81416369D01*
%TO.N,/CLK2*%
X157917600Y-86555500D02*
X157917600Y-84082400D01*
X157917600Y-84082400D02*
X158200000Y-83800000D01*
X161100000Y-83700000D02*
X161100000Y-80898100D01*
X161100000Y-80898100D02*
X161167600Y-80830500D01*
%TO.N,/VCC*%
X161817600Y-80830500D02*
X161817600Y-85417600D01*
X161817600Y-85417600D02*
X161817600Y-86555500D01*
X161500000Y-84700000D02*
X161817600Y-85017600D01*
X161817600Y-85017600D02*
X161817600Y-85417600D01*
X159217600Y-84517600D02*
X159217600Y-83504800D01*
X159217600Y-86555500D02*
X159217600Y-84517600D01*
X159217600Y-84517600D02*
X159217600Y-84568100D01*
X159217600Y-84568100D02*
X159168100Y-84617600D01*
%TO.N,/CLK1*%
X160600000Y-85300000D02*
X160517600Y-86555500D01*
%TO.N,/VE*%
X152500000Y-67500000D02*
X154300000Y-65700000D01*
X154300000Y-65700000D02*
X154500000Y-65700000D01*
X156425000Y-65675000D02*
X154525000Y-65675000D01*
X154525000Y-65675000D02*
X154500000Y-65700000D01*
%TO.N,/VA*%
X152500000Y-42500000D02*
X154000000Y-44000000D01*
X154000000Y-44000000D02*
X160000000Y-44000000D01*
X160000000Y-44000000D02*
X161000000Y-45000000D01*
X161000000Y-45000000D02*
X161000000Y-55500000D01*
X161000000Y-55500000D02*
X162000000Y-56500000D01*
X161575000Y-58055000D02*
X161575000Y-56925000D01*
X161575000Y-56925000D02*
X162000000Y-56500000D01*
%TO.N,/CLK2*%
X161167600Y-72667600D02*
X161167600Y-73115885D01*
X162047200Y-71467600D02*
G75*
G03*
X161747181Y-71167600I-300000J0D01*
G01*
X160588019Y-72367600D02*
X160867600Y-72367600D01*
X161467600Y-71167600D02*
X161747181Y-71167600D01*
X161747181Y-71767600D02*
X161467600Y-71767600D01*
X161167600Y-67352400D02*
X161167600Y-70867600D01*
X161575000Y-66945000D02*
X161167600Y-67352400D01*
X160588019Y-72367581D02*
G75*
G02*
X160288019Y-72067600I-19J299981D01*
G01*
X161467600Y-71767600D02*
X160588019Y-71767600D01*
X161747181Y-71767581D02*
G75*
G03*
X162047181Y-71467600I19J299981D01*
G01*
X161167600Y-72667600D02*
G75*
G03*
X160867600Y-72367600I-300000J0D01*
G01*
X160288000Y-72067600D02*
G75*
G02*
X160588019Y-71767600I300000J0D01*
G01*
X161467600Y-71167600D02*
G75*
G02*
X161167600Y-70867600I0J300000D01*
G01*
X161167600Y-73115885D02*
X161167600Y-80830500D01*
%TO.N,/CLK1*%
X159217600Y-80830500D02*
X159217600Y-66882400D01*
X159217600Y-66882400D02*
X160425000Y-65675000D01*
X160425000Y-65675000D02*
X161575000Y-65675000D01*
D25*
%TO.N,/RF*%
X159000000Y-60865000D02*
G75*
G03*
X160000000Y-61865000I1000000J0D01*
G01*
X159000000Y-56000000D02*
G75*
G03*
X158000000Y-55000000I-1000000J0D01*
G01*
X161575000Y-61865000D02*
X160000000Y-61865000D01*
X159000000Y-60865000D02*
X159000000Y-56000000D01*
X158000000Y-55000000D02*
X151500000Y-55000000D01*
%TO.N,/90*%
X164400000Y-40000000D02*
G75*
G03*
X163400000Y-41000000I0J-1000000D01*
G01*
X163400000Y-58325000D02*
G75*
G02*
X162400000Y-59325000I-1000000J0D01*
G01*
%TO.N,/0*%
X162400000Y-64405000D02*
G75*
G02*
X163400000Y-65405000I0J-1000000D01*
G01*
X163400000Y-84000000D02*
G75*
G03*
X164400000Y-85000000I1000000J0D01*
G01*
X161575000Y-64405000D02*
X162400000Y-64405000D01*
X163400000Y-65405000D02*
X163400000Y-84000000D01*
X164400000Y-85000000D02*
X166000000Y-85000000D01*
%TO.N,/90*%
X161575000Y-59325000D02*
X162400000Y-59325000D01*
X164400000Y-40000000D02*
X166000000Y-40000000D01*
X163400000Y-58325000D02*
X163400000Y-41000000D01*
%TO.N,/270*%
X163700000Y-60595000D02*
G75*
G03*
X164700000Y-59595000I0J1000000D01*
G01*
X164700000Y-56000000D02*
G75*
G02*
X165700000Y-55000000I1000000J0D01*
G01*
X161575000Y-60595000D02*
X163700000Y-60595000D01*
X164700000Y-59595000D02*
X164700000Y-56000000D01*
X165700000Y-55000000D02*
X166000000Y-55000000D01*
%TO.N,/180*%
X164700000Y-69000000D02*
G75*
G03*
X165700000Y-70000000I1000000J0D01*
G01*
X163700000Y-63135000D02*
G75*
G02*
X164700000Y-64135000I0J-1000000D01*
G01*
X164700000Y-64135000D02*
X164700000Y-69000000D01*
X161575000Y-63135000D02*
X163700000Y-63135000D01*
X165700000Y-70000000D02*
X166000000Y-70000000D01*
%TO.N,/0*%
X166000000Y-85000000D02*
X168500000Y-85000000D01*
%TO.N,/180*%
X166000000Y-70000000D02*
X168500000Y-70000000D01*
%TO.N,/270*%
X166000000Y-55000000D02*
X168500000Y-55000000D01*
%TO.N,/90*%
X166000000Y-40000000D02*
X168500000Y-40000000D01*
D24*
%TO.N,/VCC*%
X161167600Y-86555500D02*
X161817600Y-86555500D01*
X159217600Y-83504800D02*
X159867600Y-82854800D01*
X159867600Y-80830500D02*
X159867600Y-80244631D01*
X161817600Y-80182000D02*
X161817600Y-80830500D01*
X159867600Y-82854800D02*
X159867600Y-80830500D01*
X161847700Y-86525400D02*
X161817600Y-86555500D01*
%TO.N,/2xIF*%
X159867600Y-83794600D02*
X159867600Y-86555500D01*
X160517600Y-80830500D02*
X160517600Y-83144600D01*
X160517600Y-83144600D02*
X159867600Y-83794600D01*
%TD*%
%TA.AperFunction,Conductor*%
%TO.N,GND*%
G36*
X162769333Y-67228124D02*
G01*
X162798011Y-67282173D01*
X162799500Y-67299279D01*
X162799500Y-83954151D01*
X162798653Y-83967072D01*
X162794318Y-84000000D01*
X162796330Y-84015283D01*
X162796922Y-84021115D01*
X162811744Y-84228357D01*
X162860409Y-84452065D01*
X162940415Y-84666570D01*
X163050135Y-84867506D01*
X163093616Y-84925590D01*
X163157533Y-85010973D01*
X163187333Y-85050782D01*
X163349218Y-85212667D01*
X163352045Y-85214783D01*
X163352047Y-85214785D01*
X163365073Y-85224536D01*
X163532494Y-85349865D01*
X163535593Y-85351557D01*
X163716474Y-85450326D01*
X163733430Y-85459585D01*
X163947935Y-85539591D01*
X164171643Y-85588256D01*
X164378885Y-85603078D01*
X164384717Y-85603670D01*
X164400000Y-85605682D01*
X164432928Y-85601347D01*
X164445849Y-85600500D01*
X165525947Y-85600500D01*
X165570891Y-85611290D01*
X165616874Y-85634719D01*
X165624568Y-85635938D01*
X165624569Y-85635938D01*
X165712666Y-85649891D01*
X165712668Y-85649891D01*
X165716512Y-85650500D01*
X166283488Y-85650500D01*
X166287332Y-85649891D01*
X166287334Y-85649891D01*
X166375431Y-85635938D01*
X166375432Y-85635938D01*
X166383126Y-85634719D01*
X166429109Y-85611290D01*
X166474053Y-85600500D01*
X169700500Y-85600500D01*
X169758691Y-85619407D01*
X169794655Y-85668907D01*
X169799500Y-85699500D01*
X169799500Y-92465983D01*
X169796982Y-92488169D01*
X169794344Y-92499641D01*
X169796805Y-92510517D01*
X169796786Y-92521664D01*
X169796757Y-92521664D01*
X169797578Y-92531772D01*
X169783096Y-92771197D01*
X169781656Y-92783056D01*
X169733761Y-93044415D01*
X169730900Y-93056023D01*
X169651852Y-93309695D01*
X169647613Y-93320873D01*
X169538564Y-93563170D01*
X169533008Y-93573756D01*
X169395548Y-93801142D01*
X169388757Y-93810980D01*
X169224897Y-94020132D01*
X169216970Y-94029081D01*
X169029081Y-94216970D01*
X169020132Y-94224897D01*
X168810980Y-94388757D01*
X168801142Y-94395548D01*
X168573756Y-94533008D01*
X168563170Y-94538564D01*
X168320873Y-94647613D01*
X168309695Y-94651852D01*
X168056015Y-94730902D01*
X168044422Y-94733759D01*
X167783056Y-94781656D01*
X167771204Y-94783095D01*
X167532288Y-94797547D01*
X167522372Y-94796724D01*
X167522372Y-94796862D01*
X167511224Y-94796842D01*
X167500359Y-94794344D01*
X167488359Y-94797059D01*
X167466512Y-94799500D01*
X160699500Y-94799500D01*
X160641309Y-94780593D01*
X160605345Y-94731093D01*
X160600500Y-94700500D01*
X160600500Y-89457243D01*
X160601719Y-89441756D01*
X160606691Y-89410365D01*
X160606691Y-89410363D01*
X160607300Y-89406519D01*
X160607299Y-88793482D01*
X160592446Y-88699696D01*
X160534850Y-88586658D01*
X160445142Y-88496950D01*
X160438205Y-88493415D01*
X160438203Y-88493414D01*
X160383067Y-88465321D01*
X160350425Y-88448689D01*
X160307161Y-88405425D01*
X160304411Y-88399560D01*
X160300482Y-88390415D01*
X160294117Y-88369466D01*
X160292009Y-88358147D01*
X160278030Y-88335469D01*
X160271350Y-88322609D01*
X160263592Y-88304553D01*
X160260836Y-88298138D01*
X160256823Y-88293252D01*
X160252458Y-88288887D01*
X160238187Y-88270832D01*
X160238064Y-88270633D01*
X160233268Y-88262852D01*
X160210031Y-88245182D01*
X160199961Y-88236390D01*
X160197096Y-88233525D01*
X160169319Y-88179008D01*
X160168100Y-88163521D01*
X160168100Y-87563305D01*
X160187007Y-87505114D01*
X160236507Y-87469150D01*
X160297693Y-87469150D01*
X160307130Y-87472759D01*
X160340464Y-87487496D01*
X160340466Y-87487496D01*
X160347273Y-87490506D01*
X160354667Y-87491368D01*
X160369978Y-87493153D01*
X160372954Y-87493500D01*
X160662246Y-87493500D01*
X160680161Y-87491368D01*
X160681069Y-87491260D01*
X160681070Y-87491260D01*
X160688446Y-87490382D01*
X160790753Y-87444939D01*
X160791292Y-87444399D01*
X160845198Y-87428432D01*
X160893833Y-87444189D01*
X160894887Y-87445241D01*
X160903244Y-87448936D01*
X160903246Y-87448937D01*
X160990464Y-87487496D01*
X160990466Y-87487496D01*
X160997273Y-87490506D01*
X161004667Y-87491368D01*
X161019978Y-87493153D01*
X161022954Y-87493500D01*
X161312246Y-87493500D01*
X161330161Y-87491368D01*
X161331069Y-87491260D01*
X161331070Y-87491260D01*
X161338446Y-87490382D01*
X161385312Y-87469565D01*
X161446168Y-87463222D01*
X161499129Y-87493861D01*
X161523967Y-87549779D01*
X161524500Y-87560041D01*
X161524500Y-87650911D01*
X161505593Y-87709102D01*
X161465740Y-87738055D01*
X161466874Y-87740281D01*
X161353719Y-87797936D01*
X161353717Y-87797937D01*
X161346780Y-87801472D01*
X161251472Y-87896780D01*
X161190281Y-88016874D01*
X161189062Y-88024568D01*
X161189062Y-88024569D01*
X161176465Y-88104107D01*
X161174500Y-88116512D01*
X161174500Y-88683488D01*
X161190281Y-88783126D01*
X161251472Y-88903220D01*
X161346780Y-88998528D01*
X161353717Y-89002063D01*
X161353719Y-89002064D01*
X161459934Y-89056183D01*
X161466874Y-89059719D01*
X161474568Y-89060938D01*
X161474569Y-89060938D01*
X161562666Y-89074891D01*
X161562668Y-89074891D01*
X161566512Y-89075500D01*
X162083488Y-89075500D01*
X162087332Y-89074891D01*
X162087334Y-89074891D01*
X162175431Y-89060938D01*
X162175432Y-89060938D01*
X162183126Y-89059719D01*
X162190066Y-89056183D01*
X162296281Y-89002064D01*
X162296283Y-89002063D01*
X162303220Y-88998528D01*
X162398528Y-88903220D01*
X162459719Y-88783126D01*
X162475500Y-88683488D01*
X162475500Y-88116512D01*
X162473535Y-88104107D01*
X162460938Y-88024569D01*
X162460938Y-88024568D01*
X162459719Y-88016874D01*
X162398528Y-87896780D01*
X162303220Y-87801472D01*
X162296283Y-87797937D01*
X162296281Y-87797936D01*
X162183126Y-87740281D01*
X162184260Y-87738055D01*
X162144412Y-87709108D01*
X162125500Y-87650911D01*
X162125500Y-87451088D01*
X162144407Y-87392897D01*
X162154435Y-87381146D01*
X162163383Y-87372183D01*
X162163385Y-87372180D01*
X162169841Y-87365713D01*
X162215106Y-87263327D01*
X162218100Y-87237646D01*
X162218100Y-85873354D01*
X162214982Y-85847154D01*
X162169539Y-85744847D01*
X162147158Y-85722505D01*
X162119332Y-85668012D01*
X162118100Y-85652440D01*
X162118100Y-85071108D01*
X162118403Y-85066983D01*
X162120025Y-85062258D01*
X162118170Y-85012838D01*
X162118100Y-85009125D01*
X162118100Y-81733501D01*
X162137007Y-81675310D01*
X162147035Y-81663559D01*
X162163383Y-81647183D01*
X162163385Y-81647181D01*
X162169841Y-81640713D01*
X162215106Y-81538327D01*
X162218100Y-81512646D01*
X162218100Y-80148354D01*
X162214982Y-80122154D01*
X162169539Y-80019847D01*
X162090313Y-79940759D01*
X162061191Y-79927884D01*
X161994736Y-79898504D01*
X161994734Y-79898504D01*
X161987927Y-79895494D01*
X161973922Y-79893861D01*
X161965094Y-79892832D01*
X161965093Y-79892832D01*
X161962246Y-79892500D01*
X161912399Y-79892500D01*
X161884861Y-79888593D01*
X161847432Y-79877754D01*
X161838331Y-79878542D01*
X161838329Y-79878542D01*
X161745011Y-79886624D01*
X161745010Y-79886624D01*
X161735904Y-79887413D01*
X161731341Y-79889644D01*
X161710349Y-79892500D01*
X161672954Y-79892500D01*
X161656551Y-79894452D01*
X161654131Y-79894740D01*
X161654130Y-79894740D01*
X161646754Y-79895618D01*
X161613998Y-79910168D01*
X161607288Y-79913148D01*
X161546432Y-79919491D01*
X161493471Y-79888851D01*
X161468633Y-79832934D01*
X161468100Y-79822672D01*
X161468100Y-72702553D01*
X161469604Y-72685361D01*
X161471232Y-72676128D01*
X161472736Y-72667600D01*
X161470955Y-72657503D01*
X161470074Y-72651400D01*
X161465848Y-72613887D01*
X161456749Y-72533131D01*
X161412055Y-72405404D01*
X161340061Y-72290825D01*
X161286340Y-72237104D01*
X161258563Y-72182587D01*
X161268134Y-72122155D01*
X161311399Y-72078890D01*
X161356344Y-72068100D01*
X161712214Y-72068100D01*
X161729412Y-72069605D01*
X161738633Y-72071232D01*
X161738636Y-72071232D01*
X161747162Y-72072736D01*
X161756729Y-72071050D01*
X161757562Y-72070903D01*
X161763669Y-72070022D01*
X161872220Y-72057798D01*
X161881633Y-72056738D01*
X161886876Y-72054904D01*
X161886879Y-72054903D01*
X161938748Y-72036755D01*
X162009363Y-72012050D01*
X162014072Y-72009091D01*
X162014075Y-72009090D01*
X162119237Y-71943019D01*
X162119240Y-71943017D01*
X162123946Y-71940060D01*
X162219636Y-71844376D01*
X162230485Y-71827112D01*
X162288675Y-71734507D01*
X162291634Y-71729798D01*
X162336329Y-71602071D01*
X162345224Y-71523133D01*
X162349655Y-71483809D01*
X162350535Y-71477707D01*
X162350813Y-71476130D01*
X162352317Y-71467600D01*
X162350589Y-71457798D01*
X162349708Y-71451694D01*
X162336971Y-71338651D01*
X162336970Y-71338648D01*
X162336348Y-71333125D01*
X162291651Y-71205394D01*
X162219651Y-71090812D01*
X162123958Y-70995126D01*
X162119251Y-70992169D01*
X162119249Y-70992167D01*
X162014074Y-70926088D01*
X162009371Y-70923133D01*
X162004130Y-70921299D01*
X162004127Y-70921298D01*
X161886886Y-70880280D01*
X161886883Y-70880279D01*
X161881637Y-70878444D01*
X161822447Y-70871778D01*
X161812176Y-70869958D01*
X161806559Y-70867717D01*
X161800266Y-70867100D01*
X161786463Y-70867100D01*
X161775386Y-70866478D01*
X161763369Y-70865125D01*
X161757270Y-70864245D01*
X161755691Y-70863967D01*
X161755690Y-70863967D01*
X161747162Y-70862464D01*
X161738636Y-70863968D01*
X161738634Y-70863968D01*
X161729412Y-70865595D01*
X161712214Y-70867100D01*
X161567100Y-70867100D01*
X161508909Y-70848193D01*
X161472945Y-70798693D01*
X161468100Y-70768100D01*
X161468100Y-67544500D01*
X161487007Y-67486309D01*
X161536507Y-67450345D01*
X161567100Y-67445500D01*
X162333218Y-67445500D01*
X162336801Y-67444972D01*
X162336808Y-67444972D01*
X162394499Y-67436479D01*
X162394501Y-67436478D01*
X162402112Y-67435358D01*
X162506855Y-67383932D01*
X162589293Y-67301350D01*
X162611557Y-67255803D01*
X162654099Y-67211827D01*
X162714364Y-67201255D01*
X162769333Y-67228124D01*
G37*
%TD.AperFunction*%
%TA.AperFunction,Conductor*%
G36*
X157967072Y-55601347D02*
G01*
X158000000Y-55605682D01*
X158006433Y-55604835D01*
X158006435Y-55604835D01*
X158006754Y-55604793D01*
X158032600Y-55604792D01*
X158081956Y-55611290D01*
X158090478Y-55612412D01*
X158115441Y-55619101D01*
X158169056Y-55641309D01*
X158187708Y-55649035D01*
X158210089Y-55661956D01*
X158272153Y-55709580D01*
X158290420Y-55727847D01*
X158321375Y-55768188D01*
X158338043Y-55789910D01*
X158350965Y-55812292D01*
X158380899Y-55884560D01*
X158387588Y-55909522D01*
X158395208Y-55967397D01*
X158395207Y-55993246D01*
X158394318Y-56000000D01*
X158395165Y-56006433D01*
X158398653Y-56032927D01*
X158399500Y-56045849D01*
X158399500Y-60819151D01*
X158398653Y-60832072D01*
X158394318Y-60865000D01*
X158396330Y-60880283D01*
X158396922Y-60886115D01*
X158411744Y-61093357D01*
X158460409Y-61317065D01*
X158540415Y-61531570D01*
X158650135Y-61732506D01*
X158787333Y-61915782D01*
X158949218Y-62077667D01*
X159132494Y-62214865D01*
X159333430Y-62324585D01*
X159547935Y-62404591D01*
X159771643Y-62453256D01*
X159978885Y-62468078D01*
X159984717Y-62468670D01*
X160000000Y-62470682D01*
X160032928Y-62466347D01*
X160045849Y-62465500D01*
X160686486Y-62465500D01*
X160744677Y-62484407D01*
X160780641Y-62533907D01*
X160780641Y-62595093D01*
X160744677Y-62644593D01*
X160730116Y-62653367D01*
X160643145Y-62696068D01*
X160560707Y-62778650D01*
X160509464Y-62883482D01*
X160508355Y-62891084D01*
X160508354Y-62891087D01*
X160504105Y-62920215D01*
X160499500Y-62951782D01*
X160499500Y-63318218D01*
X160509642Y-63387112D01*
X160561068Y-63491855D01*
X160643650Y-63574293D01*
X160748482Y-63625536D01*
X160756084Y-63626645D01*
X160756087Y-63626646D01*
X160813237Y-63634983D01*
X160813239Y-63634983D01*
X160816782Y-63635500D01*
X161207228Y-63635500D01*
X161260644Y-63653633D01*
X161261390Y-63652341D01*
X161267013Y-63655587D01*
X161272159Y-63659536D01*
X161318029Y-63678536D01*
X161364554Y-63718273D01*
X161378838Y-63777767D01*
X161355423Y-63834295D01*
X161318029Y-63861464D01*
X161272159Y-63880464D01*
X161267013Y-63884413D01*
X161261390Y-63887659D01*
X161260644Y-63886367D01*
X161207228Y-63904500D01*
X160816782Y-63904500D01*
X160813199Y-63905028D01*
X160813192Y-63905028D01*
X160755501Y-63913521D01*
X160755499Y-63913522D01*
X160747888Y-63914642D01*
X160643145Y-63966068D01*
X160560707Y-64048650D01*
X160509464Y-64153482D01*
X160508355Y-64161084D01*
X160508354Y-64161087D01*
X160504105Y-64190215D01*
X160499500Y-64221782D01*
X160499500Y-64588218D01*
X160509642Y-64657112D01*
X160561068Y-64761855D01*
X160643650Y-64844293D01*
X160748482Y-64895536D01*
X160756084Y-64896645D01*
X160756087Y-64896646D01*
X160813237Y-64904983D01*
X160813239Y-64904983D01*
X160816782Y-64905500D01*
X161207228Y-64905500D01*
X161260644Y-64923633D01*
X161261390Y-64922341D01*
X161267013Y-64925587D01*
X161272159Y-64929536D01*
X161328649Y-64952935D01*
X161403733Y-64984036D01*
X161450258Y-65023773D01*
X161464542Y-65083268D01*
X161441127Y-65139795D01*
X161388958Y-65171765D01*
X161365847Y-65174500D01*
X160816782Y-65174500D01*
X160813199Y-65175028D01*
X160813192Y-65175028D01*
X160755501Y-65183521D01*
X160755499Y-65183522D01*
X160747888Y-65184642D01*
X160740982Y-65188033D01*
X160740981Y-65188033D01*
X160705914Y-65205250D01*
X160643145Y-65236068D01*
X160560707Y-65318650D01*
X160557114Y-65326000D01*
X160552793Y-65332058D01*
X160503609Y-65368452D01*
X160469616Y-65371456D01*
X160469658Y-65372575D01*
X160420250Y-65374430D01*
X160416536Y-65374500D01*
X160397052Y-65374500D01*
X160392620Y-65375325D01*
X160387430Y-65375662D01*
X160357791Y-65376775D01*
X160347219Y-65381317D01*
X160326266Y-65387683D01*
X160323934Y-65388117D01*
X160323932Y-65388118D01*
X160314947Y-65389791D01*
X160292268Y-65403771D01*
X160279407Y-65410451D01*
X160254937Y-65420964D01*
X160250051Y-65424978D01*
X160245687Y-65429342D01*
X160227632Y-65443613D01*
X160219652Y-65448532D01*
X160201982Y-65471769D01*
X160193190Y-65481839D01*
X159042949Y-66632080D01*
X159039820Y-66634780D01*
X159035331Y-66636975D01*
X159029113Y-66643678D01*
X159001707Y-66673222D01*
X158999131Y-66675898D01*
X158985352Y-66689677D01*
X158982807Y-66693387D01*
X158979371Y-66697300D01*
X158959199Y-66719046D01*
X158955812Y-66727534D01*
X158955812Y-66727535D01*
X158954934Y-66729736D01*
X158944620Y-66749052D01*
X158943279Y-66751007D01*
X158943278Y-66751010D01*
X158938108Y-66758546D01*
X158935998Y-66767438D01*
X158931959Y-66784458D01*
X158927586Y-66798284D01*
X158920306Y-66816532D01*
X158917717Y-66823022D01*
X158917100Y-66829315D01*
X158917100Y-66835484D01*
X158914425Y-66858343D01*
X158912260Y-66867466D01*
X158916196Y-66896387D01*
X158917100Y-66909737D01*
X158917100Y-79822695D01*
X158898193Y-79880886D01*
X158848693Y-79916850D01*
X158787507Y-79916850D01*
X158778070Y-79913241D01*
X158744736Y-79898504D01*
X158744734Y-79898504D01*
X158737927Y-79895494D01*
X158723922Y-79893861D01*
X158715094Y-79892832D01*
X158715093Y-79892832D01*
X158712246Y-79892500D01*
X158422954Y-79892500D01*
X158406551Y-79894452D01*
X158404131Y-79894740D01*
X158404130Y-79894740D01*
X158396754Y-79895618D01*
X158294447Y-79941061D01*
X158215359Y-80020287D01*
X158170094Y-80122673D01*
X158167100Y-80148354D01*
X158167100Y-81512646D01*
X158170218Y-81538846D01*
X158215661Y-81641153D01*
X158294887Y-81720241D01*
X158303245Y-81723936D01*
X158310787Y-81729100D01*
X158308950Y-81731783D01*
X158342790Y-81762099D01*
X158355660Y-81821916D01*
X158327181Y-81881817D01*
X157091049Y-83117949D01*
X157087920Y-83120649D01*
X157083431Y-83122844D01*
X157077213Y-83129547D01*
X157049807Y-83159091D01*
X157047231Y-83161767D01*
X157033452Y-83175546D01*
X157030907Y-83179256D01*
X157027471Y-83183169D01*
X157007299Y-83204915D01*
X157003912Y-83213403D01*
X157003912Y-83213404D01*
X157003034Y-83215605D01*
X156992720Y-83234921D01*
X156991379Y-83236876D01*
X156991378Y-83236879D01*
X156986208Y-83244415D01*
X156984098Y-83253307D01*
X156980059Y-83270327D01*
X156975686Y-83284153D01*
X156970559Y-83297004D01*
X156965817Y-83308891D01*
X156965200Y-83315184D01*
X156965200Y-83321353D01*
X156962525Y-83344212D01*
X156960360Y-83353335D01*
X156962324Y-83367764D01*
X156964296Y-83382256D01*
X156965200Y-83395606D01*
X156965200Y-84724846D01*
X156946293Y-84783037D01*
X156926469Y-84803387D01*
X156837418Y-84871718D01*
X156741164Y-84997159D01*
X156680656Y-85143238D01*
X156660018Y-85300000D01*
X156680656Y-85456762D01*
X156741164Y-85602841D01*
X156837418Y-85728282D01*
X156962859Y-85824536D01*
X157001074Y-85840365D01*
X157087790Y-85876284D01*
X157108938Y-85885044D01*
X157265700Y-85905682D01*
X157405179Y-85887319D01*
X157465338Y-85898469D01*
X157507456Y-85942851D01*
X157517100Y-85985472D01*
X157517100Y-87237646D01*
X157520218Y-87263846D01*
X157561753Y-87357353D01*
X157563067Y-87360312D01*
X157569410Y-87421167D01*
X157538771Y-87474129D01*
X157482854Y-87498967D01*
X157472591Y-87499500D01*
X157365479Y-87499500D01*
X157307288Y-87480593D01*
X157295475Y-87470504D01*
X156429496Y-86604525D01*
X156401719Y-86550008D01*
X156400500Y-86534521D01*
X156400500Y-75163565D01*
X156400803Y-75159436D01*
X156402426Y-75154709D01*
X156400570Y-75105274D01*
X156400500Y-75101560D01*
X156400500Y-75082103D01*
X156399675Y-75077673D01*
X156399339Y-75072487D01*
X156398569Y-75051976D01*
X156398569Y-75051975D01*
X156398226Y-75042843D01*
X156394620Y-75034449D01*
X156394619Y-75034446D01*
X156393683Y-75032268D01*
X156387317Y-75011317D01*
X156385209Y-74999998D01*
X156371230Y-74977320D01*
X156364550Y-74964460D01*
X156356792Y-74946404D01*
X156354036Y-74939989D01*
X156350023Y-74935103D01*
X156345658Y-74930738D01*
X156331387Y-74912683D01*
X156331264Y-74912484D01*
X156326468Y-74904703D01*
X156303231Y-74887033D01*
X156293161Y-74878241D01*
X153740269Y-72325349D01*
X153737569Y-72322220D01*
X153735374Y-72317731D01*
X153699127Y-72284107D01*
X153696451Y-72281531D01*
X153682672Y-72267752D01*
X153678962Y-72265207D01*
X153675049Y-72261771D01*
X153660004Y-72247815D01*
X153653303Y-72241599D01*
X153642613Y-72237334D01*
X153623297Y-72227020D01*
X153621342Y-72225679D01*
X153621339Y-72225678D01*
X153613803Y-72220508D01*
X153587890Y-72214359D01*
X153574065Y-72209986D01*
X153555817Y-72202706D01*
X153555815Y-72202706D01*
X153549327Y-72200117D01*
X153543034Y-72199500D01*
X153536865Y-72199500D01*
X153514006Y-72196825D01*
X153513776Y-72196770D01*
X153513774Y-72196770D01*
X153504883Y-72194660D01*
X153475962Y-72198596D01*
X153462612Y-72199500D01*
X153421056Y-72199500D01*
X153362865Y-72180593D01*
X153330614Y-72140765D01*
X153328782Y-72136650D01*
X153327179Y-72131716D01*
X153297746Y-72080735D01*
X153235126Y-71972275D01*
X153235125Y-71972274D01*
X153232533Y-71967784D01*
X153224044Y-71958356D01*
X153109341Y-71830965D01*
X153109337Y-71830962D01*
X153105871Y-71827112D01*
X152952730Y-71715849D01*
X152947998Y-71713742D01*
X152947996Y-71713741D01*
X152784540Y-71640965D01*
X152784539Y-71640965D01*
X152779803Y-71638856D01*
X152774733Y-71637778D01*
X152774732Y-71637778D01*
X152737390Y-71629841D01*
X152594646Y-71599500D01*
X152405354Y-71599500D01*
X152262610Y-71629841D01*
X152225268Y-71637778D01*
X152225267Y-71637778D01*
X152220197Y-71638856D01*
X152215461Y-71640965D01*
X152215460Y-71640965D01*
X152052004Y-71713741D01*
X152052002Y-71713742D01*
X152047270Y-71715849D01*
X151894129Y-71827112D01*
X151890663Y-71830962D01*
X151890659Y-71830965D01*
X151775956Y-71958356D01*
X151767467Y-71967784D01*
X151764875Y-71972274D01*
X151764874Y-71972275D01*
X151703574Y-72078451D01*
X151672821Y-72131716D01*
X151671220Y-72136645D01*
X151671219Y-72136646D01*
X151615928Y-72306812D01*
X151615927Y-72306817D01*
X151614326Y-72311744D01*
X151594540Y-72500000D01*
X151614326Y-72688256D01*
X151615927Y-72693183D01*
X151615928Y-72693188D01*
X151671219Y-72863354D01*
X151672821Y-72868284D01*
X151767467Y-73032216D01*
X151770939Y-73036072D01*
X151890659Y-73169035D01*
X151890663Y-73169038D01*
X151894129Y-73172888D01*
X152047270Y-73284151D01*
X152052002Y-73286258D01*
X152052004Y-73286259D01*
X152215460Y-73359035D01*
X152220197Y-73361144D01*
X152225267Y-73362222D01*
X152225268Y-73362222D01*
X152262610Y-73370159D01*
X152405354Y-73400500D01*
X152594646Y-73400500D01*
X152737390Y-73370159D01*
X152774732Y-73362222D01*
X152774733Y-73362222D01*
X152779803Y-73361144D01*
X152784540Y-73359035D01*
X152947996Y-73286259D01*
X152947998Y-73286258D01*
X152952730Y-73284151D01*
X153105871Y-73172888D01*
X153109337Y-73169038D01*
X153109341Y-73169035D01*
X153229061Y-73036072D01*
X153232533Y-73032216D01*
X153301498Y-72912765D01*
X153346968Y-72871824D01*
X153407818Y-72865428D01*
X153457239Y-72892261D01*
X155770504Y-75205526D01*
X155798281Y-75260043D01*
X155799500Y-75275530D01*
X155799500Y-86646492D01*
X155799197Y-86650617D01*
X155797575Y-86655342D01*
X155797918Y-86664476D01*
X155799430Y-86704761D01*
X155799500Y-86708474D01*
X155799500Y-86727948D01*
X155800325Y-86732378D01*
X155800661Y-86737571D01*
X155801774Y-86767208D01*
X155805380Y-86775602D01*
X155805381Y-86775605D01*
X155806317Y-86777783D01*
X155812683Y-86798734D01*
X155814791Y-86810053D01*
X155819588Y-86817835D01*
X155828768Y-86832728D01*
X155835451Y-86845595D01*
X155845964Y-86870063D01*
X155849978Y-86874949D01*
X155854342Y-86879313D01*
X155868613Y-86897368D01*
X155873532Y-86905348D01*
X155896769Y-86923018D01*
X155906839Y-86931810D01*
X156949680Y-87974651D01*
X156952380Y-87977780D01*
X156954575Y-87982269D01*
X156961278Y-87988487D01*
X156990822Y-88015893D01*
X156993498Y-88018469D01*
X157007277Y-88032248D01*
X157010987Y-88034793D01*
X157014900Y-88038229D01*
X157036646Y-88058401D01*
X157045134Y-88061788D01*
X157045135Y-88061788D01*
X157047336Y-88062666D01*
X157066652Y-88072980D01*
X157068607Y-88074321D01*
X157068610Y-88074322D01*
X157076146Y-88079492D01*
X157102058Y-88085641D01*
X157115884Y-88090014D01*
X157134132Y-88097294D01*
X157134134Y-88097294D01*
X157140622Y-88099883D01*
X157146915Y-88100500D01*
X157153084Y-88100500D01*
X157175943Y-88103175D01*
X157176173Y-88103230D01*
X157176175Y-88103230D01*
X157185066Y-88105340D01*
X157213988Y-88101404D01*
X157227337Y-88100500D01*
X158946492Y-88100500D01*
X158950617Y-88100803D01*
X158955342Y-88102425D01*
X159004761Y-88100570D01*
X159008474Y-88100500D01*
X159027948Y-88100500D01*
X159032378Y-88099675D01*
X159037571Y-88099339D01*
X159053602Y-88098737D01*
X159058075Y-88098569D01*
X159067208Y-88098226D01*
X159075602Y-88094620D01*
X159075605Y-88094619D01*
X159077783Y-88093683D01*
X159098734Y-88087317D01*
X159110053Y-88085209D01*
X159132729Y-88071232D01*
X159145596Y-88064548D01*
X159163642Y-88056795D01*
X159163643Y-88056794D01*
X159170063Y-88054036D01*
X159174949Y-88050022D01*
X159179313Y-88045658D01*
X159197368Y-88031387D01*
X159205348Y-88026468D01*
X159223018Y-88003231D01*
X159231810Y-87993161D01*
X159392251Y-87832720D01*
X159395380Y-87830019D01*
X159399869Y-87827825D01*
X159406085Y-87821124D01*
X159409073Y-87818905D01*
X159467062Y-87799388D01*
X159525448Y-87817685D01*
X159561929Y-87866805D01*
X159567100Y-87898383D01*
X159567100Y-88275492D01*
X159566797Y-88279617D01*
X159565175Y-88284342D01*
X159565518Y-88293476D01*
X159567030Y-88333761D01*
X159567100Y-88337474D01*
X159567100Y-88356948D01*
X159567925Y-88361378D01*
X159568261Y-88366571D01*
X159569374Y-88396208D01*
X159572981Y-88404603D01*
X159574991Y-88413524D01*
X159573755Y-88413803D01*
X159578488Y-88465321D01*
X159551933Y-88513475D01*
X159478750Y-88586658D01*
X159421154Y-88699696D01*
X159406300Y-88793481D01*
X159406300Y-88902498D01*
X159405453Y-88915420D01*
X159399500Y-88960639D01*
X159399500Y-94700500D01*
X159380593Y-94758691D01*
X159331093Y-94794655D01*
X159300500Y-94799500D01*
X152534017Y-94799500D01*
X152511831Y-94796982D01*
X152511801Y-94796975D01*
X152500359Y-94794344D01*
X152489483Y-94796805D01*
X152478336Y-94796786D01*
X152478336Y-94796757D01*
X152468228Y-94797578D01*
X152338014Y-94789702D01*
X152228796Y-94783095D01*
X152216944Y-94781656D01*
X151955578Y-94733759D01*
X151943985Y-94730902D01*
X151690305Y-94651852D01*
X151679127Y-94647613D01*
X151436830Y-94538564D01*
X151426244Y-94533008D01*
X151198858Y-94395548D01*
X151189020Y-94388757D01*
X150979868Y-94224897D01*
X150970919Y-94216970D01*
X150783030Y-94029081D01*
X150775103Y-94020132D01*
X150611243Y-93810980D01*
X150604452Y-93801142D01*
X150466992Y-93573756D01*
X150461436Y-93563170D01*
X150352387Y-93320873D01*
X150348148Y-93309695D01*
X150269100Y-93056023D01*
X150266239Y-93044415D01*
X150218344Y-92783056D01*
X150216904Y-92771197D01*
X150202469Y-92532548D01*
X150204207Y-92511810D01*
X150203747Y-92511757D01*
X150204389Y-92506179D01*
X150205655Y-92500718D01*
X150205656Y-92500000D01*
X150204412Y-92494545D01*
X150202980Y-92488266D01*
X150200500Y-92466248D01*
X150200500Y-67500000D01*
X151594540Y-67500000D01*
X151614326Y-67688256D01*
X151615927Y-67693183D01*
X151615928Y-67693188D01*
X151671219Y-67863354D01*
X151672821Y-67868284D01*
X151767467Y-68032216D01*
X151770939Y-68036072D01*
X151890659Y-68169035D01*
X151890663Y-68169038D01*
X151894129Y-68172888D01*
X152047270Y-68284151D01*
X152052002Y-68286258D01*
X152052004Y-68286259D01*
X152215460Y-68359035D01*
X152220197Y-68361144D01*
X152225267Y-68362222D01*
X152225268Y-68362222D01*
X152262610Y-68370159D01*
X152405354Y-68400500D01*
X152594646Y-68400500D01*
X152737390Y-68370159D01*
X152774732Y-68362222D01*
X152774733Y-68362222D01*
X152779803Y-68361144D01*
X152784540Y-68359035D01*
X152947996Y-68286259D01*
X152947998Y-68286258D01*
X152952730Y-68284151D01*
X153105871Y-68172888D01*
X153109337Y-68169038D01*
X153109341Y-68169035D01*
X153229061Y-68036072D01*
X153232533Y-68032216D01*
X153327179Y-67868284D01*
X153328781Y-67863354D01*
X153384072Y-67693188D01*
X153384073Y-67693183D01*
X153385674Y-67688256D01*
X153405460Y-67500000D01*
X153385674Y-67311744D01*
X153384073Y-67306817D01*
X153384072Y-67306812D01*
X153337607Y-67163810D01*
X153337607Y-67102625D01*
X153361758Y-67063213D01*
X154042113Y-66382859D01*
X154096630Y-66355082D01*
X154139377Y-66358446D01*
X154141874Y-66359719D01*
X154214259Y-66371184D01*
X154237666Y-66374891D01*
X154237668Y-66374891D01*
X154241512Y-66375500D01*
X154758488Y-66375500D01*
X154762332Y-66374891D01*
X154762334Y-66374891D01*
X154850431Y-66360938D01*
X154850432Y-66360938D01*
X154858126Y-66359719D01*
X154908885Y-66333856D01*
X154971281Y-66302064D01*
X154971283Y-66302063D01*
X154978220Y-66298528D01*
X155073528Y-66203220D01*
X155087916Y-66174983D01*
X155131183Y-66090066D01*
X155131183Y-66090065D01*
X155134719Y-66083126D01*
X155138538Y-66059013D01*
X155166315Y-66004497D01*
X155220831Y-65976719D01*
X155236319Y-65975500D01*
X155321717Y-65975500D01*
X155379908Y-65994407D01*
X155400786Y-66019225D01*
X155402698Y-66017856D01*
X155407462Y-66024510D01*
X155411068Y-66031855D01*
X155493650Y-66114293D01*
X155598482Y-66165536D01*
X155606084Y-66166645D01*
X155606087Y-66166646D01*
X155663237Y-66174983D01*
X155663239Y-66174983D01*
X155666782Y-66175500D01*
X157183218Y-66175500D01*
X157186801Y-66174972D01*
X157186808Y-66174972D01*
X157244499Y-66166479D01*
X157244501Y-66166478D01*
X157252112Y-66165358D01*
X157356855Y-66113932D01*
X157439293Y-66031350D01*
X157490536Y-65926518D01*
X157491645Y-65918916D01*
X157491646Y-65918913D01*
X157499983Y-65861763D01*
X157499983Y-65861761D01*
X157500500Y-65858218D01*
X157500500Y-65491782D01*
X157499037Y-65481839D01*
X157491479Y-65430501D01*
X157491478Y-65430499D01*
X157490358Y-65422888D01*
X157481576Y-65405000D01*
X157442538Y-65325490D01*
X157438932Y-65318145D01*
X157356350Y-65235707D01*
X157251518Y-65184464D01*
X157243916Y-65183355D01*
X157243913Y-65183354D01*
X157186763Y-65175017D01*
X157186761Y-65175017D01*
X157183218Y-65174500D01*
X155666782Y-65174500D01*
X155663199Y-65175028D01*
X155663192Y-65175028D01*
X155605501Y-65183521D01*
X155605499Y-65183522D01*
X155597888Y-65184642D01*
X155590982Y-65188033D01*
X155590981Y-65188033D01*
X155555914Y-65205250D01*
X155493145Y-65236068D01*
X155410707Y-65318650D01*
X155407114Y-65326001D01*
X155402361Y-65332664D01*
X155399360Y-65330524D01*
X155368083Y-65362912D01*
X155321605Y-65374500D01*
X155224089Y-65374500D01*
X155165898Y-65355593D01*
X155136945Y-65315740D01*
X155134719Y-65316874D01*
X155077064Y-65203719D01*
X155077063Y-65203717D01*
X155073528Y-65196780D01*
X154978220Y-65101472D01*
X154971283Y-65097937D01*
X154971281Y-65097936D01*
X154865066Y-65043817D01*
X154865065Y-65043817D01*
X154858126Y-65040281D01*
X154850432Y-65039062D01*
X154850431Y-65039062D01*
X154762334Y-65025109D01*
X154762332Y-65025109D01*
X154758488Y-65024500D01*
X154241512Y-65024500D01*
X154237668Y-65025109D01*
X154237666Y-65025109D01*
X154149569Y-65039062D01*
X154149568Y-65039062D01*
X154141874Y-65040281D01*
X154134935Y-65043817D01*
X154134934Y-65043817D01*
X154028719Y-65097936D01*
X154028717Y-65097937D01*
X154021780Y-65101472D01*
X153926472Y-65196780D01*
X153922937Y-65203717D01*
X153922936Y-65203719D01*
X153903503Y-65241859D01*
X153865281Y-65316874D01*
X153864062Y-65324568D01*
X153864062Y-65324569D01*
X153851519Y-65403765D01*
X153849500Y-65416512D01*
X153849500Y-65684521D01*
X153830593Y-65742712D01*
X153820504Y-65754525D01*
X152936112Y-66638917D01*
X152881595Y-66666694D01*
X152825842Y-66659354D01*
X152779803Y-66638856D01*
X152774733Y-66637778D01*
X152774732Y-66637778D01*
X152737390Y-66629841D01*
X152594646Y-66599500D01*
X152405354Y-66599500D01*
X152262610Y-66629841D01*
X152225268Y-66637778D01*
X152225267Y-66637778D01*
X152220197Y-66638856D01*
X152215461Y-66640965D01*
X152215460Y-66640965D01*
X152052004Y-66713741D01*
X152052002Y-66713742D01*
X152047270Y-66715849D01*
X151894129Y-66827112D01*
X151890663Y-66830962D01*
X151890659Y-66830965D01*
X151831753Y-66896387D01*
X151767467Y-66967784D01*
X151764875Y-66972274D01*
X151764874Y-66972275D01*
X151689617Y-67102625D01*
X151672821Y-67131716D01*
X151671220Y-67136645D01*
X151671219Y-67136646D01*
X151615928Y-67306812D01*
X151615927Y-67306817D01*
X151614326Y-67311744D01*
X151594540Y-67500000D01*
X150200500Y-67500000D01*
X150200500Y-63318218D01*
X155349500Y-63318218D01*
X155359642Y-63387112D01*
X155411068Y-63491855D01*
X155493650Y-63574293D01*
X155598482Y-63625536D01*
X155606084Y-63626645D01*
X155606087Y-63626646D01*
X155663237Y-63634983D01*
X155663239Y-63634983D01*
X155666782Y-63635500D01*
X157183218Y-63635500D01*
X157186801Y-63634972D01*
X157186808Y-63634972D01*
X157244499Y-63626479D01*
X157244501Y-63626478D01*
X157252112Y-63625358D01*
X157356855Y-63573932D01*
X157439293Y-63491350D01*
X157490536Y-63386518D01*
X157491645Y-63378916D01*
X157491646Y-63378913D01*
X157499983Y-63321763D01*
X157499983Y-63321761D01*
X157500500Y-63318218D01*
X157500500Y-62951782D01*
X157496533Y-62924829D01*
X157491479Y-62890501D01*
X157491478Y-62890499D01*
X157490358Y-62882888D01*
X157438932Y-62778145D01*
X157356350Y-62695707D01*
X157251518Y-62644464D01*
X157243916Y-62643355D01*
X157243913Y-62643354D01*
X157186763Y-62635017D01*
X157186761Y-62635017D01*
X157183218Y-62634500D01*
X155666782Y-62634500D01*
X155663199Y-62635028D01*
X155663192Y-62635028D01*
X155605501Y-62643521D01*
X155605499Y-62643522D01*
X155597888Y-62644642D01*
X155493145Y-62696068D01*
X155410707Y-62778650D01*
X155359464Y-62883482D01*
X155358355Y-62891084D01*
X155358354Y-62891087D01*
X155354105Y-62920215D01*
X155349500Y-62951782D01*
X155349500Y-63318218D01*
X150200500Y-63318218D01*
X150200500Y-62048218D01*
X155349500Y-62048218D01*
X155350028Y-62051801D01*
X155350028Y-62051808D01*
X155353835Y-62077667D01*
X155359642Y-62117112D01*
X155411068Y-62221855D01*
X155493650Y-62304293D01*
X155598482Y-62355536D01*
X155606084Y-62356645D01*
X155606087Y-62356646D01*
X155663237Y-62364983D01*
X155663239Y-62364983D01*
X155666782Y-62365500D01*
X157183218Y-62365500D01*
X157186801Y-62364972D01*
X157186808Y-62364972D01*
X157244499Y-62356479D01*
X157244501Y-62356478D01*
X157252112Y-62355358D01*
X157356855Y-62303932D01*
X157439293Y-62221350D01*
X157490536Y-62116518D01*
X157491645Y-62108916D01*
X157491646Y-62108913D01*
X157499983Y-62051763D01*
X157499983Y-62051761D01*
X157500500Y-62048218D01*
X157500500Y-61681782D01*
X157490358Y-61612888D01*
X157438932Y-61508145D01*
X157356350Y-61425707D01*
X157251518Y-61374464D01*
X157243916Y-61373355D01*
X157243913Y-61373354D01*
X157186763Y-61365017D01*
X157186761Y-61365017D01*
X157183218Y-61364500D01*
X155666782Y-61364500D01*
X155663199Y-61365028D01*
X155663192Y-61365028D01*
X155605501Y-61373521D01*
X155605499Y-61373522D01*
X155597888Y-61374642D01*
X155493145Y-61426068D01*
X155410707Y-61508650D01*
X155359464Y-61613482D01*
X155358355Y-61621084D01*
X155358354Y-61621087D01*
X155350024Y-61678192D01*
X155349500Y-61681782D01*
X155349500Y-62048218D01*
X150200500Y-62048218D01*
X150200500Y-60778218D01*
X155349500Y-60778218D01*
X155350028Y-60781801D01*
X155350028Y-60781808D01*
X155356481Y-60825639D01*
X155359642Y-60847112D01*
X155363033Y-60854018D01*
X155363033Y-60854019D01*
X155375919Y-60880264D01*
X155411068Y-60951855D01*
X155493650Y-61034293D01*
X155598482Y-61085536D01*
X155606084Y-61086645D01*
X155606087Y-61086646D01*
X155663237Y-61094983D01*
X155663239Y-61094983D01*
X155666782Y-61095500D01*
X157183218Y-61095500D01*
X157186801Y-61094972D01*
X157186808Y-61094972D01*
X157244499Y-61086479D01*
X157244501Y-61086478D01*
X157252112Y-61085358D01*
X157356855Y-61033932D01*
X157439293Y-60951350D01*
X157490536Y-60846518D01*
X157491645Y-60838916D01*
X157491646Y-60838913D01*
X157499983Y-60781763D01*
X157499983Y-60781761D01*
X157500500Y-60778218D01*
X157500500Y-60411782D01*
X157490358Y-60342888D01*
X157438932Y-60238145D01*
X157356350Y-60155707D01*
X157251518Y-60104464D01*
X157243916Y-60103355D01*
X157243913Y-60103354D01*
X157186763Y-60095017D01*
X157186761Y-60095017D01*
X157183218Y-60094500D01*
X155666782Y-60094500D01*
X155663199Y-60095028D01*
X155663192Y-60095028D01*
X155605501Y-60103521D01*
X155605499Y-60103522D01*
X155597888Y-60104642D01*
X155493145Y-60156068D01*
X155410707Y-60238650D01*
X155359464Y-60343482D01*
X155358355Y-60351084D01*
X155358354Y-60351087D01*
X155350024Y-60408192D01*
X155349500Y-60411782D01*
X155349500Y-60778218D01*
X150200500Y-60778218D01*
X150200500Y-59508218D01*
X155349500Y-59508218D01*
X155350028Y-59511801D01*
X155350028Y-59511808D01*
X155356481Y-59555639D01*
X155359642Y-59577112D01*
X155363033Y-59584018D01*
X155363033Y-59584019D01*
X155375919Y-59610264D01*
X155411068Y-59681855D01*
X155493650Y-59764293D01*
X155598482Y-59815536D01*
X155606084Y-59816645D01*
X155606087Y-59816646D01*
X155663237Y-59824983D01*
X155663239Y-59824983D01*
X155666782Y-59825500D01*
X157183218Y-59825500D01*
X157186801Y-59824972D01*
X157186808Y-59824972D01*
X157244499Y-59816479D01*
X157244501Y-59816478D01*
X157252112Y-59815358D01*
X157356855Y-59763932D01*
X157439293Y-59681350D01*
X157490536Y-59576518D01*
X157491645Y-59568916D01*
X157491646Y-59568913D01*
X157499983Y-59511763D01*
X157499983Y-59511761D01*
X157500500Y-59508218D01*
X157500500Y-59141782D01*
X157490358Y-59072888D01*
X157438932Y-58968145D01*
X157356350Y-58885707D01*
X157251518Y-58834464D01*
X157243916Y-58833355D01*
X157243913Y-58833354D01*
X157186763Y-58825017D01*
X157186761Y-58825017D01*
X157183218Y-58824500D01*
X155666782Y-58824500D01*
X155663199Y-58825028D01*
X155663192Y-58825028D01*
X155605501Y-58833521D01*
X155605499Y-58833522D01*
X155597888Y-58834642D01*
X155493145Y-58886068D01*
X155410707Y-58968650D01*
X155359464Y-59073482D01*
X155358355Y-59081084D01*
X155358354Y-59081087D01*
X155350024Y-59138192D01*
X155349500Y-59141782D01*
X155349500Y-59508218D01*
X150200500Y-59508218D01*
X150200500Y-58238218D01*
X155349500Y-58238218D01*
X155359642Y-58307112D01*
X155363033Y-58314018D01*
X155363033Y-58314019D01*
X155377357Y-58343193D01*
X155411068Y-58411855D01*
X155493650Y-58494293D01*
X155598482Y-58545536D01*
X155606084Y-58546645D01*
X155606087Y-58546646D01*
X155663237Y-58554983D01*
X155663239Y-58554983D01*
X155666782Y-58555500D01*
X157183218Y-58555500D01*
X157186801Y-58554972D01*
X157186808Y-58554972D01*
X157244499Y-58546479D01*
X157244501Y-58546478D01*
X157252112Y-58545358D01*
X157356855Y-58493932D01*
X157439293Y-58411350D01*
X157490536Y-58306518D01*
X157491645Y-58298916D01*
X157491646Y-58298913D01*
X157499983Y-58241763D01*
X157499983Y-58241761D01*
X157500500Y-58238218D01*
X157500500Y-57871782D01*
X157490358Y-57802888D01*
X157438932Y-57698145D01*
X157356350Y-57615707D01*
X157251518Y-57564464D01*
X157243916Y-57563355D01*
X157243913Y-57563354D01*
X157186763Y-57555017D01*
X157186761Y-57555017D01*
X157183218Y-57554500D01*
X155666782Y-57554500D01*
X155663199Y-57555028D01*
X155663192Y-57555028D01*
X155605501Y-57563521D01*
X155605499Y-57563522D01*
X155597888Y-57564642D01*
X155493145Y-57616068D01*
X155410707Y-57698650D01*
X155359464Y-57803482D01*
X155358355Y-57811084D01*
X155358354Y-57811087D01*
X155350024Y-57868192D01*
X155349500Y-57871782D01*
X155349500Y-58238218D01*
X150200500Y-58238218D01*
X150200500Y-55699500D01*
X150219407Y-55641309D01*
X150268907Y-55605345D01*
X150299500Y-55600500D01*
X157954151Y-55600500D01*
X157967072Y-55601347D01*
G37*
%TD.AperFunction*%
%TA.AperFunction,Conductor*%
G36*
X164179593Y-69513862D02*
G01*
X164192258Y-69537456D01*
X164240415Y-69666570D01*
X164350135Y-69867506D01*
X164487333Y-70050782D01*
X164649218Y-70212667D01*
X164832494Y-70349865D01*
X165033430Y-70459585D01*
X165247935Y-70539591D01*
X165471643Y-70588256D01*
X165514504Y-70591321D01*
X165552383Y-70601859D01*
X165616874Y-70634719D01*
X165624570Y-70635938D01*
X165712666Y-70649891D01*
X165712668Y-70649891D01*
X165716512Y-70650500D01*
X166283488Y-70650500D01*
X166287332Y-70649891D01*
X166287334Y-70649891D01*
X166375431Y-70635938D01*
X166375432Y-70635938D01*
X166383126Y-70634719D01*
X166429109Y-70611290D01*
X166474053Y-70600500D01*
X169700500Y-70600500D01*
X169758691Y-70619407D01*
X169794655Y-70668907D01*
X169799500Y-70699500D01*
X169799500Y-84300500D01*
X169780593Y-84358691D01*
X169731093Y-84394655D01*
X169700500Y-84399500D01*
X166474053Y-84399500D01*
X166429108Y-84388710D01*
X166423576Y-84385891D01*
X166383126Y-84365281D01*
X166375432Y-84364062D01*
X166375431Y-84364062D01*
X166287334Y-84350109D01*
X166287332Y-84350109D01*
X166283488Y-84349500D01*
X165716512Y-84349500D01*
X165712668Y-84350109D01*
X165712666Y-84350109D01*
X165624569Y-84364062D01*
X165624568Y-84364062D01*
X165616874Y-84365281D01*
X165576425Y-84385891D01*
X165570892Y-84388710D01*
X165525947Y-84399500D01*
X164445849Y-84399500D01*
X164432927Y-84398653D01*
X164406760Y-84395208D01*
X164400000Y-84394318D01*
X164393567Y-84395165D01*
X164393565Y-84395165D01*
X164393246Y-84395207D01*
X164367400Y-84395208D01*
X164309522Y-84387588D01*
X164284560Y-84380899D01*
X164243911Y-84364062D01*
X164212292Y-84350965D01*
X164189910Y-84338043D01*
X164127847Y-84290420D01*
X164109580Y-84272153D01*
X164061956Y-84210089D01*
X164049035Y-84187708D01*
X164019101Y-84115440D01*
X164012412Y-84090478D01*
X164004792Y-84032603D01*
X164004793Y-84006754D01*
X164004835Y-84006435D01*
X164004835Y-84006431D01*
X164005682Y-84000000D01*
X164001347Y-83967072D01*
X164000500Y-83954151D01*
X164000500Y-69572053D01*
X164019407Y-69513862D01*
X164068907Y-69477898D01*
X164130093Y-69477898D01*
X164179593Y-69513862D01*
G37*
%TD.AperFunction*%
%TA.AperFunction,Conductor*%
G36*
X162769333Y-65958124D02*
G01*
X162798011Y-66012173D01*
X162799500Y-66029279D01*
X162799500Y-66590751D01*
X162780593Y-66648942D01*
X162731093Y-66684906D01*
X162669907Y-66684906D01*
X162620407Y-66648942D01*
X162611633Y-66634382D01*
X162592538Y-66595490D01*
X162588932Y-66588145D01*
X162506350Y-66505707D01*
X162401518Y-66454464D01*
X162393916Y-66453355D01*
X162393913Y-66453354D01*
X162336763Y-66445017D01*
X162336761Y-66445017D01*
X162333218Y-66444500D01*
X160816782Y-66444500D01*
X160813199Y-66445028D01*
X160813192Y-66445028D01*
X160755501Y-66453521D01*
X160755499Y-66453522D01*
X160747888Y-66454642D01*
X160643145Y-66506068D01*
X160560707Y-66588650D01*
X160509464Y-66693482D01*
X160508355Y-66701084D01*
X160508354Y-66701087D01*
X160504496Y-66727535D01*
X160499500Y-66761782D01*
X160499500Y-67128218D01*
X160500028Y-67131801D01*
X160500028Y-67131808D01*
X160508521Y-67189499D01*
X160509642Y-67197112D01*
X160561068Y-67301855D01*
X160643650Y-67384293D01*
X160748482Y-67435536D01*
X160781693Y-67440381D01*
X160782392Y-67440483D01*
X160837244Y-67467593D01*
X160865685Y-67521766D01*
X160867100Y-67538446D01*
X160867100Y-70832647D01*
X160865596Y-70849836D01*
X160862464Y-70867600D01*
X160863968Y-70876127D01*
X160864243Y-70877686D01*
X160865124Y-70883786D01*
X160878451Y-71002069D01*
X160923145Y-71129796D01*
X160995139Y-71244375D01*
X161048860Y-71298096D01*
X161076637Y-71352613D01*
X161067066Y-71413045D01*
X161023801Y-71456310D01*
X160978856Y-71467100D01*
X160622986Y-71467100D01*
X160605788Y-71465595D01*
X160596566Y-71463968D01*
X160596564Y-71463968D01*
X160588038Y-71462464D01*
X160579510Y-71463967D01*
X160579509Y-71463967D01*
X160577930Y-71464245D01*
X160571828Y-71465125D01*
X160519299Y-71471041D01*
X160453563Y-71478444D01*
X160448316Y-71480280D01*
X160448315Y-71480280D01*
X160331073Y-71521298D01*
X160331070Y-71521299D01*
X160325829Y-71523133D01*
X160321126Y-71526088D01*
X160215951Y-71592167D01*
X160215949Y-71592169D01*
X160211242Y-71595126D01*
X160115549Y-71690812D01*
X160043549Y-71805394D01*
X159998852Y-71933125D01*
X159998230Y-71938648D01*
X159998229Y-71938651D01*
X159985492Y-72051694D01*
X159984611Y-72057798D01*
X159982883Y-72067600D01*
X159984387Y-72076130D01*
X159984665Y-72077707D01*
X159985545Y-72083809D01*
X159998036Y-72194660D01*
X159998871Y-72202071D01*
X160043566Y-72329798D01*
X160115564Y-72444376D01*
X160211254Y-72540060D01*
X160215960Y-72543017D01*
X160215963Y-72543019D01*
X160321125Y-72609090D01*
X160321128Y-72609091D01*
X160325837Y-72612050D01*
X160396452Y-72636755D01*
X160448321Y-72654903D01*
X160448324Y-72654904D01*
X160453567Y-72656738D01*
X160512612Y-72663387D01*
X160522982Y-72665225D01*
X160528641Y-72667483D01*
X160534934Y-72668100D01*
X160548908Y-72668100D01*
X160559985Y-72668722D01*
X160571531Y-72670022D01*
X160577631Y-72670902D01*
X160588038Y-72672736D01*
X160596564Y-72671232D01*
X160596567Y-72671232D01*
X160605788Y-72669605D01*
X160622986Y-72668100D01*
X160768100Y-72668100D01*
X160826291Y-72687007D01*
X160862255Y-72736507D01*
X160867100Y-72767100D01*
X160867100Y-79822695D01*
X160848193Y-79880886D01*
X160798693Y-79916850D01*
X160737507Y-79916850D01*
X160728070Y-79913241D01*
X160694736Y-79898504D01*
X160694734Y-79898504D01*
X160687927Y-79895494D01*
X160673922Y-79893861D01*
X160665094Y-79892832D01*
X160665093Y-79892832D01*
X160662246Y-79892500D01*
X160372954Y-79892500D01*
X160356551Y-79894452D01*
X160354131Y-79894740D01*
X160354130Y-79894740D01*
X160346754Y-79895618D01*
X160244447Y-79941061D01*
X160243908Y-79941601D01*
X160190002Y-79957568D01*
X160141367Y-79941811D01*
X160140313Y-79940759D01*
X160131956Y-79937064D01*
X160131954Y-79937063D01*
X160044736Y-79898504D01*
X160044734Y-79898504D01*
X160037927Y-79895494D01*
X160023922Y-79893861D01*
X160015094Y-79892832D01*
X160015093Y-79892832D01*
X160012246Y-79892500D01*
X159722954Y-79892500D01*
X159706551Y-79894452D01*
X159704131Y-79894740D01*
X159704130Y-79894740D01*
X159696754Y-79895618D01*
X159663998Y-79910168D01*
X159657288Y-79913148D01*
X159596432Y-79919491D01*
X159543471Y-79888851D01*
X159518633Y-79832934D01*
X159518100Y-79822672D01*
X159518100Y-67047879D01*
X159537007Y-66989688D01*
X159547096Y-66977875D01*
X160457120Y-66067851D01*
X160511637Y-66040074D01*
X160572069Y-66049645D01*
X160597066Y-66067790D01*
X160643650Y-66114293D01*
X160748482Y-66165536D01*
X160756084Y-66166645D01*
X160756087Y-66166646D01*
X160813237Y-66174983D01*
X160813239Y-66174983D01*
X160816782Y-66175500D01*
X162333218Y-66175500D01*
X162336801Y-66174972D01*
X162336808Y-66174972D01*
X162394499Y-66166479D01*
X162394501Y-66166478D01*
X162402112Y-66165358D01*
X162506855Y-66113932D01*
X162589293Y-66031350D01*
X162611557Y-65985803D01*
X162654099Y-65941827D01*
X162714364Y-65931255D01*
X162769333Y-65958124D01*
G37*
%TD.AperFunction*%
%TA.AperFunction,Conductor*%
G36*
X169758691Y-55619407D02*
G01*
X169794655Y-55668907D01*
X169799500Y-55699500D01*
X169799500Y-69300500D01*
X169780593Y-69358691D01*
X169731093Y-69394655D01*
X169700500Y-69399500D01*
X166474053Y-69399500D01*
X166429108Y-69388710D01*
X166390066Y-69368817D01*
X166383126Y-69365281D01*
X166375432Y-69364062D01*
X166375431Y-69364062D01*
X166287334Y-69350109D01*
X166287332Y-69350109D01*
X166283488Y-69349500D01*
X165716512Y-69349500D01*
X165712668Y-69350109D01*
X165712666Y-69350109D01*
X165624569Y-69364062D01*
X165624568Y-69364062D01*
X165616874Y-69365281D01*
X165612592Y-69367463D01*
X165552917Y-69367462D01*
X165545626Y-69364772D01*
X165512292Y-69350965D01*
X165489910Y-69338043D01*
X165427847Y-69290420D01*
X165409580Y-69272153D01*
X165361956Y-69210089D01*
X165349035Y-69187708D01*
X165319101Y-69115440D01*
X165312412Y-69090478D01*
X165304792Y-69032603D01*
X165304793Y-69006754D01*
X165304835Y-69006435D01*
X165304835Y-69006433D01*
X165305682Y-69000000D01*
X165301347Y-68967072D01*
X165300500Y-68954151D01*
X165300500Y-64180849D01*
X165301347Y-64167927D01*
X165304835Y-64141433D01*
X165305682Y-64135000D01*
X165303670Y-64119717D01*
X165303077Y-64113875D01*
X165302256Y-64102397D01*
X165288256Y-63906643D01*
X165239591Y-63682935D01*
X165159585Y-63468430D01*
X165049865Y-63267494D01*
X164912667Y-63084218D01*
X164750782Y-62922333D01*
X164567506Y-62785135D01*
X164366570Y-62675415D01*
X164152065Y-62595409D01*
X163928357Y-62546744D01*
X163721115Y-62531922D01*
X163715283Y-62531330D01*
X163700000Y-62529318D01*
X163667073Y-62533653D01*
X163654151Y-62534500D01*
X162463514Y-62534500D01*
X162405323Y-62515593D01*
X162369359Y-62466093D01*
X162369359Y-62404907D01*
X162405323Y-62355407D01*
X162419883Y-62346633D01*
X162462278Y-62325818D01*
X162506855Y-62303932D01*
X162589293Y-62221350D01*
X162640536Y-62116518D01*
X162641645Y-62108916D01*
X162641646Y-62108913D01*
X162649983Y-62051763D01*
X162649983Y-62051761D01*
X162650500Y-62048218D01*
X162650500Y-61681782D01*
X162640358Y-61612888D01*
X162588932Y-61508145D01*
X162506350Y-61425707D01*
X162419887Y-61383443D01*
X162375911Y-61340902D01*
X162365338Y-61280637D01*
X162392208Y-61225667D01*
X162446257Y-61196989D01*
X162463363Y-61195500D01*
X163654151Y-61195500D01*
X163667072Y-61196347D01*
X163700000Y-61200682D01*
X163715283Y-61198670D01*
X163721115Y-61198078D01*
X163928357Y-61183256D01*
X164152065Y-61134591D01*
X164193604Y-61119098D01*
X164311594Y-61075090D01*
X164366570Y-61054585D01*
X164370008Y-61052708D01*
X164436307Y-61016505D01*
X164567506Y-60944865D01*
X164750782Y-60807667D01*
X164912667Y-60645782D01*
X165049865Y-60462506D01*
X165159585Y-60261570D01*
X165239591Y-60047065D01*
X165288256Y-59823357D01*
X165303078Y-59616115D01*
X165303670Y-59610283D01*
X165305682Y-59595000D01*
X165301347Y-59562072D01*
X165300500Y-59549151D01*
X165300500Y-56045849D01*
X165301347Y-56032927D01*
X165304835Y-56006433D01*
X165305682Y-56000000D01*
X165304793Y-55993246D01*
X165304792Y-55967397D01*
X165312412Y-55909522D01*
X165319101Y-55884560D01*
X165349035Y-55812292D01*
X165361957Y-55789910D01*
X165378625Y-55768188D01*
X165409580Y-55727847D01*
X165427847Y-55709580D01*
X165489911Y-55661956D01*
X165512292Y-55649035D01*
X165545626Y-55635228D01*
X165606623Y-55630428D01*
X165610720Y-55631583D01*
X165616874Y-55634719D01*
X165624568Y-55635938D01*
X165624569Y-55635938D01*
X165712666Y-55649891D01*
X165712668Y-55649891D01*
X165716512Y-55650500D01*
X166283488Y-55650500D01*
X166287332Y-55649891D01*
X166287334Y-55649891D01*
X166375431Y-55635938D01*
X166375432Y-55635938D01*
X166383126Y-55634719D01*
X166429109Y-55611290D01*
X166474053Y-55600500D01*
X169700500Y-55600500D01*
X169758691Y-55619407D01*
G37*
%TD.AperFunction*%
%TA.AperFunction,Conductor*%
G36*
X167488169Y-30203018D02*
G01*
X167499641Y-30205656D01*
X167510517Y-30203195D01*
X167521664Y-30203214D01*
X167521664Y-30203243D01*
X167531772Y-30202422D01*
X167661986Y-30210298D01*
X167771204Y-30216905D01*
X167783056Y-30218344D01*
X168044422Y-30266241D01*
X168056015Y-30269098D01*
X168262244Y-30333361D01*
X168309695Y-30348148D01*
X168320873Y-30352387D01*
X168563170Y-30461436D01*
X168573756Y-30466992D01*
X168801142Y-30604452D01*
X168810980Y-30611243D01*
X169020132Y-30775103D01*
X169029081Y-30783030D01*
X169216970Y-30970919D01*
X169224897Y-30979868D01*
X169388757Y-31189020D01*
X169395548Y-31198858D01*
X169533008Y-31426244D01*
X169538564Y-31436830D01*
X169647613Y-31679127D01*
X169651852Y-31690305D01*
X169730900Y-31943977D01*
X169733759Y-31955578D01*
X169781655Y-32216936D01*
X169783096Y-32228803D01*
X169797547Y-32467712D01*
X169796724Y-32477628D01*
X169796862Y-32477628D01*
X169796842Y-32488776D01*
X169794344Y-32499641D01*
X169796804Y-32510513D01*
X169797059Y-32511638D01*
X169799500Y-32533488D01*
X169799500Y-39300500D01*
X169780593Y-39358691D01*
X169731093Y-39394655D01*
X169700500Y-39399500D01*
X166474053Y-39399500D01*
X166429108Y-39388710D01*
X166390066Y-39368817D01*
X166383126Y-39365281D01*
X166375432Y-39364062D01*
X166375431Y-39364062D01*
X166287334Y-39350109D01*
X166287332Y-39350109D01*
X166283488Y-39349500D01*
X165716512Y-39349500D01*
X165712668Y-39350109D01*
X165712666Y-39350109D01*
X165624569Y-39364062D01*
X165624568Y-39364062D01*
X165616874Y-39365281D01*
X165609934Y-39368817D01*
X165570892Y-39388710D01*
X165525947Y-39399500D01*
X164445849Y-39399500D01*
X164432927Y-39398653D01*
X164400000Y-39394318D01*
X164384717Y-39396330D01*
X164378885Y-39396922D01*
X164171643Y-39411744D01*
X163947935Y-39460409D01*
X163733430Y-39540415D01*
X163532494Y-39650135D01*
X163349218Y-39787333D01*
X163187333Y-39949218D01*
X163050135Y-40132494D01*
X162940415Y-40333430D01*
X162860409Y-40547935D01*
X162811744Y-40771643D01*
X162811492Y-40775171D01*
X162796923Y-40978875D01*
X162796330Y-40984717D01*
X162794318Y-41000000D01*
X162795165Y-41006433D01*
X162798653Y-41032927D01*
X162799500Y-41045849D01*
X162799500Y-56027910D01*
X162780593Y-56086101D01*
X162731093Y-56122065D01*
X162669907Y-56122065D01*
X162620407Y-56086101D01*
X162612290Y-56072855D01*
X162577064Y-56003719D01*
X162577063Y-56003717D01*
X162573528Y-55996780D01*
X162478220Y-55901472D01*
X162471283Y-55897937D01*
X162471281Y-55897936D01*
X162365066Y-55843817D01*
X162365065Y-55843817D01*
X162358126Y-55840281D01*
X162350432Y-55839062D01*
X162350431Y-55839062D01*
X162262334Y-55825109D01*
X162262332Y-55825109D01*
X162258488Y-55824500D01*
X161790479Y-55824500D01*
X161732288Y-55805593D01*
X161720476Y-55795504D01*
X161329497Y-55404526D01*
X161301719Y-55350009D01*
X161300500Y-55334522D01*
X161300500Y-45053514D01*
X161300803Y-45049385D01*
X161302426Y-45044658D01*
X161300570Y-44995223D01*
X161300500Y-44991509D01*
X161300500Y-44972052D01*
X161299675Y-44967622D01*
X161299339Y-44962436D01*
X161298569Y-44941925D01*
X161298569Y-44941924D01*
X161298226Y-44932792D01*
X161294620Y-44924398D01*
X161294619Y-44924395D01*
X161293683Y-44922217D01*
X161287317Y-44901266D01*
X161285209Y-44889947D01*
X161271230Y-44867269D01*
X161264550Y-44854409D01*
X161256792Y-44836352D01*
X161256791Y-44836351D01*
X161254036Y-44829938D01*
X161250023Y-44825051D01*
X161245657Y-44820685D01*
X161231385Y-44802629D01*
X161231264Y-44802432D01*
X161231263Y-44802431D01*
X161226468Y-44794652D01*
X161203243Y-44776992D01*
X161193162Y-44768191D01*
X160250320Y-43825349D01*
X160247620Y-43822220D01*
X160245425Y-43817731D01*
X160209178Y-43784107D01*
X160206502Y-43781531D01*
X160192723Y-43767752D01*
X160189013Y-43765207D01*
X160185100Y-43761771D01*
X160170055Y-43747815D01*
X160163354Y-43741599D01*
X160152664Y-43737334D01*
X160133348Y-43727020D01*
X160131393Y-43725679D01*
X160131390Y-43725678D01*
X160123854Y-43720508D01*
X160097941Y-43714359D01*
X160084116Y-43709986D01*
X160065868Y-43702706D01*
X160065866Y-43702706D01*
X160059378Y-43700117D01*
X160053085Y-43699500D01*
X160046916Y-43699500D01*
X160024057Y-43696825D01*
X160023827Y-43696770D01*
X160023825Y-43696770D01*
X160014934Y-43694660D01*
X159986013Y-43698596D01*
X159972663Y-43699500D01*
X154165479Y-43699500D01*
X154107288Y-43680593D01*
X154095475Y-43670504D01*
X153361758Y-42936787D01*
X153333981Y-42882270D01*
X153337607Y-42836190D01*
X153384072Y-42693188D01*
X153384073Y-42693183D01*
X153385674Y-42688256D01*
X153405460Y-42500000D01*
X153385674Y-42311744D01*
X153384073Y-42306817D01*
X153384072Y-42306812D01*
X153328781Y-42136646D01*
X153328780Y-42136645D01*
X153327179Y-42131716D01*
X153232533Y-41967784D01*
X153224044Y-41958356D01*
X153109341Y-41830965D01*
X153109337Y-41830962D01*
X153105871Y-41827112D01*
X152952730Y-41715849D01*
X152947998Y-41713742D01*
X152947996Y-41713741D01*
X152784540Y-41640965D01*
X152784539Y-41640965D01*
X152779803Y-41638856D01*
X152774733Y-41637778D01*
X152774732Y-41637778D01*
X152737390Y-41629841D01*
X152594646Y-41599500D01*
X152405354Y-41599500D01*
X152262610Y-41629841D01*
X152225268Y-41637778D01*
X152225267Y-41637778D01*
X152220197Y-41638856D01*
X152215461Y-41640965D01*
X152215460Y-41640965D01*
X152052004Y-41713741D01*
X152052002Y-41713742D01*
X152047270Y-41715849D01*
X151894129Y-41827112D01*
X151890663Y-41830962D01*
X151890659Y-41830965D01*
X151775956Y-41958356D01*
X151767467Y-41967784D01*
X151672821Y-42131716D01*
X151671220Y-42136645D01*
X151671219Y-42136646D01*
X151615928Y-42306812D01*
X151615927Y-42306817D01*
X151614326Y-42311744D01*
X151594540Y-42500000D01*
X151614326Y-42688256D01*
X151615927Y-42693183D01*
X151615928Y-42693188D01*
X151662393Y-42836190D01*
X151672821Y-42868284D01*
X151767467Y-43032216D01*
X151770939Y-43036072D01*
X151890659Y-43169035D01*
X151890663Y-43169038D01*
X151894129Y-43172888D01*
X152047270Y-43284151D01*
X152052002Y-43286258D01*
X152052004Y-43286259D01*
X152112000Y-43312971D01*
X152220197Y-43361144D01*
X152225267Y-43362222D01*
X152225268Y-43362222D01*
X152262610Y-43370159D01*
X152405354Y-43400500D01*
X152594646Y-43400500D01*
X152737390Y-43370159D01*
X152774732Y-43362222D01*
X152774733Y-43362222D01*
X152779803Y-43361144D01*
X152825842Y-43340646D01*
X152886690Y-43334250D01*
X152936112Y-43361083D01*
X153345999Y-43770971D01*
X153749684Y-44174656D01*
X153752381Y-44177781D01*
X153754575Y-44182269D01*
X153761277Y-44188486D01*
X153790808Y-44215880D01*
X153793484Y-44218456D01*
X153807276Y-44232248D01*
X153810987Y-44234793D01*
X153814906Y-44238234D01*
X153836646Y-44258401D01*
X153845134Y-44261787D01*
X153845137Y-44261789D01*
X153847338Y-44262667D01*
X153866654Y-44272981D01*
X153868609Y-44274322D01*
X153868611Y-44274323D01*
X153876146Y-44279492D01*
X153885034Y-44281601D01*
X153885036Y-44281602D01*
X153902058Y-44285641D01*
X153915884Y-44290014D01*
X153934132Y-44297294D01*
X153934134Y-44297294D01*
X153940622Y-44299883D01*
X153946915Y-44300500D01*
X153953084Y-44300500D01*
X153975943Y-44303175D01*
X153976173Y-44303230D01*
X153976175Y-44303230D01*
X153985066Y-44305340D01*
X154013988Y-44301404D01*
X154027337Y-44300500D01*
X159834521Y-44300500D01*
X159892712Y-44319407D01*
X159904525Y-44329496D01*
X160670504Y-45095475D01*
X160698281Y-45149992D01*
X160699500Y-45165479D01*
X160699500Y-55446492D01*
X160699197Y-55450617D01*
X160697575Y-55455342D01*
X160697918Y-55464476D01*
X160699430Y-55504761D01*
X160699500Y-55508474D01*
X160699500Y-55527948D01*
X160700325Y-55532378D01*
X160700661Y-55537571D01*
X160701774Y-55567208D01*
X160705380Y-55575602D01*
X160705381Y-55575605D01*
X160706317Y-55577783D01*
X160712683Y-55598734D01*
X160714791Y-55610053D01*
X160719588Y-55617835D01*
X160728768Y-55632728D01*
X160735452Y-55645596D01*
X160739073Y-55654023D01*
X160745964Y-55670063D01*
X160749978Y-55674949D01*
X160754342Y-55679313D01*
X160768613Y-55697368D01*
X160773532Y-55705348D01*
X160796769Y-55723018D01*
X160806839Y-55731810D01*
X161320504Y-56245475D01*
X161348281Y-56299992D01*
X161349500Y-56315479D01*
X161349500Y-56687330D01*
X161330593Y-56745521D01*
X161323082Y-56754656D01*
X161322817Y-56754942D01*
X161322815Y-56754945D01*
X161316599Y-56761646D01*
X161313212Y-56770134D01*
X161313212Y-56770135D01*
X161312334Y-56772336D01*
X161302020Y-56791652D01*
X161300679Y-56793607D01*
X161300678Y-56793610D01*
X161295508Y-56801146D01*
X161293398Y-56810038D01*
X161289359Y-56827058D01*
X161284986Y-56840884D01*
X161277706Y-56859132D01*
X161275117Y-56865622D01*
X161274500Y-56871915D01*
X161274500Y-56878084D01*
X161271825Y-56900943D01*
X161269660Y-56910066D01*
X161273596Y-56938987D01*
X161274500Y-56952337D01*
X161274500Y-57455500D01*
X161255593Y-57513691D01*
X161206093Y-57549655D01*
X161175500Y-57554500D01*
X160816782Y-57554500D01*
X160813199Y-57555028D01*
X160813192Y-57555028D01*
X160755501Y-57563521D01*
X160755499Y-57563522D01*
X160747888Y-57564642D01*
X160643145Y-57616068D01*
X160560707Y-57698650D01*
X160509464Y-57803482D01*
X160508355Y-57811084D01*
X160508354Y-57811087D01*
X160500024Y-57868192D01*
X160499500Y-57871782D01*
X160499500Y-58238218D01*
X160509642Y-58307112D01*
X160513033Y-58314018D01*
X160513033Y-58314019D01*
X160527357Y-58343193D01*
X160561068Y-58411855D01*
X160643650Y-58494293D01*
X160748482Y-58545536D01*
X160756084Y-58546645D01*
X160756087Y-58546646D01*
X160813237Y-58554983D01*
X160813239Y-58554983D01*
X160816782Y-58555500D01*
X161365847Y-58555500D01*
X161424038Y-58574407D01*
X161460002Y-58623907D01*
X161460002Y-58685093D01*
X161424038Y-58734593D01*
X161403733Y-58745964D01*
X161272159Y-58800464D01*
X161267013Y-58804413D01*
X161261390Y-58807659D01*
X161260644Y-58806367D01*
X161207228Y-58824500D01*
X160816782Y-58824500D01*
X160813199Y-58825028D01*
X160813192Y-58825028D01*
X160755501Y-58833521D01*
X160755499Y-58833522D01*
X160747888Y-58834642D01*
X160643145Y-58886068D01*
X160560707Y-58968650D01*
X160509464Y-59073482D01*
X160508355Y-59081084D01*
X160508354Y-59081087D01*
X160500024Y-59138192D01*
X160499500Y-59141782D01*
X160499500Y-59508218D01*
X160500028Y-59511801D01*
X160500028Y-59511808D01*
X160506481Y-59555639D01*
X160509642Y-59577112D01*
X160513033Y-59584018D01*
X160513033Y-59584019D01*
X160525919Y-59610264D01*
X160561068Y-59681855D01*
X160643650Y-59764293D01*
X160748482Y-59815536D01*
X160756084Y-59816645D01*
X160756087Y-59816646D01*
X160813237Y-59824983D01*
X160813239Y-59824983D01*
X160816782Y-59825500D01*
X161207228Y-59825500D01*
X161260644Y-59843633D01*
X161261390Y-59842341D01*
X161267013Y-59845587D01*
X161272159Y-59849536D01*
X161318029Y-59868536D01*
X161364554Y-59908273D01*
X161378838Y-59967767D01*
X161355423Y-60024295D01*
X161318029Y-60051464D01*
X161272159Y-60070464D01*
X161267013Y-60074413D01*
X161261390Y-60077659D01*
X161260644Y-60076367D01*
X161207228Y-60094500D01*
X160816782Y-60094500D01*
X160813199Y-60095028D01*
X160813192Y-60095028D01*
X160755501Y-60103521D01*
X160755499Y-60103522D01*
X160747888Y-60104642D01*
X160643145Y-60156068D01*
X160560707Y-60238650D01*
X160509464Y-60343482D01*
X160508355Y-60351084D01*
X160508354Y-60351087D01*
X160500024Y-60408192D01*
X160499500Y-60411782D01*
X160499500Y-60778218D01*
X160500028Y-60781801D01*
X160500028Y-60781808D01*
X160506481Y-60825639D01*
X160509642Y-60847112D01*
X160513033Y-60854018D01*
X160513033Y-60854019D01*
X160525919Y-60880264D01*
X160561068Y-60951855D01*
X160643650Y-61034293D01*
X160727112Y-61075090D01*
X160730113Y-61076557D01*
X160774089Y-61119098D01*
X160784662Y-61179363D01*
X160757792Y-61234333D01*
X160703743Y-61263011D01*
X160686637Y-61264500D01*
X160045849Y-61264500D01*
X160032927Y-61263653D01*
X160006760Y-61260208D01*
X160000000Y-61259318D01*
X159993567Y-61260165D01*
X159993565Y-61260165D01*
X159993246Y-61260207D01*
X159967400Y-61260208D01*
X159909522Y-61252588D01*
X159884560Y-61245899D01*
X159812292Y-61215965D01*
X159789910Y-61203043D01*
X159783438Y-61198077D01*
X159727847Y-61155420D01*
X159709580Y-61137153D01*
X159661956Y-61075089D01*
X159649035Y-61052708D01*
X159642752Y-61037538D01*
X159619101Y-60980440D01*
X159612412Y-60955478D01*
X159611935Y-60951855D01*
X159604792Y-60897600D01*
X159604793Y-60871754D01*
X159604835Y-60871435D01*
X159604835Y-60871431D01*
X159605682Y-60865000D01*
X159601347Y-60832072D01*
X159600500Y-60819151D01*
X159600500Y-56045849D01*
X159601347Y-56032927D01*
X159604835Y-56006433D01*
X159605682Y-56000000D01*
X159603670Y-55984717D01*
X159603077Y-55978875D01*
X159597541Y-55901472D01*
X159588256Y-55771643D01*
X159539591Y-55547935D01*
X159459585Y-55333430D01*
X159349865Y-55132494D01*
X159212667Y-54949218D01*
X159050782Y-54787333D01*
X158867506Y-54650135D01*
X158666570Y-54540415D01*
X158452065Y-54460409D01*
X158228357Y-54411744D01*
X158021115Y-54396922D01*
X158015283Y-54396330D01*
X158000000Y-54394318D01*
X157967073Y-54398653D01*
X157954151Y-54399500D01*
X150299500Y-54399500D01*
X150241309Y-54380593D01*
X150205345Y-54331093D01*
X150200500Y-54300500D01*
X150200500Y-32534281D01*
X150203057Y-32511926D01*
X150203141Y-32511565D01*
X150205655Y-32500718D01*
X150205656Y-32500000D01*
X150204413Y-32494549D01*
X150203791Y-32488995D01*
X150204159Y-32488954D01*
X150202438Y-32467973D01*
X150216904Y-32228804D01*
X150218345Y-32216936D01*
X150266241Y-31955578D01*
X150269100Y-31943977D01*
X150348148Y-31690305D01*
X150352387Y-31679127D01*
X150461436Y-31436830D01*
X150466992Y-31426244D01*
X150604452Y-31198858D01*
X150611243Y-31189020D01*
X150775103Y-30979868D01*
X150783030Y-30970919D01*
X150970919Y-30783030D01*
X150979868Y-30775103D01*
X151189020Y-30611243D01*
X151198858Y-30604452D01*
X151426244Y-30466992D01*
X151436830Y-30461436D01*
X151679127Y-30352387D01*
X151690305Y-30348148D01*
X151737756Y-30333361D01*
X151943985Y-30269098D01*
X151955578Y-30266241D01*
X152216944Y-30218344D01*
X152228796Y-30216905D01*
X152467712Y-30202453D01*
X152477628Y-30203276D01*
X152477628Y-30203138D01*
X152488776Y-30203158D01*
X152499641Y-30205656D01*
X152511641Y-30202941D01*
X152533488Y-30200500D01*
X167465983Y-30200500D01*
X167488169Y-30203018D01*
G37*
%TD.AperFunction*%
%TA.AperFunction,Conductor*%
G36*
X165570891Y-40611290D02*
G01*
X165616874Y-40634719D01*
X165624568Y-40635938D01*
X165624569Y-40635938D01*
X165712666Y-40649891D01*
X165712668Y-40649891D01*
X165716512Y-40650500D01*
X166283488Y-40650500D01*
X166287332Y-40649891D01*
X166287334Y-40649891D01*
X166375431Y-40635938D01*
X166375432Y-40635938D01*
X166383126Y-40634719D01*
X166429109Y-40611290D01*
X166474053Y-40600500D01*
X169700500Y-40600500D01*
X169758691Y-40619407D01*
X169794655Y-40668907D01*
X169799500Y-40699500D01*
X169799500Y-54300500D01*
X169780593Y-54358691D01*
X169731093Y-54394655D01*
X169700500Y-54399500D01*
X166474053Y-54399500D01*
X166429108Y-54388710D01*
X166390066Y-54368817D01*
X166383126Y-54365281D01*
X166375432Y-54364062D01*
X166375431Y-54364062D01*
X166287334Y-54350109D01*
X166287332Y-54350109D01*
X166283488Y-54349500D01*
X165716512Y-54349500D01*
X165712668Y-54350109D01*
X165712666Y-54350109D01*
X165624570Y-54364062D01*
X165616874Y-54365281D01*
X165552383Y-54398141D01*
X165514504Y-54408679D01*
X165471643Y-54411744D01*
X165247935Y-54460409D01*
X165033430Y-54540415D01*
X164832494Y-54650135D01*
X164649218Y-54787333D01*
X164487333Y-54949218D01*
X164350135Y-55132494D01*
X164240415Y-55333430D01*
X164239182Y-55336736D01*
X164192258Y-55462544D01*
X164154207Y-55510458D01*
X164095260Y-55526856D01*
X164037933Y-55505474D01*
X164004122Y-55454479D01*
X164000500Y-55427947D01*
X164000500Y-41045849D01*
X164001347Y-41032927D01*
X164004835Y-41006433D01*
X164005682Y-41000000D01*
X164004793Y-40993246D01*
X164004792Y-40967397D01*
X164012412Y-40909522D01*
X164019101Y-40884560D01*
X164049035Y-40812292D01*
X164061957Y-40789910D01*
X164078625Y-40768188D01*
X164109580Y-40727847D01*
X164127847Y-40709580D01*
X164189911Y-40661956D01*
X164212292Y-40649035D01*
X164284560Y-40619101D01*
X164309522Y-40612412D01*
X164318044Y-40611290D01*
X164367400Y-40604792D01*
X164393246Y-40604793D01*
X164393565Y-40604835D01*
X164393567Y-40604835D01*
X164400000Y-40605682D01*
X164432928Y-40601347D01*
X164445849Y-40600500D01*
X165525947Y-40600500D01*
X165570891Y-40611290D01*
G37*
%TD.AperFunction*%
%TD*%
M02*
