M48
; DRILL file {KiCad 7.0.5+dfsg-2} date sob, 22 lip 2023, 00:58:45
; FORMAT={-:-/ absolute / inch / decimal}
; #@! TF.CreationDate,2023-07-22T00:58:45+02:00
; #@! TF.GenerationSoftware,Kicad,Pcbnew,7.0.5+dfsg-2
; #@! TF.FileFunction,Plated,1,2,PTH
FMAT,2
INCH
; #@! TA.AperFunction,Plated,PTH,ViaDrill
T1C0.0157
; #@! TA.AperFunction,Plated,PTH,ComponentDrill
T2C0.0157
; #@! TA.AperFunction,Plated,PTH,ComponentDrill
T3C0.0276
; #@! TA.AperFunction,Plated,PTH,ComponentDrill
T4C0.0787
%
G90
G05
T1
X5.315Y-2.4606
X5.315Y-2.5591
X5.315Y-2.6575
X5.315Y-2.8543
X5.315Y-2.9528
X5.315Y-3.0512
X5.315Y-3.248
X5.315Y-3.3465
X5.315Y-3.5433
X5.315Y-3.6417
X5.315Y-3.8386
X5.315Y-3.937
X5.315Y-4.0354
X5.315Y-4.2323
X5.315Y-4.4291
X5.315Y-4.5276
X5.315Y-4.626
X5.315Y-4.8228
X5.315Y-4.9213
X5.315Y-5.0197
X5.315Y-5.1181
X5.315Y-5.2165
X5.3565Y-3.4037
X5.3927Y-3.485
X5.4134Y-2.3622
X5.4134Y-2.4606
X5.4134Y-2.6575
X5.4134Y-2.8543
X5.4134Y-2.9528
X5.4134Y-3.0512
X5.4134Y-3.1496
X5.4134Y-3.248
X5.4134Y-3.3465
X5.4134Y-3.5433
X5.4134Y-3.6417
X5.4134Y-3.7402
X5.4134Y-3.8386
X5.4134Y-4.2323
X5.4134Y-4.4291
X5.4134Y-4.5276
X5.4134Y-4.626
X5.4134Y-4.7244
X5.4134Y-4.8228
X5.4134Y-4.9213
X5.4134Y-5.0197
X5.4134Y-5.1181
X5.4134Y-5.2165
X5.4134Y-5.315
X5.4359Y-3.4031
X5.4699Y-3.8158
X5.4699Y-4.1124
X5.4734Y-3.485
X5.498Y-4.8542
X5.5026Y-5.0315
X5.5065Y-3.4053
X5.5118Y-2.3622
X5.5118Y-2.4606
X5.5118Y-2.7559
X5.5118Y-2.8543
X5.5118Y-2.9528
X5.5118Y-3.0512
X5.5118Y-3.1496
X5.5118Y-3.248
X5.5118Y-3.3465
X5.5118Y-3.937
X5.5118Y-4.0354
X5.5118Y-4.1339
X5.5118Y-4.2323
X5.5118Y-4.3307
X5.5118Y-4.4291
X5.5118Y-4.5276
X5.5118Y-4.626
X5.5118Y-4.7244
X5.5118Y-5.2165
X5.5118Y-5.315
X5.5297Y-3.485
X5.5303Y-3.5696
X5.5303Y-3.6573
X5.5321Y-3.813
X5.5376Y-4.0813
X5.5394Y-4.9724
X5.546Y-5.1811
X5.5563Y-3.7351
X5.5697Y-5.2637
X5.5767Y-3.4183
X5.5775Y-5.0046
X5.6081Y-3.4609
X5.61Y-3.7561
X5.6102Y-2.3622
X5.6102Y-2.6575
X5.6102Y-2.7559
X5.6102Y-2.8543
X5.6102Y-2.9528
X5.6102Y-3.0512
X5.6102Y-3.1496
X5.6102Y-3.248
X5.6102Y-3.3465
X5.6102Y-3.8386
X5.6102Y-4.1339
X5.6102Y-4.2323
X5.6102Y-4.4291
X5.6102Y-4.5276
X5.6102Y-4.626
X5.6102Y-4.7244
X5.612Y-3.5642
X5.6126Y-3.6163
X5.6132Y-3.6662
X5.6135Y-3.8044
X5.6187Y-4.8022
X5.625Y-3.9691
X5.625Y-4.0675
X5.6339Y-5.0315
X5.6502Y-5.2637
X5.6504Y-5.2004
X5.6535Y-4.9685
X5.6693Y-5.0079
X5.701Y-3.9875
X5.702Y-4.5275
X5.7022Y-4.0726
X5.7022Y-4.4298
X5.7028Y-2.8208
X5.7028Y-3.0496
X5.703Y-4.149
X5.7031Y-3.4609
X5.7032Y-3.3429
X5.7035Y-2.7303
X5.7035Y-3.2773
X5.7035Y-3.4053
X5.7038Y-2.9787
X5.7038Y-3.2075
X5.7041Y-4.234
X5.7041Y-4.3377
X5.7041Y-4.6295
X5.7045Y-2.8983
X5.7045Y-3.1271
X5.7045Y-4.7702
X5.7087Y-2.3622
X5.7087Y-2.6575
X5.7087Y-5.2165
X5.7087Y-5.315
X5.727Y-5.0363
X5.7317Y-3.7151
X5.7842Y-2.7957
X5.7846Y-4.3773
X5.7846Y-4.6741
X5.7848Y-2.6972
X5.7848Y-4.7723
X5.7848Y-4.8704
X5.7849Y-4.9791
X5.7851Y-2.9044
X5.7857Y-2.9984
X5.7857Y-3.0955
X5.7857Y-3.2976
X5.7867Y-3.2179
X5.7867Y-3.4199
X5.7877Y-2.6165
X5.7945Y-5.0596
X5.8033Y-4.2657
X5.8071Y-2.3622
X5.8071Y-2.4606
X5.8071Y-2.5591
X5.8071Y-2.7559
X5.8071Y-2.8543
X5.8071Y-2.9528
X5.8071Y-3.0512
X5.8071Y-3.1496
X5.8071Y-3.3465
X5.8071Y-3.7402
X5.8071Y-4.3307
X5.8071Y-4.4291
X5.8071Y-4.5276
X5.8071Y-4.626
X5.8071Y-4.7244
X5.8071Y-4.8228
X5.8071Y-4.9213
X5.8071Y-5.1181
X5.8071Y-5.2165
X5.8071Y-5.315
X5.8099Y-3.6855
X5.8352Y-3.809
X5.8352Y-3.8675
X5.8352Y-4.0015
X5.8356Y-3.5715
X5.8379Y-3.4889
X5.8626Y-4.1907
X5.8636Y-2.6985
X5.8654Y-5.0599
X5.8679Y-4.2728
X5.9055Y-2.4606
X5.9055Y-2.5591
X5.9055Y-2.7559
X5.9055Y-2.8543
X5.9055Y-3.0512
X5.9055Y-3.248
X5.9055Y-3.3465
X5.9055Y-3.5433
X5.9055Y-3.6417
X5.9055Y-3.8386
X5.9055Y-4.0354
X5.9055Y-4.1339
X5.9055Y-4.3307
X5.9055Y-4.4291
X5.9055Y-4.626
X5.9055Y-4.8228
X5.9055Y-4.9213
X5.9055Y-5.1181
X5.9055Y-5.2165
T2
X5.2362Y-3.4055
X5.2362Y-3.4843
X5.2559Y-3.3858
X5.2559Y-3.5039
X5.2756Y-3.4055
X5.2756Y-3.4843
X5.2953Y-3.3858
X5.2953Y-3.5039
X5.315Y-3.4055
X5.315Y-3.4843
X5.5512Y-5.3346
X5.5512Y-5.374
X5.5709Y-5.315
X5.5709Y-5.3543
X5.5709Y-5.3937
X5.6496Y-5.315
X5.6496Y-5.3543
X5.6496Y-5.3937
X5.6693Y-5.3346
X5.6693Y-5.374
X5.9055Y-2.6181
X5.9055Y-2.6969
X5.9055Y-3.4055
X5.9055Y-3.4843
X5.9055Y-4.1929
X5.9055Y-4.2717
X5.9055Y-4.9803
X5.9055Y-5.0591
X5.9252Y-2.5984
X5.9252Y-2.7165
X5.9252Y-3.3858
X5.9252Y-3.5039
X5.9252Y-4.1732
X5.9252Y-4.2913
X5.9252Y-4.9606
X5.9252Y-5.0787
X5.9449Y-2.6181
X5.9449Y-2.6969
X5.9449Y-3.4055
X5.9449Y-3.4843
X5.9449Y-4.1929
X5.9449Y-4.2717
X5.9449Y-4.9803
X5.9449Y-5.0591
X5.9646Y-2.5984
X5.9646Y-2.7165
X5.9646Y-3.3858
X5.9646Y-3.5039
X5.9646Y-4.1732
X5.9646Y-4.2913
X5.9646Y-4.9606
X5.9646Y-5.0787
X5.9843Y-2.6181
X5.9843Y-2.6969
X5.9843Y-3.4055
X5.9843Y-3.4843
X5.9843Y-4.1929
X5.9843Y-4.2717
X5.9843Y-4.9803
X5.9843Y-5.0591
T3
X5.315Y-2.7559
X5.315Y-4.1339
X5.315Y-4.3307
T4
X5.315Y-2.3622
X5.315Y-3.1496
X5.315Y-3.7402
X5.315Y-4.7244
X5.315Y-5.315
X5.9055Y-2.3622
X5.9055Y-2.9528
X5.9055Y-3.1496
X5.9055Y-3.7402
X5.9055Y-3.937
X5.9055Y-4.5276
X5.9055Y-4.7244
X5.9055Y-5.315
T0
M30
