%FSLAX45Y45*%
G04 Gerber Fmt 4.5, Leading zero omitted, Abs format (unit mm)*
G04 Created by KiCad (PCBNEW 6.0.1-79c1e3a40b~116~ubuntu20.04.1) date 2022-01-30 13:40:52*
%MOMM*%
%LPD*%
G01*
G04 APERTURE LIST*
%TA.AperFunction,Profile*%
%ADD10C,0.100000*%
%TD*%
%ADD11C,0.200000*%
G04 APERTURE END LIST*
D10*
X14500000Y-8700000D02*
G75*
G03*
X14500000Y-8300000I0J200000D01*
G01*
X14000000Y-8300000D02*
G75*
G03*
X14000000Y-8700000I0J-200000D01*
G01*
X14500000Y-10200000D02*
G75*
G03*
X14200000Y-10500000I0J-300000D01*
G01*
X13800000Y-10500000D02*
G75*
G03*
X14200000Y-10500000I200000J0D01*
G01*
X14500000Y-10200000D02*
G75*
G03*
X14500000Y-9800000I0J200000D01*
G01*
X14000000Y-9800000D02*
G75*
G03*
X13800000Y-10000000I0J-200000D01*
G01*
X12700000Y-10000000D02*
G75*
G03*
X12500000Y-9800000I-200000J0D01*
G01*
X12300000Y-10500000D02*
G75*
G03*
X12000000Y-10200000I-300000J0D01*
G01*
X12300000Y-10500000D02*
G75*
G03*
X12700000Y-10500000I200000J0D01*
G01*
X12000000Y-9800000D02*
G75*
G03*
X12000000Y-10200000I0J-200000D01*
G01*
X12500000Y-8700000D02*
G75*
G03*
X12500000Y-8300000I0J200000D01*
G01*
X12000000Y-8300000D02*
G75*
G03*
X12000000Y-8700000I0J-200000D01*
G01*
X12700000Y-10000000D02*
X13800000Y-10000000D01*
X12500000Y-8700000D02*
X12500000Y-9800000D01*
X14000000Y-8700000D02*
X14000000Y-9800000D01*
X14500000Y-8700000D02*
X14500000Y-9800000D01*
X12700000Y-10500000D02*
X13800000Y-10500000D01*
X12000000Y-8700000D02*
X12000000Y-9800000D01*
X14000000Y-8300000D02*
X14500000Y-8300000D01*
X12000000Y-8300000D02*
X12500000Y-8300000D01*
D11*
X12052619Y-11015476D02*
X12052619Y-10815476D01*
X12100238Y-10815476D01*
X12128809Y-10825000D01*
X12147857Y-10844048D01*
X12157381Y-10863095D01*
X12166905Y-10901190D01*
X12166905Y-10929762D01*
X12157381Y-10967857D01*
X12147857Y-10986905D01*
X12128809Y-11005952D01*
X12100238Y-11015476D01*
X12052619Y-11015476D01*
X12252619Y-11015476D02*
X12252619Y-10882143D01*
X12252619Y-10920238D02*
X12262143Y-10901190D01*
X12271667Y-10891667D01*
X12290714Y-10882143D01*
X12309762Y-10882143D01*
X12376428Y-11015476D02*
X12376428Y-10882143D01*
X12376428Y-10815476D02*
X12366905Y-10825000D01*
X12376428Y-10834524D01*
X12385952Y-10825000D01*
X12376428Y-10815476D01*
X12376428Y-10834524D01*
X12500238Y-11015476D02*
X12481190Y-11005952D01*
X12471667Y-10986905D01*
X12471667Y-10815476D01*
X12605000Y-11015476D02*
X12585952Y-11005952D01*
X12576428Y-10986905D01*
X12576428Y-10815476D01*
X12833571Y-11015476D02*
X12833571Y-10815476D01*
X12900238Y-10958333D01*
X12966905Y-10815476D01*
X12966905Y-11015476D01*
X13147857Y-11015476D02*
X13147857Y-10910714D01*
X13138333Y-10891667D01*
X13119286Y-10882143D01*
X13081190Y-10882143D01*
X13062143Y-10891667D01*
X13147857Y-11005952D02*
X13128809Y-11015476D01*
X13081190Y-11015476D01*
X13062143Y-11005952D01*
X13052619Y-10986905D01*
X13052619Y-10967857D01*
X13062143Y-10948810D01*
X13081190Y-10939286D01*
X13128809Y-10939286D01*
X13147857Y-10929762D01*
X13243095Y-10882143D02*
X13243095Y-11082143D01*
X13243095Y-10891667D02*
X13262143Y-10882143D01*
X13300238Y-10882143D01*
X13319286Y-10891667D01*
X13328809Y-10901190D01*
X13338333Y-10920238D01*
X13338333Y-10977381D01*
X13328809Y-10996429D01*
X13319286Y-11005952D01*
X13300238Y-11015476D01*
X13262143Y-11015476D01*
X13243095Y-11005952D01*
X13424048Y-10996429D02*
X13433571Y-11005952D01*
X13424048Y-11015476D01*
X13414524Y-11005952D01*
X13424048Y-10996429D01*
X13424048Y-11015476D01*
X13424048Y-10891667D02*
X13433571Y-10901190D01*
X13424048Y-10910714D01*
X13414524Y-10901190D01*
X13424048Y-10891667D01*
X13424048Y-10910714D01*
M02*
