%FSLAX45Y45*%
G04 Gerber Fmt 4.5, Leading zero omitted, Abs format (unit mm)*
G04 Created by KiCad (PCBNEW 6.0.1-79c1e3a40b~116~ubuntu20.04.1) date 2022-01-30 13:40:52*
%MOMM*%
%LPD*%
G01*
G04 APERTURE LIST*
%TA.AperFunction,Profile*%
%ADD10C,0.100000*%
%TD*%
%ADD11C,0.200000*%
%ADD12C,0.040000*%
%ADD13C,0.220000*%
G04 APERTURE END LIST*
D10*
X14500000Y-8700000D02*
G75*
G03*
X14500000Y-8300000I0J200000D01*
G01*
X14000000Y-8300000D02*
G75*
G03*
X14000000Y-8700000I0J-200000D01*
G01*
X14500000Y-10200000D02*
G75*
G03*
X14200000Y-10500000I0J-300000D01*
G01*
X13800000Y-10500000D02*
G75*
G03*
X14200000Y-10500000I200000J0D01*
G01*
X14500000Y-10200000D02*
G75*
G03*
X14500000Y-9800000I0J200000D01*
G01*
X14000000Y-9800000D02*
G75*
G03*
X13800000Y-10000000I0J-200000D01*
G01*
X12700000Y-10000000D02*
G75*
G03*
X12500000Y-9800000I-200000J0D01*
G01*
X12300000Y-10500000D02*
G75*
G03*
X12000000Y-10200000I-300000J0D01*
G01*
X12300000Y-10500000D02*
G75*
G03*
X12700000Y-10500000I200000J0D01*
G01*
X12000000Y-9800000D02*
G75*
G03*
X12000000Y-10200000I0J-200000D01*
G01*
X12500000Y-8700000D02*
G75*
G03*
X12500000Y-8300000I0J200000D01*
G01*
X12000000Y-8300000D02*
G75*
G03*
X12000000Y-8700000I0J-200000D01*
G01*
X12700000Y-10000000D02*
X13800000Y-10000000D01*
X12500000Y-8700000D02*
X12500000Y-9800000D01*
X14000000Y-8700000D02*
X14000000Y-9800000D01*
X14500000Y-8700000D02*
X14500000Y-9800000D01*
X12700000Y-10500000D02*
X13800000Y-10500000D01*
X12000000Y-8700000D02*
X12000000Y-9800000D01*
X14000000Y-8300000D02*
X14500000Y-8300000D01*
X12000000Y-8300000D02*
X12500000Y-8300000D01*
D11*
D12*
X12030000Y-9130000D02*
X12070000Y-9170000D01*
X12070000Y-9130000D02*
X12030000Y-9170000D01*
X12030000Y-9330000D02*
X12070000Y-9370000D01*
X12070000Y-9330000D02*
X12030000Y-9370000D01*
X12080000Y-9080000D02*
X12120000Y-9120000D01*
X12120000Y-9080000D02*
X12080000Y-9120000D01*
X12080000Y-9380000D02*
X12120000Y-9420000D01*
X12120000Y-9380000D02*
X12080000Y-9420000D01*
X12130000Y-9130000D02*
X12170000Y-9170000D01*
X12170000Y-9130000D02*
X12130000Y-9170000D01*
X12130000Y-9330000D02*
X12170000Y-9370000D01*
X12170000Y-9330000D02*
X12130000Y-9370000D01*
X12180000Y-9080000D02*
X12220000Y-9120000D01*
X12220000Y-9080000D02*
X12180000Y-9120000D01*
X12180000Y-9380000D02*
X12220000Y-9420000D01*
X12220000Y-9380000D02*
X12180000Y-9420000D01*
X12230000Y-9130000D02*
X12270000Y-9170000D01*
X12270000Y-9130000D02*
X12230000Y-9170000D01*
X12230000Y-9130000D02*
X12270000Y-9170000D01*
X12270000Y-9130000D02*
X12230000Y-9170000D01*
X12230000Y-9330000D02*
X12270000Y-9370000D01*
X12270000Y-9330000D02*
X12230000Y-9370000D01*
X12230000Y-9330000D02*
X12270000Y-9370000D01*
X12270000Y-9330000D02*
X12230000Y-9370000D01*
X12280000Y-9080000D02*
X12320000Y-9120000D01*
X12320000Y-9080000D02*
X12280000Y-9120000D01*
X12280000Y-9380000D02*
X12320000Y-9420000D01*
X12320000Y-9380000D02*
X12280000Y-9420000D01*
X12330000Y-9130000D02*
X12370000Y-9170000D01*
X12370000Y-9130000D02*
X12330000Y-9170000D01*
X12330000Y-9330000D02*
X12370000Y-9370000D01*
X12370000Y-9330000D02*
X12330000Y-9370000D01*
X12380000Y-9080000D02*
X12420000Y-9120000D01*
X12420000Y-9080000D02*
X12380000Y-9120000D01*
X12380000Y-9380000D02*
X12420000Y-9420000D01*
X12420000Y-9380000D02*
X12380000Y-9420000D01*
X12430000Y-9130000D02*
X12470000Y-9170000D01*
X12470000Y-9130000D02*
X12430000Y-9170000D01*
X12430000Y-9330000D02*
X12470000Y-9370000D01*
X12470000Y-9330000D02*
X12430000Y-9370000D01*
X13080000Y-10080000D02*
X13120000Y-10120000D01*
X13120000Y-10080000D02*
X13080000Y-10120000D01*
X13080000Y-10180000D02*
X13120000Y-10220000D01*
X13120000Y-10180000D02*
X13080000Y-10220000D01*
X13080000Y-10280000D02*
X13120000Y-10320000D01*
X13120000Y-10280000D02*
X13080000Y-10320000D01*
X13080000Y-10380000D02*
X13120000Y-10420000D01*
X13120000Y-10380000D02*
X13080000Y-10420000D01*
X13130000Y-10030000D02*
X13170000Y-10070000D01*
X13170000Y-10030000D02*
X13130000Y-10070000D01*
X13130000Y-10130000D02*
X13170000Y-10170000D01*
X13170000Y-10130000D02*
X13130000Y-10170000D01*
X13130000Y-10230000D02*
X13170000Y-10270000D01*
X13170000Y-10230000D02*
X13130000Y-10270000D01*
X13130000Y-10230000D02*
X13170000Y-10270000D01*
X13170000Y-10230000D02*
X13130000Y-10270000D01*
X13130000Y-10330000D02*
X13170000Y-10370000D01*
X13170000Y-10330000D02*
X13130000Y-10370000D01*
X13130000Y-10430000D02*
X13170000Y-10470000D01*
X13170000Y-10430000D02*
X13130000Y-10470000D01*
X13330000Y-10030000D02*
X13370000Y-10070000D01*
X13370000Y-10030000D02*
X13330000Y-10070000D01*
X13330000Y-10130000D02*
X13370000Y-10170000D01*
X13370000Y-10130000D02*
X13330000Y-10170000D01*
X13330000Y-10230000D02*
X13370000Y-10270000D01*
X13370000Y-10230000D02*
X13330000Y-10270000D01*
X13330000Y-10230000D02*
X13370000Y-10270000D01*
X13370000Y-10230000D02*
X13330000Y-10270000D01*
X13330000Y-10330000D02*
X13370000Y-10370000D01*
X13370000Y-10330000D02*
X13330000Y-10370000D01*
X13330000Y-10430000D02*
X13370000Y-10470000D01*
X13370000Y-10430000D02*
X13330000Y-10470000D01*
X13380000Y-10080000D02*
X13420000Y-10120000D01*
X13420000Y-10080000D02*
X13380000Y-10120000D01*
X13380000Y-10180000D02*
X13420000Y-10220000D01*
X13420000Y-10180000D02*
X13380000Y-10220000D01*
X13380000Y-10280000D02*
X13420000Y-10320000D01*
X13420000Y-10280000D02*
X13380000Y-10320000D01*
X13380000Y-10380000D02*
X13420000Y-10420000D01*
X13420000Y-10380000D02*
X13380000Y-10420000D01*
X14030000Y-9130000D02*
X14070000Y-9170000D01*
X14070000Y-9130000D02*
X14030000Y-9170000D01*
X14030000Y-9330000D02*
X14070000Y-9370000D01*
X14070000Y-9330000D02*
X14030000Y-9370000D01*
X14080000Y-9080000D02*
X14120000Y-9120000D01*
X14120000Y-9080000D02*
X14080000Y-9120000D01*
X14080000Y-9380000D02*
X14120000Y-9420000D01*
X14120000Y-9380000D02*
X14080000Y-9420000D01*
X14130000Y-9130000D02*
X14170000Y-9170000D01*
X14170000Y-9130000D02*
X14130000Y-9170000D01*
X14130000Y-9330000D02*
X14170000Y-9370000D01*
X14170000Y-9330000D02*
X14130000Y-9370000D01*
X14180000Y-9080000D02*
X14220000Y-9120000D01*
X14220000Y-9080000D02*
X14180000Y-9120000D01*
X14180000Y-9380000D02*
X14220000Y-9420000D01*
X14220000Y-9380000D02*
X14180000Y-9420000D01*
X14230000Y-9130000D02*
X14270000Y-9170000D01*
X14270000Y-9130000D02*
X14230000Y-9170000D01*
X14230000Y-9130000D02*
X14270000Y-9170000D01*
X14270000Y-9130000D02*
X14230000Y-9170000D01*
X14230000Y-9330000D02*
X14270000Y-9370000D01*
X14270000Y-9330000D02*
X14230000Y-9370000D01*
X14230000Y-9330000D02*
X14270000Y-9370000D01*
X14270000Y-9330000D02*
X14230000Y-9370000D01*
X14280000Y-9080000D02*
X14320000Y-9120000D01*
X14320000Y-9080000D02*
X14280000Y-9120000D01*
X14280000Y-9380000D02*
X14320000Y-9420000D01*
X14320000Y-9380000D02*
X14280000Y-9420000D01*
X14330000Y-9130000D02*
X14370000Y-9170000D01*
X14370000Y-9130000D02*
X14330000Y-9170000D01*
X14330000Y-9330000D02*
X14370000Y-9370000D01*
X14370000Y-9330000D02*
X14330000Y-9370000D01*
X14380000Y-9080000D02*
X14420000Y-9120000D01*
X14420000Y-9080000D02*
X14380000Y-9120000D01*
X14380000Y-9380000D02*
X14420000Y-9420000D01*
X14420000Y-9380000D02*
X14380000Y-9420000D01*
X14430000Y-9130000D02*
X14470000Y-9170000D01*
X14470000Y-9130000D02*
X14430000Y-9170000D01*
X14430000Y-9330000D02*
X14470000Y-9370000D01*
X14470000Y-9330000D02*
X14430000Y-9370000D01*
D13*
X12110000Y-8500000D02*
G75*
G03*
X12110000Y-8500000I-110000J0D01*
G01*
X12110000Y-10000000D02*
G75*
G03*
X12110000Y-10000000I-110000J0D01*
G01*
X12610000Y-8500000D02*
G75*
G03*
X12610000Y-8500000I-110000J0D01*
G01*
X12610000Y-10000000D02*
G75*
G03*
X12610000Y-10000000I-110000J0D01*
G01*
X12610000Y-10500000D02*
G75*
G03*
X12610000Y-10500000I-110000J0D01*
G01*
X14110000Y-8500000D02*
G75*
G03*
X14110000Y-8500000I-110000J0D01*
G01*
X14110000Y-10000000D02*
G75*
G03*
X14110000Y-10000000I-110000J0D01*
G01*
X14110000Y-10500000D02*
G75*
G03*
X14110000Y-10500000I-110000J0D01*
G01*
X14610000Y-8500000D02*
G75*
G03*
X14610000Y-8500000I-110000J0D01*
G01*
X14610000Y-10000000D02*
G75*
G03*
X14610000Y-10000000I-110000J0D01*
G01*
D11*
X12052619Y-11015476D02*
X12052619Y-10815476D01*
X12100238Y-10815476D01*
X12128809Y-10825000D01*
X12147857Y-10844048D01*
X12157381Y-10863095D01*
X12166905Y-10901190D01*
X12166905Y-10929762D01*
X12157381Y-10967857D01*
X12147857Y-10986905D01*
X12128809Y-11005952D01*
X12100238Y-11015476D01*
X12052619Y-11015476D01*
X12252619Y-11015476D02*
X12252619Y-10882143D01*
X12252619Y-10920238D02*
X12262143Y-10901190D01*
X12271667Y-10891667D01*
X12290714Y-10882143D01*
X12309762Y-10882143D01*
X12376428Y-11015476D02*
X12376428Y-10882143D01*
X12376428Y-10815476D02*
X12366905Y-10825000D01*
X12376428Y-10834524D01*
X12385952Y-10825000D01*
X12376428Y-10815476D01*
X12376428Y-10834524D01*
X12500238Y-11015476D02*
X12481190Y-11005952D01*
X12471667Y-10986905D01*
X12471667Y-10815476D01*
X12605000Y-11015476D02*
X12585952Y-11005952D01*
X12576428Y-10986905D01*
X12576428Y-10815476D01*
X12833571Y-11015476D02*
X12833571Y-10815476D01*
X12900238Y-10958333D01*
X12966905Y-10815476D01*
X12966905Y-11015476D01*
X13147857Y-11015476D02*
X13147857Y-10910714D01*
X13138333Y-10891667D01*
X13119286Y-10882143D01*
X13081190Y-10882143D01*
X13062143Y-10891667D01*
X13147857Y-11005952D02*
X13128809Y-11015476D01*
X13081190Y-11015476D01*
X13062143Y-11005952D01*
X13052619Y-10986905D01*
X13052619Y-10967857D01*
X13062143Y-10948810D01*
X13081190Y-10939286D01*
X13128809Y-10939286D01*
X13147857Y-10929762D01*
X13243095Y-10882143D02*
X13243095Y-11082143D01*
X13243095Y-10891667D02*
X13262143Y-10882143D01*
X13300238Y-10882143D01*
X13319286Y-10891667D01*
X13328809Y-10901190D01*
X13338333Y-10920238D01*
X13338333Y-10977381D01*
X13328809Y-10996429D01*
X13319286Y-11005952D01*
X13300238Y-11015476D01*
X13262143Y-11015476D01*
X13243095Y-11005952D01*
X13424048Y-10996429D02*
X13433571Y-11005952D01*
X13424048Y-11015476D01*
X13414524Y-11005952D01*
X13424048Y-10996429D01*
X13424048Y-11015476D01*
X13424048Y-10891667D02*
X13433571Y-10901190D01*
X13424048Y-10910714D01*
X13414524Y-10901190D01*
X13424048Y-10891667D01*
X13424048Y-10910714D01*
D12*
X11755000Y-11325000D02*
X11795000Y-11365000D01*
X11795000Y-11325000D02*
X11755000Y-11365000D01*
D11*
X12090714Y-11235476D02*
X12109762Y-11235476D01*
X12128809Y-11245000D01*
X12138333Y-11254524D01*
X12147857Y-11273571D01*
X12157381Y-11311667D01*
X12157381Y-11359286D01*
X12147857Y-11397381D01*
X12138333Y-11416428D01*
X12128809Y-11425952D01*
X12109762Y-11435476D01*
X12090714Y-11435476D01*
X12071667Y-11425952D01*
X12062143Y-11416428D01*
X12052619Y-11397381D01*
X12043095Y-11359286D01*
X12043095Y-11311667D01*
X12052619Y-11273571D01*
X12062143Y-11254524D01*
X12071667Y-11245000D01*
X12090714Y-11235476D01*
X12243095Y-11416428D02*
X12252619Y-11425952D01*
X12243095Y-11435476D01*
X12233571Y-11425952D01*
X12243095Y-11416428D01*
X12243095Y-11435476D01*
X12424048Y-11302143D02*
X12424048Y-11435476D01*
X12376428Y-11225952D02*
X12328809Y-11368809D01*
X12452619Y-11368809D01*
X12566905Y-11235476D02*
X12585952Y-11235476D01*
X12605000Y-11245000D01*
X12614524Y-11254524D01*
X12624048Y-11273571D01*
X12633571Y-11311667D01*
X12633571Y-11359286D01*
X12624048Y-11397381D01*
X12614524Y-11416428D01*
X12605000Y-11425952D01*
X12585952Y-11435476D01*
X12566905Y-11435476D01*
X12547857Y-11425952D01*
X12538333Y-11416428D01*
X12528809Y-11397381D01*
X12519286Y-11359286D01*
X12519286Y-11311667D01*
X12528809Y-11273571D01*
X12538333Y-11254524D01*
X12547857Y-11245000D01*
X12566905Y-11235476D01*
X12757381Y-11235476D02*
X12776428Y-11235476D01*
X12795476Y-11245000D01*
X12805000Y-11254524D01*
X12814524Y-11273571D01*
X12824048Y-11311667D01*
X12824048Y-11359286D01*
X12814524Y-11397381D01*
X12805000Y-11416428D01*
X12795476Y-11425952D01*
X12776428Y-11435476D01*
X12757381Y-11435476D01*
X12738333Y-11425952D01*
X12728809Y-11416428D01*
X12719286Y-11397381D01*
X12709762Y-11359286D01*
X12709762Y-11311667D01*
X12719286Y-11273571D01*
X12728809Y-11254524D01*
X12738333Y-11245000D01*
X12757381Y-11235476D01*
X12909762Y-11435476D02*
X12909762Y-11302143D01*
X12909762Y-11321190D02*
X12919286Y-11311667D01*
X12938333Y-11302143D01*
X12966905Y-11302143D01*
X12985952Y-11311667D01*
X12995476Y-11330714D01*
X12995476Y-11435476D01*
X12995476Y-11330714D02*
X13005000Y-11311667D01*
X13024048Y-11302143D01*
X13052619Y-11302143D01*
X13071667Y-11311667D01*
X13081190Y-11330714D01*
X13081190Y-11435476D01*
X13176428Y-11435476D02*
X13176428Y-11302143D01*
X13176428Y-11321190D02*
X13185952Y-11311667D01*
X13205000Y-11302143D01*
X13233571Y-11302143D01*
X13252619Y-11311667D01*
X13262143Y-11330714D01*
X13262143Y-11435476D01*
X13262143Y-11330714D02*
X13271667Y-11311667D01*
X13290714Y-11302143D01*
X13319286Y-11302143D01*
X13338333Y-11311667D01*
X13347857Y-11330714D01*
X13347857Y-11435476D01*
X13738333Y-11225952D02*
X13566905Y-11483095D01*
X13995476Y-11235476D02*
X14014524Y-11235476D01*
X14033571Y-11245000D01*
X14043095Y-11254524D01*
X14052619Y-11273571D01*
X14062143Y-11311667D01*
X14062143Y-11359286D01*
X14052619Y-11397381D01*
X14043095Y-11416428D01*
X14033571Y-11425952D01*
X14014524Y-11435476D01*
X13995476Y-11435476D01*
X13976428Y-11425952D01*
X13966905Y-11416428D01*
X13957381Y-11397381D01*
X13947857Y-11359286D01*
X13947857Y-11311667D01*
X13957381Y-11273571D01*
X13966905Y-11254524D01*
X13976428Y-11245000D01*
X13995476Y-11235476D01*
X14147857Y-11416428D02*
X14157381Y-11425952D01*
X14147857Y-11435476D01*
X14138333Y-11425952D01*
X14147857Y-11416428D01*
X14147857Y-11435476D01*
X14281190Y-11235476D02*
X14300238Y-11235476D01*
X14319286Y-11245000D01*
X14328809Y-11254524D01*
X14338333Y-11273571D01*
X14347857Y-11311667D01*
X14347857Y-11359286D01*
X14338333Y-11397381D01*
X14328809Y-11416428D01*
X14319286Y-11425952D01*
X14300238Y-11435476D01*
X14281190Y-11435476D01*
X14262143Y-11425952D01*
X14252619Y-11416428D01*
X14243095Y-11397381D01*
X14233571Y-11359286D01*
X14233571Y-11311667D01*
X14243095Y-11273571D01*
X14252619Y-11254524D01*
X14262143Y-11245000D01*
X14281190Y-11235476D01*
X14538333Y-11435476D02*
X14424048Y-11435476D01*
X14481190Y-11435476D02*
X14481190Y-11235476D01*
X14462143Y-11264048D01*
X14443095Y-11283095D01*
X14424048Y-11292619D01*
X14719286Y-11235476D02*
X14624048Y-11235476D01*
X14614524Y-11330714D01*
X14624048Y-11321190D01*
X14643095Y-11311667D01*
X14690714Y-11311667D01*
X14709762Y-11321190D01*
X14719286Y-11330714D01*
X14728809Y-11349762D01*
X14728809Y-11397381D01*
X14719286Y-11416428D01*
X14709762Y-11425952D01*
X14690714Y-11435476D01*
X14643095Y-11435476D01*
X14624048Y-11425952D01*
X14614524Y-11416428D01*
X14795476Y-11235476D02*
X14928809Y-11235476D01*
X14843095Y-11435476D01*
X14995476Y-11235476D02*
X14995476Y-11273571D01*
X15071667Y-11235476D02*
X15071667Y-11273571D01*
X15366905Y-11511667D02*
X15357381Y-11502143D01*
X15338333Y-11473571D01*
X15328809Y-11454524D01*
X15319286Y-11425952D01*
X15309762Y-11378333D01*
X15309762Y-11340238D01*
X15319286Y-11292619D01*
X15328809Y-11264048D01*
X15338333Y-11245000D01*
X15357381Y-11216428D01*
X15366905Y-11206905D01*
X15528809Y-11235476D02*
X15490714Y-11235476D01*
X15471667Y-11245000D01*
X15462143Y-11254524D01*
X15443095Y-11283095D01*
X15433571Y-11321190D01*
X15433571Y-11397381D01*
X15443095Y-11416428D01*
X15452619Y-11425952D01*
X15471667Y-11435476D01*
X15509762Y-11435476D01*
X15528809Y-11425952D01*
X15538333Y-11416428D01*
X15547857Y-11397381D01*
X15547857Y-11349762D01*
X15538333Y-11330714D01*
X15528809Y-11321190D01*
X15509762Y-11311667D01*
X15471667Y-11311667D01*
X15452619Y-11321190D01*
X15443095Y-11330714D01*
X15433571Y-11349762D01*
X15671667Y-11235476D02*
X15690714Y-11235476D01*
X15709762Y-11245000D01*
X15719286Y-11254524D01*
X15728809Y-11273571D01*
X15738333Y-11311667D01*
X15738333Y-11359286D01*
X15728809Y-11397381D01*
X15719286Y-11416428D01*
X15709762Y-11425952D01*
X15690714Y-11435476D01*
X15671667Y-11435476D01*
X15652619Y-11425952D01*
X15643095Y-11416428D01*
X15633571Y-11397381D01*
X15624048Y-11359286D01*
X15624048Y-11311667D01*
X15633571Y-11273571D01*
X15643095Y-11254524D01*
X15652619Y-11245000D01*
X15671667Y-11235476D01*
X15976428Y-11435476D02*
X15976428Y-11235476D01*
X16062143Y-11435476D02*
X16062143Y-11330714D01*
X16052619Y-11311667D01*
X16033571Y-11302143D01*
X16005000Y-11302143D01*
X15985952Y-11311667D01*
X15976428Y-11321190D01*
X16185952Y-11435476D02*
X16166905Y-11425952D01*
X16157381Y-11416428D01*
X16147857Y-11397381D01*
X16147857Y-11340238D01*
X16157381Y-11321190D01*
X16166905Y-11311667D01*
X16185952Y-11302143D01*
X16214524Y-11302143D01*
X16233571Y-11311667D01*
X16243095Y-11321190D01*
X16252619Y-11340238D01*
X16252619Y-11397381D01*
X16243095Y-11416428D01*
X16233571Y-11425952D01*
X16214524Y-11435476D01*
X16185952Y-11435476D01*
X16366905Y-11435476D02*
X16347857Y-11425952D01*
X16338333Y-11406905D01*
X16338333Y-11235476D01*
X16519286Y-11425952D02*
X16500238Y-11435476D01*
X16462143Y-11435476D01*
X16443095Y-11425952D01*
X16433571Y-11406905D01*
X16433571Y-11330714D01*
X16443095Y-11311667D01*
X16462143Y-11302143D01*
X16500238Y-11302143D01*
X16519286Y-11311667D01*
X16528809Y-11330714D01*
X16528809Y-11349762D01*
X16433571Y-11368809D01*
X16605000Y-11425952D02*
X16624048Y-11435476D01*
X16662143Y-11435476D01*
X16681190Y-11425952D01*
X16690714Y-11406905D01*
X16690714Y-11397381D01*
X16681190Y-11378333D01*
X16662143Y-11368809D01*
X16633571Y-11368809D01*
X16614524Y-11359286D01*
X16605000Y-11340238D01*
X16605000Y-11330714D01*
X16614524Y-11311667D01*
X16633571Y-11302143D01*
X16662143Y-11302143D01*
X16681190Y-11311667D01*
X16757381Y-11511667D02*
X16766905Y-11502143D01*
X16785952Y-11473571D01*
X16795476Y-11454524D01*
X16805000Y-11425952D01*
X16814524Y-11378333D01*
X16814524Y-11340238D01*
X16805000Y-11292619D01*
X16795476Y-11264048D01*
X16785952Y-11245000D01*
X16766905Y-11216428D01*
X16757381Y-11206905D01*
X11795000Y-11609000D02*
G75*
G03*
X11795000Y-11609000I-100000J0D01*
G01*
X12043095Y-11518524D02*
X12052619Y-11509000D01*
X12071667Y-11499476D01*
X12119286Y-11499476D01*
X12138333Y-11509000D01*
X12147857Y-11518524D01*
X12157381Y-11537571D01*
X12157381Y-11556619D01*
X12147857Y-11585190D01*
X12033571Y-11699476D01*
X12157381Y-11699476D01*
X12243095Y-11680428D02*
X12252619Y-11689952D01*
X12243095Y-11699476D01*
X12233571Y-11689952D01*
X12243095Y-11680428D01*
X12243095Y-11699476D01*
X12328809Y-11518524D02*
X12338333Y-11509000D01*
X12357381Y-11499476D01*
X12405000Y-11499476D01*
X12424048Y-11509000D01*
X12433571Y-11518524D01*
X12443095Y-11537571D01*
X12443095Y-11556619D01*
X12433571Y-11585190D01*
X12319286Y-11699476D01*
X12443095Y-11699476D01*
X12566905Y-11499476D02*
X12585952Y-11499476D01*
X12605000Y-11509000D01*
X12614524Y-11518524D01*
X12624048Y-11537571D01*
X12633571Y-11575667D01*
X12633571Y-11623286D01*
X12624048Y-11661381D01*
X12614524Y-11680428D01*
X12605000Y-11689952D01*
X12585952Y-11699476D01*
X12566905Y-11699476D01*
X12547857Y-11689952D01*
X12538333Y-11680428D01*
X12528809Y-11661381D01*
X12519286Y-11623286D01*
X12519286Y-11575667D01*
X12528809Y-11537571D01*
X12538333Y-11518524D01*
X12547857Y-11509000D01*
X12566905Y-11499476D01*
X12757381Y-11499476D02*
X12776428Y-11499476D01*
X12795476Y-11509000D01*
X12805000Y-11518524D01*
X12814524Y-11537571D01*
X12824048Y-11575667D01*
X12824048Y-11623286D01*
X12814524Y-11661381D01*
X12805000Y-11680428D01*
X12795476Y-11689952D01*
X12776428Y-11699476D01*
X12757381Y-11699476D01*
X12738333Y-11689952D01*
X12728809Y-11680428D01*
X12719286Y-11661381D01*
X12709762Y-11623286D01*
X12709762Y-11575667D01*
X12719286Y-11537571D01*
X12728809Y-11518524D01*
X12738333Y-11509000D01*
X12757381Y-11499476D01*
X12909762Y-11699476D02*
X12909762Y-11566143D01*
X12909762Y-11585190D02*
X12919286Y-11575667D01*
X12938333Y-11566143D01*
X12966905Y-11566143D01*
X12985952Y-11575667D01*
X12995476Y-11594714D01*
X12995476Y-11699476D01*
X12995476Y-11594714D02*
X13005000Y-11575667D01*
X13024048Y-11566143D01*
X13052619Y-11566143D01*
X13071667Y-11575667D01*
X13081190Y-11594714D01*
X13081190Y-11699476D01*
X13176428Y-11699476D02*
X13176428Y-11566143D01*
X13176428Y-11585190D02*
X13185952Y-11575667D01*
X13205000Y-11566143D01*
X13233571Y-11566143D01*
X13252619Y-11575667D01*
X13262143Y-11594714D01*
X13262143Y-11699476D01*
X13262143Y-11594714D02*
X13271667Y-11575667D01*
X13290714Y-11566143D01*
X13319286Y-11566143D01*
X13338333Y-11575667D01*
X13347857Y-11594714D01*
X13347857Y-11699476D01*
X13738333Y-11489952D02*
X13566905Y-11747095D01*
X13995476Y-11499476D02*
X14014524Y-11499476D01*
X14033571Y-11509000D01*
X14043095Y-11518524D01*
X14052619Y-11537571D01*
X14062143Y-11575667D01*
X14062143Y-11623286D01*
X14052619Y-11661381D01*
X14043095Y-11680428D01*
X14033571Y-11689952D01*
X14014524Y-11699476D01*
X13995476Y-11699476D01*
X13976428Y-11689952D01*
X13966905Y-11680428D01*
X13957381Y-11661381D01*
X13947857Y-11623286D01*
X13947857Y-11575667D01*
X13957381Y-11537571D01*
X13966905Y-11518524D01*
X13976428Y-11509000D01*
X13995476Y-11499476D01*
X14147857Y-11680428D02*
X14157381Y-11689952D01*
X14147857Y-11699476D01*
X14138333Y-11689952D01*
X14147857Y-11680428D01*
X14147857Y-11699476D01*
X14281190Y-11499476D02*
X14300238Y-11499476D01*
X14319286Y-11509000D01*
X14328809Y-11518524D01*
X14338333Y-11537571D01*
X14347857Y-11575667D01*
X14347857Y-11623286D01*
X14338333Y-11661381D01*
X14328809Y-11680428D01*
X14319286Y-11689952D01*
X14300238Y-11699476D01*
X14281190Y-11699476D01*
X14262143Y-11689952D01*
X14252619Y-11680428D01*
X14243095Y-11661381D01*
X14233571Y-11623286D01*
X14233571Y-11575667D01*
X14243095Y-11537571D01*
X14252619Y-11518524D01*
X14262143Y-11509000D01*
X14281190Y-11499476D01*
X14462143Y-11585190D02*
X14443095Y-11575667D01*
X14433571Y-11566143D01*
X14424048Y-11547095D01*
X14424048Y-11537571D01*
X14433571Y-11518524D01*
X14443095Y-11509000D01*
X14462143Y-11499476D01*
X14500238Y-11499476D01*
X14519286Y-11509000D01*
X14528809Y-11518524D01*
X14538333Y-11537571D01*
X14538333Y-11547095D01*
X14528809Y-11566143D01*
X14519286Y-11575667D01*
X14500238Y-11585190D01*
X14462143Y-11585190D01*
X14443095Y-11594714D01*
X14433571Y-11604238D01*
X14424048Y-11623286D01*
X14424048Y-11661381D01*
X14433571Y-11680428D01*
X14443095Y-11689952D01*
X14462143Y-11699476D01*
X14500238Y-11699476D01*
X14519286Y-11689952D01*
X14528809Y-11680428D01*
X14538333Y-11661381D01*
X14538333Y-11623286D01*
X14528809Y-11604238D01*
X14519286Y-11594714D01*
X14500238Y-11585190D01*
X14709762Y-11499476D02*
X14671667Y-11499476D01*
X14652619Y-11509000D01*
X14643095Y-11518524D01*
X14624048Y-11547095D01*
X14614524Y-11585190D01*
X14614524Y-11661381D01*
X14624048Y-11680428D01*
X14633571Y-11689952D01*
X14652619Y-11699476D01*
X14690714Y-11699476D01*
X14709762Y-11689952D01*
X14719286Y-11680428D01*
X14728809Y-11661381D01*
X14728809Y-11613762D01*
X14719286Y-11594714D01*
X14709762Y-11585190D01*
X14690714Y-11575667D01*
X14652619Y-11575667D01*
X14633571Y-11585190D01*
X14624048Y-11594714D01*
X14614524Y-11613762D01*
X14900238Y-11499476D02*
X14862143Y-11499476D01*
X14843095Y-11509000D01*
X14833571Y-11518524D01*
X14814524Y-11547095D01*
X14805000Y-11585190D01*
X14805000Y-11661381D01*
X14814524Y-11680428D01*
X14824048Y-11689952D01*
X14843095Y-11699476D01*
X14881190Y-11699476D01*
X14900238Y-11689952D01*
X14909762Y-11680428D01*
X14919286Y-11661381D01*
X14919286Y-11613762D01*
X14909762Y-11594714D01*
X14900238Y-11585190D01*
X14881190Y-11575667D01*
X14843095Y-11575667D01*
X14824048Y-11585190D01*
X14814524Y-11594714D01*
X14805000Y-11613762D01*
X14995476Y-11499476D02*
X14995476Y-11537571D01*
X15071667Y-11499476D02*
X15071667Y-11537571D01*
X15366905Y-11775667D02*
X15357381Y-11766143D01*
X15338333Y-11737571D01*
X15328809Y-11718524D01*
X15319286Y-11689952D01*
X15309762Y-11642333D01*
X15309762Y-11604238D01*
X15319286Y-11556619D01*
X15328809Y-11528048D01*
X15338333Y-11509000D01*
X15357381Y-11480428D01*
X15366905Y-11470905D01*
X15547857Y-11699476D02*
X15433571Y-11699476D01*
X15490714Y-11699476D02*
X15490714Y-11499476D01*
X15471667Y-11528048D01*
X15452619Y-11547095D01*
X15433571Y-11556619D01*
X15671667Y-11499476D02*
X15690714Y-11499476D01*
X15709762Y-11509000D01*
X15719286Y-11518524D01*
X15728809Y-11537571D01*
X15738333Y-11575667D01*
X15738333Y-11623286D01*
X15728809Y-11661381D01*
X15719286Y-11680428D01*
X15709762Y-11689952D01*
X15690714Y-11699476D01*
X15671667Y-11699476D01*
X15652619Y-11689952D01*
X15643095Y-11680428D01*
X15633571Y-11661381D01*
X15624048Y-11623286D01*
X15624048Y-11575667D01*
X15633571Y-11537571D01*
X15643095Y-11518524D01*
X15652619Y-11509000D01*
X15671667Y-11499476D01*
X15976428Y-11699476D02*
X15976428Y-11499476D01*
X16062143Y-11699476D02*
X16062143Y-11594714D01*
X16052619Y-11575667D01*
X16033571Y-11566143D01*
X16005000Y-11566143D01*
X15985952Y-11575667D01*
X15976428Y-11585190D01*
X16185952Y-11699476D02*
X16166905Y-11689952D01*
X16157381Y-11680428D01*
X16147857Y-11661381D01*
X16147857Y-11604238D01*
X16157381Y-11585190D01*
X16166905Y-11575667D01*
X16185952Y-11566143D01*
X16214524Y-11566143D01*
X16233571Y-11575667D01*
X16243095Y-11585190D01*
X16252619Y-11604238D01*
X16252619Y-11661381D01*
X16243095Y-11680428D01*
X16233571Y-11689952D01*
X16214524Y-11699476D01*
X16185952Y-11699476D01*
X16366905Y-11699476D02*
X16347857Y-11689952D01*
X16338333Y-11670905D01*
X16338333Y-11499476D01*
X16519286Y-11689952D02*
X16500238Y-11699476D01*
X16462143Y-11699476D01*
X16443095Y-11689952D01*
X16433571Y-11670905D01*
X16433571Y-11594714D01*
X16443095Y-11575667D01*
X16462143Y-11566143D01*
X16500238Y-11566143D01*
X16519286Y-11575667D01*
X16528809Y-11594714D01*
X16528809Y-11613762D01*
X16433571Y-11632809D01*
X16605000Y-11689952D02*
X16624048Y-11699476D01*
X16662143Y-11699476D01*
X16681190Y-11689952D01*
X16690714Y-11670905D01*
X16690714Y-11661381D01*
X16681190Y-11642333D01*
X16662143Y-11632809D01*
X16633571Y-11632809D01*
X16614524Y-11623286D01*
X16605000Y-11604238D01*
X16605000Y-11594714D01*
X16614524Y-11575667D01*
X16633571Y-11566143D01*
X16662143Y-11566143D01*
X16681190Y-11575667D01*
X16757381Y-11775667D02*
X16766905Y-11766143D01*
X16785952Y-11737571D01*
X16795476Y-11718524D01*
X16805000Y-11689952D01*
X16814524Y-11642333D01*
X16814524Y-11604238D01*
X16805000Y-11556619D01*
X16795476Y-11528048D01*
X16785952Y-11509000D01*
X16766905Y-11480428D01*
X16757381Y-11470905D01*
M02*
