M48
; DRILL file {KiCad 6.0.1-79c1e3a40b~116~ubuntu20.04.1} date Sun 30 Jan 2022 13:40:50 CET
; FORMAT={-:-/ absolute / metric / decimal}
; #@! TF.CreationDate,2022-01-30T13:40:50+01:00
; #@! TF.GenerationSoftware,Kicad,Pcbnew,6.0.1-79c1e3a40b~116~ubuntu20.04.1
; #@! TF.FileFunction,Plated,1,2,PTH
FMAT,2
METRIC
; #@! TA.AperFunction,Plated,PTH,ComponentDrill
T1C0.400
; #@! TA.AperFunction,Plated,PTH,ComponentDrill
T2C2.200
%
G90
G05
T1
X120.5Y-91.5
X120.5Y-93.5
X121.0Y-91.0
X121.0Y-94.0
X121.5Y-91.5
X121.5Y-93.5
X122.0Y-91.0
X122.0Y-94.0
X122.5Y-91.5
X122.5Y-91.5
X122.5Y-93.5
X122.5Y-93.5
X123.0Y-91.0
X123.0Y-94.0
X123.5Y-91.5
X123.5Y-93.5
X124.0Y-91.0
X124.0Y-94.0
X124.5Y-91.5
X124.5Y-93.5
X131.0Y-101.0
X131.0Y-102.0
X131.0Y-103.0
X131.0Y-104.0
X131.5Y-100.5
X131.5Y-101.5
X131.5Y-102.5
X131.5Y-102.5
X131.5Y-103.5
X131.5Y-104.5
X133.5Y-100.5
X133.5Y-101.5
X133.5Y-102.5
X133.5Y-102.5
X133.5Y-103.5
X133.5Y-104.5
X134.0Y-101.0
X134.0Y-102.0
X134.0Y-103.0
X134.0Y-104.0
X140.5Y-91.5
X140.5Y-93.5
X141.0Y-91.0
X141.0Y-94.0
X141.5Y-91.5
X141.5Y-93.5
X142.0Y-91.0
X142.0Y-94.0
X142.5Y-91.5
X142.5Y-91.5
X142.5Y-93.5
X142.5Y-93.5
X143.0Y-91.0
X143.0Y-94.0
X143.5Y-91.5
X143.5Y-93.5
X144.0Y-91.0
X144.0Y-94.0
X144.5Y-91.5
X144.5Y-93.5
T2
X120.0Y-85.0
X120.0Y-100.0
X125.0Y-85.0
X125.0Y-100.0
X125.0Y-105.0
X140.0Y-85.0
X140.0Y-100.0
X140.0Y-105.0
X145.0Y-85.0
X145.0Y-100.0
T0
M30
