%TF.GenerationSoftware,KiCad,Pcbnew,6.0.1-79c1e3a40b~116~ubuntu20.04.1*%
%TF.CreationDate,2022-01-30T13:40:47+01:00*%
%TF.ProjectId,pcb-connector-x3,7063622d-636f-46e6-9e65-63746f722d78,rev?*%
%TF.SameCoordinates,Original*%
%TF.FileFunction,Copper,L1,Top*%
%TF.FilePolarity,Positive*%
%FSLAX46Y46*%
G04 Gerber Fmt 4.6, Leading zero omitted, Abs format (unit mm)*
G04 Created by KiCad (PCBNEW 6.0.1-79c1e3a40b~116~ubuntu20.04.1) date 2022-01-30 13:40:47*
%MOMM*%
%LPD*%
G01*
G04 APERTURE LIST*
%TA.AperFunction,SMDPad,CuDef*%
%ADD10R,3.000000X0.800000*%
%TD*%
%TA.AperFunction,ComponentPad*%
%ADD11C,0.800000*%
%TD*%
%TA.AperFunction,SMDPad,CuDef*%
%ADD12R,3.000000X2.000000*%
%TD*%
%TA.AperFunction,SMDPad,CuDef*%
%ADD13R,0.800000X3.000000*%
%TD*%
%TA.AperFunction,SMDPad,CuDef*%
%ADD14R,2.000000X3.000000*%
%TD*%
%TA.AperFunction,ComponentPad*%
%ADD15C,3.400000*%
%TD*%
G04 APERTURE END LIST*
D10*
%TO.P,J6,1,Pin_1*%
%TO.N,Net-(J3-Pad1)*%
X143500000Y-92500000D03*
D11*
%TO.P,J6,2,Pin_2*%
%TO.N,GND*%
X143000000Y-94000000D03*
X144000000Y-94000000D03*
X144500000Y-91500000D03*
X142500000Y-91500000D03*
X144500000Y-93500000D03*
D12*
X143500000Y-90900000D03*
X143500000Y-94100000D03*
D11*
X143000000Y-91000000D03*
X144000000Y-91000000D03*
X143500000Y-91500000D03*
X142500000Y-93500000D03*
X143500000Y-93500000D03*
%TD*%
D10*
%TO.P,J5,1,Pin_1*%
%TO.N,Net-(J2-Pad1)*%
X123500000Y-92500000D03*
D11*
%TO.P,J5,2,Pin_2*%
%TO.N,GND*%
X123000000Y-94000000D03*
X124000000Y-94000000D03*
X124500000Y-91500000D03*
X122500000Y-91500000D03*
X124500000Y-93500000D03*
D12*
X123500000Y-90900000D03*
X123500000Y-94100000D03*
D11*
X123000000Y-91000000D03*
X124000000Y-91000000D03*
X123500000Y-91500000D03*
X122500000Y-93500000D03*
X123500000Y-93500000D03*
%TD*%
D13*
%TO.P,J4,1,Pin_1*%
%TO.N,Net-(J1-Pad1)*%
X132500000Y-103500000D03*
D11*
%TO.P,J4,2,Pin_2*%
%TO.N,GND*%
X131000000Y-103000000D03*
X131000000Y-104000000D03*
X133500000Y-104500000D03*
X133500000Y-102500000D03*
X131500000Y-104500000D03*
D14*
X134100000Y-103500000D03*
X130900000Y-103500000D03*
D11*
X134000000Y-103000000D03*
X134000000Y-104000000D03*
X133500000Y-103500000D03*
X131500000Y-102500000D03*
X131500000Y-103500000D03*
%TD*%
D10*
%TO.P,J3,1,Pin_1*%
%TO.N,Net-(J3-Pad1)*%
X141500000Y-92500000D03*
D11*
%TO.P,J3,2,Pin_2*%
%TO.N,GND*%
X142000000Y-91000000D03*
X141000000Y-91000000D03*
X140500000Y-93500000D03*
X142500000Y-93500000D03*
X140500000Y-91500000D03*
D12*
X141500000Y-94100000D03*
X141500000Y-90900000D03*
D11*
X142000000Y-94000000D03*
X141000000Y-94000000D03*
X141500000Y-93500000D03*
X142500000Y-91500000D03*
X141500000Y-91500000D03*
%TD*%
D10*
%TO.P,J2,1,Pin_1*%
%TO.N,Net-(J2-Pad1)*%
X121500000Y-92500000D03*
D11*
%TO.P,J2,2,Pin_2*%
%TO.N,GND*%
X122000000Y-91000000D03*
X121000000Y-91000000D03*
X120500000Y-93500000D03*
X122500000Y-93500000D03*
X120500000Y-91500000D03*
D12*
X121500000Y-94100000D03*
X121500000Y-90900000D03*
D11*
X122000000Y-94000000D03*
X121000000Y-94000000D03*
X121500000Y-93500000D03*
X122500000Y-91500000D03*
X121500000Y-91500000D03*
%TD*%
D13*
%TO.P,J1,1,Pin_1*%
%TO.N,Net-(J1-Pad1)*%
X132500000Y-101500000D03*
D11*
%TO.P,J1,2,Pin_2*%
%TO.N,GND*%
X134000000Y-102000000D03*
X134000000Y-101000000D03*
X131500000Y-100500000D03*
X131500000Y-102500000D03*
X133500000Y-100500000D03*
D14*
X130900000Y-101500000D03*
X134100000Y-101500000D03*
D11*
X131000000Y-102000000D03*
X131000000Y-101000000D03*
X131500000Y-101500000D03*
X133500000Y-102500000D03*
X133500000Y-101500000D03*
%TD*%
D15*
%TO.P,H10,1,1*%
%TO.N,GND*%
X140000000Y-85000000D03*
%TD*%
%TO.P,H9,1,1*%
%TO.N,GND*%
X125000000Y-105000000D03*
%TD*%
%TO.P,H8,1,1*%
%TO.N,GND*%
X120000000Y-85000000D03*
%TD*%
%TO.P,H7,1,1*%
%TO.N,GND*%
X125000000Y-100000000D03*
%TD*%
%TO.P,H6,1,1*%
%TO.N,GND*%
X145000000Y-100000000D03*
%TD*%
%TO.P,H5,1,1*%
%TO.N,GND*%
X120000000Y-100000000D03*
%TD*%
%TO.P,H4,1,1*%
%TO.N,GND*%
X140000000Y-105000000D03*
%TD*%
%TO.P,H3,1,1*%
%TO.N,GND*%
X145000000Y-85000000D03*
%TD*%
%TO.P,H2,1,1*%
%TO.N,GND*%
X125000000Y-85000000D03*
%TD*%
%TO.P,H1,1,1*%
%TO.N,GND*%
X140000000Y-100000000D03*
%TD*%
%TA.AperFunction,Conductor*%
%TO.N,GND*%
G36*
X124759191Y-93119407D02*
G01*
X124795155Y-93168907D01*
X124800000Y-93199500D01*
X124800000Y-97994123D01*
X124799955Y-98045449D01*
X124804781Y-98055498D01*
X124804781Y-98055500D01*
X124805185Y-98056341D01*
X124812463Y-98077183D01*
X124812670Y-98078093D01*
X124812672Y-98078096D01*
X124815150Y-98088962D01*
X124822097Y-98097680D01*
X124822520Y-98098211D01*
X124834334Y-98117046D01*
X124834625Y-98117653D01*
X124834628Y-98117657D01*
X124839453Y-98127705D01*
X124848893Y-98135254D01*
X124864484Y-98150872D01*
X124872015Y-98160323D01*
X124882058Y-98165167D01*
X124882663Y-98165459D01*
X124901478Y-98177308D01*
X124902005Y-98177730D01*
X124902010Y-98177732D01*
X124910715Y-98184694D01*
X124922405Y-98187382D01*
X124922492Y-98187402D01*
X124943318Y-98194715D01*
X124954202Y-98199965D01*
X124966018Y-98199975D01*
X124988120Y-98202494D01*
X124988774Y-98202644D01*
X124988775Y-98202644D01*
X124999642Y-98205143D01*
X125010517Y-98202682D01*
X125021664Y-98202702D01*
X125021664Y-98202863D01*
X125031669Y-98202076D01*
X125103759Y-98206801D01*
X125228475Y-98214975D01*
X125241302Y-98216663D01*
X125459516Y-98260068D01*
X125472016Y-98263418D01*
X125682691Y-98334933D01*
X125694653Y-98339889D01*
X125735816Y-98360188D01*
X125894180Y-98438284D01*
X125905386Y-98444753D01*
X126090385Y-98568365D01*
X126100639Y-98576233D01*
X126267914Y-98722930D01*
X126277069Y-98732085D01*
X126423767Y-98899361D01*
X126431635Y-98909615D01*
X126555247Y-99094614D01*
X126561716Y-99105820D01*
X126633929Y-99252253D01*
X126660111Y-99305346D01*
X126665067Y-99317309D01*
X126736581Y-99527980D01*
X126739932Y-99540484D01*
X126780381Y-99743833D01*
X126783336Y-99758691D01*
X126785026Y-99771530D01*
X126797891Y-99967816D01*
X126797101Y-99977628D01*
X126797375Y-99977628D01*
X126797355Y-99988778D01*
X126794857Y-99999642D01*
X126797317Y-100010514D01*
X126797317Y-100010516D01*
X126797525Y-100011433D01*
X126799965Y-100033360D01*
X126799964Y-100034298D01*
X126799965Y-100034301D01*
X126799955Y-100045449D01*
X126805072Y-100056106D01*
X126812386Y-100077110D01*
X126814995Y-100088639D01*
X126822512Y-100098106D01*
X126834220Y-100116807D01*
X126839453Y-100127705D01*
X126848157Y-100134666D01*
X126848158Y-100134667D01*
X126848684Y-100135087D01*
X126864385Y-100150843D01*
X126864801Y-100151367D01*
X126864803Y-100151369D01*
X126871736Y-100160100D01*
X126881770Y-100164961D01*
X126881771Y-100164962D01*
X126882613Y-100165370D01*
X126901278Y-100177147D01*
X126901695Y-100177480D01*
X126910715Y-100184694D01*
X126921578Y-100187192D01*
X126921583Y-100187194D01*
X126922236Y-100187344D01*
X126943220Y-100194733D01*
X126943822Y-100195025D01*
X126943823Y-100195025D01*
X126953853Y-100199885D01*
X126977041Y-100199946D01*
X126977036Y-100201667D01*
X126977277Y-100201643D01*
X126977277Y-100200000D01*
X126997758Y-100200000D01*
X127044297Y-100200122D01*
X127044298Y-100200122D01*
X127045100Y-100200124D01*
X127045350Y-100200005D01*
X127045390Y-100200000D01*
X131800500Y-100200000D01*
X131858691Y-100218907D01*
X131894655Y-100268407D01*
X131899500Y-100299000D01*
X131899500Y-104701000D01*
X131880593Y-104759191D01*
X131831093Y-104795155D01*
X131800500Y-104800000D01*
X127005877Y-104800000D01*
X126954551Y-104799955D01*
X126944502Y-104804781D01*
X126944500Y-104804781D01*
X126943659Y-104805185D01*
X126922817Y-104812463D01*
X126921907Y-104812670D01*
X126921904Y-104812672D01*
X126911038Y-104815150D01*
X126902320Y-104822097D01*
X126901789Y-104822520D01*
X126882954Y-104834334D01*
X126882347Y-104834625D01*
X126882343Y-104834628D01*
X126872295Y-104839453D01*
X126864746Y-104848893D01*
X126849128Y-104864484D01*
X126839677Y-104872015D01*
X126834593Y-104882555D01*
X126834541Y-104882663D01*
X126822692Y-104901478D01*
X126822270Y-104902005D01*
X126822268Y-104902010D01*
X126815306Y-104910715D01*
X126812808Y-104921581D01*
X126812598Y-104922492D01*
X126805285Y-104943318D01*
X126800035Y-104954202D01*
X126800025Y-104965701D01*
X126800025Y-104966016D01*
X126797506Y-104988120D01*
X126797426Y-104988470D01*
X126794857Y-104999642D01*
X126797318Y-105010517D01*
X126797298Y-105021663D01*
X126796985Y-105021662D01*
X126797739Y-105031614D01*
X126782184Y-105249109D01*
X126780173Y-105263091D01*
X126728593Y-105500197D01*
X126724614Y-105513750D01*
X126639812Y-105741113D01*
X126633944Y-105753962D01*
X126517649Y-105966938D01*
X126510013Y-105978820D01*
X126364595Y-106173077D01*
X126355345Y-106183753D01*
X126183753Y-106355345D01*
X126173077Y-106364595D01*
X125978820Y-106510013D01*
X125966938Y-106517649D01*
X125753962Y-106633944D01*
X125741113Y-106639812D01*
X125603110Y-106691284D01*
X125513747Y-106724615D01*
X125500200Y-106728592D01*
X125263088Y-106780173D01*
X125249112Y-106782184D01*
X125007061Y-106799495D01*
X124992939Y-106799495D01*
X124750888Y-106782184D01*
X124736912Y-106780173D01*
X124499800Y-106728592D01*
X124486253Y-106724615D01*
X124396890Y-106691284D01*
X124258887Y-106639812D01*
X124246038Y-106633944D01*
X124033062Y-106517649D01*
X124021180Y-106510013D01*
X123826923Y-106364595D01*
X123816247Y-106355345D01*
X123644655Y-106183753D01*
X123635405Y-106173077D01*
X123489987Y-105978820D01*
X123482351Y-105966938D01*
X123366056Y-105753962D01*
X123360188Y-105741113D01*
X123275386Y-105513750D01*
X123271407Y-105500197D01*
X123219827Y-105263091D01*
X123217816Y-105249109D01*
X123202316Y-105032382D01*
X123203927Y-105011833D01*
X123203235Y-105011753D01*
X123203877Y-105006176D01*
X123205142Y-105000716D01*
X123205143Y-105000000D01*
X123204197Y-104995852D01*
X123204135Y-104995100D01*
X123204075Y-104993945D01*
X123186838Y-104665050D01*
X123134368Y-104333769D01*
X123047558Y-104009788D01*
X122927357Y-103696656D01*
X122926184Y-103694353D01*
X122926180Y-103694345D01*
X122776261Y-103400111D01*
X122776256Y-103400103D01*
X122775085Y-103397804D01*
X122681846Y-103254229D01*
X122593824Y-103118687D01*
X122593818Y-103118679D01*
X122592407Y-103116506D01*
X122381327Y-102855844D01*
X122144156Y-102618673D01*
X121883494Y-102407593D01*
X121881321Y-102406182D01*
X121881313Y-102406176D01*
X121604374Y-102226329D01*
X121604368Y-102226326D01*
X121602196Y-102224915D01*
X121599897Y-102223744D01*
X121599889Y-102223739D01*
X121305655Y-102073820D01*
X121305647Y-102073816D01*
X121303344Y-102072643D01*
X120990212Y-101952442D01*
X120987715Y-101951773D01*
X120987709Y-101951771D01*
X120668740Y-101866304D01*
X120668735Y-101866303D01*
X120666231Y-101865632D01*
X120628753Y-101859696D01*
X120337516Y-101813568D01*
X120337508Y-101813567D01*
X120334950Y-101813162D01*
X120006046Y-101795925D01*
X120004910Y-101795831D01*
X120000716Y-101794858D01*
X120000360Y-101794858D01*
X120000358Y-101794857D01*
X120000000Y-101794857D01*
X119994588Y-101796091D01*
X119989061Y-101796714D01*
X119988995Y-101796124D01*
X119968132Y-101797720D01*
X119829375Y-101787797D01*
X119750888Y-101782184D01*
X119736912Y-101780173D01*
X119499800Y-101728592D01*
X119486253Y-101724615D01*
X119396890Y-101691284D01*
X119258887Y-101639812D01*
X119246038Y-101633944D01*
X119033062Y-101517649D01*
X119021180Y-101510013D01*
X118826923Y-101364595D01*
X118816247Y-101355345D01*
X118644655Y-101183753D01*
X118635405Y-101173077D01*
X118489987Y-100978820D01*
X118482351Y-100966938D01*
X118366056Y-100753962D01*
X118360188Y-100741113D01*
X118275386Y-100513750D01*
X118271407Y-100500197D01*
X118225197Y-100287774D01*
X118219827Y-100263088D01*
X118217816Y-100249109D01*
X118217223Y-100240809D01*
X118200505Y-100007061D01*
X118200505Y-99992938D01*
X118217816Y-99750891D01*
X118219827Y-99736909D01*
X118263941Y-99534126D01*
X118271408Y-99499800D01*
X118275386Y-99486250D01*
X118280499Y-99472543D01*
X118340687Y-99311170D01*
X118360188Y-99258887D01*
X118366056Y-99246038D01*
X118482351Y-99033062D01*
X118489987Y-99021180D01*
X118635405Y-98826923D01*
X118644655Y-98816247D01*
X118816247Y-98644655D01*
X118826923Y-98635405D01*
X119021180Y-98489987D01*
X119033062Y-98482351D01*
X119246038Y-98366056D01*
X119258887Y-98360188D01*
X119396890Y-98308716D01*
X119486253Y-98275385D01*
X119499800Y-98271408D01*
X119736912Y-98219827D01*
X119750888Y-98217816D01*
X119967873Y-98202298D01*
X119977628Y-98203054D01*
X119977629Y-98202626D01*
X119988779Y-98202645D01*
X119999642Y-98205143D01*
X120010514Y-98202683D01*
X120010515Y-98202683D01*
X120010904Y-98202595D01*
X120011434Y-98202475D01*
X120033360Y-98200035D01*
X120034298Y-98200036D01*
X120034301Y-98200035D01*
X120045449Y-98200045D01*
X120056106Y-98194928D01*
X120077110Y-98187614D01*
X120077765Y-98187466D01*
X120077767Y-98187465D01*
X120088639Y-98185005D01*
X120098106Y-98177488D01*
X120116809Y-98165779D01*
X120127705Y-98160547D01*
X120134666Y-98151843D01*
X120134667Y-98151842D01*
X120135087Y-98151316D01*
X120150843Y-98135615D01*
X120151367Y-98135199D01*
X120151369Y-98135197D01*
X120160100Y-98128264D01*
X120165370Y-98117387D01*
X120177147Y-98098722D01*
X120177731Y-98097992D01*
X120177731Y-98097991D01*
X120184694Y-98089285D01*
X120187192Y-98078422D01*
X120187194Y-98078417D01*
X120187344Y-98077764D01*
X120194733Y-98056780D01*
X120195025Y-98056178D01*
X120195025Y-98056177D01*
X120199885Y-98046147D01*
X120199946Y-98022959D01*
X120201667Y-98022964D01*
X120201643Y-98022723D01*
X120200000Y-98022723D01*
X120200000Y-98002242D01*
X120200122Y-97955703D01*
X120200122Y-97955702D01*
X120200124Y-97954900D01*
X120200005Y-97954650D01*
X120200000Y-97954610D01*
X120200000Y-93199500D01*
X120218907Y-93141309D01*
X120268407Y-93105345D01*
X120299000Y-93100500D01*
X124701000Y-93100500D01*
X124759191Y-93119407D01*
G37*
%TD.AperFunction*%
%TA.AperFunction,Conductor*%
G36*
X144759191Y-93119407D02*
G01*
X144795155Y-93168907D01*
X144800000Y-93199500D01*
X144800000Y-97994123D01*
X144799955Y-98045449D01*
X144804781Y-98055498D01*
X144804781Y-98055500D01*
X144805185Y-98056341D01*
X144812463Y-98077183D01*
X144812670Y-98078093D01*
X144812672Y-98078096D01*
X144815150Y-98088962D01*
X144822097Y-98097680D01*
X144822520Y-98098211D01*
X144834334Y-98117046D01*
X144834625Y-98117653D01*
X144834628Y-98117657D01*
X144839453Y-98127705D01*
X144848893Y-98135254D01*
X144864484Y-98150872D01*
X144872015Y-98160323D01*
X144882058Y-98165167D01*
X144882663Y-98165459D01*
X144901478Y-98177308D01*
X144902005Y-98177730D01*
X144902010Y-98177732D01*
X144910715Y-98184694D01*
X144922405Y-98187382D01*
X144922492Y-98187402D01*
X144943318Y-98194715D01*
X144954202Y-98199965D01*
X144966018Y-98199975D01*
X144988120Y-98202494D01*
X144988774Y-98202644D01*
X144988775Y-98202644D01*
X144999642Y-98205143D01*
X145010517Y-98202682D01*
X145021663Y-98202702D01*
X145021662Y-98203015D01*
X145031612Y-98202261D01*
X145249112Y-98217816D01*
X145263088Y-98219827D01*
X145500200Y-98271408D01*
X145513747Y-98275385D01*
X145603110Y-98308716D01*
X145741113Y-98360188D01*
X145753962Y-98366056D01*
X145966938Y-98482351D01*
X145978820Y-98489987D01*
X146173077Y-98635405D01*
X146183753Y-98644655D01*
X146355345Y-98816247D01*
X146364595Y-98826923D01*
X146510013Y-99021180D01*
X146517649Y-99033062D01*
X146633944Y-99246038D01*
X146639812Y-99258887D01*
X146659313Y-99311170D01*
X146719502Y-99472543D01*
X146724614Y-99486250D01*
X146728592Y-99499800D01*
X146736060Y-99534126D01*
X146780173Y-99736909D01*
X146782184Y-99750891D01*
X146799495Y-99992938D01*
X146799495Y-100007061D01*
X146782778Y-100240809D01*
X146782184Y-100249109D01*
X146780173Y-100263088D01*
X146774803Y-100287774D01*
X146728593Y-100500197D01*
X146724614Y-100513750D01*
X146639812Y-100741113D01*
X146633944Y-100753962D01*
X146517649Y-100966938D01*
X146510013Y-100978820D01*
X146364595Y-101173077D01*
X146355345Y-101183753D01*
X146183753Y-101355345D01*
X146173077Y-101364595D01*
X145978820Y-101510013D01*
X145966938Y-101517649D01*
X145753962Y-101633944D01*
X145741113Y-101639812D01*
X145603110Y-101691284D01*
X145513747Y-101724615D01*
X145500200Y-101728592D01*
X145263088Y-101780173D01*
X145249112Y-101782184D01*
X145032378Y-101797684D01*
X145011899Y-101796079D01*
X145011819Y-101796774D01*
X145006217Y-101796133D01*
X145000716Y-101794858D01*
X145000360Y-101794858D01*
X145000358Y-101794857D01*
X145000000Y-101794857D01*
X144995884Y-101795796D01*
X144994961Y-101795872D01*
X144783873Y-101806935D01*
X144665050Y-101813162D01*
X144662492Y-101813567D01*
X144662484Y-101813568D01*
X144371247Y-101859696D01*
X144333769Y-101865632D01*
X144331265Y-101866303D01*
X144331260Y-101866304D01*
X144012291Y-101951771D01*
X144012285Y-101951773D01*
X144009788Y-101952442D01*
X143696656Y-102072643D01*
X143694353Y-102073816D01*
X143694345Y-102073820D01*
X143400111Y-102223739D01*
X143400103Y-102223744D01*
X143397804Y-102224915D01*
X143395632Y-102226326D01*
X143395626Y-102226329D01*
X143118687Y-102406176D01*
X143118679Y-102406182D01*
X143116506Y-102407593D01*
X142855844Y-102618673D01*
X142618673Y-102855844D01*
X142407593Y-103116506D01*
X142406182Y-103118679D01*
X142406176Y-103118687D01*
X142318154Y-103254229D01*
X142224915Y-103397804D01*
X142223744Y-103400103D01*
X142223739Y-103400111D01*
X142073820Y-103694345D01*
X142073816Y-103694353D01*
X142072643Y-103696656D01*
X141952442Y-104009788D01*
X141865632Y-104333769D01*
X141813162Y-104665050D01*
X141796557Y-104981910D01*
X141795926Y-104993945D01*
X141795831Y-104995090D01*
X141794858Y-104999284D01*
X141794858Y-104999640D01*
X141794857Y-104999642D01*
X141794857Y-105000000D01*
X141796091Y-105005412D01*
X141796714Y-105010939D01*
X141796124Y-105011005D01*
X141797720Y-105031868D01*
X141782184Y-105249109D01*
X141780173Y-105263091D01*
X141728593Y-105500197D01*
X141724614Y-105513750D01*
X141639812Y-105741113D01*
X141633944Y-105753962D01*
X141517649Y-105966938D01*
X141510013Y-105978820D01*
X141364595Y-106173077D01*
X141355345Y-106183753D01*
X141183753Y-106355345D01*
X141173077Y-106364595D01*
X140978820Y-106510013D01*
X140966938Y-106517649D01*
X140753962Y-106633944D01*
X140741113Y-106639812D01*
X140603110Y-106691284D01*
X140513747Y-106724615D01*
X140500200Y-106728592D01*
X140263088Y-106780173D01*
X140249112Y-106782184D01*
X140007061Y-106799495D01*
X139992939Y-106799495D01*
X139750888Y-106782184D01*
X139736912Y-106780173D01*
X139499800Y-106728592D01*
X139486253Y-106724615D01*
X139396890Y-106691284D01*
X139258887Y-106639812D01*
X139246038Y-106633944D01*
X139033062Y-106517649D01*
X139021180Y-106510013D01*
X138826923Y-106364595D01*
X138816247Y-106355345D01*
X138644655Y-106183753D01*
X138635405Y-106173077D01*
X138489987Y-105978820D01*
X138482351Y-105966938D01*
X138366056Y-105753962D01*
X138360188Y-105741113D01*
X138275386Y-105513750D01*
X138271407Y-105500197D01*
X138219827Y-105263091D01*
X138217816Y-105249109D01*
X138202316Y-105032382D01*
X138203927Y-105011833D01*
X138203235Y-105011753D01*
X138203877Y-105006175D01*
X138205142Y-105000716D01*
X138205143Y-105000000D01*
X138203900Y-104994550D01*
X138203899Y-104994543D01*
X138202514Y-104988470D01*
X138200035Y-104966372D01*
X138200036Y-104965701D01*
X138200035Y-104965698D01*
X138200045Y-104954551D01*
X138195058Y-104944164D01*
X138194815Y-104943659D01*
X138187537Y-104922817D01*
X138187330Y-104921907D01*
X138187328Y-104921904D01*
X138184850Y-104911038D01*
X138177480Y-104901789D01*
X138165666Y-104882954D01*
X138165375Y-104882347D01*
X138165372Y-104882343D01*
X138160547Y-104872295D01*
X138151107Y-104864746D01*
X138135516Y-104849128D01*
X138127985Y-104839677D01*
X138117337Y-104834541D01*
X138098522Y-104822692D01*
X138097995Y-104822270D01*
X138097990Y-104822268D01*
X138089285Y-104815306D01*
X138077508Y-104812598D01*
X138056682Y-104805285D01*
X138055836Y-104804877D01*
X138045798Y-104800035D01*
X138034653Y-104800025D01*
X138034652Y-104800025D01*
X138022787Y-104800015D01*
X138022789Y-104798270D01*
X138022723Y-104798276D01*
X138022723Y-104800000D01*
X138005877Y-104800000D01*
X137954840Y-104799955D01*
X137954551Y-104799955D01*
X137954463Y-104799997D01*
X137954439Y-104800000D01*
X133199500Y-104800000D01*
X133141309Y-104781093D01*
X133105345Y-104731593D01*
X133100500Y-104701000D01*
X133100500Y-100299000D01*
X133119407Y-100240809D01*
X133168907Y-100204845D01*
X133199500Y-100200000D01*
X137994123Y-100200000D01*
X138045449Y-100200045D01*
X138055498Y-100195219D01*
X138055500Y-100195219D01*
X138056341Y-100194815D01*
X138077183Y-100187537D01*
X138078093Y-100187330D01*
X138078096Y-100187328D01*
X138088962Y-100184850D01*
X138098210Y-100177480D01*
X138117046Y-100165666D01*
X138117653Y-100165375D01*
X138117657Y-100165372D01*
X138127705Y-100160547D01*
X138135254Y-100151107D01*
X138150872Y-100135516D01*
X138160323Y-100127985D01*
X138165459Y-100117337D01*
X138177308Y-100098522D01*
X138177730Y-100097995D01*
X138177732Y-100097990D01*
X138184694Y-100089285D01*
X138187402Y-100077508D01*
X138194715Y-100056682D01*
X138195123Y-100055836D01*
X138199965Y-100045798D01*
X138199975Y-100033982D01*
X138202494Y-100011880D01*
X138202644Y-100011226D01*
X138202644Y-100011225D01*
X138205143Y-100000358D01*
X138202682Y-99989483D01*
X138202702Y-99978336D01*
X138202863Y-99978336D01*
X138202076Y-99968331D01*
X138206801Y-99896241D01*
X138214975Y-99771525D01*
X138216664Y-99758691D01*
X138219620Y-99743833D01*
X138260068Y-99540484D01*
X138263419Y-99527980D01*
X138334933Y-99317309D01*
X138339889Y-99305346D01*
X138366072Y-99252253D01*
X138438284Y-99105820D01*
X138444753Y-99094614D01*
X138568365Y-98909615D01*
X138576233Y-98899361D01*
X138722931Y-98732085D01*
X138732086Y-98722930D01*
X138899361Y-98576233D01*
X138909615Y-98568365D01*
X139094614Y-98444753D01*
X139105820Y-98438284D01*
X139264184Y-98360188D01*
X139305347Y-98339889D01*
X139317309Y-98334933D01*
X139527984Y-98263418D01*
X139540484Y-98260068D01*
X139758698Y-98216663D01*
X139771523Y-98214975D01*
X139967819Y-98202109D01*
X139977628Y-98202899D01*
X139977628Y-98202625D01*
X139988778Y-98202645D01*
X139999642Y-98205143D01*
X140010514Y-98202683D01*
X140010516Y-98202683D01*
X140011135Y-98202543D01*
X140011434Y-98202475D01*
X140033360Y-98200035D01*
X140034298Y-98200036D01*
X140034301Y-98200035D01*
X140045449Y-98200045D01*
X140056106Y-98194928D01*
X140077110Y-98187614D01*
X140077765Y-98187466D01*
X140077767Y-98187465D01*
X140088639Y-98185005D01*
X140098106Y-98177488D01*
X140116809Y-98165779D01*
X140127705Y-98160547D01*
X140134666Y-98151843D01*
X140134667Y-98151842D01*
X140135087Y-98151316D01*
X140150843Y-98135615D01*
X140151367Y-98135199D01*
X140151369Y-98135197D01*
X140160100Y-98128264D01*
X140165370Y-98117387D01*
X140177147Y-98098722D01*
X140177731Y-98097992D01*
X140177731Y-98097991D01*
X140184694Y-98089285D01*
X140187192Y-98078422D01*
X140187194Y-98078417D01*
X140187344Y-98077764D01*
X140194733Y-98056780D01*
X140195025Y-98056178D01*
X140195025Y-98056177D01*
X140199885Y-98046147D01*
X140199946Y-98022959D01*
X140201667Y-98022964D01*
X140201643Y-98022723D01*
X140200000Y-98022723D01*
X140200000Y-98002242D01*
X140200122Y-97955703D01*
X140200122Y-97955702D01*
X140200124Y-97954900D01*
X140200005Y-97954650D01*
X140200000Y-97954610D01*
X140200000Y-93199500D01*
X140218907Y-93141309D01*
X140268407Y-93105345D01*
X140299000Y-93100500D01*
X144701000Y-93100500D01*
X144759191Y-93119407D01*
G37*
%TD.AperFunction*%
%TA.AperFunction,Conductor*%
G36*
X124988227Y-83202518D02*
G01*
X124999642Y-83205143D01*
X125010517Y-83202682D01*
X125021663Y-83202702D01*
X125021662Y-83203015D01*
X125031612Y-83202261D01*
X125249112Y-83217816D01*
X125263088Y-83219827D01*
X125500200Y-83271408D01*
X125513747Y-83275385D01*
X125603110Y-83308716D01*
X125741113Y-83360188D01*
X125753962Y-83366056D01*
X125966938Y-83482351D01*
X125978820Y-83489987D01*
X126173077Y-83635405D01*
X126183753Y-83644655D01*
X126355345Y-83816247D01*
X126364595Y-83826923D01*
X126510013Y-84021180D01*
X126517649Y-84033062D01*
X126633944Y-84246038D01*
X126639812Y-84258887D01*
X126724614Y-84486250D01*
X126728593Y-84499803D01*
X126780173Y-84736909D01*
X126782184Y-84750891D01*
X126799495Y-84992938D01*
X126799495Y-85007062D01*
X126782184Y-85249109D01*
X126780173Y-85263091D01*
X126728593Y-85500197D01*
X126724614Y-85513750D01*
X126639812Y-85741113D01*
X126633944Y-85753962D01*
X126517649Y-85966938D01*
X126510013Y-85978820D01*
X126364595Y-86173077D01*
X126355345Y-86183753D01*
X126183753Y-86355345D01*
X126173077Y-86364595D01*
X125978820Y-86510013D01*
X125966938Y-86517649D01*
X125753962Y-86633944D01*
X125741113Y-86639812D01*
X125603110Y-86691284D01*
X125513747Y-86724615D01*
X125500200Y-86728592D01*
X125263088Y-86780173D01*
X125249112Y-86782184D01*
X125032127Y-86797702D01*
X125022372Y-86796946D01*
X125022371Y-86797374D01*
X125011221Y-86797355D01*
X125000358Y-86794857D01*
X124989486Y-86797317D01*
X124989485Y-86797317D01*
X124989096Y-86797405D01*
X124988566Y-86797525D01*
X124966640Y-86799965D01*
X124965702Y-86799964D01*
X124965699Y-86799965D01*
X124954551Y-86799955D01*
X124943894Y-86805072D01*
X124922890Y-86812386D01*
X124922235Y-86812534D01*
X124922233Y-86812535D01*
X124911361Y-86814995D01*
X124901894Y-86822512D01*
X124883193Y-86834220D01*
X124872295Y-86839453D01*
X124865334Y-86848157D01*
X124865333Y-86848158D01*
X124864913Y-86848684D01*
X124849157Y-86864385D01*
X124848633Y-86864801D01*
X124848631Y-86864803D01*
X124839900Y-86871736D01*
X124835039Y-86881770D01*
X124835038Y-86881771D01*
X124834630Y-86882613D01*
X124822853Y-86901278D01*
X124815306Y-86910715D01*
X124812808Y-86921578D01*
X124812806Y-86921583D01*
X124812656Y-86922236D01*
X124805267Y-86943220D01*
X124800115Y-86953853D01*
X124800054Y-86977041D01*
X124798333Y-86977036D01*
X124798357Y-86977277D01*
X124800000Y-86977277D01*
X124800000Y-86997758D01*
X124799876Y-87045100D01*
X124799995Y-87045350D01*
X124800000Y-87045390D01*
X124800000Y-91800500D01*
X124781093Y-91858691D01*
X124731593Y-91894655D01*
X124701000Y-91899500D01*
X120299000Y-91899500D01*
X120240809Y-91880593D01*
X120204845Y-91831093D01*
X120200000Y-91800500D01*
X120200000Y-87005877D01*
X120200035Y-86965700D01*
X120200045Y-86954551D01*
X120194815Y-86943659D01*
X120187537Y-86922817D01*
X120187330Y-86921907D01*
X120187328Y-86921904D01*
X120184850Y-86911038D01*
X120177480Y-86901789D01*
X120165666Y-86882954D01*
X120165375Y-86882347D01*
X120165372Y-86882343D01*
X120160547Y-86872295D01*
X120151107Y-86864746D01*
X120135516Y-86849128D01*
X120127985Y-86839677D01*
X120117337Y-86834541D01*
X120098522Y-86822692D01*
X120097995Y-86822270D01*
X120097990Y-86822268D01*
X120089285Y-86815306D01*
X120077508Y-86812598D01*
X120056682Y-86805285D01*
X120055836Y-86804877D01*
X120045798Y-86800035D01*
X120033982Y-86800025D01*
X120011880Y-86797506D01*
X120011226Y-86797356D01*
X120011225Y-86797356D01*
X120000358Y-86794857D01*
X119989483Y-86797318D01*
X119978337Y-86797298D01*
X119978338Y-86796985D01*
X119968388Y-86797739D01*
X119750888Y-86782184D01*
X119736912Y-86780173D01*
X119499800Y-86728592D01*
X119486253Y-86724615D01*
X119396890Y-86691284D01*
X119258887Y-86639812D01*
X119246038Y-86633944D01*
X119033062Y-86517649D01*
X119021180Y-86510013D01*
X118826923Y-86364595D01*
X118816247Y-86355345D01*
X118644655Y-86183753D01*
X118635405Y-86173077D01*
X118489987Y-85978820D01*
X118482351Y-85966938D01*
X118366056Y-85753962D01*
X118360188Y-85741113D01*
X118275386Y-85513750D01*
X118271407Y-85500197D01*
X118219827Y-85263091D01*
X118217816Y-85249109D01*
X118200505Y-85007062D01*
X118200505Y-84992938D01*
X118217816Y-84750891D01*
X118219827Y-84736909D01*
X118271407Y-84499803D01*
X118275386Y-84486250D01*
X118360188Y-84258887D01*
X118366056Y-84246038D01*
X118482351Y-84033062D01*
X118489987Y-84021180D01*
X118635405Y-83826923D01*
X118644655Y-83816247D01*
X118816247Y-83644655D01*
X118826923Y-83635405D01*
X119021180Y-83489987D01*
X119033062Y-83482351D01*
X119246038Y-83366056D01*
X119258887Y-83360188D01*
X119396890Y-83308716D01*
X119486253Y-83275385D01*
X119499800Y-83271408D01*
X119736912Y-83219827D01*
X119750888Y-83217816D01*
X119967873Y-83202298D01*
X119977628Y-83203054D01*
X119977629Y-83202626D01*
X119988779Y-83202645D01*
X119999642Y-83205143D01*
X120010514Y-83202683D01*
X120010515Y-83202683D01*
X120011583Y-83202441D01*
X120033432Y-83200000D01*
X124966040Y-83200000D01*
X124988227Y-83202518D01*
G37*
%TD.AperFunction*%
%TA.AperFunction,Conductor*%
G36*
X144988227Y-83202518D02*
G01*
X144999642Y-83205143D01*
X145010517Y-83202682D01*
X145021663Y-83202702D01*
X145021662Y-83203015D01*
X145031612Y-83202261D01*
X145249112Y-83217816D01*
X145263088Y-83219827D01*
X145500200Y-83271408D01*
X145513747Y-83275385D01*
X145603110Y-83308716D01*
X145741113Y-83360188D01*
X145753962Y-83366056D01*
X145966938Y-83482351D01*
X145978820Y-83489987D01*
X146173077Y-83635405D01*
X146183753Y-83644655D01*
X146355345Y-83816247D01*
X146364595Y-83826923D01*
X146510013Y-84021180D01*
X146517649Y-84033062D01*
X146633944Y-84246038D01*
X146639812Y-84258887D01*
X146724614Y-84486250D01*
X146728593Y-84499803D01*
X146780173Y-84736909D01*
X146782184Y-84750891D01*
X146799495Y-84992938D01*
X146799495Y-85007062D01*
X146782184Y-85249109D01*
X146780173Y-85263091D01*
X146728593Y-85500197D01*
X146724614Y-85513750D01*
X146639812Y-85741113D01*
X146633944Y-85753962D01*
X146517649Y-85966938D01*
X146510013Y-85978820D01*
X146364595Y-86173077D01*
X146355345Y-86183753D01*
X146183753Y-86355345D01*
X146173077Y-86364595D01*
X145978820Y-86510013D01*
X145966938Y-86517649D01*
X145753962Y-86633944D01*
X145741113Y-86639812D01*
X145603110Y-86691284D01*
X145513747Y-86724615D01*
X145500200Y-86728592D01*
X145263088Y-86780173D01*
X145249112Y-86782184D01*
X145032127Y-86797702D01*
X145022372Y-86796946D01*
X145022371Y-86797374D01*
X145011221Y-86797355D01*
X145000358Y-86794857D01*
X144989486Y-86797317D01*
X144989485Y-86797317D01*
X144989096Y-86797405D01*
X144988566Y-86797525D01*
X144966640Y-86799965D01*
X144965702Y-86799964D01*
X144965699Y-86799965D01*
X144954551Y-86799955D01*
X144943894Y-86805072D01*
X144922890Y-86812386D01*
X144922235Y-86812534D01*
X144922233Y-86812535D01*
X144911361Y-86814995D01*
X144901894Y-86822512D01*
X144883193Y-86834220D01*
X144872295Y-86839453D01*
X144865334Y-86848157D01*
X144865333Y-86848158D01*
X144864913Y-86848684D01*
X144849157Y-86864385D01*
X144848633Y-86864801D01*
X144848631Y-86864803D01*
X144839900Y-86871736D01*
X144835039Y-86881770D01*
X144835038Y-86881771D01*
X144834630Y-86882613D01*
X144822853Y-86901278D01*
X144815306Y-86910715D01*
X144812808Y-86921578D01*
X144812806Y-86921583D01*
X144812656Y-86922236D01*
X144805267Y-86943220D01*
X144800115Y-86953853D01*
X144800054Y-86977041D01*
X144798333Y-86977036D01*
X144798357Y-86977277D01*
X144800000Y-86977277D01*
X144800000Y-86997758D01*
X144799876Y-87045100D01*
X144799995Y-87045350D01*
X144800000Y-87045390D01*
X144800000Y-91800500D01*
X144781093Y-91858691D01*
X144731593Y-91894655D01*
X144701000Y-91899500D01*
X140299000Y-91899500D01*
X140240809Y-91880593D01*
X140204845Y-91831093D01*
X140200000Y-91800500D01*
X140200000Y-87005877D01*
X140200035Y-86965700D01*
X140200045Y-86954551D01*
X140194815Y-86943659D01*
X140187537Y-86922817D01*
X140187330Y-86921907D01*
X140187328Y-86921904D01*
X140184850Y-86911038D01*
X140177480Y-86901789D01*
X140165666Y-86882954D01*
X140165375Y-86882347D01*
X140165372Y-86882343D01*
X140160547Y-86872295D01*
X140151107Y-86864746D01*
X140135516Y-86849128D01*
X140127985Y-86839677D01*
X140117337Y-86834541D01*
X140098522Y-86822692D01*
X140097995Y-86822270D01*
X140097990Y-86822268D01*
X140089285Y-86815306D01*
X140077508Y-86812598D01*
X140056682Y-86805285D01*
X140055836Y-86804877D01*
X140045798Y-86800035D01*
X140033982Y-86800025D01*
X140011880Y-86797506D01*
X140011226Y-86797356D01*
X140011225Y-86797356D01*
X140000358Y-86794857D01*
X139989483Y-86797318D01*
X139978337Y-86797298D01*
X139978338Y-86796985D01*
X139968388Y-86797739D01*
X139750888Y-86782184D01*
X139736912Y-86780173D01*
X139499800Y-86728592D01*
X139486253Y-86724615D01*
X139396890Y-86691284D01*
X139258887Y-86639812D01*
X139246038Y-86633944D01*
X139033062Y-86517649D01*
X139021180Y-86510013D01*
X138826923Y-86364595D01*
X138816247Y-86355345D01*
X138644655Y-86183753D01*
X138635405Y-86173077D01*
X138489987Y-85978820D01*
X138482351Y-85966938D01*
X138366056Y-85753962D01*
X138360188Y-85741113D01*
X138275386Y-85513750D01*
X138271407Y-85500197D01*
X138219827Y-85263091D01*
X138217816Y-85249109D01*
X138200505Y-85007062D01*
X138200505Y-84992938D01*
X138217816Y-84750891D01*
X138219827Y-84736909D01*
X138271407Y-84499803D01*
X138275386Y-84486250D01*
X138360188Y-84258887D01*
X138366056Y-84246038D01*
X138482351Y-84033062D01*
X138489987Y-84021180D01*
X138635405Y-83826923D01*
X138644655Y-83816247D01*
X138816247Y-83644655D01*
X138826923Y-83635405D01*
X139021180Y-83489987D01*
X139033062Y-83482351D01*
X139246038Y-83366056D01*
X139258887Y-83360188D01*
X139396890Y-83308716D01*
X139486253Y-83275385D01*
X139499800Y-83271408D01*
X139736912Y-83219827D01*
X139750888Y-83217816D01*
X139967873Y-83202298D01*
X139977628Y-83203054D01*
X139977629Y-83202626D01*
X139988779Y-83202645D01*
X139999642Y-83205143D01*
X140010514Y-83202683D01*
X140010515Y-83202683D01*
X140011583Y-83202441D01*
X140033432Y-83200000D01*
X144966040Y-83200000D01*
X144988227Y-83202518D01*
G37*
%TD.AperFunction*%
%TD*%
M02*
