%TF.GenerationSoftware,KiCad,Pcbnew,6.0.1-79c1e3a40b~116~ubuntu20.04.1*%
%TF.CreationDate,2022-01-30T13:40:48+01:00*%
%TF.ProjectId,pcb-connector-x3,7063622d-636f-46e6-9e65-63746f722d78,rev?*%
%TF.SameCoordinates,Original*%
%TF.FileFunction,Legend,Bot*%
%TF.FilePolarity,Positive*%
%FSLAX46Y46*%
G04 Gerber Fmt 4.6, Leading zero omitted, Abs format (unit mm)*
G04 Created by KiCad (PCBNEW 6.0.1-79c1e3a40b~116~ubuntu20.04.1) date 2022-01-30 13:40:48*
%MOMM*%
%LPD*%
G01*
G04 APERTURE LIST*
%ADD10C,0.150000*%
G04 APERTURE END LIST*
D10*
X121500000Y-89500000D02*
X123500000Y-89500000D01*
X123500000Y-87952380D02*
X123404761Y-87952380D01*
X123309523Y-88000000D01*
X123261904Y-88047619D01*
X123214285Y-88142857D01*
X123166666Y-88333333D01*
X123166666Y-88571428D01*
X123214285Y-88761904D01*
X123261904Y-88857142D01*
X123309523Y-88904761D01*
X123404761Y-88952380D01*
X123500000Y-88952380D01*
X123595238Y-88904761D01*
X123642857Y-88857142D01*
X123690476Y-88761904D01*
X123738095Y-88571428D01*
X123738095Y-88333333D01*
X123690476Y-88142857D01*
X123642857Y-88047619D01*
X123595238Y-88000000D01*
X123500000Y-87952380D01*
X122547619Y-87952380D02*
X122452380Y-87952380D01*
X122357142Y-88000000D01*
X122309523Y-88047619D01*
X122261904Y-88142857D01*
X122214285Y-88333333D01*
X122214285Y-88571428D01*
X122261904Y-88761904D01*
X122309523Y-88857142D01*
X122357142Y-88904761D01*
X122452380Y-88952380D01*
X122547619Y-88952380D01*
X122642857Y-88904761D01*
X122690476Y-88857142D01*
X122738095Y-88761904D01*
X122785714Y-88571428D01*
X122785714Y-88333333D01*
X122738095Y-88142857D01*
X122690476Y-88047619D01*
X122642857Y-88000000D01*
X122547619Y-87952380D01*
X121738095Y-88952380D02*
X121547619Y-88952380D01*
X121452380Y-88904761D01*
X121404761Y-88857142D01*
X121309523Y-88714285D01*
X121261904Y-88523809D01*
X121261904Y-88142857D01*
X121309523Y-88047619D01*
X121357142Y-88000000D01*
X121452380Y-87952380D01*
X121642857Y-87952380D01*
X121738095Y-88000000D01*
X121785714Y-88047619D01*
X121833333Y-88142857D01*
X121833333Y-88380952D01*
X121785714Y-88476190D01*
X121738095Y-88523809D01*
X121642857Y-88571428D01*
X121452380Y-88571428D01*
X121357142Y-88523809D01*
X121309523Y-88476190D01*
X121261904Y-88380952D01*
M02*
