%TF.GenerationSoftware,KiCad,Pcbnew,6.0.1-79c1e3a40b~116~ubuntu20.04.1*%
%TF.CreationDate,2022-01-30T13:40:47+01:00*%
%TF.ProjectId,pcb-connector-x3,7063622d-636f-46e6-9e65-63746f722d78,rev?*%
%TF.SameCoordinates,Original*%
%TF.FileFunction,Copper,L2,Bot*%
%TF.FilePolarity,Positive*%
%FSLAX46Y46*%
G04 Gerber Fmt 4.6, Leading zero omitted, Abs format (unit mm)*
G04 Created by KiCad (PCBNEW 6.0.1-79c1e3a40b~116~ubuntu20.04.1) date 2022-01-30 13:40:47*
%MOMM*%
%LPD*%
G01*
G04 APERTURE LIST*
%TA.AperFunction,ComponentPad*%
%ADD10C,0.800000*%
%TD*%
%TA.AperFunction,SMDPad,CuDef*%
%ADD11R,3.000000X5.200000*%
%TD*%
%TA.AperFunction,SMDPad,CuDef*%
%ADD12R,5.200000X3.000000*%
%TD*%
%TA.AperFunction,ComponentPad*%
%ADD13C,3.400000*%
%TD*%
G04 APERTURE END LIST*
%TO.C,G\u002A\u002A\u002A*%
G36*
X121245248Y-95818303D02*
G01*
X121256305Y-95822812D01*
X121268716Y-95833882D01*
X121285032Y-95853527D01*
X121286007Y-95854775D01*
X121300462Y-95872221D01*
X121317734Y-95891648D01*
X121335987Y-95911179D01*
X121353382Y-95928932D01*
X121368082Y-95943031D01*
X121378250Y-95951594D01*
X121382048Y-95952742D01*
X121380761Y-95947470D01*
X121376102Y-95933306D01*
X121369214Y-95914234D01*
X121365422Y-95903396D01*
X121359226Y-95877075D01*
X121360194Y-95859087D01*
X121368336Y-95850317D01*
X121371587Y-95850943D01*
X121382878Y-95858056D01*
X121399104Y-95871338D01*
X121417934Y-95888971D01*
X121432913Y-95902986D01*
X121460741Y-95926692D01*
X121491734Y-95951087D01*
X121521540Y-95972658D01*
X121550665Y-95992962D01*
X121576865Y-96012733D01*
X121596411Y-96030155D01*
X121611447Y-96047418D01*
X121624115Y-96066713D01*
X121636557Y-96090229D01*
X121639823Y-96097015D01*
X121647309Y-96114600D01*
X121653824Y-96133840D01*
X121659653Y-96156263D01*
X121665080Y-96183399D01*
X121670389Y-96216777D01*
X121675864Y-96257925D01*
X121681787Y-96308372D01*
X121688445Y-96369648D01*
X121690312Y-96387162D01*
X121695298Y-96431965D01*
X121699806Y-96467883D01*
X121704316Y-96497506D01*
X121709309Y-96523426D01*
X121715262Y-96548234D01*
X121722656Y-96574523D01*
X121731971Y-96604883D01*
X121733377Y-96609393D01*
X121745858Y-96651473D01*
X121759201Y-96699432D01*
X121771896Y-96747703D01*
X121782430Y-96790719D01*
X121784630Y-96800128D01*
X121795333Y-96843527D01*
X121804881Y-96876934D01*
X121814045Y-96902233D01*
X121823595Y-96921304D01*
X121834301Y-96936029D01*
X121846933Y-96948290D01*
X121855411Y-96954932D01*
X121869758Y-96963215D01*
X121885834Y-96967772D01*
X121905660Y-96968608D01*
X121931258Y-96965733D01*
X121964650Y-96959152D01*
X122007858Y-96948874D01*
X122024946Y-96944647D01*
X122058313Y-96936717D01*
X122084697Y-96931317D01*
X122107620Y-96928016D01*
X122130602Y-96926379D01*
X122157165Y-96925976D01*
X122190828Y-96926371D01*
X122219752Y-96926610D01*
X122251771Y-96925984D01*
X122282540Y-96924069D01*
X122314270Y-96920560D01*
X122349167Y-96915155D01*
X122389441Y-96907548D01*
X122437300Y-96897436D01*
X122494953Y-96884515D01*
X122543622Y-96873844D01*
X122605070Y-96862075D01*
X122659901Y-96854043D01*
X122711063Y-96849423D01*
X122761504Y-96847887D01*
X122814169Y-96849109D01*
X122883523Y-96854781D01*
X122970777Y-96869663D01*
X123051830Y-96892536D01*
X123125942Y-96922966D01*
X123192378Y-96960520D01*
X123250400Y-97004765D01*
X123299271Y-97055270D01*
X123338252Y-97111601D01*
X123366607Y-97173325D01*
X123372379Y-97193858D01*
X123377928Y-97230083D01*
X123379564Y-97268502D01*
X123377172Y-97304501D01*
X123370634Y-97333469D01*
X123367171Y-97342932D01*
X123363023Y-97352109D01*
X123360388Y-97351195D01*
X123357525Y-97341219D01*
X123352810Y-97329173D01*
X123345834Y-97325380D01*
X123337894Y-97332308D01*
X123329527Y-97349128D01*
X123321266Y-97375011D01*
X123313650Y-97409127D01*
X123311168Y-97421016D01*
X123303214Y-97452425D01*
X123293003Y-97487176D01*
X123282127Y-97519685D01*
X123261256Y-97581676D01*
X123239046Y-97663576D01*
X123225499Y-97738191D01*
X123220756Y-97804869D01*
X123220717Y-97817246D01*
X123221061Y-97844372D01*
X123222600Y-97864151D01*
X123226012Y-97880289D01*
X123231974Y-97896491D01*
X123241164Y-97916463D01*
X123252540Y-97940961D01*
X123272324Y-97989082D01*
X123286208Y-98033655D01*
X123294223Y-98076761D01*
X123296397Y-98120482D01*
X123292762Y-98166897D01*
X123283347Y-98218086D01*
X123268181Y-98276132D01*
X123247295Y-98343113D01*
X123242172Y-98358474D01*
X123220411Y-98418512D01*
X123198996Y-98468336D01*
X123177043Y-98509656D01*
X123153666Y-98544183D01*
X123127979Y-98573627D01*
X123114069Y-98588151D01*
X123100527Y-98604503D01*
X123093910Y-98616947D01*
X123092662Y-98627874D01*
X123094088Y-98644923D01*
X123032205Y-98644923D01*
X123024809Y-98644919D01*
X122999257Y-98644689D01*
X122983490Y-98643774D01*
X122975379Y-98641719D01*
X122972795Y-98638066D01*
X122973607Y-98632359D01*
X122976256Y-98625897D01*
X122987603Y-98609376D01*
X123004117Y-98591596D01*
X123022415Y-98576436D01*
X123022621Y-98576291D01*
X123029014Y-98568793D01*
X123035528Y-98554979D01*
X123042360Y-98533995D01*
X123049708Y-98504983D01*
X123057769Y-98467088D01*
X123066742Y-98419454D01*
X123076824Y-98361224D01*
X123088212Y-98291542D01*
X123088942Y-98286641D01*
X123091940Y-98245480D01*
X123090837Y-98200183D01*
X123085962Y-98156128D01*
X123077642Y-98118695D01*
X123076326Y-98114593D01*
X123070319Y-98099882D01*
X123061553Y-98084974D01*
X123048478Y-98067773D01*
X123029544Y-98046187D01*
X123003202Y-98018121D01*
X122965877Y-97976712D01*
X122935498Y-97936779D01*
X122912899Y-97898185D01*
X122896596Y-97858376D01*
X122885104Y-97814798D01*
X122884588Y-97812311D01*
X122878277Y-97784439D01*
X122871638Y-97764042D01*
X122862541Y-97747080D01*
X122848857Y-97729512D01*
X122828457Y-97707297D01*
X122824965Y-97703494D01*
X122801447Y-97672891D01*
X122779136Y-97636271D01*
X122760693Y-97598417D01*
X122748776Y-97564108D01*
X122744416Y-97546736D01*
X122727300Y-97576608D01*
X122723640Y-97582800D01*
X122689819Y-97626801D01*
X122646244Y-97663720D01*
X122592651Y-97693745D01*
X122528777Y-97717062D01*
X122486062Y-97727989D01*
X122433955Y-97737325D01*
X122377691Y-97742994D01*
X122314637Y-97745248D01*
X122242164Y-97744336D01*
X122131039Y-97740903D01*
X122134420Y-97760487D01*
X122135629Y-97767987D01*
X122140341Y-97813012D01*
X122142486Y-97866631D01*
X122142004Y-97925871D01*
X122138840Y-97987759D01*
X122136123Y-98023393D01*
X122132236Y-98066180D01*
X122127871Y-98101795D01*
X122122477Y-98133315D01*
X122115500Y-98163818D01*
X122106388Y-98196382D01*
X122094588Y-98234083D01*
X122085961Y-98262546D01*
X122075472Y-98301485D01*
X122066551Y-98339204D01*
X122060505Y-98370476D01*
X122052346Y-98418609D01*
X122043705Y-98461045D01*
X122034607Y-98495956D01*
X122024388Y-98525858D01*
X122012387Y-98553269D01*
X122004748Y-98569560D01*
X121998276Y-98586439D01*
X121996849Y-98597485D01*
X121999765Y-98605611D01*
X122006020Y-98619319D01*
X122011209Y-98637173D01*
X122015398Y-98657322D01*
X121834161Y-98657322D01*
X121858278Y-98621674D01*
X121860029Y-98619066D01*
X121874210Y-98595027D01*
X121882294Y-98572729D01*
X121886693Y-98545728D01*
X121887472Y-98538971D01*
X121890724Y-98514446D01*
X121895371Y-98482404D01*
X121900910Y-98446237D01*
X121906842Y-98409336D01*
X121910030Y-98389482D01*
X121916227Y-98344097D01*
X121919084Y-98306113D01*
X121918423Y-98272192D01*
X121914065Y-98238995D01*
X121905831Y-98203183D01*
X121893541Y-98161416D01*
X121881300Y-98121550D01*
X121868447Y-98076535D01*
X121857910Y-98034610D01*
X121848812Y-97991915D01*
X121840272Y-97944595D01*
X121831413Y-97888791D01*
X121826607Y-97858297D01*
X121818960Y-97815559D01*
X121811801Y-97783820D01*
X121804885Y-97762218D01*
X121797967Y-97749890D01*
X121790801Y-97745972D01*
X121790697Y-97745969D01*
X121783088Y-97741787D01*
X121769553Y-97731231D01*
X121752951Y-97716524D01*
X121739036Y-97702374D01*
X121723356Y-97682190D01*
X121708133Y-97656709D01*
X121691227Y-97622681D01*
X121653765Y-97550953D01*
X121603656Y-97475150D01*
X121544671Y-97404907D01*
X121515181Y-97372102D01*
X121484450Y-97333099D01*
X121460285Y-97294964D01*
X121440581Y-97254277D01*
X121423236Y-97207623D01*
X121404661Y-97143376D01*
X121389609Y-97072075D01*
X121377984Y-96992531D01*
X121369445Y-96902819D01*
X121367966Y-96884886D01*
X121363450Y-96840087D01*
X121357565Y-96790273D01*
X121350907Y-96740326D01*
X121344072Y-96695130D01*
X121340331Y-96672451D01*
X121334080Y-96636641D01*
X121328485Y-96609059D01*
X121322814Y-96587042D01*
X121316332Y-96567926D01*
X121308307Y-96549046D01*
X121298006Y-96527740D01*
X121291158Y-96513555D01*
X121279575Y-96487279D01*
X121270825Y-96464442D01*
X121266410Y-96448793D01*
X121265883Y-96445913D01*
X121260452Y-96428893D01*
X121253237Y-96417795D01*
X121249197Y-96415746D01*
X121232521Y-96412035D01*
X121205579Y-96409007D01*
X121169787Y-96406846D01*
X121151255Y-96406032D01*
X121125318Y-96404508D01*
X121108016Y-96402520D01*
X121096908Y-96399553D01*
X121089555Y-96395092D01*
X121083519Y-96388622D01*
X121071682Y-96376631D01*
X121057720Y-96366730D01*
X121054323Y-96364755D01*
X121046073Y-96354163D01*
X121042865Y-96335357D01*
X121042788Y-96333976D01*
X121040717Y-96309800D01*
X121037702Y-96285953D01*
X121036172Y-96272070D01*
X121038252Y-96261647D01*
X121046101Y-96251637D01*
X121061733Y-96238032D01*
X121074546Y-96227964D01*
X121099452Y-96210104D01*
X121123559Y-96194467D01*
X121157494Y-96174025D01*
X121145778Y-96159556D01*
X121135849Y-96141294D01*
X121133994Y-96116368D01*
X121142896Y-96089544D01*
X121161981Y-96061875D01*
X121190676Y-96034411D01*
X121228407Y-96008203D01*
X121228572Y-96008104D01*
X121245955Y-95997041D01*
X121257598Y-95988409D01*
X121260989Y-95984071D01*
X121260890Y-95983950D01*
X121257614Y-95976522D01*
X121251282Y-95959880D01*
X121242766Y-95936374D01*
X121232935Y-95908354D01*
X121221667Y-95874349D01*
X121215093Y-95849737D01*
X121213501Y-95833390D01*
X121217016Y-95823702D01*
X121225759Y-95819067D01*
X121239853Y-95817879D01*
X121245248Y-95818303D01*
G37*
%TD*%
D10*
%TO.P,J6,2,Pin_2*%
%TO.N,GND*%
X143000000Y-94000000D03*
X144000000Y-94000000D03*
X144500000Y-91500000D03*
X142500000Y-91500000D03*
X144500000Y-93500000D03*
D11*
X143500000Y-92500000D03*
D10*
X143000000Y-91000000D03*
X144000000Y-91000000D03*
X143500000Y-91500000D03*
X142500000Y-93500000D03*
X143500000Y-93500000D03*
%TD*%
%TO.P,J5,2,Pin_2*%
%TO.N,GND*%
X123000000Y-94000000D03*
X124000000Y-94000000D03*
X124500000Y-91500000D03*
X122500000Y-91500000D03*
X124500000Y-93500000D03*
D11*
X123500000Y-92500000D03*
D10*
X123000000Y-91000000D03*
X124000000Y-91000000D03*
X123500000Y-91500000D03*
X122500000Y-93500000D03*
X123500000Y-93500000D03*
%TD*%
%TO.P,J4,2,Pin_2*%
%TO.N,GND*%
X131000000Y-103000000D03*
X131000000Y-104000000D03*
X133500000Y-104500000D03*
X133500000Y-102500000D03*
X131500000Y-104500000D03*
D12*
X132500000Y-103500000D03*
D10*
X134000000Y-103000000D03*
X134000000Y-104000000D03*
X133500000Y-103500000D03*
X131500000Y-102500000D03*
X131500000Y-103500000D03*
%TD*%
%TO.P,J3,2,Pin_2*%
%TO.N,GND*%
X142000000Y-91000000D03*
X141000000Y-91000000D03*
X140500000Y-93500000D03*
X142500000Y-93500000D03*
X140500000Y-91500000D03*
D11*
X141500000Y-92500000D03*
D10*
X142000000Y-94000000D03*
X141000000Y-94000000D03*
X141500000Y-93500000D03*
X142500000Y-91500000D03*
X141500000Y-91500000D03*
%TD*%
%TO.P,J2,2,Pin_2*%
%TO.N,GND*%
X122000000Y-91000000D03*
X121000000Y-91000000D03*
X120500000Y-93500000D03*
X122500000Y-93500000D03*
X120500000Y-91500000D03*
D11*
X121500000Y-92500000D03*
D10*
X122000000Y-94000000D03*
X121000000Y-94000000D03*
X121500000Y-93500000D03*
X122500000Y-91500000D03*
X121500000Y-91500000D03*
%TD*%
%TO.P,J1,2,Pin_2*%
%TO.N,GND*%
X134000000Y-102000000D03*
X134000000Y-101000000D03*
X131500000Y-100500000D03*
X131500000Y-102500000D03*
X133500000Y-100500000D03*
D12*
X132500000Y-101500000D03*
D10*
X131000000Y-102000000D03*
X131000000Y-101000000D03*
X131500000Y-101500000D03*
X133500000Y-102500000D03*
X133500000Y-101500000D03*
%TD*%
D13*
%TO.P,H10,1,1*%
%TO.N,GND*%
X140000000Y-85000000D03*
%TD*%
%TO.P,H9,1,1*%
%TO.N,GND*%
X125000000Y-105000000D03*
%TD*%
%TO.P,H8,1,1*%
%TO.N,GND*%
X120000000Y-85000000D03*
%TD*%
%TO.P,H7,1,1*%
%TO.N,GND*%
X125000000Y-100000000D03*
%TD*%
%TO.P,H6,1,1*%
%TO.N,GND*%
X145000000Y-100000000D03*
%TD*%
%TO.P,H5,1,1*%
%TO.N,GND*%
X120000000Y-100000000D03*
%TD*%
%TO.P,H4,1,1*%
%TO.N,GND*%
X140000000Y-105000000D03*
%TD*%
%TO.P,H3,1,1*%
%TO.N,GND*%
X145000000Y-85000000D03*
%TD*%
%TO.P,H2,1,1*%
%TO.N,GND*%
X125000000Y-85000000D03*
%TD*%
%TO.P,H1,1,1*%
%TO.N,GND*%
X140000000Y-100000000D03*
%TD*%
%TA.AperFunction,Conductor*%
%TO.N,GND*%
G36*
X124988227Y-83202518D02*
G01*
X124999642Y-83205143D01*
X125010517Y-83202682D01*
X125021663Y-83202702D01*
X125021662Y-83203015D01*
X125031612Y-83202261D01*
X125249112Y-83217816D01*
X125263088Y-83219827D01*
X125500200Y-83271408D01*
X125513747Y-83275385D01*
X125603110Y-83308716D01*
X125741113Y-83360188D01*
X125753962Y-83366056D01*
X125966938Y-83482351D01*
X125978820Y-83489987D01*
X126173077Y-83635405D01*
X126183753Y-83644655D01*
X126355345Y-83816247D01*
X126364595Y-83826923D01*
X126510013Y-84021180D01*
X126517649Y-84033062D01*
X126633944Y-84246038D01*
X126639812Y-84258887D01*
X126724614Y-84486250D01*
X126728593Y-84499803D01*
X126780173Y-84736909D01*
X126782184Y-84750891D01*
X126799495Y-84992938D01*
X126799495Y-85007062D01*
X126782184Y-85249109D01*
X126780173Y-85263091D01*
X126728593Y-85500197D01*
X126724614Y-85513750D01*
X126639812Y-85741113D01*
X126633944Y-85753962D01*
X126517649Y-85966938D01*
X126510013Y-85978820D01*
X126364595Y-86173077D01*
X126355345Y-86183753D01*
X126183753Y-86355345D01*
X126173077Y-86364595D01*
X125978820Y-86510013D01*
X125966938Y-86517649D01*
X125753962Y-86633944D01*
X125741113Y-86639812D01*
X125603110Y-86691284D01*
X125513747Y-86724615D01*
X125500200Y-86728592D01*
X125263088Y-86780173D01*
X125249112Y-86782184D01*
X125032127Y-86797702D01*
X125022372Y-86796946D01*
X125022371Y-86797374D01*
X125011221Y-86797355D01*
X125000358Y-86794857D01*
X124989486Y-86797317D01*
X124989485Y-86797317D01*
X124989096Y-86797405D01*
X124988566Y-86797525D01*
X124966640Y-86799965D01*
X124965702Y-86799964D01*
X124965699Y-86799965D01*
X124954551Y-86799955D01*
X124943894Y-86805072D01*
X124922890Y-86812386D01*
X124922235Y-86812534D01*
X124922233Y-86812535D01*
X124911361Y-86814995D01*
X124901894Y-86822512D01*
X124883193Y-86834220D01*
X124872295Y-86839453D01*
X124865334Y-86848157D01*
X124865333Y-86848158D01*
X124864913Y-86848684D01*
X124849157Y-86864385D01*
X124848633Y-86864801D01*
X124848631Y-86864803D01*
X124839900Y-86871736D01*
X124835039Y-86881770D01*
X124835038Y-86881771D01*
X124834630Y-86882613D01*
X124822853Y-86901278D01*
X124815306Y-86910715D01*
X124812808Y-86921578D01*
X124812806Y-86921583D01*
X124812656Y-86922236D01*
X124805267Y-86943220D01*
X124800115Y-86953853D01*
X124800054Y-86977041D01*
X124798333Y-86977036D01*
X124798357Y-86977277D01*
X124800000Y-86977277D01*
X124800000Y-86997758D01*
X124799876Y-87045100D01*
X124799995Y-87045350D01*
X124800000Y-87045390D01*
X124800000Y-97993842D01*
X124799955Y-98045449D01*
X124804781Y-98055498D01*
X124804781Y-98055500D01*
X124805185Y-98056341D01*
X124812463Y-98077183D01*
X124812670Y-98078093D01*
X124812672Y-98078096D01*
X124815150Y-98088962D01*
X124822097Y-98097680D01*
X124822520Y-98098211D01*
X124834334Y-98117046D01*
X124834625Y-98117653D01*
X124834628Y-98117657D01*
X124839453Y-98127705D01*
X124848893Y-98135254D01*
X124864484Y-98150872D01*
X124872015Y-98160323D01*
X124882058Y-98165167D01*
X124882663Y-98165459D01*
X124901478Y-98177308D01*
X124902005Y-98177730D01*
X124902010Y-98177732D01*
X124910715Y-98184694D01*
X124922405Y-98187382D01*
X124922492Y-98187402D01*
X124943318Y-98194715D01*
X124954202Y-98199965D01*
X124966018Y-98199975D01*
X124988120Y-98202494D01*
X124988774Y-98202644D01*
X124988775Y-98202644D01*
X124999642Y-98205143D01*
X125010517Y-98202682D01*
X125021664Y-98202702D01*
X125021664Y-98202863D01*
X125031669Y-98202076D01*
X125103759Y-98206801D01*
X125228475Y-98214975D01*
X125241302Y-98216663D01*
X125459516Y-98260068D01*
X125472016Y-98263418D01*
X125665225Y-98329004D01*
X125682691Y-98334933D01*
X125694653Y-98339889D01*
X125716228Y-98350528D01*
X125894180Y-98438284D01*
X125905386Y-98444753D01*
X126090385Y-98568365D01*
X126100639Y-98576233D01*
X126260150Y-98716121D01*
X126267914Y-98722930D01*
X126277069Y-98732085D01*
X126423767Y-98899361D01*
X126431635Y-98909615D01*
X126555247Y-99094614D01*
X126561716Y-99105820D01*
X126633929Y-99252253D01*
X126660111Y-99305346D01*
X126665067Y-99317309D01*
X126736581Y-99527980D01*
X126739932Y-99540484D01*
X126780381Y-99743833D01*
X126783336Y-99758691D01*
X126785026Y-99771530D01*
X126797891Y-99967816D01*
X126797101Y-99977628D01*
X126797375Y-99977628D01*
X126797355Y-99988778D01*
X126794857Y-99999642D01*
X126797317Y-100010514D01*
X126797317Y-100010516D01*
X126797525Y-100011433D01*
X126799965Y-100033360D01*
X126799964Y-100034298D01*
X126799965Y-100034301D01*
X126799955Y-100045449D01*
X126805072Y-100056106D01*
X126812386Y-100077110D01*
X126814995Y-100088639D01*
X126822512Y-100098106D01*
X126834220Y-100116807D01*
X126839453Y-100127705D01*
X126848157Y-100134666D01*
X126848158Y-100134667D01*
X126848684Y-100135087D01*
X126864385Y-100150843D01*
X126864801Y-100151367D01*
X126864803Y-100151369D01*
X126871736Y-100160100D01*
X126881770Y-100164961D01*
X126881771Y-100164962D01*
X126882613Y-100165370D01*
X126901278Y-100177147D01*
X126901695Y-100177480D01*
X126910715Y-100184694D01*
X126921578Y-100187192D01*
X126921583Y-100187194D01*
X126922236Y-100187344D01*
X126943220Y-100194733D01*
X126943822Y-100195025D01*
X126943823Y-100195025D01*
X126953853Y-100199885D01*
X126977041Y-100199946D01*
X126977036Y-100201667D01*
X126977277Y-100201643D01*
X126977277Y-100200000D01*
X126997758Y-100200000D01*
X127044297Y-100200122D01*
X127044298Y-100200122D01*
X127045100Y-100200124D01*
X127045350Y-100200005D01*
X127045390Y-100200000D01*
X137994123Y-100200000D01*
X138045449Y-100200045D01*
X138055498Y-100195219D01*
X138055500Y-100195219D01*
X138056341Y-100194815D01*
X138077183Y-100187537D01*
X138078093Y-100187330D01*
X138078096Y-100187328D01*
X138088962Y-100184850D01*
X138098210Y-100177480D01*
X138117046Y-100165666D01*
X138117653Y-100165375D01*
X138117657Y-100165372D01*
X138127705Y-100160547D01*
X138135254Y-100151107D01*
X138150872Y-100135516D01*
X138160323Y-100127985D01*
X138165459Y-100117337D01*
X138177308Y-100098522D01*
X138177730Y-100097995D01*
X138177732Y-100097990D01*
X138184694Y-100089285D01*
X138187402Y-100077508D01*
X138194715Y-100056682D01*
X138195123Y-100055836D01*
X138199965Y-100045798D01*
X138199975Y-100033982D01*
X138202494Y-100011880D01*
X138202644Y-100011226D01*
X138202644Y-100011225D01*
X138205143Y-100000358D01*
X138202682Y-99989483D01*
X138202702Y-99978336D01*
X138202863Y-99978336D01*
X138202076Y-99968331D01*
X138206801Y-99896241D01*
X138214975Y-99771525D01*
X138216664Y-99758691D01*
X138219620Y-99743833D01*
X138260068Y-99540484D01*
X138263419Y-99527980D01*
X138334933Y-99317309D01*
X138339889Y-99305346D01*
X138366072Y-99252253D01*
X138438284Y-99105820D01*
X138444753Y-99094614D01*
X138568365Y-98909615D01*
X138576233Y-98899361D01*
X138722931Y-98732085D01*
X138732086Y-98722930D01*
X138739850Y-98716121D01*
X138899361Y-98576233D01*
X138909615Y-98568365D01*
X139094614Y-98444753D01*
X139105820Y-98438284D01*
X139283772Y-98350528D01*
X139305347Y-98339889D01*
X139317309Y-98334933D01*
X139334775Y-98329004D01*
X139527984Y-98263418D01*
X139540484Y-98260068D01*
X139758698Y-98216663D01*
X139771523Y-98214975D01*
X139967819Y-98202109D01*
X139977628Y-98202899D01*
X139977628Y-98202625D01*
X139988778Y-98202645D01*
X139999642Y-98205143D01*
X140010514Y-98202683D01*
X140010516Y-98202683D01*
X140011135Y-98202543D01*
X140011434Y-98202475D01*
X140033360Y-98200035D01*
X140034298Y-98200036D01*
X140034301Y-98200035D01*
X140045449Y-98200045D01*
X140056106Y-98194928D01*
X140077110Y-98187614D01*
X140077765Y-98187466D01*
X140077767Y-98187465D01*
X140088639Y-98185005D01*
X140098106Y-98177488D01*
X140116809Y-98165779D01*
X140127705Y-98160547D01*
X140134666Y-98151843D01*
X140134667Y-98151842D01*
X140135087Y-98151316D01*
X140150843Y-98135615D01*
X140151367Y-98135199D01*
X140151369Y-98135197D01*
X140160100Y-98128264D01*
X140165370Y-98117387D01*
X140177147Y-98098722D01*
X140177731Y-98097992D01*
X140177731Y-98097991D01*
X140184694Y-98089285D01*
X140187192Y-98078422D01*
X140187194Y-98078417D01*
X140187344Y-98077764D01*
X140194733Y-98056780D01*
X140195025Y-98056178D01*
X140195025Y-98056177D01*
X140199885Y-98046147D01*
X140199946Y-98022959D01*
X140201667Y-98022964D01*
X140201643Y-98022723D01*
X140200000Y-98022723D01*
X140200000Y-98002242D01*
X140200122Y-97955703D01*
X140200122Y-97955702D01*
X140200124Y-97954900D01*
X140200005Y-97954650D01*
X140200000Y-97954610D01*
X140200000Y-87005877D01*
X140200035Y-86965700D01*
X140200045Y-86954551D01*
X140194815Y-86943659D01*
X140187537Y-86922817D01*
X140187330Y-86921907D01*
X140187328Y-86921904D01*
X140184850Y-86911038D01*
X140177480Y-86901789D01*
X140165666Y-86882954D01*
X140165375Y-86882347D01*
X140165372Y-86882343D01*
X140160547Y-86872295D01*
X140151107Y-86864746D01*
X140135516Y-86849128D01*
X140127985Y-86839677D01*
X140117337Y-86834541D01*
X140098522Y-86822692D01*
X140097995Y-86822270D01*
X140097990Y-86822268D01*
X140089285Y-86815306D01*
X140077508Y-86812598D01*
X140056682Y-86805285D01*
X140055836Y-86804877D01*
X140045798Y-86800035D01*
X140033982Y-86800025D01*
X140011880Y-86797506D01*
X140011226Y-86797356D01*
X140011225Y-86797356D01*
X140000358Y-86794857D01*
X139989483Y-86797318D01*
X139978337Y-86797298D01*
X139978338Y-86796985D01*
X139968388Y-86797739D01*
X139750888Y-86782184D01*
X139736912Y-86780173D01*
X139499800Y-86728592D01*
X139486253Y-86724615D01*
X139396890Y-86691284D01*
X139258887Y-86639812D01*
X139246038Y-86633944D01*
X139033062Y-86517649D01*
X139021180Y-86510013D01*
X138826923Y-86364595D01*
X138816247Y-86355345D01*
X138644655Y-86183753D01*
X138635405Y-86173077D01*
X138489987Y-85978820D01*
X138482351Y-85966938D01*
X138366056Y-85753962D01*
X138360188Y-85741113D01*
X138275386Y-85513750D01*
X138271407Y-85500197D01*
X138219827Y-85263091D01*
X138217816Y-85249109D01*
X138200505Y-85007062D01*
X138200505Y-84992938D01*
X138217816Y-84750891D01*
X138219827Y-84736909D01*
X138271407Y-84499803D01*
X138275386Y-84486250D01*
X138360188Y-84258887D01*
X138366056Y-84246038D01*
X138482351Y-84033062D01*
X138489987Y-84021180D01*
X138635405Y-83826923D01*
X138644655Y-83816247D01*
X138816247Y-83644655D01*
X138826923Y-83635405D01*
X139021180Y-83489987D01*
X139033062Y-83482351D01*
X139246038Y-83366056D01*
X139258887Y-83360188D01*
X139396890Y-83308716D01*
X139486253Y-83275385D01*
X139499800Y-83271408D01*
X139736912Y-83219827D01*
X139750888Y-83217816D01*
X139967873Y-83202298D01*
X139977628Y-83203054D01*
X139977629Y-83202626D01*
X139988779Y-83202645D01*
X139999642Y-83205143D01*
X140010514Y-83202683D01*
X140010515Y-83202683D01*
X140011583Y-83202441D01*
X140033432Y-83200000D01*
X144966040Y-83200000D01*
X144988227Y-83202518D01*
X144999642Y-83205143D01*
X145010517Y-83202682D01*
X145021663Y-83202702D01*
X145021662Y-83203015D01*
X145031612Y-83202261D01*
X145249112Y-83217816D01*
X145263088Y-83219827D01*
X145500200Y-83271408D01*
X145513747Y-83275385D01*
X145603110Y-83308716D01*
X145741113Y-83360188D01*
X145753962Y-83366056D01*
X145966938Y-83482351D01*
X145978820Y-83489987D01*
X146173077Y-83635405D01*
X146183753Y-83644655D01*
X146355345Y-83816247D01*
X146364595Y-83826923D01*
X146510013Y-84021180D01*
X146517649Y-84033062D01*
X146633944Y-84246038D01*
X146639812Y-84258887D01*
X146724614Y-84486250D01*
X146728593Y-84499803D01*
X146780173Y-84736909D01*
X146782184Y-84750891D01*
X146799495Y-84992938D01*
X146799495Y-85007062D01*
X146782184Y-85249109D01*
X146780173Y-85263091D01*
X146728593Y-85500197D01*
X146724614Y-85513750D01*
X146639812Y-85741113D01*
X146633944Y-85753962D01*
X146517649Y-85966938D01*
X146510013Y-85978820D01*
X146364595Y-86173077D01*
X146355345Y-86183753D01*
X146183753Y-86355345D01*
X146173077Y-86364595D01*
X145978820Y-86510013D01*
X145966938Y-86517649D01*
X145753962Y-86633944D01*
X145741113Y-86639812D01*
X145603110Y-86691284D01*
X145513747Y-86724615D01*
X145500200Y-86728592D01*
X145263088Y-86780173D01*
X145249112Y-86782184D01*
X145032127Y-86797702D01*
X145022372Y-86796946D01*
X145022371Y-86797374D01*
X145011221Y-86797355D01*
X145000358Y-86794857D01*
X144989486Y-86797317D01*
X144989485Y-86797317D01*
X144989096Y-86797405D01*
X144988566Y-86797525D01*
X144966640Y-86799965D01*
X144965702Y-86799964D01*
X144965699Y-86799965D01*
X144954551Y-86799955D01*
X144943894Y-86805072D01*
X144922890Y-86812386D01*
X144922235Y-86812534D01*
X144922233Y-86812535D01*
X144911361Y-86814995D01*
X144901894Y-86822512D01*
X144883193Y-86834220D01*
X144872295Y-86839453D01*
X144865334Y-86848157D01*
X144865333Y-86848158D01*
X144864913Y-86848684D01*
X144849157Y-86864385D01*
X144848633Y-86864801D01*
X144848631Y-86864803D01*
X144839900Y-86871736D01*
X144835039Y-86881770D01*
X144835038Y-86881771D01*
X144834630Y-86882613D01*
X144822853Y-86901278D01*
X144815306Y-86910715D01*
X144812808Y-86921578D01*
X144812806Y-86921583D01*
X144812656Y-86922236D01*
X144805267Y-86943220D01*
X144800115Y-86953853D01*
X144800054Y-86977041D01*
X144798333Y-86977036D01*
X144798357Y-86977277D01*
X144800000Y-86977277D01*
X144800000Y-86997758D01*
X144799876Y-87045100D01*
X144799995Y-87045350D01*
X144800000Y-87045390D01*
X144800000Y-97993842D01*
X144799955Y-98045449D01*
X144804781Y-98055498D01*
X144804781Y-98055500D01*
X144805185Y-98056341D01*
X144812463Y-98077183D01*
X144812670Y-98078093D01*
X144812672Y-98078096D01*
X144815150Y-98088962D01*
X144822097Y-98097680D01*
X144822520Y-98098211D01*
X144834334Y-98117046D01*
X144834625Y-98117653D01*
X144834628Y-98117657D01*
X144839453Y-98127705D01*
X144848893Y-98135254D01*
X144864484Y-98150872D01*
X144872015Y-98160323D01*
X144882058Y-98165167D01*
X144882663Y-98165459D01*
X144901478Y-98177308D01*
X144902005Y-98177730D01*
X144902010Y-98177732D01*
X144910715Y-98184694D01*
X144922405Y-98187382D01*
X144922492Y-98187402D01*
X144943318Y-98194715D01*
X144954202Y-98199965D01*
X144966018Y-98199975D01*
X144988120Y-98202494D01*
X144988774Y-98202644D01*
X144988775Y-98202644D01*
X144999642Y-98205143D01*
X145010517Y-98202682D01*
X145021663Y-98202702D01*
X145021662Y-98203015D01*
X145031612Y-98202261D01*
X145249112Y-98217816D01*
X145263088Y-98219827D01*
X145500200Y-98271408D01*
X145513747Y-98275385D01*
X145568651Y-98295863D01*
X145741113Y-98360188D01*
X145753962Y-98366056D01*
X145966938Y-98482351D01*
X145978820Y-98489987D01*
X146173077Y-98635405D01*
X146183753Y-98644655D01*
X146355345Y-98816247D01*
X146364595Y-98826923D01*
X146510013Y-99021180D01*
X146517649Y-99033062D01*
X146633944Y-99246038D01*
X146639812Y-99258887D01*
X146659313Y-99311170D01*
X146719502Y-99472543D01*
X146724614Y-99486250D01*
X146728592Y-99499800D01*
X146736060Y-99534126D01*
X146780173Y-99736909D01*
X146782184Y-99750891D01*
X146799495Y-99992938D01*
X146799495Y-100007061D01*
X146785688Y-100200122D01*
X146782184Y-100249109D01*
X146780173Y-100263091D01*
X146728593Y-100500197D01*
X146724614Y-100513750D01*
X146639812Y-100741113D01*
X146633944Y-100753962D01*
X146517649Y-100966938D01*
X146510013Y-100978820D01*
X146364595Y-101173077D01*
X146355345Y-101183753D01*
X146183753Y-101355345D01*
X146173077Y-101364595D01*
X145978820Y-101510013D01*
X145966938Y-101517649D01*
X145753962Y-101633944D01*
X145741113Y-101639812D01*
X145603110Y-101691284D01*
X145513747Y-101724615D01*
X145500200Y-101728592D01*
X145263088Y-101780173D01*
X145249112Y-101782184D01*
X145032378Y-101797684D01*
X145011899Y-101796079D01*
X145011819Y-101796774D01*
X145006217Y-101796133D01*
X145000716Y-101794858D01*
X145000360Y-101794858D01*
X145000358Y-101794857D01*
X145000000Y-101794857D01*
X144995884Y-101795796D01*
X144994961Y-101795872D01*
X144783873Y-101806935D01*
X144665050Y-101813162D01*
X144662492Y-101813567D01*
X144662484Y-101813568D01*
X144371247Y-101859696D01*
X144333769Y-101865632D01*
X144331265Y-101866303D01*
X144331260Y-101866304D01*
X144012291Y-101951771D01*
X144012285Y-101951773D01*
X144009788Y-101952442D01*
X143696656Y-102072643D01*
X143694353Y-102073816D01*
X143694345Y-102073820D01*
X143400111Y-102223739D01*
X143400103Y-102223744D01*
X143397804Y-102224915D01*
X143395632Y-102226326D01*
X143395626Y-102226329D01*
X143118687Y-102406176D01*
X143118679Y-102406182D01*
X143116506Y-102407593D01*
X142855844Y-102618673D01*
X142618673Y-102855844D01*
X142407593Y-103116506D01*
X142406182Y-103118679D01*
X142406176Y-103118687D01*
X142318154Y-103254229D01*
X142224915Y-103397804D01*
X142223744Y-103400103D01*
X142223739Y-103400111D01*
X142073820Y-103694345D01*
X142073816Y-103694353D01*
X142072643Y-103696656D01*
X141952442Y-104009788D01*
X141865632Y-104333769D01*
X141813162Y-104665050D01*
X141796557Y-104981910D01*
X141795926Y-104993945D01*
X141795831Y-104995090D01*
X141794858Y-104999284D01*
X141794858Y-104999640D01*
X141794857Y-104999642D01*
X141794857Y-105000000D01*
X141796091Y-105005412D01*
X141796714Y-105010939D01*
X141796124Y-105011005D01*
X141797720Y-105031868D01*
X141782184Y-105249109D01*
X141780173Y-105263091D01*
X141728593Y-105500197D01*
X141724614Y-105513750D01*
X141639812Y-105741113D01*
X141633944Y-105753962D01*
X141517649Y-105966938D01*
X141510013Y-105978820D01*
X141364595Y-106173077D01*
X141355345Y-106183753D01*
X141183753Y-106355345D01*
X141173077Y-106364595D01*
X140978820Y-106510013D01*
X140966938Y-106517649D01*
X140753962Y-106633944D01*
X140741113Y-106639812D01*
X140603110Y-106691284D01*
X140513747Y-106724615D01*
X140500200Y-106728592D01*
X140263088Y-106780173D01*
X140249112Y-106782184D01*
X140007061Y-106799495D01*
X139992939Y-106799495D01*
X139750888Y-106782184D01*
X139736912Y-106780173D01*
X139499800Y-106728592D01*
X139486253Y-106724615D01*
X139396890Y-106691284D01*
X139258887Y-106639812D01*
X139246038Y-106633944D01*
X139033062Y-106517649D01*
X139021180Y-106510013D01*
X138826923Y-106364595D01*
X138816247Y-106355345D01*
X138644655Y-106183753D01*
X138635405Y-106173077D01*
X138489987Y-105978820D01*
X138482351Y-105966938D01*
X138366056Y-105753962D01*
X138360188Y-105741113D01*
X138275386Y-105513750D01*
X138271407Y-105500197D01*
X138219827Y-105263091D01*
X138217816Y-105249109D01*
X138202316Y-105032382D01*
X138203927Y-105011833D01*
X138203235Y-105011753D01*
X138203877Y-105006175D01*
X138205142Y-105000716D01*
X138205143Y-105000000D01*
X138203900Y-104994550D01*
X138203899Y-104994543D01*
X138202514Y-104988470D01*
X138200035Y-104966372D01*
X138200036Y-104965701D01*
X138200035Y-104965698D01*
X138200045Y-104954551D01*
X138195058Y-104944164D01*
X138194815Y-104943659D01*
X138187537Y-104922817D01*
X138187330Y-104921907D01*
X138187328Y-104921904D01*
X138184850Y-104911038D01*
X138177480Y-104901789D01*
X138165666Y-104882954D01*
X138165375Y-104882347D01*
X138165372Y-104882343D01*
X138160547Y-104872295D01*
X138151107Y-104864746D01*
X138135516Y-104849128D01*
X138127985Y-104839677D01*
X138117337Y-104834541D01*
X138098522Y-104822692D01*
X138097995Y-104822270D01*
X138097990Y-104822268D01*
X138089285Y-104815306D01*
X138077508Y-104812598D01*
X138056682Y-104805285D01*
X138055836Y-104804877D01*
X138045798Y-104800035D01*
X138034653Y-104800025D01*
X138034652Y-104800025D01*
X138022787Y-104800015D01*
X138022789Y-104798270D01*
X138022723Y-104798276D01*
X138022723Y-104800000D01*
X138005877Y-104800000D01*
X137954840Y-104799955D01*
X137954551Y-104799955D01*
X137954463Y-104799997D01*
X137954439Y-104800000D01*
X127005877Y-104800000D01*
X126954551Y-104799955D01*
X126944502Y-104804781D01*
X126944500Y-104804781D01*
X126943659Y-104805185D01*
X126922817Y-104812463D01*
X126921907Y-104812670D01*
X126921904Y-104812672D01*
X126911038Y-104815150D01*
X126902320Y-104822097D01*
X126901789Y-104822520D01*
X126882954Y-104834334D01*
X126882347Y-104834625D01*
X126882343Y-104834628D01*
X126872295Y-104839453D01*
X126864746Y-104848893D01*
X126849128Y-104864484D01*
X126839677Y-104872015D01*
X126834593Y-104882555D01*
X126834541Y-104882663D01*
X126822692Y-104901478D01*
X126822270Y-104902005D01*
X126822268Y-104902010D01*
X126815306Y-104910715D01*
X126812808Y-104921581D01*
X126812598Y-104922492D01*
X126805285Y-104943318D01*
X126800035Y-104954202D01*
X126800025Y-104965701D01*
X126800025Y-104966016D01*
X126797506Y-104988120D01*
X126797426Y-104988470D01*
X126794857Y-104999642D01*
X126797318Y-105010517D01*
X126797298Y-105021663D01*
X126796985Y-105021662D01*
X126797739Y-105031614D01*
X126782184Y-105249109D01*
X126780173Y-105263091D01*
X126728593Y-105500197D01*
X126724614Y-105513750D01*
X126639812Y-105741113D01*
X126633944Y-105753962D01*
X126517649Y-105966938D01*
X126510013Y-105978820D01*
X126364595Y-106173077D01*
X126355345Y-106183753D01*
X126183753Y-106355345D01*
X126173077Y-106364595D01*
X125978820Y-106510013D01*
X125966938Y-106517649D01*
X125753962Y-106633944D01*
X125741113Y-106639812D01*
X125603110Y-106691284D01*
X125513747Y-106724615D01*
X125500200Y-106728592D01*
X125263088Y-106780173D01*
X125249112Y-106782184D01*
X125007061Y-106799495D01*
X124992939Y-106799495D01*
X124750888Y-106782184D01*
X124736912Y-106780173D01*
X124499800Y-106728592D01*
X124486253Y-106724615D01*
X124396890Y-106691284D01*
X124258887Y-106639812D01*
X124246038Y-106633944D01*
X124033062Y-106517649D01*
X124021180Y-106510013D01*
X123826923Y-106364595D01*
X123816247Y-106355345D01*
X123644655Y-106183753D01*
X123635405Y-106173077D01*
X123489987Y-105978820D01*
X123482351Y-105966938D01*
X123366056Y-105753962D01*
X123360188Y-105741113D01*
X123275386Y-105513750D01*
X123271407Y-105500197D01*
X123219827Y-105263091D01*
X123217816Y-105249109D01*
X123202316Y-105032382D01*
X123203927Y-105011833D01*
X123203235Y-105011753D01*
X123203877Y-105006176D01*
X123205142Y-105000716D01*
X123205143Y-105000000D01*
X123204197Y-104995852D01*
X123204135Y-104995100D01*
X123204075Y-104993945D01*
X123186838Y-104665050D01*
X123134368Y-104333769D01*
X123047558Y-104009788D01*
X122927357Y-103696656D01*
X122926184Y-103694353D01*
X122926180Y-103694345D01*
X122776261Y-103400111D01*
X122776256Y-103400103D01*
X122775085Y-103397804D01*
X122681846Y-103254229D01*
X122593824Y-103118687D01*
X122593818Y-103118679D01*
X122592407Y-103116506D01*
X122381327Y-102855844D01*
X122144156Y-102618673D01*
X121883494Y-102407593D01*
X121881321Y-102406182D01*
X121881313Y-102406176D01*
X121604374Y-102226329D01*
X121604368Y-102226326D01*
X121602196Y-102224915D01*
X121599897Y-102223744D01*
X121599889Y-102223739D01*
X121305655Y-102073820D01*
X121305647Y-102073816D01*
X121303344Y-102072643D01*
X120990212Y-101952442D01*
X120987715Y-101951773D01*
X120987709Y-101951771D01*
X120668740Y-101866304D01*
X120668735Y-101866303D01*
X120666231Y-101865632D01*
X120628753Y-101859696D01*
X120337516Y-101813568D01*
X120337508Y-101813567D01*
X120334950Y-101813162D01*
X120006046Y-101795925D01*
X120004910Y-101795831D01*
X120000716Y-101794858D01*
X120000360Y-101794858D01*
X120000358Y-101794857D01*
X120000000Y-101794857D01*
X119994588Y-101796091D01*
X119989061Y-101796714D01*
X119988995Y-101796124D01*
X119968132Y-101797720D01*
X119829375Y-101787797D01*
X119750888Y-101782184D01*
X119736912Y-101780173D01*
X119499800Y-101728592D01*
X119486253Y-101724615D01*
X119396890Y-101691284D01*
X119258887Y-101639812D01*
X119246038Y-101633944D01*
X119033062Y-101517649D01*
X119021180Y-101510013D01*
X118826923Y-101364595D01*
X118816247Y-101355345D01*
X118644655Y-101183753D01*
X118635405Y-101173077D01*
X118489987Y-100978820D01*
X118482351Y-100966938D01*
X118366056Y-100753962D01*
X118360188Y-100741113D01*
X118275386Y-100513750D01*
X118271407Y-100500197D01*
X118219827Y-100263091D01*
X118217816Y-100249109D01*
X118214313Y-100200122D01*
X118200505Y-100007061D01*
X118200505Y-99992938D01*
X118217816Y-99750891D01*
X118219827Y-99736909D01*
X118263941Y-99534126D01*
X118271408Y-99499800D01*
X118275386Y-99486250D01*
X118280499Y-99472543D01*
X118340687Y-99311170D01*
X118360188Y-99258887D01*
X118366056Y-99246038D01*
X118482351Y-99033062D01*
X118489987Y-99021180D01*
X118635405Y-98826923D01*
X118644655Y-98816247D01*
X118816247Y-98644655D01*
X118826923Y-98635405D01*
X119021180Y-98489987D01*
X119033062Y-98482351D01*
X119246038Y-98366056D01*
X119258887Y-98360188D01*
X119431349Y-98295863D01*
X119486253Y-98275385D01*
X119499800Y-98271408D01*
X119736912Y-98219827D01*
X119750888Y-98217816D01*
X119967873Y-98202298D01*
X119977628Y-98203054D01*
X119977629Y-98202626D01*
X119988779Y-98202645D01*
X119999642Y-98205143D01*
X120010514Y-98202683D01*
X120010515Y-98202683D01*
X120010904Y-98202595D01*
X120011434Y-98202475D01*
X120033360Y-98200035D01*
X120034298Y-98200036D01*
X120034301Y-98200035D01*
X120045449Y-98200045D01*
X120056106Y-98194928D01*
X120077110Y-98187614D01*
X120077765Y-98187466D01*
X120077767Y-98187465D01*
X120088639Y-98185005D01*
X120098106Y-98177488D01*
X120116809Y-98165779D01*
X120127705Y-98160547D01*
X120134666Y-98151843D01*
X120134667Y-98151842D01*
X120135087Y-98151316D01*
X120150843Y-98135615D01*
X120151367Y-98135199D01*
X120151369Y-98135197D01*
X120160100Y-98128264D01*
X120165370Y-98117387D01*
X120177147Y-98098722D01*
X120177731Y-98097992D01*
X120177731Y-98097991D01*
X120184694Y-98089285D01*
X120187192Y-98078422D01*
X120187194Y-98078417D01*
X120187344Y-98077764D01*
X120194733Y-98056780D01*
X120195025Y-98056178D01*
X120195025Y-98056177D01*
X120199885Y-98046147D01*
X120199946Y-98022959D01*
X120201667Y-98022964D01*
X120201643Y-98022723D01*
X120200000Y-98022723D01*
X120200000Y-98002242D01*
X120200122Y-97955703D01*
X120200122Y-97955702D01*
X120200124Y-97954900D01*
X120200005Y-97954650D01*
X120200000Y-97954610D01*
X120200000Y-96271392D01*
X120834886Y-96271392D01*
X120835498Y-96276947D01*
X120835498Y-96276952D01*
X120836017Y-96281658D01*
X120836464Y-96288169D01*
X120836431Y-96288496D01*
X120836552Y-96289460D01*
X120836575Y-96289793D01*
X120837486Y-96323137D01*
X120840620Y-96329218D01*
X120842079Y-96338633D01*
X120842212Y-96340999D01*
X120841892Y-96346589D01*
X120842863Y-96352281D01*
X120844117Y-96363406D01*
X120844119Y-96363451D01*
X120844121Y-96363464D01*
X120844430Y-96369002D01*
X120844734Y-96370060D01*
X120845688Y-96382352D01*
X120845640Y-96386068D01*
X120845641Y-96386072D01*
X120845498Y-96397216D01*
X120850203Y-96407322D01*
X120862077Y-96432826D01*
X120863770Y-96436674D01*
X120878815Y-96472942D01*
X120883295Y-96476943D01*
X120884304Y-96479548D01*
X120891003Y-96485822D01*
X120891004Y-96485823D01*
X120902221Y-96496328D01*
X120905355Y-96499397D01*
X120906982Y-96501062D01*
X120910392Y-96505440D01*
X120914690Y-96508950D01*
X120914691Y-96508951D01*
X120920583Y-96513763D01*
X120924326Y-96519579D01*
X120925598Y-96518221D01*
X120934155Y-96526235D01*
X120938382Y-96528693D01*
X120950878Y-96541244D01*
X120956370Y-96545977D01*
X120962985Y-96554951D01*
X120972838Y-96560169D01*
X120985384Y-96566813D01*
X120985790Y-96567057D01*
X120986023Y-96567151D01*
X120990150Y-96569337D01*
X120990156Y-96569341D01*
X120990076Y-96569492D01*
X120990780Y-96569764D01*
X120995199Y-96572760D01*
X120998232Y-96575815D01*
X121001315Y-96576907D01*
X121015077Y-96586238D01*
X121026105Y-96587874D01*
X121027296Y-96588338D01*
X121033392Y-96589599D01*
X121036560Y-96590445D01*
X121042201Y-96592135D01*
X121072172Y-96602102D01*
X121121421Y-96638407D01*
X121138453Y-96679018D01*
X121143059Y-96705404D01*
X121143199Y-96706225D01*
X121146426Y-96725787D01*
X121146628Y-96727067D01*
X121152756Y-96767595D01*
X121153001Y-96769312D01*
X121159026Y-96814501D01*
X121159210Y-96815970D01*
X121164354Y-96859507D01*
X121164528Y-96860984D01*
X121164710Y-96862642D01*
X121165571Y-96871178D01*
X121168168Y-96896944D01*
X121168243Y-96898761D01*
X121168192Y-96899149D01*
X121168310Y-96900386D01*
X121170165Y-96919881D01*
X121170275Y-96921118D01*
X121171975Y-96941728D01*
X121172351Y-96942914D01*
X121172372Y-96943059D01*
X121177005Y-96991744D01*
X121177172Y-96994379D01*
X121176800Y-96998969D01*
X121178608Y-97011335D01*
X121179000Y-97014020D01*
X121179595Y-97018957D01*
X121181020Y-97033926D01*
X121182464Y-97038296D01*
X121182933Y-97040932D01*
X121188732Y-97080612D01*
X121189326Y-97085534D01*
X121189328Y-97085557D01*
X121189228Y-97091153D01*
X121190382Y-97096622D01*
X121190383Y-97096628D01*
X121191980Y-97104191D01*
X121193074Y-97110323D01*
X121194972Y-97123306D01*
X121196980Y-97128491D01*
X121197027Y-97128670D01*
X121198147Y-97133401D01*
X121204103Y-97161609D01*
X121204332Y-97162696D01*
X121205066Y-97166545D01*
X121205908Y-97171497D01*
X121206219Y-97177096D01*
X121207777Y-97182484D01*
X121209481Y-97188379D01*
X121211240Y-97195418D01*
X121213631Y-97206746D01*
X121215958Y-97211790D01*
X121217627Y-97216824D01*
X121218761Y-97220479D01*
X121224791Y-97241333D01*
X121225550Y-97245090D01*
X121225781Y-97245033D01*
X121227129Y-97250471D01*
X121227854Y-97256019D01*
X121229803Y-97261261D01*
X121231894Y-97266885D01*
X121234199Y-97273873D01*
X121237367Y-97284830D01*
X121240060Y-97289694D01*
X121242190Y-97294824D01*
X121242007Y-97294900D01*
X121243597Y-97298367D01*
X121246272Y-97305562D01*
X121248284Y-97312292D01*
X121249423Y-97315533D01*
X121250674Y-97320998D01*
X121253116Y-97326040D01*
X121253117Y-97326043D01*
X121254379Y-97328648D01*
X121258074Y-97337304D01*
X121260974Y-97345105D01*
X121264021Y-97349753D01*
X121265472Y-97352624D01*
X121269025Y-97358893D01*
X121272936Y-97366967D01*
X121277214Y-97377231D01*
X121279184Y-97382821D01*
X121282180Y-97387549D01*
X121282231Y-97387629D01*
X121287673Y-97397406D01*
X121287689Y-97397432D01*
X121290109Y-97402428D01*
X121293868Y-97407122D01*
X121300220Y-97416018D01*
X121305594Y-97424499D01*
X121310034Y-97432568D01*
X121310901Y-97433969D01*
X121313291Y-97439028D01*
X121316753Y-97443422D01*
X121316758Y-97443430D01*
X121317864Y-97444834D01*
X121323720Y-97453105D01*
X121324601Y-97454496D01*
X121324607Y-97454504D01*
X121327580Y-97459195D01*
X121331524Y-97463110D01*
X121332445Y-97464256D01*
X121338660Y-97471225D01*
X121345196Y-97479520D01*
X121348054Y-97483332D01*
X121348535Y-97484007D01*
X121351253Y-97488910D01*
X121359974Y-97498611D01*
X121364093Y-97503504D01*
X121372039Y-97513589D01*
X121376357Y-97517075D01*
X121377094Y-97517821D01*
X121380297Y-97521219D01*
X121392569Y-97534870D01*
X121394729Y-97537355D01*
X121439488Y-97590657D01*
X121446253Y-97599720D01*
X121478443Y-97648415D01*
X121483609Y-97657177D01*
X121512526Y-97712543D01*
X121513435Y-97714328D01*
X121519103Y-97725737D01*
X121520602Y-97729416D01*
X121520753Y-97729347D01*
X121523064Y-97734447D01*
X121524786Y-97739776D01*
X121527659Y-97744585D01*
X121530505Y-97749350D01*
X121534171Y-97756065D01*
X121539052Y-97765888D01*
X121542570Y-97770192D01*
X121542866Y-97770650D01*
X121548373Y-97780641D01*
X121549118Y-97781863D01*
X121551475Y-97786943D01*
X121554909Y-97791363D01*
X121555593Y-97792486D01*
X121559469Y-97798157D01*
X121560375Y-97799347D01*
X121563226Y-97804119D01*
X121567065Y-97808136D01*
X121570429Y-97812555D01*
X121570326Y-97812633D01*
X121573963Y-97817350D01*
X121574121Y-97817226D01*
X121577573Y-97821637D01*
X121580503Y-97826405D01*
X121584429Y-97830397D01*
X121584629Y-97830653D01*
X121591169Y-97838130D01*
X121591519Y-97838489D01*
X121594927Y-97842876D01*
X121599227Y-97846396D01*
X121601817Y-97849054D01*
X121603323Y-97851164D01*
X121607410Y-97854784D01*
X121631546Y-97905405D01*
X121633856Y-97919954D01*
X121633874Y-97920066D01*
X121636789Y-97938560D01*
X121637362Y-97942198D01*
X121637404Y-97942302D01*
X121639473Y-97955335D01*
X121639514Y-97955700D01*
X121639416Y-97957754D01*
X121640279Y-97962534D01*
X121640279Y-97962537D01*
X121642889Y-97977002D01*
X121643238Y-97979059D01*
X121645521Y-97993437D01*
X121645523Y-97993447D01*
X121646281Y-97998220D01*
X121647046Y-98000125D01*
X121647128Y-98000486D01*
X121648399Y-98007531D01*
X121648516Y-98008374D01*
X121648468Y-98011374D01*
X121650937Y-98022959D01*
X121652229Y-98029024D01*
X121652828Y-98032069D01*
X121655996Y-98049623D01*
X121657168Y-98052372D01*
X121657388Y-98053233D01*
X121658130Y-98056716D01*
X121658335Y-98057898D01*
X121658404Y-98061322D01*
X121662619Y-98078093D01*
X121662622Y-98078104D01*
X121663434Y-98081604D01*
X121665363Y-98090656D01*
X121667001Y-98098344D01*
X121668443Y-98101454D01*
X121668782Y-98102613D01*
X121669550Y-98105668D01*
X121669736Y-98106559D01*
X121669894Y-98109596D01*
X121673191Y-98121141D01*
X121674820Y-98126847D01*
X121675640Y-98129901D01*
X121677288Y-98136457D01*
X121679975Y-98147151D01*
X121681351Y-98149857D01*
X121681640Y-98150732D01*
X121681889Y-98151605D01*
X121683226Y-98156289D01*
X121683301Y-98156609D01*
X121683440Y-98158534D01*
X121687141Y-98170586D01*
X121689247Y-98177445D01*
X121689804Y-98179326D01*
X121692876Y-98190084D01*
X121695176Y-98198141D01*
X121696105Y-98199832D01*
X121696217Y-98200145D01*
X121701863Y-98218530D01*
X121702170Y-98219554D01*
X121711426Y-98251013D01*
X121712932Y-98256764D01*
X121714591Y-98263977D01*
X121715950Y-98269889D01*
X121717624Y-98279178D01*
X121717960Y-98281736D01*
X121718784Y-98292693D01*
X121718846Y-98295863D01*
X121718586Y-98305220D01*
X121717770Y-98316080D01*
X121717471Y-98320052D01*
X121716842Y-98326008D01*
X121714487Y-98343253D01*
X121712344Y-98358949D01*
X121712007Y-98361218D01*
X121709432Y-98377250D01*
X121707488Y-98389347D01*
X121706941Y-98392749D01*
X121706927Y-98392812D01*
X121706655Y-98393498D01*
X121704033Y-98410617D01*
X121703372Y-98414934D01*
X121703273Y-98415563D01*
X121700797Y-98430967D01*
X121699645Y-98430782D01*
X121699542Y-98431053D01*
X121700702Y-98431221D01*
X121700302Y-98433975D01*
X121700092Y-98435355D01*
X121699870Y-98436734D01*
X121699121Y-98436614D01*
X121699111Y-98436797D01*
X121699877Y-98436908D01*
X121697604Y-98452578D01*
X121697489Y-98453346D01*
X121696969Y-98456744D01*
X121695721Y-98464896D01*
X121695277Y-98464828D01*
X121695263Y-98465213D01*
X121695126Y-98465588D01*
X121695446Y-98465630D01*
X121694401Y-98473515D01*
X121694036Y-98473467D01*
X121694015Y-98473970D01*
X121693895Y-98474451D01*
X121694270Y-98474501D01*
X121694270Y-98474503D01*
X121692684Y-98486462D01*
X121692526Y-98487592D01*
X121692412Y-98488373D01*
X121675066Y-98528359D01*
X121673838Y-98529337D01*
X121668995Y-98539378D01*
X121668994Y-98539379D01*
X121663463Y-98550846D01*
X121661451Y-98554342D01*
X121661567Y-98554403D01*
X121658986Y-98559329D01*
X121655875Y-98563927D01*
X121653865Y-98569101D01*
X121653863Y-98569105D01*
X121651995Y-98573914D01*
X121648887Y-98581067D01*
X121634196Y-98611524D01*
X121634189Y-98619753D01*
X121631208Y-98627426D01*
X121633845Y-98661163D01*
X121634146Y-98668944D01*
X121634116Y-98702771D01*
X121637679Y-98710190D01*
X121638320Y-98718395D01*
X121654410Y-98746072D01*
X121655317Y-98747633D01*
X121658963Y-98754517D01*
X121673614Y-98785027D01*
X121680044Y-98790169D01*
X121684179Y-98797282D01*
X121712182Y-98816263D01*
X121718445Y-98820879D01*
X121744876Y-98842016D01*
X121752899Y-98843861D01*
X121759711Y-98848478D01*
X121790120Y-98852985D01*
X121793156Y-98853435D01*
X121800823Y-98854882D01*
X121805978Y-98856067D01*
X121805981Y-98856067D01*
X121811438Y-98857322D01*
X121817038Y-98857322D01*
X121822599Y-98857953D01*
X121822583Y-98858095D01*
X121826605Y-98858392D01*
X121849972Y-98861855D01*
X121860622Y-98858544D01*
X121871734Y-98857685D01*
X121871797Y-98858504D01*
X121879586Y-98857322D01*
X121978650Y-98857322D01*
X121997773Y-98859671D01*
X122000443Y-98859725D01*
X122011261Y-98862423D01*
X122035648Y-98857375D01*
X122035982Y-98857322D01*
X122037944Y-98857322D01*
X122042500Y-98856283D01*
X122042504Y-98856282D01*
X122056957Y-98852985D01*
X122058909Y-98852560D01*
X122070736Y-98850112D01*
X122100614Y-98843928D01*
X122102295Y-98842643D01*
X122104360Y-98842172D01*
X122128638Y-98822826D01*
X122137689Y-98815614D01*
X122139262Y-98814386D01*
X122173109Y-98788514D01*
X122174068Y-98786624D01*
X122175721Y-98785307D01*
X122194209Y-98746978D01*
X122195092Y-98745193D01*
X122209844Y-98716121D01*
X122209844Y-98716120D01*
X122214399Y-98707144D01*
X122214444Y-98705026D01*
X122215363Y-98703120D01*
X122215379Y-98685442D01*
X122215397Y-98664141D01*
X122215400Y-98660501D01*
X122215422Y-98658515D01*
X122215554Y-98652255D01*
X122215836Y-98638860D01*
X122215437Y-98636939D01*
X122215421Y-98636598D01*
X122215426Y-98631712D01*
X122215443Y-98611873D01*
X122215443Y-98611872D01*
X122217834Y-98611874D01*
X122220751Y-98571566D01*
X122222413Y-98568381D01*
X122225342Y-98557142D01*
X122227463Y-98550089D01*
X122228462Y-98547168D01*
X122231151Y-98539299D01*
X122231733Y-98533778D01*
X122232138Y-98531945D01*
X122233565Y-98526700D01*
X122235149Y-98523217D01*
X122238069Y-98508879D01*
X122239275Y-98503680D01*
X122241526Y-98495042D01*
X122241527Y-98495038D01*
X122242927Y-98489664D01*
X122243078Y-98484753D01*
X122243636Y-98481538D01*
X122244297Y-98478292D01*
X122244532Y-98477335D01*
X122245736Y-98474438D01*
X122246670Y-98468927D01*
X122246673Y-98468917D01*
X122248716Y-98456863D01*
X122249313Y-98453658D01*
X122249377Y-98453346D01*
X122252823Y-98436422D01*
X122252750Y-98433292D01*
X122252875Y-98432323D01*
X122257125Y-98407253D01*
X122257531Y-98405011D01*
X122257952Y-98402835D01*
X122261746Y-98383211D01*
X122262598Y-98379245D01*
X122269039Y-98352012D01*
X122269781Y-98349076D01*
X122277876Y-98319029D01*
X122278720Y-98316080D01*
X122285575Y-98293462D01*
X122285839Y-98292605D01*
X122291196Y-98275490D01*
X122291475Y-98274714D01*
X122292867Y-98272158D01*
X122294838Y-98265116D01*
X122297762Y-98254668D01*
X122298618Y-98251780D01*
X122303203Y-98237128D01*
X122303205Y-98237121D01*
X122303992Y-98234606D01*
X122304036Y-98234054D01*
X122304452Y-98232518D01*
X122305398Y-98230564D01*
X122308870Y-98215384D01*
X122310035Y-98210800D01*
X122312318Y-98202644D01*
X122314177Y-98195999D01*
X122314291Y-98193654D01*
X122314606Y-98192255D01*
X122315778Y-98189448D01*
X122318212Y-98175226D01*
X122319285Y-98169853D01*
X122321229Y-98161354D01*
X122321229Y-98161351D01*
X122322469Y-98155931D01*
X122322471Y-98152786D01*
X122322789Y-98150970D01*
X122323621Y-98148679D01*
X122325525Y-98133147D01*
X122326202Y-98128540D01*
X122327870Y-98118794D01*
X122327870Y-98118788D01*
X122328808Y-98113308D01*
X122328666Y-98110724D01*
X122329039Y-98107884D01*
X122329360Y-98106904D01*
X122330991Y-98088949D01*
X122331320Y-98085860D01*
X122332818Y-98073643D01*
X122332818Y-98073638D01*
X122333493Y-98068132D01*
X122333189Y-98065167D01*
X122333234Y-98064261D01*
X122333371Y-98062758D01*
X122333389Y-98062630D01*
X122333817Y-98061256D01*
X122335387Y-98040665D01*
X122335495Y-98039373D01*
X122335841Y-98035573D01*
X122336459Y-98028766D01*
X122360556Y-97972526D01*
X122413108Y-97941190D01*
X122425129Y-97939226D01*
X122430520Y-97938683D01*
X122431743Y-97938560D01*
X122435688Y-97938457D01*
X122435677Y-97938284D01*
X122441262Y-97937925D01*
X122446860Y-97938198D01*
X122452373Y-97937210D01*
X122452375Y-97937210D01*
X122457916Y-97936217D01*
X122465448Y-97935165D01*
X122470907Y-97934615D01*
X122470915Y-97934613D01*
X122476437Y-97934057D01*
X122481699Y-97932286D01*
X122487136Y-97931112D01*
X122487170Y-97931271D01*
X122490994Y-97930291D01*
X122499302Y-97928803D01*
X122503190Y-97928186D01*
X122508019Y-97927518D01*
X122513614Y-97927381D01*
X122519032Y-97925995D01*
X122519038Y-97925994D01*
X122525020Y-97924463D01*
X122532107Y-97922924D01*
X122538058Y-97921858D01*
X122538060Y-97921857D01*
X122543527Y-97920878D01*
X122548639Y-97918707D01*
X122553615Y-97917226D01*
X122557303Y-97916205D01*
X122559961Y-97915525D01*
X122568210Y-97913962D01*
X122570457Y-97913419D01*
X122576014Y-97912727D01*
X122581273Y-97910807D01*
X122581278Y-97910806D01*
X122583359Y-97910046D01*
X122592762Y-97907135D01*
X122594802Y-97906613D01*
X122594810Y-97906610D01*
X122596521Y-97906172D01*
X122596526Y-97906172D01*
X122600180Y-97905237D01*
X122600372Y-97905986D01*
X122656997Y-97903246D01*
X122708177Y-97936776D01*
X122722606Y-97961253D01*
X122722977Y-97962159D01*
X122725826Y-97970055D01*
X122728829Y-97979637D01*
X122731658Y-97984469D01*
X122732783Y-97987010D01*
X122734258Y-97989704D01*
X122736363Y-97994845D01*
X122739556Y-97999385D01*
X122742176Y-98003110D01*
X122746628Y-98010035D01*
X122748376Y-98013020D01*
X122754917Y-98024191D01*
X122759701Y-98033448D01*
X122762565Y-98039787D01*
X122765954Y-98044242D01*
X122766507Y-98045170D01*
X122770755Y-98051512D01*
X122771495Y-98052502D01*
X122774302Y-98057296D01*
X122778103Y-98061344D01*
X122778104Y-98061345D01*
X122779122Y-98062429D01*
X122785742Y-98070255D01*
X122793731Y-98080756D01*
X122796069Y-98084333D01*
X122796128Y-98084291D01*
X122799386Y-98088849D01*
X122802106Y-98093739D01*
X122806137Y-98098211D01*
X122808984Y-98101370D01*
X122814236Y-98107708D01*
X122820353Y-98115748D01*
X122824613Y-98119309D01*
X122828451Y-98123327D01*
X122828408Y-98123368D01*
X122831482Y-98126330D01*
X122839478Y-98135199D01*
X122840612Y-98136457D01*
X122840834Y-98136727D01*
X122841822Y-98138424D01*
X122855364Y-98152852D01*
X122856639Y-98154239D01*
X122866032Y-98164659D01*
X122890949Y-98220541D01*
X122891468Y-98228533D01*
X122891646Y-98235842D01*
X122891414Y-98245427D01*
X122890383Y-98259585D01*
X122889352Y-98268328D01*
X122881548Y-98316080D01*
X122879664Y-98327610D01*
X122879509Y-98328531D01*
X122871075Y-98377250D01*
X122870059Y-98383117D01*
X122869802Y-98384539D01*
X122863132Y-98419949D01*
X122861868Y-98426658D01*
X122861421Y-98428885D01*
X122861170Y-98430065D01*
X122839830Y-98472896D01*
X122839230Y-98473229D01*
X122837501Y-98475676D01*
X122835607Y-98477416D01*
X122832537Y-98481886D01*
X122832293Y-98482197D01*
X122830986Y-98483703D01*
X122829498Y-98485717D01*
X122825717Y-98489788D01*
X122822936Y-98494598D01*
X122819634Y-98499067D01*
X122819235Y-98498772D01*
X122817509Y-98500950D01*
X122817667Y-98501056D01*
X122811450Y-98510310D01*
X122803331Y-98517948D01*
X122795115Y-98539299D01*
X122789172Y-98554742D01*
X122783302Y-98567294D01*
X122775823Y-98580744D01*
X122775267Y-98590165D01*
X122773518Y-98594576D01*
X122774309Y-98605693D01*
X122773026Y-98613996D01*
X122772679Y-98621391D01*
X122768827Y-98644559D01*
X122771340Y-98653176D01*
X122771341Y-98656726D01*
X122770450Y-98671833D01*
X122774685Y-98682146D01*
X122775266Y-98685631D01*
X122776333Y-98688995D01*
X122777257Y-98700102D01*
X122782906Y-98709711D01*
X122782907Y-98709713D01*
X122783696Y-98711055D01*
X122786404Y-98716285D01*
X122788385Y-98726082D01*
X122803450Y-98745978D01*
X122809856Y-98755550D01*
X122823503Y-98778762D01*
X122832149Y-98784560D01*
X122836605Y-98789829D01*
X122836740Y-98789942D01*
X122843468Y-98798828D01*
X122853385Y-98803917D01*
X122857598Y-98807455D01*
X122862731Y-98810985D01*
X122867540Y-98813653D01*
X122875843Y-98821097D01*
X122894848Y-98826610D01*
X122894746Y-98826962D01*
X122895584Y-98827104D01*
X122899286Y-98829586D01*
X122906784Y-98830659D01*
X122921172Y-98834305D01*
X122924379Y-98835176D01*
X122963478Y-98846517D01*
X122974468Y-98844673D01*
X122979316Y-98844955D01*
X122984294Y-98844562D01*
X122990148Y-98844615D01*
X122994965Y-98844777D01*
X123010179Y-98845659D01*
X123014489Y-98844936D01*
X123014954Y-98844923D01*
X123023905Y-98844923D01*
X123024797Y-98844927D01*
X123045554Y-98845114D01*
X123046377Y-98844935D01*
X123046446Y-98844931D01*
X123047191Y-98844931D01*
X123054139Y-98844935D01*
X123057768Y-98845193D01*
X123065117Y-98848010D01*
X123076224Y-98847091D01*
X123076226Y-98847091D01*
X123098345Y-98845260D01*
X123106510Y-98844923D01*
X123116634Y-98844923D01*
X123122059Y-98843685D01*
X123127573Y-98843064D01*
X123127581Y-98843138D01*
X123131728Y-98842497D01*
X123135918Y-98842150D01*
X123156053Y-98840484D01*
X123165668Y-98834836D01*
X123169017Y-98833775D01*
X123172181Y-98832252D01*
X123183050Y-98829773D01*
X123202132Y-98814567D01*
X123213676Y-98806635D01*
X123234730Y-98794268D01*
X123240942Y-98785013D01*
X123243500Y-98782604D01*
X123245697Y-98779852D01*
X123254411Y-98772908D01*
X123259252Y-98762871D01*
X123259254Y-98762869D01*
X123265012Y-98750931D01*
X123271979Y-98738770D01*
X123276465Y-98732086D01*
X123285581Y-98718503D01*
X123287164Y-98707472D01*
X123288496Y-98704006D01*
X123304672Y-98676865D01*
X123306537Y-98675128D01*
X123309678Y-98670489D01*
X123310581Y-98669434D01*
X123314657Y-98664141D01*
X123315544Y-98662858D01*
X123319197Y-98658672D01*
X123321828Y-98653776D01*
X123321829Y-98653775D01*
X123322646Y-98652255D01*
X123327868Y-98643623D01*
X123327926Y-98643537D01*
X123332627Y-98636594D01*
X123338878Y-98628454D01*
X123339332Y-98627792D01*
X123343002Y-98623560D01*
X123345628Y-98618617D01*
X123345632Y-98618611D01*
X123346165Y-98617607D01*
X123351617Y-98608547D01*
X123352177Y-98607720D01*
X123352179Y-98607717D01*
X123355294Y-98603116D01*
X123357308Y-98597938D01*
X123357616Y-98597350D01*
X123361930Y-98587934D01*
X123365509Y-98581197D01*
X123367758Y-98577611D01*
X123367684Y-98577569D01*
X123370459Y-98572710D01*
X123373769Y-98568189D01*
X123377872Y-98558645D01*
X123381398Y-98551291D01*
X123383588Y-98547168D01*
X123383589Y-98547166D01*
X123386194Y-98542262D01*
X123387644Y-98536901D01*
X123389684Y-98531737D01*
X123389751Y-98531764D01*
X123391142Y-98527770D01*
X123394510Y-98519934D01*
X123396198Y-98516007D01*
X123397853Y-98512430D01*
X123400698Y-98508027D01*
X123402605Y-98502767D01*
X123402607Y-98502762D01*
X123405478Y-98494841D01*
X123407597Y-98489488D01*
X123410864Y-98481886D01*
X123410866Y-98481880D01*
X123413060Y-98476775D01*
X123414005Y-98471629D01*
X123415264Y-98467840D01*
X123423197Y-98445955D01*
X123423414Y-98445429D01*
X123424710Y-98443305D01*
X123426481Y-98437995D01*
X123426484Y-98437987D01*
X123430377Y-98426312D01*
X123430500Y-98425993D01*
X123431464Y-98424343D01*
X123432832Y-98419957D01*
X123432835Y-98419949D01*
X123433469Y-98417916D01*
X123434899Y-98413670D01*
X123435990Y-98410660D01*
X123435991Y-98410657D01*
X123437885Y-98405430D01*
X123438191Y-98402962D01*
X123438353Y-98402397D01*
X123441554Y-98392798D01*
X123444155Y-98385000D01*
X123444341Y-98383099D01*
X123444426Y-98382776D01*
X123453220Y-98354572D01*
X123453942Y-98352500D01*
X123455941Y-98348675D01*
X123457358Y-98343253D01*
X123459920Y-98333448D01*
X123461192Y-98329004D01*
X123465826Y-98314145D01*
X123466162Y-98309846D01*
X123466653Y-98307679D01*
X123471151Y-98290464D01*
X123472207Y-98286724D01*
X123473718Y-98281747D01*
X123475937Y-98276613D01*
X123478052Y-98265111D01*
X123479634Y-98257997D01*
X123481146Y-98252211D01*
X123481147Y-98252201D01*
X123482551Y-98246830D01*
X123482725Y-98241280D01*
X123483509Y-98235850D01*
X123484125Y-98232097D01*
X123486144Y-98221118D01*
X123488434Y-98211882D01*
X123488700Y-98210509D01*
X123490377Y-98205166D01*
X123490939Y-98197986D01*
X123492270Y-98187809D01*
X123492345Y-98187402D01*
X123493541Y-98180901D01*
X123493305Y-98175349D01*
X123493391Y-98174126D01*
X123493563Y-98164480D01*
X123493684Y-98162943D01*
X123494636Y-98150792D01*
X123495869Y-98141159D01*
X123496296Y-98138762D01*
X123496296Y-98138759D01*
X123497279Y-98133244D01*
X123497001Y-98127649D01*
X123497167Y-98125027D01*
X123497210Y-98122004D01*
X123497113Y-98119157D01*
X123497547Y-98113620D01*
X123496738Y-98108119D01*
X123496364Y-98105573D01*
X123495432Y-98096087D01*
X123494662Y-98080613D01*
X123494628Y-98071517D01*
X123494771Y-98068132D01*
X123495007Y-98062541D01*
X123493985Y-98057041D01*
X123493738Y-98053563D01*
X123493133Y-98049860D01*
X123492857Y-98044310D01*
X123490399Y-98035565D01*
X123488375Y-98026878D01*
X123487648Y-98022964D01*
X123485799Y-98013020D01*
X123484418Y-98002443D01*
X123484343Y-98001462D01*
X123484342Y-98001457D01*
X123483917Y-97995870D01*
X123482251Y-97990523D01*
X123482138Y-97989931D01*
X123479962Y-97981147D01*
X123479732Y-97980392D01*
X123478716Y-97974928D01*
X123476074Y-97968817D01*
X123472420Y-97958962D01*
X123469427Y-97949352D01*
X123468368Y-97944888D01*
X123466855Y-97939568D01*
X123465941Y-97934048D01*
X123462310Y-97925217D01*
X123459356Y-97917023D01*
X123456570Y-97908077D01*
X123453782Y-97903276D01*
X123451674Y-97898480D01*
X123449534Y-97894139D01*
X123445052Y-97883239D01*
X123444365Y-97881391D01*
X123443506Y-97877336D01*
X123436750Y-97862785D01*
X123434982Y-97858743D01*
X123428945Y-97844061D01*
X123431334Y-97843078D01*
X123421663Y-97799216D01*
X123421739Y-97798157D01*
X123423843Y-97768584D01*
X123425185Y-97757928D01*
X123426148Y-97752628D01*
X123433554Y-97711839D01*
X123435411Y-97703619D01*
X123451937Y-97642676D01*
X123453662Y-97636994D01*
X123464482Y-97604860D01*
X123464485Y-97604852D01*
X123464585Y-97604688D01*
X123467828Y-97594996D01*
X123471660Y-97583540D01*
X123471722Y-97583354D01*
X123476534Y-97569063D01*
X123476800Y-97568360D01*
X123478485Y-97565360D01*
X123483334Y-97548860D01*
X123484431Y-97545369D01*
X123488061Y-97534519D01*
X123488063Y-97534511D01*
X123489823Y-97529249D01*
X123489975Y-97527714D01*
X123490768Y-97525009D01*
X123491516Y-97523551D01*
X123492756Y-97518653D01*
X123506433Y-97493926D01*
X123508628Y-97491043D01*
X123508634Y-97491039D01*
X123510009Y-97492085D01*
X123516992Y-97480937D01*
X123529070Y-97468809D01*
X123529070Y-97468808D01*
X123536937Y-97460909D01*
X123541990Y-97446381D01*
X123544927Y-97437939D01*
X123546694Y-97433753D01*
X123547181Y-97433004D01*
X123548299Y-97429950D01*
X123548307Y-97429930D01*
X123551204Y-97422013D01*
X123553959Y-97415266D01*
X123556858Y-97408850D01*
X123556859Y-97408847D01*
X123558705Y-97404763D01*
X123559020Y-97403212D01*
X123560724Y-97399666D01*
X123561958Y-97394200D01*
X123562905Y-97391478D01*
X123563560Y-97389255D01*
X123564293Y-97386241D01*
X123566201Y-97381028D01*
X123567246Y-97372813D01*
X123568878Y-97363540D01*
X123569937Y-97358847D01*
X123571704Y-97352130D01*
X123573611Y-97345796D01*
X123575225Y-97340434D01*
X123575596Y-97334842D01*
X123575830Y-97333553D01*
X123576006Y-97331957D01*
X123577229Y-97326540D01*
X123577201Y-97314211D01*
X123577419Y-97307426D01*
X123577958Y-97299309D01*
X123579298Y-97288631D01*
X123579328Y-97288201D01*
X123580350Y-97282696D01*
X123580076Y-97276263D01*
X123580205Y-97265505D01*
X123580251Y-97264814D01*
X123580251Y-97264808D01*
X123580619Y-97259266D01*
X123579745Y-97253779D01*
X123579732Y-97253491D01*
X123578647Y-97242696D01*
X123578492Y-97239058D01*
X123578662Y-97228202D01*
X123578648Y-97227853D01*
X123579063Y-97222261D01*
X123578100Y-97215978D01*
X123577051Y-97205225D01*
X123576788Y-97199049D01*
X123575321Y-97193683D01*
X123575289Y-97193477D01*
X123573013Y-97182769D01*
X123572435Y-97178997D01*
X123571410Y-97168773D01*
X123571335Y-97167206D01*
X123571335Y-97167204D01*
X123571066Y-97161609D01*
X123569550Y-97156215D01*
X123569335Y-97154893D01*
X123567904Y-97148275D01*
X123567501Y-97146785D01*
X123566659Y-97141289D01*
X123564615Y-97136115D01*
X123564501Y-97135695D01*
X123559803Y-97119976D01*
X123558971Y-97115968D01*
X123557833Y-97110484D01*
X123555496Y-97105397D01*
X123555127Y-97104274D01*
X123554548Y-97102850D01*
X123553043Y-97097496D01*
X123547089Y-97086555D01*
X123544091Y-97080572D01*
X123524879Y-97038749D01*
X123523231Y-97035163D01*
X123521234Y-97030502D01*
X123517717Y-97021679D01*
X123515644Y-97016478D01*
X123512754Y-97012302D01*
X123512627Y-97012077D01*
X123510581Y-97007625D01*
X123501338Y-96995589D01*
X123498447Y-96991625D01*
X123469088Y-96949198D01*
X123465734Y-96944014D01*
X123465158Y-96943059D01*
X123458800Y-96932522D01*
X123454931Y-96928524D01*
X123454514Y-96927952D01*
X123453992Y-96927385D01*
X123450904Y-96922922D01*
X123440934Y-96913797D01*
X123436643Y-96909625D01*
X123402032Y-96873857D01*
X123397043Y-96868293D01*
X123393321Y-96863813D01*
X123393320Y-96863812D01*
X123389743Y-96859507D01*
X123385291Y-96856112D01*
X123383974Y-96854849D01*
X123382316Y-96853481D01*
X123378449Y-96849485D01*
X123373794Y-96846451D01*
X123373790Y-96846448D01*
X123368790Y-96843189D01*
X123362818Y-96838975D01*
X123324283Y-96809590D01*
X123317530Y-96803948D01*
X123314711Y-96801371D01*
X123314708Y-96801369D01*
X123310577Y-96797593D01*
X123305701Y-96794836D01*
X123303112Y-96792959D01*
X123300144Y-96791182D01*
X123295724Y-96787812D01*
X123290668Y-96785510D01*
X123287064Y-96783869D01*
X123279370Y-96779952D01*
X123237579Y-96756329D01*
X123229127Y-96750970D01*
X123227499Y-96749818D01*
X123227492Y-96749814D01*
X123222927Y-96746585D01*
X123217750Y-96744459D01*
X123216056Y-96743528D01*
X123211525Y-96741328D01*
X123209570Y-96740496D01*
X123204733Y-96737762D01*
X123197361Y-96735561D01*
X123188096Y-96732284D01*
X123143270Y-96713879D01*
X123133317Y-96709127D01*
X123132934Y-96708917D01*
X123132931Y-96708916D01*
X123128018Y-96706225D01*
X123122627Y-96704704D01*
X123122601Y-96704693D01*
X123112241Y-96701118D01*
X123112079Y-96701072D01*
X123106938Y-96698961D01*
X123101460Y-96698047D01*
X123101457Y-96698046D01*
X123100892Y-96697952D01*
X123090302Y-96695581D01*
X123066656Y-96688909D01*
X123042407Y-96682065D01*
X123032881Y-96678749D01*
X123031972Y-96678486D01*
X123026803Y-96676331D01*
X123020050Y-96675179D01*
X123009824Y-96672871D01*
X123003397Y-96671057D01*
X122997845Y-96670775D01*
X122997085Y-96670650D01*
X122986927Y-96669529D01*
X122937652Y-96661124D01*
X122933305Y-96660068D01*
X122933303Y-96660078D01*
X122927816Y-96658996D01*
X122922473Y-96657299D01*
X122913698Y-96656582D01*
X122912848Y-96656512D01*
X122904275Y-96655432D01*
X122894924Y-96653837D01*
X122889381Y-96654144D01*
X122883882Y-96653831D01*
X122879349Y-96653772D01*
X122850559Y-96651418D01*
X122846620Y-96650987D01*
X122841525Y-96649690D01*
X122833006Y-96649492D01*
X122827541Y-96649365D01*
X122821776Y-96649063D01*
X122813541Y-96648390D01*
X122808000Y-96647937D01*
X122802805Y-96648684D01*
X122798770Y-96648698D01*
X122790261Y-96648501D01*
X122786063Y-96648404D01*
X122782919Y-96648237D01*
X122778129Y-96647288D01*
X122772530Y-96647458D01*
X122772526Y-96647458D01*
X122763421Y-96647735D01*
X122758122Y-96647754D01*
X122751416Y-96647599D01*
X122743603Y-96647418D01*
X122738824Y-96648392D01*
X122735647Y-96648581D01*
X122729229Y-96648777D01*
X122725219Y-96648899D01*
X122721006Y-96648915D01*
X122715707Y-96648190D01*
X122701949Y-96649432D01*
X122696065Y-96649787D01*
X122682440Y-96650202D01*
X122677272Y-96651548D01*
X122673017Y-96652045D01*
X122670923Y-96652234D01*
X122661821Y-96653056D01*
X122658405Y-96653265D01*
X122653396Y-96652861D01*
X122647853Y-96653673D01*
X122647852Y-96653673D01*
X122646194Y-96653916D01*
X122639106Y-96654954D01*
X122633673Y-96655597D01*
X122631150Y-96655825D01*
X122624993Y-96656381D01*
X122624990Y-96656382D01*
X122619459Y-96656881D01*
X122614688Y-96658432D01*
X122611277Y-96659031D01*
X122595694Y-96661314D01*
X122593837Y-96661521D01*
X122589766Y-96661371D01*
X122584263Y-96662425D01*
X122584262Y-96662425D01*
X122573860Y-96664417D01*
X122569590Y-96665138D01*
X122553774Y-96667455D01*
X122549981Y-96668925D01*
X122548136Y-96669344D01*
X122526150Y-96673555D01*
X122525544Y-96673644D01*
X122522984Y-96673618D01*
X122517522Y-96674816D01*
X122517519Y-96674816D01*
X122504656Y-96677636D01*
X122502075Y-96678166D01*
X122483857Y-96681655D01*
X122481516Y-96682683D01*
X122480910Y-96682843D01*
X122473870Y-96684386D01*
X122473846Y-96684390D01*
X122473387Y-96684387D01*
X122472111Y-96684673D01*
X122451850Y-96689213D01*
X122451405Y-96689312D01*
X122430096Y-96693984D01*
X122429672Y-96694183D01*
X122429658Y-96694187D01*
X122395281Y-96701892D01*
X122394204Y-96702126D01*
X122351195Y-96711213D01*
X122349176Y-96711617D01*
X122316877Y-96717717D01*
X122313695Y-96718264D01*
X122299053Y-96720532D01*
X122290077Y-96721922D01*
X122285806Y-96722488D01*
X122267682Y-96724492D01*
X122262950Y-96724901D01*
X122245706Y-96725974D01*
X122241497Y-96726146D01*
X122231008Y-96726351D01*
X122219983Y-96726567D01*
X122217264Y-96726583D01*
X122201344Y-96726451D01*
X122193070Y-96726383D01*
X122192729Y-96726379D01*
X122184636Y-96726284D01*
X122180015Y-96726230D01*
X122179380Y-96726195D01*
X122176851Y-96725654D01*
X122170263Y-96725754D01*
X122158135Y-96725938D01*
X122155468Y-96725942D01*
X122142377Y-96725788D01*
X122142380Y-96725522D01*
X122141455Y-96725644D01*
X122139057Y-96725270D01*
X122133483Y-96725667D01*
X122133481Y-96725667D01*
X122127335Y-96726105D01*
X122124738Y-96726290D01*
X122119206Y-96726529D01*
X122105025Y-96726744D01*
X122103926Y-96727012D01*
X122101604Y-96726819D01*
X122089745Y-96728527D01*
X122082692Y-96729284D01*
X122081017Y-96729404D01*
X122076459Y-96729728D01*
X122076455Y-96729729D01*
X122070921Y-96730123D01*
X122068491Y-96730862D01*
X122066856Y-96730823D01*
X122061380Y-96731944D01*
X122060000Y-96732067D01*
X122000359Y-96718406D01*
X121960139Y-96672298D01*
X121955825Y-96659995D01*
X121952461Y-96647904D01*
X121952094Y-96646548D01*
X121947793Y-96630194D01*
X121947791Y-96630188D01*
X121946889Y-96626758D01*
X121946243Y-96625520D01*
X121946189Y-96625357D01*
X121944222Y-96618289D01*
X121944166Y-96618044D01*
X121944063Y-96616387D01*
X121938325Y-96597040D01*
X121937862Y-96595426D01*
X121933598Y-96580101D01*
X121933596Y-96580096D01*
X121932497Y-96576145D01*
X121931706Y-96574680D01*
X121931625Y-96574450D01*
X121931221Y-96573087D01*
X121931181Y-96572924D01*
X121931077Y-96571561D01*
X121930038Y-96568230D01*
X121930036Y-96568220D01*
X121924938Y-96551870D01*
X121924536Y-96550549D01*
X121919470Y-96533468D01*
X121919469Y-96533466D01*
X121918710Y-96530906D01*
X121918222Y-96530040D01*
X121918142Y-96529820D01*
X121914886Y-96519207D01*
X121914230Y-96516974D01*
X121909352Y-96499630D01*
X121908400Y-96495980D01*
X121905363Y-96483325D01*
X121904425Y-96478983D01*
X121901813Y-96465419D01*
X121901156Y-96461605D01*
X121898117Y-96441651D01*
X121897759Y-96439074D01*
X121897214Y-96434727D01*
X121894006Y-96409172D01*
X121893842Y-96407792D01*
X121892665Y-96397216D01*
X121889755Y-96371057D01*
X121889732Y-96370634D01*
X121889729Y-96370634D01*
X121887302Y-96348302D01*
X121884928Y-96326029D01*
X121884861Y-96325834D01*
X121882982Y-96308533D01*
X121882978Y-96308476D01*
X121883072Y-96307619D01*
X121880563Y-96286249D01*
X121880485Y-96285560D01*
X121878431Y-96266654D01*
X121878431Y-96266652D01*
X121878181Y-96264354D01*
X121877902Y-96263546D01*
X121877888Y-96263464D01*
X121876987Y-96255787D01*
X121876973Y-96255578D01*
X121877114Y-96254071D01*
X121874417Y-96233803D01*
X121874228Y-96232295D01*
X121871870Y-96212210D01*
X121871983Y-96212197D01*
X121871443Y-96208280D01*
X121871476Y-96207802D01*
X121868498Y-96189076D01*
X121868141Y-96186631D01*
X121865668Y-96168050D01*
X121865732Y-96168041D01*
X121865626Y-96167402D01*
X121865653Y-96166459D01*
X121862364Y-96150009D01*
X121861672Y-96146153D01*
X121859556Y-96132853D01*
X121859552Y-96132834D01*
X121859056Y-96129716D01*
X121858981Y-96129530D01*
X121858936Y-96127936D01*
X121855358Y-96114174D01*
X121854101Y-96108699D01*
X121852438Y-96100382D01*
X121852437Y-96100379D01*
X121851348Y-96094933D01*
X121850797Y-96093704D01*
X121850546Y-96091217D01*
X121846718Y-96079911D01*
X121844675Y-96073076D01*
X121843117Y-96067081D01*
X121843117Y-96067080D01*
X121841718Y-96061700D01*
X121840680Y-96059700D01*
X121840229Y-96057169D01*
X121838037Y-96052020D01*
X121838034Y-96052010D01*
X121835774Y-96046702D01*
X121833099Y-96039692D01*
X121829512Y-96029099D01*
X121827578Y-96025950D01*
X121825421Y-96021468D01*
X121824888Y-96020245D01*
X121823965Y-96016782D01*
X121821158Y-96011476D01*
X121817578Y-96003961D01*
X121817189Y-96003047D01*
X121815012Y-95997933D01*
X121812512Y-95994480D01*
X121811520Y-95992581D01*
X121808444Y-95986191D01*
X121808442Y-95986188D01*
X121806994Y-95983179D01*
X121806252Y-95982248D01*
X121805720Y-95981195D01*
X121803773Y-95975942D01*
X121799042Y-95968736D01*
X121794293Y-95960701D01*
X121792950Y-95958163D01*
X121790352Y-95953252D01*
X121786725Y-95949040D01*
X121784787Y-95946199D01*
X121780468Y-95939069D01*
X121779822Y-95938133D01*
X121777185Y-95933194D01*
X121773508Y-95928972D01*
X121771614Y-95926225D01*
X121769311Y-95923452D01*
X121766260Y-95918805D01*
X121761631Y-95914356D01*
X121750916Y-95901914D01*
X121749690Y-95900543D01*
X121746450Y-95895974D01*
X121742267Y-95892246D01*
X121740768Y-95890570D01*
X121737881Y-95887650D01*
X121736070Y-95885990D01*
X121732417Y-95881795D01*
X121727925Y-95878520D01*
X121726806Y-95877494D01*
X121719042Y-95871024D01*
X121715475Y-95866775D01*
X121711009Y-95863404D01*
X121711006Y-95863402D01*
X121707068Y-95860430D01*
X121700830Y-95855311D01*
X121697259Y-95852128D01*
X121697258Y-95852128D01*
X121693111Y-95848431D01*
X121688241Y-95845747D01*
X121686746Y-95844689D01*
X121684884Y-95843217D01*
X121683682Y-95841890D01*
X121679642Y-95839074D01*
X121679635Y-95839068D01*
X121669665Y-95832117D01*
X121666653Y-95829932D01*
X121657577Y-95823084D01*
X121657576Y-95823083D01*
X121653140Y-95819736D01*
X121649908Y-95818284D01*
X121648784Y-95817561D01*
X121638081Y-95810099D01*
X121636660Y-95809090D01*
X121613900Y-95792619D01*
X121610710Y-95790211D01*
X121588992Y-95773117D01*
X121586023Y-95770685D01*
X121567903Y-95755249D01*
X121564460Y-95752175D01*
X121553957Y-95742347D01*
X121553928Y-95742320D01*
X121551173Y-95739740D01*
X121547898Y-95736527D01*
X121546798Y-95735397D01*
X121543370Y-95730969D01*
X121533485Y-95722878D01*
X121528550Y-95718556D01*
X121519352Y-95709942D01*
X121517597Y-95708917D01*
X121516915Y-95708326D01*
X121512653Y-95704913D01*
X121508708Y-95700947D01*
X121507654Y-95700283D01*
X121504584Y-95697306D01*
X121501416Y-95694945D01*
X121494184Y-95686463D01*
X121483990Y-95681956D01*
X121480577Y-95680447D01*
X121477912Y-95679091D01*
X121471135Y-95672789D01*
X121450218Y-95666305D01*
X121439528Y-95662300D01*
X121431717Y-95658847D01*
X121431341Y-95658775D01*
X121431125Y-95658667D01*
X121430757Y-95658662D01*
X121426141Y-95657773D01*
X121420824Y-95656113D01*
X121421061Y-95655355D01*
X121417140Y-95654955D01*
X121404588Y-95650545D01*
X121404584Y-95650544D01*
X121394845Y-95647122D01*
X121390054Y-95647654D01*
X121383979Y-95645771D01*
X121373669Y-95647307D01*
X121373128Y-95647138D01*
X121372687Y-95647088D01*
X121372697Y-95647004D01*
X121349207Y-95639662D01*
X121348732Y-95641172D01*
X121340467Y-95638575D01*
X121323067Y-95631131D01*
X121322719Y-95631031D01*
X121312958Y-95625647D01*
X121305618Y-95625239D01*
X121299532Y-95624369D01*
X121299339Y-95624314D01*
X121294454Y-95623205D01*
X121294408Y-95623442D01*
X121288915Y-95622377D01*
X121283571Y-95620698D01*
X121277990Y-95620259D01*
X121277988Y-95620259D01*
X121274258Y-95619966D01*
X121273581Y-95619913D01*
X121265286Y-95618907D01*
X121232673Y-95613546D01*
X121225900Y-95615535D01*
X121218136Y-95614065D01*
X121207365Y-95616947D01*
X121207362Y-95616947D01*
X121192960Y-95620800D01*
X121190799Y-95621304D01*
X121186494Y-95621667D01*
X121181199Y-95623354D01*
X121175962Y-95624395D01*
X121169369Y-95625918D01*
X121168510Y-95626207D01*
X121165647Y-95626627D01*
X121164058Y-95627701D01*
X121162819Y-95628117D01*
X121151725Y-95629226D01*
X121142209Y-95635037D01*
X121134431Y-95637648D01*
X121132208Y-95638958D01*
X121121585Y-95642342D01*
X121113480Y-95649999D01*
X121113367Y-95650065D01*
X121105310Y-95656555D01*
X121103418Y-95657558D01*
X121099320Y-95661092D01*
X121095623Y-95663481D01*
X121073848Y-95676778D01*
X121067794Y-95686140D01*
X121063682Y-95690146D01*
X121060277Y-95694769D01*
X121051834Y-95702052D01*
X121047385Y-95712275D01*
X121047384Y-95712276D01*
X121041773Y-95725167D01*
X121039769Y-95729473D01*
X121036758Y-95734128D01*
X121034846Y-95739397D01*
X121033620Y-95741866D01*
X121027900Y-95751872D01*
X121021022Y-95762428D01*
X121019098Y-95777267D01*
X121018473Y-95777186D01*
X121018473Y-95778702D01*
X121015420Y-95785718D01*
X121015844Y-95796860D01*
X121015916Y-95798757D01*
X121015377Y-95805870D01*
X121015160Y-95807615D01*
X121013614Y-95811138D01*
X121013846Y-95817772D01*
X121012240Y-95830160D01*
X121012290Y-95830670D01*
X121012288Y-95830699D01*
X121010769Y-95842908D01*
X121010769Y-95842911D01*
X121009393Y-95853972D01*
X121012950Y-95864537D01*
X121014069Y-95875628D01*
X121010852Y-95875952D01*
X121011312Y-95918905D01*
X120995046Y-95946218D01*
X120995725Y-95946631D01*
X120976425Y-95978361D01*
X120973338Y-95983123D01*
X120968618Y-95989966D01*
X120968616Y-95989969D01*
X120965460Y-95994545D01*
X120963552Y-95999328D01*
X120963220Y-95999910D01*
X120962981Y-96000464D01*
X120960233Y-96004982D01*
X120958469Y-96010298D01*
X120957444Y-96013385D01*
X120953459Y-96021423D01*
X120953574Y-96021468D01*
X120949481Y-96031835D01*
X120943183Y-96041036D01*
X120941498Y-96052056D01*
X120937404Y-96062427D01*
X120934380Y-96061233D01*
X120915100Y-96099571D01*
X120907209Y-96106708D01*
X120907096Y-96106822D01*
X120902736Y-96110347D01*
X120900450Y-96113263D01*
X120897793Y-96115575D01*
X120894516Y-96120066D01*
X120894294Y-96120308D01*
X120885079Y-96129131D01*
X120883137Y-96130764D01*
X120883135Y-96130766D01*
X120874602Y-96137943D01*
X120863537Y-96162523D01*
X120857640Y-96170605D01*
X120856274Y-96178039D01*
X120855625Y-96178778D01*
X120856096Y-96179000D01*
X120852107Y-96187457D01*
X120849391Y-96192397D01*
X120848773Y-96194142D01*
X120842809Y-96203554D01*
X120842247Y-96208365D01*
X120837895Y-96217593D01*
X120837982Y-96228738D01*
X120837982Y-96228740D01*
X120838012Y-96232513D01*
X120836920Y-96244031D01*
X120837185Y-96244054D01*
X120836714Y-96249593D01*
X120835627Y-96255040D01*
X120835778Y-96260596D01*
X120835543Y-96263364D01*
X120835535Y-96265834D01*
X120834886Y-96271392D01*
X120200000Y-96271392D01*
X120200000Y-87005877D01*
X120200035Y-86965700D01*
X120200045Y-86954551D01*
X120194815Y-86943659D01*
X120187537Y-86922817D01*
X120187330Y-86921907D01*
X120187328Y-86921904D01*
X120184850Y-86911038D01*
X120177480Y-86901789D01*
X120165666Y-86882954D01*
X120165375Y-86882347D01*
X120165372Y-86882343D01*
X120160547Y-86872295D01*
X120151107Y-86864746D01*
X120135516Y-86849128D01*
X120127985Y-86839677D01*
X120117337Y-86834541D01*
X120098522Y-86822692D01*
X120097995Y-86822270D01*
X120097990Y-86822268D01*
X120089285Y-86815306D01*
X120077508Y-86812598D01*
X120056682Y-86805285D01*
X120055836Y-86804877D01*
X120045798Y-86800035D01*
X120033982Y-86800025D01*
X120011880Y-86797506D01*
X120011226Y-86797356D01*
X120011225Y-86797356D01*
X120000358Y-86794857D01*
X119989483Y-86797318D01*
X119978337Y-86797298D01*
X119978338Y-86796985D01*
X119968388Y-86797739D01*
X119750888Y-86782184D01*
X119736912Y-86780173D01*
X119499800Y-86728592D01*
X119486253Y-86724615D01*
X119396890Y-86691284D01*
X119258887Y-86639812D01*
X119246038Y-86633944D01*
X119033062Y-86517649D01*
X119021180Y-86510013D01*
X118826923Y-86364595D01*
X118816247Y-86355345D01*
X118644655Y-86183753D01*
X118635405Y-86173077D01*
X118489987Y-85978820D01*
X118482351Y-85966938D01*
X118366056Y-85753962D01*
X118360188Y-85741113D01*
X118275386Y-85513750D01*
X118271407Y-85500197D01*
X118219827Y-85263091D01*
X118217816Y-85249109D01*
X118200505Y-85007062D01*
X118200505Y-84992938D01*
X118217816Y-84750891D01*
X118219827Y-84736909D01*
X118271407Y-84499803D01*
X118275386Y-84486250D01*
X118360188Y-84258887D01*
X118366056Y-84246038D01*
X118482351Y-84033062D01*
X118489987Y-84021180D01*
X118635405Y-83826923D01*
X118644655Y-83816247D01*
X118816247Y-83644655D01*
X118826923Y-83635405D01*
X119021180Y-83489987D01*
X119033062Y-83482351D01*
X119246038Y-83366056D01*
X119258887Y-83360188D01*
X119396890Y-83308716D01*
X119486253Y-83275385D01*
X119499800Y-83271408D01*
X119736912Y-83219827D01*
X119750888Y-83217816D01*
X119967873Y-83202298D01*
X119977628Y-83203054D01*
X119977629Y-83202626D01*
X119988779Y-83202645D01*
X119999642Y-83205143D01*
X120010514Y-83202683D01*
X120010515Y-83202683D01*
X120011583Y-83202441D01*
X120033432Y-83200000D01*
X124966040Y-83200000D01*
X124988227Y-83202518D01*
G37*
%TD.AperFunction*%
%TD*%
M02*
