%TF.GenerationSoftware,KiCad,Pcbnew,6.0.9+dfsg-1~bpo11+1*%
%TF.CreationDate,2022-11-11T15:11:50+01:00*%
%TF.ProjectId,012-prototype-board,3031322d-7072-46f7-946f-747970652d62,1*%
%TF.SameCoordinates,Original*%
%TF.FileFunction,Copper,L1,Top*%
%TF.FilePolarity,Positive*%
%FSLAX46Y46*%
G04 Gerber Fmt 4.6, Leading zero omitted, Abs format (unit mm)*
G04 Created by KiCad (PCBNEW 6.0.9+dfsg-1~bpo11+1) date 2022-11-11 15:11:50*
%MOMM*%
%LPD*%
G01*
G04 APERTURE LIST*
%TA.AperFunction,SMDPad,CuDef*%
%ADD10R,1.500000X1.500000*%
%TD*%
%TA.AperFunction,SMDPad,CuDef*%
%ADD11R,3.000000X0.800000*%
%TD*%
%TA.AperFunction,ComponentPad*%
%ADD12C,0.800000*%
%TD*%
%TA.AperFunction,SMDPad,CuDef*%
%ADD13R,3.000000X2.000000*%
%TD*%
%TA.AperFunction,ComponentPad*%
%ADD14C,3.400000*%
%TD*%
%TA.AperFunction,ComponentPad*%
%ADD15C,1.400000*%
%TD*%
%TA.AperFunction,SMDPad,CuDef*%
%ADD16R,0.800000X3.000000*%
%TD*%
%TA.AperFunction,SMDPad,CuDef*%
%ADD17R,2.000000X3.000000*%
%TD*%
%TA.AperFunction,ViaPad*%
%ADD18C,0.800000*%
%TD*%
%TA.AperFunction,Conductor*%
%ADD19C,0.800000*%
%TD*%
G04 APERTURE END LIST*
D10*
%TO.P,REF\u002A\u002A,1*%
%TO.N,N/C*%
X156200000Y-90700000D03*
%TD*%
%TO.P,REF\u002A\u002A,1*%
%TO.N,N/C*%
X156200000Y-88800000D03*
%TD*%
%TO.P,REF\u002A\u002A,1*%
%TO.N,GND*%
X157100000Y-83100000D03*
%TD*%
%TO.P,REF\u002A\u002A,1*%
%TO.N,N/C*%
X159000000Y-83100000D03*
%TD*%
%TO.P,REF\u002A\u002A,1*%
%TO.N,N/C*%
X164700000Y-83100000D03*
%TD*%
%TO.P,REF\u002A\u002A,1*%
%TO.N,N/C*%
X160900000Y-83100000D03*
%TD*%
%TO.P,REF\u002A\u002A,1*%
%TO.N,N/C*%
X161900000Y-79300000D03*
%TD*%
%TO.P,REF\u002A\u002A,1*%
%TO.N,N/C*%
X158100000Y-85000000D03*
%TD*%
%TO.P,REF\u002A\u002A,1*%
%TO.N,N/C*%
X165700000Y-88800000D03*
%TD*%
%TO.P,REF\u002A\u002A,1*%
%TO.N,N/C*%
X163800000Y-79300000D03*
%TD*%
%TO.P,REF\u002A\u002A,1*%
%TO.N,N/C*%
X165700000Y-81200000D03*
%TD*%
%TO.P,REF\u002A\u002A,1*%
%TO.N,N/C*%
X155200000Y-86900000D03*
%TD*%
%TO.P,REF\u002A\u002A,1*%
%TO.N,N/C*%
X159000000Y-86900000D03*
%TD*%
%TO.P,REF\u002A\u002A,1*%
%TO.N,N/C*%
X154300000Y-81200000D03*
%TD*%
%TO.P,REF\u002A\u002A,1*%
%TO.N,N/C*%
X161900000Y-88800000D03*
%TD*%
%TO.P,REF\u002A\u002A,1*%
%TO.N,N/C*%
X163800000Y-85000000D03*
%TD*%
%TO.P,REF\u002A\u002A,1*%
%TO.N,N/C*%
X156200000Y-85000000D03*
%TD*%
%TO.P,REF\u002A\u002A,1*%
%TO.N,N/C*%
X158100000Y-90700000D03*
%TD*%
%TO.P,REF\u002A\u002A,1*%
%TO.N,N/C*%
X158100000Y-88800000D03*
%TD*%
%TO.P,REF\u002A\u002A,1*%
%TO.N,N/C*%
X158100000Y-81200000D03*
%TD*%
%TO.P,REF\u002A\u002A,1*%
%TO.N,N/C*%
X165700000Y-85000000D03*
%TD*%
%TO.P,REF\u002A\u002A,1*%
%TO.N,N/C*%
X158100000Y-79300000D03*
%TD*%
%TO.P,REF\u002A\u002A,1*%
%TO.N,N/C*%
X164700000Y-86900000D03*
%TD*%
%TO.P,REF\u002A\u002A,1*%
%TO.N,N/C*%
X156200000Y-81200000D03*
%TD*%
%TO.P,REF\u002A\u002A,1*%
%TO.N,GND*%
X160000000Y-79300000D03*
%TD*%
D11*
%TO.P,J2,1,Pin_1*%
%TO.N,N/C*%
X168500000Y-85000000D03*
D12*
%TO.P,J2,2,Pin_2*%
%TO.N,GND*%
X168000000Y-83500000D03*
X168000000Y-86500000D03*
X169500000Y-86000000D03*
D13*
X168500000Y-83400000D03*
D12*
X167500000Y-86000000D03*
X169000000Y-86500000D03*
X169000000Y-83500000D03*
X169500000Y-84000000D03*
X168500000Y-84000000D03*
X168500000Y-86000000D03*
D13*
X168500000Y-86600000D03*
D12*
X167500000Y-84000000D03*
%TD*%
D14*
%TO.P,H1,1,1*%
%TO.N,GND*%
X152500000Y-77500000D03*
%TD*%
D10*
%TO.P,REF\u002A\u002A,1*%
%TO.N,N/C*%
X154300000Y-88800000D03*
%TD*%
D14*
%TO.P,H2,1,1*%
%TO.N,GND*%
X152500000Y-92500000D03*
%TD*%
D10*
%TO.P,REF\u002A\u002A,1*%
%TO.N,N/C*%
X161900000Y-85000000D03*
%TD*%
D14*
%TO.P,H4,1,1*%
%TO.N,GND*%
X167500000Y-77500000D03*
%TD*%
D10*
%TO.P,REF\u002A\u002A,1*%
%TO.N,N/C*%
X161900000Y-81200000D03*
%TD*%
%TO.P,REF\u002A\u002A,1*%
%TO.N,N/C*%
X155200000Y-83100000D03*
%TD*%
%TO.P,REF\u002A\u002A,1*%
%TO.N,GND*%
X162800000Y-83100000D03*
%TD*%
%TO.P,REF\u002A\u002A,1*%
%TO.N,N/C*%
X161900000Y-90700000D03*
%TD*%
%TO.P,REF\u002A\u002A,1*%
%TO.N,N/C*%
X160000000Y-85000000D03*
%TD*%
%TO.P,REF\u002A\u002A,1*%
%TO.N,N/C*%
X163800000Y-90700000D03*
%TD*%
D15*
%TO.P,REF\u002A\u002A,1*%
%TO.N,N/C*%
X157500000Y-77500000D03*
%TD*%
D10*
%TO.P,REF\u002A\u002A,1*%
%TO.N,N/C*%
X160000000Y-90700000D03*
%TD*%
D11*
%TO.P,J2,1,Pin_1*%
%TO.N,N/C*%
X151500000Y-85000000D03*
D12*
%TO.P,J2,2,Pin_2*%
%TO.N,GND*%
X151000000Y-83500000D03*
X152000000Y-83500000D03*
X151500000Y-84000000D03*
X151500000Y-86000000D03*
X152000000Y-86500000D03*
X152500000Y-84000000D03*
X152500000Y-86000000D03*
X150500000Y-86000000D03*
D13*
X151500000Y-83400000D03*
X151500000Y-86600000D03*
D12*
X151000000Y-86500000D03*
X150500000Y-84000000D03*
%TD*%
D10*
%TO.P,REF\u002A\u002A,1*%
%TO.N,N/C*%
X160900000Y-86900000D03*
%TD*%
D14*
%TO.P,H3,1,1*%
%TO.N,GND*%
X167500000Y-92500000D03*
%TD*%
D10*
%TO.P,REF\u002A\u002A,1*%
%TO.N,N/C*%
X154300000Y-85000000D03*
%TD*%
%TO.P,REF\u002A\u002A,1*%
%TO.N,N/C*%
X163800000Y-81200000D03*
%TD*%
%TO.P,REF\u002A\u002A,1*%
%TO.N,N/C*%
X160000000Y-81200000D03*
%TD*%
%TO.P,REF\u002A\u002A,1*%
%TO.N,GND*%
X162800000Y-86900000D03*
%TD*%
%TO.P,REF\u002A\u002A,1*%
%TO.N,N/C*%
X163800000Y-88800000D03*
%TD*%
%TO.P,REF\u002A\u002A,1*%
%TO.N,GND*%
X157100000Y-86900000D03*
%TD*%
%TO.P,REF\u002A\u002A,1*%
%TO.N,N/C*%
X160000000Y-88800000D03*
%TD*%
D16*
%TO.P,J1,1,Pin_1*%
%TO.N,N/C*%
X160000000Y-93500000D03*
D12*
%TO.P,J1,2,Pin_2*%
%TO.N,GND*%
X158500000Y-93000000D03*
D17*
X161600000Y-93500000D03*
D12*
X161500000Y-93000000D03*
X161000000Y-92500000D03*
X159000000Y-93500000D03*
X161000000Y-93500000D03*
X161000000Y-94500000D03*
X158500000Y-94000000D03*
X159000000Y-92500000D03*
D17*
X158400000Y-93500000D03*
D12*
X159000000Y-94500000D03*
X161500000Y-94000000D03*
%TD*%
D10*
%TO.P,REF\u002A\u002A,1*%
%TO.N,N/C*%
X156200000Y-79300000D03*
%TD*%
D18*
%TO.N,GND*%
X157100000Y-86900000D03*
X157100000Y-83100000D03*
X162800000Y-83100000D03*
X162800000Y-86900000D03*
X160000000Y-79300000D03*
%TD*%
D19*
%TO.N,*%
X151500000Y-85000000D02*
X154300000Y-85000000D01*
X160000000Y-93500000D02*
X160000000Y-90700000D01*
X158100000Y-78100000D02*
X157500000Y-77500000D01*
X168500000Y-85000000D02*
X165700000Y-85000000D01*
X158100000Y-79300000D02*
X158100000Y-78100000D01*
%TD*%
%TA.AperFunction,Conductor*%
%TO.N,GND*%
G36*
X153308691Y-85619407D02*
G01*
X153344655Y-85668907D01*
X153349500Y-85699500D01*
X153349500Y-85769748D01*
X153361133Y-85828231D01*
X153405448Y-85894552D01*
X153471769Y-85938867D01*
X153481332Y-85940769D01*
X153481334Y-85940770D01*
X153504005Y-85945279D01*
X153530252Y-85950500D01*
X154165259Y-85950500D01*
X154223450Y-85969407D01*
X154259414Y-86018907D01*
X154259414Y-86071427D01*
X154261133Y-86071769D01*
X154249500Y-86130252D01*
X154249500Y-87669748D01*
X154250448Y-87674512D01*
X154261133Y-87728231D01*
X154258001Y-87728854D01*
X154261524Y-87773611D01*
X154229554Y-87825780D01*
X154173026Y-87849195D01*
X154165259Y-87849500D01*
X153530252Y-87849500D01*
X153504005Y-87854721D01*
X153481334Y-87859230D01*
X153481332Y-87859231D01*
X153471769Y-87861133D01*
X153405448Y-87905448D01*
X153361133Y-87971769D01*
X153349500Y-88030252D01*
X153349500Y-89569748D01*
X153361133Y-89628231D01*
X153405448Y-89694552D01*
X153471769Y-89738867D01*
X153481332Y-89740769D01*
X153481334Y-89740770D01*
X153504005Y-89745279D01*
X153530252Y-89750500D01*
X155069748Y-89750500D01*
X155095995Y-89745279D01*
X155118666Y-89740770D01*
X155118668Y-89740769D01*
X155128231Y-89738867D01*
X155136340Y-89733448D01*
X155137809Y-89732840D01*
X155198806Y-89728039D01*
X155250975Y-89760008D01*
X155274391Y-89816535D01*
X155267160Y-89862191D01*
X155266552Y-89863659D01*
X155261133Y-89871769D01*
X155249500Y-89930252D01*
X155249500Y-91469748D01*
X155261133Y-91528231D01*
X155266551Y-91536339D01*
X155293707Y-91576981D01*
X155300000Y-91589956D01*
X155300000Y-91600000D01*
X155308244Y-91600000D01*
X155318394Y-91607375D01*
X155333468Y-91613275D01*
X155360730Y-91631491D01*
X155371769Y-91638867D01*
X155381332Y-91640769D01*
X155381334Y-91640770D01*
X155404005Y-91645279D01*
X155430252Y-91650500D01*
X156969748Y-91650500D01*
X156995995Y-91645279D01*
X157018666Y-91640770D01*
X157018668Y-91640769D01*
X157028231Y-91638867D01*
X157061429Y-91616685D01*
X157116430Y-91600000D01*
X157183570Y-91600000D01*
X157238571Y-91616685D01*
X157271769Y-91638867D01*
X157281332Y-91640769D01*
X157281334Y-91640770D01*
X157304005Y-91645279D01*
X157330252Y-91650500D01*
X158869748Y-91650500D01*
X158895995Y-91645279D01*
X158918666Y-91640770D01*
X158918668Y-91640769D01*
X158928231Y-91638867D01*
X158961429Y-91616685D01*
X159016430Y-91600000D01*
X159083570Y-91600000D01*
X159138571Y-91616685D01*
X159171769Y-91638867D01*
X159181332Y-91640769D01*
X159181334Y-91640770D01*
X159204005Y-91645279D01*
X159230252Y-91650500D01*
X159300500Y-91650500D01*
X159358691Y-91669407D01*
X159394655Y-91718907D01*
X159399500Y-91749500D01*
X159399500Y-94700500D01*
X159380593Y-94758691D01*
X159331093Y-94794655D01*
X159300500Y-94799500D01*
X152534017Y-94799500D01*
X152511831Y-94796982D01*
X152511801Y-94796975D01*
X152500359Y-94794344D01*
X152489483Y-94796805D01*
X152478336Y-94796786D01*
X152478336Y-94796757D01*
X152468228Y-94797578D01*
X152338014Y-94789702D01*
X152228796Y-94783095D01*
X152216944Y-94781656D01*
X151955578Y-94733759D01*
X151943985Y-94730902D01*
X151690305Y-94651852D01*
X151679127Y-94647613D01*
X151436830Y-94538564D01*
X151426244Y-94533008D01*
X151198858Y-94395548D01*
X151189020Y-94388757D01*
X150979868Y-94224897D01*
X150970919Y-94216970D01*
X150783030Y-94029081D01*
X150775103Y-94020132D01*
X150611243Y-93810980D01*
X150604452Y-93801142D01*
X150466992Y-93573756D01*
X150461436Y-93563170D01*
X150352387Y-93320873D01*
X150348148Y-93309695D01*
X150269100Y-93056023D01*
X150266239Y-93044415D01*
X150218344Y-92783056D01*
X150216904Y-92771197D01*
X150202469Y-92532548D01*
X150204207Y-92511810D01*
X150203747Y-92511757D01*
X150204389Y-92506179D01*
X150205655Y-92500718D01*
X150205656Y-92500000D01*
X150204412Y-92494545D01*
X150202980Y-92488266D01*
X150200500Y-92466248D01*
X150200500Y-85699500D01*
X150219407Y-85641309D01*
X150268907Y-85605345D01*
X150299500Y-85600500D01*
X153250500Y-85600500D01*
X153308691Y-85619407D01*
G37*
%TD.AperFunction*%
%TA.AperFunction,Conductor*%
G36*
X169758691Y-85619407D02*
G01*
X169794655Y-85668907D01*
X169799500Y-85699500D01*
X169799500Y-92465983D01*
X169796982Y-92488169D01*
X169794344Y-92499641D01*
X169796805Y-92510517D01*
X169796786Y-92521664D01*
X169796757Y-92521664D01*
X169797578Y-92531772D01*
X169783096Y-92771197D01*
X169781656Y-92783056D01*
X169733761Y-93044415D01*
X169730900Y-93056023D01*
X169651852Y-93309695D01*
X169647613Y-93320873D01*
X169538564Y-93563170D01*
X169533008Y-93573756D01*
X169395548Y-93801142D01*
X169388757Y-93810980D01*
X169224897Y-94020132D01*
X169216970Y-94029081D01*
X169029081Y-94216970D01*
X169020132Y-94224897D01*
X168810980Y-94388757D01*
X168801142Y-94395548D01*
X168573756Y-94533008D01*
X168563170Y-94538564D01*
X168320873Y-94647613D01*
X168309695Y-94651852D01*
X168056015Y-94730902D01*
X168044422Y-94733759D01*
X167783056Y-94781656D01*
X167771204Y-94783095D01*
X167532288Y-94797547D01*
X167522372Y-94796724D01*
X167522372Y-94796862D01*
X167511224Y-94796842D01*
X167500359Y-94794344D01*
X167488359Y-94797059D01*
X167466512Y-94799500D01*
X160699500Y-94799500D01*
X160641309Y-94780593D01*
X160605345Y-94731093D01*
X160600500Y-94700500D01*
X160600500Y-91749500D01*
X160619407Y-91691309D01*
X160668907Y-91655345D01*
X160699500Y-91650500D01*
X160769748Y-91650500D01*
X160795995Y-91645279D01*
X160818666Y-91640770D01*
X160818668Y-91640769D01*
X160828231Y-91638867D01*
X160861429Y-91616685D01*
X160916430Y-91600000D01*
X160983570Y-91600000D01*
X161038571Y-91616685D01*
X161071769Y-91638867D01*
X161081332Y-91640769D01*
X161081334Y-91640770D01*
X161104005Y-91645279D01*
X161130252Y-91650500D01*
X162669748Y-91650500D01*
X162695995Y-91645279D01*
X162718666Y-91640770D01*
X162718668Y-91640769D01*
X162728231Y-91638867D01*
X162761429Y-91616685D01*
X162816430Y-91600000D01*
X162883570Y-91600000D01*
X162938571Y-91616685D01*
X162971769Y-91638867D01*
X162981332Y-91640769D01*
X162981334Y-91640770D01*
X163004005Y-91645279D01*
X163030252Y-91650500D01*
X164569748Y-91650500D01*
X164595995Y-91645279D01*
X164618666Y-91640770D01*
X164618668Y-91640769D01*
X164628231Y-91638867D01*
X164676981Y-91606293D01*
X164689956Y-91600000D01*
X164700000Y-91600000D01*
X164700000Y-91591756D01*
X164707375Y-91581606D01*
X164713275Y-91566532D01*
X164733448Y-91536341D01*
X164733449Y-91536339D01*
X164738867Y-91528231D01*
X164750500Y-91469748D01*
X164750500Y-89930252D01*
X164738867Y-89871769D01*
X164733448Y-89863659D01*
X164732840Y-89862191D01*
X164728039Y-89801194D01*
X164760008Y-89749025D01*
X164816535Y-89725609D01*
X164862191Y-89732840D01*
X164863660Y-89733448D01*
X164871769Y-89738867D01*
X164881332Y-89740769D01*
X164881334Y-89740770D01*
X164904005Y-89745279D01*
X164930252Y-89750500D01*
X166469748Y-89750500D01*
X166495995Y-89745279D01*
X166518666Y-89740770D01*
X166518668Y-89740769D01*
X166528231Y-89738867D01*
X166594552Y-89694552D01*
X166638867Y-89628231D01*
X166650500Y-89569748D01*
X166650500Y-88030252D01*
X166638867Y-87971769D01*
X166594552Y-87905448D01*
X166528231Y-87861133D01*
X166518668Y-87859231D01*
X166518666Y-87859230D01*
X166495995Y-87854721D01*
X166469748Y-87849500D01*
X165734741Y-87849500D01*
X165676550Y-87830593D01*
X165640586Y-87781093D01*
X165640586Y-87728573D01*
X165638867Y-87728231D01*
X165649552Y-87674512D01*
X165650500Y-87669748D01*
X165650500Y-86130252D01*
X165638867Y-86071769D01*
X165641999Y-86071146D01*
X165638476Y-86026389D01*
X165670446Y-85974220D01*
X165726974Y-85950805D01*
X165734741Y-85950500D01*
X166469748Y-85950500D01*
X166495995Y-85945279D01*
X166518666Y-85940770D01*
X166518668Y-85940769D01*
X166528231Y-85938867D01*
X166594552Y-85894552D01*
X166638867Y-85828231D01*
X166650500Y-85769748D01*
X166650500Y-85699500D01*
X166669407Y-85641309D01*
X166718907Y-85605345D01*
X166749500Y-85600500D01*
X169700500Y-85600500D01*
X169758691Y-85619407D01*
G37*
%TD.AperFunction*%
%TA.AperFunction,Conductor*%
G36*
X167488169Y-75203018D02*
G01*
X167499641Y-75205656D01*
X167510517Y-75203195D01*
X167521664Y-75203214D01*
X167521664Y-75203243D01*
X167531772Y-75202422D01*
X167661986Y-75210298D01*
X167771204Y-75216905D01*
X167783056Y-75218344D01*
X168044422Y-75266241D01*
X168056015Y-75269098D01*
X168262244Y-75333361D01*
X168309695Y-75348148D01*
X168320873Y-75352387D01*
X168563170Y-75461436D01*
X168573756Y-75466992D01*
X168801142Y-75604452D01*
X168810980Y-75611243D01*
X169020132Y-75775103D01*
X169029081Y-75783030D01*
X169216970Y-75970919D01*
X169224897Y-75979868D01*
X169388757Y-76189020D01*
X169395548Y-76198858D01*
X169533008Y-76426244D01*
X169538564Y-76436830D01*
X169647613Y-76679127D01*
X169651852Y-76690305D01*
X169730900Y-76943977D01*
X169733759Y-76955578D01*
X169781655Y-77216936D01*
X169783095Y-77228796D01*
X169788113Y-77311744D01*
X169797547Y-77467712D01*
X169796724Y-77477628D01*
X169796862Y-77477628D01*
X169796842Y-77488776D01*
X169794344Y-77499641D01*
X169796804Y-77510513D01*
X169797059Y-77511638D01*
X169799500Y-77533488D01*
X169799500Y-84300500D01*
X169780593Y-84358691D01*
X169731093Y-84394655D01*
X169700500Y-84399500D01*
X166749500Y-84399500D01*
X166691309Y-84380593D01*
X166655345Y-84331093D01*
X166650500Y-84300500D01*
X166650500Y-84230252D01*
X166638867Y-84171769D01*
X166594552Y-84105448D01*
X166528231Y-84061133D01*
X166518668Y-84059231D01*
X166518666Y-84059230D01*
X166495995Y-84054721D01*
X166469748Y-84049500D01*
X165734741Y-84049500D01*
X165676550Y-84030593D01*
X165640586Y-83981093D01*
X165640586Y-83928573D01*
X165638867Y-83928231D01*
X165649552Y-83874512D01*
X165650500Y-83869748D01*
X165650500Y-82330252D01*
X165638867Y-82271769D01*
X165641999Y-82271146D01*
X165638476Y-82226389D01*
X165670446Y-82174220D01*
X165726974Y-82150805D01*
X165734741Y-82150500D01*
X166469748Y-82150500D01*
X166495995Y-82145279D01*
X166518666Y-82140770D01*
X166518668Y-82140769D01*
X166528231Y-82138867D01*
X166594552Y-82094552D01*
X166638867Y-82028231D01*
X166650500Y-81969748D01*
X166650500Y-80430252D01*
X166638867Y-80371769D01*
X166594552Y-80305448D01*
X166528231Y-80261133D01*
X166518668Y-80259231D01*
X166518666Y-80259230D01*
X166495995Y-80254721D01*
X166469748Y-80249500D01*
X164930252Y-80249500D01*
X164904005Y-80254721D01*
X164881334Y-80259230D01*
X164881332Y-80259231D01*
X164871769Y-80261133D01*
X164863660Y-80266552D01*
X164862191Y-80267160D01*
X164801194Y-80271961D01*
X164749025Y-80239992D01*
X164725609Y-80183465D01*
X164732840Y-80137809D01*
X164733448Y-80136341D01*
X164738867Y-80128231D01*
X164750500Y-80069748D01*
X164750500Y-78530252D01*
X164738867Y-78471769D01*
X164694552Y-78405448D01*
X164628231Y-78361133D01*
X164618668Y-78359231D01*
X164618666Y-78359230D01*
X164595995Y-78354721D01*
X164569748Y-78349500D01*
X163030252Y-78349500D01*
X163004005Y-78354721D01*
X162981334Y-78359230D01*
X162981332Y-78359231D01*
X162971769Y-78361133D01*
X162905448Y-78405448D01*
X162903230Y-78402129D01*
X162865487Y-78421360D01*
X162805055Y-78411789D01*
X162795132Y-78404580D01*
X162794552Y-78405448D01*
X162728231Y-78361133D01*
X162718668Y-78359231D01*
X162718666Y-78359230D01*
X162695995Y-78354721D01*
X162669748Y-78349500D01*
X161130252Y-78349500D01*
X161104005Y-78354721D01*
X161081334Y-78359230D01*
X161081332Y-78359231D01*
X161071769Y-78361133D01*
X161005448Y-78405448D01*
X160961133Y-78471769D01*
X160951477Y-78520314D01*
X160921581Y-78573698D01*
X160866016Y-78599314D01*
X160854379Y-78600000D01*
X159145621Y-78600000D01*
X159087430Y-78581093D01*
X159051466Y-78531593D01*
X159048523Y-78520314D01*
X159038867Y-78471769D01*
X158994552Y-78405448D01*
X158928231Y-78361133D01*
X158918668Y-78359231D01*
X158918666Y-78359230D01*
X158895995Y-78354721D01*
X158869748Y-78349500D01*
X158799500Y-78349500D01*
X158741309Y-78330593D01*
X158705345Y-78281093D01*
X158700500Y-78250500D01*
X158700500Y-78145849D01*
X158701347Y-78132927D01*
X158704835Y-78106433D01*
X158705682Y-78100000D01*
X158685044Y-77943238D01*
X158624536Y-77797159D01*
X158620590Y-77792017D01*
X158620588Y-77792013D01*
X158552450Y-77703215D01*
X158552449Y-77703213D01*
X158532233Y-77676866D01*
X158532229Y-77676862D01*
X158528282Y-77671718D01*
X158501936Y-77651502D01*
X158492199Y-77642964D01*
X158433502Y-77584267D01*
X158405725Y-77529750D01*
X158405218Y-77510347D01*
X158404918Y-77510347D01*
X158404918Y-77505157D01*
X158405460Y-77500000D01*
X158385674Y-77311744D01*
X158384073Y-77306817D01*
X158384072Y-77306812D01*
X158328781Y-77136646D01*
X158328780Y-77136645D01*
X158327179Y-77131716D01*
X158232533Y-76967784D01*
X158169821Y-76898135D01*
X158109341Y-76830965D01*
X158109337Y-76830962D01*
X158105871Y-76827112D01*
X157952730Y-76715849D01*
X157947998Y-76713742D01*
X157947996Y-76713741D01*
X157784540Y-76640965D01*
X157784539Y-76640965D01*
X157779803Y-76638856D01*
X157774733Y-76637778D01*
X157774732Y-76637778D01*
X157737390Y-76629841D01*
X157594646Y-76599500D01*
X157405354Y-76599500D01*
X157262610Y-76629841D01*
X157225268Y-76637778D01*
X157225267Y-76637778D01*
X157220197Y-76638856D01*
X157215461Y-76640965D01*
X157215460Y-76640965D01*
X157052004Y-76713741D01*
X157052002Y-76713742D01*
X157047270Y-76715849D01*
X156894129Y-76827112D01*
X156890663Y-76830962D01*
X156890659Y-76830965D01*
X156830179Y-76898135D01*
X156767467Y-76967784D01*
X156672821Y-77131716D01*
X156671220Y-77136645D01*
X156671219Y-77136646D01*
X156615928Y-77306812D01*
X156615927Y-77306817D01*
X156614326Y-77311744D01*
X156594540Y-77500000D01*
X156614326Y-77688256D01*
X156615927Y-77693183D01*
X156615928Y-77693188D01*
X156648039Y-77792013D01*
X156672821Y-77868284D01*
X156675412Y-77872772D01*
X156675413Y-77872774D01*
X156719811Y-77949674D01*
X156767467Y-78032216D01*
X156770939Y-78036072D01*
X156890658Y-78169034D01*
X156890662Y-78169038D01*
X156894129Y-78172888D01*
X156898323Y-78175935D01*
X156899428Y-78176930D01*
X156930020Y-78229918D01*
X156923623Y-78290769D01*
X156882682Y-78336237D01*
X156833183Y-78349500D01*
X155430252Y-78349500D01*
X155404005Y-78354721D01*
X155381334Y-78359230D01*
X155381332Y-78359231D01*
X155371769Y-78361133D01*
X155305448Y-78405448D01*
X155261133Y-78471769D01*
X155249500Y-78530252D01*
X155249500Y-80069748D01*
X155261133Y-80128231D01*
X155266552Y-80136341D01*
X155267160Y-80137809D01*
X155271961Y-80198806D01*
X155239992Y-80250975D01*
X155183465Y-80274391D01*
X155137809Y-80267160D01*
X155136340Y-80266552D01*
X155128231Y-80261133D01*
X155118668Y-80259231D01*
X155118666Y-80259230D01*
X155095995Y-80254721D01*
X155069748Y-80249500D01*
X153530252Y-80249500D01*
X153504005Y-80254721D01*
X153481334Y-80259230D01*
X153481332Y-80259231D01*
X153471769Y-80261133D01*
X153405448Y-80305448D01*
X153361133Y-80371769D01*
X153349500Y-80430252D01*
X153349500Y-81969748D01*
X153361133Y-82028231D01*
X153405448Y-82094552D01*
X153471769Y-82138867D01*
X153481332Y-82140769D01*
X153481334Y-82140770D01*
X153504005Y-82145279D01*
X153530252Y-82150500D01*
X154165259Y-82150500D01*
X154223450Y-82169407D01*
X154259414Y-82218907D01*
X154259414Y-82271427D01*
X154261133Y-82271769D01*
X154249500Y-82330252D01*
X154249500Y-83869748D01*
X154250448Y-83874512D01*
X154261133Y-83928231D01*
X154258001Y-83928854D01*
X154261524Y-83973611D01*
X154229554Y-84025780D01*
X154173026Y-84049195D01*
X154165259Y-84049500D01*
X153530252Y-84049500D01*
X153504005Y-84054721D01*
X153481334Y-84059230D01*
X153481332Y-84059231D01*
X153471769Y-84061133D01*
X153405448Y-84105448D01*
X153361133Y-84171769D01*
X153349500Y-84230252D01*
X153349500Y-84300500D01*
X153330593Y-84358691D01*
X153281093Y-84394655D01*
X153250500Y-84399500D01*
X150299500Y-84399500D01*
X150241309Y-84380593D01*
X150205345Y-84331093D01*
X150200500Y-84300500D01*
X150200500Y-77534281D01*
X150203057Y-77511926D01*
X150203141Y-77511565D01*
X150205655Y-77500718D01*
X150205656Y-77500000D01*
X150204413Y-77494549D01*
X150203791Y-77488995D01*
X150204159Y-77488954D01*
X150202438Y-77467973D01*
X150209909Y-77344459D01*
X150216905Y-77228797D01*
X150218345Y-77216936D01*
X150266241Y-76955578D01*
X150269100Y-76943977D01*
X150348148Y-76690305D01*
X150352387Y-76679127D01*
X150461436Y-76436830D01*
X150466992Y-76426244D01*
X150604452Y-76198858D01*
X150611243Y-76189020D01*
X150775103Y-75979868D01*
X150783030Y-75970919D01*
X150970919Y-75783030D01*
X150979868Y-75775103D01*
X151189020Y-75611243D01*
X151198858Y-75604452D01*
X151426244Y-75466992D01*
X151436830Y-75461436D01*
X151679127Y-75352387D01*
X151690305Y-75348148D01*
X151737756Y-75333361D01*
X151943985Y-75269098D01*
X151955578Y-75266241D01*
X152216944Y-75218344D01*
X152228796Y-75216905D01*
X152467712Y-75202453D01*
X152477628Y-75203276D01*
X152477628Y-75203138D01*
X152488776Y-75203158D01*
X152499641Y-75205656D01*
X152511641Y-75202941D01*
X152533488Y-75200500D01*
X167465983Y-75200500D01*
X167488169Y-75203018D01*
G37*
%TD.AperFunction*%
%TD*%
M02*
