%TF.GenerationSoftware,KiCad,Pcbnew,6.0.9+dfsg-1~bpo11+1*%
%TF.CreationDate,2022-11-07T08:13:32+01:00*%
%TF.ProjectId,012-prototype-board,3031322d-7072-46f7-946f-747970652d62,1*%
%TF.SameCoordinates,Original*%
%TF.FileFunction,Plated,1,2,PTH,Drill*%
%TF.FilePolarity,Positive*%
%FSLAX46Y46*%
G04 Gerber Fmt 4.6, Leading zero omitted, Abs format (unit mm)*
G04 Created by KiCad (PCBNEW 6.0.9+dfsg-1~bpo11+1) date 2022-11-07 08:13:32*
%MOMM*%
%LPD*%
G01*
G04 APERTURE LIST*
%TA.AperFunction,ViaDrill*%
%ADD10C,0.400000*%
%TD*%
%TA.AperFunction,ComponentDrill*%
%ADD11C,0.400000*%
%TD*%
%TA.AperFunction,ComponentDrill*%
%ADD12C,0.650000*%
%TD*%
%TA.AperFunction,ComponentDrill*%
%ADD13C,2.000000*%
%TD*%
G04 APERTURE END LIST*
D10*
X157100000Y-83100000D03*
X157100000Y-86900000D03*
X160000000Y-79300000D03*
X162800000Y-83100000D03*
X162800000Y-86900000D03*
D11*
%TO.C,J2*%
X150500000Y-84000000D03*
X150500000Y-86000000D03*
X151000000Y-83500000D03*
X151000000Y-86500000D03*
X151500000Y-84000000D03*
X151500000Y-86000000D03*
X152000000Y-83500000D03*
X152000000Y-86500000D03*
X152500000Y-84000000D03*
X152500000Y-86000000D03*
%TO.C,J1*%
X158500000Y-93000000D03*
X158500000Y-94000000D03*
X159000000Y-92500000D03*
X159000000Y-93500000D03*
X159000000Y-94500000D03*
X161000000Y-92500000D03*
X161000000Y-93500000D03*
X161000000Y-94500000D03*
X161500000Y-93000000D03*
X161500000Y-94000000D03*
%TO.C,J2*%
X167500000Y-84000000D03*
X167500000Y-86000000D03*
X168000000Y-83500000D03*
X168000000Y-86500000D03*
X168500000Y-84000000D03*
X168500000Y-86000000D03*
X169000000Y-83500000D03*
X169000000Y-86500000D03*
X169500000Y-84000000D03*
X169500000Y-86000000D03*
D12*
%TO.C,REF\u002A\u002A*%
X157500000Y-77500000D03*
D13*
%TO.C,H1*%
X152500000Y-77500000D03*
%TO.C,H2*%
X152500000Y-92500000D03*
%TO.C,H4*%
X167500000Y-77500000D03*
%TO.C,H3*%
X167500000Y-92500000D03*
M02*
