%TF.GenerationSoftware,KiCad,Pcbnew,6.0.9+dfsg-1~bpo11+1*%
%TF.CreationDate,2022-11-11T15:11:50+01:00*%
%TF.ProjectId,012-prototype-board,3031322d-7072-46f7-946f-747970652d62,1*%
%TF.SameCoordinates,Original*%
%TF.FileFunction,Soldermask,Top*%
%TF.FilePolarity,Negative*%
%FSLAX46Y46*%
G04 Gerber Fmt 4.6, Leading zero omitted, Abs format (unit mm)*
G04 Created by KiCad (PCBNEW 6.0.9+dfsg-1~bpo11+1) date 2022-11-11 15:11:50*
%MOMM*%
%LPD*%
G01*
G04 APERTURE LIST*
%ADD10R,1.500000X1.500000*%
%ADD11C,3.400000*%
%ADD12C,1.400000*%
G04 APERTURE END LIST*
%TO.C,J2*%
G36*
X170000000Y-88000000D02*
G01*
X167000000Y-88000000D01*
X167000000Y-82000000D01*
X170000000Y-82000000D01*
X170000000Y-88000000D01*
G37*
G36*
X153000000Y-88000000D02*
G01*
X150000000Y-88000000D01*
X150000000Y-82000000D01*
X153000000Y-82000000D01*
X153000000Y-88000000D01*
G37*
%TO.C,J1*%
G36*
X163000000Y-95000000D02*
G01*
X157000000Y-95000000D01*
X157000000Y-92000000D01*
X163000000Y-92000000D01*
X163000000Y-95000000D01*
G37*
%TD*%
D10*
%TO.C,REF\u002A\u002A*%
X156200000Y-90700000D03*
%TD*%
%TO.C,REF\u002A\u002A*%
X156200000Y-88800000D03*
%TD*%
%TO.C,REF\u002A\u002A*%
X157100000Y-83100000D03*
%TD*%
%TO.C,REF\u002A\u002A*%
X159000000Y-83100000D03*
%TD*%
%TO.C,REF\u002A\u002A*%
X164700000Y-83100000D03*
%TD*%
%TO.C,REF\u002A\u002A*%
X160900000Y-83100000D03*
%TD*%
%TO.C,REF\u002A\u002A*%
X161900000Y-79300000D03*
%TD*%
%TO.C,REF\u002A\u002A*%
X158100000Y-85000000D03*
%TD*%
%TO.C,REF\u002A\u002A*%
X165700000Y-88800000D03*
%TD*%
%TO.C,REF\u002A\u002A*%
X163800000Y-79300000D03*
%TD*%
%TO.C,REF\u002A\u002A*%
X165700000Y-81200000D03*
%TD*%
%TO.C,REF\u002A\u002A*%
X155200000Y-86900000D03*
%TD*%
%TO.C,REF\u002A\u002A*%
X159000000Y-86900000D03*
%TD*%
%TO.C,REF\u002A\u002A*%
X154300000Y-81200000D03*
%TD*%
%TO.C,REF\u002A\u002A*%
X161900000Y-88800000D03*
%TD*%
%TO.C,REF\u002A\u002A*%
X163800000Y-85000000D03*
%TD*%
%TO.C,REF\u002A\u002A*%
X156200000Y-85000000D03*
%TD*%
%TO.C,REF\u002A\u002A*%
X158100000Y-90700000D03*
%TD*%
%TO.C,REF\u002A\u002A*%
X158100000Y-88800000D03*
%TD*%
%TO.C,REF\u002A\u002A*%
X158100000Y-81200000D03*
%TD*%
%TO.C,REF\u002A\u002A*%
X165700000Y-85000000D03*
%TD*%
%TO.C,REF\u002A\u002A*%
X158100000Y-79300000D03*
%TD*%
%TO.C,REF\u002A\u002A*%
X164700000Y-86900000D03*
%TD*%
%TO.C,REF\u002A\u002A*%
X156200000Y-81200000D03*
%TD*%
%TO.C,REF\u002A\u002A*%
X160000000Y-79300000D03*
%TD*%
D11*
%TO.C,H1*%
X152500000Y-77500000D03*
%TD*%
D10*
%TO.C,REF\u002A\u002A*%
X154300000Y-88800000D03*
%TD*%
D11*
%TO.C,H2*%
X152500000Y-92500000D03*
%TD*%
D10*
%TO.C,REF\u002A\u002A*%
X161900000Y-85000000D03*
%TD*%
D11*
%TO.C,H4*%
X167500000Y-77500000D03*
%TD*%
D10*
%TO.C,REF\u002A\u002A*%
X161900000Y-81200000D03*
%TD*%
%TO.C,REF\u002A\u002A*%
X155200000Y-83100000D03*
%TD*%
%TO.C,REF\u002A\u002A*%
X162800000Y-83100000D03*
%TD*%
%TO.C,REF\u002A\u002A*%
X161900000Y-90700000D03*
%TD*%
%TO.C,REF\u002A\u002A*%
X160000000Y-85000000D03*
%TD*%
%TO.C,REF\u002A\u002A*%
X163800000Y-90700000D03*
%TD*%
D12*
%TO.C,REF\u002A\u002A*%
X157500000Y-77500000D03*
%TD*%
D10*
%TO.C,REF\u002A\u002A*%
X160000000Y-90700000D03*
%TD*%
%TO.C,REF\u002A\u002A*%
X160900000Y-86900000D03*
%TD*%
D11*
%TO.C,H3*%
X167500000Y-92500000D03*
%TD*%
D10*
%TO.C,REF\u002A\u002A*%
X154300000Y-85000000D03*
%TD*%
%TO.C,REF\u002A\u002A*%
X163800000Y-81200000D03*
%TD*%
%TO.C,REF\u002A\u002A*%
X160000000Y-81200000D03*
%TD*%
%TO.C,REF\u002A\u002A*%
X162800000Y-86900000D03*
%TD*%
%TO.C,REF\u002A\u002A*%
X163800000Y-88800000D03*
%TD*%
%TO.C,REF\u002A\u002A*%
X157100000Y-86900000D03*
%TD*%
%TO.C,REF\u002A\u002A*%
X160000000Y-88800000D03*
%TD*%
%TO.C,REF\u002A\u002A*%
X156200000Y-79300000D03*
%TD*%
G36*
X169290871Y-75766002D02*
G01*
X169317482Y-75788923D01*
X169477940Y-75971891D01*
X169487973Y-75984966D01*
X169660476Y-76243134D01*
X169668717Y-76257408D01*
X169806047Y-76535886D01*
X169812354Y-76551112D01*
X169912160Y-76845129D01*
X169916426Y-76861050D01*
X169977001Y-77165587D01*
X169979152Y-77181927D01*
X169999730Y-77495881D01*
X170000000Y-77504122D01*
X170000000Y-77828000D01*
X169979998Y-77896121D01*
X169926342Y-77942614D01*
X169874000Y-77954000D01*
X163503088Y-77954000D01*
X163496906Y-77953848D01*
X163481291Y-77953081D01*
X163468982Y-77951869D01*
X163460671Y-77950636D01*
X163396223Y-77920854D01*
X163358108Y-77860956D01*
X163358426Y-77789960D01*
X163397077Y-77730407D01*
X163461790Y-77701203D01*
X163479162Y-77700000D01*
X163481885Y-77700000D01*
X163497124Y-77695525D01*
X163498329Y-77694135D01*
X163500000Y-77686452D01*
X163500000Y-76018115D01*
X163495525Y-76002876D01*
X163494135Y-76001671D01*
X163486452Y-76000000D01*
X163479162Y-76000000D01*
X163411041Y-75979998D01*
X163364548Y-75926342D01*
X163354444Y-75856068D01*
X163383938Y-75791488D01*
X163443664Y-75753104D01*
X163460671Y-75749364D01*
X163468982Y-75748131D01*
X163481291Y-75746919D01*
X163496906Y-75746152D01*
X163503088Y-75746000D01*
X169222750Y-75746000D01*
X169290871Y-75766002D01*
G37*
G36*
X167504119Y-75000270D02*
G01*
X167818073Y-75020848D01*
X167834413Y-75022999D01*
X168138950Y-75083574D01*
X168154871Y-75087840D01*
X168448888Y-75187646D01*
X168464114Y-75193953D01*
X168742592Y-75331283D01*
X168756866Y-75339524D01*
X169015034Y-75512027D01*
X169028109Y-75522060D01*
X169261557Y-75726788D01*
X169273212Y-75738443D01*
X169477940Y-75971891D01*
X169487973Y-75984966D01*
X169536772Y-76057998D01*
X169557987Y-76125750D01*
X169539204Y-76194217D01*
X169486387Y-76241661D01*
X169432007Y-76254000D01*
X163626000Y-76254000D01*
X163557879Y-76233998D01*
X163511386Y-76180342D01*
X163500000Y-76128000D01*
X163500000Y-76018115D01*
X163495525Y-76002876D01*
X163494135Y-76001671D01*
X163486452Y-76000000D01*
X160318115Y-76000000D01*
X160302876Y-76004475D01*
X160301671Y-76005865D01*
X160300000Y-76013548D01*
X160300000Y-76128000D01*
X160279998Y-76196121D01*
X160226342Y-76242614D01*
X160174000Y-76254000D01*
X150567993Y-76254000D01*
X150499872Y-76233998D01*
X150453379Y-76180342D01*
X150443275Y-76110068D01*
X150463228Y-76057998D01*
X150512027Y-75984966D01*
X150522060Y-75971891D01*
X150726788Y-75738443D01*
X150738443Y-75726788D01*
X150971891Y-75522060D01*
X150984966Y-75512027D01*
X151243134Y-75339524D01*
X151257408Y-75331283D01*
X151535886Y-75193953D01*
X151551112Y-75187646D01*
X151845129Y-75087840D01*
X151861050Y-75083574D01*
X152165587Y-75022999D01*
X152181927Y-75020848D01*
X152495881Y-75000270D01*
X152504122Y-75000000D01*
X167495878Y-75000000D01*
X167504119Y-75000270D01*
G37*
G36*
X169942121Y-77466002D02*
G01*
X169988614Y-77519658D01*
X170000000Y-77572000D01*
X170000000Y-92495878D01*
X169999730Y-92504119D01*
X169979152Y-92818073D01*
X169977001Y-92834413D01*
X169916426Y-93138950D01*
X169912160Y-93154871D01*
X169812354Y-93448888D01*
X169806047Y-93464114D01*
X169668717Y-93742592D01*
X169660476Y-93756866D01*
X169487973Y-94015034D01*
X169477940Y-94028109D01*
X169273212Y-94261557D01*
X169261557Y-94273212D01*
X169028109Y-94477940D01*
X169015034Y-94487973D01*
X168756866Y-94660476D01*
X168742592Y-94668717D01*
X168464114Y-94806047D01*
X168448888Y-94812354D01*
X168154871Y-94912160D01*
X168138950Y-94916426D01*
X167834413Y-94977001D01*
X167818073Y-94979152D01*
X167504119Y-94999730D01*
X167495878Y-95000000D01*
X160172000Y-95000000D01*
X160103879Y-94979998D01*
X160057386Y-94926342D01*
X160046000Y-94874000D01*
X160046000Y-77703088D01*
X160046152Y-77696906D01*
X160046919Y-77681291D01*
X160048131Y-77668982D01*
X160049364Y-77660671D01*
X160079146Y-77596223D01*
X160139044Y-77558108D01*
X160210040Y-77558426D01*
X160269593Y-77597077D01*
X160298797Y-77661790D01*
X160300000Y-77679162D01*
X160300000Y-77681885D01*
X160304475Y-77697124D01*
X160305865Y-77698329D01*
X160313548Y-77700000D01*
X163481885Y-77700000D01*
X163497124Y-77695525D01*
X163498329Y-77694135D01*
X163500000Y-77686452D01*
X163500000Y-77572000D01*
X163520002Y-77503879D01*
X163573658Y-77457386D01*
X163626000Y-77446000D01*
X169874000Y-77446000D01*
X169942121Y-77466002D01*
G37*
G36*
X160303094Y-75746152D02*
G01*
X160318709Y-75746919D01*
X160331018Y-75748131D01*
X160339329Y-75749364D01*
X160403777Y-75779146D01*
X160441892Y-75839044D01*
X160441574Y-75910040D01*
X160402923Y-75969593D01*
X160338210Y-75998797D01*
X160320838Y-76000000D01*
X160318115Y-76000000D01*
X160302876Y-76004475D01*
X160301671Y-76005865D01*
X160300000Y-76013548D01*
X160300000Y-77681885D01*
X160304475Y-77697124D01*
X160305865Y-77698329D01*
X160313548Y-77700000D01*
X160428000Y-77700000D01*
X160496121Y-77720002D01*
X160542614Y-77773658D01*
X160554000Y-77826000D01*
X160554000Y-94874000D01*
X160533998Y-94942121D01*
X160480342Y-94988614D01*
X160428000Y-95000000D01*
X152504122Y-95000000D01*
X152495881Y-94999730D01*
X152181927Y-94979152D01*
X152165587Y-94977001D01*
X151861050Y-94916426D01*
X151845129Y-94912160D01*
X151551112Y-94812354D01*
X151535886Y-94806047D01*
X151257408Y-94668717D01*
X151243134Y-94660476D01*
X150984966Y-94487973D01*
X150971891Y-94477940D01*
X150738443Y-94273212D01*
X150726788Y-94261557D01*
X150522060Y-94028109D01*
X150512027Y-94015034D01*
X150339524Y-93756866D01*
X150331283Y-93742592D01*
X150193953Y-93464114D01*
X150187646Y-93448888D01*
X150087840Y-93154871D01*
X150083574Y-93138950D01*
X150022999Y-92834413D01*
X150020848Y-92818073D01*
X150000270Y-92504119D01*
X150000000Y-92495878D01*
X150000000Y-77504122D01*
X150000270Y-77495881D01*
X150020848Y-77181927D01*
X150022999Y-77165587D01*
X150083574Y-76861050D01*
X150087840Y-76845129D01*
X150187646Y-76551112D01*
X150193953Y-76535886D01*
X150331283Y-76257408D01*
X150339524Y-76243134D01*
X150512027Y-75984966D01*
X150522060Y-75971891D01*
X150682518Y-75788923D01*
X150742471Y-75750895D01*
X150777250Y-75746000D01*
X160296912Y-75746000D01*
X160303094Y-75746152D01*
G37*
M02*
