%TF.GenerationSoftware,KiCad,Pcbnew,6.0.9+dfsg-1~bpo11+1*%
%TF.CreationDate,2022-11-07T08:13:31+01:00*%
%TF.ProjectId,012-prototype-board,3031322d-7072-46f7-946f-747970652d62,1*%
%TF.SameCoordinates,Original*%
%TF.FileFunction,Copper,L2,Bot*%
%TF.FilePolarity,Positive*%
%FSLAX46Y46*%
G04 Gerber Fmt 4.6, Leading zero omitted, Abs format (unit mm)*
G04 Created by KiCad (PCBNEW 6.0.9+dfsg-1~bpo11+1) date 2022-11-07 08:13:31*
%MOMM*%
%LPD*%
G01*
G04 APERTURE LIST*
%TA.AperFunction,ComponentPad*%
%ADD10C,0.800000*%
%TD*%
%TA.AperFunction,SMDPad,CuDef*%
%ADD11R,3.000000X5.200000*%
%TD*%
%TA.AperFunction,ComponentPad*%
%ADD12C,3.400000*%
%TD*%
%TA.AperFunction,ComponentPad*%
%ADD13C,1.400000*%
%TD*%
%TA.AperFunction,SMDPad,CuDef*%
%ADD14R,5.200000X3.000000*%
%TD*%
%TA.AperFunction,ViaPad*%
%ADD15C,0.800000*%
%TD*%
G04 APERTURE END LIST*
D10*
%TO.P,J2,2,Pin_2*%
%TO.N,GND*%
X168000000Y-83500000D03*
X168000000Y-86500000D03*
X169500000Y-86000000D03*
D11*
X168500000Y-85000000D03*
D10*
X167500000Y-86000000D03*
X169000000Y-86500000D03*
X169000000Y-83500000D03*
X169500000Y-84000000D03*
X168500000Y-84000000D03*
X168500000Y-86000000D03*
X167500000Y-84000000D03*
%TD*%
D12*
%TO.P,H1,1,1*%
%TO.N,GND*%
X152500000Y-77500000D03*
%TD*%
%TO.P,H2,1,1*%
%TO.N,GND*%
X152500000Y-92500000D03*
%TD*%
%TO.P,H4,1,1*%
%TO.N,GND*%
X167500000Y-77500000D03*
%TD*%
D13*
%TO.P,REF\u002A\u002A,1*%
%TO.N,N/C*%
X157500000Y-77500000D03*
%TD*%
D10*
%TO.P,J2,2,Pin_2*%
%TO.N,GND*%
X151000000Y-83500000D03*
X152000000Y-83500000D03*
X151500000Y-84000000D03*
X151500000Y-86000000D03*
X152000000Y-86500000D03*
X152500000Y-84000000D03*
X152500000Y-86000000D03*
D11*
X151500000Y-85000000D03*
D10*
X150500000Y-86000000D03*
X151000000Y-86500000D03*
X150500000Y-84000000D03*
%TD*%
D12*
%TO.P,H3,1,1*%
%TO.N,GND*%
X167500000Y-92500000D03*
%TD*%
D10*
%TO.P,J1,2,Pin_2*%
%TO.N,GND*%
X158500000Y-93000000D03*
X161500000Y-93000000D03*
X161000000Y-92500000D03*
X159000000Y-93500000D03*
X161000000Y-93500000D03*
D14*
X160000000Y-93500000D03*
D10*
X161000000Y-94500000D03*
X158500000Y-94000000D03*
X159000000Y-92500000D03*
X159000000Y-94500000D03*
X161500000Y-94000000D03*
%TD*%
D15*
%TO.N,GND*%
X157100000Y-86900000D03*
X157100000Y-83100000D03*
X162800000Y-83100000D03*
X162800000Y-86900000D03*
X160000000Y-79300000D03*
%TD*%
%TA.AperFunction,Conductor*%
%TO.N,GND*%
G36*
X167488169Y-75203018D02*
G01*
X167499641Y-75205656D01*
X167510517Y-75203195D01*
X167521664Y-75203214D01*
X167521664Y-75203243D01*
X167531772Y-75202422D01*
X167661986Y-75210298D01*
X167771204Y-75216905D01*
X167783056Y-75218344D01*
X168044422Y-75266241D01*
X168056015Y-75269098D01*
X168262244Y-75333361D01*
X168309695Y-75348148D01*
X168320873Y-75352387D01*
X168563170Y-75461436D01*
X168573756Y-75466992D01*
X168801142Y-75604452D01*
X168810980Y-75611243D01*
X169020132Y-75775103D01*
X169029081Y-75783030D01*
X169216970Y-75970919D01*
X169224897Y-75979868D01*
X169388757Y-76189020D01*
X169395548Y-76198858D01*
X169533008Y-76426244D01*
X169538564Y-76436830D01*
X169647613Y-76679127D01*
X169651852Y-76690305D01*
X169730900Y-76943977D01*
X169733759Y-76955578D01*
X169781655Y-77216936D01*
X169783095Y-77228796D01*
X169788113Y-77311744D01*
X169797547Y-77467712D01*
X169796724Y-77477628D01*
X169796862Y-77477628D01*
X169796842Y-77488776D01*
X169794344Y-77499641D01*
X169796804Y-77510513D01*
X169797059Y-77511638D01*
X169799500Y-77533488D01*
X169799500Y-92465983D01*
X169796982Y-92488169D01*
X169794344Y-92499641D01*
X169796805Y-92510517D01*
X169796786Y-92521664D01*
X169796757Y-92521664D01*
X169797578Y-92531772D01*
X169783096Y-92771197D01*
X169781656Y-92783056D01*
X169733761Y-93044415D01*
X169730900Y-93056023D01*
X169651852Y-93309695D01*
X169647613Y-93320873D01*
X169538564Y-93563170D01*
X169533008Y-93573756D01*
X169395548Y-93801142D01*
X169388757Y-93810980D01*
X169224897Y-94020132D01*
X169216970Y-94029081D01*
X169029081Y-94216970D01*
X169020132Y-94224897D01*
X168810980Y-94388757D01*
X168801142Y-94395548D01*
X168573756Y-94533008D01*
X168563170Y-94538564D01*
X168320873Y-94647613D01*
X168309695Y-94651852D01*
X168056015Y-94730902D01*
X168044422Y-94733759D01*
X167783056Y-94781656D01*
X167771204Y-94783095D01*
X167532288Y-94797547D01*
X167522372Y-94796724D01*
X167522372Y-94796862D01*
X167511224Y-94796842D01*
X167500359Y-94794344D01*
X167488359Y-94797059D01*
X167466512Y-94799500D01*
X152534017Y-94799500D01*
X152511831Y-94796982D01*
X152511801Y-94796975D01*
X152500359Y-94794344D01*
X152489483Y-94796805D01*
X152478336Y-94796786D01*
X152478336Y-94796757D01*
X152468228Y-94797578D01*
X152338014Y-94789702D01*
X152228796Y-94783095D01*
X152216944Y-94781656D01*
X151955578Y-94733759D01*
X151943985Y-94730902D01*
X151690305Y-94651852D01*
X151679127Y-94647613D01*
X151436830Y-94538564D01*
X151426244Y-94533008D01*
X151198858Y-94395548D01*
X151189020Y-94388757D01*
X150979868Y-94224897D01*
X150970919Y-94216970D01*
X150783030Y-94029081D01*
X150775103Y-94020132D01*
X150611243Y-93810980D01*
X150604452Y-93801142D01*
X150466992Y-93573756D01*
X150461436Y-93563170D01*
X150352387Y-93320873D01*
X150348148Y-93309695D01*
X150269100Y-93056023D01*
X150266239Y-93044415D01*
X150218344Y-92783056D01*
X150216904Y-92771197D01*
X150202469Y-92532548D01*
X150204207Y-92511810D01*
X150203747Y-92511757D01*
X150204389Y-92506179D01*
X150205655Y-92500718D01*
X150205656Y-92500000D01*
X150204412Y-92494545D01*
X150202980Y-92488266D01*
X150200500Y-92466248D01*
X150200500Y-77534281D01*
X150203057Y-77511926D01*
X150203141Y-77511565D01*
X150205655Y-77500718D01*
X150205656Y-77500000D01*
X156594540Y-77500000D01*
X156614326Y-77688256D01*
X156615927Y-77693183D01*
X156615928Y-77693188D01*
X156671219Y-77863354D01*
X156672821Y-77868284D01*
X156767467Y-78032216D01*
X156770939Y-78036072D01*
X156890659Y-78169035D01*
X156890663Y-78169038D01*
X156894129Y-78172888D01*
X157047270Y-78284151D01*
X157052002Y-78286258D01*
X157052004Y-78286259D01*
X157215460Y-78359035D01*
X157220197Y-78361144D01*
X157225267Y-78362222D01*
X157225268Y-78362222D01*
X157262610Y-78370159D01*
X157405354Y-78400500D01*
X157594646Y-78400500D01*
X157737390Y-78370159D01*
X157774732Y-78362222D01*
X157774733Y-78362222D01*
X157779803Y-78361144D01*
X157784540Y-78359035D01*
X157947996Y-78286259D01*
X157947998Y-78286258D01*
X157952730Y-78284151D01*
X158105871Y-78172888D01*
X158109337Y-78169038D01*
X158109341Y-78169035D01*
X158229061Y-78036072D01*
X158232533Y-78032216D01*
X158327179Y-77868284D01*
X158328781Y-77863354D01*
X158384072Y-77693188D01*
X158384073Y-77693183D01*
X158385674Y-77688256D01*
X158405460Y-77500000D01*
X158385674Y-77311744D01*
X158384073Y-77306817D01*
X158384072Y-77306812D01*
X158328781Y-77136646D01*
X158328780Y-77136645D01*
X158327179Y-77131716D01*
X158232533Y-76967784D01*
X158169821Y-76898135D01*
X158109341Y-76830965D01*
X158109337Y-76830962D01*
X158105871Y-76827112D01*
X157952730Y-76715849D01*
X157947998Y-76713742D01*
X157947996Y-76713741D01*
X157784540Y-76640965D01*
X157784539Y-76640965D01*
X157779803Y-76638856D01*
X157774733Y-76637778D01*
X157774732Y-76637778D01*
X157737390Y-76629841D01*
X157594646Y-76599500D01*
X157405354Y-76599500D01*
X157262610Y-76629841D01*
X157225268Y-76637778D01*
X157225267Y-76637778D01*
X157220197Y-76638856D01*
X157215461Y-76640965D01*
X157215460Y-76640965D01*
X157052004Y-76713741D01*
X157052002Y-76713742D01*
X157047270Y-76715849D01*
X156894129Y-76827112D01*
X156890663Y-76830962D01*
X156890659Y-76830965D01*
X156830179Y-76898135D01*
X156767467Y-76967784D01*
X156672821Y-77131716D01*
X156671220Y-77136645D01*
X156671219Y-77136646D01*
X156615928Y-77306812D01*
X156615927Y-77306817D01*
X156614326Y-77311744D01*
X156594540Y-77500000D01*
X150205656Y-77500000D01*
X150204413Y-77494549D01*
X150203791Y-77488995D01*
X150204159Y-77488954D01*
X150202438Y-77467973D01*
X150209909Y-77344459D01*
X150216905Y-77228797D01*
X150218345Y-77216936D01*
X150266241Y-76955578D01*
X150269100Y-76943977D01*
X150348148Y-76690305D01*
X150352387Y-76679127D01*
X150461436Y-76436830D01*
X150466992Y-76426244D01*
X150604452Y-76198858D01*
X150611243Y-76189020D01*
X150775103Y-75979868D01*
X150783030Y-75970919D01*
X150970919Y-75783030D01*
X150979868Y-75775103D01*
X151189020Y-75611243D01*
X151198858Y-75604452D01*
X151426244Y-75466992D01*
X151436830Y-75461436D01*
X151679127Y-75352387D01*
X151690305Y-75348148D01*
X151737756Y-75333361D01*
X151943985Y-75269098D01*
X151955578Y-75266241D01*
X152216944Y-75218344D01*
X152228796Y-75216905D01*
X152467712Y-75202453D01*
X152477628Y-75203276D01*
X152477628Y-75203138D01*
X152488776Y-75203158D01*
X152499641Y-75205656D01*
X152511641Y-75202941D01*
X152533488Y-75200500D01*
X167465983Y-75200500D01*
X167488169Y-75203018D01*
G37*
%TD.AperFunction*%
%TD*%
M02*
