%TF.GenerationSoftware,KiCad,Pcbnew,6.0.1-79c1e3a40b~116~ubuntu20.04.1*%
%TF.CreationDate,2022-01-22T19:33:55+01:00*%
%TF.ProjectId,pcb-connector,7063622d-636f-46e6-9e65-63746f722e6b,rev?*%
%TF.SameCoordinates,Original*%
%TF.FileFunction,Copper,L1,Top*%
%TF.FilePolarity,Positive*%
%FSLAX46Y46*%
G04 Gerber Fmt 4.6, Leading zero omitted, Abs format (unit mm)*
G04 Created by KiCad (PCBNEW 6.0.1-79c1e3a40b~116~ubuntu20.04.1) date 2022-01-22 19:33:55*
%MOMM*%
%LPD*%
G01*
G04 APERTURE LIST*
%TA.AperFunction,SMDPad,CuDef*%
%ADD10R,3.000000X1.078010*%
%TD*%
%TA.AperFunction,SMDPad,CuDef*%
%ADD11R,3.000000X2.000000*%
%TD*%
%TA.AperFunction,ComponentPad*%
%ADD12C,3.400000*%
%TD*%
%TA.AperFunction,ViaPad*%
%ADD13C,0.800000*%
%TD*%
G04 APERTURE END LIST*
D10*
%TO.P,J1,1,Pin_1*%
%TO.N,unconnected-(J1-Pad1)*%
X147500000Y-82500000D03*
D11*
%TO.P,J1,2,Pin_2*%
%TO.N,GND*%
X147500000Y-80760995D03*
X147500000Y-84239005D03*
%TD*%
D12*
%TO.P,H4,1,1*%
%TO.N,GND*%
X145000000Y-90000000D03*
%TD*%
%TO.P,H3,1,1*%
%TO.N,GND*%
X150000000Y-75000000D03*
%TD*%
%TO.P,H2,1,1*%
%TO.N,GND*%
X150000000Y-90000000D03*
%TD*%
%TO.P,H1,1,1*%
%TO.N,GND*%
X145000000Y-75000000D03*
%TD*%
D13*
%TO.N,GND*%
X148500000Y-85000000D03*
X147500000Y-85000000D03*
X146500000Y-85000000D03*
X147000000Y-84500000D03*
X148000000Y-84500000D03*
X148500000Y-84000000D03*
X147500000Y-84000000D03*
X146500000Y-84000000D03*
X148500000Y-80000000D03*
X147500000Y-80000000D03*
X146500000Y-80000000D03*
X147000000Y-80500000D03*
X148000000Y-80500000D03*
X148500000Y-81000000D03*
X147500000Y-81000000D03*
X146500000Y-81000000D03*
%TD*%
%TA.AperFunction,Conductor*%
%TO.N,GND*%
G36*
X148759191Y-83258412D02*
G01*
X148795155Y-83307912D01*
X148800000Y-83338505D01*
X148800000Y-85455697D01*
X148798790Y-85463863D01*
X148799364Y-85463903D01*
X148798586Y-85475028D01*
X148795356Y-85485695D01*
X148797071Y-85496708D01*
X148797071Y-85496711D01*
X148799078Y-85509599D01*
X148799635Y-85513749D01*
X148800000Y-85516988D01*
X148800000Y-85522546D01*
X148802683Y-85534307D01*
X148803983Y-85541088D01*
X148805866Y-85553180D01*
X148807950Y-85558388D01*
X148808738Y-85561264D01*
X148809778Y-85565412D01*
X148815150Y-85588962D01*
X148822099Y-85597682D01*
X148826933Y-85607728D01*
X148826466Y-85607953D01*
X148830660Y-85615165D01*
X149799241Y-88036619D01*
X149799961Y-88038929D01*
X149799955Y-88045449D01*
X149804782Y-88055501D01*
X149815391Y-88077595D01*
X149818066Y-88083681D01*
X149822678Y-88095211D01*
X149825834Y-88099777D01*
X149826753Y-88101489D01*
X149828768Y-88105454D01*
X149834628Y-88117658D01*
X149834630Y-88117660D01*
X149839453Y-88127705D01*
X149848155Y-88134664D01*
X149851317Y-88138640D01*
X149855075Y-88142083D01*
X149861411Y-88151250D01*
X149871098Y-88156764D01*
X149880604Y-88162175D01*
X149893461Y-88170896D01*
X149910715Y-88184694D01*
X149921576Y-88187192D01*
X149926152Y-88189404D01*
X149931025Y-88190875D01*
X149940711Y-88196388D01*
X149962742Y-88197909D01*
X149978100Y-88200189D01*
X149999642Y-88205143D01*
X150010517Y-88202682D01*
X150021663Y-88202702D01*
X150021663Y-88202922D01*
X150029575Y-88202589D01*
X150030035Y-88202553D01*
X150031743Y-88202671D01*
X150032229Y-88202477D01*
X150033741Y-88202413D01*
X150249112Y-88217816D01*
X150263088Y-88219827D01*
X150500200Y-88271408D01*
X150513747Y-88275385D01*
X150603110Y-88308716D01*
X150741113Y-88360188D01*
X150753962Y-88366056D01*
X150966938Y-88482351D01*
X150978820Y-88489987D01*
X151173077Y-88635405D01*
X151183753Y-88644655D01*
X151355345Y-88816247D01*
X151364595Y-88826923D01*
X151510013Y-89021180D01*
X151517649Y-89033062D01*
X151633944Y-89246038D01*
X151639812Y-89258887D01*
X151724614Y-89486250D01*
X151728593Y-89499803D01*
X151780173Y-89736909D01*
X151782184Y-89750891D01*
X151799495Y-89992938D01*
X151799495Y-90007062D01*
X151782184Y-90249109D01*
X151780173Y-90263091D01*
X151728593Y-90500197D01*
X151724614Y-90513750D01*
X151639812Y-90741113D01*
X151633944Y-90753962D01*
X151517649Y-90966938D01*
X151510013Y-90978820D01*
X151364595Y-91173077D01*
X151355345Y-91183753D01*
X151183753Y-91355345D01*
X151173077Y-91364595D01*
X150978820Y-91510013D01*
X150966938Y-91517649D01*
X150753962Y-91633944D01*
X150741113Y-91639812D01*
X150603110Y-91691284D01*
X150513747Y-91724615D01*
X150500200Y-91728592D01*
X150263088Y-91780173D01*
X150249112Y-91782184D01*
X150032127Y-91797702D01*
X150022372Y-91796946D01*
X150022371Y-91797374D01*
X150011221Y-91797355D01*
X150000358Y-91794857D01*
X149989486Y-91797317D01*
X149989485Y-91797317D01*
X149988417Y-91797559D01*
X149966568Y-91800000D01*
X145033960Y-91800000D01*
X145011773Y-91797482D01*
X145000358Y-91794857D01*
X144989483Y-91797318D01*
X144978337Y-91797298D01*
X144978338Y-91796985D01*
X144968388Y-91797739D01*
X144750888Y-91782184D01*
X144736912Y-91780173D01*
X144499800Y-91728592D01*
X144486253Y-91724615D01*
X144396890Y-91691284D01*
X144258887Y-91639812D01*
X144246038Y-91633944D01*
X144033062Y-91517649D01*
X144021180Y-91510013D01*
X143826923Y-91364595D01*
X143816247Y-91355345D01*
X143644655Y-91183753D01*
X143635405Y-91173077D01*
X143489987Y-90978820D01*
X143482351Y-90966938D01*
X143366056Y-90753962D01*
X143360188Y-90741113D01*
X143275386Y-90513750D01*
X143271407Y-90500197D01*
X143219827Y-90263091D01*
X143217816Y-90249109D01*
X143200505Y-90007062D01*
X143200505Y-89992938D01*
X143217816Y-89750891D01*
X143219827Y-89736909D01*
X143271407Y-89499803D01*
X143275386Y-89486250D01*
X143360188Y-89258887D01*
X143366056Y-89246038D01*
X143482351Y-89033062D01*
X143489987Y-89021180D01*
X143635405Y-88826923D01*
X143644655Y-88816247D01*
X143816247Y-88644655D01*
X143826923Y-88635405D01*
X144021180Y-88489987D01*
X144033062Y-88482351D01*
X144246038Y-88366056D01*
X144258887Y-88360188D01*
X144396890Y-88308716D01*
X144486253Y-88275385D01*
X144499800Y-88271408D01*
X144736912Y-88219827D01*
X144750888Y-88217816D01*
X144836204Y-88211715D01*
X144966098Y-88202425D01*
X144967587Y-88202489D01*
X144967903Y-88202616D01*
X144968930Y-88202547D01*
X144968933Y-88202547D01*
X144969360Y-88202518D01*
X144970647Y-88202620D01*
X144977628Y-88202920D01*
X144977629Y-88202625D01*
X144988777Y-88202645D01*
X144999642Y-88205143D01*
X145010514Y-88202683D01*
X145010517Y-88202683D01*
X145021440Y-88200211D01*
X145036644Y-88197993D01*
X145043873Y-88197507D01*
X145058945Y-88196493D01*
X145068643Y-88190995D01*
X145073334Y-88189588D01*
X145077763Y-88187466D01*
X145088639Y-88185005D01*
X145106146Y-88171104D01*
X145118871Y-88162520D01*
X145138324Y-88151493D01*
X145144679Y-88142332D01*
X145148306Y-88139021D01*
X145151371Y-88135195D01*
X145160100Y-88128264D01*
X145170545Y-88106706D01*
X145172445Y-88102987D01*
X145174065Y-88099975D01*
X145177256Y-88095376D01*
X145179336Y-88090177D01*
X145181744Y-88084157D01*
X145184569Y-88077761D01*
X145195022Y-88056185D01*
X145195022Y-88056184D01*
X145199885Y-88046147D01*
X145199903Y-88039313D01*
X145200706Y-88036749D01*
X146169243Y-85615410D01*
X146173398Y-85608277D01*
X146172880Y-85608027D01*
X146177731Y-85597991D01*
X146184694Y-85589285D01*
X146190114Y-85565716D01*
X146191138Y-85561661D01*
X146192007Y-85558501D01*
X146194069Y-85553345D01*
X146194968Y-85547641D01*
X146195947Y-85541429D01*
X146197257Y-85534659D01*
X146198744Y-85528189D01*
X146198745Y-85528182D01*
X146200000Y-85522723D01*
X146200000Y-85517123D01*
X146200342Y-85514110D01*
X146200913Y-85509895D01*
X146204668Y-85486053D01*
X146201455Y-85475377D01*
X146200697Y-85464254D01*
X146201215Y-85464219D01*
X146200000Y-85455968D01*
X146200000Y-83338505D01*
X146218907Y-83280314D01*
X146268407Y-83244350D01*
X146299000Y-83239505D01*
X148701000Y-83239505D01*
X148759191Y-83258412D01*
G37*
%TD.AperFunction*%
%TA.AperFunction,Conductor*%
G36*
X149988227Y-73202518D02*
G01*
X149999642Y-73205143D01*
X150010517Y-73202682D01*
X150021663Y-73202702D01*
X150021662Y-73203015D01*
X150031612Y-73202261D01*
X150249112Y-73217816D01*
X150263088Y-73219827D01*
X150500200Y-73271408D01*
X150513747Y-73275385D01*
X150603110Y-73308716D01*
X150741113Y-73360188D01*
X150753962Y-73366056D01*
X150966938Y-73482351D01*
X150978820Y-73489987D01*
X151173077Y-73635405D01*
X151183753Y-73644655D01*
X151355345Y-73816247D01*
X151364595Y-73826923D01*
X151510013Y-74021180D01*
X151517649Y-74033062D01*
X151633944Y-74246038D01*
X151639812Y-74258887D01*
X151724614Y-74486250D01*
X151728593Y-74499803D01*
X151780173Y-74736909D01*
X151782184Y-74750891D01*
X151799495Y-74992938D01*
X151799495Y-75007062D01*
X151782184Y-75249109D01*
X151780173Y-75263091D01*
X151728593Y-75500197D01*
X151724614Y-75513750D01*
X151639812Y-75741113D01*
X151633944Y-75753962D01*
X151517649Y-75966938D01*
X151510013Y-75978820D01*
X151364595Y-76173077D01*
X151355345Y-76183753D01*
X151183753Y-76355345D01*
X151173077Y-76364595D01*
X150978820Y-76510013D01*
X150966938Y-76517649D01*
X150753962Y-76633944D01*
X150741113Y-76639812D01*
X150603110Y-76691284D01*
X150513747Y-76724615D01*
X150500200Y-76728592D01*
X150263088Y-76780173D01*
X150249112Y-76782184D01*
X150163796Y-76788285D01*
X150033902Y-76797575D01*
X150032414Y-76797512D01*
X150032096Y-76797384D01*
X150030641Y-76797482D01*
X150029379Y-76797381D01*
X150022372Y-76797081D01*
X150022371Y-76797375D01*
X150011223Y-76797355D01*
X150000358Y-76794857D01*
X149989486Y-76797317D01*
X149989484Y-76797317D01*
X149978557Y-76799790D01*
X149963353Y-76802008D01*
X149962120Y-76802091D01*
X149941054Y-76803508D01*
X149931354Y-76809007D01*
X149926655Y-76810417D01*
X149922235Y-76812535D01*
X149911361Y-76814995D01*
X149902630Y-76821928D01*
X149902629Y-76821928D01*
X149893856Y-76828894D01*
X149881119Y-76837485D01*
X149861675Y-76848508D01*
X149855320Y-76857667D01*
X149851694Y-76860978D01*
X149848628Y-76864805D01*
X149839900Y-76871736D01*
X149829460Y-76893284D01*
X149827554Y-76897014D01*
X149825936Y-76900023D01*
X149822744Y-76904624D01*
X149820665Y-76909822D01*
X149818256Y-76915843D01*
X149815431Y-76922239D01*
X149804978Y-76943815D01*
X149800115Y-76953853D01*
X149800097Y-76960687D01*
X149799295Y-76963246D01*
X149769836Y-77036896D01*
X148830757Y-79384590D01*
X148826602Y-79391723D01*
X148827120Y-79391973D01*
X148822268Y-79402009D01*
X148815306Y-79410715D01*
X148812808Y-79421578D01*
X148812806Y-79421582D01*
X148809886Y-79434280D01*
X148808863Y-79438336D01*
X148807994Y-79441497D01*
X148805931Y-79446655D01*
X148804052Y-79458585D01*
X148802743Y-79465348D01*
X148800000Y-79477277D01*
X148800000Y-79482870D01*
X148799659Y-79485874D01*
X148799085Y-79490112D01*
X148797066Y-79502932D01*
X148795331Y-79513948D01*
X148798544Y-79524626D01*
X148799302Y-79535746D01*
X148798785Y-79535781D01*
X148800000Y-79544035D01*
X148800000Y-81661495D01*
X148781093Y-81719686D01*
X148731593Y-81755650D01*
X148701000Y-81760495D01*
X146299000Y-81760495D01*
X146240809Y-81741588D01*
X146204845Y-81692088D01*
X146200000Y-81661495D01*
X146200000Y-79544303D01*
X146201210Y-79536137D01*
X146200636Y-79536097D01*
X146201414Y-79524972D01*
X146204644Y-79514305D01*
X146200922Y-79490403D01*
X146200365Y-79486249D01*
X146200000Y-79483008D01*
X146200000Y-79477454D01*
X146197315Y-79465680D01*
X146196018Y-79458915D01*
X146194995Y-79452346D01*
X146194995Y-79452345D01*
X146194134Y-79446819D01*
X146192057Y-79441625D01*
X146191262Y-79438726D01*
X146190221Y-79434578D01*
X146187332Y-79421912D01*
X146187329Y-79421906D01*
X146184850Y-79411038D01*
X146177901Y-79402318D01*
X146173067Y-79392275D01*
X146173535Y-79392050D01*
X146169340Y-79384836D01*
X145230165Y-77036896D01*
X145200756Y-76963372D01*
X145200039Y-76961072D01*
X145200045Y-76954551D01*
X145184608Y-76922404D01*
X145181935Y-76916321D01*
X145179389Y-76909955D01*
X145179388Y-76909953D01*
X145177322Y-76904788D01*
X145174158Y-76900211D01*
X145173250Y-76898520D01*
X145171230Y-76894544D01*
X145165373Y-76882346D01*
X145160547Y-76872295D01*
X145151840Y-76865332D01*
X145148673Y-76861350D01*
X145144925Y-76857916D01*
X145138589Y-76848749D01*
X145128902Y-76843235D01*
X145128901Y-76843234D01*
X145119393Y-76837822D01*
X145106535Y-76829101D01*
X145097991Y-76822268D01*
X145097990Y-76822268D01*
X145089285Y-76815306D01*
X145078423Y-76812808D01*
X145073843Y-76810594D01*
X145068976Y-76809125D01*
X145059289Y-76803611D01*
X145048168Y-76802844D01*
X145048166Y-76802843D01*
X145038879Y-76802203D01*
X145037259Y-76802091D01*
X145021885Y-76799807D01*
X145011224Y-76797355D01*
X145011220Y-76797355D01*
X145000358Y-76794857D01*
X144989486Y-76797317D01*
X144978337Y-76797297D01*
X144978337Y-76797078D01*
X144970462Y-76797409D01*
X144969976Y-76797447D01*
X144968257Y-76797328D01*
X144967770Y-76797522D01*
X144966257Y-76797586D01*
X144750888Y-76782184D01*
X144736912Y-76780173D01*
X144499800Y-76728592D01*
X144486253Y-76724615D01*
X144396890Y-76691284D01*
X144258887Y-76639812D01*
X144246038Y-76633944D01*
X144033062Y-76517649D01*
X144021180Y-76510013D01*
X143826923Y-76364595D01*
X143816247Y-76355345D01*
X143644655Y-76183753D01*
X143635405Y-76173077D01*
X143489987Y-75978820D01*
X143482351Y-75966938D01*
X143366056Y-75753962D01*
X143360188Y-75741113D01*
X143275386Y-75513750D01*
X143271407Y-75500197D01*
X143219827Y-75263091D01*
X143217816Y-75249109D01*
X143200505Y-75007062D01*
X143200505Y-74992938D01*
X143217816Y-74750891D01*
X143219827Y-74736909D01*
X143271407Y-74499803D01*
X143275386Y-74486250D01*
X143360188Y-74258887D01*
X143366056Y-74246038D01*
X143482351Y-74033062D01*
X143489987Y-74021180D01*
X143635405Y-73826923D01*
X143644655Y-73816247D01*
X143816247Y-73644655D01*
X143826923Y-73635405D01*
X144021180Y-73489987D01*
X144033062Y-73482351D01*
X144246038Y-73366056D01*
X144258887Y-73360188D01*
X144396890Y-73308716D01*
X144486253Y-73275385D01*
X144499800Y-73271408D01*
X144736912Y-73219827D01*
X144750888Y-73217816D01*
X144967873Y-73202298D01*
X144977628Y-73203054D01*
X144977629Y-73202626D01*
X144988779Y-73202645D01*
X144999642Y-73205143D01*
X145010514Y-73202683D01*
X145010515Y-73202683D01*
X145011583Y-73202441D01*
X145033432Y-73200000D01*
X149966040Y-73200000D01*
X149988227Y-73202518D01*
G37*
%TD.AperFunction*%
%TD*%
M02*
