M48
; DRILL file {KiCad 6.0.1-79c1e3a40b~116~ubuntu20.04.1} date pon, 24 sty 2022, 11:35:33
; FORMAT={-:-/ absolute / inch / decimal}
; #@! TF.CreationDate,2022-01-24T11:35:33+01:00
; #@! TF.GenerationSoftware,Kicad,Pcbnew,6.0.1-79c1e3a40b~116~ubuntu20.04.1
; #@! TF.FileFunction,Plated,1,2,PTH
FMAT,2
INCH
; #@! TA.AperFunction,Plated,PTH,ViaDrill
T1C0.0157
; #@! TA.AperFunction,Plated,PTH,ComponentDrill
T2C0.0866
%
G90
G05
T1
X5.7283Y-3.1496
X5.7283Y-3.189
X5.7283Y-3.3071
X5.7283Y-3.3465
X5.748Y-3.1693
X5.748Y-3.3268
X5.7677Y-3.1496
X5.7677Y-3.189
X5.7677Y-3.3071
X5.7677Y-3.3465
X5.7874Y-3.1693
X5.7874Y-3.3268
X5.8071Y-3.1496
X5.8071Y-3.189
X5.8071Y-3.3071
X5.8071Y-3.3465
X5.8268Y-3.1693
X5.8268Y-3.3268
X5.8465Y-3.1496
X5.8465Y-3.189
X5.8465Y-3.3071
X5.8465Y-3.3465
X5.8661Y-3.1693
X5.8661Y-3.3268
X5.8858Y-3.1496
X5.8858Y-3.189
X5.8858Y-3.3071
X5.8858Y-3.3465
T2
X5.7087Y-2.9528
X5.7087Y-3.5433
X5.9055Y-2.9528
X5.9055Y-3.5433
T0
M30
