M48
; DRILL file {KiCad 6.0.1-79c1e3a40b~116~ubuntu20.04.1} date sob, 22 sty 2022, 19:34:00
; FORMAT={-:-/ absolute / metric / decimal}
; #@! TF.CreationDate,2022-01-22T19:34:00+01:00
; #@! TF.GenerationSoftware,Kicad,Pcbnew,6.0.1-79c1e3a40b~116~ubuntu20.04.1
; #@! TF.FileFunction,Plated,1,2,PTH
FMAT,2
METRIC
; #@! TA.AperFunction,Plated,PTH,ViaDrill
T1C0.400
; #@! TA.AperFunction,Plated,PTH,ComponentDrill
T2C2.200
%
G90
G05
T1
X146.5Y-80.0
X146.5Y-81.0
X146.5Y-84.0
X146.5Y-85.0
X147.0Y-80.5
X147.0Y-84.5
X147.5Y-80.0
X147.5Y-81.0
X147.5Y-84.0
X147.5Y-85.0
X148.0Y-80.5
X148.0Y-84.5
X148.5Y-80.0
X148.5Y-81.0
X148.5Y-84.0
X148.5Y-85.0
T2
X145.0Y-75.0
X145.0Y-90.0
X150.0Y-75.0
X150.0Y-90.0
T0
M30
