%FSLAX45Y45*%
G04 Gerber Fmt 4.5, Leading zero omitted, Abs format (unit mm)*
G04 Created by KiCad (PCBNEW 6.0.1-79c1e3a40b~116~ubuntu20.04.1) date 2022-01-22 19:34:00*
%MOMM*%
%LPD*%
G01*
G04 APERTURE LIST*
%TA.AperFunction,Profile*%
%ADD10C,0.100000*%
%TD*%
%ADD11C,0.200000*%
G04 APERTURE END LIST*
D10*
X14900000Y-8550000D02*
X15000000Y-8800000D01*
X14900000Y-7950000D02*
X14900000Y-8550000D01*
X15000000Y-7700000D02*
X14900000Y-7950000D01*
X14600000Y-8550000D02*
X14500000Y-8800000D01*
X14600000Y-7950000D02*
X14600000Y-8550000D01*
X14500000Y-7700000D02*
X14600000Y-7950000D01*
X14500000Y-7300000D02*
X15000000Y-7300000D01*
X14500000Y-9200000D02*
X15000000Y-9200000D01*
X14500000Y-8800000D02*
G75*
G03*
X14500000Y-9200000I0J-200000D01*
G01*
X15000000Y-9200000D02*
G75*
G03*
X15000000Y-8800000I0J200000D01*
G01*
X15000000Y-7700000D02*
G75*
G03*
X15000000Y-7300000I0J200000D01*
G01*
X14500000Y-7300000D02*
G75*
G03*
X14500000Y-7700000I0J-200000D01*
G01*
D11*
X14552619Y-9515476D02*
X14552619Y-9315476D01*
X14600238Y-9315476D01*
X14628809Y-9325000D01*
X14647857Y-9344048D01*
X14657381Y-9363095D01*
X14666905Y-9401190D01*
X14666905Y-9429762D01*
X14657381Y-9467857D01*
X14647857Y-9486905D01*
X14628809Y-9505952D01*
X14600238Y-9515476D01*
X14552619Y-9515476D01*
X14752619Y-9515476D02*
X14752619Y-9382143D01*
X14752619Y-9420238D02*
X14762143Y-9401190D01*
X14771667Y-9391667D01*
X14790714Y-9382143D01*
X14809762Y-9382143D01*
X14876428Y-9515476D02*
X14876428Y-9382143D01*
X14876428Y-9315476D02*
X14866905Y-9325000D01*
X14876428Y-9334524D01*
X14885952Y-9325000D01*
X14876428Y-9315476D01*
X14876428Y-9334524D01*
X15000238Y-9515476D02*
X14981190Y-9505952D01*
X14971667Y-9486905D01*
X14971667Y-9315476D01*
X15105000Y-9515476D02*
X15085952Y-9505952D01*
X15076428Y-9486905D01*
X15076428Y-9315476D01*
X15333571Y-9515476D02*
X15333571Y-9315476D01*
X15400238Y-9458333D01*
X15466905Y-9315476D01*
X15466905Y-9515476D01*
X15647857Y-9515476D02*
X15647857Y-9410714D01*
X15638333Y-9391667D01*
X15619286Y-9382143D01*
X15581190Y-9382143D01*
X15562143Y-9391667D01*
X15647857Y-9505952D02*
X15628809Y-9515476D01*
X15581190Y-9515476D01*
X15562143Y-9505952D01*
X15552619Y-9486905D01*
X15552619Y-9467857D01*
X15562143Y-9448810D01*
X15581190Y-9439286D01*
X15628809Y-9439286D01*
X15647857Y-9429762D01*
X15743095Y-9382143D02*
X15743095Y-9582143D01*
X15743095Y-9391667D02*
X15762143Y-9382143D01*
X15800238Y-9382143D01*
X15819286Y-9391667D01*
X15828809Y-9401190D01*
X15838333Y-9420238D01*
X15838333Y-9477381D01*
X15828809Y-9496429D01*
X15819286Y-9505952D01*
X15800238Y-9515476D01*
X15762143Y-9515476D01*
X15743095Y-9505952D01*
X15924048Y-9496429D02*
X15933571Y-9505952D01*
X15924048Y-9515476D01*
X15914524Y-9505952D01*
X15924048Y-9496429D01*
X15924048Y-9515476D01*
X15924048Y-9391667D02*
X15933571Y-9401190D01*
X15924048Y-9410714D01*
X15914524Y-9401190D01*
X15924048Y-9391667D01*
X15924048Y-9410714D01*
M02*
