%TF.GenerationSoftware,KiCad,Pcbnew,6.0.9+dfsg-1~bpo11+1*%
%TF.CreationDate,2022-11-28T09:51:56+01:00*%
%TF.ProjectId,017-johnson-counter,3031372d-6a6f-4686-9e73-6f6e2d636f75,1*%
%TF.SameCoordinates,Original*%
%TF.FileFunction,Copper,L1,Top*%
%TF.FilePolarity,Positive*%
%FSLAX46Y46*%
G04 Gerber Fmt 4.6, Leading zero omitted, Abs format (unit mm)*
G04 Created by KiCad (PCBNEW 6.0.9+dfsg-1~bpo11+1) date 2022-11-28 09:51:56*
%MOMM*%
%LPD*%
G01*
G04 APERTURE LIST*
G04 Aperture macros list*
%AMRoundRect*
0 Rectangle with rounded corners*
0 $1 Rounding radius*
0 $2 $3 $4 $5 $6 $7 $8 $9 X,Y pos of 4 corners*
0 Add a 4 corners polygon primitive as box body*
4,1,4,$2,$3,$4,$5,$6,$7,$8,$9,$2,$3,0*
0 Add four circle primitives for the rounded corners*
1,1,$1+$1,$2,$3*
1,1,$1+$1,$4,$5*
1,1,$1+$1,$6,$7*
1,1,$1+$1,$8,$9*
0 Add four rect primitives between the rounded corners*
20,1,$1+$1,$2,$3,$4,$5,0*
20,1,$1+$1,$4,$5,$6,$7,0*
20,1,$1+$1,$6,$7,$8,$9,0*
20,1,$1+$1,$8,$9,$2,$3,0*%
G04 Aperture macros list end*
%TA.AperFunction,ComponentPad*%
%ADD10C,1.400000*%
%TD*%
%TA.AperFunction,SMDPad,CuDef*%
%ADD11RoundRect,0.200000X-0.200000X-0.275000X0.200000X-0.275000X0.200000X0.275000X-0.200000X0.275000X0*%
%TD*%
%TA.AperFunction,SMDPad,CuDef*%
%ADD12RoundRect,0.225000X0.250000X-0.225000X0.250000X0.225000X-0.250000X0.225000X-0.250000X-0.225000X0*%
%TD*%
%TA.AperFunction,SMDPad,CuDef*%
%ADD13RoundRect,0.100000X-0.100000X0.637500X-0.100000X-0.637500X0.100000X-0.637500X0.100000X0.637500X0*%
%TD*%
%TA.AperFunction,SMDPad,CuDef*%
%ADD14R,3.000000X0.800000*%
%TD*%
%TA.AperFunction,ComponentPad*%
%ADD15C,0.800000*%
%TD*%
%TA.AperFunction,SMDPad,CuDef*%
%ADD16R,3.000000X2.000000*%
%TD*%
%TA.AperFunction,ComponentPad*%
%ADD17C,3.400000*%
%TD*%
%TA.AperFunction,SMDPad,CuDef*%
%ADD18R,0.800000X3.000000*%
%TD*%
%TA.AperFunction,SMDPad,CuDef*%
%ADD19R,2.000000X3.000000*%
%TD*%
%TA.AperFunction,ViaPad*%
%ADD20C,0.800000*%
%TD*%
%TA.AperFunction,Conductor*%
%ADD21C,0.200000*%
%TD*%
%TA.AperFunction,Conductor*%
%ADD22C,0.800000*%
%TD*%
G04 APERTURE END LIST*
D10*
%TO.P,J4,1*%
%TO.N,/VCC*%
X157500000Y-77500000D03*
%TD*%
D11*
%TO.P,R3,1*%
%TO.N,GND*%
X158356800Y-88341200D03*
%TO.P,R3,2*%
%TO.N,/CLK*%
X160006800Y-88341200D03*
%TD*%
%TO.P,R2,1*%
%TO.N,/I*%
X164884600Y-84988400D03*
%TO.P,R2,2*%
%TO.N,Net-(J3-Pad1)*%
X166534600Y-84988400D03*
%TD*%
%TO.P,R1,1*%
%TO.N,Net-(J2-Pad1)*%
X153454600Y-84988400D03*
%TO.P,R1,2*%
%TO.N,/Q*%
X155104600Y-84988400D03*
%TD*%
D12*
%TO.P,C1,1*%
%TO.N,/VCC*%
X163423600Y-86525400D03*
%TO.P,C1,2*%
%TO.N,GND*%
X163423600Y-84975400D03*
%TD*%
D13*
%TO.P,U1,1,~{R}*%
%TO.N,/VCC*%
X161817600Y-80830500D03*
%TO.P,U1,2,D*%
%TO.N,/Q*%
X161167600Y-80830500D03*
%TO.P,U1,3,C*%
%TO.N,/CLK*%
X160517600Y-80830500D03*
%TO.P,U1,4,~{S}*%
%TO.N,/VCC*%
X159867600Y-80830500D03*
%TO.P,U1,5,Q*%
%TO.N,/I*%
X159217600Y-80830500D03*
%TO.P,U1,6,~{Q}*%
%TO.N,unconnected-(U1-Pad6)*%
X158567600Y-80830500D03*
%TO.P,U1,7,GND*%
%TO.N,GND*%
X157917600Y-80830500D03*
%TO.P,U1,8,~{Q}*%
%TO.N,/Q*%
X157917600Y-86555500D03*
%TO.P,U1,9,Q*%
%TO.N,unconnected-(U1-Pad9)*%
X158567600Y-86555500D03*
%TO.P,U1,10,~{S}*%
%TO.N,/VCC*%
X159217600Y-86555500D03*
%TO.P,U1,11,C*%
%TO.N,/CLK*%
X159867600Y-86555500D03*
%TO.P,U1,12,D*%
%TO.N,/I*%
X160517600Y-86555500D03*
%TO.P,U1,13,~{R}*%
%TO.N,/VCC*%
X161167600Y-86555500D03*
%TO.P,U1,14,VCC*%
X161817600Y-86555500D03*
%TD*%
D14*
%TO.P,J3,1,Pin_1*%
%TO.N,Net-(J3-Pad1)*%
X168500000Y-85000000D03*
D15*
%TO.P,J3,2,Pin_2*%
%TO.N,GND*%
X168000000Y-83500000D03*
X168000000Y-86500000D03*
X169500000Y-86000000D03*
D16*
X168500000Y-83400000D03*
D15*
X167500000Y-86000000D03*
X169000000Y-86500000D03*
X169000000Y-83500000D03*
X169500000Y-84000000D03*
X168500000Y-84000000D03*
X168500000Y-86000000D03*
D16*
X168500000Y-86600000D03*
D15*
X167500000Y-84000000D03*
%TD*%
D17*
%TO.P,H1,1,1*%
%TO.N,GND*%
X152500000Y-77500000D03*
%TD*%
%TO.P,H2,1,1*%
%TO.N,GND*%
X152500000Y-92500000D03*
%TD*%
%TO.P,H4,1,1*%
%TO.N,GND*%
X167500000Y-77500000D03*
%TD*%
D14*
%TO.P,J2,1,Pin_1*%
%TO.N,Net-(J2-Pad1)*%
X151500000Y-85000000D03*
D15*
%TO.P,J2,2,Pin_2*%
%TO.N,GND*%
X151000000Y-83500000D03*
X152000000Y-83500000D03*
X151500000Y-84000000D03*
X151500000Y-86000000D03*
X152000000Y-86500000D03*
X152500000Y-84000000D03*
X152500000Y-86000000D03*
X150500000Y-86000000D03*
D16*
X151500000Y-83400000D03*
X151500000Y-86600000D03*
D15*
X151000000Y-86500000D03*
X150500000Y-84000000D03*
%TD*%
D17*
%TO.P,H3,1,1*%
%TO.N,GND*%
X167500000Y-92500000D03*
%TD*%
D18*
%TO.P,J1,1,Pin_1*%
%TO.N,/CLK*%
X160000000Y-93500000D03*
D15*
%TO.P,J1,2,Pin_2*%
%TO.N,GND*%
X158500000Y-93000000D03*
D19*
X161600000Y-93500000D03*
D15*
X161500000Y-93000000D03*
X161000000Y-92500000D03*
X159000000Y-93500000D03*
X161000000Y-93500000D03*
X161000000Y-94500000D03*
X158500000Y-94000000D03*
X159000000Y-92500000D03*
D19*
X158400000Y-93500000D03*
D15*
X159000000Y-94500000D03*
X161500000Y-94000000D03*
%TD*%
D20*
%TO.N,GND*%
X162500000Y-82500000D03*
X160000000Y-77500000D03*
X155000000Y-80000000D03*
X155000000Y-82500000D03*
X155000000Y-87500000D03*
X155000000Y-90000000D03*
X157500000Y-90000000D03*
X162500000Y-90000000D03*
X165000000Y-90000000D03*
X165000000Y-87500000D03*
X165000000Y-82500000D03*
X165000000Y-80000000D03*
X167500000Y-80000000D03*
X167500000Y-82500000D03*
X167500000Y-87500000D03*
X167500000Y-90000000D03*
X162500000Y-92500000D03*
X165000000Y-92500000D03*
X157500000Y-92500000D03*
X155000000Y-92500000D03*
X152500000Y-87500000D03*
X152500000Y-90000000D03*
X152500000Y-82500000D03*
X152500000Y-80000000D03*
X155000000Y-77500000D03*
X165000000Y-77500000D03*
X157149800Y-80797400D03*
X158369000Y-88341200D03*
X163423600Y-84963000D03*
%TO.N,/I*%
X160519500Y-85016966D03*
X157265700Y-85010474D03*
%TO.N,/Q*%
X158565700Y-84074000D03*
X160519500Y-84065063D03*
%TD*%
D21*
%TO.N,/VCC*%
X159867600Y-80830500D02*
X159867600Y-79867600D01*
X159867600Y-79867600D02*
X157500000Y-77500000D01*
D22*
%TO.N,Net-(J3-Pad1)*%
X168500000Y-85000000D02*
X166546200Y-85000000D01*
X166546200Y-85000000D02*
X166534600Y-84988400D01*
%TO.N,Net-(J2-Pad1)*%
X151500000Y-85000000D02*
X153443000Y-85000000D01*
X153443000Y-85000000D02*
X153454600Y-84988400D01*
%TO.N,/CLK*%
X160000000Y-93500000D02*
X160000000Y-88461400D01*
D21*
X159867600Y-86555500D02*
X159867600Y-88329000D01*
X159867600Y-88329000D02*
X159879800Y-88341200D01*
%TO.N,/VCC*%
X163423600Y-86525400D02*
X161847700Y-86525400D01*
X161847700Y-86525400D02*
X161817600Y-86555500D01*
%TO.N,/I*%
X164884600Y-84988400D02*
X164884600Y-86214546D01*
X164884600Y-86214546D02*
X163553746Y-87545400D01*
X160921631Y-87545400D02*
X160517600Y-87141369D01*
X163553746Y-87545400D02*
X160921631Y-87545400D01*
%TO.N,/Q*%
X155104600Y-84988400D02*
X156671700Y-86555500D01*
X156671700Y-86555500D02*
X157917600Y-86555500D01*
%TO.N,/I*%
X160517600Y-86555500D02*
X160517600Y-87141369D01*
%TO.N,/Q*%
X155130000Y-84963000D02*
X155104600Y-84988400D01*
%TO.N,/VCC*%
X159867600Y-80830500D02*
X159867600Y-80244631D01*
X159867600Y-80244631D02*
X160271631Y-79840600D01*
X160271631Y-79840600D02*
X161476200Y-79840600D01*
X161476200Y-79840600D02*
X161817600Y-80182000D01*
X161817600Y-80182000D02*
X161817600Y-80830500D01*
%TO.N,/I*%
X157265700Y-84415300D02*
X159217600Y-82463400D01*
X160517600Y-85018866D02*
X160519500Y-85016966D01*
X160517600Y-86555500D02*
X160517600Y-85018866D01*
X159217600Y-82463400D02*
X159217600Y-80830500D01*
X157265700Y-85010474D02*
X157265700Y-84415300D01*
%TO.N,/Q*%
X161167600Y-80830500D02*
X161167600Y-83416963D01*
X161167600Y-83416963D02*
X160519500Y-84065063D01*
X158565700Y-84074000D02*
X157917600Y-84722100D01*
X157917600Y-84722100D02*
X157917600Y-86555500D01*
%TO.N,/VCC*%
X159217600Y-83504800D02*
X159867600Y-82854800D01*
X159217600Y-86555500D02*
X159217600Y-83504800D01*
X159867600Y-82854800D02*
X159867600Y-80830500D01*
X161817600Y-80830500D02*
X161817600Y-86555500D01*
X161167600Y-86555500D02*
X161817600Y-86555500D01*
%TO.N,/CLK*%
X160517600Y-83144600D02*
X159867600Y-83794600D01*
X160517600Y-80830500D02*
X160517600Y-83144600D01*
X159867600Y-83794600D02*
X159867600Y-86555500D01*
%TD*%
%TA.AperFunction,Conductor*%
%TO.N,GND*%
G36*
X167488169Y-75203018D02*
G01*
X167499641Y-75205656D01*
X167510517Y-75203195D01*
X167521664Y-75203214D01*
X167521664Y-75203243D01*
X167531772Y-75202422D01*
X167661986Y-75210298D01*
X167771204Y-75216905D01*
X167783056Y-75218344D01*
X168044422Y-75266241D01*
X168056015Y-75269098D01*
X168262244Y-75333361D01*
X168309695Y-75348148D01*
X168320873Y-75352387D01*
X168563170Y-75461436D01*
X168573756Y-75466992D01*
X168801142Y-75604452D01*
X168810980Y-75611243D01*
X169020132Y-75775103D01*
X169029081Y-75783030D01*
X169216970Y-75970919D01*
X169224897Y-75979868D01*
X169388757Y-76189020D01*
X169395548Y-76198858D01*
X169533008Y-76426244D01*
X169538564Y-76436830D01*
X169647613Y-76679127D01*
X169651852Y-76690305D01*
X169730900Y-76943977D01*
X169733759Y-76955578D01*
X169781655Y-77216936D01*
X169783095Y-77228796D01*
X169788113Y-77311744D01*
X169797547Y-77467712D01*
X169796724Y-77477628D01*
X169796862Y-77477628D01*
X169796842Y-77488776D01*
X169794344Y-77499641D01*
X169796804Y-77510513D01*
X169797059Y-77511638D01*
X169799500Y-77533488D01*
X169799500Y-84300500D01*
X169780593Y-84358691D01*
X169731093Y-84394655D01*
X169700500Y-84399500D01*
X167022512Y-84399500D01*
X166973797Y-84383673D01*
X166972942Y-84385350D01*
X166866844Y-84331290D01*
X166866843Y-84331290D01*
X166859904Y-84327754D01*
X166852210Y-84326535D01*
X166852209Y-84326535D01*
X166769965Y-84313509D01*
X166769963Y-84313509D01*
X166766119Y-84312900D01*
X166534630Y-84312900D01*
X166303082Y-84312901D01*
X166299239Y-84313510D01*
X166299234Y-84313510D01*
X166262383Y-84319347D01*
X166209296Y-84327754D01*
X166166751Y-84349432D01*
X166103197Y-84381814D01*
X166103195Y-84381815D01*
X166096258Y-84385350D01*
X166006550Y-84475058D01*
X166003015Y-84481995D01*
X166003014Y-84481997D01*
X165978873Y-84529377D01*
X165948954Y-84588096D01*
X165947735Y-84595790D01*
X165947735Y-84595791D01*
X165937717Y-84659044D01*
X165934100Y-84681881D01*
X165934100Y-84942548D01*
X165933253Y-84955467D01*
X165928918Y-84988400D01*
X165929765Y-84994833D01*
X165933254Y-85021333D01*
X165934101Y-85034252D01*
X165934101Y-85294918D01*
X165934710Y-85298761D01*
X165934710Y-85298766D01*
X165937093Y-85313812D01*
X165948954Y-85388704D01*
X165971831Y-85433603D01*
X166002677Y-85494140D01*
X166006550Y-85501742D01*
X166096258Y-85591450D01*
X166103195Y-85594985D01*
X166103197Y-85594986D01*
X166188090Y-85638241D01*
X166209296Y-85649046D01*
X166216990Y-85650265D01*
X166216991Y-85650265D01*
X166299235Y-85663291D01*
X166299237Y-85663291D01*
X166303081Y-85663900D01*
X166534570Y-85663900D01*
X166766118Y-85663899D01*
X166769961Y-85663290D01*
X166769966Y-85663290D01*
X166852209Y-85650265D01*
X166852211Y-85650264D01*
X166859904Y-85649046D01*
X166934005Y-85611289D01*
X166978947Y-85600500D01*
X169700500Y-85600500D01*
X169758691Y-85619407D01*
X169794655Y-85668907D01*
X169799500Y-85699500D01*
X169799500Y-92465983D01*
X169796982Y-92488169D01*
X169794344Y-92499641D01*
X169796805Y-92510517D01*
X169796786Y-92521664D01*
X169796757Y-92521664D01*
X169797578Y-92531772D01*
X169783096Y-92771197D01*
X169781656Y-92783056D01*
X169733761Y-93044415D01*
X169730900Y-93056023D01*
X169651852Y-93309695D01*
X169647613Y-93320873D01*
X169538564Y-93563170D01*
X169533008Y-93573756D01*
X169395548Y-93801142D01*
X169388757Y-93810980D01*
X169224897Y-94020132D01*
X169216970Y-94029081D01*
X169029081Y-94216970D01*
X169020132Y-94224897D01*
X168810980Y-94388757D01*
X168801142Y-94395548D01*
X168573756Y-94533008D01*
X168563170Y-94538564D01*
X168320873Y-94647613D01*
X168309695Y-94651852D01*
X168056015Y-94730902D01*
X168044422Y-94733759D01*
X167783056Y-94781656D01*
X167771204Y-94783095D01*
X167532288Y-94797547D01*
X167522372Y-94796724D01*
X167522372Y-94796862D01*
X167511224Y-94796842D01*
X167500359Y-94794344D01*
X167488359Y-94797059D01*
X167466512Y-94799500D01*
X160699500Y-94799500D01*
X160641309Y-94780593D01*
X160605345Y-94731093D01*
X160600500Y-94700500D01*
X160600500Y-88698443D01*
X160601719Y-88682956D01*
X160606691Y-88651565D01*
X160606691Y-88651563D01*
X160607300Y-88647719D01*
X160607299Y-88034682D01*
X160592446Y-87940896D01*
X160564868Y-87886771D01*
X160555297Y-87826339D01*
X160583074Y-87771822D01*
X160637591Y-87744045D01*
X160698023Y-87753616D01*
X160723082Y-87771822D01*
X160728908Y-87777648D01*
X160732618Y-87780193D01*
X160736531Y-87783629D01*
X160758277Y-87803801D01*
X160766765Y-87807188D01*
X160766766Y-87807188D01*
X160768967Y-87808066D01*
X160788283Y-87818380D01*
X160790238Y-87819721D01*
X160790241Y-87819722D01*
X160797777Y-87824892D01*
X160823689Y-87831041D01*
X160837515Y-87835414D01*
X160855763Y-87842694D01*
X160855765Y-87842694D01*
X160862253Y-87845283D01*
X160868546Y-87845900D01*
X160874715Y-87845900D01*
X160897574Y-87848575D01*
X160897804Y-87848630D01*
X160897806Y-87848630D01*
X160906697Y-87850740D01*
X160935619Y-87846804D01*
X160948968Y-87845900D01*
X163500238Y-87845900D01*
X163504363Y-87846203D01*
X163509088Y-87847825D01*
X163558507Y-87845970D01*
X163562220Y-87845900D01*
X163581694Y-87845900D01*
X163586124Y-87845075D01*
X163591317Y-87844739D01*
X163607348Y-87844137D01*
X163611821Y-87843969D01*
X163620954Y-87843626D01*
X163629348Y-87840020D01*
X163629351Y-87840019D01*
X163631529Y-87839083D01*
X163652480Y-87832717D01*
X163663799Y-87830609D01*
X163686475Y-87816632D01*
X163699342Y-87809948D01*
X163717388Y-87802195D01*
X163717389Y-87802194D01*
X163723809Y-87799436D01*
X163728695Y-87795422D01*
X163733059Y-87791058D01*
X163751114Y-87776787D01*
X163759094Y-87771868D01*
X163776764Y-87748631D01*
X163785556Y-87738561D01*
X165059251Y-86464866D01*
X165062380Y-86462166D01*
X165066869Y-86459971D01*
X165100493Y-86423724D01*
X165103069Y-86421048D01*
X165116848Y-86407269D01*
X165119393Y-86403559D01*
X165122829Y-86399646D01*
X165136787Y-86384599D01*
X165143001Y-86377900D01*
X165146388Y-86369412D01*
X165147267Y-86367209D01*
X165157578Y-86347898D01*
X165158922Y-86345939D01*
X165158923Y-86345936D01*
X165164093Y-86338400D01*
X165170244Y-86312480D01*
X165174614Y-86298661D01*
X165184483Y-86273924D01*
X165185100Y-86267631D01*
X165185100Y-86261461D01*
X165187775Y-86238602D01*
X165187830Y-86238372D01*
X165189940Y-86229480D01*
X165186004Y-86200558D01*
X165185100Y-86187209D01*
X165185100Y-85722352D01*
X165204007Y-85664161D01*
X165239155Y-85634143D01*
X165315998Y-85594989D01*
X165316002Y-85594986D01*
X165322942Y-85591450D01*
X165412650Y-85501742D01*
X165416524Y-85494140D01*
X165466710Y-85395644D01*
X165466710Y-85395643D01*
X165470246Y-85388704D01*
X165482187Y-85313315D01*
X165484491Y-85298765D01*
X165484491Y-85298763D01*
X165485100Y-85294919D01*
X165485099Y-84681882D01*
X165482431Y-84665031D01*
X165478653Y-84641183D01*
X165470246Y-84588096D01*
X165418194Y-84485938D01*
X165416186Y-84481997D01*
X165416185Y-84481995D01*
X165412650Y-84475058D01*
X165322942Y-84385350D01*
X165316005Y-84381815D01*
X165316003Y-84381814D01*
X165216844Y-84331290D01*
X165216843Y-84331290D01*
X165209904Y-84327754D01*
X165202210Y-84326535D01*
X165202209Y-84326535D01*
X165119965Y-84313509D01*
X165119963Y-84313509D01*
X165116119Y-84312900D01*
X164884630Y-84312900D01*
X164653082Y-84312901D01*
X164649239Y-84313510D01*
X164649234Y-84313510D01*
X164612383Y-84319347D01*
X164559296Y-84327754D01*
X164516751Y-84349432D01*
X164453197Y-84381814D01*
X164453195Y-84381815D01*
X164446258Y-84385350D01*
X164356550Y-84475058D01*
X164353015Y-84481995D01*
X164353014Y-84481997D01*
X164328873Y-84529377D01*
X164298954Y-84588096D01*
X164297735Y-84595790D01*
X164297735Y-84595791D01*
X164287717Y-84659044D01*
X164284100Y-84681881D01*
X164284101Y-85294918D01*
X164284710Y-85298761D01*
X164284710Y-85298766D01*
X164287093Y-85313812D01*
X164298954Y-85388704D01*
X164321831Y-85433603D01*
X164352677Y-85494140D01*
X164356550Y-85501742D01*
X164446258Y-85591450D01*
X164453198Y-85594986D01*
X164453202Y-85594989D01*
X164530045Y-85634143D01*
X164573310Y-85677407D01*
X164584100Y-85722352D01*
X164584100Y-86049066D01*
X164565193Y-86107257D01*
X164555104Y-86119070D01*
X164268104Y-86406070D01*
X164213587Y-86433847D01*
X164153155Y-86424276D01*
X164109890Y-86381011D01*
X164099100Y-86336066D01*
X164099100Y-86266912D01*
X164094219Y-86236093D01*
X164084538Y-86174969D01*
X164084538Y-86174968D01*
X164083319Y-86167274D01*
X164022128Y-86047180D01*
X163926820Y-85951872D01*
X163919883Y-85948337D01*
X163919881Y-85948336D01*
X163813666Y-85894217D01*
X163813665Y-85894217D01*
X163806726Y-85890681D01*
X163799032Y-85889462D01*
X163799031Y-85889462D01*
X163710934Y-85875509D01*
X163710932Y-85875509D01*
X163707088Y-85874900D01*
X163140112Y-85874900D01*
X163136268Y-85875509D01*
X163136266Y-85875509D01*
X163048169Y-85889462D01*
X163048168Y-85889462D01*
X163040474Y-85890681D01*
X163033535Y-85894217D01*
X163033534Y-85894217D01*
X162927319Y-85948336D01*
X162927317Y-85948337D01*
X162920380Y-85951872D01*
X162825072Y-86047180D01*
X162763881Y-86167274D01*
X162761655Y-86166140D01*
X162732708Y-86205988D01*
X162674511Y-86224900D01*
X162317100Y-86224900D01*
X162258909Y-86205993D01*
X162222945Y-86156493D01*
X162218100Y-86125900D01*
X162218100Y-85873354D01*
X162214982Y-85847154D01*
X162169539Y-85744847D01*
X162147158Y-85722505D01*
X162119332Y-85668012D01*
X162118100Y-85652440D01*
X162118100Y-81733501D01*
X162137007Y-81675310D01*
X162147035Y-81663559D01*
X162163383Y-81647183D01*
X162163385Y-81647181D01*
X162169841Y-81640713D01*
X162215106Y-81538327D01*
X162218100Y-81512646D01*
X162218100Y-80148354D01*
X162214982Y-80122154D01*
X162169539Y-80019847D01*
X162090313Y-79940759D01*
X162061191Y-79927884D01*
X161994736Y-79898504D01*
X161994734Y-79898504D01*
X161987927Y-79895494D01*
X161980533Y-79894632D01*
X161973351Y-79892674D01*
X161974205Y-79889540D01*
X161927517Y-79866946D01*
X161726520Y-79665949D01*
X161723820Y-79662820D01*
X161721625Y-79658331D01*
X161685378Y-79624707D01*
X161682702Y-79622131D01*
X161668923Y-79608352D01*
X161665213Y-79605807D01*
X161661300Y-79602371D01*
X161646255Y-79588415D01*
X161639554Y-79582199D01*
X161628864Y-79577934D01*
X161609548Y-79567620D01*
X161607593Y-79566279D01*
X161607590Y-79566278D01*
X161600054Y-79561108D01*
X161574141Y-79554959D01*
X161560316Y-79550586D01*
X161542068Y-79543306D01*
X161542066Y-79543306D01*
X161535578Y-79540717D01*
X161529285Y-79540100D01*
X161523116Y-79540100D01*
X161500257Y-79537425D01*
X161500027Y-79537370D01*
X161500025Y-79537370D01*
X161491134Y-79535260D01*
X161463374Y-79539038D01*
X161462213Y-79539196D01*
X161448863Y-79540100D01*
X160325139Y-79540100D01*
X160321014Y-79539797D01*
X160316289Y-79538175D01*
X160266870Y-79540030D01*
X160263157Y-79540100D01*
X160243683Y-79540100D01*
X160239253Y-79540925D01*
X160234060Y-79541261D01*
X160218029Y-79541863D01*
X160213556Y-79542031D01*
X160204423Y-79542374D01*
X160196029Y-79545980D01*
X160196026Y-79545981D01*
X160193848Y-79546917D01*
X160172897Y-79553283D01*
X160161578Y-79555391D01*
X160153795Y-79560188D01*
X160153796Y-79560188D01*
X160138903Y-79569368D01*
X160126036Y-79576051D01*
X160101568Y-79586564D01*
X160100390Y-79583822D01*
X160053260Y-79594998D01*
X159996798Y-79571425D01*
X159991300Y-79566329D01*
X158361758Y-77936787D01*
X158333981Y-77882270D01*
X158337607Y-77836190D01*
X158384072Y-77693188D01*
X158384073Y-77693183D01*
X158385674Y-77688256D01*
X158405460Y-77500000D01*
X158385674Y-77311744D01*
X158384073Y-77306817D01*
X158384072Y-77306812D01*
X158328781Y-77136646D01*
X158328780Y-77136645D01*
X158327179Y-77131716D01*
X158232533Y-76967784D01*
X158169821Y-76898135D01*
X158109341Y-76830965D01*
X158109337Y-76830962D01*
X158105871Y-76827112D01*
X157952730Y-76715849D01*
X157947998Y-76713742D01*
X157947996Y-76713741D01*
X157784540Y-76640965D01*
X157784539Y-76640965D01*
X157779803Y-76638856D01*
X157774733Y-76637778D01*
X157774732Y-76637778D01*
X157737390Y-76629841D01*
X157594646Y-76599500D01*
X157405354Y-76599500D01*
X157262610Y-76629841D01*
X157225268Y-76637778D01*
X157225267Y-76637778D01*
X157220197Y-76638856D01*
X157215461Y-76640965D01*
X157215460Y-76640965D01*
X157052004Y-76713741D01*
X157052002Y-76713742D01*
X157047270Y-76715849D01*
X156894129Y-76827112D01*
X156890663Y-76830962D01*
X156890659Y-76830965D01*
X156830179Y-76898135D01*
X156767467Y-76967784D01*
X156672821Y-77131716D01*
X156671220Y-77136645D01*
X156671219Y-77136646D01*
X156615928Y-77306812D01*
X156615927Y-77306817D01*
X156614326Y-77311744D01*
X156594540Y-77500000D01*
X156614326Y-77688256D01*
X156615927Y-77693183D01*
X156615928Y-77693188D01*
X156662393Y-77836190D01*
X156672821Y-77868284D01*
X156767467Y-78032216D01*
X156770939Y-78036072D01*
X156890659Y-78169035D01*
X156890663Y-78169038D01*
X156894129Y-78172888D01*
X157047270Y-78284151D01*
X157052002Y-78286258D01*
X157052004Y-78286259D01*
X157112000Y-78312971D01*
X157220197Y-78361144D01*
X157225267Y-78362222D01*
X157225268Y-78362222D01*
X157262610Y-78370159D01*
X157405354Y-78400500D01*
X157594646Y-78400500D01*
X157737390Y-78370159D01*
X157774732Y-78362222D01*
X157774733Y-78362222D01*
X157779803Y-78361144D01*
X157825842Y-78340646D01*
X157886690Y-78334250D01*
X157936112Y-78361083D01*
X159298525Y-79723496D01*
X159326302Y-79778013D01*
X159316731Y-79838445D01*
X159273466Y-79881710D01*
X159228521Y-79892500D01*
X159072954Y-79892500D01*
X159056551Y-79894452D01*
X159054131Y-79894740D01*
X159054130Y-79894740D01*
X159046754Y-79895618D01*
X158944447Y-79941061D01*
X158943908Y-79941601D01*
X158890002Y-79957568D01*
X158841367Y-79941811D01*
X158840313Y-79940759D01*
X158831956Y-79937064D01*
X158831954Y-79937063D01*
X158744736Y-79898504D01*
X158744734Y-79898504D01*
X158737927Y-79895494D01*
X158723922Y-79893861D01*
X158715094Y-79892832D01*
X158715093Y-79892832D01*
X158712246Y-79892500D01*
X158422954Y-79892500D01*
X158406551Y-79894452D01*
X158404131Y-79894740D01*
X158404130Y-79894740D01*
X158396754Y-79895618D01*
X158294447Y-79941061D01*
X158215359Y-80020287D01*
X158170094Y-80122673D01*
X158167100Y-80148354D01*
X158167100Y-81512646D01*
X158170218Y-81538846D01*
X158215661Y-81641153D01*
X158294887Y-81720241D01*
X158303245Y-81723936D01*
X158390464Y-81762496D01*
X158390466Y-81762496D01*
X158397273Y-81765506D01*
X158404667Y-81766368D01*
X158419978Y-81768153D01*
X158422954Y-81768500D01*
X158712246Y-81768500D01*
X158730161Y-81766368D01*
X158731069Y-81766260D01*
X158731070Y-81766260D01*
X158738446Y-81765382D01*
X158777912Y-81747852D01*
X158838768Y-81741509D01*
X158891729Y-81772149D01*
X158916567Y-81828066D01*
X158917100Y-81838328D01*
X158917100Y-82297921D01*
X158898193Y-82356112D01*
X158888104Y-82367925D01*
X157091049Y-84164980D01*
X157087920Y-84167680D01*
X157083431Y-84169875D01*
X157077213Y-84176578D01*
X157049807Y-84206122D01*
X157047231Y-84208798D01*
X157033452Y-84222577D01*
X157030907Y-84226287D01*
X157027471Y-84230200D01*
X157007299Y-84251946D01*
X157003912Y-84260434D01*
X157003912Y-84260435D01*
X157003034Y-84262636D01*
X156992720Y-84281952D01*
X156991379Y-84283907D01*
X156991378Y-84283910D01*
X156986208Y-84291446D01*
X156981117Y-84312900D01*
X156980059Y-84317358D01*
X156975686Y-84331184D01*
X156975644Y-84331290D01*
X156965817Y-84355922D01*
X156965200Y-84362215D01*
X156965200Y-84368384D01*
X156962525Y-84391243D01*
X156960360Y-84400366D01*
X156961592Y-84409420D01*
X156961592Y-84409424D01*
X156963394Y-84422663D01*
X156952505Y-84482872D01*
X156925566Y-84514554D01*
X156837418Y-84582192D01*
X156741164Y-84707633D01*
X156680656Y-84853712D01*
X156660018Y-85010474D01*
X156680656Y-85167236D01*
X156741164Y-85313315D01*
X156837418Y-85438756D01*
X156962859Y-85535010D01*
X157108938Y-85595518D01*
X157265700Y-85616156D01*
X157422462Y-85595518D01*
X157428460Y-85593034D01*
X157428462Y-85593033D01*
X157462240Y-85579042D01*
X157523236Y-85574241D01*
X157575405Y-85606211D01*
X157598820Y-85662739D01*
X157584536Y-85722234D01*
X157574103Y-85735479D01*
X157571817Y-85738818D01*
X157565359Y-85745287D01*
X157520094Y-85847673D01*
X157517100Y-85873354D01*
X157517100Y-86156000D01*
X157498193Y-86214191D01*
X157448693Y-86250155D01*
X157418100Y-86255000D01*
X156837179Y-86255000D01*
X156778988Y-86236093D01*
X156767175Y-86226004D01*
X155734096Y-85192925D01*
X155706319Y-85138408D01*
X155705100Y-85122921D01*
X155705099Y-84685776D01*
X155705099Y-84681882D01*
X155702431Y-84665031D01*
X155698653Y-84641183D01*
X155690246Y-84588096D01*
X155638194Y-84485938D01*
X155636186Y-84481997D01*
X155636185Y-84481995D01*
X155632650Y-84475058D01*
X155542942Y-84385350D01*
X155536005Y-84381815D01*
X155536003Y-84381814D01*
X155436844Y-84331290D01*
X155436843Y-84331290D01*
X155429904Y-84327754D01*
X155422210Y-84326535D01*
X155422209Y-84326535D01*
X155339965Y-84313509D01*
X155339963Y-84313509D01*
X155336119Y-84312900D01*
X155104630Y-84312900D01*
X154873082Y-84312901D01*
X154869239Y-84313510D01*
X154869234Y-84313510D01*
X154832383Y-84319347D01*
X154779296Y-84327754D01*
X154736751Y-84349432D01*
X154673197Y-84381814D01*
X154673195Y-84381815D01*
X154666258Y-84385350D01*
X154576550Y-84475058D01*
X154573015Y-84481995D01*
X154573014Y-84481997D01*
X154548873Y-84529377D01*
X154518954Y-84588096D01*
X154517735Y-84595790D01*
X154517735Y-84595791D01*
X154507717Y-84659044D01*
X154504100Y-84681881D01*
X154504101Y-85294918D01*
X154504710Y-85298761D01*
X154504710Y-85298766D01*
X154507093Y-85313812D01*
X154518954Y-85388704D01*
X154541831Y-85433603D01*
X154572677Y-85494140D01*
X154576550Y-85501742D01*
X154666258Y-85591450D01*
X154673195Y-85594985D01*
X154673197Y-85594986D01*
X154758090Y-85638241D01*
X154779296Y-85649046D01*
X154786990Y-85650265D01*
X154786991Y-85650265D01*
X154869235Y-85663291D01*
X154869237Y-85663291D01*
X154873081Y-85663900D01*
X154942704Y-85663900D01*
X155314120Y-85663899D01*
X155372311Y-85682806D01*
X155384124Y-85692895D01*
X156421380Y-86730151D01*
X156424080Y-86733280D01*
X156426275Y-86737769D01*
X156432978Y-86743987D01*
X156462522Y-86771393D01*
X156465198Y-86773969D01*
X156478977Y-86787748D01*
X156482687Y-86790293D01*
X156486600Y-86793729D01*
X156508346Y-86813901D01*
X156516834Y-86817288D01*
X156516835Y-86817288D01*
X156519036Y-86818166D01*
X156538352Y-86828480D01*
X156540307Y-86829821D01*
X156540310Y-86829822D01*
X156547846Y-86834992D01*
X156573758Y-86841141D01*
X156587584Y-86845514D01*
X156605832Y-86852794D01*
X156605834Y-86852794D01*
X156612322Y-86855383D01*
X156618615Y-86856000D01*
X156624784Y-86856000D01*
X156647643Y-86858675D01*
X156647873Y-86858730D01*
X156647875Y-86858730D01*
X156656766Y-86860840D01*
X156685688Y-86856904D01*
X156699037Y-86856000D01*
X157418100Y-86856000D01*
X157476291Y-86874907D01*
X157512255Y-86924407D01*
X157517100Y-86955000D01*
X157517100Y-87237646D01*
X157520218Y-87263846D01*
X157565661Y-87366153D01*
X157644887Y-87445241D01*
X157653245Y-87448936D01*
X157740464Y-87487496D01*
X157740466Y-87487496D01*
X157747273Y-87490506D01*
X157754667Y-87491368D01*
X157769978Y-87493153D01*
X157772954Y-87493500D01*
X158062246Y-87493500D01*
X158080161Y-87491368D01*
X158081069Y-87491260D01*
X158081070Y-87491260D01*
X158088446Y-87490382D01*
X158190753Y-87444939D01*
X158191292Y-87444399D01*
X158245198Y-87428432D01*
X158293833Y-87444189D01*
X158294887Y-87445241D01*
X158303244Y-87448936D01*
X158303246Y-87448937D01*
X158390464Y-87487496D01*
X158390466Y-87487496D01*
X158397273Y-87490506D01*
X158404667Y-87491368D01*
X158419978Y-87493153D01*
X158422954Y-87493500D01*
X158712246Y-87493500D01*
X158730161Y-87491368D01*
X158731069Y-87491260D01*
X158731070Y-87491260D01*
X158738446Y-87490382D01*
X158840753Y-87444939D01*
X158841292Y-87444399D01*
X158895198Y-87428432D01*
X158943833Y-87444189D01*
X158944887Y-87445241D01*
X158953244Y-87448936D01*
X158953246Y-87448937D01*
X159040464Y-87487496D01*
X159040466Y-87487496D01*
X159047273Y-87490506D01*
X159054667Y-87491368D01*
X159069978Y-87493153D01*
X159072954Y-87493500D01*
X159362246Y-87493500D01*
X159380161Y-87491368D01*
X159381069Y-87491260D01*
X159381070Y-87491260D01*
X159388446Y-87490382D01*
X159427912Y-87472852D01*
X159488768Y-87466509D01*
X159541729Y-87497149D01*
X159566567Y-87553066D01*
X159567100Y-87563328D01*
X159567100Y-87698500D01*
X159548193Y-87756691D01*
X159538104Y-87768504D01*
X159478750Y-87827858D01*
X159475215Y-87834795D01*
X159475214Y-87834797D01*
X159469971Y-87845087D01*
X159421154Y-87940896D01*
X159406300Y-88034681D01*
X159406300Y-88038574D01*
X159406301Y-88363893D01*
X159405454Y-88376816D01*
X159399500Y-88422039D01*
X159399500Y-94700500D01*
X159380593Y-94758691D01*
X159331093Y-94794655D01*
X159300500Y-94799500D01*
X152534017Y-94799500D01*
X152511831Y-94796982D01*
X152511801Y-94796975D01*
X152500359Y-94794344D01*
X152489483Y-94796805D01*
X152478336Y-94796786D01*
X152478336Y-94796757D01*
X152468228Y-94797578D01*
X152338014Y-94789702D01*
X152228796Y-94783095D01*
X152216944Y-94781656D01*
X151955578Y-94733759D01*
X151943985Y-94730902D01*
X151690305Y-94651852D01*
X151679127Y-94647613D01*
X151436830Y-94538564D01*
X151426244Y-94533008D01*
X151198858Y-94395548D01*
X151189020Y-94388757D01*
X150979868Y-94224897D01*
X150970919Y-94216970D01*
X150783030Y-94029081D01*
X150775103Y-94020132D01*
X150611243Y-93810980D01*
X150604452Y-93801142D01*
X150466992Y-93573756D01*
X150461436Y-93563170D01*
X150352387Y-93320873D01*
X150348148Y-93309695D01*
X150269100Y-93056023D01*
X150266239Y-93044415D01*
X150218344Y-92783056D01*
X150216904Y-92771197D01*
X150202469Y-92532548D01*
X150204207Y-92511810D01*
X150203747Y-92511757D01*
X150204389Y-92506179D01*
X150205655Y-92500718D01*
X150205656Y-92500000D01*
X150204412Y-92494545D01*
X150202980Y-92488266D01*
X150200500Y-92466248D01*
X150200500Y-85699500D01*
X150219407Y-85641309D01*
X150268907Y-85605345D01*
X150299500Y-85600500D01*
X153010253Y-85600500D01*
X153055195Y-85611289D01*
X153129296Y-85649046D01*
X153136992Y-85650265D01*
X153219235Y-85663291D01*
X153219237Y-85663291D01*
X153223081Y-85663900D01*
X153454570Y-85663900D01*
X153686118Y-85663899D01*
X153689961Y-85663290D01*
X153689966Y-85663290D01*
X153726817Y-85657453D01*
X153779904Y-85649046D01*
X153865672Y-85605345D01*
X153886003Y-85594986D01*
X153886005Y-85594985D01*
X153892942Y-85591450D01*
X153982650Y-85501742D01*
X153986524Y-85494140D01*
X154036710Y-85395644D01*
X154036710Y-85395643D01*
X154040246Y-85388704D01*
X154052187Y-85313315D01*
X154054491Y-85298765D01*
X154054491Y-85298763D01*
X154055100Y-85294919D01*
X154055100Y-85034252D01*
X154055947Y-85021331D01*
X154059435Y-84994834D01*
X154059435Y-84994833D01*
X154060282Y-84988400D01*
X154055946Y-84955467D01*
X154055099Y-84942544D01*
X154055099Y-84681882D01*
X154052431Y-84665031D01*
X154048653Y-84641183D01*
X154040246Y-84588096D01*
X153988194Y-84485938D01*
X153986186Y-84481997D01*
X153986185Y-84481995D01*
X153982650Y-84475058D01*
X153892942Y-84385350D01*
X153886005Y-84381815D01*
X153886003Y-84381814D01*
X153786844Y-84331290D01*
X153786843Y-84331290D01*
X153779904Y-84327754D01*
X153772210Y-84326535D01*
X153772209Y-84326535D01*
X153689965Y-84313509D01*
X153689963Y-84313509D01*
X153686119Y-84312900D01*
X153454630Y-84312900D01*
X153223082Y-84312901D01*
X153219239Y-84313510D01*
X153219234Y-84313510D01*
X153182383Y-84319347D01*
X153129296Y-84327754D01*
X153016258Y-84385350D01*
X153015403Y-84383673D01*
X152966688Y-84399500D01*
X150299500Y-84399500D01*
X150241309Y-84380593D01*
X150205345Y-84331093D01*
X150200500Y-84300500D01*
X150200500Y-77534281D01*
X150203057Y-77511926D01*
X150203141Y-77511565D01*
X150205655Y-77500718D01*
X150205656Y-77500000D01*
X150204413Y-77494549D01*
X150203791Y-77488995D01*
X150204159Y-77488954D01*
X150202438Y-77467973D01*
X150209909Y-77344459D01*
X150216905Y-77228797D01*
X150218345Y-77216936D01*
X150266241Y-76955578D01*
X150269100Y-76943977D01*
X150348148Y-76690305D01*
X150352387Y-76679127D01*
X150461436Y-76436830D01*
X150466992Y-76426244D01*
X150604452Y-76198858D01*
X150611243Y-76189020D01*
X150775103Y-75979868D01*
X150783030Y-75970919D01*
X150970919Y-75783030D01*
X150979868Y-75775103D01*
X151189020Y-75611243D01*
X151198858Y-75604452D01*
X151426244Y-75466992D01*
X151436830Y-75461436D01*
X151679127Y-75352387D01*
X151690305Y-75348148D01*
X151737756Y-75333361D01*
X151943985Y-75269098D01*
X151955578Y-75266241D01*
X152216944Y-75218344D01*
X152228796Y-75216905D01*
X152467712Y-75202453D01*
X152477628Y-75203276D01*
X152477628Y-75203138D01*
X152488776Y-75203158D01*
X152499641Y-75205656D01*
X152511641Y-75202941D01*
X152533488Y-75200500D01*
X167465983Y-75200500D01*
X167488169Y-75203018D01*
G37*
%TD.AperFunction*%
%TD*%
M02*
