%TF.GenerationSoftware,KiCad,Pcbnew,6.0.9+dfsg-1~bpo11+1*%
%TF.CreationDate,2022-11-28T09:51:56+01:00*%
%TF.ProjectId,017-johnson-counter,3031372d-6a6f-4686-9e73-6f6e2d636f75,1*%
%TF.SameCoordinates,Original*%
%TF.FileFunction,Legend,Top*%
%TF.FilePolarity,Positive*%
%FSLAX46Y46*%
G04 Gerber Fmt 4.6, Leading zero omitted, Abs format (unit mm)*
G04 Created by KiCad (PCBNEW 6.0.9+dfsg-1~bpo11+1) date 2022-11-28 09:51:56*
%MOMM*%
%LPD*%
G01*
G04 APERTURE LIST*
%ADD10C,0.150000*%
%ADD11C,0.120000*%
G04 APERTURE END LIST*
D10*
X160750000Y-77500000D02*
X164250000Y-77500000D01*
X164250000Y-77500000D02*
X164250000Y-79500000D01*
X164250000Y-79500000D02*
X160750000Y-79500000D01*
X160750000Y-79500000D02*
X160750000Y-77500000D01*
X161500000Y-77952380D02*
X161595238Y-77952380D01*
X161690476Y-78000000D01*
X161738095Y-78047619D01*
X161785714Y-78142857D01*
X161833333Y-78333333D01*
X161833333Y-78571428D01*
X161785714Y-78761904D01*
X161738095Y-78857142D01*
X161690476Y-78904761D01*
X161595238Y-78952380D01*
X161500000Y-78952380D01*
X161404761Y-78904761D01*
X161357142Y-78857142D01*
X161309523Y-78761904D01*
X161261904Y-78571428D01*
X161261904Y-78333333D01*
X161309523Y-78142857D01*
X161357142Y-78047619D01*
X161404761Y-78000000D01*
X161500000Y-77952380D01*
X162785714Y-78952380D02*
X162214285Y-78952380D01*
X162500000Y-78952380D02*
X162500000Y-77952380D01*
X162404761Y-78095238D01*
X162309523Y-78190476D01*
X162214285Y-78238095D01*
X163119047Y-77952380D02*
X163785714Y-77952380D01*
X163357142Y-78952380D01*
%TO.C,G\u002A\u002A\u002A*%
G36*
X165957208Y-87114917D02*
G01*
X165971780Y-87122643D01*
X165977638Y-87138791D01*
X165974986Y-87166038D01*
X165964028Y-87207062D01*
X165945246Y-87263741D01*
X165928860Y-87310446D01*
X165914665Y-87349625D01*
X165904112Y-87377364D01*
X165898650Y-87389745D01*
X165898486Y-87389946D01*
X165904138Y-87397178D01*
X165923545Y-87411565D01*
X165952518Y-87430004D01*
X165952794Y-87430170D01*
X166015684Y-87473854D01*
X166063512Y-87519631D01*
X166095324Y-87565750D01*
X166110162Y-87610459D01*
X166107070Y-87652007D01*
X166090520Y-87682445D01*
X166070991Y-87706562D01*
X166127555Y-87740636D01*
X166167737Y-87766699D01*
X166209250Y-87796467D01*
X166230607Y-87813250D01*
X166256661Y-87835927D01*
X166269745Y-87852611D01*
X166273211Y-87869984D01*
X166270661Y-87893124D01*
X166265636Y-87932872D01*
X166262184Y-87973169D01*
X166262056Y-87975472D01*
X166256709Y-88006817D01*
X166242958Y-88024471D01*
X166237295Y-88027764D01*
X166214024Y-88044266D01*
X166194294Y-88064253D01*
X166184232Y-88075038D01*
X166171977Y-88082474D01*
X166153462Y-88087419D01*
X166124622Y-88090732D01*
X166081391Y-88093272D01*
X166050502Y-88094630D01*
X165990844Y-88098231D01*
X165945936Y-88103279D01*
X165918140Y-88109464D01*
X165911407Y-88112879D01*
X165899381Y-88131376D01*
X165890328Y-88159745D01*
X165889450Y-88164547D01*
X165882091Y-88190629D01*
X165867507Y-88228695D01*
X165848200Y-88272492D01*
X165836787Y-88296135D01*
X165819617Y-88331648D01*
X165806241Y-88363117D01*
X165795437Y-88394981D01*
X165785983Y-88431679D01*
X165776657Y-88477652D01*
X165766238Y-88537340D01*
X165760003Y-88575142D01*
X165748611Y-88650475D01*
X165737513Y-88733726D01*
X165727703Y-88816757D01*
X165720177Y-88891427D01*
X165717711Y-88921318D01*
X165703479Y-89070850D01*
X165684101Y-89203435D01*
X165659013Y-89322278D01*
X165628053Y-89429366D01*
X165599141Y-89507130D01*
X165566299Y-89574946D01*
X165526020Y-89638510D01*
X165474798Y-89703520D01*
X165425643Y-89758199D01*
X165327329Y-89875280D01*
X165243806Y-90001629D01*
X165181364Y-90121186D01*
X165153186Y-90177903D01*
X165127811Y-90220375D01*
X165101675Y-90254018D01*
X165078482Y-90277604D01*
X165050811Y-90302117D01*
X165028251Y-90319713D01*
X165015568Y-90326682D01*
X165015395Y-90326688D01*
X165003451Y-90333218D01*
X164991919Y-90353767D01*
X164980392Y-90389773D01*
X164968459Y-90442674D01*
X164955712Y-90513910D01*
X164947702Y-90564739D01*
X164932935Y-90657753D01*
X164918702Y-90736626D01*
X164903537Y-90807789D01*
X164885974Y-90877671D01*
X164864550Y-90952702D01*
X164844147Y-91019151D01*
X164823662Y-91088767D01*
X164809937Y-91148459D01*
X164802673Y-91203792D01*
X164801572Y-91260332D01*
X164806334Y-91323643D01*
X164816662Y-91399292D01*
X164821976Y-91432384D01*
X164831863Y-91493891D01*
X164841097Y-91554175D01*
X164848842Y-91607582D01*
X164854263Y-91648460D01*
X164855561Y-91659723D01*
X164862893Y-91704728D01*
X164876368Y-91741894D01*
X164900004Y-91781963D01*
X164902923Y-91786310D01*
X164943121Y-91845728D01*
X164641035Y-91845728D01*
X164648018Y-91812144D01*
X164656666Y-91782384D01*
X164667092Y-91759536D01*
X164671952Y-91745992D01*
X164669574Y-91727580D01*
X164658787Y-91699446D01*
X164646054Y-91672292D01*
X164626050Y-91626603D01*
X164609018Y-91576762D01*
X164593853Y-91518573D01*
X164579451Y-91447840D01*
X164565851Y-91367612D01*
X164555774Y-91315487D01*
X164540904Y-91252618D01*
X164523420Y-91187715D01*
X164509042Y-91140272D01*
X164489373Y-91077432D01*
X164474185Y-91023154D01*
X164462556Y-90972312D01*
X164453565Y-90919774D01*
X164446290Y-90860411D01*
X164439810Y-90789094D01*
X164435282Y-90729699D01*
X164430007Y-90626544D01*
X164429205Y-90527802D01*
X164432780Y-90438429D01*
X164440634Y-90363381D01*
X164442649Y-90350881D01*
X164448285Y-90318238D01*
X164263062Y-90323960D01*
X164142262Y-90325480D01*
X164037165Y-90321724D01*
X163943384Y-90312274D01*
X163856532Y-90296713D01*
X163785335Y-90278501D01*
X163678868Y-90239636D01*
X163589540Y-90189590D01*
X163516909Y-90128052D01*
X163460536Y-90054711D01*
X163454435Y-90044391D01*
X163425907Y-89994600D01*
X163418639Y-90023556D01*
X163398777Y-90080742D01*
X163368034Y-90143838D01*
X163330847Y-90204875D01*
X163291648Y-90255885D01*
X163285826Y-90262224D01*
X163251823Y-90299253D01*
X163229015Y-90328535D01*
X163213853Y-90356807D01*
X163202786Y-90390804D01*
X163192267Y-90437262D01*
X163191407Y-90441406D01*
X163172253Y-90514043D01*
X163145078Y-90580397D01*
X163107410Y-90644725D01*
X163056775Y-90711286D01*
X162994562Y-90780306D01*
X162950655Y-90827086D01*
X162919096Y-90863066D01*
X162897302Y-90891736D01*
X162882691Y-90916586D01*
X162872679Y-90941105D01*
X162870484Y-90947943D01*
X162856617Y-91010336D01*
X162848490Y-91083767D01*
X162846652Y-91159269D01*
X162851650Y-91227875D01*
X162852867Y-91236045D01*
X162871849Y-91352191D01*
X162888653Y-91449249D01*
X162903608Y-91528646D01*
X162917045Y-91591809D01*
X162929292Y-91640166D01*
X162940680Y-91675143D01*
X162951537Y-91698166D01*
X162962194Y-91710664D01*
X162962536Y-91710907D01*
X162993036Y-91736176D01*
X163020562Y-91765811D01*
X163039476Y-91793348D01*
X163043891Y-91804120D01*
X163045244Y-91813632D01*
X163040936Y-91819721D01*
X163027416Y-91823146D01*
X163001136Y-91824671D01*
X162958547Y-91825054D01*
X162946219Y-91825061D01*
X162843072Y-91825061D01*
X162845449Y-91796643D01*
X162843369Y-91778430D01*
X162832341Y-91757689D01*
X162809769Y-91730433D01*
X162786582Y-91706224D01*
X162743768Y-91657147D01*
X162704802Y-91599598D01*
X162668211Y-91530726D01*
X162632517Y-91447679D01*
X162596246Y-91347608D01*
X162587706Y-91322003D01*
X162552894Y-91210358D01*
X162527616Y-91113609D01*
X162511922Y-91028285D01*
X162505862Y-90950921D01*
X162509487Y-90878048D01*
X162522846Y-90806198D01*
X162545988Y-90731903D01*
X162578964Y-90651696D01*
X162597925Y-90610862D01*
X162613244Y-90577573D01*
X162623181Y-90550567D01*
X162628868Y-90523669D01*
X162631433Y-90490701D01*
X162632007Y-90445488D01*
X162631942Y-90424857D01*
X162624037Y-90313717D01*
X162601457Y-90189349D01*
X162564436Y-90052839D01*
X162529648Y-89949512D01*
X162511521Y-89895325D01*
X162494501Y-89837402D01*
X162481243Y-89785050D01*
X162477106Y-89765233D01*
X162464411Y-89708368D01*
X162450643Y-89665227D01*
X162436695Y-89637191D01*
X162423461Y-89625643D01*
X162411834Y-89631965D01*
X162403974Y-89652044D01*
X162399203Y-89668673D01*
X162394810Y-89670196D01*
X162387896Y-89654900D01*
X162382125Y-89639127D01*
X162371228Y-89590843D01*
X162367240Y-89530839D01*
X162369967Y-89466803D01*
X162379216Y-89406422D01*
X162388838Y-89372197D01*
X162436099Y-89269316D01*
X162501074Y-89175424D01*
X162582531Y-89091243D01*
X162679242Y-89017494D01*
X162789977Y-88954898D01*
X162913509Y-88904178D01*
X163048607Y-88866054D01*
X163194042Y-88841248D01*
X163309642Y-88831795D01*
X163397425Y-88829758D01*
X163481499Y-88832317D01*
X163566776Y-88840018D01*
X163658169Y-88853405D01*
X163760590Y-88873023D01*
X163841711Y-88890808D01*
X163937807Y-88912345D01*
X164017579Y-88929200D01*
X164084708Y-88941879D01*
X164142875Y-88950889D01*
X164195762Y-88956737D01*
X164247049Y-88959929D01*
X164300417Y-88960973D01*
X164348629Y-88960575D01*
X164404738Y-88959915D01*
X164449013Y-88960589D01*
X164487320Y-88963316D01*
X164525528Y-88968818D01*
X164569505Y-88977819D01*
X164625120Y-88991038D01*
X164653604Y-88998082D01*
X164725622Y-89015214D01*
X164781279Y-89026183D01*
X164823946Y-89030976D01*
X164856992Y-89029581D01*
X164883788Y-89021987D01*
X164907703Y-89008180D01*
X164921833Y-88997109D01*
X164942889Y-88976673D01*
X164960733Y-88952129D01*
X164976651Y-88920341D01*
X164991925Y-88878173D01*
X165007840Y-88822489D01*
X165025680Y-88750153D01*
X165029346Y-88734469D01*
X165046905Y-88662770D01*
X165068065Y-88582312D01*
X165090306Y-88502374D01*
X165111109Y-88432234D01*
X165113452Y-88424717D01*
X165128978Y-88374113D01*
X165141303Y-88330295D01*
X165151226Y-88288944D01*
X165159547Y-88245741D01*
X165167065Y-88196365D01*
X165174579Y-88136498D01*
X165182889Y-88061819D01*
X165186002Y-88032628D01*
X165197098Y-87930493D01*
X165206972Y-87846407D01*
X165216097Y-87777821D01*
X165224945Y-87722188D01*
X165233991Y-87676957D01*
X165243707Y-87639582D01*
X165254567Y-87607513D01*
X165267044Y-87578202D01*
X165272488Y-87566892D01*
X165293227Y-87527695D01*
X165314341Y-87495534D01*
X165339403Y-87466760D01*
X165371983Y-87437721D01*
X165415654Y-87404766D01*
X165464198Y-87370923D01*
X165513880Y-87334968D01*
X165565539Y-87294307D01*
X165611923Y-87254795D01*
X165636890Y-87231435D01*
X165668275Y-87202043D01*
X165695322Y-87179904D01*
X165714140Y-87168049D01*
X165719559Y-87167005D01*
X165733132Y-87181623D01*
X165734744Y-87211606D01*
X165724416Y-87255478D01*
X165718097Y-87273543D01*
X165706615Y-87305332D01*
X165698850Y-87328941D01*
X165696704Y-87337728D01*
X165703034Y-87335813D01*
X165719982Y-87321540D01*
X165744485Y-87298042D01*
X165773480Y-87268450D01*
X165803903Y-87235896D01*
X165832693Y-87203515D01*
X165856785Y-87174437D01*
X165858411Y-87172355D01*
X165885607Y-87139612D01*
X165906294Y-87121160D01*
X165924724Y-87113645D01*
X165933716Y-87112937D01*
X165957208Y-87114917D01*
G37*
D11*
%TO.C,R3*%
X158944542Y-88863700D02*
X159419058Y-88863700D01*
X158944542Y-87818700D02*
X159419058Y-87818700D01*
%TO.C,R2*%
X165472342Y-85510900D02*
X165946858Y-85510900D01*
X165472342Y-84465900D02*
X165946858Y-84465900D01*
%TO.C,R1*%
X154042342Y-85510900D02*
X154516858Y-85510900D01*
X154042342Y-84465900D02*
X154516858Y-84465900D01*
%TO.C,C1*%
X163933600Y-85890980D02*
X163933600Y-85609820D01*
X162913600Y-85890980D02*
X162913600Y-85609820D01*
%TO.C,U1*%
X162477600Y-83693000D02*
X162477600Y-85893000D01*
X157257600Y-83693000D02*
X157257600Y-85893000D01*
X157257600Y-83693000D02*
X157257600Y-81493000D01*
X162477600Y-83693000D02*
X162477600Y-80093000D01*
%TD*%
M02*
