%TF.GenerationSoftware,KiCad,Pcbnew,6.0.9+dfsg-1~bpo11+1*%
%TF.CreationDate,2022-11-28T09:51:56+01:00*%
%TF.ProjectId,017-johnson-counter,3031372d-6a6f-4686-9e73-6f6e2d636f75,1*%
%TF.SameCoordinates,Original*%
%TF.FileFunction,Soldermask,Bot*%
%TF.FilePolarity,Negative*%
%FSLAX46Y46*%
G04 Gerber Fmt 4.6, Leading zero omitted, Abs format (unit mm)*
G04 Created by KiCad (PCBNEW 6.0.9+dfsg-1~bpo11+1) date 2022-11-28 09:51:56*
%MOMM*%
%LPD*%
G01*
G04 APERTURE LIST*
%ADD10C,1.400000*%
%ADD11C,3.400000*%
G04 APERTURE END LIST*
D10*
%TO.C,J4*%
X157500000Y-77500000D03*
%TD*%
D11*
%TO.C,H1*%
X152500000Y-77500000D03*
%TD*%
%TO.C,H2*%
X152500000Y-92500000D03*
%TD*%
%TO.C,H4*%
X167500000Y-77500000D03*
%TD*%
%TO.C,H3*%
X167500000Y-92500000D03*
%TD*%
G36*
X155942121Y-85766002D02*
G01*
X155988614Y-85819658D01*
X156000000Y-85872000D01*
X156000000Y-85981885D01*
X156004475Y-85997124D01*
X156005865Y-85998329D01*
X156013548Y-86000000D01*
X161981885Y-86000000D01*
X161997124Y-85995525D01*
X161998329Y-85994135D01*
X162000000Y-85986452D01*
X162000000Y-85872000D01*
X162020002Y-85803879D01*
X162073658Y-85757386D01*
X162126000Y-85746000D01*
X169874000Y-85746000D01*
X169942121Y-85766002D01*
X169988614Y-85819658D01*
X170000000Y-85872000D01*
X170000000Y-92495878D01*
X169999730Y-92504119D01*
X169979152Y-92818073D01*
X169977001Y-92834413D01*
X169916426Y-93138950D01*
X169912160Y-93154871D01*
X169812354Y-93448888D01*
X169806047Y-93464114D01*
X169668717Y-93742592D01*
X169660476Y-93756866D01*
X169487973Y-94015034D01*
X169477940Y-94028109D01*
X169273212Y-94261557D01*
X169261557Y-94273212D01*
X169028109Y-94477940D01*
X169015034Y-94487973D01*
X168756866Y-94660476D01*
X168742592Y-94668717D01*
X168464114Y-94806047D01*
X168448888Y-94812354D01*
X168154871Y-94912160D01*
X168138950Y-94916426D01*
X167834413Y-94977001D01*
X167818073Y-94979152D01*
X167504119Y-94999730D01*
X167495878Y-95000000D01*
X152504122Y-95000000D01*
X152495881Y-94999730D01*
X152181927Y-94979152D01*
X152165587Y-94977001D01*
X151861050Y-94916426D01*
X151845129Y-94912160D01*
X151551112Y-94812354D01*
X151535886Y-94806047D01*
X151257408Y-94668717D01*
X151243134Y-94660476D01*
X150984966Y-94487973D01*
X150971891Y-94477940D01*
X150738443Y-94273212D01*
X150726788Y-94261557D01*
X150522060Y-94028109D01*
X150512027Y-94015034D01*
X150339524Y-93756866D01*
X150331283Y-93742592D01*
X150193953Y-93464114D01*
X150187646Y-93448888D01*
X150087840Y-93154871D01*
X150083574Y-93138950D01*
X150022999Y-92834413D01*
X150020848Y-92818073D01*
X150000270Y-92504119D01*
X150000000Y-92495878D01*
X150000000Y-85872000D01*
X150020002Y-85803879D01*
X150073658Y-85757386D01*
X150126000Y-85746000D01*
X155874000Y-85746000D01*
X155942121Y-85766002D01*
G37*
G36*
X167504119Y-75000270D02*
G01*
X167818073Y-75020848D01*
X167834413Y-75022999D01*
X168138950Y-75083574D01*
X168154871Y-75087840D01*
X168448888Y-75187646D01*
X168464114Y-75193953D01*
X168742592Y-75331283D01*
X168756866Y-75339524D01*
X169015034Y-75512027D01*
X169028109Y-75522060D01*
X169261557Y-75726788D01*
X169273212Y-75738443D01*
X169477940Y-75971891D01*
X169487973Y-75984966D01*
X169660476Y-76243134D01*
X169668717Y-76257408D01*
X169806047Y-76535886D01*
X169812354Y-76551112D01*
X169912160Y-76845129D01*
X169916426Y-76861050D01*
X169977001Y-77165587D01*
X169979152Y-77181927D01*
X169999730Y-77495881D01*
X170000000Y-77504122D01*
X170000000Y-83128000D01*
X169979998Y-83196121D01*
X169926342Y-83242614D01*
X169874000Y-83254000D01*
X162126000Y-83254000D01*
X162057879Y-83233998D01*
X162011386Y-83180342D01*
X162000000Y-83128000D01*
X162000000Y-83018115D01*
X161995525Y-83002876D01*
X161994135Y-83001671D01*
X161986452Y-83000000D01*
X156018115Y-83000000D01*
X156002876Y-83004475D01*
X156001671Y-83005865D01*
X156000000Y-83013548D01*
X156000000Y-83128000D01*
X155979998Y-83196121D01*
X155926342Y-83242614D01*
X155874000Y-83254000D01*
X150126000Y-83254000D01*
X150057879Y-83233998D01*
X150011386Y-83180342D01*
X150000000Y-83128000D01*
X150000000Y-77504122D01*
X150000270Y-77495881D01*
X150020848Y-77181927D01*
X150022999Y-77165587D01*
X150083574Y-76861050D01*
X150087840Y-76845129D01*
X150187646Y-76551112D01*
X150193953Y-76535886D01*
X150331283Y-76257408D01*
X150339524Y-76243134D01*
X150512027Y-75984966D01*
X150522060Y-75971891D01*
X150726788Y-75738443D01*
X150738443Y-75726788D01*
X150971891Y-75522060D01*
X150984966Y-75512027D01*
X151243134Y-75339524D01*
X151257408Y-75331283D01*
X151535886Y-75193953D01*
X151551112Y-75187646D01*
X151845129Y-75087840D01*
X151861050Y-75083574D01*
X152165587Y-75022999D01*
X152181927Y-75020848D01*
X152495881Y-75000270D01*
X152504122Y-75000000D01*
X167495878Y-75000000D01*
X167504119Y-75000270D01*
G37*
G36*
X156003094Y-82746152D02*
G01*
X156018709Y-82746919D01*
X156031018Y-82748131D01*
X156039329Y-82749364D01*
X156103777Y-82779146D01*
X156141892Y-82839044D01*
X156141574Y-82910040D01*
X156102923Y-82969593D01*
X156038210Y-82998797D01*
X156020838Y-83000000D01*
X156018115Y-83000000D01*
X156002876Y-83004475D01*
X156001671Y-83005865D01*
X156000000Y-83013548D01*
X156000000Y-85981885D01*
X156004475Y-85997124D01*
X156005865Y-85998329D01*
X156013548Y-86000000D01*
X156020838Y-86000000D01*
X156088959Y-86020002D01*
X156135452Y-86073658D01*
X156145556Y-86143932D01*
X156116062Y-86208512D01*
X156056336Y-86246896D01*
X156039329Y-86250636D01*
X156031018Y-86251869D01*
X156018709Y-86253081D01*
X156003094Y-86253848D01*
X155996912Y-86254000D01*
X150126000Y-86254000D01*
X150057879Y-86233998D01*
X150011386Y-86180342D01*
X150000000Y-86128000D01*
X150000000Y-82872000D01*
X150020002Y-82803879D01*
X150073658Y-82757386D01*
X150126000Y-82746000D01*
X155996912Y-82746000D01*
X156003094Y-82746152D01*
G37*
G36*
X169942121Y-82766002D02*
G01*
X169988614Y-82819658D01*
X170000000Y-82872000D01*
X170000000Y-86128000D01*
X169979998Y-86196121D01*
X169926342Y-86242614D01*
X169874000Y-86254000D01*
X162003088Y-86254000D01*
X161996906Y-86253848D01*
X161981291Y-86253081D01*
X161968982Y-86251869D01*
X161960671Y-86250636D01*
X161896223Y-86220854D01*
X161858108Y-86160956D01*
X161858426Y-86089960D01*
X161897077Y-86030407D01*
X161961790Y-86001203D01*
X161979162Y-86000000D01*
X161981885Y-86000000D01*
X161997124Y-85995525D01*
X161998329Y-85994135D01*
X162000000Y-85986452D01*
X162000000Y-83018115D01*
X161995525Y-83002876D01*
X161994135Y-83001671D01*
X161986452Y-83000000D01*
X161979162Y-83000000D01*
X161911041Y-82979998D01*
X161864548Y-82926342D01*
X161854444Y-82856068D01*
X161883938Y-82791488D01*
X161943664Y-82753104D01*
X161960671Y-82749364D01*
X161968982Y-82748131D01*
X161981291Y-82746919D01*
X161996906Y-82746152D01*
X162003088Y-82746000D01*
X169874000Y-82746000D01*
X169942121Y-82766002D01*
G37*
M02*
