%TF.GenerationSoftware,KiCad,Pcbnew,6.0.1-79c1e3a40b~116~ubuntu20.04.1*%
%TF.CreationDate,2022-01-29T11:44:29+01:00*%
%TF.ProjectId,pcb-connector,7063622d-636f-46e6-9e65-63746f722e6b,rev?*%
%TF.SameCoordinates,Original*%
%TF.FileFunction,Soldermask,Bot*%
%TF.FilePolarity,Negative*%
%FSLAX46Y46*%
G04 Gerber Fmt 4.6, Leading zero omitted, Abs format (unit mm)*
G04 Created by KiCad (PCBNEW 6.0.1-79c1e3a40b~116~ubuntu20.04.1) date 2022-01-29 11:44:29*
%MOMM*%
%LPD*%
G01*
G04 APERTURE LIST*
%ADD10C,3.400000*%
G04 APERTURE END LIST*
D10*
%TO.C,H4*%
X145000000Y-90000000D03*
%TD*%
%TO.C,H3*%
X150000000Y-75000000D03*
%TD*%
%TO.C,H1*%
X145000000Y-75000000D03*
%TD*%
%TO.C,H2*%
X150000000Y-90000000D03*
%TD*%
G36*
X149942121Y-78756187D02*
G01*
X149988614Y-78809843D01*
X150000000Y-78862185D01*
X150000000Y-87981885D01*
X150004475Y-87997124D01*
X150007669Y-87999892D01*
X150011245Y-88000804D01*
X150275645Y-88019714D01*
X150293440Y-88022273D01*
X150554654Y-88079097D01*
X150571903Y-88084161D01*
X150822386Y-88177586D01*
X150838740Y-88185055D01*
X151073375Y-88313176D01*
X151088498Y-88322895D01*
X151302510Y-88483103D01*
X151316096Y-88494876D01*
X151505124Y-88683904D01*
X151516897Y-88697490D01*
X151677105Y-88911502D01*
X151686824Y-88926625D01*
X151814945Y-89161260D01*
X151822414Y-89177614D01*
X151915839Y-89428097D01*
X151920903Y-89445346D01*
X151977727Y-89706560D01*
X151980286Y-89724355D01*
X151987375Y-89823479D01*
X151987696Y-89832467D01*
X151987696Y-90167533D01*
X151987375Y-90176521D01*
X151980286Y-90275645D01*
X151977727Y-90293440D01*
X151920903Y-90554654D01*
X151915839Y-90571903D01*
X151822414Y-90822386D01*
X151814945Y-90838740D01*
X151686824Y-91073375D01*
X151677105Y-91088498D01*
X151516897Y-91302510D01*
X151505124Y-91316096D01*
X151316096Y-91505124D01*
X151302510Y-91516897D01*
X151088498Y-91677105D01*
X151073375Y-91686824D01*
X150838740Y-91814945D01*
X150822386Y-91822414D01*
X150571903Y-91915839D01*
X150554654Y-91920903D01*
X150293440Y-91977727D01*
X150275645Y-91980286D01*
X150141720Y-91989864D01*
X150132732Y-91990185D01*
X144867268Y-91990185D01*
X144858280Y-91989864D01*
X144724355Y-91980286D01*
X144706560Y-91977727D01*
X144445346Y-91920903D01*
X144428097Y-91915839D01*
X144177614Y-91822414D01*
X144161260Y-91814945D01*
X143926625Y-91686824D01*
X143911502Y-91677105D01*
X143697490Y-91516897D01*
X143683904Y-91505124D01*
X143494876Y-91316096D01*
X143483103Y-91302510D01*
X143322895Y-91088498D01*
X143313176Y-91073375D01*
X143185055Y-90838740D01*
X143177586Y-90822386D01*
X143084161Y-90571903D01*
X143079097Y-90554654D01*
X143022273Y-90293440D01*
X143019714Y-90275645D01*
X143000643Y-90008988D01*
X143000643Y-89991012D01*
X143019714Y-89724355D01*
X143022273Y-89706560D01*
X143079097Y-89445346D01*
X143084161Y-89428097D01*
X143177586Y-89177614D01*
X143185055Y-89161260D01*
X143313176Y-88926625D01*
X143322895Y-88911502D01*
X143483103Y-88697490D01*
X143494876Y-88683904D01*
X143683904Y-88494876D01*
X143697490Y-88483103D01*
X143911502Y-88322895D01*
X143926625Y-88313176D01*
X144161260Y-88185055D01*
X144177614Y-88177586D01*
X144428097Y-88084161D01*
X144445346Y-88079097D01*
X144706560Y-88022273D01*
X144724355Y-88019714D01*
X144981932Y-88001292D01*
X144996813Y-87995742D01*
X144999344Y-87992360D01*
X145000000Y-87988726D01*
X145000000Y-79116185D01*
X145020002Y-79048064D01*
X145073658Y-79001571D01*
X145126000Y-78990185D01*
X148981885Y-78990185D01*
X148997124Y-78985710D01*
X148998329Y-78984320D01*
X149000000Y-78976637D01*
X149000000Y-78862185D01*
X149020002Y-78794064D01*
X149073658Y-78747571D01*
X149126000Y-78736185D01*
X149874000Y-78736185D01*
X149942121Y-78756187D01*
G37*
G36*
X150091584Y-76766002D02*
G01*
X150138077Y-76819658D01*
X150148181Y-76889932D01*
X150118687Y-76954512D01*
X150058961Y-76992896D01*
X150032452Y-76997679D01*
X150018068Y-76998708D01*
X150003187Y-77004258D01*
X150000656Y-77007640D01*
X150000000Y-77011274D01*
X150000000Y-79128000D01*
X149979998Y-79196121D01*
X149926342Y-79242614D01*
X149874000Y-79254000D01*
X149003088Y-79254000D01*
X148996906Y-79253848D01*
X148981291Y-79253081D01*
X148968985Y-79251869D01*
X148956574Y-79250028D01*
X148944448Y-79247616D01*
X148932267Y-79244565D01*
X148920435Y-79240976D01*
X148908629Y-79236752D01*
X148897194Y-79232015D01*
X148893110Y-79230083D01*
X148840085Y-79182872D01*
X148821002Y-79114488D01*
X148841920Y-79046643D01*
X148896197Y-79000877D01*
X148946991Y-78990185D01*
X148981885Y-78990185D01*
X148997124Y-78985710D01*
X148998329Y-78984320D01*
X149000000Y-78976637D01*
X149000000Y-77018115D01*
X148995525Y-77002876D01*
X148994135Y-77001671D01*
X148986452Y-77000000D01*
X148979162Y-77000000D01*
X148911041Y-76979998D01*
X148864548Y-76926342D01*
X148854444Y-76856068D01*
X148883938Y-76791488D01*
X148943664Y-76753104D01*
X148960671Y-76749364D01*
X148968982Y-76748131D01*
X148981291Y-76746919D01*
X148996906Y-76746152D01*
X149003088Y-76746000D01*
X150023463Y-76746000D01*
X150091584Y-76766002D01*
G37*
G36*
X150004487Y-73000321D02*
G01*
X150275645Y-73019714D01*
X150293440Y-73022273D01*
X150554654Y-73079097D01*
X150571903Y-73084161D01*
X150822386Y-73177586D01*
X150838740Y-73185055D01*
X151073375Y-73313176D01*
X151088498Y-73322895D01*
X151302510Y-73483103D01*
X151316096Y-73494876D01*
X151505124Y-73683904D01*
X151516897Y-73697490D01*
X151677105Y-73911502D01*
X151686824Y-73926625D01*
X151814945Y-74161260D01*
X151822414Y-74177614D01*
X151915839Y-74428097D01*
X151920903Y-74445346D01*
X151977727Y-74706560D01*
X151980286Y-74724355D01*
X151999357Y-74991012D01*
X151999357Y-75008988D01*
X151980286Y-75275645D01*
X151977727Y-75293440D01*
X151920903Y-75554654D01*
X151915839Y-75571903D01*
X151822414Y-75822386D01*
X151814945Y-75838740D01*
X151686824Y-76073375D01*
X151677105Y-76088498D01*
X151516897Y-76302510D01*
X151505124Y-76316096D01*
X151316096Y-76505124D01*
X151302510Y-76516897D01*
X151088498Y-76677105D01*
X151073375Y-76686824D01*
X150838740Y-76814945D01*
X150822386Y-76822414D01*
X150571903Y-76915839D01*
X150554654Y-76920903D01*
X150293440Y-76977727D01*
X150275645Y-76980286D01*
X150018068Y-76998708D01*
X150003187Y-77004258D01*
X150000656Y-77007640D01*
X150000000Y-77011274D01*
X150000000Y-77128000D01*
X149979998Y-77196121D01*
X149926342Y-77242614D01*
X149874000Y-77254000D01*
X149126000Y-77254000D01*
X149057879Y-77233998D01*
X149011386Y-77180342D01*
X149000000Y-77128000D01*
X149000000Y-77018115D01*
X148995525Y-77002876D01*
X148994135Y-77001671D01*
X148986452Y-77000000D01*
X146018115Y-77000000D01*
X146002876Y-77004475D01*
X146001671Y-77005865D01*
X146000000Y-77013548D01*
X146000000Y-77128000D01*
X145979998Y-77196121D01*
X145926342Y-77242614D01*
X145874000Y-77254000D01*
X145126000Y-77254000D01*
X145057879Y-77233998D01*
X145011386Y-77180342D01*
X145000000Y-77128000D01*
X145000000Y-77018115D01*
X144995525Y-77002876D01*
X144992331Y-77000108D01*
X144988755Y-76999196D01*
X144724355Y-76980286D01*
X144706560Y-76977727D01*
X144445346Y-76920903D01*
X144428097Y-76915839D01*
X144177614Y-76822414D01*
X144161260Y-76814945D01*
X143926625Y-76686824D01*
X143911502Y-76677105D01*
X143697490Y-76516897D01*
X143683904Y-76505124D01*
X143494876Y-76316096D01*
X143483103Y-76302510D01*
X143322895Y-76088498D01*
X143313176Y-76073375D01*
X143185055Y-75838740D01*
X143177586Y-75822386D01*
X143084161Y-75571903D01*
X143079097Y-75554654D01*
X143022273Y-75293440D01*
X143019714Y-75275645D01*
X143000643Y-75008988D01*
X143000643Y-74991012D01*
X143019714Y-74724355D01*
X143022273Y-74706560D01*
X143079097Y-74445346D01*
X143084161Y-74428097D01*
X143177586Y-74177614D01*
X143185055Y-74161260D01*
X143313176Y-73926625D01*
X143322895Y-73911502D01*
X143483103Y-73697490D01*
X143494876Y-73683904D01*
X143683904Y-73494876D01*
X143697490Y-73483103D01*
X143911502Y-73322895D01*
X143926625Y-73313176D01*
X144161260Y-73185055D01*
X144177614Y-73177586D01*
X144428097Y-73084161D01*
X144445346Y-73079097D01*
X144706560Y-73022273D01*
X144724355Y-73019714D01*
X144995513Y-73000321D01*
X145004501Y-73000000D01*
X149995499Y-73000000D01*
X150004487Y-73000321D01*
G37*
G36*
X146003094Y-76746152D02*
G01*
X146018709Y-76746919D01*
X146031018Y-76748131D01*
X146039329Y-76749364D01*
X146103777Y-76779146D01*
X146141892Y-76839044D01*
X146141574Y-76910040D01*
X146102923Y-76969593D01*
X146038210Y-76998797D01*
X146020838Y-77000000D01*
X146018115Y-77000000D01*
X146002876Y-77004475D01*
X146001671Y-77005865D01*
X146000000Y-77013548D01*
X146000000Y-78972070D01*
X146004475Y-78987309D01*
X146005865Y-78988514D01*
X146013548Y-78990185D01*
X146053009Y-78990185D01*
X146121130Y-79010187D01*
X146167623Y-79063843D01*
X146177727Y-79134117D01*
X146148233Y-79198697D01*
X146106890Y-79230083D01*
X146102806Y-79232015D01*
X146091371Y-79236752D01*
X146079565Y-79240976D01*
X146067733Y-79244565D01*
X146055552Y-79247616D01*
X146043426Y-79250028D01*
X146031015Y-79251869D01*
X146018709Y-79253081D01*
X146003094Y-79253848D01*
X145996912Y-79254000D01*
X145126000Y-79254000D01*
X145057879Y-79233998D01*
X145011386Y-79180342D01*
X145000000Y-79128000D01*
X145000000Y-77018115D01*
X144995525Y-77002876D01*
X144992331Y-77000108D01*
X144988756Y-76999196D01*
X144967548Y-76997679D01*
X144901028Y-76972868D01*
X144858481Y-76916033D01*
X144853416Y-76845217D01*
X144887442Y-76782905D01*
X144949754Y-76748880D01*
X144976537Y-76746000D01*
X145996912Y-76746000D01*
X146003094Y-76746152D01*
G37*
M02*
