%TF.GenerationSoftware,KiCad,Pcbnew,6.0.1-79c1e3a40b~116~ubuntu20.04.1*%
%TF.CreationDate,2022-01-29T11:44:29+01:00*%
%TF.ProjectId,pcb-connector,7063622d-636f-46e6-9e65-63746f722e6b,rev?*%
%TF.SameCoordinates,Original*%
%TF.FileFunction,Copper,L1,Top*%
%TF.FilePolarity,Positive*%
%FSLAX46Y46*%
G04 Gerber Fmt 4.6, Leading zero omitted, Abs format (unit mm)*
G04 Created by KiCad (PCBNEW 6.0.1-79c1e3a40b~116~ubuntu20.04.1) date 2022-01-29 11:44:29*
%MOMM*%
%LPD*%
G01*
G04 APERTURE LIST*
%TA.AperFunction,SMDPad,CuDef*%
%ADD10R,3.000000X0.800000*%
%TD*%
%TA.AperFunction,SMDPad,CuDef*%
%ADD11R,3.000000X2.000000*%
%TD*%
%TA.AperFunction,ComponentPad*%
%ADD12C,0.800000*%
%TD*%
%TA.AperFunction,ComponentPad*%
%ADD13C,3.400000*%
%TD*%
G04 APERTURE END LIST*
D10*
%TO.P,J2,1,Pin_1*%
%TO.N,Net-(J1-Pad1)*%
X148500000Y-82500000D03*
D11*
%TO.P,J2,2,Pin_2*%
%TO.N,GND*%
X148500000Y-84100000D03*
D12*
X148000000Y-84000000D03*
X149500000Y-83500000D03*
X149000000Y-81000000D03*
D11*
X148500000Y-80900000D03*
D12*
X148500000Y-81500000D03*
X147500000Y-83500000D03*
X148000000Y-81000000D03*
X147500000Y-81500000D03*
X149500000Y-81500000D03*
X149000000Y-84000000D03*
X148500000Y-83500000D03*
%TD*%
%TO.P,J1,2,Pin_2*%
%TO.N,GND*%
X145500000Y-83500000D03*
X147000000Y-81000000D03*
X146500000Y-83500000D03*
X147500000Y-83500000D03*
X146500000Y-81500000D03*
D11*
X146500000Y-84100000D03*
D12*
X145500000Y-81500000D03*
X146000000Y-81000000D03*
D11*
X146500000Y-80900000D03*
D12*
X147000000Y-84000000D03*
X146000000Y-84000000D03*
X147500000Y-81500000D03*
D10*
%TO.P,J1,1,Pin_1*%
%TO.N,Net-(J1-Pad1)*%
X146500000Y-82500000D03*
%TD*%
D13*
%TO.P,H4,1,1*%
%TO.N,GND*%
X145000000Y-90000000D03*
%TD*%
%TO.P,H3,1,1*%
%TO.N,GND*%
X150000000Y-75000000D03*
%TD*%
%TO.P,H1,1,1*%
%TO.N,GND*%
X145000000Y-75000000D03*
%TD*%
%TO.P,H2,1,1*%
%TO.N,GND*%
X150000000Y-90000000D03*
%TD*%
%TA.AperFunction,Conductor*%
%TO.N,GND*%
G36*
X149759191Y-83119407D02*
G01*
X149795155Y-83168907D01*
X149800000Y-83199500D01*
X149800000Y-87994123D01*
X149799955Y-88045449D01*
X149804781Y-88055498D01*
X149804781Y-88055500D01*
X149805185Y-88056341D01*
X149812463Y-88077183D01*
X149812670Y-88078093D01*
X149812672Y-88078096D01*
X149815150Y-88088962D01*
X149822097Y-88097680D01*
X149822520Y-88098211D01*
X149834334Y-88117046D01*
X149834625Y-88117653D01*
X149834628Y-88117657D01*
X149839453Y-88127705D01*
X149848893Y-88135254D01*
X149864484Y-88150872D01*
X149872015Y-88160323D01*
X149882058Y-88165167D01*
X149882663Y-88165459D01*
X149901478Y-88177308D01*
X149902005Y-88177730D01*
X149902010Y-88177732D01*
X149910715Y-88184694D01*
X149922405Y-88187382D01*
X149922492Y-88187402D01*
X149943318Y-88194715D01*
X149954202Y-88199965D01*
X149966018Y-88199975D01*
X149988120Y-88202494D01*
X149988774Y-88202644D01*
X149988775Y-88202644D01*
X149999642Y-88205143D01*
X150010517Y-88202682D01*
X150021663Y-88202702D01*
X150021662Y-88203015D01*
X150031612Y-88202261D01*
X150249112Y-88217816D01*
X150263088Y-88219827D01*
X150500200Y-88271408D01*
X150513747Y-88275385D01*
X150603110Y-88308716D01*
X150741113Y-88360188D01*
X150753962Y-88366056D01*
X150966938Y-88482351D01*
X150978820Y-88489987D01*
X151173077Y-88635405D01*
X151183753Y-88644655D01*
X151355345Y-88816247D01*
X151364595Y-88826923D01*
X151510013Y-89021180D01*
X151517649Y-89033062D01*
X151633944Y-89246038D01*
X151639812Y-89258887D01*
X151724614Y-89486250D01*
X151728593Y-89499803D01*
X151780173Y-89736909D01*
X151782184Y-89750891D01*
X151799495Y-89992938D01*
X151799495Y-90007062D01*
X151782184Y-90249109D01*
X151780173Y-90263091D01*
X151728593Y-90500197D01*
X151724614Y-90513750D01*
X151639812Y-90741113D01*
X151633944Y-90753962D01*
X151517649Y-90966938D01*
X151510013Y-90978820D01*
X151364595Y-91173077D01*
X151355345Y-91183753D01*
X151183753Y-91355345D01*
X151173077Y-91364595D01*
X150978820Y-91510013D01*
X150966938Y-91517649D01*
X150753962Y-91633944D01*
X150741113Y-91639812D01*
X150603110Y-91691284D01*
X150513747Y-91724615D01*
X150500200Y-91728592D01*
X150263088Y-91780173D01*
X150249112Y-91782184D01*
X150032127Y-91797702D01*
X150022372Y-91796946D01*
X150022371Y-91797374D01*
X150011221Y-91797355D01*
X150000358Y-91794857D01*
X149989486Y-91797317D01*
X149989485Y-91797317D01*
X149988417Y-91797559D01*
X149966568Y-91800000D01*
X145033960Y-91800000D01*
X145011773Y-91797482D01*
X145000358Y-91794857D01*
X144989483Y-91797318D01*
X144978337Y-91797298D01*
X144978338Y-91796985D01*
X144968388Y-91797739D01*
X144750888Y-91782184D01*
X144736912Y-91780173D01*
X144499800Y-91728592D01*
X144486253Y-91724615D01*
X144396890Y-91691284D01*
X144258887Y-91639812D01*
X144246038Y-91633944D01*
X144033062Y-91517649D01*
X144021180Y-91510013D01*
X143826923Y-91364595D01*
X143816247Y-91355345D01*
X143644655Y-91183753D01*
X143635405Y-91173077D01*
X143489987Y-90978820D01*
X143482351Y-90966938D01*
X143366056Y-90753962D01*
X143360188Y-90741113D01*
X143275386Y-90513750D01*
X143271407Y-90500197D01*
X143219827Y-90263091D01*
X143217816Y-90249109D01*
X143200505Y-90007062D01*
X143200505Y-89992938D01*
X143217816Y-89750891D01*
X143219827Y-89736909D01*
X143271407Y-89499803D01*
X143275386Y-89486250D01*
X143360188Y-89258887D01*
X143366056Y-89246038D01*
X143482351Y-89033062D01*
X143489987Y-89021180D01*
X143635405Y-88826923D01*
X143644655Y-88816247D01*
X143816247Y-88644655D01*
X143826923Y-88635405D01*
X144021180Y-88489987D01*
X144033062Y-88482351D01*
X144246038Y-88366056D01*
X144258887Y-88360188D01*
X144396890Y-88308716D01*
X144486253Y-88275385D01*
X144499800Y-88271408D01*
X144736912Y-88219827D01*
X144750888Y-88217816D01*
X144967873Y-88202298D01*
X144977628Y-88203054D01*
X144977629Y-88202626D01*
X144988779Y-88202645D01*
X144999642Y-88205143D01*
X145010514Y-88202683D01*
X145010515Y-88202683D01*
X145010904Y-88202595D01*
X145011434Y-88202475D01*
X145033360Y-88200035D01*
X145034298Y-88200036D01*
X145034301Y-88200035D01*
X145045449Y-88200045D01*
X145056106Y-88194928D01*
X145077110Y-88187614D01*
X145077765Y-88187466D01*
X145077767Y-88187465D01*
X145088639Y-88185005D01*
X145098106Y-88177488D01*
X145116809Y-88165779D01*
X145127705Y-88160547D01*
X145134666Y-88151843D01*
X145134667Y-88151842D01*
X145135087Y-88151316D01*
X145150843Y-88135615D01*
X145151367Y-88135199D01*
X145151369Y-88135197D01*
X145160100Y-88128264D01*
X145165370Y-88117387D01*
X145177147Y-88098722D01*
X145177731Y-88097992D01*
X145177731Y-88097991D01*
X145184694Y-88089285D01*
X145187192Y-88078422D01*
X145187194Y-88078417D01*
X145187344Y-88077764D01*
X145194733Y-88056780D01*
X145195025Y-88056178D01*
X145195025Y-88056177D01*
X145199885Y-88046147D01*
X145199946Y-88022959D01*
X145201667Y-88022964D01*
X145201643Y-88022723D01*
X145200000Y-88022723D01*
X145200000Y-88002242D01*
X145200122Y-87955703D01*
X145200122Y-87955702D01*
X145200124Y-87954900D01*
X145200005Y-87954650D01*
X145200000Y-87954610D01*
X145200000Y-83199500D01*
X145218907Y-83141309D01*
X145268407Y-83105345D01*
X145299000Y-83100500D01*
X149701000Y-83100500D01*
X149759191Y-83119407D01*
G37*
%TD.AperFunction*%
%TA.AperFunction,Conductor*%
G36*
X149988227Y-73202518D02*
G01*
X149999642Y-73205143D01*
X150010517Y-73202682D01*
X150021663Y-73202702D01*
X150021662Y-73203015D01*
X150031612Y-73202261D01*
X150249112Y-73217816D01*
X150263088Y-73219827D01*
X150500200Y-73271408D01*
X150513747Y-73275385D01*
X150603110Y-73308716D01*
X150741113Y-73360188D01*
X150753962Y-73366056D01*
X150966938Y-73482351D01*
X150978820Y-73489987D01*
X151173077Y-73635405D01*
X151183753Y-73644655D01*
X151355345Y-73816247D01*
X151364595Y-73826923D01*
X151510013Y-74021180D01*
X151517649Y-74033062D01*
X151633944Y-74246038D01*
X151639812Y-74258887D01*
X151724614Y-74486250D01*
X151728593Y-74499803D01*
X151780173Y-74736909D01*
X151782184Y-74750891D01*
X151799495Y-74992938D01*
X151799495Y-75007062D01*
X151782184Y-75249109D01*
X151780173Y-75263091D01*
X151728593Y-75500197D01*
X151724614Y-75513750D01*
X151639812Y-75741113D01*
X151633944Y-75753962D01*
X151517649Y-75966938D01*
X151510013Y-75978820D01*
X151364595Y-76173077D01*
X151355345Y-76183753D01*
X151183753Y-76355345D01*
X151173077Y-76364595D01*
X150978820Y-76510013D01*
X150966938Y-76517649D01*
X150753962Y-76633944D01*
X150741113Y-76639812D01*
X150603110Y-76691284D01*
X150513747Y-76724615D01*
X150500200Y-76728592D01*
X150263088Y-76780173D01*
X150249112Y-76782184D01*
X150032127Y-76797702D01*
X150022372Y-76796946D01*
X150022371Y-76797374D01*
X150011221Y-76797355D01*
X150000358Y-76794857D01*
X149989486Y-76797317D01*
X149989485Y-76797317D01*
X149989096Y-76797405D01*
X149988566Y-76797525D01*
X149966640Y-76799965D01*
X149965702Y-76799964D01*
X149965699Y-76799965D01*
X149954551Y-76799955D01*
X149943894Y-76805072D01*
X149922890Y-76812386D01*
X149922235Y-76812534D01*
X149922233Y-76812535D01*
X149911361Y-76814995D01*
X149901894Y-76822512D01*
X149883193Y-76834220D01*
X149872295Y-76839453D01*
X149865334Y-76848157D01*
X149865333Y-76848158D01*
X149864913Y-76848684D01*
X149849157Y-76864385D01*
X149848633Y-76864801D01*
X149848631Y-76864803D01*
X149839900Y-76871736D01*
X149835039Y-76881770D01*
X149835038Y-76881771D01*
X149834630Y-76882613D01*
X149822853Y-76901278D01*
X149815306Y-76910715D01*
X149812808Y-76921578D01*
X149812806Y-76921583D01*
X149812656Y-76922236D01*
X149805267Y-76943220D01*
X149800115Y-76953853D01*
X149800054Y-76977041D01*
X149798333Y-76977036D01*
X149798357Y-76977277D01*
X149800000Y-76977277D01*
X149800000Y-76997758D01*
X149799876Y-77045100D01*
X149799995Y-77045350D01*
X149800000Y-77045390D01*
X149800000Y-81800500D01*
X149781093Y-81858691D01*
X149731593Y-81894655D01*
X149701000Y-81899500D01*
X145299000Y-81899500D01*
X145240809Y-81880593D01*
X145204845Y-81831093D01*
X145200000Y-81800500D01*
X145200000Y-77005877D01*
X145200035Y-76965700D01*
X145200045Y-76954551D01*
X145194815Y-76943659D01*
X145187537Y-76922817D01*
X145187330Y-76921907D01*
X145187328Y-76921904D01*
X145184850Y-76911038D01*
X145177480Y-76901789D01*
X145165666Y-76882954D01*
X145165375Y-76882347D01*
X145165372Y-76882343D01*
X145160547Y-76872295D01*
X145151107Y-76864746D01*
X145135516Y-76849128D01*
X145127985Y-76839677D01*
X145117337Y-76834541D01*
X145098522Y-76822692D01*
X145097995Y-76822270D01*
X145097990Y-76822268D01*
X145089285Y-76815306D01*
X145077508Y-76812598D01*
X145056682Y-76805285D01*
X145055836Y-76804877D01*
X145045798Y-76800035D01*
X145033982Y-76800025D01*
X145011880Y-76797506D01*
X145011226Y-76797356D01*
X145011225Y-76797356D01*
X145000358Y-76794857D01*
X144989483Y-76797318D01*
X144978337Y-76797298D01*
X144978338Y-76796985D01*
X144968388Y-76797739D01*
X144750888Y-76782184D01*
X144736912Y-76780173D01*
X144499800Y-76728592D01*
X144486253Y-76724615D01*
X144396890Y-76691284D01*
X144258887Y-76639812D01*
X144246038Y-76633944D01*
X144033062Y-76517649D01*
X144021180Y-76510013D01*
X143826923Y-76364595D01*
X143816247Y-76355345D01*
X143644655Y-76183753D01*
X143635405Y-76173077D01*
X143489987Y-75978820D01*
X143482351Y-75966938D01*
X143366056Y-75753962D01*
X143360188Y-75741113D01*
X143275386Y-75513750D01*
X143271407Y-75500197D01*
X143219827Y-75263091D01*
X143217816Y-75249109D01*
X143200505Y-75007062D01*
X143200505Y-74992938D01*
X143217816Y-74750891D01*
X143219827Y-74736909D01*
X143271407Y-74499803D01*
X143275386Y-74486250D01*
X143360188Y-74258887D01*
X143366056Y-74246038D01*
X143482351Y-74033062D01*
X143489987Y-74021180D01*
X143635405Y-73826923D01*
X143644655Y-73816247D01*
X143816247Y-73644655D01*
X143826923Y-73635405D01*
X144021180Y-73489987D01*
X144033062Y-73482351D01*
X144246038Y-73366056D01*
X144258887Y-73360188D01*
X144396890Y-73308716D01*
X144486253Y-73275385D01*
X144499800Y-73271408D01*
X144736912Y-73219827D01*
X144750888Y-73217816D01*
X144967873Y-73202298D01*
X144977628Y-73203054D01*
X144977629Y-73202626D01*
X144988779Y-73202645D01*
X144999642Y-73205143D01*
X145010514Y-73202683D01*
X145010515Y-73202683D01*
X145011583Y-73202441D01*
X145033432Y-73200000D01*
X149966040Y-73200000D01*
X149988227Y-73202518D01*
G37*
%TD.AperFunction*%
%TD*%
M02*
