%TF.GenerationSoftware,KiCad,Pcbnew,6.0.1-79c1e3a40b~116~ubuntu20.04.1*%
%TF.CreationDate,2022-01-29T11:44:29+01:00*%
%TF.ProjectId,pcb-connector,7063622d-636f-46e6-9e65-63746f722e6b,rev?*%
%TF.SameCoordinates,Original*%
%TF.FileFunction,Soldermask,Top*%
%TF.FilePolarity,Negative*%
%FSLAX46Y46*%
G04 Gerber Fmt 4.6, Leading zero omitted, Abs format (unit mm)*
G04 Created by KiCad (PCBNEW 6.0.1-79c1e3a40b~116~ubuntu20.04.1) date 2022-01-29 11:44:29*
%MOMM*%
%LPD*%
G01*
G04 APERTURE LIST*
%ADD10C,3.400000*%
G04 APERTURE END LIST*
%TO.C,J2*%
G36*
X150000000Y-85500000D02*
G01*
X147000000Y-85500000D01*
X147000000Y-79500000D01*
X150000000Y-79500000D01*
X150000000Y-85500000D01*
G37*
%TO.C,J1*%
G36*
X148000000Y-85500000D02*
G01*
X145000000Y-85500000D01*
X145000000Y-79500000D01*
X148000000Y-79500000D01*
X148000000Y-85500000D01*
G37*
%TD*%
D10*
%TO.C,H4*%
X145000000Y-90000000D03*
%TD*%
%TO.C,H3*%
X150000000Y-75000000D03*
%TD*%
%TO.C,H1*%
X145000000Y-75000000D03*
%TD*%
%TO.C,H2*%
X150000000Y-90000000D03*
%TD*%
G36*
X150004487Y-73000321D02*
G01*
X150275645Y-73019714D01*
X150293440Y-73022273D01*
X150554654Y-73079097D01*
X150571903Y-73084161D01*
X150822386Y-73177586D01*
X150838740Y-73185055D01*
X151073375Y-73313176D01*
X151088498Y-73322895D01*
X151302510Y-73483103D01*
X151316096Y-73494876D01*
X151505124Y-73683904D01*
X151516897Y-73697490D01*
X151677105Y-73911502D01*
X151686824Y-73926625D01*
X151814945Y-74161260D01*
X151822414Y-74177614D01*
X151915839Y-74428097D01*
X151920903Y-74445346D01*
X151977727Y-74706560D01*
X151980286Y-74724355D01*
X151999357Y-74991012D01*
X151999357Y-75008988D01*
X151980286Y-75275645D01*
X151977727Y-75293440D01*
X151920903Y-75554654D01*
X151915839Y-75571903D01*
X151822414Y-75822386D01*
X151814945Y-75838740D01*
X151686824Y-76073375D01*
X151677105Y-76088498D01*
X151516897Y-76302510D01*
X151505124Y-76316096D01*
X151316096Y-76505124D01*
X151302510Y-76516897D01*
X151088498Y-76677105D01*
X151073375Y-76686824D01*
X150838740Y-76814945D01*
X150822386Y-76822414D01*
X150571903Y-76915839D01*
X150554654Y-76920903D01*
X150293440Y-76977727D01*
X150275645Y-76980286D01*
X150018068Y-76998708D01*
X150003187Y-77004258D01*
X150000656Y-77007640D01*
X150000000Y-77011274D01*
X150000000Y-87981885D01*
X150004475Y-87997124D01*
X150007669Y-87999892D01*
X150011245Y-88000804D01*
X150275645Y-88019714D01*
X150293440Y-88022273D01*
X150554654Y-88079097D01*
X150571903Y-88084161D01*
X150822386Y-88177586D01*
X150838740Y-88185055D01*
X151073375Y-88313176D01*
X151088498Y-88322895D01*
X151302510Y-88483103D01*
X151316096Y-88494876D01*
X151505124Y-88683904D01*
X151516897Y-88697490D01*
X151677105Y-88911502D01*
X151686824Y-88926625D01*
X151814945Y-89161260D01*
X151822414Y-89177614D01*
X151915839Y-89428097D01*
X151920903Y-89445346D01*
X151977727Y-89706560D01*
X151980286Y-89724355D01*
X151999357Y-89991012D01*
X151999357Y-90008988D01*
X151980286Y-90275645D01*
X151977727Y-90293440D01*
X151920903Y-90554654D01*
X151915839Y-90571903D01*
X151822414Y-90822386D01*
X151814945Y-90838740D01*
X151686824Y-91073375D01*
X151677105Y-91088498D01*
X151516897Y-91302510D01*
X151505124Y-91316096D01*
X151316096Y-91505124D01*
X151302510Y-91516897D01*
X151088498Y-91677105D01*
X151073375Y-91686824D01*
X150838740Y-91814945D01*
X150822386Y-91822414D01*
X150571903Y-91915839D01*
X150554654Y-91920903D01*
X150293440Y-91977727D01*
X150275645Y-91980286D01*
X150004487Y-91999679D01*
X149995499Y-92000000D01*
X145004501Y-92000000D01*
X144995513Y-91999679D01*
X144724355Y-91980286D01*
X144706560Y-91977727D01*
X144445346Y-91920903D01*
X144428097Y-91915839D01*
X144177614Y-91822414D01*
X144161260Y-91814945D01*
X143926625Y-91686824D01*
X143911502Y-91677105D01*
X143697490Y-91516897D01*
X143683904Y-91505124D01*
X143494876Y-91316096D01*
X143483103Y-91302510D01*
X143322895Y-91088498D01*
X143313176Y-91073375D01*
X143185055Y-90838740D01*
X143177586Y-90822386D01*
X143084161Y-90571903D01*
X143079097Y-90554654D01*
X143022273Y-90293440D01*
X143019714Y-90275645D01*
X143000643Y-90008988D01*
X143000643Y-89991012D01*
X143019714Y-89724355D01*
X143022273Y-89706560D01*
X143079097Y-89445346D01*
X143084161Y-89428097D01*
X143177586Y-89177614D01*
X143185055Y-89161260D01*
X143313176Y-88926625D01*
X143322895Y-88911502D01*
X143483103Y-88697490D01*
X143494876Y-88683904D01*
X143683904Y-88494876D01*
X143697490Y-88483103D01*
X143911502Y-88322895D01*
X143926625Y-88313176D01*
X144161260Y-88185055D01*
X144177614Y-88177586D01*
X144428097Y-88084161D01*
X144445346Y-88079097D01*
X144706560Y-88022273D01*
X144724355Y-88019714D01*
X144981932Y-88001292D01*
X144996813Y-87995742D01*
X144999344Y-87992360D01*
X145000000Y-87988726D01*
X145000000Y-77018115D01*
X144995525Y-77002876D01*
X144992331Y-77000108D01*
X144988755Y-76999196D01*
X144724355Y-76980286D01*
X144706560Y-76977727D01*
X144445346Y-76920903D01*
X144428097Y-76915839D01*
X144177614Y-76822414D01*
X144161260Y-76814945D01*
X143926625Y-76686824D01*
X143911502Y-76677105D01*
X143697490Y-76516897D01*
X143683904Y-76505124D01*
X143494876Y-76316096D01*
X143483103Y-76302510D01*
X143322895Y-76088498D01*
X143313176Y-76073375D01*
X143185055Y-75838740D01*
X143177586Y-75822386D01*
X143084161Y-75571903D01*
X143079097Y-75554654D01*
X143022273Y-75293440D01*
X143019714Y-75275645D01*
X143000643Y-75008988D01*
X143000643Y-74991012D01*
X143019714Y-74724355D01*
X143022273Y-74706560D01*
X143079097Y-74445346D01*
X143084161Y-74428097D01*
X143177586Y-74177614D01*
X143185055Y-74161260D01*
X143313176Y-73926625D01*
X143322895Y-73911502D01*
X143483103Y-73697490D01*
X143494876Y-73683904D01*
X143683904Y-73494876D01*
X143697490Y-73483103D01*
X143911502Y-73322895D01*
X143926625Y-73313176D01*
X144161260Y-73185055D01*
X144177614Y-73177586D01*
X144428097Y-73084161D01*
X144445346Y-73079097D01*
X144706560Y-73022273D01*
X144724355Y-73019714D01*
X144995513Y-73000321D01*
X145004501Y-73000000D01*
X149995499Y-73000000D01*
X150004487Y-73000321D01*
G37*
M02*
