%TF.GenerationSoftware,KiCad,Pcbnew,6.0.9+dfsg-1~bpo11+1*%
%TF.CreationDate,2022-11-11T14:52:19+01:00*%
%TF.ProjectId,014-base-power-board,3031342d-6261-4736-952d-706f7765722d,1*%
%TF.SameCoordinates,Original*%
%TF.FileFunction,Soldermask,Bot*%
%TF.FilePolarity,Negative*%
%FSLAX46Y46*%
G04 Gerber Fmt 4.6, Leading zero omitted, Abs format (unit mm)*
G04 Created by KiCad (PCBNEW 6.0.9+dfsg-1~bpo11+1) date 2022-11-11 14:52:19*
%MOMM*%
%LPD*%
G01*
G04 APERTURE LIST*
%ADD10C,8.000000*%
%ADD11R,1.000000X2.510000*%
%ADD12R,2.510000X1.000000*%
%ADD13C,3.400000*%
G04 APERTURE END LIST*
D10*
%TO.C,J1*%
X106500000Y-90500000D03*
%TD*%
%TO.C,J7*%
X133500000Y-90500000D03*
%TD*%
%TO.C,J3*%
X115500000Y-90500000D03*
%TD*%
%TO.C,J9*%
X142500000Y-90500000D03*
%TD*%
%TO.C,J5*%
X124500000Y-90500000D03*
%TD*%
D11*
%TO.C,J10*%
X170650000Y-94345000D03*
X173190000Y-97655000D03*
X175730000Y-94345000D03*
X178270000Y-97655000D03*
X180810000Y-94345000D03*
X183350000Y-97655000D03*
%TD*%
%TO.C,J8*%
X170650000Y-83345000D03*
X173190000Y-86655000D03*
X175730000Y-83345000D03*
X178270000Y-86655000D03*
X180810000Y-83345000D03*
X183350000Y-86655000D03*
%TD*%
%TO.C,J6*%
X154150000Y-83345000D03*
X156690000Y-86655000D03*
X159230000Y-83345000D03*
X161770000Y-86655000D03*
X164310000Y-83345000D03*
X166850000Y-86655000D03*
%TD*%
%TO.C,J4*%
X154150000Y-94345000D03*
X156690000Y-97655000D03*
X159230000Y-94345000D03*
X161770000Y-97655000D03*
X164310000Y-94345000D03*
X166850000Y-97655000D03*
%TD*%
D12*
%TO.C,J2*%
X190655000Y-84150000D03*
X187345000Y-86690000D03*
X190655000Y-89230000D03*
X187345000Y-91770000D03*
X190655000Y-94310000D03*
X187345000Y-96850000D03*
%TD*%
D13*
%TO.C,H4*%
X195000000Y-98000000D03*
%TD*%
%TO.C,H1*%
X101000000Y-83000000D03*
%TD*%
%TO.C,H3*%
X195000000Y-83000000D03*
%TD*%
%TO.C,H6*%
X101000000Y-98000000D03*
%TD*%
%TO.C,H2*%
X148500000Y-83000000D03*
%TD*%
%TO.C,H5*%
X148500000Y-98000000D03*
%TD*%
G36*
X150959191Y-80518907D02*
G01*
X150995155Y-80568407D01*
X151000000Y-80599000D01*
X151000000Y-85901000D01*
X150981093Y-85959191D01*
X150931593Y-85995155D01*
X150901000Y-86000000D01*
X148041008Y-86000000D01*
X147982817Y-85981093D01*
X147971004Y-85971004D01*
X145011086Y-83011086D01*
X144989328Y-83000000D01*
X130515680Y-83000000D01*
X130492453Y-83007547D01*
X127528996Y-85971004D01*
X127474479Y-85998781D01*
X127458992Y-86000000D01*
X113515680Y-86000000D01*
X113492453Y-86007547D01*
X99564184Y-99935816D01*
X99509667Y-99963593D01*
X99449235Y-99954022D01*
X99428905Y-99940244D01*
X99237112Y-99772045D01*
X99227955Y-99762888D01*
X99020896Y-99526783D01*
X99013013Y-99516510D01*
X98838541Y-99255395D01*
X98832066Y-99244180D01*
X98693172Y-98962531D01*
X98688216Y-98950567D01*
X98587271Y-98653194D01*
X98583919Y-98640685D01*
X98522653Y-98332677D01*
X98520963Y-98319838D01*
X98500212Y-98003234D01*
X98500000Y-97996759D01*
X98500000Y-83003241D01*
X98500212Y-82996766D01*
X98520963Y-82680162D01*
X98522653Y-82667323D01*
X98583919Y-82359315D01*
X98587271Y-82346806D01*
X98688216Y-82049433D01*
X98693172Y-82037469D01*
X98832066Y-81755820D01*
X98838541Y-81744605D01*
X99013013Y-81483490D01*
X99020896Y-81473217D01*
X99227955Y-81237112D01*
X99237112Y-81227955D01*
X99473217Y-81020896D01*
X99483490Y-81013013D01*
X99744605Y-80838541D01*
X99755820Y-80832066D01*
X100037469Y-80693172D01*
X100049433Y-80688216D01*
X100346806Y-80587271D01*
X100359315Y-80583919D01*
X100667323Y-80522653D01*
X100680162Y-80520963D01*
X100996766Y-80500212D01*
X101003241Y-80500000D01*
X150901000Y-80500000D01*
X150959191Y-80518907D01*
G37*
M02*
