%TF.GenerationSoftware,KiCad,Pcbnew,6.0.9+dfsg-1~bpo11+1*%
%TF.CreationDate,2022-11-11T14:52:19+01:00*%
%TF.ProjectId,014-base-power-board,3031342d-6261-4736-952d-706f7765722d,1*%
%TF.SameCoordinates,Original*%
%TF.FileFunction,Legend,Top*%
%TF.FilePolarity,Positive*%
%FSLAX46Y46*%
G04 Gerber Fmt 4.6, Leading zero omitted, Abs format (unit mm)*
G04 Created by KiCad (PCBNEW 6.0.9+dfsg-1~bpo11+1) date 2022-11-11 14:52:19*
%MOMM*%
%LPD*%
G01*
G04 APERTURE LIST*
%ADD10C,0.300000*%
%ADD11C,0.150000*%
G04 APERTURE END LIST*
D10*
X141285714Y-84178571D02*
X141785714Y-85678571D01*
X142285714Y-84178571D01*
X143428571Y-84678571D02*
X143428571Y-85678571D01*
X143071428Y-84107142D02*
X142714285Y-85178571D01*
X143642857Y-85178571D01*
X132285714Y-84178571D02*
X132785714Y-85678571D01*
X133285714Y-84178571D01*
X133642857Y-84178571D02*
X134571428Y-84178571D01*
X134071428Y-84750000D01*
X134285714Y-84750000D01*
X134428571Y-84821428D01*
X134500000Y-84892857D01*
X134571428Y-85035714D01*
X134571428Y-85392857D01*
X134500000Y-85535714D01*
X134428571Y-85607142D01*
X134285714Y-85678571D01*
X133857142Y-85678571D01*
X133714285Y-85607142D01*
X133642857Y-85535714D01*
X123285714Y-84178571D02*
X123785714Y-85678571D01*
X124285714Y-84178571D01*
X124714285Y-84321428D02*
X124785714Y-84250000D01*
X124928571Y-84178571D01*
X125285714Y-84178571D01*
X125428571Y-84250000D01*
X125500000Y-84321428D01*
X125571428Y-84464285D01*
X125571428Y-84607142D01*
X125500000Y-84821428D01*
X124642857Y-85678571D01*
X125571428Y-85678571D01*
X114285714Y-84178571D02*
X114785714Y-85678571D01*
X115285714Y-84178571D01*
X116571428Y-85678571D02*
X115714285Y-85678571D01*
X116142857Y-85678571D02*
X116142857Y-84178571D01*
X116000000Y-84392857D01*
X115857142Y-84535714D01*
X115714285Y-84607142D01*
X105357142Y-84250000D02*
X105214285Y-84178571D01*
X105000000Y-84178571D01*
X104785714Y-84250000D01*
X104642857Y-84392857D01*
X104571428Y-84535714D01*
X104500000Y-84821428D01*
X104500000Y-85035714D01*
X104571428Y-85321428D01*
X104642857Y-85464285D01*
X104785714Y-85607142D01*
X105000000Y-85678571D01*
X105142857Y-85678571D01*
X105357142Y-85607142D01*
X105428571Y-85535714D01*
X105428571Y-85035714D01*
X105142857Y-85035714D01*
X106071428Y-85678571D02*
X106071428Y-84178571D01*
X106928571Y-85678571D01*
X106928571Y-84178571D01*
X107642857Y-85678571D02*
X107642857Y-84178571D01*
X108000000Y-84178571D01*
X108214285Y-84250000D01*
X108357142Y-84392857D01*
X108428571Y-84535714D01*
X108500000Y-84821428D01*
X108500000Y-85035714D01*
X108428571Y-85321428D01*
X108357142Y-85464285D01*
X108214285Y-85607142D01*
X108000000Y-85678571D01*
X107642857Y-85678571D01*
D11*
X105500000Y-97452380D02*
X105595238Y-97452380D01*
X105690476Y-97500000D01*
X105738095Y-97547619D01*
X105785714Y-97642857D01*
X105833333Y-97833333D01*
X105833333Y-98071428D01*
X105785714Y-98261904D01*
X105738095Y-98357142D01*
X105690476Y-98404761D01*
X105595238Y-98452380D01*
X105500000Y-98452380D01*
X105404761Y-98404761D01*
X105357142Y-98357142D01*
X105309523Y-98261904D01*
X105261904Y-98071428D01*
X105261904Y-97833333D01*
X105309523Y-97642857D01*
X105357142Y-97547619D01*
X105404761Y-97500000D01*
X105500000Y-97452380D01*
X106785714Y-98452380D02*
X106214285Y-98452380D01*
X106500000Y-98452380D02*
X106500000Y-97452380D01*
X106404761Y-97595238D01*
X106309523Y-97690476D01*
X106214285Y-97738095D01*
X107642857Y-97785714D02*
X107642857Y-98452380D01*
X107404761Y-97404761D02*
X107166666Y-98119047D01*
X107785714Y-98119047D01*
G36*
X191959191Y-81518907D02*
G01*
X191995155Y-81568407D01*
X192000000Y-81599000D01*
X192000000Y-89401000D01*
X191981093Y-89459191D01*
X191931593Y-89495155D01*
X191901000Y-89500000D01*
X151599000Y-89500000D01*
X151540809Y-89481093D01*
X151504845Y-89431593D01*
X151500000Y-89401000D01*
X151500000Y-81599000D01*
X151518907Y-81540809D01*
X151568407Y-81504845D01*
X151599000Y-81500000D01*
X191901000Y-81500000D01*
X191959191Y-81518907D01*
G37*
M02*
