%TF.GenerationSoftware,KiCad,Pcbnew,6.0.9+dfsg-1~bpo11+1*%
%TF.CreationDate,2022-11-11T14:52:19+01:00*%
%TF.ProjectId,014-base-power-board,3031342d-6261-4736-952d-706f7765722d,1*%
%TF.SameCoordinates,Original*%
%TF.FileFunction,Soldermask,Top*%
%TF.FilePolarity,Negative*%
%FSLAX46Y46*%
G04 Gerber Fmt 4.6, Leading zero omitted, Abs format (unit mm)*
G04 Created by KiCad (PCBNEW 6.0.9+dfsg-1~bpo11+1) date 2022-11-11 14:52:19*
%MOMM*%
%LPD*%
G01*
G04 APERTURE LIST*
%ADD10C,0.150000*%
%ADD11C,8.000000*%
%ADD12C,3.400000*%
G04 APERTURE END LIST*
D10*
X160335595Y-95842380D02*
X160335595Y-94842380D01*
X160668928Y-95556666D01*
X161002261Y-94842380D01*
X161002261Y-95842380D01*
X161621309Y-95842380D02*
X161526071Y-95794761D01*
X161478452Y-95747142D01*
X161430833Y-95651904D01*
X161430833Y-95366190D01*
X161478452Y-95270952D01*
X161526071Y-95223333D01*
X161621309Y-95175714D01*
X161764166Y-95175714D01*
X161859404Y-95223333D01*
X161907023Y-95270952D01*
X161954642Y-95366190D01*
X161954642Y-95651904D01*
X161907023Y-95747142D01*
X161859404Y-95794761D01*
X161764166Y-95842380D01*
X161621309Y-95842380D01*
X162811785Y-95842380D02*
X162811785Y-94842380D01*
X162811785Y-95794761D02*
X162716547Y-95842380D01*
X162526071Y-95842380D01*
X162430833Y-95794761D01*
X162383214Y-95747142D01*
X162335595Y-95651904D01*
X162335595Y-95366190D01*
X162383214Y-95270952D01*
X162430833Y-95223333D01*
X162526071Y-95175714D01*
X162716547Y-95175714D01*
X162811785Y-95223333D01*
X163716547Y-95175714D02*
X163716547Y-95842380D01*
X163287976Y-95175714D02*
X163287976Y-95699523D01*
X163335595Y-95794761D01*
X163430833Y-95842380D01*
X163573690Y-95842380D01*
X163668928Y-95794761D01*
X163716547Y-95747142D01*
X164335595Y-95842380D02*
X164240357Y-95794761D01*
X164192738Y-95699523D01*
X164192738Y-94842380D01*
X165145119Y-95842380D02*
X165145119Y-95318571D01*
X165097500Y-95223333D01*
X165002261Y-95175714D01*
X164811785Y-95175714D01*
X164716547Y-95223333D01*
X165145119Y-95794761D02*
X165049880Y-95842380D01*
X164811785Y-95842380D01*
X164716547Y-95794761D01*
X164668928Y-95699523D01*
X164668928Y-95604285D01*
X164716547Y-95509047D01*
X164811785Y-95461428D01*
X165049880Y-95461428D01*
X165145119Y-95413809D01*
X165621309Y-95842380D02*
X165621309Y-95175714D01*
X165621309Y-95366190D02*
X165668928Y-95270952D01*
X165716547Y-95223333D01*
X165811785Y-95175714D01*
X165907023Y-95175714D01*
X167573690Y-95842380D02*
X167240357Y-95366190D01*
X167002261Y-95842380D02*
X167002261Y-94842380D01*
X167383214Y-94842380D01*
X167478452Y-94890000D01*
X167526071Y-94937619D01*
X167573690Y-95032857D01*
X167573690Y-95175714D01*
X167526071Y-95270952D01*
X167478452Y-95318571D01*
X167383214Y-95366190D01*
X167002261Y-95366190D01*
X168335595Y-95318571D02*
X168002261Y-95318571D01*
X168002261Y-95842380D02*
X168002261Y-94842380D01*
X168478452Y-94842380D01*
X169954642Y-95318571D02*
X170097500Y-95366190D01*
X170145119Y-95413809D01*
X170192738Y-95509047D01*
X170192738Y-95651904D01*
X170145119Y-95747142D01*
X170097500Y-95794761D01*
X170002261Y-95842380D01*
X169621309Y-95842380D01*
X169621309Y-94842380D01*
X169954642Y-94842380D01*
X170049880Y-94890000D01*
X170097500Y-94937619D01*
X170145119Y-95032857D01*
X170145119Y-95128095D01*
X170097500Y-95223333D01*
X170049880Y-95270952D01*
X169954642Y-95318571D01*
X169621309Y-95318571D01*
X171002261Y-95794761D02*
X170907023Y-95842380D01*
X170716547Y-95842380D01*
X170621309Y-95794761D01*
X170573690Y-95699523D01*
X170573690Y-95318571D01*
X170621309Y-95223333D01*
X170716547Y-95175714D01*
X170907023Y-95175714D01*
X171002261Y-95223333D01*
X171049880Y-95318571D01*
X171049880Y-95413809D01*
X170573690Y-95509047D01*
X171478452Y-95175714D02*
X171478452Y-95842380D01*
X171478452Y-95270952D02*
X171526071Y-95223333D01*
X171621309Y-95175714D01*
X171764166Y-95175714D01*
X171859404Y-95223333D01*
X171907023Y-95318571D01*
X171907023Y-95842380D01*
X172811785Y-95794761D02*
X172716547Y-95842380D01*
X172526071Y-95842380D01*
X172430833Y-95794761D01*
X172383214Y-95747142D01*
X172335595Y-95651904D01*
X172335595Y-95366190D01*
X172383214Y-95270952D01*
X172430833Y-95223333D01*
X172526071Y-95175714D01*
X172716547Y-95175714D01*
X172811785Y-95223333D01*
X173240357Y-95842380D02*
X173240357Y-94842380D01*
X173668928Y-95842380D02*
X173668928Y-95318571D01*
X173621309Y-95223333D01*
X173526071Y-95175714D01*
X173383214Y-95175714D01*
X173287976Y-95223333D01*
X173240357Y-95270952D01*
X160621309Y-96452380D02*
X160621309Y-97166666D01*
X160573690Y-97309523D01*
X160478452Y-97404761D01*
X160335595Y-97452380D01*
X160240357Y-97452380D01*
X161526071Y-97452380D02*
X161526071Y-96928571D01*
X161478452Y-96833333D01*
X161383214Y-96785714D01*
X161192738Y-96785714D01*
X161097500Y-96833333D01*
X161526071Y-97404761D02*
X161430833Y-97452380D01*
X161192738Y-97452380D01*
X161097500Y-97404761D01*
X161049880Y-97309523D01*
X161049880Y-97214285D01*
X161097500Y-97119047D01*
X161192738Y-97071428D01*
X161430833Y-97071428D01*
X161526071Y-97023809D01*
X162002261Y-97452380D02*
X162002261Y-96452380D01*
X162097500Y-97071428D02*
X162383214Y-97452380D01*
X162383214Y-96785714D02*
X162002261Y-97166666D01*
X163240357Y-96785714D02*
X163240357Y-97452380D01*
X162811785Y-96785714D02*
X162811785Y-97309523D01*
X162859404Y-97404761D01*
X162954642Y-97452380D01*
X163097500Y-97452380D01*
X163192738Y-97404761D01*
X163240357Y-97357142D01*
X163716547Y-97452380D02*
X163716547Y-96452380D01*
X163716547Y-96833333D02*
X163811785Y-96785714D01*
X164002261Y-96785714D01*
X164097500Y-96833333D01*
X164145119Y-96880952D01*
X164192738Y-96976190D01*
X164192738Y-97261904D01*
X164145119Y-97357142D01*
X164097500Y-97404761D01*
X164002261Y-97452380D01*
X163811785Y-97452380D01*
X163716547Y-97404761D01*
X165383214Y-97452380D02*
X165383214Y-96452380D01*
X165954642Y-97452380D01*
X165954642Y-96452380D01*
X166430833Y-97452380D02*
X166430833Y-96785714D01*
X166430833Y-96452380D02*
X166383214Y-96500000D01*
X166430833Y-96547619D01*
X166478452Y-96500000D01*
X166430833Y-96452380D01*
X166430833Y-96547619D01*
X167287976Y-97404761D02*
X167192738Y-97452380D01*
X167002261Y-97452380D01*
X166907023Y-97404761D01*
X166859404Y-97309523D01*
X166859404Y-96928571D01*
X166907023Y-96833333D01*
X167002261Y-96785714D01*
X167192738Y-96785714D01*
X167287976Y-96833333D01*
X167335595Y-96928571D01*
X167335595Y-97023809D01*
X166859404Y-97119047D01*
X167764166Y-97452380D02*
X167764166Y-96785714D01*
X167764166Y-96880952D02*
X167811785Y-96833333D01*
X167907023Y-96785714D01*
X168049880Y-96785714D01*
X168145119Y-96833333D01*
X168192738Y-96928571D01*
X168192738Y-97452380D01*
X168192738Y-96928571D02*
X168240357Y-96833333D01*
X168335595Y-96785714D01*
X168478452Y-96785714D01*
X168573690Y-96833333D01*
X168621309Y-96928571D01*
X168621309Y-97452380D01*
X169526071Y-97404761D02*
X169430833Y-97452380D01*
X169240357Y-97452380D01*
X169145119Y-97404761D01*
X169097500Y-97357142D01*
X169049880Y-97261904D01*
X169049880Y-96976190D01*
X169097500Y-96880952D01*
X169145119Y-96833333D01*
X169240357Y-96785714D01*
X169430833Y-96785714D01*
X169526071Y-96833333D01*
X169859404Y-96785714D02*
X170383214Y-96785714D01*
X169859404Y-97452380D01*
X170383214Y-97452380D01*
X171192738Y-96785714D02*
X171192738Y-97452380D01*
X170764166Y-96785714D02*
X170764166Y-97309523D01*
X170811785Y-97404761D01*
X170907023Y-97452380D01*
X171049880Y-97452380D01*
X171145119Y-97404761D01*
X171192738Y-97357142D01*
X171668928Y-97452380D02*
X171668928Y-96452380D01*
X171764166Y-97071428D02*
X172049880Y-97452380D01*
X172049880Y-96785714D02*
X171668928Y-97166666D01*
X160764166Y-98395714D02*
X160764166Y-99205238D01*
X160716547Y-99300476D01*
X160668928Y-99348095D01*
X160573690Y-99395714D01*
X160430833Y-99395714D01*
X160335595Y-99348095D01*
X160764166Y-99014761D02*
X160668928Y-99062380D01*
X160478452Y-99062380D01*
X160383214Y-99014761D01*
X160335595Y-98967142D01*
X160287976Y-98871904D01*
X160287976Y-98586190D01*
X160335595Y-98490952D01*
X160383214Y-98443333D01*
X160478452Y-98395714D01*
X160668928Y-98395714D01*
X160764166Y-98443333D01*
X161240357Y-99062380D02*
X161240357Y-98395714D01*
X161240357Y-98062380D02*
X161192738Y-98110000D01*
X161240357Y-98157619D01*
X161287976Y-98110000D01*
X161240357Y-98062380D01*
X161240357Y-98157619D01*
X161573690Y-98395714D02*
X161954642Y-98395714D01*
X161716547Y-98062380D02*
X161716547Y-98919523D01*
X161764166Y-99014761D01*
X161859404Y-99062380D01*
X161954642Y-99062380D01*
X162287976Y-99062380D02*
X162287976Y-98062380D01*
X162716547Y-99062380D02*
X162716547Y-98538571D01*
X162668928Y-98443333D01*
X162573690Y-98395714D01*
X162430833Y-98395714D01*
X162335595Y-98443333D01*
X162287976Y-98490952D01*
X163621309Y-98395714D02*
X163621309Y-99062380D01*
X163192738Y-98395714D02*
X163192738Y-98919523D01*
X163240357Y-99014761D01*
X163335595Y-99062380D01*
X163478452Y-99062380D01*
X163573690Y-99014761D01*
X163621309Y-98967142D01*
X164097500Y-99062380D02*
X164097500Y-98062380D01*
X164097500Y-98443333D02*
X164192738Y-98395714D01*
X164383214Y-98395714D01*
X164478452Y-98443333D01*
X164526071Y-98490952D01*
X164573690Y-98586190D01*
X164573690Y-98871904D01*
X164526071Y-98967142D01*
X164478452Y-99014761D01*
X164383214Y-99062380D01*
X164192738Y-99062380D01*
X164097500Y-99014761D01*
X165002261Y-98967142D02*
X165049880Y-99014761D01*
X165002261Y-99062380D01*
X164954642Y-99014761D01*
X165002261Y-98967142D01*
X165002261Y-99062380D01*
X165907023Y-99014761D02*
X165811785Y-99062380D01*
X165621309Y-99062380D01*
X165526071Y-99014761D01*
X165478452Y-98967142D01*
X165430833Y-98871904D01*
X165430833Y-98586190D01*
X165478452Y-98490952D01*
X165526071Y-98443333D01*
X165621309Y-98395714D01*
X165811785Y-98395714D01*
X165907023Y-98443333D01*
X166478452Y-99062380D02*
X166383214Y-99014761D01*
X166335595Y-98967142D01*
X166287976Y-98871904D01*
X166287976Y-98586190D01*
X166335595Y-98490952D01*
X166383214Y-98443333D01*
X166478452Y-98395714D01*
X166621309Y-98395714D01*
X166716547Y-98443333D01*
X166764166Y-98490952D01*
X166811785Y-98586190D01*
X166811785Y-98871904D01*
X166764166Y-98967142D01*
X166716547Y-99014761D01*
X166621309Y-99062380D01*
X166478452Y-99062380D01*
X167240357Y-99062380D02*
X167240357Y-98395714D01*
X167240357Y-98490952D02*
X167287976Y-98443333D01*
X167383214Y-98395714D01*
X167526071Y-98395714D01*
X167621309Y-98443333D01*
X167668928Y-98538571D01*
X167668928Y-99062380D01*
X167668928Y-98538571D02*
X167716547Y-98443333D01*
X167811785Y-98395714D01*
X167954642Y-98395714D01*
X168049880Y-98443333D01*
X168097500Y-98538571D01*
X168097500Y-99062380D01*
X169287976Y-98014761D02*
X168430833Y-99300476D01*
X169621309Y-99062380D02*
X169621309Y-98062380D01*
X169621309Y-98538571D02*
X170192738Y-98538571D01*
X170192738Y-99062380D02*
X170192738Y-98062380D01*
X171097500Y-99062380D02*
X171097500Y-98538571D01*
X171049880Y-98443333D01*
X170954642Y-98395714D01*
X170764166Y-98395714D01*
X170668928Y-98443333D01*
X171097500Y-99014761D02*
X171002261Y-99062380D01*
X170764166Y-99062380D01*
X170668928Y-99014761D01*
X170621309Y-98919523D01*
X170621309Y-98824285D01*
X170668928Y-98729047D01*
X170764166Y-98681428D01*
X171002261Y-98681428D01*
X171097500Y-98633809D01*
X171716547Y-99062380D02*
X171621309Y-99014761D01*
X171573690Y-98919523D01*
X171573690Y-98062380D01*
X172240357Y-99062380D02*
X172145119Y-99014761D01*
X172097500Y-98967142D01*
X172049880Y-98871904D01*
X172049880Y-98586190D01*
X172097500Y-98490952D01*
X172145119Y-98443333D01*
X172240357Y-98395714D01*
X172383214Y-98395714D01*
X172478452Y-98443333D01*
X172526071Y-98490952D01*
X172573690Y-98586190D01*
X172573690Y-98871904D01*
X172526071Y-98967142D01*
X172478452Y-99014761D01*
X172383214Y-99062380D01*
X172240357Y-99062380D01*
X173430833Y-98395714D02*
X173430833Y-99205238D01*
X173383214Y-99300476D01*
X173335595Y-99348095D01*
X173240357Y-99395714D01*
X173097500Y-99395714D01*
X173002261Y-99348095D01*
X173430833Y-99014761D02*
X173335595Y-99062380D01*
X173145119Y-99062380D01*
X173049880Y-99014761D01*
X173002261Y-98967142D01*
X172954642Y-98871904D01*
X172954642Y-98586190D01*
X173002261Y-98490952D01*
X173049880Y-98443333D01*
X173145119Y-98395714D01*
X173335595Y-98395714D01*
X173430833Y-98443333D01*
X174287976Y-99014761D02*
X174192738Y-99062380D01*
X174002261Y-99062380D01*
X173907023Y-99014761D01*
X173859404Y-98919523D01*
X173859404Y-98538571D01*
X173907023Y-98443333D01*
X174002261Y-98395714D01*
X174192738Y-98395714D01*
X174287976Y-98443333D01*
X174335595Y-98538571D01*
X174335595Y-98633809D01*
X173859404Y-98729047D01*
X174764166Y-98395714D02*
X174764166Y-99062380D01*
X174764166Y-98490952D02*
X174811785Y-98443333D01*
X174907023Y-98395714D01*
X175049880Y-98395714D01*
X175145119Y-98443333D01*
X175192738Y-98538571D01*
X175192738Y-99062380D01*
X176049880Y-99014761D02*
X175954642Y-99062380D01*
X175764166Y-99062380D01*
X175668928Y-99014761D01*
X175621309Y-98919523D01*
X175621309Y-98538571D01*
X175668928Y-98443333D01*
X175764166Y-98395714D01*
X175954642Y-98395714D01*
X176049880Y-98443333D01*
X176097500Y-98538571D01*
X176097500Y-98633809D01*
X175621309Y-98729047D01*
X176526071Y-99062380D02*
X176526071Y-98062380D01*
X176621309Y-98681428D02*
X176907023Y-99062380D01*
X176907023Y-98395714D02*
X176526071Y-98776666D01*
X178049880Y-98014761D02*
X177192738Y-99300476D01*
X178383214Y-99062380D02*
X178383214Y-98395714D01*
X178383214Y-98490952D02*
X178430833Y-98443333D01*
X178526071Y-98395714D01*
X178668928Y-98395714D01*
X178764166Y-98443333D01*
X178811785Y-98538571D01*
X178811785Y-99062380D01*
X178811785Y-98538571D02*
X178859404Y-98443333D01*
X178954642Y-98395714D01*
X179097500Y-98395714D01*
X179192738Y-98443333D01*
X179240357Y-98538571D01*
X179240357Y-99062380D01*
X179859404Y-99062380D02*
X179764166Y-99014761D01*
X179716547Y-98967142D01*
X179668928Y-98871904D01*
X179668928Y-98586190D01*
X179716547Y-98490952D01*
X179764166Y-98443333D01*
X179859404Y-98395714D01*
X180002261Y-98395714D01*
X180097500Y-98443333D01*
X180145119Y-98490952D01*
X180192738Y-98586190D01*
X180192738Y-98871904D01*
X180145119Y-98967142D01*
X180097500Y-99014761D01*
X180002261Y-99062380D01*
X179859404Y-99062380D01*
X181049880Y-99062380D02*
X181049880Y-98062380D01*
X181049880Y-99014761D02*
X180954642Y-99062380D01*
X180764166Y-99062380D01*
X180668928Y-99014761D01*
X180621309Y-98967142D01*
X180573690Y-98871904D01*
X180573690Y-98586190D01*
X180621309Y-98490952D01*
X180668928Y-98443333D01*
X180764166Y-98395714D01*
X180954642Y-98395714D01*
X181049880Y-98443333D01*
X181954642Y-98395714D02*
X181954642Y-99062380D01*
X181526071Y-98395714D02*
X181526071Y-98919523D01*
X181573690Y-99014761D01*
X181668928Y-99062380D01*
X181811785Y-99062380D01*
X181907023Y-99014761D01*
X181954642Y-98967142D01*
X182573690Y-99062380D02*
X182478452Y-99014761D01*
X182430833Y-98919523D01*
X182430833Y-98062380D01*
X183383214Y-99062380D02*
X183383214Y-98538571D01*
X183335595Y-98443333D01*
X183240357Y-98395714D01*
X183049880Y-98395714D01*
X182954642Y-98443333D01*
X183383214Y-99014761D02*
X183287976Y-99062380D01*
X183049880Y-99062380D01*
X182954642Y-99014761D01*
X182907023Y-98919523D01*
X182907023Y-98824285D01*
X182954642Y-98729047D01*
X183049880Y-98681428D01*
X183287976Y-98681428D01*
X183383214Y-98633809D01*
X183859404Y-99062380D02*
X183859404Y-98395714D01*
X183859404Y-98586190D02*
X183907023Y-98490952D01*
X183954642Y-98443333D01*
X184049880Y-98395714D01*
X184145119Y-98395714D01*
X184478452Y-98681428D02*
X185240357Y-98681428D01*
X185716547Y-99062380D02*
X185716547Y-98395714D01*
X185716547Y-98586190D02*
X185764166Y-98490952D01*
X185811785Y-98443333D01*
X185907023Y-98395714D01*
X186002261Y-98395714D01*
X186192738Y-98395714D02*
X186573690Y-98395714D01*
X186335595Y-99062380D02*
X186335595Y-98205238D01*
X186383214Y-98110000D01*
X186478452Y-98062380D01*
X186573690Y-98062380D01*
X186907023Y-98681428D02*
X187668928Y-98681428D01*
X188145119Y-99062380D02*
X188145119Y-98062380D01*
X188145119Y-98443333D02*
X188240357Y-98395714D01*
X188430833Y-98395714D01*
X188526071Y-98443333D01*
X188573690Y-98490952D01*
X188621309Y-98586190D01*
X188621309Y-98871904D01*
X188573690Y-98967142D01*
X188526071Y-99014761D01*
X188430833Y-99062380D01*
X188240357Y-99062380D01*
X188145119Y-99014761D01*
X189430833Y-99014761D02*
X189335595Y-99062380D01*
X189145119Y-99062380D01*
X189049880Y-99014761D01*
X189002261Y-98919523D01*
X189002261Y-98538571D01*
X189049880Y-98443333D01*
X189145119Y-98395714D01*
X189335595Y-98395714D01*
X189430833Y-98443333D01*
X189478452Y-98538571D01*
X189478452Y-98633809D01*
X189002261Y-98729047D01*
X189907023Y-98395714D02*
X189907023Y-99062380D01*
X189907023Y-98490952D02*
X189954642Y-98443333D01*
X190049880Y-98395714D01*
X190192738Y-98395714D01*
X190287976Y-98443333D01*
X190335595Y-98538571D01*
X190335595Y-99062380D01*
X191240357Y-99014761D02*
X191145119Y-99062380D01*
X190954642Y-99062380D01*
X190859404Y-99014761D01*
X190811785Y-98967142D01*
X190764166Y-98871904D01*
X190764166Y-98586190D01*
X190811785Y-98490952D01*
X190859404Y-98443333D01*
X190954642Y-98395714D01*
X191145119Y-98395714D01*
X191240357Y-98443333D01*
X191668928Y-99062380D02*
X191668928Y-98062380D01*
X192097500Y-99062380D02*
X192097500Y-98538571D01*
X192049880Y-98443333D01*
X191954642Y-98395714D01*
X191811785Y-98395714D01*
X191716547Y-98443333D01*
X191668928Y-98490952D01*
%TO.C,G\u002A\u002A\u002A*%
G36*
X159414416Y-90229835D02*
G01*
X159443561Y-90245287D01*
X159455277Y-90277583D01*
X159449972Y-90332077D01*
X159428057Y-90414125D01*
X159390492Y-90527483D01*
X159357721Y-90620893D01*
X159329331Y-90699251D01*
X159308224Y-90754728D01*
X159297301Y-90779491D01*
X159296972Y-90779893D01*
X159308277Y-90794357D01*
X159347091Y-90823130D01*
X159405037Y-90860009D01*
X159405588Y-90860340D01*
X159531368Y-90947708D01*
X159627025Y-91039263D01*
X159690648Y-91131501D01*
X159720324Y-91220919D01*
X159714140Y-91304015D01*
X159681040Y-91364891D01*
X159641983Y-91413125D01*
X159755111Y-91481272D01*
X159835474Y-91533399D01*
X159918500Y-91592935D01*
X159961214Y-91626500D01*
X160013323Y-91671855D01*
X160039491Y-91705222D01*
X160046422Y-91739968D01*
X160041322Y-91786249D01*
X160031272Y-91865745D01*
X160024369Y-91946339D01*
X160024113Y-91950944D01*
X160013418Y-92013635D01*
X159985916Y-92048943D01*
X159974590Y-92055528D01*
X159928048Y-92088533D01*
X159888588Y-92128506D01*
X159868465Y-92150077D01*
X159843955Y-92164948D01*
X159806925Y-92174838D01*
X159749245Y-92181464D01*
X159662783Y-92186544D01*
X159601005Y-92189260D01*
X159481689Y-92196462D01*
X159391872Y-92206558D01*
X159336281Y-92218928D01*
X159322815Y-92225758D01*
X159298763Y-92262753D01*
X159280657Y-92319491D01*
X159278901Y-92329094D01*
X159264182Y-92381259D01*
X159235014Y-92457391D01*
X159196401Y-92544984D01*
X159173574Y-92592270D01*
X159139234Y-92663297D01*
X159112482Y-92726234D01*
X159090874Y-92789962D01*
X159071966Y-92863358D01*
X159053315Y-92955305D01*
X159032476Y-93074680D01*
X159020007Y-93150285D01*
X158997223Y-93300950D01*
X158975026Y-93467452D01*
X158955407Y-93633514D01*
X158940354Y-93782855D01*
X158935422Y-93842636D01*
X158906958Y-94141701D01*
X158868203Y-94406871D01*
X158818026Y-94644557D01*
X158756107Y-94858732D01*
X158698283Y-95014260D01*
X158632599Y-95149892D01*
X158552041Y-95277021D01*
X158449597Y-95407040D01*
X158351287Y-95516399D01*
X158154658Y-95750561D01*
X157987613Y-96003258D01*
X157862728Y-96242372D01*
X157806372Y-96355807D01*
X157755622Y-96440750D01*
X157703351Y-96508037D01*
X157656965Y-96555208D01*
X157601622Y-96604234D01*
X157556502Y-96639426D01*
X157531137Y-96653365D01*
X157530790Y-96653377D01*
X157506902Y-96666437D01*
X157483839Y-96707534D01*
X157460784Y-96779546D01*
X157436919Y-96885349D01*
X157411425Y-97027821D01*
X157395405Y-97129478D01*
X157365871Y-97315506D01*
X157337404Y-97473253D01*
X157307074Y-97615579D01*
X157271949Y-97755342D01*
X157229100Y-97905404D01*
X157188295Y-98038303D01*
X157147325Y-98177534D01*
X157119875Y-98296918D01*
X157105347Y-98407585D01*
X157103144Y-98520664D01*
X157112669Y-98647287D01*
X157133325Y-98798585D01*
X157143953Y-98864768D01*
X157163727Y-98987783D01*
X157182195Y-99108350D01*
X157197685Y-99215164D01*
X157208527Y-99296921D01*
X157211122Y-99319447D01*
X157225786Y-99409456D01*
X157252736Y-99483788D01*
X157300009Y-99563926D01*
X157305847Y-99572620D01*
X157386243Y-99691457D01*
X156782070Y-99691457D01*
X156796036Y-99624288D01*
X156813333Y-99564768D01*
X156834184Y-99519072D01*
X156843905Y-99491984D01*
X156839148Y-99455160D01*
X156817574Y-99398893D01*
X156792109Y-99344584D01*
X156752101Y-99253206D01*
X156718036Y-99153524D01*
X156687707Y-99037147D01*
X156658903Y-98895681D01*
X156631702Y-98735224D01*
X156611548Y-98630975D01*
X156581809Y-98505236D01*
X156546841Y-98375430D01*
X156518084Y-98280545D01*
X156478746Y-98154864D01*
X156448370Y-98046309D01*
X156425112Y-97944624D01*
X156407130Y-97839548D01*
X156392581Y-97720822D01*
X156379621Y-97578188D01*
X156370564Y-97459398D01*
X156360015Y-97253088D01*
X156358411Y-97055605D01*
X156365560Y-96876859D01*
X156381269Y-96726763D01*
X156385298Y-96701762D01*
X156396570Y-96636477D01*
X156026124Y-96647921D01*
X155784525Y-96650961D01*
X155574331Y-96643448D01*
X155386768Y-96624548D01*
X155213065Y-96593426D01*
X155070670Y-96557002D01*
X154857737Y-96479272D01*
X154679081Y-96379181D01*
X154533819Y-96256105D01*
X154421073Y-96109423D01*
X154408870Y-96088783D01*
X154351814Y-95989200D01*
X154337279Y-96047112D01*
X154297554Y-96161485D01*
X154236069Y-96287677D01*
X154161694Y-96409751D01*
X154083296Y-96511771D01*
X154071653Y-96524448D01*
X154003647Y-96598506D01*
X153958031Y-96657071D01*
X153927706Y-96713614D01*
X153905573Y-96781608D01*
X153884534Y-96874524D01*
X153882815Y-96882813D01*
X153844506Y-97028087D01*
X153790157Y-97160794D01*
X153714821Y-97289451D01*
X153613551Y-97422573D01*
X153489124Y-97560612D01*
X153401310Y-97654172D01*
X153338192Y-97726133D01*
X153294604Y-97783473D01*
X153265382Y-97833172D01*
X153245358Y-97882210D01*
X153240968Y-97895887D01*
X153213235Y-98020673D01*
X153196981Y-98167535D01*
X153193305Y-98318539D01*
X153203301Y-98455751D01*
X153205734Y-98472091D01*
X153243698Y-98704382D01*
X153277306Y-98898498D01*
X153307217Y-99057292D01*
X153334090Y-99183619D01*
X153358585Y-99280332D01*
X153381360Y-99350286D01*
X153403075Y-99396333D01*
X153424389Y-99421329D01*
X153425073Y-99421814D01*
X153486072Y-99472353D01*
X153541125Y-99531622D01*
X153578952Y-99586696D01*
X153587782Y-99608240D01*
X153590489Y-99627264D01*
X153581872Y-99639442D01*
X153554833Y-99646293D01*
X153502273Y-99649342D01*
X153417094Y-99650108D01*
X153392439Y-99650122D01*
X153186144Y-99650122D01*
X153190898Y-99593287D01*
X153186738Y-99556861D01*
X153164682Y-99515379D01*
X153119538Y-99460866D01*
X153073165Y-99412449D01*
X152987536Y-99314295D01*
X152909605Y-99199197D01*
X152836422Y-99061452D01*
X152765035Y-98895359D01*
X152692493Y-98695216D01*
X152675413Y-98644006D01*
X152605788Y-98420717D01*
X152555232Y-98227218D01*
X152523844Y-98056571D01*
X152511725Y-97901843D01*
X152518975Y-97756096D01*
X152545692Y-97612396D01*
X152591977Y-97463806D01*
X152657928Y-97303392D01*
X152695851Y-97221725D01*
X152726488Y-97155147D01*
X152746363Y-97101135D01*
X152757737Y-97047338D01*
X152762867Y-96981402D01*
X152764014Y-96890976D01*
X152763885Y-96849715D01*
X152748074Y-96627435D01*
X152702914Y-96378699D01*
X152628873Y-96105678D01*
X152559296Y-95899024D01*
X152523042Y-95790650D01*
X152489003Y-95674804D01*
X152462487Y-95570101D01*
X152454213Y-95530466D01*
X152428822Y-95416737D01*
X152401286Y-95330454D01*
X152373391Y-95274383D01*
X152346923Y-95251287D01*
X152323668Y-95263931D01*
X152307949Y-95304088D01*
X152298407Y-95337346D01*
X152289621Y-95340392D01*
X152275793Y-95309800D01*
X152264250Y-95278254D01*
X152242457Y-95181687D01*
X152234480Y-95061679D01*
X152239934Y-94933607D01*
X152258432Y-94812845D01*
X152277676Y-94744395D01*
X152372199Y-94538632D01*
X152502148Y-94350848D01*
X152665062Y-94182486D01*
X152858484Y-94034988D01*
X153079955Y-93909797D01*
X153327018Y-93808357D01*
X153597214Y-93732109D01*
X153888085Y-93682496D01*
X154119284Y-93663590D01*
X154294850Y-93659516D01*
X154462998Y-93664635D01*
X154633553Y-93680037D01*
X154816339Y-93706811D01*
X155021181Y-93746046D01*
X155183423Y-93781617D01*
X155375615Y-93824691D01*
X155535159Y-93858400D01*
X155669417Y-93883758D01*
X155785751Y-93901779D01*
X155891524Y-93913475D01*
X155994098Y-93919859D01*
X156100835Y-93921946D01*
X156197258Y-93921150D01*
X156309477Y-93919831D01*
X156398026Y-93921178D01*
X156474640Y-93926632D01*
X156551056Y-93937637D01*
X156639011Y-93955638D01*
X156750241Y-93982076D01*
X156807208Y-93996165D01*
X156951244Y-94030429D01*
X157062559Y-94052366D01*
X157147893Y-94061952D01*
X157213985Y-94059163D01*
X157267576Y-94043974D01*
X157315406Y-94016360D01*
X157343667Y-93994218D01*
X157385778Y-93953346D01*
X157421467Y-93904258D01*
X157453302Y-93840683D01*
X157483851Y-93756347D01*
X157515681Y-93644979D01*
X157551360Y-93500306D01*
X157558693Y-93468939D01*
X157593810Y-93325540D01*
X157636130Y-93164624D01*
X157680612Y-93004748D01*
X157722219Y-92864469D01*
X157726905Y-92849434D01*
X157757956Y-92748226D01*
X157782606Y-92660591D01*
X157802452Y-92577889D01*
X157819094Y-92491482D01*
X157834131Y-92392731D01*
X157849159Y-92272996D01*
X157865779Y-92123639D01*
X157872004Y-92065256D01*
X157894197Y-91860986D01*
X157913945Y-91692814D01*
X157932194Y-91555643D01*
X157949891Y-91444376D01*
X157967983Y-91353915D01*
X157987415Y-91279164D01*
X158009135Y-91215026D01*
X158034088Y-91156404D01*
X158044976Y-91133784D01*
X158086454Y-91055390D01*
X158128683Y-90991069D01*
X158178807Y-90933520D01*
X158243967Y-90875442D01*
X158331308Y-90809533D01*
X158428397Y-90741847D01*
X158527761Y-90669937D01*
X158631078Y-90588614D01*
X158723846Y-90509590D01*
X158773781Y-90462870D01*
X158836551Y-90404087D01*
X158890644Y-90359809D01*
X158928281Y-90336099D01*
X158939118Y-90334010D01*
X158966264Y-90363246D01*
X158969488Y-90423212D01*
X158948833Y-90510956D01*
X158936194Y-90547086D01*
X158913231Y-90610665D01*
X158897701Y-90657882D01*
X158893409Y-90675456D01*
X158906069Y-90671627D01*
X158939965Y-90643081D01*
X158988971Y-90596084D01*
X159046960Y-90536900D01*
X159107807Y-90471793D01*
X159165386Y-90407030D01*
X159213571Y-90348874D01*
X159216823Y-90344711D01*
X159271214Y-90279224D01*
X159312588Y-90242320D01*
X159349448Y-90227290D01*
X159367433Y-90225875D01*
X159414416Y-90229835D01*
G37*
%TD*%
D11*
%TO.C,J1*%
X106500000Y-90500000D03*
%TD*%
%TO.C,J7*%
X133500000Y-90500000D03*
%TD*%
%TO.C,J3*%
X115500000Y-90500000D03*
%TD*%
%TO.C,J9*%
X142500000Y-90500000D03*
%TD*%
%TO.C,J5*%
X124500000Y-90500000D03*
%TD*%
D12*
%TO.C,H4*%
X195000000Y-98000000D03*
%TD*%
%TO.C,H1*%
X101000000Y-83000000D03*
%TD*%
%TO.C,H3*%
X195000000Y-83000000D03*
%TD*%
%TO.C,H6*%
X101000000Y-98000000D03*
%TD*%
%TO.C,H2*%
X148500000Y-83000000D03*
%TD*%
%TO.C,H5*%
X148500000Y-98000000D03*
%TD*%
G36*
X105159191Y-96518907D02*
G01*
X105195155Y-96568407D01*
X105200000Y-96599000D01*
X105200000Y-96901000D01*
X105181093Y-96959191D01*
X105131593Y-96995155D01*
X105101000Y-97000000D01*
X105015680Y-97000000D01*
X105002995Y-97004122D01*
X105000000Y-97008243D01*
X105000000Y-98984320D01*
X105004122Y-98997005D01*
X105008243Y-99000000D01*
X105101000Y-99000000D01*
X105159191Y-99018907D01*
X105195155Y-99068407D01*
X105200000Y-99099000D01*
X105200000Y-99401000D01*
X105181093Y-99459191D01*
X105131593Y-99495155D01*
X105101000Y-99500000D01*
X104099000Y-99500000D01*
X104040809Y-99481093D01*
X104004845Y-99431593D01*
X104000000Y-99401000D01*
X104000000Y-96599000D01*
X104018907Y-96540809D01*
X104068407Y-96504845D01*
X104099000Y-96500000D01*
X105101000Y-96500000D01*
X105159191Y-96518907D01*
G37*
G36*
X108159191Y-96518907D02*
G01*
X108195155Y-96568407D01*
X108200000Y-96599000D01*
X108200000Y-96997564D01*
X108199881Y-97002424D01*
X108199275Y-97014754D01*
X108198323Y-97024418D01*
X108196929Y-97033817D01*
X108169689Y-97088604D01*
X108115448Y-97116917D01*
X108054925Y-97107941D01*
X108011237Y-97065104D01*
X108000000Y-97019293D01*
X108000000Y-97015680D01*
X107995878Y-97002995D01*
X107991757Y-97000000D01*
X105015680Y-97000000D01*
X105002995Y-97004122D01*
X105000000Y-97008243D01*
X105000000Y-97019293D01*
X104981093Y-97077484D01*
X104931593Y-97113448D01*
X104870407Y-97113448D01*
X104820907Y-97077484D01*
X104803071Y-97033817D01*
X104801677Y-97024418D01*
X104800725Y-97014754D01*
X104800119Y-97002424D01*
X104800000Y-96997564D01*
X104800000Y-96599000D01*
X104818907Y-96540809D01*
X104868407Y-96504845D01*
X104899000Y-96500000D01*
X108101000Y-96500000D01*
X108159191Y-96518907D01*
G37*
G36*
X104945075Y-98892059D02*
G01*
X104988763Y-98934896D01*
X105000000Y-98980707D01*
X105000000Y-98984320D01*
X105004122Y-98997005D01*
X105008243Y-99000000D01*
X107984320Y-99000000D01*
X107997005Y-98995878D01*
X108000000Y-98991757D01*
X108000000Y-98980707D01*
X108018907Y-98922516D01*
X108068407Y-98886552D01*
X108129593Y-98886552D01*
X108179093Y-98922516D01*
X108196929Y-98966183D01*
X108198323Y-98975582D01*
X108199275Y-98985246D01*
X108199881Y-98997576D01*
X108200000Y-99002436D01*
X108200000Y-99401000D01*
X108181093Y-99459191D01*
X108131593Y-99495155D01*
X108101000Y-99500000D01*
X104899000Y-99500000D01*
X104840809Y-99481093D01*
X104804845Y-99431593D01*
X104800000Y-99401000D01*
X104800000Y-99002436D01*
X104800119Y-98997576D01*
X104800725Y-98985246D01*
X104801677Y-98975582D01*
X104803071Y-98966183D01*
X104830311Y-98911396D01*
X104884552Y-98883083D01*
X104945075Y-98892059D01*
G37*
G36*
X108959191Y-96518907D02*
G01*
X108995155Y-96568407D01*
X109000000Y-96599000D01*
X109000000Y-99401000D01*
X108981093Y-99459191D01*
X108931593Y-99495155D01*
X108901000Y-99500000D01*
X107899000Y-99500000D01*
X107840809Y-99481093D01*
X107804845Y-99431593D01*
X107800000Y-99401000D01*
X107800000Y-99099000D01*
X107818907Y-99040809D01*
X107868407Y-99004845D01*
X107899000Y-99000000D01*
X107984320Y-99000000D01*
X107997005Y-98995878D01*
X108000000Y-98991757D01*
X108000000Y-97015680D01*
X107995878Y-97002995D01*
X107991757Y-97000000D01*
X107899000Y-97000000D01*
X107840809Y-96981093D01*
X107804845Y-96931593D01*
X107800000Y-96901000D01*
X107800000Y-96599000D01*
X107818907Y-96540809D01*
X107868407Y-96504845D01*
X107899000Y-96500000D01*
X108901000Y-96500000D01*
X108959191Y-96518907D01*
G37*
M02*
