%TF.GenerationSoftware,KiCad,Pcbnew,6.0.9+dfsg-1~bpo11+1*%
%TF.CreationDate,2022-11-11T14:52:19+01:00*%
%TF.ProjectId,014-base-power-board,3031342d-6261-4736-952d-706f7765722d,1*%
%TF.SameCoordinates,Original*%
%TF.FileFunction,Legend,Bot*%
%TF.FilePolarity,Positive*%
%FSLAX46Y46*%
G04 Gerber Fmt 4.6, Leading zero omitted, Abs format (unit mm)*
G04 Created by KiCad (PCBNEW 6.0.9+dfsg-1~bpo11+1) date 2022-11-11 14:52:19*
%MOMM*%
%LPD*%
G01*
G04 APERTURE LIST*
%ADD10C,0.300000*%
%ADD11C,0.120000*%
G04 APERTURE END LIST*
D10*
X181714285Y-90678571D02*
X181214285Y-92178571D01*
X180714285Y-90678571D01*
X179571428Y-91178571D02*
X179571428Y-92178571D01*
X179928571Y-90607142D02*
X180285714Y-91678571D01*
X179357142Y-91678571D01*
X174714285Y-88678571D02*
X174214285Y-90178571D01*
X173714285Y-88678571D01*
X173357142Y-88678571D02*
X172428571Y-88678571D01*
X172928571Y-89250000D01*
X172714285Y-89250000D01*
X172571428Y-89321428D01*
X172500000Y-89392857D01*
X172428571Y-89535714D01*
X172428571Y-89892857D01*
X172500000Y-90035714D01*
X172571428Y-90107142D01*
X172714285Y-90178571D01*
X173142857Y-90178571D01*
X173285714Y-90107142D01*
X173357142Y-90035714D01*
X152214285Y-86678571D02*
X151714285Y-88178571D01*
X151214285Y-86678571D01*
X150785714Y-86821428D02*
X150714285Y-86750000D01*
X150571428Y-86678571D01*
X150214285Y-86678571D01*
X150071428Y-86750000D01*
X150000000Y-86821428D01*
X149928571Y-86964285D01*
X149928571Y-87107142D01*
X150000000Y-87321428D01*
X150857142Y-88178571D01*
X149928571Y-88178571D01*
X152214285Y-93178571D02*
X151714285Y-94678571D01*
X151214285Y-93178571D01*
X149928571Y-94678571D02*
X150785714Y-94678571D01*
X150357142Y-94678571D02*
X150357142Y-93178571D01*
X150500000Y-93392857D01*
X150642857Y-93535714D01*
X150785714Y-93607142D01*
X193250000Y-89357142D02*
X193178571Y-89214285D01*
X193178571Y-89000000D01*
X193250000Y-88785714D01*
X193392857Y-88642857D01*
X193535714Y-88571428D01*
X193821428Y-88500000D01*
X194035714Y-88500000D01*
X194321428Y-88571428D01*
X194464285Y-88642857D01*
X194607142Y-88785714D01*
X194678571Y-89000000D01*
X194678571Y-89142857D01*
X194607142Y-89357142D01*
X194535714Y-89428571D01*
X194035714Y-89428571D01*
X194035714Y-89142857D01*
X194678571Y-90071428D02*
X193178571Y-90071428D01*
X194678571Y-90928571D01*
X193178571Y-90928571D01*
X194678571Y-91642857D02*
X193178571Y-91642857D01*
X193178571Y-92000000D01*
X193250000Y-92214285D01*
X193392857Y-92357142D01*
X193535714Y-92428571D01*
X193821428Y-92500000D01*
X194035714Y-92500000D01*
X194321428Y-92428571D01*
X194464285Y-92357142D01*
X194607142Y-92214285D01*
X194678571Y-92000000D01*
X194678571Y-91642857D01*
D11*
%TO.C,J10*%
X177510000Y-97330000D02*
X173950000Y-97330000D01*
X184680000Y-97330000D02*
X184110000Y-97330000D01*
X169320000Y-97330000D02*
X169320000Y-94670000D01*
X169890000Y-94670000D02*
X169320000Y-94670000D01*
X180050000Y-94670000D02*
X176490000Y-94670000D01*
X174970000Y-94670000D02*
X171410000Y-94670000D01*
X184680000Y-94670000D02*
X181570000Y-94670000D01*
X182590000Y-97330000D02*
X179030000Y-97330000D01*
X184680000Y-97330000D02*
X184680000Y-94670000D01*
X172430000Y-97330000D02*
X169320000Y-97330000D01*
X184110000Y-97330000D02*
X184110000Y-98850000D01*
%TO.C,J8*%
X177510000Y-86330000D02*
X173950000Y-86330000D01*
X184680000Y-86330000D02*
X184110000Y-86330000D01*
X169320000Y-86330000D02*
X169320000Y-83670000D01*
X169890000Y-83670000D02*
X169320000Y-83670000D01*
X180050000Y-83670000D02*
X176490000Y-83670000D01*
X174970000Y-83670000D02*
X171410000Y-83670000D01*
X184680000Y-83670000D02*
X181570000Y-83670000D01*
X182590000Y-86330000D02*
X179030000Y-86330000D01*
X184680000Y-86330000D02*
X184680000Y-83670000D01*
X172430000Y-86330000D02*
X169320000Y-86330000D01*
X184110000Y-86330000D02*
X184110000Y-87850000D01*
%TO.C,J6*%
X161010000Y-86330000D02*
X157450000Y-86330000D01*
X168180000Y-86330000D02*
X167610000Y-86330000D01*
X152820000Y-86330000D02*
X152820000Y-83670000D01*
X153390000Y-83670000D02*
X152820000Y-83670000D01*
X163550000Y-83670000D02*
X159990000Y-83670000D01*
X158470000Y-83670000D02*
X154910000Y-83670000D01*
X168180000Y-83670000D02*
X165070000Y-83670000D01*
X166090000Y-86330000D02*
X162530000Y-86330000D01*
X168180000Y-86330000D02*
X168180000Y-83670000D01*
X155930000Y-86330000D02*
X152820000Y-86330000D01*
X167610000Y-86330000D02*
X167610000Y-87850000D01*
%TO.C,J4*%
X161010000Y-97330000D02*
X157450000Y-97330000D01*
X168180000Y-97330000D02*
X167610000Y-97330000D01*
X152820000Y-97330000D02*
X152820000Y-94670000D01*
X153390000Y-94670000D02*
X152820000Y-94670000D01*
X163550000Y-94670000D02*
X159990000Y-94670000D01*
X158470000Y-94670000D02*
X154910000Y-94670000D01*
X168180000Y-94670000D02*
X165070000Y-94670000D01*
X166090000Y-97330000D02*
X162530000Y-97330000D01*
X168180000Y-97330000D02*
X168180000Y-94670000D01*
X155930000Y-97330000D02*
X152820000Y-97330000D01*
X167610000Y-97330000D02*
X167610000Y-98850000D01*
%TO.C,J2*%
X190330000Y-83390000D02*
X191850000Y-83390000D01*
X190330000Y-95070000D02*
X190330000Y-98180000D01*
X190330000Y-82820000D02*
X187670000Y-82820000D01*
X190330000Y-84910000D02*
X190330000Y-88470000D01*
X187670000Y-82820000D02*
X187670000Y-85930000D01*
X187670000Y-92530000D02*
X187670000Y-96090000D01*
X187670000Y-87450000D02*
X187670000Y-91010000D01*
X187670000Y-97610000D02*
X187670000Y-98180000D01*
X190330000Y-98180000D02*
X187670000Y-98180000D01*
X190330000Y-82820000D02*
X190330000Y-83390000D01*
X190330000Y-89990000D02*
X190330000Y-93550000D01*
%TD*%
M02*
