%TF.GenerationSoftware,KiCad,Pcbnew,6.0.9+dfsg-1~bpo11+1*%
%TF.CreationDate,2022-11-11T14:52:23+01:00*%
%TF.ProjectId,014-base-power-board,3031342d-6261-4736-952d-706f7765722d,1*%
%TF.SameCoordinates,Original*%
%TF.FileFunction,Drillmap*%
%TF.FilePolarity,Positive*%
%FSLAX45Y45*%
G04 Gerber Fmt 4.5, Leading zero omitted, Abs format (unit mm)*
G04 Created by KiCad (PCBNEW 6.0.9+dfsg-1~bpo11+1) date 2022-11-11 14:52:23*
%MOMM*%
%LPD*%
G01*
G04 APERTURE LIST*
%ADD10C,0.100000*%
%ADD11C,0.200000*%
%ADD12C,0.510000*%
G04 APERTURE END LIST*
D10*
X19500000Y-8050000D02*
X10100000Y-8050000D01*
X19750000Y-9800000D02*
X19750000Y-8300000D01*
X10100000Y-10050000D02*
X19500000Y-10050000D01*
X9850000Y-8300000D02*
X9850000Y-9800000D01*
X10100000Y-8050000D02*
G75*
G03*
X9850000Y-8300000I0J-250000D01*
G01*
X19750000Y-8300000D02*
G75*
G03*
X19500000Y-8050000I-250000J0D01*
G01*
X9850000Y-9800000D02*
G75*
G03*
X10100000Y-10050000I250000J0D01*
G01*
X19500000Y-10050000D02*
G75*
G03*
X19750000Y-9800000I0J250000D01*
G01*
D11*
X10000000Y-8200000D02*
X10200000Y-8400000D01*
X10200000Y-8200000D02*
X10000000Y-8400000D01*
X10000000Y-9700000D02*
X10200000Y-9900000D01*
X10200000Y-9700000D02*
X10000000Y-9900000D01*
X14750000Y-8200000D02*
X14950000Y-8400000D01*
X14950000Y-8200000D02*
X14750000Y-8400000D01*
X14750000Y-9700000D02*
X14950000Y-9900000D01*
X14950000Y-9700000D02*
X14750000Y-9900000D01*
X19400000Y-8200000D02*
X19600000Y-8400000D01*
X19600000Y-8200000D02*
X19400000Y-8400000D01*
X19400000Y-9700000D02*
X19600000Y-9900000D01*
X19600000Y-9700000D02*
X19400000Y-9900000D01*
D12*
X10905000Y-9050000D02*
G75*
G03*
X10905000Y-9050000I-255000J0D01*
G01*
X11805000Y-9050000D02*
G75*
G03*
X11805000Y-9050000I-255000J0D01*
G01*
X12705000Y-9050000D02*
G75*
G03*
X12705000Y-9050000I-255000J0D01*
G01*
X13605000Y-9050000D02*
G75*
G03*
X13605000Y-9050000I-255000J0D01*
G01*
X14505000Y-9050000D02*
G75*
G03*
X14505000Y-9050000I-255000J0D01*
G01*
D11*
X10102619Y-10365476D02*
X10102619Y-10165476D01*
X10150238Y-10165476D01*
X10178810Y-10175000D01*
X10197857Y-10194048D01*
X10207381Y-10213095D01*
X10216905Y-10251190D01*
X10216905Y-10279762D01*
X10207381Y-10317857D01*
X10197857Y-10336905D01*
X10178810Y-10355952D01*
X10150238Y-10365476D01*
X10102619Y-10365476D01*
X10302619Y-10365476D02*
X10302619Y-10232143D01*
X10302619Y-10270238D02*
X10312143Y-10251190D01*
X10321667Y-10241667D01*
X10340714Y-10232143D01*
X10359762Y-10232143D01*
X10426429Y-10365476D02*
X10426429Y-10232143D01*
X10426429Y-10165476D02*
X10416905Y-10175000D01*
X10426429Y-10184524D01*
X10435952Y-10175000D01*
X10426429Y-10165476D01*
X10426429Y-10184524D01*
X10550238Y-10365476D02*
X10531190Y-10355952D01*
X10521667Y-10336905D01*
X10521667Y-10165476D01*
X10655000Y-10365476D02*
X10635952Y-10355952D01*
X10626429Y-10336905D01*
X10626429Y-10165476D01*
X10883571Y-10365476D02*
X10883571Y-10165476D01*
X10950238Y-10308333D01*
X11016905Y-10165476D01*
X11016905Y-10365476D01*
X11197857Y-10365476D02*
X11197857Y-10260714D01*
X11188333Y-10241667D01*
X11169286Y-10232143D01*
X11131190Y-10232143D01*
X11112143Y-10241667D01*
X11197857Y-10355952D02*
X11178810Y-10365476D01*
X11131190Y-10365476D01*
X11112143Y-10355952D01*
X11102619Y-10336905D01*
X11102619Y-10317857D01*
X11112143Y-10298810D01*
X11131190Y-10289286D01*
X11178810Y-10289286D01*
X11197857Y-10279762D01*
X11293095Y-10232143D02*
X11293095Y-10432143D01*
X11293095Y-10241667D02*
X11312143Y-10232143D01*
X11350238Y-10232143D01*
X11369286Y-10241667D01*
X11378809Y-10251190D01*
X11388333Y-10270238D01*
X11388333Y-10327381D01*
X11378809Y-10346429D01*
X11369286Y-10355952D01*
X11350238Y-10365476D01*
X11312143Y-10365476D01*
X11293095Y-10355952D01*
X11474048Y-10346429D02*
X11483571Y-10355952D01*
X11474048Y-10365476D01*
X11464524Y-10355952D01*
X11474048Y-10346429D01*
X11474048Y-10365476D01*
X11474048Y-10241667D02*
X11483571Y-10251190D01*
X11474048Y-10260714D01*
X11464524Y-10251190D01*
X11474048Y-10241667D01*
X11474048Y-10260714D01*
X9645000Y-10595000D02*
X9845000Y-10795000D01*
X9845000Y-10595000D02*
X9645000Y-10795000D01*
X10093095Y-10604524D02*
X10102619Y-10595000D01*
X10121667Y-10585476D01*
X10169286Y-10585476D01*
X10188333Y-10595000D01*
X10197857Y-10604524D01*
X10207381Y-10623571D01*
X10207381Y-10642619D01*
X10197857Y-10671190D01*
X10083571Y-10785476D01*
X10207381Y-10785476D01*
X10293095Y-10766429D02*
X10302619Y-10775952D01*
X10293095Y-10785476D01*
X10283571Y-10775952D01*
X10293095Y-10766429D01*
X10293095Y-10785476D01*
X10426429Y-10585476D02*
X10445476Y-10585476D01*
X10464524Y-10595000D01*
X10474048Y-10604524D01*
X10483571Y-10623571D01*
X10493095Y-10661667D01*
X10493095Y-10709286D01*
X10483571Y-10747381D01*
X10474048Y-10766429D01*
X10464524Y-10775952D01*
X10445476Y-10785476D01*
X10426429Y-10785476D01*
X10407381Y-10775952D01*
X10397857Y-10766429D01*
X10388333Y-10747381D01*
X10378810Y-10709286D01*
X10378810Y-10661667D01*
X10388333Y-10623571D01*
X10397857Y-10604524D01*
X10407381Y-10595000D01*
X10426429Y-10585476D01*
X10616905Y-10585476D02*
X10635952Y-10585476D01*
X10655000Y-10595000D01*
X10664524Y-10604524D01*
X10674048Y-10623571D01*
X10683571Y-10661667D01*
X10683571Y-10709286D01*
X10674048Y-10747381D01*
X10664524Y-10766429D01*
X10655000Y-10775952D01*
X10635952Y-10785476D01*
X10616905Y-10785476D01*
X10597857Y-10775952D01*
X10588333Y-10766429D01*
X10578810Y-10747381D01*
X10569286Y-10709286D01*
X10569286Y-10661667D01*
X10578810Y-10623571D01*
X10588333Y-10604524D01*
X10597857Y-10595000D01*
X10616905Y-10585476D01*
X10807381Y-10585476D02*
X10826429Y-10585476D01*
X10845476Y-10595000D01*
X10855000Y-10604524D01*
X10864524Y-10623571D01*
X10874048Y-10661667D01*
X10874048Y-10709286D01*
X10864524Y-10747381D01*
X10855000Y-10766429D01*
X10845476Y-10775952D01*
X10826429Y-10785476D01*
X10807381Y-10785476D01*
X10788333Y-10775952D01*
X10778810Y-10766429D01*
X10769286Y-10747381D01*
X10759762Y-10709286D01*
X10759762Y-10661667D01*
X10769286Y-10623571D01*
X10778810Y-10604524D01*
X10788333Y-10595000D01*
X10807381Y-10585476D01*
X10959762Y-10785476D02*
X10959762Y-10652143D01*
X10959762Y-10671190D02*
X10969286Y-10661667D01*
X10988333Y-10652143D01*
X11016905Y-10652143D01*
X11035952Y-10661667D01*
X11045476Y-10680714D01*
X11045476Y-10785476D01*
X11045476Y-10680714D02*
X11055000Y-10661667D01*
X11074048Y-10652143D01*
X11102619Y-10652143D01*
X11121667Y-10661667D01*
X11131190Y-10680714D01*
X11131190Y-10785476D01*
X11226428Y-10785476D02*
X11226428Y-10652143D01*
X11226428Y-10671190D02*
X11235952Y-10661667D01*
X11255000Y-10652143D01*
X11283571Y-10652143D01*
X11302619Y-10661667D01*
X11312143Y-10680714D01*
X11312143Y-10785476D01*
X11312143Y-10680714D02*
X11321667Y-10661667D01*
X11340714Y-10652143D01*
X11369286Y-10652143D01*
X11388333Y-10661667D01*
X11397857Y-10680714D01*
X11397857Y-10785476D01*
X11788333Y-10575952D02*
X11616905Y-10833095D01*
X12045476Y-10585476D02*
X12064524Y-10585476D01*
X12083571Y-10595000D01*
X12093095Y-10604524D01*
X12102619Y-10623571D01*
X12112143Y-10661667D01*
X12112143Y-10709286D01*
X12102619Y-10747381D01*
X12093095Y-10766429D01*
X12083571Y-10775952D01*
X12064524Y-10785476D01*
X12045476Y-10785476D01*
X12026428Y-10775952D01*
X12016905Y-10766429D01*
X12007381Y-10747381D01*
X11997857Y-10709286D01*
X11997857Y-10661667D01*
X12007381Y-10623571D01*
X12016905Y-10604524D01*
X12026428Y-10595000D01*
X12045476Y-10585476D01*
X12197857Y-10766429D02*
X12207381Y-10775952D01*
X12197857Y-10785476D01*
X12188333Y-10775952D01*
X12197857Y-10766429D01*
X12197857Y-10785476D01*
X12331190Y-10585476D02*
X12350238Y-10585476D01*
X12369286Y-10595000D01*
X12378809Y-10604524D01*
X12388333Y-10623571D01*
X12397857Y-10661667D01*
X12397857Y-10709286D01*
X12388333Y-10747381D01*
X12378809Y-10766429D01*
X12369286Y-10775952D01*
X12350238Y-10785476D01*
X12331190Y-10785476D01*
X12312143Y-10775952D01*
X12302619Y-10766429D01*
X12293095Y-10747381D01*
X12283571Y-10709286D01*
X12283571Y-10661667D01*
X12293095Y-10623571D01*
X12302619Y-10604524D01*
X12312143Y-10595000D01*
X12331190Y-10585476D01*
X12464524Y-10585476D02*
X12597857Y-10585476D01*
X12512143Y-10785476D01*
X12702619Y-10671190D02*
X12683571Y-10661667D01*
X12674048Y-10652143D01*
X12664524Y-10633095D01*
X12664524Y-10623571D01*
X12674048Y-10604524D01*
X12683571Y-10595000D01*
X12702619Y-10585476D01*
X12740714Y-10585476D01*
X12759762Y-10595000D01*
X12769286Y-10604524D01*
X12778809Y-10623571D01*
X12778809Y-10633095D01*
X12769286Y-10652143D01*
X12759762Y-10661667D01*
X12740714Y-10671190D01*
X12702619Y-10671190D01*
X12683571Y-10680714D01*
X12674048Y-10690238D01*
X12664524Y-10709286D01*
X12664524Y-10747381D01*
X12674048Y-10766429D01*
X12683571Y-10775952D01*
X12702619Y-10785476D01*
X12740714Y-10785476D01*
X12759762Y-10775952D01*
X12769286Y-10766429D01*
X12778809Y-10747381D01*
X12778809Y-10709286D01*
X12769286Y-10690238D01*
X12759762Y-10680714D01*
X12740714Y-10671190D01*
X12845476Y-10585476D02*
X12978809Y-10585476D01*
X12893095Y-10785476D01*
X13045476Y-10585476D02*
X13045476Y-10623571D01*
X13121667Y-10585476D02*
X13121667Y-10623571D01*
X13416905Y-10861667D02*
X13407381Y-10852143D01*
X13388333Y-10823571D01*
X13378809Y-10804524D01*
X13369286Y-10775952D01*
X13359762Y-10728333D01*
X13359762Y-10690238D01*
X13369286Y-10642619D01*
X13378809Y-10614048D01*
X13388333Y-10595000D01*
X13407381Y-10566429D01*
X13416905Y-10556905D01*
X13578809Y-10585476D02*
X13540714Y-10585476D01*
X13521667Y-10595000D01*
X13512143Y-10604524D01*
X13493095Y-10633095D01*
X13483571Y-10671190D01*
X13483571Y-10747381D01*
X13493095Y-10766429D01*
X13502619Y-10775952D01*
X13521667Y-10785476D01*
X13559762Y-10785476D01*
X13578809Y-10775952D01*
X13588333Y-10766429D01*
X13597857Y-10747381D01*
X13597857Y-10699762D01*
X13588333Y-10680714D01*
X13578809Y-10671190D01*
X13559762Y-10661667D01*
X13521667Y-10661667D01*
X13502619Y-10671190D01*
X13493095Y-10680714D01*
X13483571Y-10699762D01*
X13835952Y-10785476D02*
X13835952Y-10585476D01*
X13921667Y-10785476D02*
X13921667Y-10680714D01*
X13912143Y-10661667D01*
X13893095Y-10652143D01*
X13864524Y-10652143D01*
X13845476Y-10661667D01*
X13835952Y-10671190D01*
X14045476Y-10785476D02*
X14026428Y-10775952D01*
X14016905Y-10766429D01*
X14007381Y-10747381D01*
X14007381Y-10690238D01*
X14016905Y-10671190D01*
X14026428Y-10661667D01*
X14045476Y-10652143D01*
X14074048Y-10652143D01*
X14093095Y-10661667D01*
X14102619Y-10671190D01*
X14112143Y-10690238D01*
X14112143Y-10747381D01*
X14102619Y-10766429D01*
X14093095Y-10775952D01*
X14074048Y-10785476D01*
X14045476Y-10785476D01*
X14226428Y-10785476D02*
X14207381Y-10775952D01*
X14197857Y-10756905D01*
X14197857Y-10585476D01*
X14378809Y-10775952D02*
X14359762Y-10785476D01*
X14321667Y-10785476D01*
X14302619Y-10775952D01*
X14293095Y-10756905D01*
X14293095Y-10680714D01*
X14302619Y-10661667D01*
X14321667Y-10652143D01*
X14359762Y-10652143D01*
X14378809Y-10661667D01*
X14388333Y-10680714D01*
X14388333Y-10699762D01*
X14293095Y-10718810D01*
X14464524Y-10775952D02*
X14483571Y-10785476D01*
X14521667Y-10785476D01*
X14540714Y-10775952D01*
X14550238Y-10756905D01*
X14550238Y-10747381D01*
X14540714Y-10728333D01*
X14521667Y-10718810D01*
X14493095Y-10718810D01*
X14474048Y-10709286D01*
X14464524Y-10690238D01*
X14464524Y-10680714D01*
X14474048Y-10661667D01*
X14493095Y-10652143D01*
X14521667Y-10652143D01*
X14540714Y-10661667D01*
X14616905Y-10861667D02*
X14626428Y-10852143D01*
X14645476Y-10823571D01*
X14655000Y-10804524D01*
X14664524Y-10775952D01*
X14674048Y-10728333D01*
X14674048Y-10690238D01*
X14664524Y-10642619D01*
X14655000Y-10614048D01*
X14645476Y-10595000D01*
X14626428Y-10566429D01*
X14616905Y-10556905D01*
X9845000Y-11015000D02*
G75*
G03*
X9845000Y-11015000I-100000J0D01*
G01*
X10197857Y-10905476D02*
X10102619Y-10905476D01*
X10093095Y-11000714D01*
X10102619Y-10991190D01*
X10121667Y-10981667D01*
X10169286Y-10981667D01*
X10188333Y-10991190D01*
X10197857Y-11000714D01*
X10207381Y-11019762D01*
X10207381Y-11067381D01*
X10197857Y-11086429D01*
X10188333Y-11095952D01*
X10169286Y-11105476D01*
X10121667Y-11105476D01*
X10102619Y-11095952D01*
X10093095Y-11086429D01*
X10293095Y-11086429D02*
X10302619Y-11095952D01*
X10293095Y-11105476D01*
X10283571Y-11095952D01*
X10293095Y-11086429D01*
X10293095Y-11105476D01*
X10493095Y-11105476D02*
X10378810Y-11105476D01*
X10435952Y-11105476D02*
X10435952Y-10905476D01*
X10416905Y-10934048D01*
X10397857Y-10953095D01*
X10378810Y-10962619D01*
X10616905Y-10905476D02*
X10635952Y-10905476D01*
X10655000Y-10915000D01*
X10664524Y-10924524D01*
X10674048Y-10943571D01*
X10683571Y-10981667D01*
X10683571Y-11029286D01*
X10674048Y-11067381D01*
X10664524Y-11086429D01*
X10655000Y-11095952D01*
X10635952Y-11105476D01*
X10616905Y-11105476D01*
X10597857Y-11095952D01*
X10588333Y-11086429D01*
X10578810Y-11067381D01*
X10569286Y-11029286D01*
X10569286Y-10981667D01*
X10578810Y-10943571D01*
X10588333Y-10924524D01*
X10597857Y-10915000D01*
X10616905Y-10905476D01*
X10807381Y-10905476D02*
X10826429Y-10905476D01*
X10845476Y-10915000D01*
X10855000Y-10924524D01*
X10864524Y-10943571D01*
X10874048Y-10981667D01*
X10874048Y-11029286D01*
X10864524Y-11067381D01*
X10855000Y-11086429D01*
X10845476Y-11095952D01*
X10826429Y-11105476D01*
X10807381Y-11105476D01*
X10788333Y-11095952D01*
X10778810Y-11086429D01*
X10769286Y-11067381D01*
X10759762Y-11029286D01*
X10759762Y-10981667D01*
X10769286Y-10943571D01*
X10778810Y-10924524D01*
X10788333Y-10915000D01*
X10807381Y-10905476D01*
X10959762Y-11105476D02*
X10959762Y-10972143D01*
X10959762Y-10991190D02*
X10969286Y-10981667D01*
X10988333Y-10972143D01*
X11016905Y-10972143D01*
X11035952Y-10981667D01*
X11045476Y-11000714D01*
X11045476Y-11105476D01*
X11045476Y-11000714D02*
X11055000Y-10981667D01*
X11074048Y-10972143D01*
X11102619Y-10972143D01*
X11121667Y-10981667D01*
X11131190Y-11000714D01*
X11131190Y-11105476D01*
X11226428Y-11105476D02*
X11226428Y-10972143D01*
X11226428Y-10991190D02*
X11235952Y-10981667D01*
X11255000Y-10972143D01*
X11283571Y-10972143D01*
X11302619Y-10981667D01*
X11312143Y-11000714D01*
X11312143Y-11105476D01*
X11312143Y-11000714D02*
X11321667Y-10981667D01*
X11340714Y-10972143D01*
X11369286Y-10972143D01*
X11388333Y-10981667D01*
X11397857Y-11000714D01*
X11397857Y-11105476D01*
X11788333Y-10895952D02*
X11616905Y-11153095D01*
X12045476Y-10905476D02*
X12064524Y-10905476D01*
X12083571Y-10915000D01*
X12093095Y-10924524D01*
X12102619Y-10943571D01*
X12112143Y-10981667D01*
X12112143Y-11029286D01*
X12102619Y-11067381D01*
X12093095Y-11086429D01*
X12083571Y-11095952D01*
X12064524Y-11105476D01*
X12045476Y-11105476D01*
X12026428Y-11095952D01*
X12016905Y-11086429D01*
X12007381Y-11067381D01*
X11997857Y-11029286D01*
X11997857Y-10981667D01*
X12007381Y-10943571D01*
X12016905Y-10924524D01*
X12026428Y-10915000D01*
X12045476Y-10905476D01*
X12197857Y-11086429D02*
X12207381Y-11095952D01*
X12197857Y-11105476D01*
X12188333Y-11095952D01*
X12197857Y-11086429D01*
X12197857Y-11105476D01*
X12283571Y-10924524D02*
X12293095Y-10915000D01*
X12312143Y-10905476D01*
X12359762Y-10905476D01*
X12378809Y-10915000D01*
X12388333Y-10924524D01*
X12397857Y-10943571D01*
X12397857Y-10962619D01*
X12388333Y-10991190D01*
X12274048Y-11105476D01*
X12397857Y-11105476D01*
X12521667Y-10905476D02*
X12540714Y-10905476D01*
X12559762Y-10915000D01*
X12569286Y-10924524D01*
X12578809Y-10943571D01*
X12588333Y-10981667D01*
X12588333Y-11029286D01*
X12578809Y-11067381D01*
X12569286Y-11086429D01*
X12559762Y-11095952D01*
X12540714Y-11105476D01*
X12521667Y-11105476D01*
X12502619Y-11095952D01*
X12493095Y-11086429D01*
X12483571Y-11067381D01*
X12474048Y-11029286D01*
X12474048Y-10981667D01*
X12483571Y-10943571D01*
X12493095Y-10924524D01*
X12502619Y-10915000D01*
X12521667Y-10905476D01*
X12712143Y-10905476D02*
X12731190Y-10905476D01*
X12750238Y-10915000D01*
X12759762Y-10924524D01*
X12769286Y-10943571D01*
X12778809Y-10981667D01*
X12778809Y-11029286D01*
X12769286Y-11067381D01*
X12759762Y-11086429D01*
X12750238Y-11095952D01*
X12731190Y-11105476D01*
X12712143Y-11105476D01*
X12693095Y-11095952D01*
X12683571Y-11086429D01*
X12674048Y-11067381D01*
X12664524Y-11029286D01*
X12664524Y-10981667D01*
X12674048Y-10943571D01*
X12683571Y-10924524D01*
X12693095Y-10915000D01*
X12712143Y-10905476D01*
X12893095Y-10991190D02*
X12874048Y-10981667D01*
X12864524Y-10972143D01*
X12855000Y-10953095D01*
X12855000Y-10943571D01*
X12864524Y-10924524D01*
X12874048Y-10915000D01*
X12893095Y-10905476D01*
X12931190Y-10905476D01*
X12950238Y-10915000D01*
X12959762Y-10924524D01*
X12969286Y-10943571D01*
X12969286Y-10953095D01*
X12959762Y-10972143D01*
X12950238Y-10981667D01*
X12931190Y-10991190D01*
X12893095Y-10991190D01*
X12874048Y-11000714D01*
X12864524Y-11010238D01*
X12855000Y-11029286D01*
X12855000Y-11067381D01*
X12864524Y-11086429D01*
X12874048Y-11095952D01*
X12893095Y-11105476D01*
X12931190Y-11105476D01*
X12950238Y-11095952D01*
X12959762Y-11086429D01*
X12969286Y-11067381D01*
X12969286Y-11029286D01*
X12959762Y-11010238D01*
X12950238Y-11000714D01*
X12931190Y-10991190D01*
X13045476Y-10905476D02*
X13045476Y-10943571D01*
X13121667Y-10905476D02*
X13121667Y-10943571D01*
X13416905Y-11181667D02*
X13407381Y-11172143D01*
X13388333Y-11143571D01*
X13378809Y-11124524D01*
X13369286Y-11095952D01*
X13359762Y-11048333D01*
X13359762Y-11010238D01*
X13369286Y-10962619D01*
X13378809Y-10934048D01*
X13388333Y-10915000D01*
X13407381Y-10886429D01*
X13416905Y-10876905D01*
X13588333Y-10905476D02*
X13493095Y-10905476D01*
X13483571Y-11000714D01*
X13493095Y-10991190D01*
X13512143Y-10981667D01*
X13559762Y-10981667D01*
X13578809Y-10991190D01*
X13588333Y-11000714D01*
X13597857Y-11019762D01*
X13597857Y-11067381D01*
X13588333Y-11086429D01*
X13578809Y-11095952D01*
X13559762Y-11105476D01*
X13512143Y-11105476D01*
X13493095Y-11095952D01*
X13483571Y-11086429D01*
X13835952Y-11105476D02*
X13835952Y-10905476D01*
X13921667Y-11105476D02*
X13921667Y-11000714D01*
X13912143Y-10981667D01*
X13893095Y-10972143D01*
X13864524Y-10972143D01*
X13845476Y-10981667D01*
X13835952Y-10991190D01*
X14045476Y-11105476D02*
X14026428Y-11095952D01*
X14016905Y-11086429D01*
X14007381Y-11067381D01*
X14007381Y-11010238D01*
X14016905Y-10991190D01*
X14026428Y-10981667D01*
X14045476Y-10972143D01*
X14074048Y-10972143D01*
X14093095Y-10981667D01*
X14102619Y-10991190D01*
X14112143Y-11010238D01*
X14112143Y-11067381D01*
X14102619Y-11086429D01*
X14093095Y-11095952D01*
X14074048Y-11105476D01*
X14045476Y-11105476D01*
X14226428Y-11105476D02*
X14207381Y-11095952D01*
X14197857Y-11076905D01*
X14197857Y-10905476D01*
X14378809Y-11095952D02*
X14359762Y-11105476D01*
X14321667Y-11105476D01*
X14302619Y-11095952D01*
X14293095Y-11076905D01*
X14293095Y-11000714D01*
X14302619Y-10981667D01*
X14321667Y-10972143D01*
X14359762Y-10972143D01*
X14378809Y-10981667D01*
X14388333Y-11000714D01*
X14388333Y-11019762D01*
X14293095Y-11038810D01*
X14464524Y-11095952D02*
X14483571Y-11105476D01*
X14521667Y-11105476D01*
X14540714Y-11095952D01*
X14550238Y-11076905D01*
X14550238Y-11067381D01*
X14540714Y-11048333D01*
X14521667Y-11038810D01*
X14493095Y-11038810D01*
X14474048Y-11029286D01*
X14464524Y-11010238D01*
X14464524Y-11000714D01*
X14474048Y-10981667D01*
X14493095Y-10972143D01*
X14521667Y-10972143D01*
X14540714Y-10981667D01*
X14616905Y-11181667D02*
X14626428Y-11172143D01*
X14645476Y-11143571D01*
X14655000Y-11124524D01*
X14664524Y-11095952D01*
X14674048Y-11048333D01*
X14674048Y-11010238D01*
X14664524Y-10962619D01*
X14655000Y-10934048D01*
X14645476Y-10915000D01*
X14626428Y-10886429D01*
X14616905Y-10876905D01*
M02*
