%TF.GenerationSoftware,KiCad,Pcbnew,6.0.9+dfsg-1~bpo11+1*%
%TF.CreationDate,2022-11-11T14:52:23+01:00*%
%TF.ProjectId,014-base-power-board,3031342d-6261-4736-952d-706f7765722d,1*%
%TF.SameCoordinates,Original*%
%TF.FileFunction,Drillmap*%
%TF.FilePolarity,Positive*%
%FSLAX45Y45*%
G04 Gerber Fmt 4.5, Leading zero omitted, Abs format (unit mm)*
G04 Created by KiCad (PCBNEW 6.0.9+dfsg-1~bpo11+1) date 2022-11-11 14:52:23*
%MOMM*%
%LPD*%
G01*
G04 APERTURE LIST*
%ADD10C,0.100000*%
%ADD11C,0.200000*%
G04 APERTURE END LIST*
D10*
X19500000Y-8050000D02*
X10100000Y-8050000D01*
X19750000Y-9800000D02*
X19750000Y-8300000D01*
X10100000Y-10050000D02*
X19500000Y-10050000D01*
X9850000Y-8300000D02*
X9850000Y-9800000D01*
X10100000Y-8050000D02*
G75*
G03*
X9850000Y-8300000I0J-250000D01*
G01*
X19750000Y-8300000D02*
G75*
G03*
X19500000Y-8050000I-250000J0D01*
G01*
X9850000Y-9800000D02*
G75*
G03*
X10100000Y-10050000I250000J0D01*
G01*
X19500000Y-10050000D02*
G75*
G03*
X19750000Y-9800000I0J250000D01*
G01*
D11*
X10102619Y-10365476D02*
X10102619Y-10165476D01*
X10150238Y-10165476D01*
X10178810Y-10175000D01*
X10197857Y-10194048D01*
X10207381Y-10213095D01*
X10216905Y-10251190D01*
X10216905Y-10279762D01*
X10207381Y-10317857D01*
X10197857Y-10336905D01*
X10178810Y-10355952D01*
X10150238Y-10365476D01*
X10102619Y-10365476D01*
X10302619Y-10365476D02*
X10302619Y-10232143D01*
X10302619Y-10270238D02*
X10312143Y-10251190D01*
X10321667Y-10241667D01*
X10340714Y-10232143D01*
X10359762Y-10232143D01*
X10426429Y-10365476D02*
X10426429Y-10232143D01*
X10426429Y-10165476D02*
X10416905Y-10175000D01*
X10426429Y-10184524D01*
X10435952Y-10175000D01*
X10426429Y-10165476D01*
X10426429Y-10184524D01*
X10550238Y-10365476D02*
X10531190Y-10355952D01*
X10521667Y-10336905D01*
X10521667Y-10165476D01*
X10655000Y-10365476D02*
X10635952Y-10355952D01*
X10626429Y-10336905D01*
X10626429Y-10165476D01*
X10883571Y-10365476D02*
X10883571Y-10165476D01*
X10950238Y-10308333D01*
X11016905Y-10165476D01*
X11016905Y-10365476D01*
X11197857Y-10365476D02*
X11197857Y-10260714D01*
X11188333Y-10241667D01*
X11169286Y-10232143D01*
X11131190Y-10232143D01*
X11112143Y-10241667D01*
X11197857Y-10355952D02*
X11178810Y-10365476D01*
X11131190Y-10365476D01*
X11112143Y-10355952D01*
X11102619Y-10336905D01*
X11102619Y-10317857D01*
X11112143Y-10298810D01*
X11131190Y-10289286D01*
X11178810Y-10289286D01*
X11197857Y-10279762D01*
X11293095Y-10232143D02*
X11293095Y-10432143D01*
X11293095Y-10241667D02*
X11312143Y-10232143D01*
X11350238Y-10232143D01*
X11369286Y-10241667D01*
X11378809Y-10251190D01*
X11388333Y-10270238D01*
X11388333Y-10327381D01*
X11378809Y-10346429D01*
X11369286Y-10355952D01*
X11350238Y-10365476D01*
X11312143Y-10365476D01*
X11293095Y-10355952D01*
X11474048Y-10346429D02*
X11483571Y-10355952D01*
X11474048Y-10365476D01*
X11464524Y-10355952D01*
X11474048Y-10346429D01*
X11474048Y-10365476D01*
X11474048Y-10241667D02*
X11483571Y-10251190D01*
X11474048Y-10260714D01*
X11464524Y-10251190D01*
X11474048Y-10241667D01*
X11474048Y-10260714D01*
M02*
