%TF.GenerationSoftware,KiCad,Pcbnew,6.0.9+dfsg-1~bpo11+1*%
%TF.CreationDate,2022-11-06T14:52:20+01:00*%
%TF.ProjectId,filter,66696c74-6572-42e6-9b69-6361645f7063,2*%
%TF.SameCoordinates,Original*%
%TF.FileFunction,Plated,1,2,PTH,Drill*%
%TF.FilePolarity,Positive*%
%FSLAX46Y46*%
G04 Gerber Fmt 4.6, Leading zero omitted, Abs format (unit mm)*
G04 Created by KiCad (PCBNEW 6.0.9+dfsg-1~bpo11+1) date 2022-11-06 14:52:20*
%MOMM*%
%LPD*%
G01*
G04 APERTURE LIST*
%TA.AperFunction,ViaDrill*%
%ADD10C,0.400000*%
%TD*%
%TA.AperFunction,ComponentDrill*%
%ADD11C,0.400000*%
%TD*%
%TA.AperFunction,ComponentDrill*%
%ADD12C,2.000000*%
%TD*%
G04 APERTURE END LIST*
D10*
X110000000Y-57500000D03*
X110000000Y-60000000D03*
X110000000Y-65000000D03*
X110000000Y-67500000D03*
X110500000Y-61000000D03*
X110500000Y-64000000D03*
X111500000Y-61000000D03*
X111500000Y-64000000D03*
X112500000Y-55000000D03*
X112500000Y-57500000D03*
X112500000Y-60000000D03*
X112500000Y-61000000D03*
X112500000Y-64000000D03*
X112500000Y-65000000D03*
X112500000Y-67500000D03*
X112500000Y-70000000D03*
X113500000Y-61000000D03*
X113500000Y-64000000D03*
X114500000Y-61000000D03*
X114500000Y-64000000D03*
X115000000Y-55000000D03*
X115000000Y-57500000D03*
X115000000Y-60000000D03*
X115000000Y-65000000D03*
X115000000Y-67500000D03*
X115500000Y-61000000D03*
X115500000Y-64000000D03*
X116500000Y-61000000D03*
X116500000Y-64000000D03*
X117500000Y-55000000D03*
X117500000Y-57500000D03*
X117500000Y-60000000D03*
X117500000Y-61000000D03*
X117500000Y-64000000D03*
X117500000Y-65000000D03*
X117500000Y-70000000D03*
X118500000Y-61000000D03*
X118500000Y-64000000D03*
X119500000Y-61000000D03*
X119500000Y-64000000D03*
X119500000Y-65000000D03*
X119500000Y-66000000D03*
X120000000Y-57500000D03*
X120000000Y-60000000D03*
X120000000Y-67500000D03*
X120500000Y-61000000D03*
X120500000Y-66000000D03*
X121500000Y-57000000D03*
X121500000Y-58000000D03*
X121500000Y-59000000D03*
X121500000Y-60000000D03*
X121500000Y-61000000D03*
X121500000Y-66000000D03*
X121500000Y-67000000D03*
X121500000Y-68000000D03*
X122500000Y-54000000D03*
X122500000Y-55000000D03*
X122500000Y-56000000D03*
X122500000Y-57000000D03*
X122500000Y-58000000D03*
X122500000Y-59000000D03*
X122500000Y-60000000D03*
X122500000Y-61000000D03*
X122500000Y-62000000D03*
X122500000Y-63000000D03*
X122500000Y-66000000D03*
X122500000Y-67000000D03*
X122500000Y-68000000D03*
X122500000Y-69000000D03*
X122500000Y-70000000D03*
X122500000Y-71000000D03*
X123500000Y-57000000D03*
X123500000Y-58000000D03*
X123500000Y-59000000D03*
X123500000Y-60000000D03*
X123500000Y-61000000D03*
X123500000Y-66000000D03*
X123500000Y-67000000D03*
X123500000Y-68000000D03*
X124500000Y-61000000D03*
X124500000Y-66000000D03*
X125000000Y-57500000D03*
X125000000Y-60000000D03*
X125000000Y-67500000D03*
X125500000Y-61000000D03*
X125500000Y-64000000D03*
X125500000Y-65000000D03*
X125500000Y-66000000D03*
X126500000Y-61000000D03*
X126500000Y-64000000D03*
X127500000Y-55000000D03*
X127500000Y-57500000D03*
X127500000Y-60000000D03*
X127500000Y-61000000D03*
X127500000Y-64000000D03*
X127500000Y-65000000D03*
X127500000Y-67500000D03*
X127500000Y-70000000D03*
X128500000Y-61000000D03*
X128500000Y-64000000D03*
X129500000Y-61000000D03*
X129500000Y-64000000D03*
X130000000Y-55000000D03*
X130000000Y-57500000D03*
X130000000Y-60000000D03*
X130000000Y-65000000D03*
X130000000Y-67500000D03*
X130000000Y-70000000D03*
X130500000Y-61000000D03*
X130500000Y-64000000D03*
X131500000Y-61000000D03*
X131500000Y-64000000D03*
X132500000Y-55000000D03*
X132500000Y-57500000D03*
X132500000Y-60000000D03*
X132500000Y-61000000D03*
X132500000Y-64000000D03*
X132500000Y-65000000D03*
X132500000Y-67500000D03*
X132500000Y-70000000D03*
X133500000Y-61000000D03*
X133500000Y-64000000D03*
X134500000Y-61000000D03*
X134500000Y-64000000D03*
X135000000Y-57500000D03*
X135000000Y-60000000D03*
X135000000Y-65000000D03*
X135000000Y-67500000D03*
D11*
%TO.C,J2*%
X108000000Y-61500000D03*
X108000000Y-63500000D03*
X108500000Y-61000000D03*
X108500000Y-64000000D03*
X109000000Y-61500000D03*
X109000000Y-63500000D03*
X109500000Y-61000000D03*
X109500000Y-64000000D03*
X110000000Y-61500000D03*
X110000000Y-63500000D03*
%TO.C,J1*%
X135000000Y-61500000D03*
X135000000Y-63500000D03*
X135500000Y-61000000D03*
X135500000Y-64000000D03*
X136000000Y-61500000D03*
X136000000Y-63500000D03*
X136500000Y-61000000D03*
X136500000Y-64000000D03*
X137000000Y-61500000D03*
X137000000Y-63500000D03*
D12*
%TO.C,H5*%
X110000000Y-55000000D03*
%TO.C,H1*%
X110000000Y-70000000D03*
%TO.C,H3*%
X120000000Y-55000000D03*
%TO.C,H6*%
X120000000Y-70000000D03*
%TO.C,H7*%
X125000000Y-55000000D03*
%TO.C,H8*%
X125000000Y-70000000D03*
%TO.C,H4*%
X135000000Y-55000000D03*
%TO.C,H2*%
X135000000Y-70000000D03*
M02*
