%TF.GenerationSoftware,KiCad,Pcbnew,6.0.9+dfsg-1~bpo11+1*%
%TF.CreationDate,2022-11-06T14:52:17+01:00*%
%TF.ProjectId,filter,66696c74-6572-42e6-9b69-6361645f7063,2*%
%TF.SameCoordinates,Original*%
%TF.FileFunction,Copper,L1,Top*%
%TF.FilePolarity,Positive*%
%FSLAX46Y46*%
G04 Gerber Fmt 4.6, Leading zero omitted, Abs format (unit mm)*
G04 Created by KiCad (PCBNEW 6.0.9+dfsg-1~bpo11+1) date 2022-11-06 14:52:17*
%MOMM*%
%LPD*%
G01*
G04 APERTURE LIST*
G04 Aperture macros list*
%AMRoundRect*
0 Rectangle with rounded corners*
0 $1 Rounding radius*
0 $2 $3 $4 $5 $6 $7 $8 $9 X,Y pos of 4 corners*
0 Add a 4 corners polygon primitive as box body*
4,1,4,$2,$3,$4,$5,$6,$7,$8,$9,$2,$3,0*
0 Add four circle primitives for the rounded corners*
1,1,$1+$1,$2,$3*
1,1,$1+$1,$4,$5*
1,1,$1+$1,$6,$7*
1,1,$1+$1,$8,$9*
0 Add four rect primitives between the rounded corners*
20,1,$1+$1,$2,$3,$4,$5,0*
20,1,$1+$1,$4,$5,$6,$7,0*
20,1,$1+$1,$6,$7,$8,$9,0*
20,1,$1+$1,$8,$9,$2,$3,0*%
G04 Aperture macros list end*
%TA.AperFunction,SMDPad,CuDef*%
%ADD10RoundRect,0.250000X-0.450000X0.262500X-0.450000X-0.262500X0.450000X-0.262500X0.450000X0.262500X0*%
%TD*%
%TA.AperFunction,ComponentPad*%
%ADD11C,3.400000*%
%TD*%
%TA.AperFunction,SMDPad,CuDef*%
%ADD12R,3.000000X0.800000*%
%TD*%
%TA.AperFunction,SMDPad,CuDef*%
%ADD13R,3.000000X2.000000*%
%TD*%
%TA.AperFunction,ComponentPad*%
%ADD14C,0.800000*%
%TD*%
%TA.AperFunction,SMDPad,CuDef*%
%ADD15RoundRect,0.250000X0.262500X0.450000X-0.262500X0.450000X-0.262500X-0.450000X0.262500X-0.450000X0*%
%TD*%
%TA.AperFunction,ViaPad*%
%ADD16C,0.800000*%
%TD*%
%TA.AperFunction,Conductor*%
%ADD17C,0.800000*%
%TD*%
G04 APERTURE END LIST*
%TO.C,G\u002A\u002A\u002A*%
G36*
X116707208Y-67114917D02*
G01*
X116721780Y-67122643D01*
X116727638Y-67138791D01*
X116724986Y-67166038D01*
X116714028Y-67207062D01*
X116695246Y-67263741D01*
X116678860Y-67310446D01*
X116664665Y-67349625D01*
X116654112Y-67377364D01*
X116648650Y-67389745D01*
X116648486Y-67389946D01*
X116654138Y-67397178D01*
X116673545Y-67411565D01*
X116702518Y-67430004D01*
X116702794Y-67430170D01*
X116765684Y-67473854D01*
X116813512Y-67519631D01*
X116845324Y-67565750D01*
X116860162Y-67610459D01*
X116857070Y-67652007D01*
X116840520Y-67682445D01*
X116820991Y-67706562D01*
X116877555Y-67740636D01*
X116917737Y-67766699D01*
X116959250Y-67796467D01*
X116980607Y-67813250D01*
X117006661Y-67835927D01*
X117019745Y-67852611D01*
X117023211Y-67869984D01*
X117020661Y-67893124D01*
X117015636Y-67932872D01*
X117012184Y-67973169D01*
X117012056Y-67975472D01*
X117006709Y-68006817D01*
X116992958Y-68024471D01*
X116987295Y-68027764D01*
X116964024Y-68044266D01*
X116944294Y-68064253D01*
X116934232Y-68075038D01*
X116921977Y-68082474D01*
X116903462Y-68087419D01*
X116874622Y-68090732D01*
X116831391Y-68093272D01*
X116800502Y-68094630D01*
X116740844Y-68098231D01*
X116695936Y-68103279D01*
X116668140Y-68109464D01*
X116661407Y-68112879D01*
X116649381Y-68131376D01*
X116640328Y-68159745D01*
X116639450Y-68164547D01*
X116632091Y-68190629D01*
X116617507Y-68228695D01*
X116598200Y-68272492D01*
X116586787Y-68296135D01*
X116569617Y-68331648D01*
X116556241Y-68363117D01*
X116545437Y-68394981D01*
X116535983Y-68431679D01*
X116526657Y-68477652D01*
X116516238Y-68537340D01*
X116510003Y-68575142D01*
X116498611Y-68650475D01*
X116487513Y-68733726D01*
X116477703Y-68816757D01*
X116470177Y-68891427D01*
X116467711Y-68921318D01*
X116453479Y-69070850D01*
X116434101Y-69203435D01*
X116409013Y-69322278D01*
X116378053Y-69429366D01*
X116349141Y-69507130D01*
X116316299Y-69574946D01*
X116276020Y-69638510D01*
X116224798Y-69703520D01*
X116175643Y-69758199D01*
X116077329Y-69875280D01*
X115993806Y-70001629D01*
X115931364Y-70121186D01*
X115903186Y-70177903D01*
X115877811Y-70220375D01*
X115851675Y-70254018D01*
X115828482Y-70277604D01*
X115800811Y-70302117D01*
X115778251Y-70319713D01*
X115765568Y-70326682D01*
X115765395Y-70326688D01*
X115753451Y-70333218D01*
X115741919Y-70353767D01*
X115730392Y-70389773D01*
X115718459Y-70442674D01*
X115705712Y-70513910D01*
X115697702Y-70564739D01*
X115682935Y-70657753D01*
X115668702Y-70736626D01*
X115653537Y-70807789D01*
X115635974Y-70877671D01*
X115614550Y-70952702D01*
X115594147Y-71019151D01*
X115573662Y-71088767D01*
X115559937Y-71148459D01*
X115552673Y-71203792D01*
X115551572Y-71260332D01*
X115556334Y-71323643D01*
X115566662Y-71399292D01*
X115571976Y-71432384D01*
X115581863Y-71493891D01*
X115591097Y-71554175D01*
X115598842Y-71607582D01*
X115604263Y-71648460D01*
X115605561Y-71659723D01*
X115612893Y-71704728D01*
X115626368Y-71741894D01*
X115650004Y-71781963D01*
X115652923Y-71786310D01*
X115693121Y-71845728D01*
X115391035Y-71845728D01*
X115398018Y-71812144D01*
X115406666Y-71782384D01*
X115417092Y-71759536D01*
X115421952Y-71745992D01*
X115419574Y-71727580D01*
X115408787Y-71699446D01*
X115396054Y-71672292D01*
X115376050Y-71626603D01*
X115359018Y-71576762D01*
X115343853Y-71518573D01*
X115329451Y-71447840D01*
X115315851Y-71367612D01*
X115305774Y-71315487D01*
X115290904Y-71252618D01*
X115273420Y-71187715D01*
X115259042Y-71140272D01*
X115239373Y-71077432D01*
X115224185Y-71023154D01*
X115212556Y-70972312D01*
X115203565Y-70919774D01*
X115196290Y-70860411D01*
X115189810Y-70789094D01*
X115185282Y-70729699D01*
X115180007Y-70626544D01*
X115179205Y-70527802D01*
X115182780Y-70438429D01*
X115190634Y-70363381D01*
X115192649Y-70350881D01*
X115198285Y-70318238D01*
X115013062Y-70323960D01*
X114892262Y-70325480D01*
X114787165Y-70321724D01*
X114693384Y-70312274D01*
X114606532Y-70296713D01*
X114535335Y-70278501D01*
X114428868Y-70239636D01*
X114339540Y-70189590D01*
X114266909Y-70128052D01*
X114210536Y-70054711D01*
X114204435Y-70044391D01*
X114175907Y-69994600D01*
X114168639Y-70023556D01*
X114148777Y-70080742D01*
X114118034Y-70143838D01*
X114080847Y-70204875D01*
X114041648Y-70255885D01*
X114035826Y-70262224D01*
X114001823Y-70299253D01*
X113979015Y-70328535D01*
X113963853Y-70356807D01*
X113952786Y-70390804D01*
X113942267Y-70437262D01*
X113941407Y-70441406D01*
X113922253Y-70514043D01*
X113895078Y-70580397D01*
X113857410Y-70644725D01*
X113806775Y-70711286D01*
X113744562Y-70780306D01*
X113700655Y-70827086D01*
X113669096Y-70863066D01*
X113647302Y-70891736D01*
X113632691Y-70916586D01*
X113622679Y-70941105D01*
X113620484Y-70947943D01*
X113606617Y-71010336D01*
X113598490Y-71083767D01*
X113596652Y-71159269D01*
X113601650Y-71227875D01*
X113602867Y-71236045D01*
X113621849Y-71352191D01*
X113638653Y-71449249D01*
X113653608Y-71528646D01*
X113667045Y-71591809D01*
X113679292Y-71640166D01*
X113690680Y-71675143D01*
X113701537Y-71698166D01*
X113712194Y-71710664D01*
X113712536Y-71710907D01*
X113743036Y-71736176D01*
X113770562Y-71765811D01*
X113789476Y-71793348D01*
X113793891Y-71804120D01*
X113795244Y-71813632D01*
X113790936Y-71819721D01*
X113777416Y-71823146D01*
X113751136Y-71824671D01*
X113708547Y-71825054D01*
X113696219Y-71825061D01*
X113593072Y-71825061D01*
X113595449Y-71796643D01*
X113593369Y-71778430D01*
X113582341Y-71757689D01*
X113559769Y-71730433D01*
X113536582Y-71706224D01*
X113493768Y-71657147D01*
X113454802Y-71599598D01*
X113418211Y-71530726D01*
X113382517Y-71447679D01*
X113346246Y-71347608D01*
X113337706Y-71322003D01*
X113302894Y-71210358D01*
X113277616Y-71113609D01*
X113261922Y-71028285D01*
X113255862Y-70950921D01*
X113259487Y-70878048D01*
X113272846Y-70806198D01*
X113295988Y-70731903D01*
X113328964Y-70651696D01*
X113347925Y-70610862D01*
X113363244Y-70577573D01*
X113373181Y-70550567D01*
X113378868Y-70523669D01*
X113381433Y-70490701D01*
X113382007Y-70445488D01*
X113381942Y-70424857D01*
X113374037Y-70313717D01*
X113351457Y-70189349D01*
X113314436Y-70052839D01*
X113279648Y-69949512D01*
X113261521Y-69895325D01*
X113244501Y-69837402D01*
X113231243Y-69785050D01*
X113227106Y-69765233D01*
X113214411Y-69708368D01*
X113200643Y-69665227D01*
X113186695Y-69637191D01*
X113173461Y-69625643D01*
X113161834Y-69631965D01*
X113153974Y-69652044D01*
X113149203Y-69668673D01*
X113144810Y-69670196D01*
X113137896Y-69654900D01*
X113132125Y-69639127D01*
X113121228Y-69590843D01*
X113117240Y-69530839D01*
X113119967Y-69466803D01*
X113129216Y-69406422D01*
X113138838Y-69372197D01*
X113186099Y-69269316D01*
X113251074Y-69175424D01*
X113332531Y-69091243D01*
X113429242Y-69017494D01*
X113539977Y-68954898D01*
X113663509Y-68904178D01*
X113798607Y-68866054D01*
X113944042Y-68841248D01*
X114059642Y-68831795D01*
X114147425Y-68829758D01*
X114231499Y-68832317D01*
X114316776Y-68840018D01*
X114408169Y-68853405D01*
X114510590Y-68873023D01*
X114591711Y-68890808D01*
X114687807Y-68912345D01*
X114767579Y-68929200D01*
X114834708Y-68941879D01*
X114892875Y-68950889D01*
X114945762Y-68956737D01*
X114997049Y-68959929D01*
X115050417Y-68960973D01*
X115098629Y-68960575D01*
X115154738Y-68959915D01*
X115199013Y-68960589D01*
X115237320Y-68963316D01*
X115275528Y-68968818D01*
X115319505Y-68977819D01*
X115375120Y-68991038D01*
X115403604Y-68998082D01*
X115475622Y-69015214D01*
X115531279Y-69026183D01*
X115573946Y-69030976D01*
X115606992Y-69029581D01*
X115633788Y-69021987D01*
X115657703Y-69008180D01*
X115671833Y-68997109D01*
X115692889Y-68976673D01*
X115710733Y-68952129D01*
X115726651Y-68920341D01*
X115741925Y-68878173D01*
X115757840Y-68822489D01*
X115775680Y-68750153D01*
X115779346Y-68734469D01*
X115796905Y-68662770D01*
X115818065Y-68582312D01*
X115840306Y-68502374D01*
X115861109Y-68432234D01*
X115863452Y-68424717D01*
X115878978Y-68374113D01*
X115891303Y-68330295D01*
X115901226Y-68288944D01*
X115909547Y-68245741D01*
X115917065Y-68196365D01*
X115924579Y-68136498D01*
X115932889Y-68061819D01*
X115936002Y-68032628D01*
X115947098Y-67930493D01*
X115956972Y-67846407D01*
X115966097Y-67777821D01*
X115974945Y-67722188D01*
X115983991Y-67676957D01*
X115993707Y-67639582D01*
X116004567Y-67607513D01*
X116017044Y-67578202D01*
X116022488Y-67566892D01*
X116043227Y-67527695D01*
X116064341Y-67495534D01*
X116089403Y-67466760D01*
X116121983Y-67437721D01*
X116165654Y-67404766D01*
X116214198Y-67370923D01*
X116263880Y-67334968D01*
X116315539Y-67294307D01*
X116361923Y-67254795D01*
X116386890Y-67231435D01*
X116418275Y-67202043D01*
X116445322Y-67179904D01*
X116464140Y-67168049D01*
X116469559Y-67167005D01*
X116483132Y-67181623D01*
X116484744Y-67211606D01*
X116474416Y-67255478D01*
X116468097Y-67273543D01*
X116456615Y-67305332D01*
X116448850Y-67328941D01*
X116446704Y-67337728D01*
X116453034Y-67335813D01*
X116469982Y-67321540D01*
X116494485Y-67298042D01*
X116523480Y-67268450D01*
X116553903Y-67235896D01*
X116582693Y-67203515D01*
X116606785Y-67174437D01*
X116608411Y-67172355D01*
X116635607Y-67139612D01*
X116656294Y-67121160D01*
X116674724Y-67113645D01*
X116683716Y-67112937D01*
X116707208Y-67114917D01*
G37*
%TD*%
D10*
%TO.P,Z1,1*%
%TO.N,Net-(J1-Pad1)*%
X133500000Y-62500000D03*
%TO.P,Z1,2*%
%TO.N,GND*%
X133500000Y-64325000D03*
%TD*%
D11*
%TO.P,H2,1,1*%
%TO.N,GND*%
X135000000Y-70000000D03*
%TD*%
%TO.P,H4,1,1*%
%TO.N,GND*%
X135000000Y-55000000D03*
%TD*%
%TO.P,H7,1,1*%
%TO.N,GND*%
X125000000Y-55000000D03*
%TD*%
D10*
%TO.P,Z6,1*%
%TO.N,Net-(Z4-Pad2)*%
X121000000Y-64587500D03*
%TO.P,Z6,2*%
%TO.N,GND*%
X121000000Y-66412500D03*
%TD*%
%TO.P,Z9,1*%
%TO.N,Net-(J2-Pad1)*%
X113500000Y-62500000D03*
%TO.P,Z9,2*%
%TO.N,GND*%
X113500000Y-64325000D03*
%TD*%
D11*
%TO.P,H8,1,1*%
%TO.N,GND*%
X125000000Y-70000000D03*
%TD*%
D12*
%TO.P,J1,1,Pin_1*%
%TO.N,Net-(J1-Pad1)*%
X136000000Y-62500000D03*
D13*
%TO.P,J1,2,Pin_2*%
%TO.N,GND*%
X136000000Y-64100000D03*
D14*
X136500000Y-61000000D03*
X135000000Y-61500000D03*
X136000000Y-63500000D03*
X136500000Y-64000000D03*
X135500000Y-64000000D03*
X136000000Y-61500000D03*
X135000000Y-63500000D03*
X135500000Y-61000000D03*
X137000000Y-61500000D03*
X137000000Y-63500000D03*
D13*
X136000000Y-60900000D03*
%TD*%
D10*
%TO.P,Z10,1*%
%TO.N,Net-(J2-Pad1)*%
X111500000Y-62500000D03*
%TO.P,Z10,2*%
%TO.N,GND*%
X111500000Y-64325000D03*
%TD*%
D11*
%TO.P,H6,1,1*%
%TO.N,GND*%
X120000000Y-70000000D03*
%TD*%
D15*
%TO.P,Z7,1*%
%TO.N,Net-(Z4-Pad2)*%
X120825000Y-62500000D03*
%TO.P,Z7,2*%
%TO.N,Net-(Z7-Pad2)*%
X119000000Y-62500000D03*
%TD*%
D11*
%TO.P,H1,1,1*%
%TO.N,GND*%
X110000000Y-70000000D03*
%TD*%
D15*
%TO.P,Z8,1*%
%TO.N,Net-(Z7-Pad2)*%
X117325000Y-62500000D03*
%TO.P,Z8,2*%
%TO.N,Net-(J2-Pad1)*%
X115500000Y-62500000D03*
%TD*%
D10*
%TO.P,Z5,1*%
%TO.N,Net-(Z4-Pad2)*%
X124000000Y-64587500D03*
%TO.P,Z5,2*%
%TO.N,GND*%
X124000000Y-66412500D03*
%TD*%
%TO.P,Z2,1*%
%TO.N,Net-(J1-Pad1)*%
X131500000Y-62500000D03*
%TO.P,Z2,2*%
%TO.N,GND*%
X131500000Y-64325000D03*
%TD*%
D15*
%TO.P,Z4,1*%
%TO.N,Net-(Z3-Pad2)*%
X126000000Y-62500000D03*
%TO.P,Z4,2*%
%TO.N,Net-(Z4-Pad2)*%
X124175000Y-62500000D03*
%TD*%
D11*
%TO.P,H3,1,1*%
%TO.N,GND*%
X120000000Y-55000000D03*
%TD*%
D12*
%TO.P,J2,1,Pin_1*%
%TO.N,Net-(J2-Pad1)*%
X109000000Y-62500000D03*
D14*
%TO.P,J2,2,Pin_2*%
%TO.N,GND*%
X110000000Y-63500000D03*
X109000000Y-61500000D03*
X108500000Y-61000000D03*
X108000000Y-61500000D03*
X108500000Y-64000000D03*
D13*
X109000000Y-60900000D03*
D14*
X109000000Y-63500000D03*
X108000000Y-63500000D03*
X109500000Y-64000000D03*
X109500000Y-61000000D03*
X110000000Y-61500000D03*
D13*
X109000000Y-64100000D03*
%TD*%
D11*
%TO.P,H5,1,1*%
%TO.N,GND*%
X110000000Y-55000000D03*
%TD*%
D15*
%TO.P,Z3,1*%
%TO.N,Net-(J1-Pad1)*%
X129500000Y-62500000D03*
%TO.P,Z3,2*%
%TO.N,Net-(Z3-Pad2)*%
X127675000Y-62500000D03*
%TD*%
D16*
%TO.N,GND*%
X130000000Y-57500000D03*
X118500000Y-64000000D03*
X117500000Y-55000000D03*
X112500000Y-60000000D03*
X127500000Y-65000000D03*
X121500000Y-60000000D03*
X120500000Y-61000000D03*
X135000000Y-57500000D03*
X132500000Y-67500000D03*
X134500000Y-61000000D03*
X110500000Y-61000000D03*
X120500000Y-66000000D03*
X123500000Y-58000000D03*
X121500000Y-61000000D03*
X122500000Y-70000000D03*
X112500000Y-67500000D03*
X125500000Y-65000000D03*
X117500000Y-61000000D03*
X122500000Y-66000000D03*
X127500000Y-55000000D03*
X121500000Y-57000000D03*
X122500000Y-59000000D03*
X114500000Y-61000000D03*
X135000000Y-60000000D03*
X122500000Y-63000000D03*
X120000000Y-67500000D03*
X132500000Y-61000000D03*
X123500000Y-66000000D03*
X119500000Y-64000000D03*
X130000000Y-60000000D03*
X117500000Y-65000000D03*
X121500000Y-59000000D03*
X116500000Y-61000000D03*
X126500000Y-61000000D03*
X121500000Y-66000000D03*
X117500000Y-64000000D03*
X128500000Y-61000000D03*
X135000000Y-67500000D03*
X127500000Y-60000000D03*
X135000000Y-65000000D03*
X127500000Y-67500000D03*
X130000000Y-70000000D03*
X132500000Y-60000000D03*
X114500000Y-64000000D03*
X110500000Y-64000000D03*
X122500000Y-57000000D03*
X124500000Y-61000000D03*
X117500000Y-60000000D03*
X122500000Y-62000000D03*
X125500000Y-61000000D03*
X125000000Y-60000000D03*
X132500000Y-57500000D03*
X123500000Y-57000000D03*
X127500000Y-70000000D03*
X111500000Y-61000000D03*
X126500000Y-64000000D03*
X123500000Y-59000000D03*
X125000000Y-57500000D03*
X117500000Y-70000000D03*
X112500000Y-57500000D03*
X116500000Y-64000000D03*
X122500000Y-61000000D03*
X130000000Y-67500000D03*
X115500000Y-61000000D03*
X122500000Y-58000000D03*
X129500000Y-64000000D03*
X127500000Y-64000000D03*
X122500000Y-67000000D03*
X133500000Y-64000000D03*
X121500000Y-58000000D03*
X132500000Y-65000000D03*
X112500000Y-64000000D03*
X119500000Y-66000000D03*
X127500000Y-61000000D03*
X131500000Y-61000000D03*
X134500000Y-64000000D03*
X120000000Y-60000000D03*
X112500000Y-65000000D03*
X132500000Y-64000000D03*
X117500000Y-57500000D03*
X115000000Y-67500000D03*
X112500000Y-61000000D03*
X115500000Y-64000000D03*
X118500000Y-61000000D03*
X125000000Y-67500000D03*
X119500000Y-61000000D03*
X122500000Y-54000000D03*
X130500000Y-64000000D03*
X113500000Y-61000000D03*
X115000000Y-57500000D03*
X133500000Y-61000000D03*
X111500000Y-64000000D03*
X122500000Y-60000000D03*
X129500000Y-61000000D03*
X120000000Y-57500000D03*
X110000000Y-67500000D03*
X125500000Y-66000000D03*
X130000000Y-55000000D03*
X119500000Y-65000000D03*
X128500000Y-64000000D03*
X110000000Y-57500000D03*
X115000000Y-60000000D03*
X131500000Y-64000000D03*
X115000000Y-55000000D03*
X110000000Y-60000000D03*
X123500000Y-60000000D03*
X130500000Y-61000000D03*
X130000000Y-65000000D03*
X121500000Y-68000000D03*
X123500000Y-68000000D03*
X122500000Y-69000000D03*
X123500000Y-61000000D03*
X121500000Y-67000000D03*
X112500000Y-70000000D03*
X122500000Y-71000000D03*
X124500000Y-66000000D03*
X125500000Y-64000000D03*
X110000000Y-65000000D03*
X122500000Y-55000000D03*
X127500000Y-57500000D03*
X122500000Y-56000000D03*
X112500000Y-55000000D03*
X122500000Y-68000000D03*
X132500000Y-55000000D03*
X113500000Y-64000000D03*
X132500000Y-70000000D03*
X123500000Y-67000000D03*
X115000000Y-65000000D03*
%TD*%
D17*
%TO.N,Net-(J1-Pad1)*%
X131500000Y-62500000D02*
X133500000Y-62500000D01*
X129500000Y-62500000D02*
X131500000Y-62500000D01*
X133500000Y-62500000D02*
X136000000Y-62500000D01*
%TO.N,Net-(J2-Pad1)*%
X109000000Y-62500000D02*
X111500000Y-62500000D01*
X113500000Y-62500000D02*
X115500000Y-62500000D01*
X111500000Y-62500000D02*
X113500000Y-62500000D01*
%TO.N,Net-(Z3-Pad2)*%
X126000000Y-62500000D02*
X127675000Y-62500000D01*
%TO.N,Net-(Z4-Pad2)*%
X124175000Y-64412500D02*
X124000000Y-64587500D01*
X124175000Y-62500000D02*
X124175000Y-64412500D01*
X121000000Y-64587500D02*
X124000000Y-64587500D01*
X120825000Y-62500000D02*
X120825000Y-64412500D01*
X120825000Y-64412500D02*
X121000000Y-64587500D01*
%TO.N,Net-(Z7-Pad2)*%
X117325000Y-62500000D02*
X119000000Y-62500000D01*
%TD*%
%TA.AperFunction,Conductor*%
%TO.N,GND*%
G36*
X110459191Y-63119407D02*
G01*
X110495155Y-63168907D01*
X110500000Y-63199500D01*
X110500000Y-63500000D01*
X119901000Y-63500000D01*
X119959191Y-63518907D01*
X119995155Y-63568407D01*
X120000000Y-63599000D01*
X120000000Y-65500000D01*
X125000000Y-65500000D01*
X125000000Y-63599000D01*
X125018907Y-63540809D01*
X125068407Y-63504845D01*
X125099000Y-63500000D01*
X134500000Y-63500000D01*
X134500000Y-63199500D01*
X134518907Y-63141309D01*
X134568407Y-63105345D01*
X134599000Y-63100500D01*
X137200500Y-63100500D01*
X137258691Y-63119407D01*
X137294655Y-63168907D01*
X137299500Y-63199500D01*
X137299500Y-69965983D01*
X137296982Y-69988169D01*
X137294344Y-69999641D01*
X137296805Y-70010517D01*
X137296786Y-70021664D01*
X137296757Y-70021664D01*
X137297578Y-70031772D01*
X137292779Y-70111114D01*
X137283122Y-70270773D01*
X137283096Y-70271197D01*
X137281656Y-70283056D01*
X137233761Y-70544415D01*
X137230902Y-70556015D01*
X137188584Y-70691818D01*
X137151852Y-70809695D01*
X137147613Y-70820873D01*
X137129019Y-70862188D01*
X137044319Y-71050384D01*
X137038564Y-71063170D01*
X137033009Y-71073754D01*
X136917050Y-71265573D01*
X136895548Y-71301142D01*
X136888757Y-71310980D01*
X136724897Y-71520132D01*
X136716970Y-71529081D01*
X136529081Y-71716970D01*
X136520132Y-71724897D01*
X136310980Y-71888757D01*
X136301142Y-71895548D01*
X136076484Y-72031359D01*
X136073756Y-72033008D01*
X136063173Y-72038563D01*
X136036107Y-72050744D01*
X135820873Y-72147613D01*
X135809695Y-72151852D01*
X135556015Y-72230902D01*
X135544422Y-72233759D01*
X135283056Y-72281656D01*
X135271204Y-72283095D01*
X135032288Y-72297547D01*
X135022372Y-72296724D01*
X135022372Y-72296862D01*
X135011224Y-72296842D01*
X135000359Y-72294344D01*
X134988359Y-72297059D01*
X134966512Y-72299500D01*
X110034017Y-72299500D01*
X110011831Y-72296982D01*
X110011801Y-72296975D01*
X110000359Y-72294344D01*
X109989483Y-72296805D01*
X109978336Y-72296786D01*
X109978336Y-72296757D01*
X109968228Y-72297578D01*
X109838014Y-72289702D01*
X109728796Y-72283095D01*
X109716944Y-72281656D01*
X109455578Y-72233759D01*
X109443985Y-72230902D01*
X109190305Y-72151852D01*
X109179127Y-72147613D01*
X108963893Y-72050744D01*
X108936827Y-72038563D01*
X108926244Y-72033008D01*
X108923517Y-72031359D01*
X108698858Y-71895548D01*
X108689020Y-71888757D01*
X108479868Y-71724897D01*
X108470919Y-71716970D01*
X108283030Y-71529081D01*
X108275103Y-71520132D01*
X108111243Y-71310980D01*
X108104452Y-71301142D01*
X108082950Y-71265573D01*
X107966991Y-71073754D01*
X107961436Y-71063170D01*
X107955682Y-71050384D01*
X107870981Y-70862188D01*
X107852387Y-70820873D01*
X107848148Y-70809695D01*
X107811416Y-70691818D01*
X107769098Y-70556015D01*
X107766239Y-70544415D01*
X107718344Y-70283056D01*
X107716904Y-70271197D01*
X107716879Y-70270773D01*
X107707221Y-70111114D01*
X107702469Y-70032548D01*
X107704207Y-70011810D01*
X107703747Y-70011757D01*
X107704389Y-70006179D01*
X107705655Y-70000718D01*
X107705656Y-70000000D01*
X107703622Y-69991083D01*
X107702980Y-69988266D01*
X107700500Y-69966248D01*
X107700500Y-69521404D01*
X112915671Y-69521404D01*
X112916042Y-69526986D01*
X112916042Y-69526988D01*
X112916099Y-69527842D01*
X112916227Y-69538623D01*
X112915960Y-69544891D01*
X112916965Y-69550358D01*
X112916983Y-69550621D01*
X112918332Y-69561436D01*
X112920254Y-69590353D01*
X112920465Y-69593534D01*
X112920682Y-69600498D01*
X112920632Y-69612761D01*
X112921863Y-69618215D01*
X112922007Y-69619529D01*
X112922300Y-69621156D01*
X112922668Y-69626692D01*
X112924259Y-69632009D01*
X112924259Y-69632012D01*
X112926209Y-69638530D01*
X112927929Y-69645092D01*
X112930722Y-69657468D01*
X112933324Y-69668997D01*
X112934982Y-69678471D01*
X112935307Y-69681061D01*
X112935308Y-69681065D01*
X112936005Y-69686625D01*
X112937930Y-69691885D01*
X112938596Y-69694635D01*
X112939296Y-69697014D01*
X112940299Y-69699903D01*
X112941520Y-69705315D01*
X112943915Y-69710322D01*
X112945358Y-69714479D01*
X112945810Y-69716725D01*
X112948114Y-69721821D01*
X112950640Y-69727409D01*
X112953401Y-69734171D01*
X112957370Y-69745019D01*
X112958733Y-69747121D01*
X112961681Y-69754138D01*
X112970254Y-69778936D01*
X112988466Y-69797295D01*
X112997054Y-69807184D01*
X113012682Y-69827792D01*
X113017470Y-69830245D01*
X113046423Y-69874493D01*
X113050540Y-69888505D01*
X113051525Y-69892108D01*
X113054320Y-69903145D01*
X113054322Y-69903152D01*
X113055686Y-69908536D01*
X113057306Y-69911707D01*
X113057734Y-69912984D01*
X113063502Y-69932615D01*
X113063813Y-69933843D01*
X113064151Y-69937329D01*
X113069617Y-69953666D01*
X113070714Y-69957160D01*
X113075526Y-69973536D01*
X113077233Y-69976587D01*
X113077686Y-69977790D01*
X113082341Y-69991704D01*
X113082360Y-69991897D01*
X113082539Y-69992430D01*
X113082540Y-69992432D01*
X113083546Y-69995420D01*
X113089473Y-70013023D01*
X113096676Y-70034556D01*
X113096780Y-70034726D01*
X113096782Y-70034731D01*
X113121548Y-70108294D01*
X113123272Y-70113969D01*
X113149925Y-70212245D01*
X113154607Y-70229510D01*
X113156464Y-70237727D01*
X113173856Y-70333524D01*
X113175196Y-70344164D01*
X113181227Y-70428953D01*
X113181475Y-70435633D01*
X113181501Y-70443786D01*
X113181493Y-70445279D01*
X113181279Y-70462189D01*
X113181146Y-70472716D01*
X113181139Y-70473231D01*
X113172082Y-70513361D01*
X113165963Y-70526659D01*
X113155971Y-70548178D01*
X113155486Y-70549223D01*
X113154588Y-70550995D01*
X113152187Y-70554386D01*
X113146074Y-70569254D01*
X113144305Y-70573297D01*
X113139935Y-70582709D01*
X113139933Y-70582716D01*
X113137593Y-70587755D01*
X113136727Y-70591810D01*
X113136026Y-70593693D01*
X113118427Y-70636499D01*
X113116387Y-70640626D01*
X113114159Y-70645683D01*
X113111335Y-70650525D01*
X113108484Y-70659679D01*
X113105534Y-70667861D01*
X113101954Y-70676567D01*
X113101037Y-70682048D01*
X113099602Y-70687077D01*
X113098473Y-70691818D01*
X113086243Y-70731080D01*
X113082524Y-70741083D01*
X113079888Y-70747151D01*
X113078865Y-70752651D01*
X113078694Y-70753211D01*
X113076488Y-70762114D01*
X113076346Y-70762853D01*
X113074696Y-70768151D01*
X113074265Y-70773688D01*
X113074176Y-70774828D01*
X113072807Y-70785235D01*
X113064895Y-70827792D01*
X113062825Y-70836642D01*
X113060366Y-70845334D01*
X113060088Y-70850928D01*
X113059522Y-70854375D01*
X113059251Y-70858152D01*
X113058234Y-70863620D01*
X113058602Y-70872720D01*
X113058561Y-70881616D01*
X113056344Y-70926206D01*
X113055385Y-70935875D01*
X113054195Y-70943867D01*
X113054632Y-70949448D01*
X113054542Y-70952036D01*
X113054587Y-70955169D01*
X113054763Y-70957987D01*
X113054487Y-70963535D01*
X113055451Y-70969001D01*
X113055451Y-70969004D01*
X113055903Y-70971565D01*
X113057105Y-70981024D01*
X113060599Y-71025621D01*
X113060761Y-71035184D01*
X113060856Y-71036558D01*
X113060609Y-71042150D01*
X113061622Y-71047657D01*
X113061622Y-71047661D01*
X113061918Y-71049271D01*
X113063247Y-71059430D01*
X113063799Y-71066476D01*
X113065455Y-71071782D01*
X113065683Y-71072967D01*
X113068007Y-71082368D01*
X113075101Y-71120932D01*
X113076332Y-71127627D01*
X113076961Y-71131476D01*
X113077704Y-71136653D01*
X113077869Y-71142252D01*
X113079285Y-71147669D01*
X113080840Y-71153622D01*
X113082423Y-71160743D01*
X113084513Y-71172109D01*
X113086711Y-71177220D01*
X113088304Y-71182479D01*
X113089338Y-71186147D01*
X113103883Y-71241819D01*
X113104373Y-71243984D01*
X113104702Y-71248293D01*
X113109407Y-71263384D01*
X113110671Y-71267797D01*
X113114620Y-71282911D01*
X113116613Y-71286740D01*
X113117353Y-71288866D01*
X113140032Y-71361601D01*
X113140114Y-71361915D01*
X113140298Y-71363829D01*
X113141755Y-71368198D01*
X113141756Y-71368201D01*
X113146576Y-71382653D01*
X113147174Y-71384506D01*
X113149782Y-71392870D01*
X113149208Y-71393049D01*
X113149274Y-71393198D01*
X113149691Y-71394240D01*
X113149843Y-71394493D01*
X113149865Y-71394543D01*
X113149979Y-71394502D01*
X113149983Y-71394513D01*
X113151888Y-71399771D01*
X113151890Y-71399777D01*
X113152207Y-71400650D01*
X113152159Y-71400668D01*
X113152912Y-71402908D01*
X113153054Y-71403365D01*
X113152770Y-71403453D01*
X113152909Y-71404036D01*
X113153373Y-71403868D01*
X113156431Y-71412303D01*
X113157271Y-71414716D01*
X113163198Y-71432487D01*
X113164489Y-71434611D01*
X113164711Y-71435150D01*
X113187121Y-71496976D01*
X113188376Y-71500759D01*
X113189315Y-71505922D01*
X113191526Y-71511066D01*
X113191527Y-71511070D01*
X113194870Y-71518849D01*
X113196987Y-71524199D01*
X113199822Y-71532021D01*
X113199827Y-71532030D01*
X113201719Y-71537251D01*
X113204556Y-71541658D01*
X113206247Y-71545316D01*
X113224746Y-71588356D01*
X113225487Y-71590081D01*
X113226879Y-71594091D01*
X113226956Y-71594061D01*
X113229009Y-71599270D01*
X113230461Y-71604679D01*
X113233087Y-71609621D01*
X113233088Y-71609624D01*
X113235352Y-71613884D01*
X113238883Y-71621248D01*
X113242930Y-71630665D01*
X113246204Y-71635153D01*
X113248960Y-71639988D01*
X113248897Y-71640024D01*
X113251152Y-71643625D01*
X113269334Y-71677848D01*
X113273623Y-71687231D01*
X113273987Y-71687927D01*
X113276007Y-71693147D01*
X113279146Y-71697782D01*
X113279149Y-71697789D01*
X113279803Y-71698755D01*
X113285249Y-71707803D01*
X113288345Y-71713630D01*
X113291981Y-71717838D01*
X113292336Y-71718356D01*
X113298682Y-71726635D01*
X113301288Y-71730484D01*
X113318987Y-71756626D01*
X113324295Y-71765416D01*
X113325060Y-71766846D01*
X113325064Y-71766852D01*
X113327705Y-71771787D01*
X113331386Y-71776007D01*
X113332146Y-71777107D01*
X113336302Y-71782504D01*
X113337301Y-71783673D01*
X113340418Y-71788276D01*
X113345758Y-71793264D01*
X113352771Y-71800520D01*
X113366907Y-71816723D01*
X113372020Y-71822584D01*
X113392534Y-71862930D01*
X113392527Y-71870624D01*
X113397354Y-71880677D01*
X113398141Y-71884141D01*
X113399406Y-71887450D01*
X113400971Y-71898489D01*
X113414582Y-71918846D01*
X113421524Y-71931011D01*
X113427298Y-71943036D01*
X113427299Y-71943038D01*
X113432124Y-71953085D01*
X113440829Y-71960046D01*
X113443038Y-71962824D01*
X113445621Y-71965265D01*
X113451817Y-71974531D01*
X113461419Y-71980194D01*
X113461420Y-71980195D01*
X113472905Y-71986969D01*
X113484442Y-71994925D01*
X113494521Y-72002985D01*
X113503564Y-72010217D01*
X113514429Y-72012716D01*
X113517616Y-72014256D01*
X113521004Y-72015336D01*
X113530609Y-72021001D01*
X113545425Y-72022253D01*
X113554994Y-72023062D01*
X113559260Y-72023729D01*
X113559266Y-72023674D01*
X113564836Y-72024306D01*
X113570291Y-72025561D01*
X113580379Y-72025561D01*
X113588718Y-72025913D01*
X113604654Y-72027260D01*
X113621760Y-72028706D01*
X113629280Y-72025839D01*
X113633249Y-72025561D01*
X113673495Y-72025561D01*
X113673552Y-72025574D01*
X113673728Y-72025574D01*
X113683299Y-72025568D01*
X113686672Y-72025566D01*
X113686752Y-72025570D01*
X113687570Y-72025751D01*
X113689835Y-72025731D01*
X113689842Y-72025731D01*
X113708256Y-72025565D01*
X113709146Y-72025561D01*
X113718822Y-72025561D01*
X113718878Y-72025548D01*
X113718922Y-72025548D01*
X113731264Y-72025541D01*
X113732077Y-72025355D01*
X113732159Y-72025350D01*
X113733080Y-72025342D01*
X113735559Y-72025399D01*
X113740009Y-72026154D01*
X113745593Y-72025830D01*
X113745595Y-72025830D01*
X113750554Y-72025542D01*
X113755436Y-72025259D01*
X113760270Y-72025097D01*
X113765527Y-72025050D01*
X113769989Y-72025010D01*
X113769990Y-72025010D01*
X113775541Y-72024960D01*
X113779895Y-72023926D01*
X113782552Y-72023689D01*
X113783827Y-72023617D01*
X113787217Y-72023484D01*
X113792555Y-72023366D01*
X113802489Y-72025052D01*
X113841946Y-72013686D01*
X113845036Y-72012850D01*
X113856698Y-72009896D01*
X113856702Y-72009895D01*
X113862084Y-72008531D01*
X113864812Y-72007137D01*
X113865677Y-72006850D01*
X113879677Y-72002817D01*
X113879681Y-72002815D01*
X113890390Y-71999730D01*
X113898703Y-71992305D01*
X113903438Y-71989689D01*
X113908822Y-71986000D01*
X113912970Y-71982530D01*
X113922897Y-71977457D01*
X113931699Y-71965875D01*
X113936147Y-71960633D01*
X113944658Y-71954948D01*
X113957922Y-71932480D01*
X113964346Y-71922918D01*
X113971500Y-71913505D01*
X113971501Y-71913504D01*
X113978246Y-71904628D01*
X113980161Y-71895245D01*
X113982072Y-71891570D01*
X113991160Y-71876174D01*
X113992103Y-71865069D01*
X113993186Y-71861678D01*
X113993779Y-71858161D01*
X113998033Y-71847856D01*
X113997111Y-71831716D01*
X113996792Y-71826143D01*
X113996795Y-71824780D01*
X113999161Y-71816723D01*
X113995557Y-71794803D01*
X113994406Y-71784389D01*
X113993450Y-71767660D01*
X113992814Y-71756531D01*
X113987414Y-71746778D01*
X113987112Y-71745732D01*
X113983922Y-71739083D01*
X113981932Y-71734229D01*
X113980827Y-71731534D01*
X113979988Y-71729416D01*
X113978925Y-71726637D01*
X113964797Y-71689727D01*
X113956690Y-71682072D01*
X113952209Y-71675378D01*
X113949571Y-71672297D01*
X113942597Y-71662142D01*
X113938426Y-71655524D01*
X113932971Y-71646051D01*
X113929159Y-71641947D01*
X113927834Y-71640150D01*
X113926179Y-71638239D01*
X113923035Y-71633663D01*
X113918953Y-71629901D01*
X113918951Y-71629898D01*
X113914942Y-71626203D01*
X113909508Y-71620790D01*
X113899729Y-71610262D01*
X113893638Y-71603041D01*
X113888494Y-71596315D01*
X113887709Y-71595665D01*
X113864073Y-71553107D01*
X113862821Y-71548163D01*
X113861959Y-71544459D01*
X113850449Y-71490353D01*
X113849993Y-71488079D01*
X113836104Y-71414342D01*
X113835844Y-71412906D01*
X113819647Y-71319356D01*
X113819492Y-71318435D01*
X113801776Y-71210037D01*
X113800744Y-71201284D01*
X113797679Y-71159199D01*
X113797447Y-71149614D01*
X113798618Y-71101504D01*
X113799190Y-71093024D01*
X113804111Y-71048557D01*
X113805867Y-71037973D01*
X113808340Y-71026847D01*
X113830554Y-70983050D01*
X113844828Y-70966776D01*
X113848068Y-70963083D01*
X113850296Y-70960627D01*
X113858360Y-70952036D01*
X113866647Y-70943206D01*
X113876372Y-70932845D01*
X113876630Y-70932595D01*
X113878238Y-70931468D01*
X113891475Y-70916783D01*
X113892824Y-70915316D01*
X113899924Y-70907751D01*
X113906224Y-70901039D01*
X113907214Y-70899347D01*
X113907443Y-70899068D01*
X113924520Y-70880122D01*
X113941342Y-70861460D01*
X113944434Y-70858487D01*
X113944383Y-70858438D01*
X113948248Y-70854399D01*
X113952557Y-70850810D01*
X113958800Y-70842604D01*
X113964055Y-70836262D01*
X113964212Y-70836088D01*
X113970837Y-70828738D01*
X113973546Y-70823887D01*
X113976782Y-70819369D01*
X113976830Y-70819403D01*
X113979182Y-70815812D01*
X114007389Y-70778733D01*
X114014131Y-70770778D01*
X114015074Y-70769777D01*
X114015077Y-70769774D01*
X114018918Y-70765697D01*
X114021751Y-70760860D01*
X114022366Y-70760038D01*
X114026692Y-70753579D01*
X114027304Y-70752554D01*
X114030670Y-70748129D01*
X114033598Y-70741677D01*
X114038312Y-70732576D01*
X114061624Y-70692767D01*
X114066174Y-70685702D01*
X114068758Y-70682042D01*
X114068761Y-70682037D01*
X114071987Y-70677467D01*
X114074109Y-70672285D01*
X114075450Y-70669840D01*
X114076706Y-70667010D01*
X114079519Y-70662206D01*
X114082570Y-70652531D01*
X114085370Y-70644789D01*
X114102373Y-70603272D01*
X114106348Y-70594748D01*
X114110317Y-70587194D01*
X114111746Y-70581775D01*
X114112968Y-70578632D01*
X114113272Y-70577724D01*
X114114257Y-70574255D01*
X114116362Y-70569114D01*
X114117773Y-70560611D01*
X114119708Y-70551582D01*
X114130188Y-70511836D01*
X114131067Y-70508867D01*
X114133095Y-70504453D01*
X114136106Y-70489944D01*
X114137310Y-70484831D01*
X114139627Y-70476045D01*
X114139628Y-70476040D01*
X114141043Y-70470673D01*
X114141163Y-70467090D01*
X114141508Y-70465238D01*
X114142198Y-70462189D01*
X114165842Y-70417074D01*
X114170459Y-70412047D01*
X114223747Y-70381979D01*
X114284531Y-70388975D01*
X114291763Y-70392646D01*
X114322264Y-70409735D01*
X114327795Y-70413076D01*
X114332881Y-70416379D01*
X114338715Y-70420168D01*
X114343978Y-70422090D01*
X114344816Y-70422508D01*
X114345204Y-70422661D01*
X114345738Y-70422886D01*
X114350589Y-70425603D01*
X114355922Y-70427173D01*
X114355923Y-70427174D01*
X114363172Y-70429309D01*
X114369149Y-70431278D01*
X114448723Y-70460326D01*
X114456488Y-70463730D01*
X114458604Y-70464535D01*
X114463577Y-70467101D01*
X114469003Y-70468489D01*
X114469006Y-70468490D01*
X114471184Y-70469047D01*
X114480594Y-70471960D01*
X114482594Y-70472690D01*
X114482599Y-70472691D01*
X114487814Y-70474595D01*
X114493324Y-70475292D01*
X114495325Y-70475777D01*
X114503799Y-70477390D01*
X114535065Y-70485387D01*
X114538862Y-70486440D01*
X114543597Y-70487855D01*
X114548748Y-70490053D01*
X114554259Y-70491040D01*
X114554264Y-70491042D01*
X114560396Y-70492141D01*
X114567461Y-70493675D01*
X114573361Y-70495184D01*
X114573364Y-70495184D01*
X114578742Y-70496560D01*
X114584290Y-70496705D01*
X114589481Y-70497428D01*
X114593289Y-70498034D01*
X114635956Y-70505678D01*
X114639801Y-70506668D01*
X114639838Y-70506498D01*
X114645314Y-70507685D01*
X114650616Y-70509480D01*
X114661221Y-70510549D01*
X114661829Y-70510610D01*
X114669353Y-70511662D01*
X114680273Y-70513618D01*
X114685822Y-70513357D01*
X114691373Y-70513719D01*
X114691363Y-70513878D01*
X114695329Y-70513986D01*
X114746300Y-70519122D01*
X114751046Y-70519716D01*
X114751830Y-70519833D01*
X114757238Y-70521282D01*
X114768541Y-70521686D01*
X114770322Y-70521750D01*
X114776679Y-70522183D01*
X114789552Y-70523480D01*
X114795058Y-70522795D01*
X114796098Y-70522783D01*
X114800784Y-70522839D01*
X114852536Y-70524688D01*
X114865231Y-70525141D01*
X114867646Y-70525306D01*
X114872005Y-70526251D01*
X114878793Y-70526166D01*
X114879431Y-70526364D01*
X114883180Y-70526742D01*
X114883103Y-70527506D01*
X114937216Y-70544334D01*
X114973804Y-70593375D01*
X114978915Y-70620097D01*
X114979440Y-70630356D01*
X114979566Y-70634613D01*
X114979615Y-70640626D01*
X114979697Y-70650774D01*
X114980621Y-70654677D01*
X114980776Y-70656484D01*
X114983354Y-70706897D01*
X114983987Y-70719280D01*
X114983991Y-70719834D01*
X114983630Y-70722225D01*
X114984047Y-70727696D01*
X114984047Y-70727697D01*
X114985078Y-70741227D01*
X114985235Y-70743691D01*
X114986198Y-70762512D01*
X114986853Y-70764832D01*
X114986920Y-70765389D01*
X114988258Y-70782934D01*
X114988263Y-70783137D01*
X114988071Y-70784550D01*
X114989940Y-70805116D01*
X114990052Y-70806459D01*
X114991608Y-70826872D01*
X114992031Y-70828238D01*
X114992059Y-70828433D01*
X114994416Y-70854375D01*
X114994775Y-70858331D01*
X114994819Y-70859211D01*
X114994508Y-70862188D01*
X114996710Y-70880163D01*
X114997034Y-70883191D01*
X114998658Y-70901065D01*
X114999584Y-70903906D01*
X114999729Y-70904793D01*
X115002137Y-70924442D01*
X115002344Y-70926754D01*
X115002095Y-70931140D01*
X115003040Y-70936660D01*
X115004737Y-70946576D01*
X115005421Y-70951238D01*
X115007303Y-70966598D01*
X115008794Y-70970729D01*
X115009265Y-70973034D01*
X115010634Y-70981030D01*
X115011544Y-70986349D01*
X115012030Y-70989782D01*
X115012024Y-70994810D01*
X115013273Y-71000270D01*
X115013273Y-71000272D01*
X115015255Y-71008938D01*
X115016326Y-71014302D01*
X115017804Y-71022933D01*
X115018742Y-71028412D01*
X115020667Y-71033045D01*
X115021546Y-71036441D01*
X115024301Y-71048486D01*
X115024756Y-71050821D01*
X115024963Y-71055244D01*
X115026471Y-71060633D01*
X115029162Y-71070252D01*
X115030331Y-71074853D01*
X115032531Y-71084471D01*
X115032533Y-71084478D01*
X115033772Y-71089893D01*
X115035693Y-71093880D01*
X115036418Y-71096182D01*
X115040804Y-71111857D01*
X115040997Y-71112675D01*
X115041222Y-71115583D01*
X115042895Y-71120929D01*
X115042896Y-71120932D01*
X115046668Y-71132983D01*
X115047512Y-71135830D01*
X115052380Y-71153227D01*
X115053773Y-71155795D01*
X115054052Y-71156572D01*
X115066520Y-71196406D01*
X115067286Y-71198854D01*
X115067549Y-71199708D01*
X115080201Y-71241453D01*
X115081014Y-71244294D01*
X115096118Y-71300364D01*
X115096848Y-71303251D01*
X115109236Y-71355627D01*
X115110094Y-71359621D01*
X115110523Y-71361841D01*
X115118341Y-71402280D01*
X115118749Y-71404527D01*
X115128390Y-71461403D01*
X115128516Y-71462382D01*
X115128437Y-71465520D01*
X115129554Y-71471006D01*
X115132002Y-71483033D01*
X115132599Y-71486235D01*
X115135549Y-71503636D01*
X115136748Y-71506534D01*
X115136984Y-71507498D01*
X115143394Y-71538981D01*
X115143946Y-71542171D01*
X115144089Y-71547093D01*
X115147796Y-71561317D01*
X115148999Y-71566506D01*
X115151894Y-71580724D01*
X115153923Y-71585206D01*
X115154839Y-71588342D01*
X115158668Y-71603034D01*
X115159251Y-71605269D01*
X115159740Y-71609087D01*
X115160145Y-71608998D01*
X115161347Y-71614468D01*
X115161924Y-71620040D01*
X115165695Y-71631074D01*
X115167803Y-71638086D01*
X115170699Y-71649199D01*
X115173260Y-71654127D01*
X115175255Y-71659317D01*
X115175062Y-71659391D01*
X115176577Y-71662922D01*
X115178511Y-71668581D01*
X115179394Y-71671165D01*
X115180490Y-71675318D01*
X115180554Y-71675298D01*
X115182206Y-71680646D01*
X115183246Y-71686150D01*
X115185492Y-71691279D01*
X115187369Y-71695566D01*
X115190363Y-71703262D01*
X115193232Y-71711659D01*
X115193232Y-71711660D01*
X115193632Y-71712830D01*
X115193392Y-71712912D01*
X115200801Y-71770794D01*
X115197384Y-71781171D01*
X115195414Y-71789771D01*
X115190570Y-71799815D01*
X115190560Y-71810965D01*
X115190560Y-71810966D01*
X115190548Y-71824760D01*
X115190531Y-71825123D01*
X115190132Y-71827041D01*
X115190222Y-71831715D01*
X115190222Y-71831716D01*
X115190509Y-71846619D01*
X115190527Y-71848611D01*
X115190490Y-71891291D01*
X115191407Y-71893201D01*
X115191448Y-71895321D01*
X115210765Y-71933554D01*
X115211560Y-71935169D01*
X115230087Y-71973752D01*
X115231743Y-71975076D01*
X115232698Y-71976967D01*
X115240699Y-71983105D01*
X115240700Y-71983107D01*
X115266608Y-72002985D01*
X115268176Y-72004213D01*
X115293033Y-72024091D01*
X115301527Y-72030884D01*
X115303593Y-72031359D01*
X115305274Y-72032649D01*
X115315136Y-72034708D01*
X115315137Y-72034709D01*
X115347053Y-72041374D01*
X115348999Y-72041801D01*
X115363681Y-72045177D01*
X115363690Y-72045178D01*
X115368254Y-72046228D01*
X115370219Y-72046228D01*
X115370555Y-72046282D01*
X115394818Y-72051349D01*
X115405639Y-72048670D01*
X115407889Y-72048629D01*
X115427575Y-72046228D01*
X115647350Y-72046228D01*
X115655081Y-72047483D01*
X115655156Y-72046537D01*
X115666272Y-72047416D01*
X115676911Y-72050744D01*
X115687941Y-72049129D01*
X115700625Y-72047272D01*
X115704658Y-72046978D01*
X115704644Y-72046850D01*
X115710166Y-72046228D01*
X115715724Y-72046228D01*
X115726198Y-72043838D01*
X115733866Y-72042405D01*
X115767422Y-72037492D01*
X115774258Y-72032876D01*
X115782306Y-72031040D01*
X115791026Y-72024092D01*
X115791027Y-72024091D01*
X115808840Y-72009896D01*
X115815133Y-72005275D01*
X115833994Y-71992539D01*
X115833995Y-71992538D01*
X115843233Y-71986300D01*
X115847391Y-71979176D01*
X115853845Y-71974033D01*
X115858687Y-71963995D01*
X115858689Y-71963992D01*
X115868581Y-71943483D01*
X115872248Y-71936589D01*
X115883724Y-71916927D01*
X115883725Y-71916924D01*
X115889344Y-71907297D01*
X115890001Y-71899073D01*
X115893586Y-71891641D01*
X115893596Y-71880490D01*
X115893616Y-71857720D01*
X115893931Y-71849920D01*
X115895745Y-71827227D01*
X115895745Y-71827225D01*
X115896633Y-71816113D01*
X115893659Y-71808417D01*
X115893666Y-71800165D01*
X115887957Y-71788276D01*
X115878982Y-71769584D01*
X115875883Y-71762419D01*
X115873973Y-71757476D01*
X115873970Y-71757470D01*
X115871952Y-71752248D01*
X115868815Y-71747610D01*
X115866220Y-71742647D01*
X115866344Y-71742582D01*
X115864332Y-71739076D01*
X115863234Y-71736790D01*
X115854069Y-71717704D01*
X115845363Y-71710741D01*
X115838423Y-71702017D01*
X115839066Y-71701506D01*
X115833693Y-71695695D01*
X115821402Y-71677527D01*
X115818139Y-71672367D01*
X115817467Y-71671228D01*
X115804592Y-71633936D01*
X115804210Y-71631052D01*
X115803353Y-71624589D01*
X115803154Y-71622980D01*
X115802901Y-71620780D01*
X115801553Y-71609087D01*
X115800857Y-71603049D01*
X115801046Y-71603027D01*
X115800823Y-71601309D01*
X115800536Y-71601351D01*
X115797523Y-71580577D01*
X115797357Y-71579381D01*
X115796526Y-71573114D01*
X115794630Y-71558817D01*
X115794212Y-71557691D01*
X115794187Y-71557566D01*
X115792684Y-71547207D01*
X115792677Y-71547126D01*
X115792735Y-71546336D01*
X115792410Y-71544213D01*
X115792408Y-71544193D01*
X115789449Y-71524880D01*
X115789332Y-71524097D01*
X115788955Y-71521493D01*
X115786813Y-71506726D01*
X115786587Y-71505165D01*
X115786585Y-71505157D01*
X115786277Y-71503031D01*
X115785992Y-71502292D01*
X115785979Y-71502230D01*
X115783393Y-71485346D01*
X115783388Y-71485296D01*
X115783437Y-71484563D01*
X115781258Y-71471006D01*
X115780012Y-71463255D01*
X115779898Y-71462533D01*
X115776934Y-71443182D01*
X115776934Y-71443181D01*
X115776629Y-71441191D01*
X115776359Y-71440508D01*
X115776345Y-71440441D01*
X115770303Y-71402854D01*
X115770301Y-71402841D01*
X115765187Y-71371000D01*
X115764844Y-71368692D01*
X115763061Y-71355627D01*
X115756219Y-71305513D01*
X115755588Y-71299549D01*
X115754652Y-71287111D01*
X115752569Y-71259411D01*
X115752309Y-71250060D01*
X115752344Y-71248293D01*
X115752811Y-71224337D01*
X115753634Y-71213384D01*
X115756869Y-71188740D01*
X115758545Y-71179439D01*
X115767038Y-71142504D01*
X115768546Y-71136744D01*
X115785993Y-71077450D01*
X115786327Y-71076339D01*
X115800041Y-71031672D01*
X115800158Y-71031346D01*
X115801090Y-71029657D01*
X115806533Y-71010597D01*
X115807089Y-71008721D01*
X115811497Y-70994364D01*
X115811498Y-70994358D01*
X115812853Y-70989946D01*
X115812995Y-70988020D01*
X115813073Y-70987694D01*
X115823202Y-70952216D01*
X115823488Y-70951348D01*
X115824874Y-70948636D01*
X115829268Y-70931154D01*
X115830082Y-70928121D01*
X115834975Y-70910986D01*
X115835139Y-70907942D01*
X115835327Y-70907041D01*
X115835892Y-70904793D01*
X115843098Y-70876123D01*
X115843435Y-70874973D01*
X115844886Y-70871858D01*
X115848499Y-70854902D01*
X115849311Y-70851406D01*
X115852145Y-70840131D01*
X115852146Y-70840120D01*
X115853499Y-70834739D01*
X115853574Y-70831313D01*
X115853785Y-70830101D01*
X115860566Y-70798280D01*
X115860789Y-70797410D01*
X115861970Y-70794651D01*
X115862964Y-70789140D01*
X115862966Y-70789135D01*
X115865184Y-70776846D01*
X115865784Y-70773794D01*
X115868351Y-70761746D01*
X115869510Y-70756308D01*
X115869467Y-70753307D01*
X115869591Y-70752413D01*
X115870364Y-70748129D01*
X115876531Y-70713960D01*
X115876614Y-70713597D01*
X115877383Y-70711690D01*
X115880459Y-70692316D01*
X115880806Y-70690267D01*
X115881012Y-70689129D01*
X115884262Y-70671115D01*
X115884168Y-70669066D01*
X115884213Y-70668667D01*
X115892168Y-70618563D01*
X115892212Y-70618453D01*
X115893586Y-70609738D01*
X115895813Y-70595603D01*
X115895830Y-70595494D01*
X115896167Y-70593375D01*
X115899266Y-70573853D01*
X115899258Y-70573738D01*
X115903286Y-70548178D01*
X115903627Y-70546153D01*
X115911088Y-70504453D01*
X115911761Y-70500693D01*
X115939540Y-70448188D01*
X115941944Y-70446313D01*
X115945023Y-70442537D01*
X115950731Y-70437453D01*
X115950756Y-70437432D01*
X115955470Y-70434426D01*
X115959390Y-70430439D01*
X115959393Y-70430437D01*
X115964205Y-70425543D01*
X115969155Y-70420844D01*
X115973362Y-70417117D01*
X115978353Y-70412696D01*
X115981456Y-70408363D01*
X115990807Y-70399462D01*
X115991693Y-70398555D01*
X115996034Y-70395013D01*
X115999474Y-70390585D01*
X115999689Y-70390365D01*
X116006308Y-70382799D01*
X116006586Y-70382444D01*
X116010484Y-70378480D01*
X116013404Y-70373747D01*
X116013876Y-70372982D01*
X116019955Y-70364221D01*
X116026543Y-70355741D01*
X116033271Y-70347953D01*
X116034372Y-70346805D01*
X116038247Y-70342765D01*
X116041117Y-70337961D01*
X116041896Y-70336940D01*
X116045836Y-70331174D01*
X116046599Y-70329924D01*
X116050013Y-70325530D01*
X116053084Y-70318942D01*
X116057828Y-70309991D01*
X116063856Y-70299902D01*
X116066156Y-70296631D01*
X116066019Y-70296543D01*
X116069057Y-70291846D01*
X116072611Y-70287514D01*
X116077585Y-70277502D01*
X116081259Y-70270773D01*
X116084050Y-70266101D01*
X116086899Y-70261333D01*
X116088617Y-70256049D01*
X116090914Y-70250993D01*
X116091050Y-70251055D01*
X116092560Y-70247362D01*
X116109562Y-70213138D01*
X116110471Y-70211353D01*
X116164398Y-70108098D01*
X116169565Y-70099335D01*
X116235131Y-70000152D01*
X116241901Y-69991083D01*
X116325934Y-69891009D01*
X116328127Y-69888486D01*
X116359935Y-69853104D01*
X116363198Y-69849644D01*
X116363824Y-69849011D01*
X116368188Y-69845501D01*
X116376282Y-69835228D01*
X116380410Y-69830326D01*
X116385301Y-69824886D01*
X116385302Y-69824884D01*
X116389016Y-69820753D01*
X116391720Y-69815895D01*
X116392356Y-69815005D01*
X116395152Y-69811278D01*
X116422020Y-69777178D01*
X116428185Y-69770276D01*
X116429202Y-69769012D01*
X116433186Y-69765072D01*
X116436182Y-69760344D01*
X116436185Y-69760340D01*
X116437152Y-69758813D01*
X116443020Y-69750525D01*
X116444057Y-69749209D01*
X116447498Y-69744842D01*
X116449884Y-69739815D01*
X116450640Y-69738595D01*
X116455171Y-69730378D01*
X116476630Y-69696514D01*
X116483084Y-69687491D01*
X116483315Y-69687203D01*
X116486823Y-69682839D01*
X116489262Y-69677804D01*
X116489264Y-69677800D01*
X116489317Y-69677690D01*
X116494773Y-69667886D01*
X116494781Y-69667870D01*
X116497757Y-69663173D01*
X116499779Y-69657468D01*
X116503990Y-69647392D01*
X116521015Y-69612237D01*
X116524518Y-69606067D01*
X116526055Y-69603034D01*
X116529134Y-69598354D01*
X116532111Y-69590345D01*
X116535800Y-69581707D01*
X116537021Y-69579185D01*
X116537022Y-69579182D01*
X116539446Y-69574177D01*
X116540695Y-69568764D01*
X116541749Y-69565774D01*
X116543841Y-69558797D01*
X116558050Y-69520578D01*
X116559654Y-69517081D01*
X116559463Y-69517002D01*
X116561613Y-69511836D01*
X116564338Y-69506936D01*
X116565896Y-69501547D01*
X116567566Y-69495772D01*
X116569877Y-69488767D01*
X116571923Y-69483263D01*
X116573861Y-69478051D01*
X116574591Y-69472542D01*
X116575933Y-69467148D01*
X116576129Y-69467197D01*
X116576915Y-69463434D01*
X116595362Y-69399629D01*
X116596525Y-69395885D01*
X116598128Y-69391063D01*
X116600484Y-69385981D01*
X116602918Y-69374452D01*
X116604678Y-69367404D01*
X116604764Y-69367109D01*
X116607903Y-69356250D01*
X116608221Y-69350697D01*
X116609126Y-69345401D01*
X116609846Y-69341633D01*
X116615579Y-69314476D01*
X116626011Y-69265061D01*
X116627153Y-69260247D01*
X116627167Y-69260195D01*
X116629199Y-69254973D01*
X116631132Y-69241748D01*
X116632222Y-69235639D01*
X116634946Y-69222733D01*
X116634856Y-69217172D01*
X116634879Y-69216935D01*
X116635465Y-69212100D01*
X116638334Y-69192474D01*
X116648991Y-69119554D01*
X116649463Y-69116907D01*
X116650919Y-69112526D01*
X116652366Y-69097321D01*
X116652962Y-69092386D01*
X116654336Y-69082982D01*
X116654336Y-69082980D01*
X116655140Y-69077480D01*
X116654776Y-69072885D01*
X116654948Y-69070197D01*
X116665262Y-68961831D01*
X116665283Y-68961688D01*
X116665659Y-68960507D01*
X116667271Y-68940966D01*
X116667374Y-68939722D01*
X116667484Y-68938484D01*
X116669145Y-68921026D01*
X116669451Y-68917814D01*
X116669290Y-68916579D01*
X116669295Y-68916436D01*
X116669782Y-68910539D01*
X116669930Y-68908919D01*
X116675896Y-68849723D01*
X116676937Y-68839397D01*
X116677122Y-68837709D01*
X116686359Y-68759528D01*
X116686543Y-68758062D01*
X116697010Y-68679547D01*
X116697255Y-68677828D01*
X116706993Y-68613424D01*
X116707948Y-68607111D01*
X116708140Y-68605894D01*
X116713841Y-68571333D01*
X116713995Y-68570427D01*
X116723468Y-68516154D01*
X116723970Y-68513496D01*
X116730932Y-68479173D01*
X116732086Y-68474155D01*
X116736801Y-68455853D01*
X116738914Y-68448760D01*
X116742517Y-68438134D01*
X116745158Y-68431212D01*
X116751305Y-68416751D01*
X116753279Y-68412402D01*
X116757401Y-68403875D01*
X116757410Y-68403860D01*
X116757447Y-68403813D01*
X116767391Y-68383212D01*
X116767422Y-68383149D01*
X116770056Y-68377702D01*
X116770516Y-68376838D01*
X116772475Y-68374214D01*
X116774730Y-68369100D01*
X116774733Y-68369094D01*
X116779586Y-68358085D01*
X116781011Y-68354999D01*
X116784452Y-68347868D01*
X116826769Y-68303676D01*
X116872179Y-68292220D01*
X116874872Y-68292522D01*
X116880434Y-68291883D01*
X116880442Y-68291883D01*
X116889214Y-68290875D01*
X116894702Y-68290399D01*
X116903387Y-68289889D01*
X116903400Y-68289887D01*
X116908946Y-68289561D01*
X116912751Y-68288455D01*
X116923480Y-68287347D01*
X116933189Y-68287007D01*
X116935421Y-68286411D01*
X116941503Y-68287201D01*
X116976738Y-68275549D01*
X116982240Y-68273907D01*
X116995551Y-68270352D01*
X116999890Y-68268064D01*
X117008556Y-68266794D01*
X117026375Y-68254758D01*
X117035599Y-68249234D01*
X117046099Y-68243697D01*
X117055959Y-68238498D01*
X117061462Y-68231060D01*
X117065295Y-68228471D01*
X117075614Y-68217411D01*
X117079109Y-68213850D01*
X117082369Y-68210692D01*
X117088769Y-68205007D01*
X117103087Y-68193357D01*
X117106535Y-68190676D01*
X117108487Y-68189226D01*
X117113286Y-68186435D01*
X117122344Y-68177981D01*
X117127396Y-68173577D01*
X117131723Y-68170056D01*
X117137137Y-68165651D01*
X117140579Y-68161232D01*
X117142117Y-68159661D01*
X117145310Y-68156543D01*
X117155059Y-68147443D01*
X117163209Y-68139836D01*
X117165384Y-68134252D01*
X117165850Y-68133598D01*
X117174177Y-68126186D01*
X117189332Y-68089834D01*
X117191016Y-68086024D01*
X117207709Y-68050331D01*
X117207543Y-68035285D01*
X117208940Y-68017586D01*
X117209405Y-68014851D01*
X117210008Y-68012980D01*
X117210040Y-68012604D01*
X117210983Y-68009344D01*
X117211303Y-68003583D01*
X117212562Y-67992416D01*
X117212568Y-67992382D01*
X117212568Y-67992379D01*
X117213502Y-67986906D01*
X117213195Y-67981358D01*
X117213510Y-67975810D01*
X117213530Y-67975811D01*
X117213603Y-67971026D01*
X117214891Y-67955983D01*
X117215312Y-67952010D01*
X117216901Y-67939443D01*
X117216941Y-67939215D01*
X117217459Y-67937730D01*
X117218097Y-67931938D01*
X117218747Y-67928403D01*
X117222301Y-67921536D01*
X117223282Y-67887827D01*
X117223836Y-67879863D01*
X117224371Y-67875011D01*
X117224371Y-67875004D01*
X117224980Y-67869479D01*
X117224345Y-67863956D01*
X117224338Y-67861172D01*
X117224130Y-67858697D01*
X117224293Y-67853097D01*
X117222445Y-67843834D01*
X117220537Y-67823524D01*
X117220571Y-67819937D01*
X117220571Y-67819936D01*
X117220677Y-67808785D01*
X117202007Y-67769027D01*
X117195739Y-67755037D01*
X117195738Y-67755029D01*
X117195732Y-67755021D01*
X117184027Y-67728893D01*
X117174331Y-67720709D01*
X117162682Y-67708183D01*
X117162551Y-67708303D01*
X117158772Y-67704177D01*
X117155479Y-67699647D01*
X117152674Y-67697205D01*
X117150484Y-67694413D01*
X117136872Y-67683372D01*
X117134243Y-67681162D01*
X117127248Y-67675074D01*
X117125294Y-67673262D01*
X117122403Y-67669678D01*
X117118004Y-67666221D01*
X117118002Y-67666219D01*
X117114079Y-67663137D01*
X117110398Y-67660244D01*
X117106607Y-67657108D01*
X117095192Y-67647173D01*
X117095191Y-67647173D01*
X117096341Y-67645852D01*
X117063831Y-67603308D01*
X117058660Y-67579781D01*
X117057632Y-67568926D01*
X117056047Y-67564149D01*
X117055431Y-67560740D01*
X117053248Y-67546297D01*
X117051582Y-67535273D01*
X117045300Y-67526062D01*
X117041426Y-67516200D01*
X117041235Y-67515840D01*
X117034820Y-67499677D01*
X117032889Y-67494371D01*
X117030847Y-67488220D01*
X117028498Y-67481143D01*
X117025824Y-67476729D01*
X117025560Y-67476114D01*
X117025258Y-67475584D01*
X117023303Y-67470658D01*
X117015444Y-67459265D01*
X117012276Y-67454368D01*
X117010350Y-67451189D01*
X116993111Y-67422734D01*
X116988253Y-67419569D01*
X116987042Y-67418091D01*
X116980616Y-67408773D01*
X116979391Y-67406954D01*
X116979136Y-67406565D01*
X116968605Y-67390537D01*
X116966933Y-67388937D01*
X116965722Y-67387181D01*
X116951200Y-67373849D01*
X116949698Y-67372441D01*
X116934732Y-67358116D01*
X116905768Y-67304221D01*
X116908929Y-67259458D01*
X116908566Y-67259381D01*
X116909120Y-67256756D01*
X116909211Y-67255462D01*
X116909711Y-67253954D01*
X116909712Y-67253949D01*
X116911460Y-67248674D01*
X116911967Y-67243399D01*
X116912935Y-67239347D01*
X116916274Y-67226843D01*
X116918036Y-67220979D01*
X116922336Y-67208135D01*
X116922873Y-67202613D01*
X116923036Y-67201933D01*
X116923130Y-67201177D01*
X116924528Y-67195943D01*
X116924732Y-67190382D01*
X116925556Y-67184891D01*
X116926446Y-67185025D01*
X116928014Y-67176469D01*
X116928642Y-67170353D01*
X116932219Y-67159791D01*
X116929337Y-67136281D01*
X116929334Y-67136240D01*
X116929385Y-67135717D01*
X116929199Y-67134260D01*
X116929198Y-67134251D01*
X116926610Y-67114019D01*
X116926546Y-67113509D01*
X116924568Y-67097381D01*
X116923888Y-67091832D01*
X116923706Y-67091330D01*
X116923695Y-67091246D01*
X116923947Y-67084926D01*
X116923875Y-67084761D01*
X116923939Y-67083960D01*
X116922993Y-67081381D01*
X116922442Y-67081451D01*
X116922133Y-67079037D01*
X116920718Y-67067977D01*
X116914453Y-67058326D01*
X116906929Y-67043212D01*
X116906914Y-67043220D01*
X116904448Y-67038243D01*
X116902553Y-67033020D01*
X116899622Y-67028471D01*
X116897736Y-67024405D01*
X116892024Y-67011217D01*
X116892023Y-67011215D01*
X116887592Y-67000985D01*
X116879163Y-66993689D01*
X116875743Y-66989027D01*
X116871607Y-66984982D01*
X116865569Y-66975609D01*
X116851583Y-66967035D01*
X116844049Y-66962416D01*
X116840022Y-66959805D01*
X116835826Y-66956172D01*
X116830877Y-66953548D01*
X116828507Y-66951925D01*
X116822434Y-66947018D01*
X116820040Y-66945601D01*
X116811950Y-66937933D01*
X116795531Y-66932672D01*
X116787583Y-66927799D01*
X116780908Y-66927120D01*
X116773472Y-66925116D01*
X116773471Y-66925115D01*
X116766155Y-66923143D01*
X116761716Y-66921834D01*
X116752085Y-66918748D01*
X116752073Y-66918746D01*
X116746747Y-66917039D01*
X116742437Y-66916676D01*
X116740282Y-66916171D01*
X116725984Y-66912318D01*
X116725982Y-66912318D01*
X116715218Y-66909417D01*
X116704260Y-66911471D01*
X116697153Y-66911194D01*
X116687696Y-66908399D01*
X116676690Y-66910188D01*
X116654696Y-66913763D01*
X116646586Y-66914740D01*
X116645548Y-66914822D01*
X116636453Y-66915538D01*
X116631151Y-66917195D01*
X116625690Y-66918249D01*
X116625676Y-66918177D01*
X116621828Y-66919086D01*
X116621734Y-66919122D01*
X116620114Y-66919385D01*
X116619984Y-66919438D01*
X116610410Y-66920789D01*
X116607079Y-66923013D01*
X116599844Y-66923403D01*
X116590077Y-66928769D01*
X116587112Y-66929615D01*
X116586711Y-66929786D01*
X116581911Y-66932580D01*
X116571268Y-66935905D01*
X116564814Y-66941934D01*
X116559660Y-66944036D01*
X116555106Y-66947229D01*
X116555102Y-66947231D01*
X116554583Y-66947595D01*
X116545450Y-66953283D01*
X116542827Y-66954725D01*
X116480377Y-66965865D01*
X116465937Y-66963688D01*
X116465241Y-66963583D01*
X116454222Y-66961922D01*
X116446553Y-66964285D01*
X116441180Y-66963679D01*
X116430657Y-66967356D01*
X116430656Y-66967356D01*
X116418622Y-66971561D01*
X116414743Y-66972607D01*
X116414783Y-66972737D01*
X116409471Y-66974394D01*
X116404015Y-66975445D01*
X116398931Y-66977683D01*
X116398927Y-66977684D01*
X116394502Y-66979632D01*
X116383781Y-66983629D01*
X116366803Y-66988861D01*
X116364598Y-66990905D01*
X116360610Y-66991751D01*
X116360660Y-66991819D01*
X116359815Y-66992447D01*
X116360719Y-66994501D01*
X116341509Y-67002955D01*
X116334264Y-67011423D01*
X116328161Y-67015956D01*
X116327644Y-67016456D01*
X116324025Y-67019349D01*
X116319326Y-67022309D01*
X116314291Y-67027355D01*
X116303297Y-67036862D01*
X116302691Y-67037313D01*
X116297851Y-67040126D01*
X116293768Y-67043949D01*
X116293766Y-67043951D01*
X116288515Y-67048869D01*
X116283559Y-67053209D01*
X116273787Y-67061208D01*
X116270380Y-67065593D01*
X116269036Y-67066971D01*
X116265826Y-67070117D01*
X116250780Y-67084208D01*
X116230035Y-67103616D01*
X116226610Y-67106674D01*
X116189930Y-67137921D01*
X116186962Y-67140352D01*
X116144604Y-67173692D01*
X116141414Y-67176100D01*
X116098810Y-67206932D01*
X116097389Y-67207941D01*
X116067428Y-67228830D01*
X116066307Y-67229550D01*
X116063066Y-67230999D01*
X116058592Y-67234376D01*
X116058591Y-67234376D01*
X116049379Y-67241328D01*
X116046361Y-67243518D01*
X116032447Y-67253218D01*
X116030063Y-67255841D01*
X116029027Y-67256685D01*
X116018547Y-67264594D01*
X116015013Y-67266881D01*
X116015069Y-67266960D01*
X116010491Y-67270194D01*
X116005582Y-67272888D01*
X116001402Y-67276614D01*
X115997700Y-67279914D01*
X115991461Y-67285034D01*
X115983168Y-67291292D01*
X115979586Y-67295544D01*
X115975555Y-67299364D01*
X115975496Y-67299302D01*
X115972570Y-67302311D01*
X115967201Y-67307097D01*
X115959510Y-67313292D01*
X115953174Y-67317895D01*
X115949495Y-67322118D01*
X115947856Y-67323619D01*
X115944882Y-67326627D01*
X115943266Y-67328430D01*
X115939122Y-67332124D01*
X115934527Y-67338580D01*
X115928528Y-67346191D01*
X115922085Y-67353588D01*
X115915916Y-67360056D01*
X115909235Y-67366455D01*
X115906160Y-67371138D01*
X115904006Y-67373728D01*
X115901950Y-67376705D01*
X115898304Y-67380891D01*
X115895679Y-67385785D01*
X115895676Y-67385790D01*
X115893887Y-67389125D01*
X115889404Y-67396663D01*
X115886490Y-67401102D01*
X115882350Y-67406584D01*
X115880318Y-67409556D01*
X115876658Y-67413791D01*
X115874042Y-67418736D01*
X115874036Y-67418744D01*
X115872602Y-67421454D01*
X115867862Y-67429474D01*
X115866268Y-67431903D01*
X115863215Y-67436554D01*
X115861273Y-67441765D01*
X115859738Y-67444797D01*
X115856871Y-67451189D01*
X115854628Y-67455428D01*
X115853949Y-67456603D01*
X115851708Y-67459405D01*
X115849282Y-67464446D01*
X115849279Y-67464450D01*
X115844998Y-67473344D01*
X115844000Y-67475251D01*
X115841485Y-67478712D01*
X115839290Y-67483869D01*
X115838966Y-67484441D01*
X115837831Y-67486824D01*
X115837292Y-67488195D01*
X115834695Y-67493103D01*
X115833765Y-67496563D01*
X115833216Y-67497822D01*
X115826580Y-67511609D01*
X115826022Y-67514055D01*
X115824815Y-67517008D01*
X115821968Y-67521625D01*
X115820172Y-67526930D01*
X115820171Y-67526931D01*
X115818309Y-67532428D01*
X115815633Y-67539443D01*
X115813407Y-67544672D01*
X115813405Y-67544678D01*
X115811233Y-67549781D01*
X115810250Y-67555241D01*
X115810047Y-67555920D01*
X115807846Y-67562373D01*
X115805388Y-67567089D01*
X115802372Y-67578691D01*
X115800332Y-67585514D01*
X115796551Y-67596680D01*
X115795984Y-67602202D01*
X115795451Y-67604650D01*
X115793683Y-67611234D01*
X115791852Y-67615298D01*
X115790754Y-67620789D01*
X115790753Y-67620792D01*
X115789057Y-67629274D01*
X115787800Y-67634749D01*
X115784254Y-67648388D01*
X115784099Y-67653531D01*
X115783459Y-67657264D01*
X115782256Y-67663281D01*
X115781908Y-67664741D01*
X115780512Y-67668198D01*
X115779632Y-67673730D01*
X115779632Y-67673731D01*
X115777867Y-67684830D01*
X115777173Y-67688697D01*
X115773906Y-67705032D01*
X115774006Y-67708756D01*
X115773823Y-67710254D01*
X115771326Y-67725948D01*
X115771214Y-67726497D01*
X115770353Y-67728797D01*
X115769622Y-67734293D01*
X115767854Y-67747579D01*
X115767490Y-67750069D01*
X115765405Y-67763176D01*
X115765404Y-67763187D01*
X115764535Y-67768651D01*
X115764699Y-67771106D01*
X115764647Y-67771685D01*
X115761043Y-67798768D01*
X115761005Y-67798974D01*
X115760497Y-67800398D01*
X115758515Y-67817279D01*
X115758111Y-67820715D01*
X115757924Y-67822213D01*
X115755242Y-67842370D01*
X115755381Y-67843873D01*
X115755366Y-67844094D01*
X115750529Y-67885287D01*
X115750514Y-67885377D01*
X115750231Y-67886190D01*
X115749980Y-67888500D01*
X115749979Y-67888506D01*
X115747910Y-67907550D01*
X115747814Y-67908398D01*
X115746272Y-67921536D01*
X115745330Y-67929558D01*
X115745422Y-67930415D01*
X115745417Y-67930498D01*
X115743581Y-67947403D01*
X115739115Y-67988510D01*
X115739112Y-67988529D01*
X115739048Y-67988714D01*
X115737462Y-68003583D01*
X115736635Y-68011339D01*
X115736614Y-68011529D01*
X115736202Y-68015321D01*
X115734234Y-68033444D01*
X115734256Y-68033636D01*
X115734256Y-68033641D01*
X115733596Y-68039832D01*
X115733547Y-68040285D01*
X115728249Y-68087906D01*
X115725535Y-68112294D01*
X115725373Y-68113657D01*
X115718848Y-68165651D01*
X115718618Y-68167480D01*
X115718266Y-68170021D01*
X115714712Y-68193357D01*
X115712214Y-68209763D01*
X115711556Y-68213580D01*
X115705626Y-68244371D01*
X115704679Y-68248751D01*
X115697687Y-68277887D01*
X115696722Y-68281589D01*
X115686925Y-68316422D01*
X115686282Y-68318613D01*
X115675977Y-68352197D01*
X115675877Y-68352471D01*
X115675363Y-68353381D01*
X115669465Y-68373268D01*
X115669082Y-68374528D01*
X115662966Y-68394150D01*
X115662860Y-68395508D01*
X115662820Y-68395671D01*
X115654126Y-68424984D01*
X115654043Y-68425221D01*
X115653249Y-68426684D01*
X115652147Y-68430644D01*
X115652144Y-68430653D01*
X115647822Y-68446185D01*
X115647360Y-68447794D01*
X115642822Y-68463095D01*
X115642820Y-68463104D01*
X115641655Y-68467032D01*
X115641549Y-68468690D01*
X115641490Y-68468949D01*
X115630660Y-68507872D01*
X115630602Y-68508048D01*
X115629953Y-68509284D01*
X115629047Y-68512728D01*
X115629047Y-68512729D01*
X115624702Y-68529251D01*
X115624333Y-68530614D01*
X115618843Y-68550345D01*
X115618777Y-68551740D01*
X115618737Y-68551930D01*
X115608405Y-68591217D01*
X115608328Y-68591462D01*
X115607579Y-68592950D01*
X115602744Y-68612694D01*
X115602358Y-68614211D01*
X115597250Y-68633633D01*
X115597195Y-68635298D01*
X115597146Y-68635549D01*
X115594943Y-68644543D01*
X115589784Y-68665609D01*
X115589752Y-68665715D01*
X115589294Y-68666651D01*
X115587687Y-68673525D01*
X115584481Y-68687239D01*
X115584239Y-68688248D01*
X115581350Y-68700048D01*
X115579224Y-68708730D01*
X115579217Y-68709153D01*
X115579008Y-68710274D01*
X115573762Y-68731545D01*
X115541472Y-68783514D01*
X115484800Y-68806579D01*
X115454716Y-68804146D01*
X115451222Y-68803315D01*
X115450482Y-68803135D01*
X115444529Y-68801662D01*
X115444459Y-68801641D01*
X115443648Y-68801240D01*
X115434046Y-68798958D01*
X115422813Y-68796288D01*
X115421941Y-68796076D01*
X115403669Y-68791558D01*
X115403667Y-68791558D01*
X115401311Y-68790975D01*
X115400412Y-68790958D01*
X115400328Y-68790943D01*
X115385623Y-68787448D01*
X115384763Y-68787206D01*
X115382028Y-68785959D01*
X115376545Y-68784837D01*
X115376543Y-68784836D01*
X115364308Y-68782332D01*
X115361269Y-68781660D01*
X115349286Y-68778812D01*
X115343879Y-68777527D01*
X115340879Y-68777500D01*
X115339981Y-68777353D01*
X115337183Y-68776781D01*
X115335584Y-68776453D01*
X115331599Y-68775524D01*
X115326654Y-68773612D01*
X115321111Y-68772814D01*
X115321108Y-68772813D01*
X115312828Y-68771621D01*
X115307098Y-68770623D01*
X115293588Y-68767858D01*
X115288920Y-68767962D01*
X115281758Y-68766975D01*
X115279637Y-68766580D01*
X115274281Y-68764940D01*
X115268694Y-68764542D01*
X115268693Y-68764542D01*
X115265973Y-68764348D01*
X115262309Y-68764088D01*
X115255246Y-68763329D01*
X115243525Y-68761641D01*
X115237978Y-68762093D01*
X115235689Y-68762022D01*
X115229042Y-68761492D01*
X115224843Y-68760459D01*
X115219240Y-68760374D01*
X115219236Y-68760373D01*
X115210429Y-68760239D01*
X115204914Y-68760001D01*
X115198264Y-68759528D01*
X115190704Y-68758990D01*
X115185701Y-68759763D01*
X115182141Y-68759809D01*
X115178330Y-68759751D01*
X115177701Y-68759714D01*
X115175159Y-68759161D01*
X115157443Y-68759369D01*
X115156453Y-68759381D01*
X115153782Y-68759377D01*
X115153041Y-68759366D01*
X115135189Y-68759094D01*
X115132649Y-68759633D01*
X115131988Y-68759669D01*
X115096998Y-68760080D01*
X115096654Y-68760084D01*
X115083399Y-68760194D01*
X115052886Y-68760446D01*
X115050168Y-68760430D01*
X115031128Y-68760058D01*
X115007355Y-68759592D01*
X115003143Y-68759420D01*
X114965384Y-68757070D01*
X114960655Y-68756661D01*
X114949833Y-68755465D01*
X114921380Y-68752318D01*
X114917109Y-68751751D01*
X114870307Y-68744502D01*
X114867086Y-68743949D01*
X114807985Y-68732786D01*
X114805893Y-68732368D01*
X114730910Y-68716525D01*
X114729821Y-68716288D01*
X114657337Y-68700042D01*
X114657329Y-68700040D01*
X114656902Y-68699838D01*
X114635386Y-68695121D01*
X114634986Y-68695032D01*
X114614785Y-68690505D01*
X114614780Y-68690504D01*
X114613503Y-68690218D01*
X114613042Y-68690220D01*
X114613006Y-68690214D01*
X114573636Y-68681583D01*
X114573028Y-68681422D01*
X114570683Y-68680388D01*
X114565179Y-68679334D01*
X114565170Y-68679331D01*
X114552185Y-68676844D01*
X114549619Y-68676318D01*
X114531449Y-68672334D01*
X114528887Y-68672356D01*
X114528278Y-68672266D01*
X114465422Y-68660227D01*
X114463569Y-68659805D01*
X114459768Y-68658324D01*
X114454236Y-68657514D01*
X114454230Y-68657512D01*
X114443719Y-68655973D01*
X114439444Y-68655251D01*
X114435420Y-68654480D01*
X114429145Y-68653278D01*
X114429144Y-68653278D01*
X114423688Y-68652233D01*
X114419616Y-68652376D01*
X114417708Y-68652163D01*
X114365688Y-68644543D01*
X114362279Y-68643943D01*
X114357498Y-68642379D01*
X114351920Y-68641875D01*
X114351918Y-68641875D01*
X114348124Y-68641533D01*
X114343066Y-68641076D01*
X114337623Y-68640432D01*
X114328968Y-68639164D01*
X114328964Y-68639164D01*
X114323470Y-68638359D01*
X114318466Y-68638754D01*
X114314962Y-68638538D01*
X114311163Y-68638195D01*
X114269766Y-68634457D01*
X114265553Y-68633962D01*
X114260369Y-68632603D01*
X114247888Y-68632223D01*
X114246535Y-68632182D01*
X114240643Y-68631827D01*
X114232557Y-68631097D01*
X114227021Y-68630597D01*
X114221718Y-68631313D01*
X114217393Y-68631295D01*
X114173509Y-68629959D01*
X114170340Y-68629768D01*
X114165549Y-68628783D01*
X114159946Y-68628913D01*
X114150801Y-68629125D01*
X114145495Y-68629106D01*
X114136491Y-68628832D01*
X114136489Y-68628832D01*
X114130932Y-68628663D01*
X114126139Y-68629604D01*
X114122933Y-68629772D01*
X114075226Y-68630879D01*
X114071215Y-68630863D01*
X114066006Y-68630105D01*
X114060427Y-68630561D01*
X114060424Y-68630561D01*
X114052008Y-68631249D01*
X114046244Y-68631551D01*
X114039233Y-68631714D01*
X114032394Y-68631873D01*
X114027301Y-68633160D01*
X114023259Y-68633601D01*
X114017426Y-68634078D01*
X113948473Y-68639716D01*
X113943974Y-68639772D01*
X113943974Y-68639778D01*
X113938377Y-68640092D01*
X113932787Y-68639772D01*
X113923234Y-68641402D01*
X113914664Y-68642481D01*
X113914350Y-68642507D01*
X113905173Y-68643257D01*
X113899874Y-68644930D01*
X113894498Y-68645985D01*
X113890050Y-68647062D01*
X113831649Y-68657023D01*
X113782665Y-68665377D01*
X113772555Y-68666483D01*
X113771664Y-68666629D01*
X113766078Y-68666903D01*
X113760697Y-68668421D01*
X113760687Y-68668423D01*
X113759447Y-68668773D01*
X113749222Y-68671082D01*
X113748451Y-68671213D01*
X113748089Y-68671275D01*
X113748088Y-68671275D01*
X113742615Y-68672209D01*
X113737486Y-68674336D01*
X113736757Y-68674547D01*
X113727064Y-68677913D01*
X113649368Y-68699838D01*
X113625186Y-68706662D01*
X113614421Y-68709061D01*
X113613960Y-68709137D01*
X113613958Y-68709137D01*
X113608430Y-68710050D01*
X113603239Y-68712182D01*
X113592781Y-68715790D01*
X113592646Y-68715845D01*
X113587302Y-68717353D01*
X113581900Y-68720300D01*
X113572108Y-68724963D01*
X113532034Y-68741417D01*
X113477899Y-68763644D01*
X113468465Y-68766971D01*
X113466517Y-68767549D01*
X113466512Y-68767551D01*
X113461144Y-68769144D01*
X113456272Y-68771898D01*
X113454506Y-68772648D01*
X113449921Y-68774875D01*
X113448060Y-68775896D01*
X113442915Y-68778008D01*
X113438372Y-68781210D01*
X113438369Y-68781211D01*
X113436604Y-68782455D01*
X113428298Y-68787711D01*
X113400657Y-68803336D01*
X113342256Y-68836349D01*
X113334400Y-68840340D01*
X113325778Y-68844247D01*
X113321325Y-68847643D01*
X113318579Y-68849283D01*
X113315742Y-68851337D01*
X113310900Y-68854074D01*
X113305075Y-68859379D01*
X113303844Y-68860500D01*
X113297218Y-68866025D01*
X113220032Y-68924885D01*
X113213914Y-68929195D01*
X113208983Y-68932397D01*
X113208980Y-68932399D01*
X113204286Y-68935447D01*
X113200392Y-68939471D01*
X113198961Y-68940649D01*
X113197396Y-68942147D01*
X113192979Y-68945516D01*
X113189421Y-68949783D01*
X113185576Y-68954394D01*
X113180686Y-68959836D01*
X113113557Y-69029210D01*
X113109124Y-69033514D01*
X113099166Y-69042596D01*
X113095991Y-69047185D01*
X113095511Y-69047706D01*
X113095054Y-69048332D01*
X113091269Y-69052243D01*
X113088387Y-69057001D01*
X113084247Y-69063835D01*
X113080979Y-69068878D01*
X113025662Y-69148814D01*
X113022665Y-69152916D01*
X113013413Y-69164919D01*
X113011292Y-69169537D01*
X113011154Y-69169777D01*
X113008365Y-69173808D01*
X113006301Y-69178959D01*
X113006299Y-69178963D01*
X113002691Y-69187968D01*
X113000763Y-69192456D01*
X112969313Y-69260919D01*
X112961016Y-69278980D01*
X112957934Y-69285116D01*
X112951987Y-69296001D01*
X112950471Y-69301394D01*
X112950008Y-69302530D01*
X112949525Y-69303995D01*
X112947207Y-69309040D01*
X112946069Y-69314476D01*
X112944646Y-69321273D01*
X112943050Y-69327788D01*
X112940428Y-69337113D01*
X112937136Y-69346849D01*
X112934477Y-69353546D01*
X112933629Y-69359078D01*
X112933286Y-69360343D01*
X112931823Y-69367109D01*
X112931585Y-69368567D01*
X112930081Y-69373917D01*
X112929805Y-69379465D01*
X112929718Y-69381202D01*
X112928702Y-69391249D01*
X112924429Y-69419138D01*
X112922150Y-69429815D01*
X112922102Y-69430118D01*
X112920618Y-69435512D01*
X112920380Y-69441104D01*
X112920347Y-69441874D01*
X112919295Y-69452654D01*
X112918356Y-69458787D01*
X112918757Y-69464324D01*
X112918750Y-69464494D01*
X112918914Y-69475524D01*
X112918350Y-69488767D01*
X112917671Y-69504715D01*
X112916579Y-69515477D01*
X112916560Y-69515884D01*
X112915671Y-69521404D01*
X107700500Y-69521404D01*
X107700500Y-63199500D01*
X107719407Y-63141309D01*
X107768907Y-63105345D01*
X107799500Y-63100500D01*
X110401000Y-63100500D01*
X110459191Y-63119407D01*
G37*
%TD.AperFunction*%
%TA.AperFunction,Conductor*%
G36*
X134988169Y-52703018D02*
G01*
X134999641Y-52705656D01*
X135010517Y-52703195D01*
X135021664Y-52703214D01*
X135021664Y-52703243D01*
X135031772Y-52702422D01*
X135161986Y-52710298D01*
X135271204Y-52716905D01*
X135283056Y-52718344D01*
X135544422Y-52766241D01*
X135556015Y-52769098D01*
X135762244Y-52833361D01*
X135809695Y-52848148D01*
X135820873Y-52852387D01*
X136063170Y-52961436D01*
X136073756Y-52966992D01*
X136301142Y-53104452D01*
X136310980Y-53111243D01*
X136520132Y-53275103D01*
X136529081Y-53283030D01*
X136716970Y-53470919D01*
X136724897Y-53479868D01*
X136888757Y-53689020D01*
X136895548Y-53698858D01*
X137033008Y-53926244D01*
X137038564Y-53936830D01*
X137147613Y-54179127D01*
X137151852Y-54190305D01*
X137230900Y-54443977D01*
X137233759Y-54455578D01*
X137281655Y-54716936D01*
X137283096Y-54728803D01*
X137297547Y-54967712D01*
X137296724Y-54977628D01*
X137296862Y-54977628D01*
X137296842Y-54988776D01*
X137294344Y-54999641D01*
X137296804Y-55010513D01*
X137297059Y-55011638D01*
X137299500Y-55033488D01*
X137299500Y-61800500D01*
X137280593Y-61858691D01*
X137231093Y-61894655D01*
X137200500Y-61899500D01*
X134599000Y-61899500D01*
X134540809Y-61880593D01*
X134504845Y-61831093D01*
X134500000Y-61800500D01*
X134500000Y-61500000D01*
X123250000Y-61500000D01*
X123250000Y-63651000D01*
X123231093Y-63709191D01*
X123181593Y-63745155D01*
X123151000Y-63750000D01*
X121849000Y-63750000D01*
X121790809Y-63731093D01*
X121754845Y-63681593D01*
X121750000Y-63651000D01*
X121750000Y-61500000D01*
X110500000Y-61500000D01*
X110500000Y-61800500D01*
X110481093Y-61858691D01*
X110431593Y-61894655D01*
X110401000Y-61899500D01*
X107799500Y-61899500D01*
X107741309Y-61880593D01*
X107705345Y-61831093D01*
X107700500Y-61800500D01*
X107700500Y-55034281D01*
X107703057Y-55011926D01*
X107703141Y-55011565D01*
X107705655Y-55000718D01*
X107705656Y-55000000D01*
X107704413Y-54994549D01*
X107703791Y-54988995D01*
X107704159Y-54988954D01*
X107702438Y-54967973D01*
X107716904Y-54728804D01*
X107718345Y-54716936D01*
X107766241Y-54455578D01*
X107769100Y-54443977D01*
X107848148Y-54190305D01*
X107852387Y-54179127D01*
X107961436Y-53936830D01*
X107966992Y-53926244D01*
X108104452Y-53698858D01*
X108111243Y-53689020D01*
X108275103Y-53479868D01*
X108283030Y-53470919D01*
X108470919Y-53283030D01*
X108479868Y-53275103D01*
X108689020Y-53111243D01*
X108698858Y-53104452D01*
X108926244Y-52966992D01*
X108936830Y-52961436D01*
X109179127Y-52852387D01*
X109190305Y-52848148D01*
X109237756Y-52833361D01*
X109443985Y-52769098D01*
X109455578Y-52766241D01*
X109716944Y-52718344D01*
X109728796Y-52716905D01*
X109967712Y-52702453D01*
X109977628Y-52703276D01*
X109977628Y-52703138D01*
X109988776Y-52703158D01*
X109999641Y-52705656D01*
X110011641Y-52702941D01*
X110033488Y-52700500D01*
X134965983Y-52700500D01*
X134988169Y-52703018D01*
G37*
%TD.AperFunction*%
%TD*%
M02*
