M48
; DRILL file {KiCad 6.0.1-79c1e3a40b~116~ubuntu20.04.1} date Sat 29 Jan 2022 12:29:05 CET
; FORMAT={-:-/ absolute / metric / decimal}
; #@! TF.CreationDate,2022-01-29T12:29:05+01:00
; #@! TF.GenerationSoftware,Kicad,Pcbnew,6.0.1-79c1e3a40b~116~ubuntu20.04.1
; #@! TF.FileFunction,Plated,1,2,PTH
FMAT,2
METRIC
; #@! TA.AperFunction,Plated,PTH,ViaDrill
T1C0.400
; #@! TA.AperFunction,Plated,PTH,ComponentDrill
T2C0.400
; #@! TA.AperFunction,Plated,PTH,ComponentDrill
T3C2.200
%
G90
G05
T1
X110.0Y-57.5
X110.0Y-60.0
X110.0Y-65.0
X110.0Y-67.5
X110.5Y-61.0
X110.5Y-64.0
X111.5Y-61.0
X111.5Y-64.0
X112.5Y-55.0
X112.5Y-57.5
X112.5Y-60.0
X112.5Y-61.0
X112.5Y-64.0
X112.5Y-65.0
X112.5Y-67.5
X112.5Y-70.0
X113.5Y-61.0
X113.5Y-64.0
X114.5Y-61.0
X114.5Y-64.0
X115.0Y-55.0
X115.0Y-57.5
X115.0Y-60.0
X115.0Y-65.0
X115.0Y-67.5
X115.5Y-61.0
X115.5Y-64.0
X116.5Y-61.0
X116.5Y-64.0
X117.5Y-55.0
X117.5Y-57.5
X117.5Y-60.0
X117.5Y-61.0
X117.5Y-64.0
X117.5Y-65.0
X117.5Y-70.0
X118.5Y-61.0
X118.5Y-64.0
X119.5Y-61.0
X119.5Y-64.0
X119.5Y-65.0
X119.5Y-66.0
X120.0Y-57.5
X120.0Y-60.0
X120.0Y-67.5
X120.5Y-61.0
X120.5Y-66.0
X121.5Y-57.0
X121.5Y-58.0
X121.5Y-59.0
X121.5Y-60.0
X121.5Y-61.0
X121.5Y-66.0
X121.5Y-67.0
X121.5Y-68.0
X122.5Y-54.0
X122.5Y-55.0
X122.5Y-56.0
X122.5Y-57.0
X122.5Y-58.0
X122.5Y-59.0
X122.5Y-60.0
X122.5Y-61.0
X122.5Y-62.0
X122.5Y-63.0
X122.5Y-66.0
X122.5Y-67.0
X122.5Y-68.0
X122.5Y-69.0
X122.5Y-70.0
X122.5Y-71.0
X123.5Y-57.0
X123.5Y-58.0
X123.5Y-59.0
X123.5Y-60.0
X123.5Y-61.0
X123.5Y-66.0
X123.5Y-67.0
X123.5Y-68.0
X124.5Y-61.0
X124.5Y-66.0
X125.0Y-57.5
X125.0Y-60.0
X125.0Y-67.5
X125.5Y-61.0
X125.5Y-64.0
X125.5Y-65.0
X125.5Y-66.0
X126.5Y-61.0
X126.5Y-64.0
X127.5Y-55.0
X127.5Y-57.5
X127.5Y-60.0
X127.5Y-61.0
X127.5Y-64.0
X127.5Y-65.0
X127.5Y-67.5
X127.5Y-70.0
X128.5Y-61.0
X128.5Y-64.0
X129.5Y-61.0
X129.5Y-64.0
X130.0Y-55.0
X130.0Y-57.5
X130.0Y-60.0
X130.0Y-65.0
X130.0Y-67.5
X130.0Y-70.0
X130.5Y-61.0
X130.5Y-64.0
X131.5Y-61.0
X131.5Y-64.0
X132.5Y-55.0
X132.5Y-57.5
X132.5Y-60.0
X132.5Y-61.0
X132.5Y-64.0
X132.5Y-65.0
X132.5Y-67.5
X132.5Y-70.0
X133.5Y-61.0
X133.5Y-64.0
X134.5Y-61.0
X134.5Y-64.0
X135.0Y-57.5
X135.0Y-60.0
X135.0Y-65.0
X135.0Y-67.5
T2
X108.0Y-61.5
X108.0Y-63.5
X108.5Y-61.0
X108.5Y-64.0
X109.0Y-61.5
X109.0Y-63.5
X109.5Y-61.0
X109.5Y-64.0
X110.0Y-61.5
X110.0Y-63.5
X135.0Y-61.5
X135.0Y-63.5
X135.5Y-61.0
X135.5Y-64.0
X136.0Y-61.5
X136.0Y-63.5
X136.5Y-61.0
X136.5Y-64.0
X137.0Y-61.5
X137.0Y-63.5
T3
X110.0Y-55.0
X110.0Y-70.0
X120.0Y-55.0
X120.0Y-70.0
X125.0Y-55.0
X125.0Y-70.0
X135.0Y-55.0
X135.0Y-70.0
T0
M30
