%TF.GenerationSoftware,KiCad,Pcbnew,6.0.1-79c1e3a40b~116~ubuntu20.04.1*%
%TF.CreationDate,2022-01-29T12:29:03+01:00*%
%TF.ProjectId,filter,66696c74-6572-42e6-9b69-6361645f7063,rev?*%
%TF.SameCoordinates,Original*%
%TF.FileFunction,Copper,L1,Top*%
%TF.FilePolarity,Positive*%
%FSLAX46Y46*%
G04 Gerber Fmt 4.6, Leading zero omitted, Abs format (unit mm)*
G04 Created by KiCad (PCBNEW 6.0.1-79c1e3a40b~116~ubuntu20.04.1) date 2022-01-29 12:29:03*
%MOMM*%
%LPD*%
G01*
G04 APERTURE LIST*
G04 Aperture macros list*
%AMRoundRect*
0 Rectangle with rounded corners*
0 $1 Rounding radius*
0 $2 $3 $4 $5 $6 $7 $8 $9 X,Y pos of 4 corners*
0 Add a 4 corners polygon primitive as box body*
4,1,4,$2,$3,$4,$5,$6,$7,$8,$9,$2,$3,0*
0 Add four circle primitives for the rounded corners*
1,1,$1+$1,$2,$3*
1,1,$1+$1,$4,$5*
1,1,$1+$1,$6,$7*
1,1,$1+$1,$8,$9*
0 Add four rect primitives between the rounded corners*
20,1,$1+$1,$2,$3,$4,$5,0*
20,1,$1+$1,$4,$5,$6,$7,0*
20,1,$1+$1,$6,$7,$8,$9,0*
20,1,$1+$1,$8,$9,$2,$3,0*%
G04 Aperture macros list end*
%TA.AperFunction,SMDPad,CuDef*%
%ADD10R,3.000000X0.800000*%
%TD*%
%TA.AperFunction,ComponentPad*%
%ADD11C,0.800000*%
%TD*%
%TA.AperFunction,SMDPad,CuDef*%
%ADD12R,3.000000X2.000000*%
%TD*%
%TA.AperFunction,SMDPad,CuDef*%
%ADD13RoundRect,0.250000X-0.450000X0.262500X-0.450000X-0.262500X0.450000X-0.262500X0.450000X0.262500X0*%
%TD*%
%TA.AperFunction,ComponentPad*%
%ADD14C,3.400000*%
%TD*%
%TA.AperFunction,SMDPad,CuDef*%
%ADD15RoundRect,0.250000X0.262500X0.450000X-0.262500X0.450000X-0.262500X-0.450000X0.262500X-0.450000X0*%
%TD*%
%TA.AperFunction,ViaPad*%
%ADD16C,0.800000*%
%TD*%
%TA.AperFunction,Conductor*%
%ADD17C,0.800000*%
%TD*%
G04 APERTURE END LIST*
%TO.C,G\u002A\u002A\u002A*%
G36*
X116707208Y-67114917D02*
G01*
X116721780Y-67122643D01*
X116727638Y-67138791D01*
X116724986Y-67166038D01*
X116714028Y-67207062D01*
X116695246Y-67263741D01*
X116678860Y-67310446D01*
X116664665Y-67349625D01*
X116654112Y-67377364D01*
X116648650Y-67389745D01*
X116648486Y-67389946D01*
X116654138Y-67397178D01*
X116673545Y-67411565D01*
X116702518Y-67430004D01*
X116702794Y-67430170D01*
X116765684Y-67473854D01*
X116813512Y-67519631D01*
X116845324Y-67565750D01*
X116860162Y-67610459D01*
X116857070Y-67652007D01*
X116840520Y-67682445D01*
X116820991Y-67706562D01*
X116877555Y-67740636D01*
X116917737Y-67766699D01*
X116959250Y-67796467D01*
X116980607Y-67813250D01*
X117006661Y-67835927D01*
X117019745Y-67852611D01*
X117023211Y-67869984D01*
X117020661Y-67893124D01*
X117015636Y-67932872D01*
X117012184Y-67973169D01*
X117012056Y-67975472D01*
X117006709Y-68006817D01*
X116992958Y-68024471D01*
X116987295Y-68027764D01*
X116964024Y-68044266D01*
X116944294Y-68064253D01*
X116934232Y-68075038D01*
X116921977Y-68082474D01*
X116903462Y-68087419D01*
X116874622Y-68090732D01*
X116831391Y-68093272D01*
X116800502Y-68094630D01*
X116740844Y-68098231D01*
X116695936Y-68103279D01*
X116668140Y-68109464D01*
X116661407Y-68112879D01*
X116649381Y-68131376D01*
X116640328Y-68159745D01*
X116639450Y-68164547D01*
X116632091Y-68190629D01*
X116617507Y-68228695D01*
X116598200Y-68272492D01*
X116586787Y-68296135D01*
X116569617Y-68331648D01*
X116556241Y-68363117D01*
X116545437Y-68394981D01*
X116535983Y-68431679D01*
X116526657Y-68477652D01*
X116516238Y-68537340D01*
X116510003Y-68575142D01*
X116498611Y-68650475D01*
X116487513Y-68733726D01*
X116477703Y-68816757D01*
X116470177Y-68891427D01*
X116467711Y-68921318D01*
X116453479Y-69070850D01*
X116434101Y-69203435D01*
X116409013Y-69322278D01*
X116378053Y-69429366D01*
X116349141Y-69507130D01*
X116316299Y-69574946D01*
X116276020Y-69638510D01*
X116224798Y-69703520D01*
X116175643Y-69758199D01*
X116077329Y-69875280D01*
X115993806Y-70001629D01*
X115931364Y-70121186D01*
X115903186Y-70177903D01*
X115877811Y-70220375D01*
X115851675Y-70254018D01*
X115828482Y-70277604D01*
X115800811Y-70302117D01*
X115778251Y-70319713D01*
X115765568Y-70326682D01*
X115765395Y-70326688D01*
X115753451Y-70333218D01*
X115741919Y-70353767D01*
X115730392Y-70389773D01*
X115718459Y-70442674D01*
X115705712Y-70513910D01*
X115697702Y-70564739D01*
X115682935Y-70657753D01*
X115668702Y-70736626D01*
X115653537Y-70807789D01*
X115635974Y-70877671D01*
X115614550Y-70952702D01*
X115594147Y-71019151D01*
X115573662Y-71088767D01*
X115559937Y-71148459D01*
X115552673Y-71203792D01*
X115551572Y-71260332D01*
X115556334Y-71323643D01*
X115566662Y-71399292D01*
X115571976Y-71432384D01*
X115581863Y-71493891D01*
X115591097Y-71554175D01*
X115598842Y-71607582D01*
X115604263Y-71648460D01*
X115605561Y-71659723D01*
X115612893Y-71704728D01*
X115626368Y-71741894D01*
X115650004Y-71781963D01*
X115652923Y-71786310D01*
X115693121Y-71845728D01*
X115391035Y-71845728D01*
X115398018Y-71812144D01*
X115406666Y-71782384D01*
X115417092Y-71759536D01*
X115421952Y-71745992D01*
X115419574Y-71727580D01*
X115408787Y-71699446D01*
X115396054Y-71672292D01*
X115376050Y-71626603D01*
X115359018Y-71576762D01*
X115343853Y-71518573D01*
X115329451Y-71447840D01*
X115315851Y-71367612D01*
X115305774Y-71315487D01*
X115290904Y-71252618D01*
X115273420Y-71187715D01*
X115259042Y-71140272D01*
X115239373Y-71077432D01*
X115224185Y-71023154D01*
X115212556Y-70972312D01*
X115203565Y-70919774D01*
X115196290Y-70860411D01*
X115189810Y-70789094D01*
X115185282Y-70729699D01*
X115180007Y-70626544D01*
X115179205Y-70527802D01*
X115182780Y-70438429D01*
X115190634Y-70363381D01*
X115192649Y-70350881D01*
X115198285Y-70318238D01*
X115013062Y-70323960D01*
X114892262Y-70325480D01*
X114787165Y-70321724D01*
X114693384Y-70312274D01*
X114606532Y-70296713D01*
X114535335Y-70278501D01*
X114428868Y-70239636D01*
X114339540Y-70189590D01*
X114266909Y-70128052D01*
X114210536Y-70054711D01*
X114204435Y-70044391D01*
X114175907Y-69994600D01*
X114168639Y-70023556D01*
X114148777Y-70080742D01*
X114118034Y-70143838D01*
X114080847Y-70204875D01*
X114041648Y-70255885D01*
X114035826Y-70262224D01*
X114001823Y-70299253D01*
X113979015Y-70328535D01*
X113963853Y-70356807D01*
X113952786Y-70390804D01*
X113942267Y-70437262D01*
X113941407Y-70441406D01*
X113922253Y-70514043D01*
X113895078Y-70580397D01*
X113857410Y-70644725D01*
X113806775Y-70711286D01*
X113744562Y-70780306D01*
X113700655Y-70827086D01*
X113669096Y-70863066D01*
X113647302Y-70891736D01*
X113632691Y-70916586D01*
X113622679Y-70941105D01*
X113620484Y-70947943D01*
X113606617Y-71010336D01*
X113598490Y-71083767D01*
X113596652Y-71159269D01*
X113601650Y-71227875D01*
X113602867Y-71236045D01*
X113621849Y-71352191D01*
X113638653Y-71449249D01*
X113653608Y-71528646D01*
X113667045Y-71591809D01*
X113679292Y-71640166D01*
X113690680Y-71675143D01*
X113701537Y-71698166D01*
X113712194Y-71710664D01*
X113712536Y-71710907D01*
X113743036Y-71736176D01*
X113770562Y-71765811D01*
X113789476Y-71793348D01*
X113793891Y-71804120D01*
X113795244Y-71813632D01*
X113790936Y-71819721D01*
X113777416Y-71823146D01*
X113751136Y-71824671D01*
X113708547Y-71825054D01*
X113696219Y-71825061D01*
X113593072Y-71825061D01*
X113595449Y-71796643D01*
X113593369Y-71778430D01*
X113582341Y-71757689D01*
X113559769Y-71730433D01*
X113536582Y-71706224D01*
X113493768Y-71657147D01*
X113454802Y-71599598D01*
X113418211Y-71530726D01*
X113382517Y-71447679D01*
X113346246Y-71347608D01*
X113337706Y-71322003D01*
X113302894Y-71210358D01*
X113277616Y-71113609D01*
X113261922Y-71028285D01*
X113255862Y-70950921D01*
X113259487Y-70878048D01*
X113272846Y-70806198D01*
X113295988Y-70731903D01*
X113328964Y-70651696D01*
X113347925Y-70610862D01*
X113363244Y-70577573D01*
X113373181Y-70550567D01*
X113378868Y-70523669D01*
X113381433Y-70490701D01*
X113382007Y-70445488D01*
X113381942Y-70424857D01*
X113374037Y-70313717D01*
X113351457Y-70189349D01*
X113314436Y-70052839D01*
X113279648Y-69949512D01*
X113261521Y-69895325D01*
X113244501Y-69837402D01*
X113231243Y-69785050D01*
X113227106Y-69765233D01*
X113214411Y-69708368D01*
X113200643Y-69665227D01*
X113186695Y-69637191D01*
X113173461Y-69625643D01*
X113161834Y-69631965D01*
X113153974Y-69652044D01*
X113149203Y-69668673D01*
X113144810Y-69670196D01*
X113137896Y-69654900D01*
X113132125Y-69639127D01*
X113121228Y-69590843D01*
X113117240Y-69530839D01*
X113119967Y-69466803D01*
X113129216Y-69406422D01*
X113138838Y-69372197D01*
X113186099Y-69269316D01*
X113251074Y-69175424D01*
X113332531Y-69091243D01*
X113429242Y-69017494D01*
X113539977Y-68954898D01*
X113663509Y-68904178D01*
X113798607Y-68866054D01*
X113944042Y-68841248D01*
X114059642Y-68831795D01*
X114147425Y-68829758D01*
X114231499Y-68832317D01*
X114316776Y-68840018D01*
X114408169Y-68853405D01*
X114510590Y-68873023D01*
X114591711Y-68890808D01*
X114687807Y-68912345D01*
X114767579Y-68929200D01*
X114834708Y-68941879D01*
X114892875Y-68950889D01*
X114945762Y-68956737D01*
X114997049Y-68959929D01*
X115050417Y-68960973D01*
X115098629Y-68960575D01*
X115154738Y-68959915D01*
X115199013Y-68960589D01*
X115237320Y-68963316D01*
X115275528Y-68968818D01*
X115319505Y-68977819D01*
X115375120Y-68991038D01*
X115403604Y-68998082D01*
X115475622Y-69015214D01*
X115531279Y-69026183D01*
X115573946Y-69030976D01*
X115606992Y-69029581D01*
X115633788Y-69021987D01*
X115657703Y-69008180D01*
X115671833Y-68997109D01*
X115692889Y-68976673D01*
X115710733Y-68952129D01*
X115726651Y-68920341D01*
X115741925Y-68878173D01*
X115757840Y-68822489D01*
X115775680Y-68750153D01*
X115779346Y-68734469D01*
X115796905Y-68662770D01*
X115818065Y-68582312D01*
X115840306Y-68502374D01*
X115861109Y-68432234D01*
X115863452Y-68424717D01*
X115878978Y-68374113D01*
X115891303Y-68330295D01*
X115901226Y-68288944D01*
X115909547Y-68245741D01*
X115917065Y-68196365D01*
X115924579Y-68136498D01*
X115932889Y-68061819D01*
X115936002Y-68032628D01*
X115947098Y-67930493D01*
X115956972Y-67846407D01*
X115966097Y-67777821D01*
X115974945Y-67722188D01*
X115983991Y-67676957D01*
X115993707Y-67639582D01*
X116004567Y-67607513D01*
X116017044Y-67578202D01*
X116022488Y-67566892D01*
X116043227Y-67527695D01*
X116064341Y-67495534D01*
X116089403Y-67466760D01*
X116121983Y-67437721D01*
X116165654Y-67404766D01*
X116214198Y-67370923D01*
X116263880Y-67334968D01*
X116315539Y-67294307D01*
X116361923Y-67254795D01*
X116386890Y-67231435D01*
X116418275Y-67202043D01*
X116445322Y-67179904D01*
X116464140Y-67168049D01*
X116469559Y-67167005D01*
X116483132Y-67181623D01*
X116484744Y-67211606D01*
X116474416Y-67255478D01*
X116468097Y-67273543D01*
X116456615Y-67305332D01*
X116448850Y-67328941D01*
X116446704Y-67337728D01*
X116453034Y-67335813D01*
X116469982Y-67321540D01*
X116494485Y-67298042D01*
X116523480Y-67268450D01*
X116553903Y-67235896D01*
X116582693Y-67203515D01*
X116606785Y-67174437D01*
X116608411Y-67172355D01*
X116635607Y-67139612D01*
X116656294Y-67121160D01*
X116674724Y-67113645D01*
X116683716Y-67112937D01*
X116707208Y-67114917D01*
G37*
%TD*%
D10*
%TO.P,J1,1,Pin_1*%
%TO.N,Net-(J1-Pad1)*%
X136000000Y-62500000D03*
D11*
%TO.P,J1,2,Pin_2*%
%TO.N,GND*%
X135500000Y-64000000D03*
X136500000Y-64000000D03*
X137000000Y-61500000D03*
X135000000Y-61500000D03*
X137000000Y-63500000D03*
D12*
X136000000Y-60900000D03*
X136000000Y-64100000D03*
D11*
X135500000Y-61000000D03*
X136500000Y-61000000D03*
X136000000Y-61500000D03*
X135000000Y-63500000D03*
X136000000Y-63500000D03*
%TD*%
D10*
%TO.P,J2,1,Pin_1*%
%TO.N,Net-(J2-Pad1)*%
X109000000Y-62500000D03*
D11*
%TO.P,J2,2,Pin_2*%
%TO.N,GND*%
X109500000Y-61000000D03*
X108500000Y-61000000D03*
X108000000Y-63500000D03*
X110000000Y-63500000D03*
X108000000Y-61500000D03*
D12*
X109000000Y-64100000D03*
X109000000Y-60900000D03*
D11*
X109500000Y-64000000D03*
X108500000Y-64000000D03*
X109000000Y-63500000D03*
X110000000Y-61500000D03*
X109000000Y-61500000D03*
%TD*%
D13*
%TO.P,Z1,1*%
%TO.N,Net-(J1-Pad1)*%
X133500000Y-62500000D03*
%TO.P,Z1,2*%
%TO.N,GND*%
X133500000Y-64325000D03*
%TD*%
D14*
%TO.P,H2,1,1*%
%TO.N,GND*%
X135000000Y-70000000D03*
%TD*%
%TO.P,H4,1,1*%
%TO.N,GND*%
X135000000Y-55000000D03*
%TD*%
%TO.P,H7,1,1*%
%TO.N,GND*%
X125000000Y-55000000D03*
%TD*%
D13*
%TO.P,Z6,1*%
%TO.N,Net-(Z4-Pad2)*%
X121000000Y-64587500D03*
%TO.P,Z6,2*%
%TO.N,GND*%
X121000000Y-66412500D03*
%TD*%
%TO.P,Z9,1*%
%TO.N,Net-(J2-Pad1)*%
X113500000Y-62500000D03*
%TO.P,Z9,2*%
%TO.N,GND*%
X113500000Y-64325000D03*
%TD*%
D14*
%TO.P,H8,1,1*%
%TO.N,GND*%
X125000000Y-70000000D03*
%TD*%
D13*
%TO.P,Z10,1*%
%TO.N,Net-(J2-Pad1)*%
X111500000Y-62500000D03*
%TO.P,Z10,2*%
%TO.N,GND*%
X111500000Y-64325000D03*
%TD*%
D14*
%TO.P,H6,1,1*%
%TO.N,GND*%
X120000000Y-70000000D03*
%TD*%
D15*
%TO.P,Z7,1*%
%TO.N,Net-(Z4-Pad2)*%
X120825000Y-62500000D03*
%TO.P,Z7,2*%
%TO.N,Net-(Z7-Pad2)*%
X119000000Y-62500000D03*
%TD*%
D14*
%TO.P,H1,1,1*%
%TO.N,GND*%
X110000000Y-70000000D03*
%TD*%
D15*
%TO.P,Z8,1*%
%TO.N,Net-(Z7-Pad2)*%
X117325000Y-62500000D03*
%TO.P,Z8,2*%
%TO.N,Net-(J2-Pad1)*%
X115500000Y-62500000D03*
%TD*%
D13*
%TO.P,Z5,1*%
%TO.N,Net-(Z4-Pad2)*%
X124000000Y-64587500D03*
%TO.P,Z5,2*%
%TO.N,GND*%
X124000000Y-66412500D03*
%TD*%
%TO.P,Z2,1*%
%TO.N,Net-(J1-Pad1)*%
X131500000Y-62500000D03*
%TO.P,Z2,2*%
%TO.N,GND*%
X131500000Y-64325000D03*
%TD*%
D15*
%TO.P,Z4,1*%
%TO.N,Net-(Z3-Pad2)*%
X126000000Y-62500000D03*
%TO.P,Z4,2*%
%TO.N,Net-(Z4-Pad2)*%
X124175000Y-62500000D03*
%TD*%
D14*
%TO.P,H3,1,1*%
%TO.N,GND*%
X120000000Y-55000000D03*
%TD*%
%TO.P,H5,1,1*%
%TO.N,GND*%
X110000000Y-55000000D03*
%TD*%
D15*
%TO.P,Z3,1*%
%TO.N,Net-(J1-Pad1)*%
X129500000Y-62500000D03*
%TO.P,Z3,2*%
%TO.N,Net-(Z3-Pad2)*%
X127675000Y-62500000D03*
%TD*%
D16*
%TO.N,GND*%
X130000000Y-57500000D03*
X118500000Y-64000000D03*
X117500000Y-55000000D03*
X112500000Y-60000000D03*
X127500000Y-65000000D03*
X121500000Y-60000000D03*
X120500000Y-61000000D03*
X135000000Y-57500000D03*
X132500000Y-67500000D03*
X134500000Y-61000000D03*
X110500000Y-61000000D03*
X120500000Y-66000000D03*
X123500000Y-58000000D03*
X121500000Y-61000000D03*
X122500000Y-70000000D03*
X112500000Y-67500000D03*
X125500000Y-65000000D03*
X117500000Y-61000000D03*
X122500000Y-66000000D03*
X127500000Y-55000000D03*
X121500000Y-57000000D03*
X122500000Y-59000000D03*
X114500000Y-61000000D03*
X135000000Y-60000000D03*
X122500000Y-63000000D03*
X120000000Y-67500000D03*
X132500000Y-61000000D03*
X123500000Y-66000000D03*
X119500000Y-64000000D03*
X130000000Y-60000000D03*
X117500000Y-65000000D03*
X121500000Y-59000000D03*
X116500000Y-61000000D03*
X126500000Y-61000000D03*
X121500000Y-66000000D03*
X117500000Y-64000000D03*
X128500000Y-61000000D03*
X135000000Y-67500000D03*
X127500000Y-60000000D03*
X135000000Y-65000000D03*
X127500000Y-67500000D03*
X130000000Y-70000000D03*
X132500000Y-60000000D03*
X114500000Y-64000000D03*
X110500000Y-64000000D03*
X122500000Y-57000000D03*
X124500000Y-61000000D03*
X117500000Y-60000000D03*
X122500000Y-62000000D03*
X125500000Y-61000000D03*
X125000000Y-60000000D03*
X132500000Y-57500000D03*
X123500000Y-57000000D03*
X127500000Y-70000000D03*
X111500000Y-61000000D03*
X126500000Y-64000000D03*
X123500000Y-59000000D03*
X125000000Y-57500000D03*
X117500000Y-70000000D03*
X112500000Y-57500000D03*
X116500000Y-64000000D03*
X122500000Y-61000000D03*
X130000000Y-67500000D03*
X115500000Y-61000000D03*
X122500000Y-58000000D03*
X129500000Y-64000000D03*
X127500000Y-64000000D03*
X122500000Y-67000000D03*
X133500000Y-64000000D03*
X121500000Y-58000000D03*
X132500000Y-65000000D03*
X112500000Y-64000000D03*
X119500000Y-66000000D03*
X127500000Y-61000000D03*
X131500000Y-61000000D03*
X134500000Y-64000000D03*
X120000000Y-60000000D03*
X112500000Y-65000000D03*
X132500000Y-64000000D03*
X117500000Y-57500000D03*
X115000000Y-67500000D03*
X112500000Y-61000000D03*
X115500000Y-64000000D03*
X118500000Y-61000000D03*
X125000000Y-67500000D03*
X119500000Y-61000000D03*
X122500000Y-54000000D03*
X130500000Y-64000000D03*
X113500000Y-61000000D03*
X115000000Y-57500000D03*
X133500000Y-61000000D03*
X111500000Y-64000000D03*
X122500000Y-60000000D03*
X129500000Y-61000000D03*
X120000000Y-57500000D03*
X110000000Y-67500000D03*
X125500000Y-66000000D03*
X130000000Y-55000000D03*
X119500000Y-65000000D03*
X128500000Y-64000000D03*
X110000000Y-57500000D03*
X115000000Y-60000000D03*
X131500000Y-64000000D03*
X115000000Y-55000000D03*
X110000000Y-60000000D03*
X123500000Y-60000000D03*
X130500000Y-61000000D03*
X130000000Y-65000000D03*
X121500000Y-68000000D03*
X123500000Y-68000000D03*
X122500000Y-69000000D03*
X123500000Y-61000000D03*
X121500000Y-67000000D03*
X112500000Y-70000000D03*
X122500000Y-71000000D03*
X124500000Y-66000000D03*
X125500000Y-64000000D03*
X110000000Y-65000000D03*
X122500000Y-55000000D03*
X127500000Y-57500000D03*
X122500000Y-56000000D03*
X112500000Y-55000000D03*
X122500000Y-68000000D03*
X132500000Y-55000000D03*
X113500000Y-64000000D03*
X132500000Y-70000000D03*
X123500000Y-67000000D03*
X115000000Y-65000000D03*
%TD*%
D17*
%TO.N,Net-(J1-Pad1)*%
X131500000Y-62500000D02*
X133500000Y-62500000D01*
X129500000Y-62500000D02*
X131500000Y-62500000D01*
X133500000Y-62500000D02*
X136000000Y-62500000D01*
%TO.N,Net-(J2-Pad1)*%
X109000000Y-62500000D02*
X111500000Y-62500000D01*
X113500000Y-62500000D02*
X115500000Y-62500000D01*
X111500000Y-62500000D02*
X113500000Y-62500000D01*
%TO.N,Net-(Z3-Pad2)*%
X126000000Y-62500000D02*
X127675000Y-62500000D01*
%TO.N,Net-(Z4-Pad2)*%
X124175000Y-64412500D02*
X124000000Y-64587500D01*
X124175000Y-62500000D02*
X124175000Y-64412500D01*
X121000000Y-64587500D02*
X124000000Y-64587500D01*
X120825000Y-62500000D02*
X120825000Y-64412500D01*
X120825000Y-64412500D02*
X121000000Y-64587500D01*
%TO.N,Net-(Z7-Pad2)*%
X117325000Y-62500000D02*
X119000000Y-62500000D01*
%TD*%
%TA.AperFunction,Conductor*%
%TO.N,GND*%
G36*
X110459191Y-63119407D02*
G01*
X110495155Y-63168907D01*
X110500000Y-63199500D01*
X110500000Y-63500000D01*
X119901000Y-63500000D01*
X119959191Y-63518907D01*
X119995155Y-63568407D01*
X120000000Y-63599000D01*
X120000000Y-65500000D01*
X125000000Y-65500000D01*
X125000000Y-63599000D01*
X125018907Y-63540809D01*
X125068407Y-63504845D01*
X125099000Y-63500000D01*
X134500000Y-63500000D01*
X134500000Y-63199500D01*
X134518907Y-63141309D01*
X134568407Y-63105345D01*
X134599000Y-63100500D01*
X137201000Y-63100500D01*
X137259191Y-63119407D01*
X137295155Y-63168907D01*
X137300000Y-63199500D01*
X137300000Y-69966040D01*
X137297482Y-69988227D01*
X137294857Y-69999642D01*
X137297318Y-70010517D01*
X137297298Y-70021663D01*
X137297263Y-70021663D01*
X137298081Y-70031724D01*
X137283635Y-70270548D01*
X137283592Y-70271257D01*
X137282152Y-70283116D01*
X137237461Y-70526990D01*
X137234246Y-70544535D01*
X137231387Y-70556135D01*
X137173340Y-70742413D01*
X137152319Y-70809872D01*
X137148080Y-70821050D01*
X137039005Y-71063406D01*
X137033449Y-71073991D01*
X136895962Y-71301422D01*
X136889171Y-71311261D01*
X136725272Y-71520463D01*
X136717345Y-71529412D01*
X136529412Y-71717345D01*
X136520463Y-71725272D01*
X136311261Y-71889171D01*
X136301422Y-71895962D01*
X136073991Y-72033449D01*
X136063406Y-72039005D01*
X135821050Y-72148080D01*
X135809872Y-72152319D01*
X135556135Y-72231387D01*
X135544542Y-72234244D01*
X135283116Y-72282152D01*
X135271266Y-72283591D01*
X135032243Y-72298050D01*
X135022373Y-72297230D01*
X135022373Y-72297375D01*
X135011222Y-72297355D01*
X135000358Y-72294857D01*
X134989486Y-72297317D01*
X134989484Y-72297317D01*
X134988417Y-72297559D01*
X134966568Y-72300000D01*
X110033960Y-72300000D01*
X110011773Y-72297482D01*
X110000358Y-72294857D01*
X109989483Y-72297318D01*
X109978337Y-72297298D01*
X109978337Y-72297263D01*
X109968276Y-72298081D01*
X109728736Y-72283591D01*
X109716884Y-72282152D01*
X109455458Y-72234244D01*
X109443865Y-72231387D01*
X109190128Y-72152319D01*
X109178950Y-72148080D01*
X108936594Y-72039005D01*
X108926009Y-72033449D01*
X108698578Y-71895962D01*
X108688739Y-71889171D01*
X108479537Y-71725272D01*
X108470588Y-71717345D01*
X108282655Y-71529412D01*
X108274728Y-71520463D01*
X108110829Y-71311261D01*
X108104038Y-71301422D01*
X107966551Y-71073991D01*
X107960995Y-71063406D01*
X107851920Y-70821050D01*
X107847681Y-70809872D01*
X107826660Y-70742413D01*
X107768613Y-70556135D01*
X107765754Y-70544535D01*
X107762518Y-70526872D01*
X107717848Y-70283118D01*
X107716408Y-70271256D01*
X107716366Y-70270548D01*
X107701966Y-70032498D01*
X107703702Y-70011805D01*
X107703235Y-70011751D01*
X107703876Y-70006177D01*
X107705142Y-70000716D01*
X107705143Y-70000000D01*
X107702479Y-69988321D01*
X107700000Y-69966304D01*
X107700000Y-69521429D01*
X112916173Y-69521429D01*
X112916544Y-69527012D01*
X112916600Y-69527852D01*
X112916728Y-69538609D01*
X112916462Y-69544855D01*
X112917466Y-69550320D01*
X112917487Y-69550617D01*
X112918828Y-69561368D01*
X112920167Y-69581509D01*
X112920965Y-69593523D01*
X112921182Y-69600487D01*
X112921132Y-69612707D01*
X112922365Y-69618171D01*
X112922505Y-69619448D01*
X112922794Y-69621051D01*
X112923163Y-69626602D01*
X112926697Y-69638417D01*
X112928413Y-69644965D01*
X112933542Y-69667692D01*
X112933816Y-69668907D01*
X112935474Y-69678372D01*
X112936494Y-69686508D01*
X112938417Y-69691764D01*
X112939087Y-69694529D01*
X112939758Y-69696808D01*
X112940771Y-69699727D01*
X112941995Y-69705149D01*
X112944395Y-69710165D01*
X112945837Y-69714319D01*
X112946290Y-69716572D01*
X112948599Y-69721680D01*
X112948600Y-69721683D01*
X112951102Y-69727217D01*
X112953863Y-69733979D01*
X112957820Y-69744794D01*
X112959184Y-69746899D01*
X112962133Y-69753917D01*
X112970689Y-69778665D01*
X112988843Y-69796964D01*
X112997438Y-69806863D01*
X113013011Y-69827399D01*
X113017868Y-69829887D01*
X113046852Y-69874181D01*
X113051024Y-69888379D01*
X113052010Y-69891985D01*
X113054793Y-69902973D01*
X113056157Y-69908358D01*
X113057772Y-69911520D01*
X113058195Y-69912784D01*
X113063998Y-69932532D01*
X113064307Y-69933752D01*
X113064644Y-69937225D01*
X113066420Y-69942534D01*
X113070092Y-69953510D01*
X113071190Y-69957006D01*
X113073845Y-69966040D01*
X113075990Y-69973341D01*
X113077696Y-69976389D01*
X113078140Y-69977569D01*
X113082833Y-69991597D01*
X113082852Y-69991793D01*
X113090055Y-70013187D01*
X113097132Y-70034343D01*
X113097234Y-70034510D01*
X113122031Y-70108162D01*
X113123751Y-70113826D01*
X113155095Y-70229403D01*
X113156949Y-70237608D01*
X113171950Y-70320229D01*
X113174351Y-70333453D01*
X113175693Y-70344114D01*
X113181725Y-70428916D01*
X113181975Y-70435616D01*
X113181982Y-70437774D01*
X113182001Y-70443812D01*
X113181993Y-70445332D01*
X113181647Y-70472671D01*
X113181638Y-70473347D01*
X113172581Y-70513474D01*
X113166434Y-70526831D01*
X113156580Y-70548054D01*
X113155908Y-70549501D01*
X113155024Y-70551246D01*
X113152628Y-70554630D01*
X113146536Y-70569449D01*
X113144764Y-70573499D01*
X113140408Y-70582880D01*
X113140407Y-70582884D01*
X113138071Y-70587914D01*
X113137207Y-70591958D01*
X113136512Y-70593825D01*
X113118878Y-70636719D01*
X113116853Y-70640816D01*
X113114617Y-70645890D01*
X113111795Y-70650729D01*
X113110131Y-70656072D01*
X113108957Y-70659840D01*
X113106005Y-70668028D01*
X113102438Y-70676705D01*
X113101521Y-70682184D01*
X113100077Y-70687246D01*
X113098961Y-70691932D01*
X113086712Y-70731255D01*
X113082990Y-70741267D01*
X113080369Y-70747299D01*
X113079345Y-70752805D01*
X113079167Y-70753388D01*
X113076988Y-70762185D01*
X113076843Y-70762937D01*
X113075190Y-70768245D01*
X113074759Y-70773783D01*
X113074673Y-70774888D01*
X113073303Y-70785306D01*
X113065593Y-70826777D01*
X113065382Y-70827910D01*
X113063312Y-70836760D01*
X113060863Y-70845417D01*
X113060585Y-70851005D01*
X113060020Y-70854445D01*
X113059751Y-70858196D01*
X113058736Y-70863655D01*
X113058960Y-70869204D01*
X113058960Y-70869210D01*
X113059102Y-70872717D01*
X113059061Y-70881630D01*
X113057916Y-70904663D01*
X113056933Y-70924437D01*
X113056842Y-70926258D01*
X113055883Y-70935928D01*
X113054698Y-70943886D01*
X113055136Y-70949471D01*
X113055044Y-70952102D01*
X113055087Y-70955105D01*
X113055265Y-70957955D01*
X113054989Y-70963503D01*
X113055954Y-70968974D01*
X113055954Y-70968977D01*
X113056400Y-70971504D01*
X113057602Y-70980961D01*
X113058023Y-70986329D01*
X113061100Y-71025618D01*
X113061261Y-71035117D01*
X113061358Y-71036523D01*
X113061111Y-71042117D01*
X113062413Y-71049196D01*
X113063744Y-71059372D01*
X113064293Y-71066381D01*
X113065949Y-71071689D01*
X113066183Y-71072903D01*
X113068492Y-71082252D01*
X113076840Y-71127635D01*
X113077470Y-71131480D01*
X113078202Y-71136581D01*
X113078368Y-71142182D01*
X113081326Y-71153503D01*
X113082902Y-71160593D01*
X113084994Y-71171963D01*
X113087187Y-71177063D01*
X113088769Y-71182286D01*
X113089802Y-71185950D01*
X113104382Y-71241751D01*
X113104867Y-71243897D01*
X113105196Y-71248200D01*
X113106863Y-71253545D01*
X113109886Y-71263241D01*
X113111152Y-71267662D01*
X113115089Y-71282730D01*
X113117080Y-71286554D01*
X113117811Y-71288655D01*
X113139278Y-71357500D01*
X113140523Y-71361494D01*
X113140607Y-71361816D01*
X113140791Y-71363726D01*
X113147075Y-71382566D01*
X113147643Y-71384327D01*
X113150273Y-71392764D01*
X113150273Y-71392766D01*
X113149706Y-71392943D01*
X113150138Y-71394019D01*
X113150321Y-71394323D01*
X113150373Y-71394440D01*
X113150475Y-71394403D01*
X113151028Y-71395930D01*
X113151032Y-71395940D01*
X113151713Y-71397817D01*
X113151713Y-71397818D01*
X113151919Y-71398387D01*
X113151926Y-71398409D01*
X113151933Y-71398425D01*
X113152688Y-71400507D01*
X113152698Y-71400538D01*
X113152650Y-71400556D01*
X113153342Y-71402606D01*
X113153466Y-71403003D01*
X113153201Y-71403086D01*
X113153374Y-71403811D01*
X113153825Y-71403648D01*
X113153828Y-71403652D01*
X113156923Y-71412190D01*
X113157734Y-71414525D01*
X113161892Y-71426994D01*
X113161895Y-71426999D01*
X113163654Y-71432275D01*
X113164944Y-71434397D01*
X113165167Y-71434937D01*
X113187612Y-71496864D01*
X113188860Y-71500624D01*
X113189797Y-71505778D01*
X113195343Y-71518681D01*
X113197455Y-71524018D01*
X113202170Y-71537027D01*
X113205003Y-71541428D01*
X113206669Y-71545033D01*
X113207607Y-71547216D01*
X113225957Y-71589908D01*
X113227345Y-71593906D01*
X113227424Y-71593875D01*
X113229478Y-71599087D01*
X113230930Y-71604496D01*
X113235159Y-71612456D01*
X113235802Y-71613666D01*
X113239326Y-71621014D01*
X113243367Y-71630415D01*
X113246642Y-71634904D01*
X113249394Y-71639732D01*
X113249330Y-71639768D01*
X113251576Y-71643355D01*
X113261699Y-71662409D01*
X113269791Y-71677641D01*
X113274054Y-71686969D01*
X113274432Y-71687690D01*
X113276453Y-71692915D01*
X113279595Y-71697555D01*
X113279596Y-71697557D01*
X113280230Y-71698494D01*
X113285683Y-71707554D01*
X113286152Y-71708436D01*
X113288760Y-71713345D01*
X113292391Y-71717547D01*
X113292762Y-71718089D01*
X113299076Y-71726327D01*
X113319419Y-71756371D01*
X113324727Y-71765162D01*
X113328120Y-71771502D01*
X113331803Y-71775724D01*
X113332580Y-71776849D01*
X113336677Y-71782169D01*
X113337683Y-71783346D01*
X113340800Y-71787949D01*
X113344860Y-71791741D01*
X113344863Y-71791745D01*
X113346113Y-71792912D01*
X113353133Y-71800174D01*
X113360405Y-71808509D01*
X113370536Y-71820121D01*
X113372496Y-71822368D01*
X113393034Y-71862762D01*
X113393027Y-71870510D01*
X113397853Y-71880562D01*
X113398633Y-71883994D01*
X113399885Y-71887269D01*
X113401450Y-71898306D01*
X113409169Y-71909850D01*
X113415015Y-71918593D01*
X113421959Y-71930763D01*
X113432525Y-71952766D01*
X113441230Y-71959728D01*
X113443415Y-71962475D01*
X113445972Y-71964892D01*
X113452169Y-71974158D01*
X113466775Y-71982772D01*
X113473185Y-71986553D01*
X113484721Y-71994508D01*
X113503787Y-72009755D01*
X113514654Y-72012253D01*
X113517818Y-72013783D01*
X113521165Y-72014850D01*
X113530766Y-72020513D01*
X113555080Y-72022568D01*
X113559321Y-72023231D01*
X113559327Y-72023175D01*
X113564896Y-72023807D01*
X113570349Y-72025061D01*
X113580401Y-72025061D01*
X113588738Y-72025413D01*
X113621688Y-72028198D01*
X113629195Y-72025336D01*
X113633121Y-72025061D01*
X113673553Y-72025061D01*
X113673610Y-72025074D01*
X113673786Y-72025074D01*
X113683609Y-72025068D01*
X113686736Y-72025066D01*
X113686808Y-72025070D01*
X113687623Y-72025250D01*
X113689879Y-72025230D01*
X113689885Y-72025230D01*
X113708197Y-72025065D01*
X113709087Y-72025061D01*
X113718765Y-72025061D01*
X113718821Y-72025048D01*
X113718861Y-72025048D01*
X113731207Y-72025041D01*
X113732035Y-72024852D01*
X113733025Y-72024842D01*
X113733039Y-72024842D01*
X113735609Y-72024900D01*
X113740037Y-72025651D01*
X113755419Y-72024759D01*
X113760248Y-72024597D01*
X113768460Y-72024523D01*
X113769932Y-72024510D01*
X113775480Y-72024460D01*
X113779854Y-72023421D01*
X113782346Y-72023197D01*
X113783481Y-72023131D01*
X113787033Y-72022988D01*
X113788428Y-72022957D01*
X113792584Y-72022865D01*
X113802460Y-72024541D01*
X113841833Y-72013198D01*
X113844926Y-72012361D01*
X113861906Y-72008060D01*
X113864632Y-72006667D01*
X113865478Y-72006386D01*
X113890142Y-71999281D01*
X113898456Y-71991855D01*
X113903257Y-71989203D01*
X113908436Y-71985654D01*
X113912640Y-71982137D01*
X113922568Y-71977064D01*
X113931394Y-71965450D01*
X113935790Y-71960270D01*
X113944285Y-71954595D01*
X113957503Y-71932205D01*
X113963926Y-71922644D01*
X113971034Y-71913291D01*
X113977779Y-71904416D01*
X113979690Y-71895052D01*
X113981572Y-71891432D01*
X113985003Y-71885619D01*
X113990671Y-71876018D01*
X113991614Y-71864910D01*
X113992688Y-71861546D01*
X113993274Y-71858075D01*
X113997527Y-71847772D01*
X113996285Y-71826039D01*
X113996288Y-71824733D01*
X113998649Y-71816692D01*
X113995059Y-71794857D01*
X113993908Y-71784444D01*
X113992957Y-71767806D01*
X113992321Y-71756673D01*
X113986920Y-71746918D01*
X113986607Y-71745836D01*
X113983465Y-71739287D01*
X113980358Y-71731705D01*
X113979507Y-71729557D01*
X113975764Y-71719777D01*
X113964371Y-71690013D01*
X113956263Y-71682357D01*
X113951752Y-71675618D01*
X113949191Y-71672626D01*
X113942173Y-71662409D01*
X113937990Y-71655770D01*
X113932565Y-71646349D01*
X113928756Y-71642249D01*
X113927445Y-71640471D01*
X113925800Y-71638573D01*
X113922655Y-71633993D01*
X113918570Y-71630228D01*
X113918566Y-71630223D01*
X113914594Y-71626562D01*
X113909159Y-71621148D01*
X113899350Y-71610588D01*
X113893250Y-71603356D01*
X113891536Y-71601115D01*
X113891532Y-71601111D01*
X113888130Y-71596663D01*
X113887279Y-71595958D01*
X113863628Y-71553381D01*
X113862334Y-71548275D01*
X113861478Y-71544604D01*
X113849962Y-71490467D01*
X113849507Y-71488198D01*
X113835607Y-71414404D01*
X113835347Y-71412967D01*
X113819154Y-71319437D01*
X113818999Y-71318516D01*
X113810692Y-71267687D01*
X113801278Y-71210087D01*
X113800245Y-71201317D01*
X113797179Y-71159230D01*
X113796946Y-71149628D01*
X113798118Y-71101479D01*
X113798690Y-71092999D01*
X113803413Y-71050317D01*
X113803617Y-71048475D01*
X113805375Y-71037882D01*
X113807880Y-71026614D01*
X113830094Y-70982817D01*
X113847690Y-70962756D01*
X113849931Y-70960286D01*
X113876051Y-70932456D01*
X113876299Y-70932215D01*
X113877905Y-70931090D01*
X113891139Y-70916408D01*
X113892427Y-70915009D01*
X113902623Y-70904146D01*
X113902627Y-70904141D01*
X113905820Y-70900739D01*
X113906811Y-70899046D01*
X113907038Y-70898769D01*
X113910042Y-70895437D01*
X113930521Y-70872717D01*
X113940989Y-70861104D01*
X113944071Y-70858140D01*
X113944019Y-70858091D01*
X113947891Y-70854044D01*
X113952194Y-70850461D01*
X113958420Y-70842276D01*
X113963662Y-70835950D01*
X113970427Y-70828445D01*
X113973137Y-70823592D01*
X113976372Y-70819075D01*
X113976421Y-70819110D01*
X113978759Y-70815541D01*
X114007001Y-70778415D01*
X114013749Y-70770453D01*
X114014674Y-70769472D01*
X114014675Y-70769470D01*
X114018516Y-70765395D01*
X114021347Y-70760560D01*
X114021983Y-70759711D01*
X114026241Y-70753352D01*
X114026873Y-70752293D01*
X114030237Y-70747871D01*
X114032532Y-70742813D01*
X114032535Y-70742809D01*
X114033142Y-70741471D01*
X114037862Y-70732358D01*
X114061212Y-70692483D01*
X114065765Y-70685414D01*
X114068314Y-70681803D01*
X114068316Y-70681799D01*
X114071546Y-70677224D01*
X114073669Y-70672042D01*
X114075011Y-70669595D01*
X114076254Y-70666793D01*
X114079059Y-70662002D01*
X114082100Y-70652359D01*
X114084896Y-70644627D01*
X114101927Y-70603043D01*
X114105892Y-70594540D01*
X114109848Y-70587011D01*
X114111276Y-70581596D01*
X114112506Y-70578433D01*
X114112783Y-70577604D01*
X114113771Y-70574124D01*
X114115878Y-70568978D01*
X114117285Y-70560496D01*
X114119219Y-70551471D01*
X114119495Y-70550426D01*
X114129725Y-70511630D01*
X114130592Y-70508701D01*
X114132617Y-70504295D01*
X114133756Y-70498809D01*
X114133757Y-70498805D01*
X114135619Y-70489832D01*
X114136818Y-70484736D01*
X114140545Y-70470601D01*
X114140665Y-70467022D01*
X114141008Y-70465181D01*
X114141743Y-70461935D01*
X114165383Y-70416834D01*
X114170356Y-70411419D01*
X114223642Y-70381349D01*
X114284427Y-70388342D01*
X114291649Y-70392008D01*
X114322527Y-70409307D01*
X114328048Y-70412643D01*
X114334241Y-70416666D01*
X114334246Y-70416669D01*
X114338941Y-70419718D01*
X114344197Y-70421637D01*
X114345031Y-70422053D01*
X114345475Y-70422227D01*
X114345930Y-70422419D01*
X114350784Y-70425138D01*
X114363341Y-70428837D01*
X114369272Y-70430791D01*
X114438254Y-70455971D01*
X114448932Y-70459869D01*
X114456625Y-70463242D01*
X114458778Y-70464061D01*
X114463757Y-70466631D01*
X114469181Y-70468019D01*
X114469185Y-70468020D01*
X114471331Y-70468569D01*
X114480750Y-70471484D01*
X114487932Y-70474106D01*
X114493446Y-70474803D01*
X114495496Y-70475300D01*
X114503900Y-70476900D01*
X114535269Y-70484924D01*
X114539039Y-70485969D01*
X114543743Y-70487374D01*
X114548893Y-70489571D01*
X114554407Y-70490559D01*
X114560495Y-70491650D01*
X114567544Y-70493180D01*
X114578811Y-70496062D01*
X114584366Y-70496207D01*
X114589469Y-70496917D01*
X114593284Y-70497524D01*
X114600434Y-70498805D01*
X114636088Y-70505193D01*
X114639913Y-70506180D01*
X114639950Y-70506007D01*
X114645422Y-70507193D01*
X114650724Y-70508988D01*
X114660993Y-70510023D01*
X114661904Y-70510115D01*
X114669422Y-70511166D01*
X114680305Y-70513115D01*
X114685851Y-70512854D01*
X114691402Y-70513216D01*
X114691392Y-70513377D01*
X114695340Y-70513484D01*
X114746429Y-70518632D01*
X114751175Y-70519226D01*
X114751899Y-70519335D01*
X114757313Y-70520785D01*
X114763658Y-70521012D01*
X114770352Y-70521251D01*
X114776740Y-70521687D01*
X114784016Y-70522420D01*
X114784019Y-70522420D01*
X114789546Y-70522977D01*
X114795055Y-70522291D01*
X114796014Y-70522280D01*
X114800705Y-70522336D01*
X114823169Y-70523139D01*
X114865345Y-70524646D01*
X114867706Y-70524807D01*
X114872057Y-70525750D01*
X114879273Y-70525659D01*
X114880140Y-70525929D01*
X114883235Y-70526241D01*
X114883171Y-70526872D01*
X114937696Y-70543831D01*
X114974281Y-70592874D01*
X114979391Y-70619599D01*
X114979940Y-70630343D01*
X114980066Y-70634591D01*
X114980117Y-70640816D01*
X114980197Y-70650713D01*
X114981119Y-70654607D01*
X114981273Y-70656400D01*
X114984209Y-70713824D01*
X114984490Y-70719325D01*
X114984494Y-70719855D01*
X114984133Y-70722245D01*
X114985576Y-70741162D01*
X114985733Y-70743633D01*
X114986415Y-70756976D01*
X114986694Y-70762430D01*
X114987349Y-70764749D01*
X114987414Y-70765290D01*
X114988761Y-70782954D01*
X114988766Y-70783153D01*
X114988574Y-70784562D01*
X114988901Y-70788155D01*
X114988901Y-70788172D01*
X114990433Y-70805020D01*
X114990551Y-70806425D01*
X114992102Y-70826777D01*
X114992526Y-70828144D01*
X114992550Y-70828321D01*
X114995261Y-70858140D01*
X114995279Y-70858342D01*
X114995322Y-70859210D01*
X114995011Y-70862185D01*
X114995693Y-70867747D01*
X114997207Y-70880104D01*
X114997536Y-70883188D01*
X114999151Y-70900963D01*
X115000074Y-70903798D01*
X115000216Y-70904663D01*
X115002640Y-70924437D01*
X115002846Y-70926738D01*
X115002598Y-70931113D01*
X115003542Y-70936629D01*
X115003542Y-70936632D01*
X115005232Y-70946510D01*
X115005914Y-70951159D01*
X115007116Y-70960962D01*
X115007117Y-70960967D01*
X115007793Y-70966481D01*
X115009280Y-70970601D01*
X115009746Y-70972880D01*
X115012048Y-70986329D01*
X115012530Y-70989735D01*
X115012524Y-70994755D01*
X115015677Y-71008540D01*
X115015747Y-71008845D01*
X115016820Y-71014219D01*
X115018287Y-71022794D01*
X115018288Y-71022799D01*
X115019225Y-71028271D01*
X115021148Y-71032899D01*
X115022014Y-71036242D01*
X115024808Y-71048461D01*
X115025253Y-71050745D01*
X115025460Y-71055165D01*
X115026968Y-71060555D01*
X115026969Y-71060559D01*
X115029649Y-71070134D01*
X115030820Y-71074742D01*
X115031420Y-71077365D01*
X115034247Y-71089726D01*
X115036165Y-71093707D01*
X115036881Y-71095981D01*
X115041304Y-71111791D01*
X115041492Y-71112587D01*
X115041717Y-71115489D01*
X115047153Y-71132857D01*
X115047995Y-71135699D01*
X115052847Y-71153038D01*
X115054237Y-71155600D01*
X115054511Y-71156363D01*
X115067767Y-71198716D01*
X115068030Y-71199572D01*
X115080667Y-71241267D01*
X115081514Y-71244225D01*
X115096595Y-71300210D01*
X115097335Y-71303137D01*
X115109720Y-71355503D01*
X115110578Y-71359497D01*
X115118837Y-71402217D01*
X115119241Y-71404448D01*
X115120747Y-71413328D01*
X115128895Y-71461395D01*
X115129018Y-71462351D01*
X115128939Y-71465477D01*
X115130056Y-71470961D01*
X115132484Y-71482885D01*
X115133082Y-71486091D01*
X115136032Y-71503496D01*
X115137227Y-71506384D01*
X115137462Y-71507343D01*
X115143896Y-71538942D01*
X115144445Y-71542110D01*
X115144587Y-71547023D01*
X115146000Y-71552444D01*
X115148277Y-71561182D01*
X115149485Y-71566393D01*
X115151262Y-71575120D01*
X115151264Y-71575125D01*
X115152372Y-71580569D01*
X115154398Y-71585043D01*
X115155312Y-71588176D01*
X115155918Y-71590499D01*
X115159755Y-71605222D01*
X115160643Y-71608921D01*
X115161837Y-71614354D01*
X115162415Y-71619933D01*
X115166167Y-71630910D01*
X115168288Y-71637963D01*
X115169767Y-71643640D01*
X115169769Y-71643644D01*
X115171169Y-71649018D01*
X115173732Y-71653951D01*
X115175724Y-71659131D01*
X115175526Y-71659207D01*
X115177035Y-71662716D01*
X115179879Y-71671040D01*
X115180969Y-71675172D01*
X115181036Y-71675151D01*
X115182687Y-71680493D01*
X115183727Y-71686002D01*
X115187306Y-71694176D01*
X115187839Y-71695395D01*
X115190827Y-71703077D01*
X115192287Y-71707349D01*
X115192289Y-71707354D01*
X115193806Y-71711792D01*
X115194085Y-71712609D01*
X115193918Y-71712666D01*
X115201356Y-71770797D01*
X115197845Y-71781458D01*
X115195914Y-71789887D01*
X115191070Y-71799930D01*
X115191060Y-71811079D01*
X115191060Y-71811080D01*
X115191048Y-71824818D01*
X115191031Y-71825170D01*
X115190633Y-71827087D01*
X115190723Y-71831755D01*
X115191009Y-71846608D01*
X115191027Y-71848601D01*
X115190990Y-71891177D01*
X115191905Y-71893083D01*
X115191946Y-71895197D01*
X115202846Y-71916772D01*
X115211161Y-71933230D01*
X115212039Y-71935014D01*
X115230488Y-71973433D01*
X115232140Y-71974754D01*
X115233093Y-71976640D01*
X115241084Y-71982771D01*
X115241085Y-71982772D01*
X115249468Y-71989203D01*
X115266915Y-72002589D01*
X115268378Y-72003734D01*
X115301750Y-72030422D01*
X115303812Y-72030896D01*
X115305489Y-72032183D01*
X115315353Y-72034243D01*
X115347163Y-72040886D01*
X115349109Y-72041313D01*
X115363751Y-72044680D01*
X115363763Y-72044682D01*
X115368312Y-72045728D01*
X115370271Y-72045728D01*
X115370610Y-72045783D01*
X115394809Y-72050836D01*
X115405630Y-72048157D01*
X115407937Y-72048115D01*
X115427514Y-72045728D01*
X115647521Y-72045728D01*
X115655324Y-72046036D01*
X115666313Y-72046905D01*
X115676952Y-72050233D01*
X115687982Y-72048618D01*
X115700591Y-72046772D01*
X115704602Y-72046480D01*
X115704587Y-72046350D01*
X115710108Y-72045728D01*
X115715667Y-72045728D01*
X115726107Y-72043346D01*
X115733774Y-72041913D01*
X115756206Y-72038629D01*
X115767237Y-72037014D01*
X115774057Y-72032409D01*
X115782083Y-72030578D01*
X115791198Y-72023315D01*
X115808544Y-72009492D01*
X115814839Y-72004870D01*
X115833617Y-71992190D01*
X115842858Y-71985950D01*
X115847006Y-71978843D01*
X115853444Y-71973713D01*
X115868137Y-71943252D01*
X115871801Y-71936364D01*
X115883236Y-71916772D01*
X115883237Y-71916770D01*
X115888855Y-71907144D01*
X115889511Y-71898938D01*
X115893086Y-71891526D01*
X115893100Y-71876018D01*
X115893116Y-71857705D01*
X115893431Y-71849905D01*
X115895238Y-71827301D01*
X115895238Y-71827299D01*
X115896126Y-71816187D01*
X115893159Y-71808509D01*
X115893166Y-71800279D01*
X115888342Y-71790233D01*
X115888341Y-71790229D01*
X115878524Y-71769786D01*
X115875428Y-71762630D01*
X115871506Y-71752480D01*
X115868368Y-71747842D01*
X115865772Y-71742877D01*
X115865900Y-71742810D01*
X115863895Y-71739321D01*
X115858496Y-71728076D01*
X115858494Y-71728074D01*
X115853668Y-71718023D01*
X115844959Y-71711058D01*
X115838022Y-71702337D01*
X115838667Y-71701824D01*
X115833320Y-71696036D01*
X115820994Y-71677817D01*
X115817736Y-71672667D01*
X115816994Y-71671410D01*
X115804110Y-71634106D01*
X115802851Y-71624617D01*
X115802672Y-71623167D01*
X115800367Y-71603165D01*
X115800367Y-71603164D01*
X115800548Y-71603143D01*
X115800313Y-71601326D01*
X115800033Y-71601367D01*
X115797032Y-71580673D01*
X115796866Y-71579480D01*
X115794552Y-71562030D01*
X115794552Y-71562029D01*
X115794142Y-71558939D01*
X115793724Y-71557814D01*
X115793699Y-71557688D01*
X115792180Y-71547216D01*
X115792173Y-71547143D01*
X115792232Y-71546354D01*
X115791097Y-71538942D01*
X115788958Y-71524976D01*
X115788842Y-71524197D01*
X115786100Y-71505291D01*
X115785791Y-71503159D01*
X115785506Y-71502422D01*
X115785495Y-71502368D01*
X115782890Y-71485367D01*
X115782885Y-71485315D01*
X115782934Y-71484585D01*
X115779514Y-71463310D01*
X115779404Y-71462610D01*
X115776450Y-71443322D01*
X115776144Y-71441323D01*
X115775874Y-71440639D01*
X115775861Y-71440579D01*
X115769427Y-71400556D01*
X115769149Y-71398824D01*
X115764690Y-71371058D01*
X115764351Y-71368771D01*
X115755722Y-71305565D01*
X115755091Y-71299599D01*
X115752070Y-71259435D01*
X115751810Y-71250082D01*
X115751848Y-71248162D01*
X115752312Y-71224305D01*
X115753135Y-71213350D01*
X115756376Y-71188657D01*
X115758051Y-71179356D01*
X115762360Y-71160618D01*
X115766562Y-71142339D01*
X115768071Y-71136581D01*
X115785496Y-71077365D01*
X115785830Y-71076253D01*
X115799581Y-71031468D01*
X115799696Y-71031147D01*
X115800625Y-71029464D01*
X115801888Y-71025041D01*
X115801894Y-71025024D01*
X115806062Y-71010423D01*
X115806620Y-71008540D01*
X115811003Y-70994266D01*
X115812358Y-70989853D01*
X115812499Y-70987935D01*
X115812578Y-70987602D01*
X115822735Y-70952030D01*
X115823022Y-70951159D01*
X115824403Y-70948457D01*
X115825768Y-70943025D01*
X115825770Y-70943020D01*
X115828780Y-70931044D01*
X115829599Y-70927992D01*
X115832951Y-70916253D01*
X115832952Y-70916249D01*
X115834478Y-70910904D01*
X115834642Y-70907867D01*
X115834828Y-70906976D01*
X115835539Y-70904146D01*
X115842626Y-70875948D01*
X115842960Y-70874807D01*
X115844409Y-70871697D01*
X115848025Y-70854731D01*
X115848827Y-70851280D01*
X115851645Y-70840065D01*
X115851645Y-70840063D01*
X115853000Y-70834672D01*
X115853076Y-70831252D01*
X115853285Y-70830047D01*
X115860089Y-70798116D01*
X115860309Y-70797258D01*
X115861488Y-70794505D01*
X115862483Y-70788991D01*
X115862485Y-70788984D01*
X115864693Y-70776748D01*
X115865293Y-70773695D01*
X115866193Y-70769472D01*
X115869009Y-70756260D01*
X115868966Y-70753263D01*
X115869087Y-70752390D01*
X115870668Y-70743633D01*
X115876048Y-70713818D01*
X115876132Y-70713454D01*
X115876898Y-70711554D01*
X115879962Y-70692256D01*
X115880309Y-70690207D01*
X115880844Y-70687246D01*
X115883760Y-70671083D01*
X115883666Y-70669039D01*
X115883711Y-70668640D01*
X115891682Y-70618436D01*
X115891685Y-70618424D01*
X115891727Y-70618318D01*
X115892398Y-70614065D01*
X115895313Y-70595565D01*
X115895330Y-70595456D01*
X115898712Y-70574152D01*
X115898763Y-70573831D01*
X115898755Y-70573722D01*
X115898756Y-70573715D01*
X115902800Y-70548054D01*
X115903131Y-70546089D01*
X115911299Y-70500440D01*
X115939106Y-70447893D01*
X115941592Y-70445954D01*
X115944678Y-70442170D01*
X115950411Y-70437063D01*
X115950434Y-70437044D01*
X115955154Y-70434034D01*
X115962360Y-70426706D01*
X115963861Y-70425180D01*
X115968799Y-70420492D01*
X115969673Y-70419718D01*
X115977979Y-70412360D01*
X115981091Y-70408016D01*
X115990445Y-70399113D01*
X115991339Y-70398198D01*
X115995675Y-70394660D01*
X115999109Y-70390240D01*
X115999342Y-70390001D01*
X116005889Y-70382517D01*
X116006191Y-70382132D01*
X116010087Y-70378170D01*
X116013002Y-70373445D01*
X116013005Y-70373441D01*
X116013462Y-70372700D01*
X116019538Y-70363944D01*
X116026167Y-70355411D01*
X116032898Y-70347620D01*
X116033971Y-70346501D01*
X116037848Y-70342459D01*
X116040717Y-70337657D01*
X116041522Y-70336602D01*
X116045392Y-70330938D01*
X116046175Y-70329655D01*
X116049583Y-70325269D01*
X116051928Y-70320238D01*
X116051934Y-70320229D01*
X116052649Y-70318695D01*
X116057385Y-70309760D01*
X116063442Y-70299621D01*
X116065735Y-70296359D01*
X116065597Y-70296270D01*
X116068638Y-70291567D01*
X116072189Y-70287239D01*
X116075033Y-70281516D01*
X116077145Y-70277265D01*
X116080813Y-70270548D01*
X116083587Y-70265905D01*
X116083592Y-70265893D01*
X116086441Y-70261125D01*
X116088159Y-70255840D01*
X116090456Y-70250783D01*
X116090594Y-70250846D01*
X116092099Y-70247164D01*
X116109132Y-70212878D01*
X116110042Y-70211092D01*
X116163966Y-70107847D01*
X116169127Y-70099092D01*
X116211929Y-70034343D01*
X116234728Y-69999853D01*
X116241496Y-69990787D01*
X116252579Y-69977589D01*
X116325556Y-69890681D01*
X116327748Y-69888159D01*
X116359619Y-69852706D01*
X116362888Y-69849241D01*
X116363467Y-69848656D01*
X116367831Y-69845146D01*
X116375890Y-69834917D01*
X116380026Y-69830006D01*
X116384887Y-69824598D01*
X116384888Y-69824597D01*
X116388606Y-69820461D01*
X116391310Y-69815605D01*
X116391907Y-69814768D01*
X116394712Y-69811029D01*
X116421649Y-69776841D01*
X116427780Y-69769979D01*
X116428817Y-69768691D01*
X116432795Y-69764756D01*
X116436750Y-69758515D01*
X116442603Y-69750248D01*
X116443627Y-69748948D01*
X116443628Y-69748947D01*
X116447070Y-69744578D01*
X116449454Y-69739553D01*
X116450222Y-69738316D01*
X116454735Y-69730133D01*
X116476227Y-69696217D01*
X116482677Y-69687199D01*
X116482890Y-69686934D01*
X116486398Y-69682569D01*
X116488878Y-69677447D01*
X116494309Y-69667692D01*
X116494333Y-69667643D01*
X116497304Y-69662954D01*
X116499313Y-69657285D01*
X116503523Y-69647210D01*
X116520579Y-69611989D01*
X116524048Y-69605881D01*
X116525609Y-69602801D01*
X116528685Y-69598126D01*
X116530634Y-69592884D01*
X116530638Y-69592876D01*
X116531649Y-69590156D01*
X116535340Y-69581509D01*
X116536549Y-69579013D01*
X116536551Y-69579007D01*
X116538971Y-69574010D01*
X116540221Y-69568593D01*
X116541288Y-69565564D01*
X116543361Y-69558652D01*
X116544471Y-69555667D01*
X116557595Y-69520368D01*
X116559229Y-69516900D01*
X116559001Y-69516805D01*
X116561153Y-69511635D01*
X116563874Y-69506742D01*
X116565430Y-69501362D01*
X116567096Y-69495600D01*
X116569405Y-69488604D01*
X116571437Y-69483138D01*
X116571438Y-69483136D01*
X116573373Y-69477930D01*
X116574103Y-69472424D01*
X116575444Y-69467032D01*
X116575637Y-69467080D01*
X116576424Y-69463334D01*
X116594906Y-69399405D01*
X116596070Y-69395658D01*
X116597652Y-69390901D01*
X116600007Y-69385821D01*
X116602434Y-69374323D01*
X116604196Y-69367269D01*
X116607407Y-69356165D01*
X116607725Y-69350613D01*
X116608620Y-69345378D01*
X116609339Y-69341613D01*
X116610259Y-69337259D01*
X116625537Y-69264882D01*
X116626683Y-69260055D01*
X116628712Y-69254843D01*
X116630638Y-69241667D01*
X116631731Y-69235545D01*
X116633298Y-69228122D01*
X116633298Y-69228117D01*
X116634445Y-69222685D01*
X116634355Y-69217133D01*
X116634375Y-69216926D01*
X116634961Y-69212091D01*
X116648507Y-69119406D01*
X116648973Y-69116791D01*
X116650426Y-69112421D01*
X116651869Y-69097260D01*
X116652465Y-69092324D01*
X116653833Y-69082963D01*
X116654637Y-69077464D01*
X116654273Y-69072873D01*
X116654442Y-69070224D01*
X116664767Y-68961740D01*
X116664789Y-68961592D01*
X116665166Y-68960408D01*
X116666889Y-68939526D01*
X116666997Y-68938312D01*
X116667523Y-68932787D01*
X116668947Y-68917823D01*
X116668787Y-68916597D01*
X116668792Y-68916459D01*
X116669280Y-68910541D01*
X116669444Y-68908749D01*
X116673711Y-68866411D01*
X116676445Y-68839285D01*
X116676625Y-68837646D01*
X116676725Y-68836804D01*
X116685869Y-68759417D01*
X116686052Y-68757958D01*
X116691048Y-68720478D01*
X116696510Y-68679507D01*
X116696752Y-68677802D01*
X116696822Y-68677343D01*
X116707456Y-68607028D01*
X116707660Y-68605733D01*
X116713362Y-68571157D01*
X116713497Y-68570362D01*
X116722980Y-68516040D01*
X116723482Y-68513381D01*
X116724535Y-68508194D01*
X116730445Y-68479060D01*
X116731597Y-68474052D01*
X116736322Y-68455710D01*
X116738435Y-68448618D01*
X116742048Y-68437962D01*
X116744692Y-68431028D01*
X116744777Y-68430829D01*
X116750854Y-68416532D01*
X116752829Y-68412183D01*
X116756985Y-68403589D01*
X116757664Y-68403917D01*
X116757689Y-68403865D01*
X116757022Y-68403543D01*
X116766905Y-68383068D01*
X116766933Y-68383010D01*
X116769627Y-68377438D01*
X116770082Y-68376583D01*
X116772041Y-68373959D01*
X116779122Y-68357897D01*
X116780554Y-68354793D01*
X116784146Y-68347352D01*
X116826471Y-68303167D01*
X116871963Y-68291693D01*
X116874872Y-68292019D01*
X116880434Y-68291380D01*
X116880437Y-68291380D01*
X116889176Y-68290376D01*
X116894666Y-68289900D01*
X116903303Y-68289392D01*
X116903308Y-68289391D01*
X116908860Y-68289065D01*
X116912663Y-68287959D01*
X116923416Y-68286848D01*
X116924622Y-68286806D01*
X116927519Y-68286705D01*
X116927521Y-68286705D01*
X116933116Y-68286509D01*
X116935388Y-68285902D01*
X116941454Y-68286690D01*
X116952039Y-68283190D01*
X116976579Y-68275076D01*
X116982110Y-68273425D01*
X116989994Y-68271319D01*
X116990001Y-68271316D01*
X116995367Y-68269883D01*
X116999731Y-68267582D01*
X117008371Y-68266316D01*
X117017608Y-68260077D01*
X117017610Y-68260076D01*
X117026112Y-68254333D01*
X117035349Y-68248801D01*
X117045758Y-68243312D01*
X117045760Y-68243310D01*
X117055624Y-68238109D01*
X117061109Y-68230695D01*
X117064969Y-68228088D01*
X117075251Y-68217067D01*
X117078739Y-68213512D01*
X117082020Y-68210332D01*
X117088432Y-68204635D01*
X117102845Y-68192908D01*
X117106283Y-68190235D01*
X117108183Y-68188824D01*
X117112985Y-68186031D01*
X117121987Y-68177628D01*
X117127060Y-68173205D01*
X117132437Y-68168830D01*
X117132438Y-68168829D01*
X117136778Y-68165298D01*
X117140216Y-68160885D01*
X117141731Y-68159337D01*
X117144918Y-68156225D01*
X117154635Y-68147155D01*
X117154636Y-68147154D01*
X117162784Y-68139548D01*
X117164958Y-68133964D01*
X117165432Y-68133299D01*
X117173759Y-68125888D01*
X117188884Y-68089608D01*
X117190551Y-68085835D01*
X117207208Y-68050223D01*
X117207042Y-68035247D01*
X117208437Y-68017556D01*
X117208915Y-68014743D01*
X117209515Y-68012879D01*
X117209547Y-68012511D01*
X117210487Y-68009259D01*
X117210806Y-68003519D01*
X117212063Y-67992365D01*
X117212999Y-67986878D01*
X117212692Y-67981330D01*
X117213008Y-67975782D01*
X117213029Y-67975783D01*
X117213101Y-67971023D01*
X117214395Y-67955913D01*
X117214811Y-67951987D01*
X117216412Y-67939319D01*
X117216451Y-67939100D01*
X117216969Y-67937617D01*
X117217398Y-67933725D01*
X117217400Y-67933714D01*
X117217616Y-67931756D01*
X117218258Y-67928259D01*
X117221804Y-67921408D01*
X117222782Y-67887801D01*
X117223336Y-67879837D01*
X117223868Y-67875010D01*
X117223868Y-67875006D01*
X117224477Y-67869481D01*
X117223842Y-67863963D01*
X117223836Y-67861206D01*
X117223628Y-67858736D01*
X117223791Y-67853138D01*
X117221944Y-67843881D01*
X117220037Y-67823574D01*
X117220071Y-67820045D01*
X117220070Y-67820040D01*
X117220176Y-67808895D01*
X117215439Y-67798807D01*
X117215438Y-67798803D01*
X117201914Y-67770005D01*
X117201178Y-67768400D01*
X117188175Y-67739376D01*
X117188174Y-67739375D01*
X117183617Y-67729203D01*
X117173960Y-67721052D01*
X117162307Y-67708520D01*
X117162176Y-67708640D01*
X117158403Y-67704520D01*
X117155107Y-67699986D01*
X117152306Y-67697548D01*
X117150125Y-67694767D01*
X117145816Y-67691272D01*
X117145811Y-67691267D01*
X117136569Y-67683771D01*
X117133937Y-67681559D01*
X117126869Y-67675407D01*
X117124938Y-67673617D01*
X117122049Y-67670035D01*
X117110069Y-67660621D01*
X117106253Y-67657464D01*
X117094908Y-67647589D01*
X117096011Y-67646321D01*
X117063360Y-67603603D01*
X117058185Y-67580070D01*
X117057667Y-67574601D01*
X117057667Y-67574600D01*
X117057139Y-67569028D01*
X117055557Y-67564261D01*
X117054949Y-67560898D01*
X117051105Y-67535461D01*
X117044837Y-67526271D01*
X117044703Y-67525934D01*
X117044703Y-67525931D01*
X117044323Y-67524974D01*
X117044193Y-67524646D01*
X117040926Y-67516328D01*
X117040790Y-67516072D01*
X117034352Y-67499850D01*
X117032417Y-67494536D01*
X117028042Y-67481355D01*
X117025372Y-67476948D01*
X117025111Y-67476340D01*
X117024812Y-67475814D01*
X117022859Y-67470894D01*
X117015030Y-67459544D01*
X117011861Y-67454646D01*
X116998523Y-67432631D01*
X116998522Y-67432630D01*
X116992743Y-67423091D01*
X116987894Y-67419932D01*
X116986702Y-67418477D01*
X116980170Y-67409006D01*
X116978930Y-67407164D01*
X116978710Y-67406828D01*
X116968217Y-67390858D01*
X116966553Y-67389266D01*
X116965343Y-67387511D01*
X116950857Y-67374212D01*
X116949381Y-67372828D01*
X116934161Y-67358261D01*
X116905195Y-67304366D01*
X116908375Y-67259340D01*
X116908074Y-67259276D01*
X116908534Y-67257096D01*
X116908640Y-67255596D01*
X116910968Y-67248571D01*
X116911474Y-67243303D01*
X116912434Y-67239284D01*
X116915797Y-67226690D01*
X116917568Y-67220801D01*
X116920064Y-67213346D01*
X116920064Y-67213345D01*
X116921844Y-67208029D01*
X116922381Y-67202511D01*
X116922544Y-67201832D01*
X116922636Y-67201089D01*
X116924030Y-67195869D01*
X116924234Y-67190317D01*
X116925057Y-67184828D01*
X116925939Y-67184960D01*
X116927500Y-67176456D01*
X116928132Y-67170301D01*
X116931709Y-67159739D01*
X116928833Y-67136274D01*
X116928831Y-67136246D01*
X116928881Y-67135726D01*
X116928695Y-67134269D01*
X116928694Y-67134260D01*
X116926111Y-67114072D01*
X116926047Y-67113557D01*
X116924079Y-67097504D01*
X116923398Y-67091948D01*
X116923217Y-67091449D01*
X116923195Y-67091275D01*
X116923444Y-67085020D01*
X116923389Y-67084892D01*
X116923450Y-67084118D01*
X116922495Y-67081512D01*
X116921955Y-67081581D01*
X116921652Y-67079216D01*
X116920237Y-67068154D01*
X116914004Y-67058553D01*
X116906482Y-67043442D01*
X116906466Y-67043450D01*
X116903998Y-67038470D01*
X116902102Y-67033244D01*
X116899176Y-67028702D01*
X116897318Y-67024698D01*
X116891611Y-67011521D01*
X116891610Y-67011519D01*
X116887179Y-67001289D01*
X116878750Y-66993993D01*
X116875354Y-66989364D01*
X116871248Y-66985349D01*
X116865211Y-66975976D01*
X116855706Y-66970149D01*
X116843709Y-66962794D01*
X116839730Y-66960214D01*
X116835541Y-66956587D01*
X116830593Y-66953964D01*
X116828205Y-66952328D01*
X116822200Y-66947476D01*
X116819781Y-66946044D01*
X116811689Y-66938374D01*
X116795320Y-66933129D01*
X116787419Y-66928285D01*
X116780820Y-66927613D01*
X116765997Y-66923618D01*
X116761550Y-66922307D01*
X116751985Y-66919242D01*
X116751984Y-66919242D01*
X116746648Y-66917532D01*
X116742342Y-66917169D01*
X116740221Y-66916672D01*
X116725965Y-66912830D01*
X116725963Y-66912830D01*
X116715199Y-66909929D01*
X116704240Y-66911983D01*
X116697120Y-66911706D01*
X116687664Y-66908911D01*
X116654757Y-66914260D01*
X116646655Y-66915236D01*
X116636549Y-66916032D01*
X116631245Y-66917689D01*
X116625795Y-66918741D01*
X116625781Y-66918670D01*
X116622050Y-66919551D01*
X116621929Y-66919597D01*
X116620250Y-66919870D01*
X116620114Y-66919925D01*
X116610593Y-66921269D01*
X116607244Y-66923505D01*
X116599985Y-66923896D01*
X116590217Y-66929262D01*
X116587210Y-66930120D01*
X116587003Y-66930208D01*
X116582168Y-66933023D01*
X116571527Y-66936348D01*
X116565104Y-66942349D01*
X116565051Y-66942378D01*
X116559902Y-66944477D01*
X116555348Y-66947670D01*
X116554854Y-66948016D01*
X116545695Y-66953720D01*
X116542893Y-66955258D01*
X116480469Y-66966384D01*
X116465281Y-66964094D01*
X116465279Y-66964094D01*
X116454260Y-66962433D01*
X116446600Y-66964793D01*
X116441237Y-66964188D01*
X116430714Y-66967865D01*
X116430712Y-66967865D01*
X116418736Y-66972049D01*
X116414882Y-66973087D01*
X116414924Y-66973220D01*
X116409623Y-66974874D01*
X116404166Y-66975926D01*
X116394667Y-66980106D01*
X116383959Y-66984097D01*
X116377711Y-66986022D01*
X116377709Y-66986023D01*
X116367059Y-66989305D01*
X116364867Y-66991337D01*
X116360931Y-66992172D01*
X116360971Y-66992226D01*
X116360095Y-66992877D01*
X116360996Y-66994925D01*
X116341815Y-67003366D01*
X116334567Y-67011839D01*
X116328429Y-67016398D01*
X116327974Y-67016838D01*
X116324343Y-67019740D01*
X116319641Y-67022702D01*
X116315714Y-67026637D01*
X116314605Y-67027748D01*
X116303626Y-67037243D01*
X116302991Y-67037715D01*
X116298150Y-67040530D01*
X116289492Y-67048638D01*
X116288840Y-67049249D01*
X116283874Y-67053598D01*
X116274148Y-67061559D01*
X116270736Y-67065950D01*
X116269478Y-67067241D01*
X116266261Y-67070394D01*
X116250282Y-67085358D01*
X116250250Y-67085388D01*
X116230362Y-67103996D01*
X116226920Y-67107069D01*
X116190272Y-67138287D01*
X116187307Y-67140716D01*
X116144899Y-67174096D01*
X116141725Y-67176492D01*
X116099007Y-67207407D01*
X116097718Y-67208323D01*
X116075624Y-67223725D01*
X116067656Y-67229280D01*
X116066559Y-67229985D01*
X116063321Y-67231433D01*
X116058853Y-67234805D01*
X116049680Y-67241727D01*
X116046662Y-67243916D01*
X116037342Y-67250413D01*
X116037337Y-67250417D01*
X116032779Y-67253595D01*
X116030394Y-67256219D01*
X116029378Y-67257047D01*
X116026340Y-67259340D01*
X116018806Y-67265025D01*
X116015298Y-67267295D01*
X116015355Y-67267375D01*
X116010788Y-67270601D01*
X116005871Y-67273300D01*
X115998005Y-67280311D01*
X115991784Y-67285417D01*
X115983515Y-67291656D01*
X115979937Y-67295903D01*
X115975900Y-67299729D01*
X115975841Y-67299666D01*
X115972917Y-67302672D01*
X115967505Y-67307495D01*
X115959837Y-67313672D01*
X115953513Y-67318267D01*
X115949835Y-67322490D01*
X115948171Y-67324013D01*
X115945285Y-67326932D01*
X115943643Y-67328765D01*
X115939497Y-67332460D01*
X115934919Y-67338893D01*
X115928919Y-67346504D01*
X115922439Y-67353943D01*
X115916270Y-67360410D01*
X115909622Y-67366778D01*
X115906546Y-67371463D01*
X115904408Y-67374033D01*
X115902365Y-67376991D01*
X115898719Y-67381177D01*
X115896094Y-67386070D01*
X115896091Y-67386075D01*
X115894318Y-67389380D01*
X115889843Y-67396903D01*
X115886890Y-67401402D01*
X115882793Y-67406828D01*
X115880734Y-67409840D01*
X115877073Y-67414076D01*
X115873036Y-67421706D01*
X115868292Y-67429731D01*
X115863664Y-67436781D01*
X115861725Y-67441986D01*
X115860175Y-67445046D01*
X115857326Y-67451397D01*
X115855039Y-67455719D01*
X115854369Y-67456879D01*
X115852133Y-67459674D01*
X115845413Y-67473635D01*
X115844437Y-67475501D01*
X115841922Y-67478961D01*
X115839726Y-67484120D01*
X115839384Y-67484724D01*
X115838315Y-67486968D01*
X115837763Y-67488373D01*
X115835163Y-67493286D01*
X115834236Y-67496739D01*
X115833694Y-67497981D01*
X115829469Y-67506757D01*
X115829466Y-67506765D01*
X115827055Y-67511774D01*
X115826494Y-67514232D01*
X115825275Y-67517215D01*
X115822423Y-67521840D01*
X115820626Y-67527145D01*
X115820625Y-67527148D01*
X115818773Y-67532616D01*
X115816097Y-67539629D01*
X115811715Y-67549924D01*
X115810729Y-67555399D01*
X115810519Y-67556102D01*
X115808320Y-67562546D01*
X115805858Y-67567271D01*
X115804448Y-67572695D01*
X115802859Y-67578808D01*
X115800812Y-67585656D01*
X115797043Y-67596786D01*
X115796476Y-67602309D01*
X115795936Y-67604789D01*
X115794165Y-67611383D01*
X115792331Y-67615453D01*
X115791233Y-67620942D01*
X115791232Y-67620946D01*
X115789545Y-67629384D01*
X115788281Y-67634883D01*
X115786150Y-67643078D01*
X115786149Y-67643084D01*
X115784752Y-67648458D01*
X115784598Y-67653595D01*
X115783969Y-67657262D01*
X115782730Y-67663459D01*
X115782392Y-67664877D01*
X115780996Y-67668334D01*
X115780116Y-67673865D01*
X115780116Y-67673866D01*
X115778359Y-67684914D01*
X115777665Y-67688780D01*
X115775497Y-67699619D01*
X115775496Y-67699627D01*
X115774407Y-67705074D01*
X115774507Y-67708789D01*
X115774325Y-67710280D01*
X115771812Y-67726076D01*
X115771700Y-67726627D01*
X115770841Y-67728920D01*
X115770112Y-67734400D01*
X115770110Y-67734410D01*
X115768347Y-67747669D01*
X115767993Y-67750095D01*
X115765038Y-67768674D01*
X115765202Y-67771123D01*
X115765151Y-67771692D01*
X115761532Y-67798885D01*
X115761494Y-67799093D01*
X115760987Y-67800514D01*
X115760545Y-67804281D01*
X115758598Y-67820861D01*
X115758412Y-67822343D01*
X115755746Y-67842380D01*
X115755884Y-67843877D01*
X115755870Y-67844085D01*
X115751017Y-67885411D01*
X115751003Y-67885491D01*
X115750722Y-67886302D01*
X115750471Y-67888609D01*
X115750471Y-67888611D01*
X115748403Y-67907646D01*
X115748306Y-67908498D01*
X115746105Y-67927239D01*
X115746104Y-67927248D01*
X115745833Y-67929560D01*
X115745925Y-67930418D01*
X115745921Y-67930491D01*
X115739606Y-67988621D01*
X115739603Y-67988638D01*
X115739539Y-67988824D01*
X115737360Y-68009259D01*
X115737136Y-68011356D01*
X115737115Y-68011547D01*
X115736168Y-68020265D01*
X115734737Y-68033441D01*
X115734760Y-68033639D01*
X115734065Y-68040159D01*
X115726028Y-68112379D01*
X115725864Y-68113758D01*
X115719113Y-68167546D01*
X115718756Y-68170119D01*
X115717613Y-68177628D01*
X115713502Y-68204628D01*
X115712705Y-68209860D01*
X115712053Y-68213644D01*
X115709271Y-68228088D01*
X115706116Y-68244469D01*
X115705170Y-68248845D01*
X115698172Y-68278007D01*
X115697211Y-68281696D01*
X115693648Y-68294366D01*
X115687389Y-68316617D01*
X115686742Y-68318817D01*
X115676442Y-68352386D01*
X115676338Y-68352673D01*
X115675826Y-68353579D01*
X115671301Y-68368836D01*
X115669953Y-68373382D01*
X115669554Y-68374692D01*
X115664492Y-68390932D01*
X115663460Y-68394244D01*
X115663354Y-68395599D01*
X115663313Y-68395768D01*
X115654588Y-68425184D01*
X115654507Y-68425416D01*
X115653716Y-68426874D01*
X115652618Y-68430820D01*
X115652615Y-68430829D01*
X115648308Y-68446309D01*
X115647844Y-68447925D01*
X115647639Y-68448618D01*
X115642151Y-68467119D01*
X115642045Y-68468777D01*
X115641989Y-68469021D01*
X115631122Y-68508079D01*
X115631073Y-68508226D01*
X115630422Y-68509467D01*
X115625167Y-68529451D01*
X115624835Y-68530677D01*
X115619340Y-68550424D01*
X115619274Y-68551822D01*
X115619238Y-68551990D01*
X115608871Y-68591412D01*
X115608801Y-68591636D01*
X115608051Y-68593125D01*
X115603228Y-68612817D01*
X115602857Y-68614280D01*
X115597748Y-68633705D01*
X115597693Y-68635367D01*
X115597645Y-68635613D01*
X115590258Y-68665776D01*
X115590225Y-68665887D01*
X115589767Y-68666821D01*
X115589138Y-68669510D01*
X115589137Y-68669515D01*
X115584942Y-68687463D01*
X115584698Y-68688482D01*
X115581801Y-68700314D01*
X115579724Y-68708794D01*
X115579718Y-68709212D01*
X115579507Y-68710337D01*
X115574129Y-68732144D01*
X115541838Y-68784115D01*
X115485167Y-68807180D01*
X115455102Y-68804752D01*
X115450997Y-68803775D01*
X115450332Y-68803613D01*
X115448313Y-68803114D01*
X115444368Y-68802138D01*
X115444284Y-68802113D01*
X115443476Y-68801713D01*
X115422683Y-68796771D01*
X115421803Y-68796558D01*
X115403594Y-68792054D01*
X115403583Y-68792052D01*
X115401246Y-68791474D01*
X115400348Y-68791457D01*
X115400268Y-68791443D01*
X115395391Y-68790284D01*
X115385444Y-68787919D01*
X115384599Y-68787681D01*
X115381870Y-68786437D01*
X115376385Y-68785314D01*
X115376381Y-68785313D01*
X115364210Y-68782822D01*
X115361237Y-68782166D01*
X115343819Y-68778026D01*
X115340820Y-68777999D01*
X115339949Y-68777857D01*
X115335406Y-68776927D01*
X115331458Y-68776007D01*
X115326525Y-68774099D01*
X115320986Y-68773301D01*
X115320984Y-68773301D01*
X115312753Y-68772116D01*
X115307007Y-68771115D01*
X115299645Y-68769608D01*
X115293544Y-68768359D01*
X115288869Y-68768463D01*
X115281710Y-68767477D01*
X115279545Y-68767074D01*
X115274187Y-68765434D01*
X115268602Y-68765037D01*
X115268599Y-68765036D01*
X115264318Y-68764732D01*
X115262263Y-68764586D01*
X115255177Y-68763824D01*
X115249016Y-68762936D01*
X115249007Y-68762936D01*
X115243510Y-68762144D01*
X115237969Y-68762595D01*
X115235639Y-68762523D01*
X115228981Y-68761992D01*
X115224777Y-68760958D01*
X115210392Y-68760739D01*
X115204878Y-68760500D01*
X115202411Y-68760325D01*
X115196267Y-68759887D01*
X115196264Y-68759887D01*
X115190726Y-68759493D01*
X115185740Y-68760263D01*
X115182190Y-68760309D01*
X115178260Y-68760249D01*
X115177635Y-68760213D01*
X115175107Y-68759662D01*
X115159632Y-68759844D01*
X115156453Y-68759881D01*
X115153786Y-68759877D01*
X115140790Y-68759679D01*
X115140786Y-68759679D01*
X115135239Y-68759595D01*
X115132703Y-68760133D01*
X115132053Y-68760168D01*
X115097017Y-68760580D01*
X115096672Y-68760584D01*
X115078495Y-68760734D01*
X115052886Y-68760946D01*
X115050168Y-68760930D01*
X115029337Y-68760522D01*
X115007320Y-68760091D01*
X115003112Y-68759919D01*
X114965339Y-68757569D01*
X114960616Y-68757161D01*
X114921336Y-68752818D01*
X114917068Y-68752251D01*
X114907929Y-68750836D01*
X114870215Y-68744994D01*
X114866996Y-68744441D01*
X114807816Y-68733263D01*
X114805724Y-68732844D01*
X114730984Y-68717052D01*
X114729800Y-68716795D01*
X114657185Y-68700521D01*
X114657161Y-68700514D01*
X114656738Y-68700314D01*
X114635273Y-68695608D01*
X114634826Y-68695509D01*
X114614733Y-68691006D01*
X114614724Y-68691005D01*
X114613450Y-68690719D01*
X114612986Y-68690721D01*
X114612964Y-68690717D01*
X114573452Y-68682055D01*
X114572874Y-68681901D01*
X114570532Y-68680869D01*
X114565032Y-68679816D01*
X114565030Y-68679815D01*
X114554518Y-68677802D01*
X114552109Y-68677341D01*
X114549541Y-68676813D01*
X114536834Y-68674027D01*
X114536835Y-68674027D01*
X114531398Y-68672835D01*
X114528839Y-68672857D01*
X114528243Y-68672769D01*
X114465256Y-68660703D01*
X114463434Y-68660288D01*
X114459638Y-68658810D01*
X114443622Y-68656464D01*
X114439390Y-68655748D01*
X114429105Y-68653778D01*
X114429098Y-68653777D01*
X114423650Y-68652734D01*
X114419584Y-68652876D01*
X114417684Y-68652664D01*
X114365547Y-68645028D01*
X114362167Y-68644433D01*
X114357395Y-68642872D01*
X114349235Y-68642135D01*
X114343002Y-68641572D01*
X114337562Y-68640928D01*
X114328951Y-68639667D01*
X114328950Y-68639667D01*
X114323454Y-68638862D01*
X114318459Y-68639257D01*
X114314985Y-68639042D01*
X114287570Y-68636567D01*
X114269660Y-68634950D01*
X114265474Y-68634459D01*
X114260296Y-68633101D01*
X114254697Y-68632931D01*
X114254693Y-68632930D01*
X114247095Y-68632699D01*
X114246499Y-68632681D01*
X114240610Y-68632326D01*
X114227032Y-68631100D01*
X114221737Y-68631815D01*
X114217451Y-68631797D01*
X114173417Y-68630457D01*
X114170284Y-68630269D01*
X114165503Y-68629285D01*
X114159899Y-68629415D01*
X114159898Y-68629415D01*
X114150806Y-68629626D01*
X114145497Y-68629607D01*
X114136531Y-68629334D01*
X114136529Y-68629334D01*
X114130974Y-68629165D01*
X114126192Y-68630104D01*
X114123005Y-68630271D01*
X114075178Y-68631380D01*
X114071188Y-68631364D01*
X114065989Y-68630608D01*
X114060413Y-68631064D01*
X114060410Y-68631064D01*
X114052038Y-68631749D01*
X114046263Y-68632052D01*
X114038020Y-68632243D01*
X114038019Y-68632243D01*
X114032462Y-68632372D01*
X114027376Y-68633657D01*
X114023376Y-68634093D01*
X113948471Y-68640218D01*
X113943996Y-68640273D01*
X113943996Y-68640281D01*
X113938405Y-68640594D01*
X113932814Y-68640275D01*
X113927292Y-68641217D01*
X113923305Y-68641897D01*
X113914725Y-68642978D01*
X113905271Y-68643751D01*
X113899976Y-68645423D01*
X113894571Y-68646483D01*
X113890168Y-68647549D01*
X113866675Y-68651556D01*
X113782715Y-68665876D01*
X113772668Y-68666976D01*
X113771753Y-68667126D01*
X113766158Y-68667400D01*
X113759569Y-68669259D01*
X113749333Y-68671570D01*
X113748229Y-68671758D01*
X113748226Y-68671759D01*
X113742755Y-68672692D01*
X113737627Y-68674819D01*
X113736876Y-68675036D01*
X113727220Y-68678388D01*
X113625288Y-68707153D01*
X113614535Y-68709550D01*
X113608566Y-68710535D01*
X113603381Y-68712664D01*
X113603367Y-68712668D01*
X113592987Y-68716250D01*
X113592837Y-68716311D01*
X113587493Y-68717819D01*
X113582619Y-68720477D01*
X113582617Y-68720478D01*
X113582116Y-68720751D01*
X113572312Y-68725420D01*
X113478064Y-68764116D01*
X113468636Y-68767442D01*
X113467017Y-68767923D01*
X113461339Y-68769608D01*
X113456464Y-68772364D01*
X113454676Y-68773123D01*
X113450192Y-68775300D01*
X113448300Y-68776338D01*
X113443158Y-68778449D01*
X113436871Y-68782880D01*
X113428570Y-68788132D01*
X113342464Y-68836804D01*
X113334617Y-68840791D01*
X113326035Y-68844680D01*
X113321582Y-68848076D01*
X113318837Y-68849716D01*
X113316030Y-68851748D01*
X113311195Y-68854481D01*
X113307088Y-68858222D01*
X113304172Y-68860878D01*
X113297538Y-68866411D01*
X113220306Y-68925305D01*
X113214194Y-68929610D01*
X113204605Y-68935836D01*
X113200712Y-68939859D01*
X113199296Y-68941025D01*
X113197745Y-68942509D01*
X113193327Y-68945879D01*
X113189769Y-68950147D01*
X113189767Y-68950148D01*
X113185948Y-68954728D01*
X113181059Y-68960169D01*
X113113896Y-69029578D01*
X113109466Y-69033879D01*
X113103680Y-69039156D01*
X113103677Y-69039159D01*
X113099544Y-69042929D01*
X113096375Y-69047507D01*
X113095895Y-69048029D01*
X113095443Y-69048648D01*
X113091668Y-69052550D01*
X113088792Y-69057298D01*
X113084662Y-69064114D01*
X113081398Y-69069150D01*
X113026071Y-69149100D01*
X113023079Y-69153196D01*
X113017259Y-69160747D01*
X113017257Y-69160750D01*
X113013843Y-69165180D01*
X113011721Y-69169799D01*
X113011595Y-69170019D01*
X113008809Y-69174046D01*
X113006744Y-69179201D01*
X113003159Y-69188148D01*
X113001228Y-69192642D01*
X112961467Y-69279196D01*
X112958382Y-69285339D01*
X112952452Y-69296192D01*
X112950938Y-69301578D01*
X112950487Y-69302684D01*
X112950004Y-69304150D01*
X112947685Y-69309197D01*
X112945134Y-69321383D01*
X112943543Y-69327879D01*
X112940907Y-69337259D01*
X112937606Y-69347021D01*
X112934962Y-69353679D01*
X112934114Y-69359218D01*
X112933759Y-69360524D01*
X112932330Y-69367130D01*
X112932083Y-69368645D01*
X112930578Y-69373997D01*
X112930301Y-69379549D01*
X112930301Y-69379552D01*
X112930217Y-69381243D01*
X112929199Y-69391303D01*
X112924921Y-69419231D01*
X112922657Y-69429838D01*
X112922602Y-69430189D01*
X112921115Y-69435591D01*
X112920877Y-69441186D01*
X112920845Y-69441929D01*
X112919795Y-69452692D01*
X112918859Y-69458807D01*
X112919260Y-69464344D01*
X112919252Y-69464542D01*
X112919415Y-69475514D01*
X112918372Y-69500006D01*
X112918169Y-69504766D01*
X112917083Y-69515469D01*
X112917063Y-69515904D01*
X112916173Y-69521429D01*
X107700000Y-69521429D01*
X107700000Y-63199500D01*
X107718907Y-63141309D01*
X107768407Y-63105345D01*
X107799000Y-63100500D01*
X110401000Y-63100500D01*
X110459191Y-63119407D01*
G37*
%TD.AperFunction*%
%TA.AperFunction,Conductor*%
G36*
X134988227Y-52702518D02*
G01*
X134999642Y-52705143D01*
X135010517Y-52702682D01*
X135021663Y-52702702D01*
X135021663Y-52702737D01*
X135031724Y-52701919D01*
X135271264Y-52716409D01*
X135283116Y-52717848D01*
X135544542Y-52765756D01*
X135556135Y-52768613D01*
X135761078Y-52832476D01*
X135809872Y-52847681D01*
X135821050Y-52851920D01*
X136063406Y-52960995D01*
X136073991Y-52966551D01*
X136301422Y-53104038D01*
X136311261Y-53110829D01*
X136520463Y-53274728D01*
X136529412Y-53282655D01*
X136717345Y-53470588D01*
X136725272Y-53479537D01*
X136889171Y-53688739D01*
X136895962Y-53698578D01*
X137033449Y-53926009D01*
X137039005Y-53936594D01*
X137148080Y-54178950D01*
X137152319Y-54190128D01*
X137231385Y-54443857D01*
X137234244Y-54455458D01*
X137282152Y-54716884D01*
X137283591Y-54728734D01*
X137283592Y-54728743D01*
X137298050Y-54967755D01*
X137297230Y-54977627D01*
X137297375Y-54977627D01*
X137297355Y-54988778D01*
X137294857Y-54999642D01*
X137297317Y-55010514D01*
X137297317Y-55010516D01*
X137297559Y-55011583D01*
X137300000Y-55033432D01*
X137300000Y-61800500D01*
X137281093Y-61858691D01*
X137231593Y-61894655D01*
X137201000Y-61899500D01*
X134599000Y-61899500D01*
X134540809Y-61880593D01*
X134504845Y-61831093D01*
X134500000Y-61800500D01*
X134500000Y-61500000D01*
X123250000Y-61500000D01*
X123250000Y-63651000D01*
X123231093Y-63709191D01*
X123181593Y-63745155D01*
X123151000Y-63750000D01*
X121849000Y-63750000D01*
X121790809Y-63731093D01*
X121754845Y-63681593D01*
X121750000Y-63651000D01*
X121750000Y-61500000D01*
X110500000Y-61500000D01*
X110500000Y-61800500D01*
X110481093Y-61858691D01*
X110431593Y-61894655D01*
X110401000Y-61899500D01*
X107799000Y-61899500D01*
X107740809Y-61880593D01*
X107704845Y-61831093D01*
X107700000Y-61800500D01*
X107700000Y-55034222D01*
X107702557Y-55011867D01*
X107703875Y-55006181D01*
X107705142Y-55000716D01*
X107705143Y-55000000D01*
X107703900Y-54994552D01*
X107703278Y-54988992D01*
X107703654Y-54988950D01*
X107701935Y-54968016D01*
X107716408Y-54728743D01*
X107716409Y-54728742D01*
X107716409Y-54728736D01*
X107717848Y-54716884D01*
X107765756Y-54455458D01*
X107768615Y-54443857D01*
X107847681Y-54190128D01*
X107851920Y-54178950D01*
X107960995Y-53936594D01*
X107966551Y-53926009D01*
X108104038Y-53698578D01*
X108110829Y-53688739D01*
X108274728Y-53479537D01*
X108282655Y-53470588D01*
X108470588Y-53282655D01*
X108479537Y-53274728D01*
X108688739Y-53110829D01*
X108698578Y-53104038D01*
X108926009Y-52966551D01*
X108936594Y-52960995D01*
X109178950Y-52851920D01*
X109190128Y-52847681D01*
X109238922Y-52832476D01*
X109443865Y-52768613D01*
X109455458Y-52765756D01*
X109716884Y-52717848D01*
X109728734Y-52716409D01*
X109967757Y-52701950D01*
X109977627Y-52702770D01*
X109977627Y-52702625D01*
X109988778Y-52702645D01*
X109999642Y-52705143D01*
X110010514Y-52702683D01*
X110010516Y-52702683D01*
X110011583Y-52702441D01*
X110033432Y-52700000D01*
X134966040Y-52700000D01*
X134988227Y-52702518D01*
G37*
%TD.AperFunction*%
%TD*%
M02*
