%FSLAX45Y45*%
G04 Gerber Fmt 4.5, Leading zero omitted, Abs format (unit mm)*
G04 Created by KiCad (PCBNEW 6.0.1-79c1e3a40b~116~ubuntu20.04.1) date 2022-01-29 00:58:06*
%MOMM*%
%LPD*%
G01*
G04 APERTURE LIST*
%TA.AperFunction,Profile*%
%ADD10C,0.100000*%
%TD*%
%ADD11C,0.200000*%
G04 APERTURE END LIST*
D10*
X11000000Y-7250000D02*
X13500000Y-7250000D01*
X11000000Y-5250000D02*
X13500000Y-5250000D01*
X13750000Y-5500000D02*
X13750000Y-7000000D01*
X10750000Y-5500000D02*
X10750000Y-7000000D01*
X13500000Y-7250000D02*
G75*
G03*
X13750000Y-7000000I0J250000D01*
G01*
X13750000Y-5500000D02*
G75*
G03*
X13500000Y-5250000I-250000J0D01*
G01*
X10750000Y-7000000D02*
G75*
G03*
X11000000Y-7250000I250000J0D01*
G01*
X11000000Y-5250000D02*
G75*
G03*
X10750000Y-5500000I0J-250000D01*
G01*
D11*
X11002619Y-7565476D02*
X11002619Y-7365476D01*
X11050238Y-7365476D01*
X11078810Y-7375000D01*
X11097857Y-7394048D01*
X11107381Y-7413095D01*
X11116905Y-7451190D01*
X11116905Y-7479762D01*
X11107381Y-7517857D01*
X11097857Y-7536905D01*
X11078810Y-7555952D01*
X11050238Y-7565476D01*
X11002619Y-7565476D01*
X11202619Y-7565476D02*
X11202619Y-7432143D01*
X11202619Y-7470238D02*
X11212143Y-7451190D01*
X11221667Y-7441667D01*
X11240714Y-7432143D01*
X11259762Y-7432143D01*
X11326428Y-7565476D02*
X11326428Y-7432143D01*
X11326428Y-7365476D02*
X11316905Y-7375000D01*
X11326428Y-7384524D01*
X11335952Y-7375000D01*
X11326428Y-7365476D01*
X11326428Y-7384524D01*
X11450238Y-7565476D02*
X11431190Y-7555952D01*
X11421667Y-7536905D01*
X11421667Y-7365476D01*
X11555000Y-7565476D02*
X11535952Y-7555952D01*
X11526428Y-7536905D01*
X11526428Y-7365476D01*
X11783571Y-7565476D02*
X11783571Y-7365476D01*
X11850238Y-7508333D01*
X11916905Y-7365476D01*
X11916905Y-7565476D01*
X12097857Y-7565476D02*
X12097857Y-7460714D01*
X12088333Y-7441667D01*
X12069286Y-7432143D01*
X12031190Y-7432143D01*
X12012143Y-7441667D01*
X12097857Y-7555952D02*
X12078809Y-7565476D01*
X12031190Y-7565476D01*
X12012143Y-7555952D01*
X12002619Y-7536905D01*
X12002619Y-7517857D01*
X12012143Y-7498809D01*
X12031190Y-7489286D01*
X12078809Y-7489286D01*
X12097857Y-7479762D01*
X12193095Y-7432143D02*
X12193095Y-7632143D01*
X12193095Y-7441667D02*
X12212143Y-7432143D01*
X12250238Y-7432143D01*
X12269286Y-7441667D01*
X12278809Y-7451190D01*
X12288333Y-7470238D01*
X12288333Y-7527381D01*
X12278809Y-7546428D01*
X12269286Y-7555952D01*
X12250238Y-7565476D01*
X12212143Y-7565476D01*
X12193095Y-7555952D01*
X12374048Y-7546428D02*
X12383571Y-7555952D01*
X12374048Y-7565476D01*
X12364524Y-7555952D01*
X12374048Y-7546428D01*
X12374048Y-7565476D01*
X12374048Y-7441667D02*
X12383571Y-7451190D01*
X12374048Y-7460714D01*
X12364524Y-7451190D01*
X12374048Y-7441667D01*
X12374048Y-7460714D01*
M02*
