%TF.GenerationSoftware,KiCad,Pcbnew,6.0.9+dfsg-1~bpo11+1*%
%TF.CreationDate,2022-11-06T17:08:36+01:00*%
%TF.ProjectId,mixer,6d697865-722e-46b6-9963-61645f706362,2*%
%TF.SameCoordinates,Original*%
%TF.FileFunction,Plated,1,2,PTH,Drill*%
%TF.FilePolarity,Positive*%
%FSLAX46Y46*%
G04 Gerber Fmt 4.6, Leading zero omitted, Abs format (unit mm)*
G04 Created by KiCad (PCBNEW 6.0.9+dfsg-1~bpo11+1) date 2022-11-06 17:08:36*
%MOMM*%
%LPD*%
G01*
G04 APERTURE LIST*
%TA.AperFunction,ViaDrill*%
%ADD10C,0.400000*%
%TD*%
%TA.AperFunction,ComponentDrill*%
%ADD11C,0.400000*%
%TD*%
%TA.AperFunction,ComponentDrill*%
%ADD12C,0.508000*%
%TD*%
%TA.AperFunction,ComponentDrill*%
%ADD13C,2.000000*%
%TD*%
G04 APERTURE END LIST*
D10*
X140000000Y-72500000D03*
X140000000Y-75500000D03*
X140000000Y-80000000D03*
X140000000Y-82500000D03*
X140500000Y-75000000D03*
X140500000Y-76000000D03*
X140500000Y-79000000D03*
X141000000Y-74500000D03*
X141000000Y-75500000D03*
X141000000Y-78500000D03*
X141500000Y-74000000D03*
X141500000Y-75000000D03*
X141500000Y-76000000D03*
X141500000Y-79000000D03*
X142000000Y-73500000D03*
X142000000Y-74500000D03*
X142000000Y-75500000D03*
X142000000Y-78500000D03*
X142500000Y-70000000D03*
X142500000Y-73000000D03*
X142500000Y-79000000D03*
X142500000Y-80000000D03*
X142500000Y-82500000D03*
X142500000Y-85000000D03*
X143000000Y-72500000D03*
X143500000Y-73000000D03*
X144000000Y-72500000D03*
X144500000Y-73000000D03*
X145000000Y-70000000D03*
X145000000Y-72500000D03*
X145000000Y-80000000D03*
X145000000Y-82500000D03*
X145000000Y-85000000D03*
X145500000Y-72000000D03*
X145500000Y-73000000D03*
X146000000Y-71500000D03*
X146000000Y-72500000D03*
X146000000Y-83500000D03*
X146000000Y-84500000D03*
X146500000Y-72000000D03*
X146500000Y-84000000D03*
X147000000Y-71500000D03*
X147500000Y-70000000D03*
X147500000Y-71000000D03*
X148000000Y-71500000D03*
X148500000Y-71000000D03*
X149000000Y-71500000D03*
X149000000Y-83500000D03*
X149000000Y-84500000D03*
X149500000Y-71000000D03*
X149500000Y-83000000D03*
X149500000Y-84000000D03*
X149500000Y-85000000D03*
X150000000Y-70000000D03*
X150000000Y-71500000D03*
X150000000Y-83500000D03*
X150000000Y-84500000D03*
X150500000Y-71000000D03*
X150500000Y-75000000D03*
X150500000Y-76000000D03*
X150500000Y-77000000D03*
X150500000Y-78000000D03*
X150500000Y-83000000D03*
X150500000Y-84000000D03*
X151000000Y-71500000D03*
X151000000Y-77500000D03*
X151000000Y-78500000D03*
X151000000Y-79500000D03*
X151000000Y-80500000D03*
X151000000Y-81500000D03*
X151000000Y-82500000D03*
X151000000Y-83500000D03*
X151500000Y-72000000D03*
X151500000Y-78000000D03*
X151500000Y-79000000D03*
X151500000Y-80000000D03*
X151500000Y-81000000D03*
X151500000Y-82000000D03*
X151500000Y-83000000D03*
X152000000Y-71500000D03*
X152000000Y-72500000D03*
X152000000Y-78500000D03*
X152000000Y-79500000D03*
X152500000Y-70000000D03*
X152500000Y-72000000D03*
X152500000Y-73000000D03*
X152500000Y-74000000D03*
X152500000Y-75000000D03*
X152500000Y-79000000D03*
X152500000Y-80000000D03*
X152500000Y-82500000D03*
X152500000Y-85000000D03*
X153000000Y-72500000D03*
X153000000Y-73500000D03*
X153000000Y-74500000D03*
X153000000Y-75500000D03*
X153000000Y-78500000D03*
X153500000Y-74000000D03*
X153500000Y-75000000D03*
X153500000Y-76000000D03*
X153500000Y-79000000D03*
X154000000Y-75500000D03*
X154000000Y-76500000D03*
X154000000Y-78500000D03*
X154500000Y-76000000D03*
X154500000Y-79000000D03*
X155000000Y-72500000D03*
X155000000Y-75000000D03*
X155000000Y-80000000D03*
X155000000Y-82500000D03*
D11*
%TO.C,J1*%
X138000000Y-76500000D03*
X138000000Y-78500000D03*
X138500000Y-76000000D03*
X138500000Y-79000000D03*
X139000000Y-76500000D03*
X139000000Y-78500000D03*
X139500000Y-76000000D03*
X139500000Y-79000000D03*
X140000000Y-76500000D03*
X140000000Y-78500000D03*
%TO.C,J2*%
X146000000Y-85500000D03*
X146000000Y-86500000D03*
X146500000Y-85000000D03*
X146500000Y-86000000D03*
X146500000Y-87000000D03*
X148500000Y-85000000D03*
X148500000Y-86000000D03*
X148500000Y-87000000D03*
X149000000Y-85500000D03*
X149000000Y-86500000D03*
%TO.C,J3*%
X155000000Y-76500000D03*
X155000000Y-78500000D03*
X155500000Y-76000000D03*
X155500000Y-79000000D03*
X156000000Y-76500000D03*
X156000000Y-78500000D03*
X156500000Y-76000000D03*
X156500000Y-79000000D03*
X157000000Y-76500000D03*
X157000000Y-78500000D03*
D12*
%TO.C,U1*%
X143960000Y-78000000D03*
X143960000Y-82191000D03*
X145230000Y-78000000D03*
X146500000Y-78000000D03*
X146500000Y-82191000D03*
X147770000Y-78000000D03*
X149040000Y-73809000D03*
X149040000Y-78000000D03*
D13*
%TO.C,H3*%
X140000000Y-70000000D03*
%TO.C,H4*%
X140000000Y-85000000D03*
%TO.C,H2*%
X155000000Y-70000000D03*
%TO.C,H1*%
X155000000Y-85000000D03*
M02*
