%TF.GenerationSoftware,KiCad,Pcbnew,6.0.1-79c1e3a40b~116~ubuntu20.04.1*%
%TF.CreationDate,2022-01-30T13:12:07+01:00*%
%TF.ProjectId,mixer,6d697865-722e-46b6-9963-61645f706362,rev?*%
%TF.SameCoordinates,Original*%
%TF.FileFunction,Copper,L2,Bot*%
%TF.FilePolarity,Positive*%
%FSLAX46Y46*%
G04 Gerber Fmt 4.6, Leading zero omitted, Abs format (unit mm)*
G04 Created by KiCad (PCBNEW 6.0.1-79c1e3a40b~116~ubuntu20.04.1) date 2022-01-30 13:12:07*
%MOMM*%
%LPD*%
G01*
G04 APERTURE LIST*
%TA.AperFunction,ComponentPad*%
%ADD10C,1.016000*%
%TD*%
%TA.AperFunction,ComponentPad*%
%ADD11C,0.800000*%
%TD*%
%TA.AperFunction,SMDPad,CuDef*%
%ADD12R,3.000000X5.200000*%
%TD*%
%TA.AperFunction,SMDPad,CuDef*%
%ADD13R,5.200000X3.000000*%
%TD*%
%TA.AperFunction,ComponentPad*%
%ADD14C,3.400000*%
%TD*%
%TA.AperFunction,ViaPad*%
%ADD15C,0.800000*%
%TD*%
G04 APERTURE END LIST*
D10*
%TO.P,U1,1,GND*%
%TO.N,GND*%
X145230000Y-78000000D03*
X149040000Y-73809000D03*
X143960000Y-78000000D03*
X149040000Y-78000000D03*
X146500000Y-78000000D03*
X147770000Y-78000000D03*
%TO.P,U1,4,GND*%
X143960000Y-82191000D03*
%TO.P,U1,5,GND*%
X146500000Y-82191000D03*
%TD*%
D11*
%TO.P,J3,2,Pin_2*%
%TO.N,GND*%
X155500000Y-79000000D03*
X156500000Y-79000000D03*
X157000000Y-76500000D03*
X155000000Y-76500000D03*
X157000000Y-78500000D03*
D12*
X156000000Y-77500000D03*
D11*
X155500000Y-76000000D03*
X156500000Y-76000000D03*
X156000000Y-76500000D03*
X155000000Y-78500000D03*
X156000000Y-78500000D03*
%TD*%
%TO.P,J2,2,Pin_2*%
%TO.N,GND*%
X146500000Y-86000000D03*
X146500000Y-85000000D03*
X148500000Y-86000000D03*
X149000000Y-86500000D03*
X149000000Y-85500000D03*
D13*
X147500000Y-86000000D03*
D11*
X146500000Y-87000000D03*
X148500000Y-85000000D03*
X148500000Y-87000000D03*
X146000000Y-86500000D03*
X146000000Y-85500000D03*
%TD*%
%TO.P,J1,2,Pin_2*%
%TO.N,GND*%
X139500000Y-76000000D03*
X138500000Y-76000000D03*
X138000000Y-78500000D03*
X140000000Y-78500000D03*
X138000000Y-76500000D03*
D12*
X139000000Y-77500000D03*
D11*
X139500000Y-79000000D03*
X138500000Y-79000000D03*
X139000000Y-78500000D03*
X140000000Y-76500000D03*
X139000000Y-76500000D03*
%TD*%
D14*
%TO.P,H4,1,1*%
%TO.N,GND*%
X140000000Y-85000000D03*
%TD*%
%TO.P,H3,1,1*%
%TO.N,GND*%
X140000000Y-70000000D03*
%TD*%
%TO.P,H2,1,1*%
%TO.N,GND*%
X155000000Y-70000000D03*
%TD*%
%TO.P,H1,1,1*%
%TO.N,GND*%
X155000000Y-85000000D03*
%TD*%
D15*
%TO.N,GND*%
X145000000Y-80000000D03*
X155000000Y-72500000D03*
X155000000Y-75000000D03*
X155000000Y-80000000D03*
X152500000Y-80000000D03*
X155000000Y-82500000D03*
X152500000Y-85000000D03*
X152500000Y-82500000D03*
X145000000Y-82500000D03*
X145000000Y-85000000D03*
X142500000Y-85000000D03*
X142500000Y-82500000D03*
X142500000Y-80000000D03*
X140000000Y-80000000D03*
X140000000Y-82500000D03*
X140000000Y-72500000D03*
X152500000Y-70000000D03*
X150000000Y-70000000D03*
X147500000Y-70000000D03*
X145000000Y-70000000D03*
X142500000Y-70000000D03*
X151500000Y-83000000D03*
X149500000Y-85000000D03*
X150000000Y-84500000D03*
X150500000Y-84000000D03*
X151000000Y-83500000D03*
X152000000Y-79500000D03*
X151500000Y-82000000D03*
X151500000Y-81000000D03*
X151500000Y-80000000D03*
X151000000Y-79500000D03*
X151000000Y-80500000D03*
X151000000Y-81500000D03*
X151000000Y-82500000D03*
X150500000Y-83000000D03*
X150000000Y-83500000D03*
X140000000Y-75500000D03*
X140500000Y-75000000D03*
X145000000Y-72500000D03*
X144000000Y-72500000D03*
X143000000Y-72500000D03*
X141000000Y-74500000D03*
X141500000Y-75000000D03*
X142000000Y-74500000D03*
X141500000Y-74000000D03*
X142000000Y-73500000D03*
X142500000Y-73000000D03*
X143500000Y-73000000D03*
X144500000Y-73000000D03*
X153500000Y-74000000D03*
X153000000Y-73500000D03*
X153000000Y-72500000D03*
X152000000Y-71500000D03*
X150500000Y-71000000D03*
X149500000Y-71000000D03*
X148500000Y-71000000D03*
X147500000Y-71000000D03*
X145500000Y-73000000D03*
X146000000Y-72500000D03*
X146500000Y-72000000D03*
X145500000Y-72000000D03*
X146000000Y-71500000D03*
X147000000Y-71500000D03*
X148000000Y-71500000D03*
X149000000Y-71500000D03*
X150000000Y-71500000D03*
X151000000Y-71500000D03*
X151500000Y-72000000D03*
X152000000Y-72500000D03*
X152500000Y-72000000D03*
X152500000Y-73000000D03*
X142000000Y-75500000D03*
X141000000Y-75500000D03*
X141500000Y-76000000D03*
X140500000Y-76000000D03*
X141000000Y-78500000D03*
X142000000Y-78500000D03*
X142500000Y-79000000D03*
X141500000Y-79000000D03*
X140500000Y-79000000D03*
X146000000Y-83500000D03*
X146000000Y-84500000D03*
X146500000Y-84000000D03*
X149500000Y-83000000D03*
X149500000Y-84000000D03*
X149000000Y-83500000D03*
X149000000Y-84500000D03*
X151500000Y-79000000D03*
X150500000Y-75000000D03*
X150500000Y-76000000D03*
X150500000Y-77000000D03*
X151000000Y-77500000D03*
X150500000Y-78000000D03*
X151500000Y-78000000D03*
X151000000Y-78500000D03*
X152000000Y-78500000D03*
X153000000Y-78500000D03*
X154000000Y-78500000D03*
X152500000Y-79000000D03*
X153500000Y-79000000D03*
X154500000Y-79000000D03*
X154000000Y-76500000D03*
X152500000Y-74000000D03*
X153000000Y-74500000D03*
X152500000Y-75000000D03*
X153500000Y-75000000D03*
X153000000Y-75500000D03*
X154000000Y-75500000D03*
X153500000Y-76000000D03*
X154500000Y-76000000D03*
%TD*%
%TA.AperFunction,Conductor*%
%TO.N,GND*%
G36*
X154988227Y-67702518D02*
G01*
X154999642Y-67705143D01*
X155010517Y-67702682D01*
X155021663Y-67702702D01*
X155021663Y-67702737D01*
X155031724Y-67701919D01*
X155271264Y-67716409D01*
X155283116Y-67717848D01*
X155544542Y-67765756D01*
X155556135Y-67768613D01*
X155761078Y-67832476D01*
X155809872Y-67847681D01*
X155821050Y-67851920D01*
X156063406Y-67960995D01*
X156073991Y-67966551D01*
X156301422Y-68104038D01*
X156311261Y-68110829D01*
X156520463Y-68274728D01*
X156529412Y-68282655D01*
X156717345Y-68470588D01*
X156725272Y-68479537D01*
X156889171Y-68688739D01*
X156895962Y-68698578D01*
X157033449Y-68926009D01*
X157039005Y-68936594D01*
X157148080Y-69178950D01*
X157152319Y-69190128D01*
X157231385Y-69443857D01*
X157234244Y-69455458D01*
X157282152Y-69716884D01*
X157283591Y-69728734D01*
X157283592Y-69728743D01*
X157298050Y-69967755D01*
X157297230Y-69977627D01*
X157297375Y-69977627D01*
X157297355Y-69988778D01*
X157294857Y-69999642D01*
X157297317Y-70010514D01*
X157297317Y-70010516D01*
X157297559Y-70011583D01*
X157300000Y-70033432D01*
X157300000Y-84966040D01*
X157297482Y-84988227D01*
X157294857Y-84999642D01*
X157297318Y-85010517D01*
X157297298Y-85021663D01*
X157297263Y-85021663D01*
X157298081Y-85031726D01*
X157283592Y-85271257D01*
X157282152Y-85283116D01*
X157278549Y-85302780D01*
X157234246Y-85544535D01*
X157231385Y-85556143D01*
X157152319Y-85809872D01*
X157148080Y-85821050D01*
X157039005Y-86063406D01*
X157033449Y-86073991D01*
X156895962Y-86301422D01*
X156889171Y-86311261D01*
X156725272Y-86520463D01*
X156717345Y-86529412D01*
X156529412Y-86717345D01*
X156520463Y-86725272D01*
X156311261Y-86889171D01*
X156301422Y-86895962D01*
X156073991Y-87033449D01*
X156063406Y-87039005D01*
X155821050Y-87148080D01*
X155809872Y-87152319D01*
X155556135Y-87231387D01*
X155544542Y-87234244D01*
X155283116Y-87282152D01*
X155271266Y-87283591D01*
X155032243Y-87298050D01*
X155022373Y-87297230D01*
X155022373Y-87297375D01*
X155011222Y-87297355D01*
X155000358Y-87294857D01*
X154989486Y-87297317D01*
X154989484Y-87297317D01*
X154988417Y-87297559D01*
X154966568Y-87300000D01*
X140033960Y-87300000D01*
X140011773Y-87297482D01*
X140000358Y-87294857D01*
X139989483Y-87297318D01*
X139978337Y-87297298D01*
X139978337Y-87297263D01*
X139968276Y-87298081D01*
X139728736Y-87283591D01*
X139716884Y-87282152D01*
X139455458Y-87234244D01*
X139443865Y-87231387D01*
X139190128Y-87152319D01*
X139178950Y-87148080D01*
X138936594Y-87039005D01*
X138926009Y-87033449D01*
X138698578Y-86895962D01*
X138688739Y-86889171D01*
X138479537Y-86725272D01*
X138470588Y-86717345D01*
X138282655Y-86529412D01*
X138274728Y-86520463D01*
X138110829Y-86311261D01*
X138104038Y-86301422D01*
X137966551Y-86073991D01*
X137960995Y-86063406D01*
X137851920Y-85821050D01*
X137847681Y-85809872D01*
X137768615Y-85556143D01*
X137765754Y-85544535D01*
X137717850Y-85283125D01*
X137717848Y-85283118D01*
X137716408Y-85271256D01*
X137701966Y-85032500D01*
X137703702Y-85011805D01*
X137703235Y-85011751D01*
X137703876Y-85006177D01*
X137705142Y-85000716D01*
X137705143Y-85000000D01*
X137702479Y-84988321D01*
X137700000Y-84966304D01*
X137700000Y-70034222D01*
X137702557Y-70011867D01*
X137703875Y-70006181D01*
X137705142Y-70000716D01*
X137705143Y-70000000D01*
X137703900Y-69994552D01*
X137703278Y-69988992D01*
X137703654Y-69988950D01*
X137701935Y-69968016D01*
X137716408Y-69728743D01*
X137716409Y-69728742D01*
X137716409Y-69728736D01*
X137717848Y-69716884D01*
X137765756Y-69455458D01*
X137768615Y-69443857D01*
X137847681Y-69190128D01*
X137851920Y-69178950D01*
X137960995Y-68936594D01*
X137966551Y-68926009D01*
X138104038Y-68698578D01*
X138110829Y-68688739D01*
X138274728Y-68479537D01*
X138282655Y-68470588D01*
X138470588Y-68282655D01*
X138479537Y-68274728D01*
X138688739Y-68110829D01*
X138698578Y-68104038D01*
X138926009Y-67966551D01*
X138936594Y-67960995D01*
X139178950Y-67851920D01*
X139190128Y-67847681D01*
X139238922Y-67832476D01*
X139443865Y-67768613D01*
X139455458Y-67765756D01*
X139716884Y-67717848D01*
X139728734Y-67716409D01*
X139967757Y-67701950D01*
X139977627Y-67702770D01*
X139977627Y-67702625D01*
X139988778Y-67702645D01*
X139999642Y-67705143D01*
X140010514Y-67702683D01*
X140010516Y-67702683D01*
X140011583Y-67702441D01*
X140033432Y-67700000D01*
X154966040Y-67700000D01*
X154988227Y-67702518D01*
G37*
%TD.AperFunction*%
%TD*%
M02*
