M48
; DRILL file {KiCad 6.0.1-79c1e3a40b~116~ubuntu20.04.1} date Sun 30 Jan 2022 13:12:11 CET
; FORMAT={-:-/ absolute / metric / decimal}
; #@! TF.CreationDate,2022-01-30T13:12:11+01:00
; #@! TF.GenerationSoftware,Kicad,Pcbnew,6.0.1-79c1e3a40b~116~ubuntu20.04.1
; #@! TF.FileFunction,Plated,1,2,PTH
FMAT,2
METRIC
; #@! TA.AperFunction,Plated,PTH,ViaDrill
T1C0.400
; #@! TA.AperFunction,Plated,PTH,ComponentDrill
T2C0.400
; #@! TA.AperFunction,Plated,PTH,ComponentDrill
T3C0.508
; #@! TA.AperFunction,Plated,PTH,ComponentDrill
T4C2.200
%
G90
G05
T1
X140.0Y-72.5
X140.0Y-75.5
X140.0Y-80.0
X140.0Y-82.5
X140.5Y-75.0
X140.5Y-76.0
X140.5Y-79.0
X141.0Y-74.5
X141.0Y-75.5
X141.0Y-78.5
X141.5Y-74.0
X141.5Y-75.0
X141.5Y-76.0
X141.5Y-79.0
X142.0Y-73.5
X142.0Y-74.5
X142.0Y-75.5
X142.0Y-78.5
X142.5Y-70.0
X142.5Y-73.0
X142.5Y-79.0
X142.5Y-80.0
X142.5Y-82.5
X142.5Y-85.0
X143.0Y-72.5
X143.5Y-73.0
X144.0Y-72.5
X144.5Y-73.0
X145.0Y-70.0
X145.0Y-72.5
X145.0Y-80.0
X145.0Y-82.5
X145.0Y-85.0
X145.5Y-72.0
X145.5Y-73.0
X146.0Y-71.5
X146.0Y-72.5
X146.0Y-83.5
X146.0Y-84.5
X146.5Y-72.0
X146.5Y-84.0
X147.0Y-71.5
X147.5Y-70.0
X147.5Y-71.0
X148.0Y-71.5
X148.5Y-71.0
X149.0Y-71.5
X149.0Y-83.5
X149.0Y-84.5
X149.5Y-71.0
X149.5Y-83.0
X149.5Y-84.0
X149.5Y-85.0
X150.0Y-70.0
X150.0Y-71.5
X150.0Y-83.5
X150.0Y-84.5
X150.5Y-71.0
X150.5Y-75.0
X150.5Y-76.0
X150.5Y-77.0
X150.5Y-78.0
X150.5Y-83.0
X150.5Y-84.0
X151.0Y-71.5
X151.0Y-77.5
X151.0Y-78.5
X151.0Y-79.5
X151.0Y-80.5
X151.0Y-81.5
X151.0Y-82.5
X151.0Y-83.5
X151.5Y-72.0
X151.5Y-78.0
X151.5Y-79.0
X151.5Y-80.0
X151.5Y-81.0
X151.5Y-82.0
X151.5Y-83.0
X152.0Y-71.5
X152.0Y-72.5
X152.0Y-78.5
X152.0Y-79.5
X152.5Y-70.0
X152.5Y-72.0
X152.5Y-73.0
X152.5Y-74.0
X152.5Y-75.0
X152.5Y-79.0
X152.5Y-80.0
X152.5Y-82.5
X152.5Y-85.0
X153.0Y-72.5
X153.0Y-73.5
X153.0Y-74.5
X153.0Y-75.5
X153.0Y-78.5
X153.5Y-74.0
X153.5Y-75.0
X153.5Y-76.0
X153.5Y-79.0
X154.0Y-75.5
X154.0Y-76.5
X154.0Y-78.5
X154.5Y-76.0
X154.5Y-79.0
X155.0Y-72.5
X155.0Y-75.0
X155.0Y-80.0
X155.0Y-82.5
T2
X138.0Y-76.5
X138.0Y-78.5
X138.5Y-76.0
X138.5Y-79.0
X139.0Y-76.5
X139.0Y-78.5
X139.5Y-76.0
X139.5Y-79.0
X140.0Y-76.5
X140.0Y-78.5
X146.0Y-85.5
X146.0Y-86.5
X146.5Y-85.0
X146.5Y-86.0
X146.5Y-87.0
X148.5Y-85.0
X148.5Y-86.0
X148.5Y-87.0
X149.0Y-85.5
X149.0Y-86.5
X155.0Y-76.5
X155.0Y-78.5
X155.5Y-76.0
X155.5Y-79.0
X156.0Y-76.5
X156.0Y-78.5
X156.5Y-76.0
X156.5Y-79.0
X157.0Y-76.5
X157.0Y-78.5
T3
X143.96Y-78.0
X143.96Y-82.191
X145.23Y-78.0
X146.5Y-78.0
X146.5Y-82.191
X147.77Y-78.0
X149.04Y-73.809
X149.04Y-78.0
T4
X140.0Y-70.0
X140.0Y-85.0
X155.0Y-70.0
X155.0Y-85.0
T0
M30
