%TF.GenerationSoftware,KiCad,Pcbnew,6.0.1-79c1e3a40b~116~ubuntu20.04.1*%
%TF.CreationDate,2022-01-30T13:12:07+01:00*%
%TF.ProjectId,mixer,6d697865-722e-46b6-9963-61645f706362,rev?*%
%TF.SameCoordinates,Original*%
%TF.FileFunction,Soldermask,Top*%
%TF.FilePolarity,Negative*%
%FSLAX46Y46*%
G04 Gerber Fmt 4.6, Leading zero omitted, Abs format (unit mm)*
G04 Created by KiCad (PCBNEW 6.0.1-79c1e3a40b~116~ubuntu20.04.1) date 2022-01-30 13:12:07*
%MOMM*%
%LPD*%
G01*
G04 APERTURE LIST*
%ADD10R,1.651000X2.540000*%
%ADD11C,3.400000*%
G04 APERTURE END LIST*
%TO.C,J3*%
G36*
X157500000Y-80500000D02*
G01*
X154500000Y-80500000D01*
X154500000Y-74500000D01*
X157500000Y-74500000D01*
X157500000Y-80500000D01*
G37*
%TO.C,J2*%
G36*
X150500000Y-87500000D02*
G01*
X144500000Y-87500000D01*
X144500000Y-84500000D01*
X150500000Y-84500000D01*
X150500000Y-87500000D01*
G37*
%TO.C,J1*%
G36*
X140500000Y-80500000D02*
G01*
X137500000Y-80500000D01*
X137500000Y-74500000D01*
X140500000Y-74500000D01*
X140500000Y-80500000D01*
G37*
%TD*%
D10*
%TO.C,U1*%
X149040000Y-75460000D03*
X146500000Y-75460000D03*
X143960000Y-75460000D03*
X143960000Y-80540000D03*
X146500000Y-80540000D03*
X149040000Y-80540000D03*
%TD*%
D11*
%TO.C,H4*%
X140000000Y-85000000D03*
%TD*%
%TO.C,H3*%
X140000000Y-70000000D03*
%TD*%
%TO.C,H2*%
X155000000Y-70000000D03*
%TD*%
%TO.C,H1*%
X155000000Y-85000000D03*
%TD*%
G36*
X155004119Y-67500270D02*
G01*
X155318073Y-67520848D01*
X155334413Y-67522999D01*
X155638950Y-67583574D01*
X155654871Y-67587840D01*
X155948888Y-67687646D01*
X155964114Y-67693953D01*
X156242592Y-67831283D01*
X156256866Y-67839524D01*
X156515034Y-68012027D01*
X156528109Y-68022060D01*
X156761557Y-68226788D01*
X156773212Y-68238443D01*
X156977940Y-68471891D01*
X156987973Y-68484966D01*
X157160476Y-68743134D01*
X157168717Y-68757408D01*
X157306047Y-69035886D01*
X157312354Y-69051111D01*
X157324706Y-69087497D01*
X157327663Y-69158432D01*
X157291800Y-69219705D01*
X157228504Y-69251862D01*
X157205393Y-69254000D01*
X146626000Y-69254000D01*
X146557879Y-69233998D01*
X146511386Y-69180342D01*
X146500000Y-69128000D01*
X146500000Y-69018115D01*
X146495525Y-69002876D01*
X146494135Y-69001671D01*
X146486452Y-69000000D01*
X143518115Y-69000000D01*
X143502876Y-69004475D01*
X143501671Y-69005865D01*
X143500000Y-69013548D01*
X143500000Y-69128000D01*
X143479998Y-69196121D01*
X143426342Y-69242614D01*
X143374000Y-69254000D01*
X137794607Y-69254000D01*
X137726486Y-69233998D01*
X137679993Y-69180342D01*
X137669889Y-69110068D01*
X137675294Y-69087497D01*
X137687646Y-69051111D01*
X137693953Y-69035886D01*
X137831283Y-68757408D01*
X137839524Y-68743134D01*
X138012027Y-68484966D01*
X138022060Y-68471891D01*
X138226788Y-68238443D01*
X138238443Y-68226788D01*
X138471891Y-68022060D01*
X138484966Y-68012027D01*
X138743134Y-67839524D01*
X138757408Y-67831283D01*
X139035886Y-67693953D01*
X139051112Y-67687646D01*
X139345129Y-67587840D01*
X139361050Y-67583574D01*
X139665587Y-67522999D01*
X139681927Y-67520848D01*
X139995881Y-67500270D01*
X140004122Y-67500000D01*
X154995878Y-67500000D01*
X155004119Y-67500270D01*
G37*
G36*
X143503094Y-68746152D02*
G01*
X143518709Y-68746919D01*
X143531018Y-68748131D01*
X143539329Y-68749364D01*
X143603777Y-68779146D01*
X143641892Y-68839044D01*
X143641574Y-68910040D01*
X143602923Y-68969593D01*
X143538210Y-68998797D01*
X143520838Y-69000000D01*
X143518115Y-69000000D01*
X143502876Y-69004475D01*
X143501671Y-69005865D01*
X143500000Y-69013548D01*
X143500000Y-70981885D01*
X143504475Y-70997124D01*
X143505865Y-70998329D01*
X143513548Y-71000000D01*
X143628000Y-71000000D01*
X143696121Y-71020002D01*
X143742614Y-71073658D01*
X143754000Y-71126000D01*
X143754000Y-87374000D01*
X143733998Y-87442121D01*
X143680342Y-87488614D01*
X143628000Y-87500000D01*
X140004122Y-87500000D01*
X139995881Y-87499730D01*
X139681927Y-87479152D01*
X139665587Y-87477001D01*
X139361050Y-87416426D01*
X139345129Y-87412160D01*
X139051112Y-87312354D01*
X139035886Y-87306047D01*
X138757408Y-87168717D01*
X138743134Y-87160476D01*
X138484966Y-86987973D01*
X138471891Y-86977940D01*
X138238443Y-86773212D01*
X138226788Y-86761557D01*
X138022060Y-86528109D01*
X138012027Y-86515034D01*
X137839524Y-86256866D01*
X137831283Y-86242592D01*
X137693953Y-85964114D01*
X137687646Y-85948888D01*
X137587840Y-85654871D01*
X137583574Y-85638950D01*
X137522999Y-85334413D01*
X137520848Y-85318073D01*
X137500270Y-85004119D01*
X137500000Y-84995878D01*
X137500000Y-70004122D01*
X137500270Y-69995881D01*
X137520848Y-69681927D01*
X137522999Y-69665587D01*
X137583574Y-69361050D01*
X137587840Y-69345129D01*
X137687646Y-69051112D01*
X137693953Y-69035886D01*
X137802254Y-68816272D01*
X137850322Y-68764023D01*
X137915260Y-68746000D01*
X143496912Y-68746000D01*
X143503094Y-68746152D01*
G37*
G36*
X157152861Y-68766002D02*
G01*
X157197746Y-68816272D01*
X157306047Y-69035886D01*
X157312354Y-69051112D01*
X157412160Y-69345129D01*
X157416426Y-69361050D01*
X157477001Y-69665587D01*
X157479152Y-69681927D01*
X157499730Y-69995881D01*
X157500000Y-70004122D01*
X157500000Y-84995878D01*
X157499730Y-85004119D01*
X157479152Y-85318073D01*
X157477001Y-85334413D01*
X157416426Y-85638950D01*
X157412160Y-85654871D01*
X157312354Y-85948888D01*
X157306047Y-85964114D01*
X157168717Y-86242592D01*
X157160476Y-86256866D01*
X156987973Y-86515034D01*
X156977940Y-86528109D01*
X156773212Y-86761557D01*
X156761557Y-86773212D01*
X156528109Y-86977940D01*
X156515034Y-86987973D01*
X156256866Y-87160476D01*
X156242592Y-87168717D01*
X155964114Y-87306047D01*
X155948888Y-87312354D01*
X155654871Y-87412160D01*
X155638950Y-87416426D01*
X155334413Y-87477001D01*
X155318073Y-87479152D01*
X155004119Y-87499730D01*
X154995878Y-87500000D01*
X146372000Y-87500000D01*
X146303879Y-87479998D01*
X146257386Y-87426342D01*
X146246000Y-87374000D01*
X146246000Y-71126000D01*
X146266002Y-71057879D01*
X146319658Y-71011386D01*
X146372000Y-71000000D01*
X146481885Y-71000000D01*
X146497124Y-70995525D01*
X146498329Y-70994135D01*
X146500000Y-70986452D01*
X146500000Y-69018115D01*
X146495525Y-69002876D01*
X146494135Y-69001671D01*
X146486452Y-69000000D01*
X146479162Y-69000000D01*
X146411041Y-68979998D01*
X146364548Y-68926342D01*
X146354444Y-68856068D01*
X146383938Y-68791488D01*
X146443664Y-68753104D01*
X146460671Y-68749364D01*
X146468982Y-68748131D01*
X146481291Y-68746919D01*
X146496906Y-68746152D01*
X146503088Y-68746000D01*
X157084740Y-68746000D01*
X157152861Y-68766002D01*
G37*
G36*
X146708512Y-70883938D02*
G01*
X146746896Y-70943664D01*
X146750636Y-70960671D01*
X146751869Y-70968982D01*
X146753081Y-70981291D01*
X146753848Y-70996906D01*
X146754000Y-71003088D01*
X146754000Y-87374000D01*
X146733998Y-87442121D01*
X146680342Y-87488614D01*
X146628000Y-87500000D01*
X143372000Y-87500000D01*
X143303879Y-87479998D01*
X143257386Y-87426342D01*
X143246000Y-87374000D01*
X143246000Y-71003088D01*
X143246152Y-70996906D01*
X143246919Y-70981291D01*
X143248131Y-70968982D01*
X143249364Y-70960671D01*
X143279146Y-70896223D01*
X143339044Y-70858108D01*
X143410040Y-70858426D01*
X143469593Y-70897077D01*
X143498797Y-70961790D01*
X143500000Y-70979162D01*
X143500000Y-70981885D01*
X143504475Y-70997124D01*
X143505865Y-70998329D01*
X143513548Y-71000000D01*
X146481885Y-71000000D01*
X146497124Y-70995525D01*
X146498329Y-70994135D01*
X146500000Y-70986452D01*
X146500000Y-70979162D01*
X146520002Y-70911041D01*
X146573658Y-70864548D01*
X146643932Y-70854444D01*
X146708512Y-70883938D01*
G37*
M02*
