%TF.GenerationSoftware,KiCad,Pcbnew,6.0.9+dfsg-1~bpo11+1*%
%TF.CreationDate,2022-11-06T17:08:34+01:00*%
%TF.ProjectId,mixer,6d697865-722e-46b6-9963-61645f706362,2*%
%TF.SameCoordinates,Original*%
%TF.FileFunction,Copper,L1,Top*%
%TF.FilePolarity,Positive*%
%FSLAX46Y46*%
G04 Gerber Fmt 4.6, Leading zero omitted, Abs format (unit mm)*
G04 Created by KiCad (PCBNEW 6.0.9+dfsg-1~bpo11+1) date 2022-11-06 17:08:34*
%MOMM*%
%LPD*%
G01*
G04 APERTURE LIST*
%TA.AperFunction,SMDPad,CuDef*%
%ADD10R,0.800000X3.000000*%
%TD*%
%TA.AperFunction,ComponentPad*%
%ADD11C,0.800000*%
%TD*%
%TA.AperFunction,SMDPad,CuDef*%
%ADD12R,2.000000X3.000000*%
%TD*%
%TA.AperFunction,ComponentPad*%
%ADD13C,3.400000*%
%TD*%
%TA.AperFunction,SMDPad,CuDef*%
%ADD14R,3.000000X0.800000*%
%TD*%
%TA.AperFunction,SMDPad,CuDef*%
%ADD15R,3.000000X2.000000*%
%TD*%
%TA.AperFunction,ComponentPad*%
%ADD16C,1.016000*%
%TD*%
%TA.AperFunction,SMDPad,CuDef*%
%ADD17R,1.651000X2.540000*%
%TD*%
%TA.AperFunction,SMDPad,CuDef*%
%ADD18R,1.651000X5.334000*%
%TD*%
%TA.AperFunction,SMDPad,CuDef*%
%ADD19R,6.731000X1.270000*%
%TD*%
%TA.AperFunction,SMDPad,CuDef*%
%ADD20R,4.191000X5.334000*%
%TD*%
%TA.AperFunction,ViaPad*%
%ADD21C,0.800000*%
%TD*%
%TA.AperFunction,Conductor*%
%ADD22C,0.800000*%
%TD*%
G04 APERTURE END LIST*
D10*
%TO.P,J2,1,Pin_1*%
%TO.N,Net-(J2-Pad1)*%
X147500000Y-86000000D03*
D11*
%TO.P,J2,2,Pin_2*%
%TO.N,GND*%
X146000000Y-85500000D03*
X146000000Y-86500000D03*
X148500000Y-87000000D03*
X148500000Y-85000000D03*
X146500000Y-87000000D03*
D12*
X149100000Y-86000000D03*
X145900000Y-86000000D03*
D11*
X149000000Y-85500000D03*
X149000000Y-86500000D03*
X148500000Y-86000000D03*
X146500000Y-85000000D03*
X146500000Y-86000000D03*
%TD*%
D13*
%TO.P,H3,1,1*%
%TO.N,GND*%
X140000000Y-70000000D03*
%TD*%
D14*
%TO.P,J3,1,Pin_1*%
%TO.N,Net-(J3-Pad1)*%
X156000000Y-77500000D03*
D11*
%TO.P,J3,2,Pin_2*%
%TO.N,GND*%
X155500000Y-79000000D03*
X156500000Y-79000000D03*
X157000000Y-76500000D03*
X155000000Y-76500000D03*
X157000000Y-78500000D03*
D15*
X156000000Y-75900000D03*
X156000000Y-79100000D03*
D11*
X155500000Y-76000000D03*
X156500000Y-76000000D03*
X156000000Y-76500000D03*
X155000000Y-78500000D03*
X156000000Y-78500000D03*
%TD*%
D16*
%TO.P,U1,1,GND*%
%TO.N,GND*%
X145230000Y-78000000D03*
D17*
X149040000Y-75460000D03*
D16*
X149040000Y-73809000D03*
X143960000Y-78000000D03*
X149040000Y-78000000D03*
X146500000Y-78000000D03*
D18*
X149040000Y-75968000D03*
D19*
X146500000Y-78000000D03*
D16*
X147770000Y-78000000D03*
D17*
%TO.P,U1,2,IF*%
%TO.N,Net-(J3-Pad1)*%
X146500000Y-75460000D03*
%TO.P,U1,3,RF*%
%TO.N,Net-(J1-Pad1)*%
X143960000Y-75460000D03*
D16*
%TO.P,U1,4,GND*%
%TO.N,GND*%
X143960000Y-82191000D03*
D17*
X143960000Y-80540000D03*
D20*
X145230000Y-80032000D03*
D16*
%TO.P,U1,5,GND*%
X146500000Y-82191000D03*
D17*
X146500000Y-80540000D03*
%TO.P,U1,6,LO*%
%TO.N,Net-(J2-Pad1)*%
X149040000Y-80540000D03*
%TD*%
D13*
%TO.P,H1,1,1*%
%TO.N,GND*%
X155000000Y-85000000D03*
%TD*%
%TO.P,H2,1,1*%
%TO.N,GND*%
X155000000Y-70000000D03*
%TD*%
D14*
%TO.P,J1,1,Pin_1*%
%TO.N,Net-(J1-Pad1)*%
X139000000Y-77500000D03*
D11*
%TO.P,J1,2,Pin_2*%
%TO.N,GND*%
X139500000Y-76000000D03*
X138500000Y-76000000D03*
X138000000Y-78500000D03*
X140000000Y-78500000D03*
X138000000Y-76500000D03*
D15*
X139000000Y-79100000D03*
X139000000Y-75900000D03*
D11*
X139500000Y-79000000D03*
X138500000Y-79000000D03*
X139000000Y-78500000D03*
X140000000Y-76500000D03*
X139000000Y-76500000D03*
%TD*%
D13*
%TO.P,H4,1,1*%
%TO.N,GND*%
X140000000Y-85000000D03*
%TD*%
D21*
%TO.N,GND*%
X150500000Y-77000000D03*
X151000000Y-77500000D03*
X154000000Y-75500000D03*
X153500000Y-74000000D03*
X141000000Y-74500000D03*
X142500000Y-82500000D03*
X153000000Y-78500000D03*
X152500000Y-73000000D03*
X141500000Y-76000000D03*
X147000000Y-71500000D03*
X148500000Y-71000000D03*
X151000000Y-83500000D03*
X152500000Y-70000000D03*
X152500000Y-82500000D03*
X146500000Y-72000000D03*
X151500000Y-78000000D03*
X145000000Y-85000000D03*
X140000000Y-82500000D03*
X153000000Y-73500000D03*
X149000000Y-83500000D03*
X151500000Y-79000000D03*
X143000000Y-72500000D03*
X150000000Y-70000000D03*
X154000000Y-76500000D03*
X154500000Y-79000000D03*
X145500000Y-72000000D03*
X152000000Y-72500000D03*
X150000000Y-83500000D03*
X153000000Y-75500000D03*
X150000000Y-84500000D03*
X149500000Y-84000000D03*
X151500000Y-82000000D03*
X151000000Y-78500000D03*
X148000000Y-71500000D03*
X142500000Y-80000000D03*
X142500000Y-79000000D03*
X146000000Y-84500000D03*
X141000000Y-78500000D03*
X152000000Y-78500000D03*
X150500000Y-76000000D03*
X155000000Y-72500000D03*
X152500000Y-74000000D03*
X152500000Y-85000000D03*
X142500000Y-70000000D03*
X152500000Y-75000000D03*
X153000000Y-74500000D03*
X142500000Y-85000000D03*
X140000000Y-80000000D03*
X152500000Y-80000000D03*
X142000000Y-74500000D03*
X149000000Y-84500000D03*
X151000000Y-81500000D03*
X144000000Y-72500000D03*
X151500000Y-80000000D03*
X152500000Y-72000000D03*
X151000000Y-82500000D03*
X146000000Y-83500000D03*
X155000000Y-82500000D03*
X141500000Y-75000000D03*
X149500000Y-83000000D03*
X146000000Y-72500000D03*
X149500000Y-71000000D03*
X141000000Y-75500000D03*
X143500000Y-73000000D03*
X151500000Y-81000000D03*
X140500000Y-79000000D03*
X150500000Y-71000000D03*
X151500000Y-83000000D03*
X145000000Y-82500000D03*
X155000000Y-80000000D03*
X153000000Y-72500000D03*
X153500000Y-75000000D03*
X142000000Y-75500000D03*
X150500000Y-75000000D03*
X145000000Y-70000000D03*
X144500000Y-73000000D03*
X149500000Y-85000000D03*
X151000000Y-71500000D03*
X153500000Y-76000000D03*
X142000000Y-73500000D03*
X150500000Y-78000000D03*
X154500000Y-76000000D03*
X151500000Y-72000000D03*
X142500000Y-73000000D03*
X140000000Y-75500000D03*
X145000000Y-80000000D03*
X155000000Y-75000000D03*
X151000000Y-80500000D03*
X153500000Y-79000000D03*
X147500000Y-70000000D03*
X145000000Y-72500000D03*
X150500000Y-83000000D03*
X146000000Y-71500000D03*
X150000000Y-71500000D03*
X149000000Y-71500000D03*
X152000000Y-71500000D03*
X142000000Y-78500000D03*
X140000000Y-72500000D03*
X141500000Y-74000000D03*
X141500000Y-79000000D03*
X140500000Y-76000000D03*
X151000000Y-79500000D03*
X154000000Y-78500000D03*
X152500000Y-79000000D03*
X140500000Y-75000000D03*
X150500000Y-84000000D03*
X152000000Y-79500000D03*
X146500000Y-84000000D03*
X145500000Y-73000000D03*
X147500000Y-71000000D03*
%TD*%
D22*
%TO.N,Net-(J1-Pad1)*%
X142798680Y-76621320D02*
X143960000Y-75460000D01*
X139000000Y-77500000D02*
X140677359Y-77500000D01*
X140677359Y-77499971D02*
G75*
G03*
X142798680Y-76621320I41J2999971D01*
G01*
%TO.N,Net-(J2-Pad1)*%
X149040000Y-81545786D02*
X149040000Y-80540000D01*
X148378680Y-82621320D02*
X148747107Y-82252893D01*
X147500000Y-86000000D02*
X147500000Y-84742641D01*
X148747114Y-82252900D02*
G75*
G03*
X149040000Y-81545786I-707114J707100D01*
G01*
X147500029Y-84742641D02*
G75*
G02*
X148378680Y-82621320I2999971J41D01*
G01*
%TO.N,Net-(J3-Pad1)*%
X148500000Y-72500000D02*
X149500000Y-72500000D01*
X146500000Y-75460000D02*
X146500000Y-74500000D01*
X151500000Y-74500000D02*
X151500000Y-75500000D01*
X153500000Y-77500000D02*
X156000000Y-77500000D01*
X151500000Y-74500000D02*
G75*
G03*
X149500000Y-72500000I-2000000J0D01*
G01*
X148500000Y-72500000D02*
G75*
G03*
X146500000Y-74500000I0J-2000000D01*
G01*
X153500000Y-77500000D02*
G75*
G02*
X151500000Y-75500000I0J2000000D01*
G01*
%TD*%
%TA.AperFunction,Conductor*%
%TO.N,GND*%
G36*
X149467072Y-73101347D02*
G01*
X149500000Y-73105682D01*
X149514320Y-73103797D01*
X149535004Y-73103255D01*
X149613737Y-73109451D01*
X149711162Y-73117119D01*
X149726505Y-73119549D01*
X149924894Y-73167178D01*
X149939669Y-73171979D01*
X150128162Y-73250055D01*
X150142004Y-73257108D01*
X150315964Y-73363712D01*
X150328531Y-73372843D01*
X150483671Y-73505344D01*
X150494656Y-73516329D01*
X150627157Y-73671469D01*
X150636288Y-73684036D01*
X150742892Y-73857996D01*
X150749945Y-73871838D01*
X150828021Y-74060331D01*
X150832822Y-74075106D01*
X150880451Y-74273495D01*
X150882881Y-74288838D01*
X150896745Y-74464993D01*
X150896203Y-74485680D01*
X150894318Y-74500000D01*
X150895165Y-74506433D01*
X150898653Y-74532927D01*
X150899500Y-74545849D01*
X150899500Y-75454151D01*
X150898653Y-75467072D01*
X150894318Y-75500000D01*
X150895165Y-75506433D01*
X150895165Y-75506434D01*
X150895725Y-75510690D01*
X150896415Y-75518054D01*
X150904404Y-75660298D01*
X150911779Y-75791622D01*
X150960705Y-76079578D01*
X150961474Y-76082247D01*
X150985107Y-76164278D01*
X151041563Y-76360244D01*
X151042628Y-76362815D01*
X151152122Y-76627157D01*
X151153338Y-76630093D01*
X151294624Y-76885730D01*
X151296227Y-76887989D01*
X151296230Y-76887994D01*
X151360383Y-76978408D01*
X151463643Y-77123940D01*
X151465490Y-77126007D01*
X151465495Y-77126013D01*
X151566738Y-77239304D01*
X151658271Y-77341729D01*
X151660349Y-77343586D01*
X151873987Y-77534505D01*
X151873993Y-77534510D01*
X151876060Y-77536357D01*
X151878322Y-77537962D01*
X151878327Y-77537966D01*
X152112006Y-77703770D01*
X152112011Y-77703773D01*
X152114270Y-77705376D01*
X152369907Y-77846662D01*
X152372470Y-77847724D01*
X152372477Y-77847727D01*
X152608216Y-77945373D01*
X152639756Y-77958437D01*
X152642425Y-77959206D01*
X152642428Y-77959207D01*
X152843732Y-78017201D01*
X152920422Y-78039295D01*
X152923162Y-78039761D01*
X152923164Y-78039761D01*
X153205628Y-78087754D01*
X153205632Y-78087754D01*
X153208378Y-78088221D01*
X153339702Y-78095596D01*
X153481946Y-78103585D01*
X153489310Y-78104275D01*
X153489470Y-78104296D01*
X153500000Y-78105682D01*
X153532928Y-78101347D01*
X153545849Y-78100500D01*
X157200500Y-78100500D01*
X157258691Y-78119407D01*
X157294655Y-78168907D01*
X157299500Y-78199500D01*
X157299500Y-84965983D01*
X157296982Y-84988169D01*
X157294344Y-84999641D01*
X157296805Y-85010517D01*
X157296786Y-85021664D01*
X157296757Y-85021664D01*
X157297578Y-85031772D01*
X157283096Y-85271197D01*
X157281656Y-85283056D01*
X157233761Y-85544415D01*
X157230900Y-85556023D01*
X157151852Y-85809695D01*
X157147613Y-85820873D01*
X157038564Y-86063170D01*
X157033008Y-86073756D01*
X156895548Y-86301142D01*
X156888757Y-86310980D01*
X156724897Y-86520132D01*
X156716970Y-86529081D01*
X156529081Y-86716970D01*
X156520132Y-86724897D01*
X156310980Y-86888757D01*
X156301142Y-86895548D01*
X156073756Y-87033008D01*
X156063170Y-87038564D01*
X155820873Y-87147613D01*
X155809695Y-87151852D01*
X155556015Y-87230902D01*
X155544422Y-87233759D01*
X155283056Y-87281656D01*
X155271204Y-87283095D01*
X155032288Y-87297547D01*
X155022372Y-87296724D01*
X155022372Y-87296862D01*
X155011224Y-87296842D01*
X155000359Y-87294344D01*
X154988359Y-87297059D01*
X154966512Y-87299500D01*
X148199500Y-87299500D01*
X148141309Y-87280593D01*
X148105345Y-87231093D01*
X148100500Y-87200500D01*
X148100500Y-84788485D01*
X148101347Y-84775564D01*
X148104835Y-84749067D01*
X148105682Y-84742633D01*
X148104827Y-84736138D01*
X148103281Y-84724397D01*
X148102590Y-84705923D01*
X148108604Y-84598811D01*
X148115302Y-84479519D01*
X148116544Y-84468494D01*
X148124272Y-84423011D01*
X148159751Y-84214176D01*
X148162220Y-84203357D01*
X148233632Y-83955472D01*
X148237295Y-83945002D01*
X148336017Y-83706658D01*
X148340827Y-83696671D01*
X148465607Y-83470892D01*
X148471514Y-83461491D01*
X148620786Y-83251107D01*
X148627708Y-83242427D01*
X148778703Y-83073461D01*
X148792254Y-83060888D01*
X148801813Y-83053553D01*
X148801816Y-83053550D01*
X148806966Y-83049598D01*
X148827183Y-83023251D01*
X148835721Y-83013515D01*
X149139314Y-82709922D01*
X149149040Y-82701393D01*
X149175393Y-82681171D01*
X149189564Y-82662703D01*
X149193673Y-82657695D01*
X149310362Y-82524635D01*
X149310365Y-82524631D01*
X149312497Y-82522200D01*
X149334348Y-82489497D01*
X149382394Y-82451619D01*
X149416662Y-82445499D01*
X149929680Y-82445499D01*
X149931624Y-82445346D01*
X149931626Y-82445346D01*
X149960663Y-82443062D01*
X149960667Y-82443061D01*
X149965704Y-82442665D01*
X150043035Y-82420198D01*
X150113908Y-82399608D01*
X150113909Y-82399607D01*
X150119893Y-82397869D01*
X150193319Y-82354445D01*
X150252740Y-82319304D01*
X150252742Y-82319303D01*
X150258098Y-82316135D01*
X150371635Y-82202598D01*
X150453369Y-82064393D01*
X150498165Y-81910204D01*
X150501000Y-81874181D01*
X150500999Y-79205820D01*
X150498165Y-79169796D01*
X150453369Y-79015607D01*
X150371635Y-78877402D01*
X150258098Y-78763865D01*
X150252742Y-78760697D01*
X150252740Y-78760696D01*
X150193319Y-78725555D01*
X150119893Y-78682131D01*
X150113909Y-78680393D01*
X150113908Y-78680392D01*
X149970562Y-78638746D01*
X149970558Y-78638745D01*
X149965704Y-78637335D01*
X149960664Y-78636938D01*
X149960662Y-78636938D01*
X149944901Y-78635698D01*
X149929681Y-78634500D01*
X149040229Y-78634500D01*
X148150320Y-78634501D01*
X148148376Y-78634654D01*
X148148374Y-78634654D01*
X148119337Y-78636938D01*
X148119333Y-78636939D01*
X148114296Y-78637335D01*
X148036965Y-78659802D01*
X147966092Y-78680392D01*
X147966091Y-78680393D01*
X147960107Y-78682131D01*
X147886681Y-78725555D01*
X147827260Y-78760696D01*
X147827258Y-78760697D01*
X147821902Y-78763865D01*
X147708365Y-78877402D01*
X147626631Y-79015607D01*
X147581835Y-79169796D01*
X147579000Y-79205819D01*
X147579001Y-81874180D01*
X147581835Y-81910204D01*
X147626631Y-82064393D01*
X147708365Y-82202598D01*
X147764729Y-82258962D01*
X147792506Y-82313479D01*
X147782935Y-82373911D01*
X147768085Y-82395443D01*
X147713419Y-82455759D01*
X147711964Y-82457721D01*
X147528322Y-82705340D01*
X147502687Y-82739905D01*
X147320820Y-83043338D01*
X147319779Y-83045538D01*
X147319779Y-83045539D01*
X147224700Y-83246573D01*
X147169571Y-83363136D01*
X147050396Y-83696220D01*
X146964444Y-84039380D01*
X146964088Y-84041783D01*
X146964087Y-84041786D01*
X146938517Y-84214181D01*
X146912541Y-84389314D01*
X146912422Y-84391745D01*
X146911244Y-84415717D01*
X146909461Y-84430172D01*
X146901839Y-84468494D01*
X146899500Y-84480252D01*
X146899500Y-84652398D01*
X146899381Y-84657255D01*
X146895902Y-84728081D01*
X146895175Y-84736138D01*
X146894318Y-84742649D01*
X146895165Y-84749082D01*
X146898653Y-84775574D01*
X146899500Y-84788497D01*
X146899500Y-87200500D01*
X146880593Y-87258691D01*
X146831093Y-87294655D01*
X146800500Y-87299500D01*
X140034017Y-87299500D01*
X140011831Y-87296982D01*
X140011801Y-87296975D01*
X140000359Y-87294344D01*
X139989483Y-87296805D01*
X139978336Y-87296786D01*
X139978336Y-87296757D01*
X139968228Y-87297578D01*
X139838014Y-87289702D01*
X139728796Y-87283095D01*
X139716944Y-87281656D01*
X139455578Y-87233759D01*
X139443985Y-87230902D01*
X139190305Y-87151852D01*
X139179127Y-87147613D01*
X138936830Y-87038564D01*
X138926244Y-87033008D01*
X138698858Y-86895548D01*
X138689020Y-86888757D01*
X138479868Y-86724897D01*
X138470919Y-86716970D01*
X138283030Y-86529081D01*
X138275103Y-86520132D01*
X138111243Y-86310980D01*
X138104452Y-86301142D01*
X137966992Y-86073756D01*
X137961436Y-86063170D01*
X137852387Y-85820873D01*
X137848148Y-85809695D01*
X137769100Y-85556023D01*
X137766239Y-85544415D01*
X137718344Y-85283056D01*
X137716904Y-85271197D01*
X137702469Y-85032548D01*
X137704207Y-85011810D01*
X137703747Y-85011757D01*
X137704389Y-85006179D01*
X137705655Y-85000718D01*
X137705656Y-85000000D01*
X137704412Y-84994545D01*
X137702980Y-84988266D01*
X137700500Y-84966248D01*
X137700500Y-78199500D01*
X137719407Y-78141309D01*
X137768907Y-78105345D01*
X137799500Y-78100500D01*
X140631503Y-78100500D01*
X140644426Y-78101347D01*
X140677351Y-78105682D01*
X140683786Y-78104835D01*
X140683862Y-78104825D01*
X140691919Y-78104098D01*
X141028253Y-78087579D01*
X141028263Y-78087578D01*
X141030686Y-78087459D01*
X141033089Y-78087103D01*
X141033095Y-78087102D01*
X141378214Y-78035913D01*
X141378217Y-78035912D01*
X141380620Y-78035556D01*
X141723780Y-77949604D01*
X141726074Y-77948783D01*
X141726078Y-77948782D01*
X141925610Y-77877391D01*
X142056864Y-77830429D01*
X142059061Y-77829390D01*
X142059068Y-77829387D01*
X142374461Y-77680221D01*
X142374462Y-77680221D01*
X142376662Y-77679180D01*
X142680095Y-77497313D01*
X142870806Y-77355875D01*
X142928808Y-77336398D01*
X142957396Y-77340323D01*
X143034296Y-77362665D01*
X143039336Y-77363062D01*
X143039338Y-77363062D01*
X143055099Y-77364302D01*
X143070319Y-77365500D01*
X143959771Y-77365500D01*
X144849680Y-77365499D01*
X144851624Y-77365346D01*
X144851626Y-77365346D01*
X144880663Y-77363062D01*
X144880667Y-77363061D01*
X144885704Y-77362665D01*
X145009755Y-77326625D01*
X145033908Y-77319608D01*
X145033909Y-77319607D01*
X145039893Y-77317869D01*
X145178098Y-77236135D01*
X145179395Y-77238329D01*
X145226888Y-77221229D01*
X145281359Y-77237053D01*
X145281902Y-77236135D01*
X145286017Y-77238569D01*
X145286019Y-77238570D01*
X145336593Y-77268479D01*
X145420107Y-77317869D01*
X145426091Y-77319607D01*
X145426092Y-77319608D01*
X145569438Y-77361254D01*
X145569442Y-77361255D01*
X145574296Y-77362665D01*
X145579336Y-77363062D01*
X145579338Y-77363062D01*
X145595099Y-77364302D01*
X145610319Y-77365500D01*
X146499771Y-77365500D01*
X147389680Y-77365499D01*
X147391624Y-77365346D01*
X147391626Y-77365346D01*
X147420663Y-77363062D01*
X147420667Y-77363061D01*
X147425704Y-77362665D01*
X147549755Y-77326625D01*
X147573908Y-77319608D01*
X147573909Y-77319607D01*
X147579893Y-77317869D01*
X147653319Y-77274445D01*
X147712740Y-77239304D01*
X147712742Y-77239303D01*
X147718098Y-77236135D01*
X147831635Y-77122598D01*
X147913369Y-76984393D01*
X147939292Y-76895165D01*
X147956754Y-76835062D01*
X147956755Y-76835058D01*
X147958165Y-76830204D01*
X147961000Y-76794181D01*
X147960999Y-74125820D01*
X147958165Y-74089796D01*
X147913369Y-73935607D01*
X147831635Y-73797402D01*
X147718098Y-73683865D01*
X147712738Y-73680695D01*
X147712734Y-73680692D01*
X147594622Y-73610840D01*
X147554159Y-73564944D01*
X147548401Y-73504031D01*
X147580721Y-73450348D01*
X147671471Y-73372841D01*
X147684036Y-73363712D01*
X147857996Y-73257108D01*
X147871838Y-73250055D01*
X148060331Y-73171979D01*
X148075106Y-73167178D01*
X148273495Y-73119549D01*
X148288838Y-73117119D01*
X148386263Y-73109451D01*
X148464996Y-73103255D01*
X148485680Y-73103797D01*
X148500000Y-73105682D01*
X148532928Y-73101347D01*
X148545849Y-73100500D01*
X149454151Y-73100500D01*
X149467072Y-73101347D01*
G37*
%TD.AperFunction*%
%TA.AperFunction,Conductor*%
G36*
X154988169Y-67703018D02*
G01*
X154999641Y-67705656D01*
X155010517Y-67703195D01*
X155021664Y-67703214D01*
X155021664Y-67703243D01*
X155031772Y-67702422D01*
X155161986Y-67710298D01*
X155271204Y-67716905D01*
X155283056Y-67718344D01*
X155544422Y-67766241D01*
X155556015Y-67769098D01*
X155762244Y-67833361D01*
X155809695Y-67848148D01*
X155820873Y-67852387D01*
X156063170Y-67961436D01*
X156073756Y-67966992D01*
X156301142Y-68104452D01*
X156310980Y-68111243D01*
X156520132Y-68275103D01*
X156529081Y-68283030D01*
X156716970Y-68470919D01*
X156724897Y-68479868D01*
X156888757Y-68689020D01*
X156895548Y-68698858D01*
X157033008Y-68926244D01*
X157038564Y-68936830D01*
X157147613Y-69179127D01*
X157151852Y-69190305D01*
X157230900Y-69443977D01*
X157233759Y-69455578D01*
X157281655Y-69716936D01*
X157283096Y-69728803D01*
X157297547Y-69967712D01*
X157296724Y-69977628D01*
X157296862Y-69977628D01*
X157296842Y-69988776D01*
X157294344Y-69999641D01*
X157296804Y-70010513D01*
X157297059Y-70011638D01*
X157299500Y-70033488D01*
X157299500Y-76800500D01*
X157280593Y-76858691D01*
X157231093Y-76894655D01*
X157200500Y-76899500D01*
X153545849Y-76899500D01*
X153532927Y-76898653D01*
X153527443Y-76897931D01*
X153500000Y-76894318D01*
X153485680Y-76896203D01*
X153464996Y-76896745D01*
X153386263Y-76890549D01*
X153288838Y-76882881D01*
X153273495Y-76880451D01*
X153075106Y-76832822D01*
X153060331Y-76828021D01*
X152871838Y-76749945D01*
X152857996Y-76742892D01*
X152684036Y-76636288D01*
X152671469Y-76627157D01*
X152516329Y-76494656D01*
X152505344Y-76483671D01*
X152372843Y-76328531D01*
X152363712Y-76315964D01*
X152257108Y-76142004D01*
X152250055Y-76128162D01*
X152171979Y-75939669D01*
X152167178Y-75924894D01*
X152119549Y-75726505D01*
X152117119Y-75711162D01*
X152103255Y-75535007D01*
X152103797Y-75514317D01*
X152104835Y-75506433D01*
X152105682Y-75500000D01*
X152101347Y-75467072D01*
X152100500Y-75454151D01*
X152100500Y-74545849D01*
X152101347Y-74532927D01*
X152104835Y-74506433D01*
X152105682Y-74500000D01*
X152104275Y-74489310D01*
X152103585Y-74481946D01*
X152095596Y-74339701D01*
X152088221Y-74208378D01*
X152068930Y-74094837D01*
X152039761Y-73923164D01*
X152039761Y-73923162D01*
X152039295Y-73920422D01*
X151975439Y-73698771D01*
X151959207Y-73642428D01*
X151959206Y-73642425D01*
X151958437Y-73639756D01*
X151879981Y-73450346D01*
X151847727Y-73372477D01*
X151847724Y-73372470D01*
X151846662Y-73369907D01*
X151705376Y-73114270D01*
X151703770Y-73112006D01*
X151537966Y-72878327D01*
X151537962Y-72878322D01*
X151536357Y-72876060D01*
X151534510Y-72873993D01*
X151534505Y-72873987D01*
X151343586Y-72660349D01*
X151341729Y-72658271D01*
X151334705Y-72651994D01*
X151126013Y-72465495D01*
X151126007Y-72465490D01*
X151123940Y-72463643D01*
X151121678Y-72462038D01*
X151121673Y-72462034D01*
X150887994Y-72296230D01*
X150887989Y-72296227D01*
X150885730Y-72294624D01*
X150630093Y-72153338D01*
X150627530Y-72152276D01*
X150627523Y-72152273D01*
X150362815Y-72042628D01*
X150362816Y-72042628D01*
X150360244Y-72041563D01*
X150357575Y-72040794D01*
X150357572Y-72040793D01*
X150082247Y-71961474D01*
X150082248Y-71961474D01*
X150079578Y-71960705D01*
X150076838Y-71960239D01*
X150076836Y-71960239D01*
X149794372Y-71912246D01*
X149794368Y-71912246D01*
X149791622Y-71911779D01*
X149660298Y-71904404D01*
X149518054Y-71896415D01*
X149510690Y-71895725D01*
X149509190Y-71895528D01*
X149500000Y-71894318D01*
X149484072Y-71896415D01*
X149467073Y-71898653D01*
X149454151Y-71899500D01*
X148545849Y-71899500D01*
X148532927Y-71898653D01*
X148515928Y-71896415D01*
X148500000Y-71894318D01*
X148490810Y-71895528D01*
X148489310Y-71895725D01*
X148481946Y-71896415D01*
X148339702Y-71904404D01*
X148208378Y-71911779D01*
X148205632Y-71912246D01*
X148205628Y-71912246D01*
X147923164Y-71960239D01*
X147923162Y-71960239D01*
X147920422Y-71960705D01*
X147917752Y-71961474D01*
X147917753Y-71961474D01*
X147642428Y-72040793D01*
X147642425Y-72040794D01*
X147639756Y-72041563D01*
X147637184Y-72042628D01*
X147637185Y-72042628D01*
X147372477Y-72152273D01*
X147372470Y-72152276D01*
X147369907Y-72153338D01*
X147114270Y-72294624D01*
X147112011Y-72296227D01*
X147112006Y-72296230D01*
X146878327Y-72462034D01*
X146878322Y-72462038D01*
X146876060Y-72463643D01*
X146873993Y-72465490D01*
X146873987Y-72465495D01*
X146665295Y-72651994D01*
X146658271Y-72658271D01*
X146656414Y-72660349D01*
X146465495Y-72873987D01*
X146465490Y-72873993D01*
X146463643Y-72876060D01*
X146462038Y-72878322D01*
X146462034Y-72878327D01*
X146296230Y-73112006D01*
X146294624Y-73114270D01*
X146153338Y-73369907D01*
X146152276Y-73372470D01*
X146152273Y-73372477D01*
X146102191Y-73493387D01*
X146062454Y-73539912D01*
X146010727Y-73554501D01*
X145610320Y-73554501D01*
X145608376Y-73554654D01*
X145608374Y-73554654D01*
X145579337Y-73556938D01*
X145579333Y-73556939D01*
X145574296Y-73557335D01*
X145496965Y-73579802D01*
X145426092Y-73600392D01*
X145426091Y-73600393D01*
X145420107Y-73602131D01*
X145281902Y-73683865D01*
X145280605Y-73681671D01*
X145233112Y-73698771D01*
X145178641Y-73682947D01*
X145178098Y-73683865D01*
X145174523Y-73681751D01*
X145174524Y-73681751D01*
X145172740Y-73680696D01*
X145108032Y-73642428D01*
X145039893Y-73602131D01*
X145033909Y-73600393D01*
X145033908Y-73600392D01*
X144890562Y-73558746D01*
X144890558Y-73558745D01*
X144885704Y-73557335D01*
X144880664Y-73556938D01*
X144880662Y-73556938D01*
X144864901Y-73555698D01*
X144849681Y-73554500D01*
X143960229Y-73554500D01*
X143070320Y-73554501D01*
X143068376Y-73554654D01*
X143068374Y-73554654D01*
X143039337Y-73556938D01*
X143039333Y-73556939D01*
X143034296Y-73557335D01*
X142956965Y-73579802D01*
X142886092Y-73600392D01*
X142886091Y-73600393D01*
X142880107Y-73602131D01*
X142811968Y-73642428D01*
X142747260Y-73680696D01*
X142747258Y-73680697D01*
X142741902Y-73683865D01*
X142628365Y-73797402D01*
X142546631Y-73935607D01*
X142544893Y-73941591D01*
X142544892Y-73941592D01*
X142506103Y-74075106D01*
X142501835Y-74089796D01*
X142499000Y-74125819D01*
X142499000Y-74127769D01*
X142499001Y-76030756D01*
X142480094Y-76088947D01*
X142470005Y-76100760D01*
X142406487Y-76164278D01*
X142396749Y-76172817D01*
X142375554Y-76189080D01*
X142375551Y-76189083D01*
X142370402Y-76193034D01*
X142366450Y-76198184D01*
X142366447Y-76198187D01*
X142359112Y-76207746D01*
X142346540Y-76221296D01*
X142226542Y-76328531D01*
X142177573Y-76372292D01*
X142168893Y-76379214D01*
X141958509Y-76528486D01*
X141949108Y-76534393D01*
X141723329Y-76659173D01*
X141713342Y-76663983D01*
X141474998Y-76762705D01*
X141464528Y-76766368D01*
X141367984Y-76794181D01*
X141216637Y-76837781D01*
X141205824Y-76840249D01*
X140951500Y-76883457D01*
X140940481Y-76884698D01*
X140821189Y-76891396D01*
X140714077Y-76897410D01*
X140695603Y-76896719D01*
X140683801Y-76895165D01*
X140683799Y-76895165D01*
X140677367Y-76894318D01*
X140670933Y-76895165D01*
X140644436Y-76898653D01*
X140631515Y-76899500D01*
X137799500Y-76899500D01*
X137741309Y-76880593D01*
X137705345Y-76831093D01*
X137700500Y-76800500D01*
X137700500Y-70034281D01*
X137703057Y-70011926D01*
X137703141Y-70011565D01*
X137705655Y-70000718D01*
X137705656Y-70000000D01*
X137704413Y-69994549D01*
X137703791Y-69988995D01*
X137704159Y-69988954D01*
X137702438Y-69967973D01*
X137716904Y-69728804D01*
X137718345Y-69716936D01*
X137766241Y-69455578D01*
X137769100Y-69443977D01*
X137848148Y-69190305D01*
X137852387Y-69179127D01*
X137961436Y-68936830D01*
X137966992Y-68926244D01*
X138104452Y-68698858D01*
X138111243Y-68689020D01*
X138275103Y-68479868D01*
X138283030Y-68470919D01*
X138470919Y-68283030D01*
X138479868Y-68275103D01*
X138689020Y-68111243D01*
X138698858Y-68104452D01*
X138926244Y-67966992D01*
X138936830Y-67961436D01*
X139179127Y-67852387D01*
X139190305Y-67848148D01*
X139237756Y-67833361D01*
X139443985Y-67769098D01*
X139455578Y-67766241D01*
X139716944Y-67718344D01*
X139728796Y-67716905D01*
X139967712Y-67702453D01*
X139977628Y-67703276D01*
X139977628Y-67703138D01*
X139988776Y-67703158D01*
X139999641Y-67705656D01*
X140011641Y-67702941D01*
X140033488Y-67700500D01*
X154965983Y-67700500D01*
X154988169Y-67703018D01*
G37*
%TD.AperFunction*%
%TD*%
M02*
