%TF.GenerationSoftware,KiCad,Pcbnew,6.0.9+dfsg-1~bpo11+1*%
%TF.CreationDate,2022-11-28T20:30:39+01:00*%
%TF.ProjectId,018-crystal-oscillator,3031382d-6372-4797-9374-616c2d6f7363,1*%
%TF.SameCoordinates,Original*%
%TF.FileFunction,Plated,1,2,PTH,Drill*%
%TF.FilePolarity,Positive*%
%FSLAX46Y46*%
G04 Gerber Fmt 4.6, Leading zero omitted, Abs format (unit mm)*
G04 Created by KiCad (PCBNEW 6.0.9+dfsg-1~bpo11+1) date 2022-11-28 20:30:39*
%MOMM*%
%LPD*%
G01*
G04 APERTURE LIST*
%TA.AperFunction,ViaDrill*%
%ADD10C,0.400000*%
%TD*%
%TA.AperFunction,ComponentDrill*%
%ADD11C,0.400000*%
%TD*%
%TA.AperFunction,ComponentDrill*%
%ADD12C,0.700000*%
%TD*%
%TA.AperFunction,ComponentDrill*%
%ADD13C,2.000000*%
%TD*%
G04 APERTURE END LIST*
D10*
X152500000Y-80000000D03*
X152500000Y-82500000D03*
X152500000Y-85000000D03*
X152500000Y-87500000D03*
X152500000Y-90000000D03*
X155000000Y-77500000D03*
X155000000Y-80000000D03*
X155000000Y-82500000D03*
X155000000Y-85000000D03*
X155000000Y-87500000D03*
X155000000Y-90000000D03*
X155000000Y-92500000D03*
X157500000Y-80000000D03*
X157500000Y-85000000D03*
X157500000Y-87500000D03*
X157500000Y-90000000D03*
X157500000Y-92500000D03*
X160000000Y-77500000D03*
X160000000Y-82500000D03*
X160000000Y-85000000D03*
X160000000Y-87500000D03*
X162500000Y-77500000D03*
X162500000Y-85000000D03*
X162500000Y-90000000D03*
X162500000Y-92500000D03*
X165000000Y-77500000D03*
X165000000Y-80000000D03*
X165000000Y-85000000D03*
X165000000Y-87500000D03*
X165000000Y-90000000D03*
X165000000Y-92500000D03*
X165785800Y-81737200D03*
X165785800Y-83261200D03*
X167500000Y-80000000D03*
X167500000Y-82500000D03*
X167500000Y-85000000D03*
X167500000Y-87500000D03*
X167500000Y-90000000D03*
D11*
%TO.C,J1*%
X158500000Y-93000000D03*
X158500000Y-94000000D03*
X159000000Y-92500000D03*
X159000000Y-93500000D03*
X159000000Y-94500000D03*
X161000000Y-92500000D03*
X161000000Y-93500000D03*
X161000000Y-94500000D03*
X161500000Y-93000000D03*
X161500000Y-94000000D03*
D12*
%TO.C,J4*%
X157500000Y-77500000D03*
D13*
%TO.C,H1*%
X152500000Y-77500000D03*
%TO.C,H2*%
X152500000Y-92500000D03*
%TO.C,H4*%
X167500000Y-77500000D03*
%TO.C,H3*%
X167500000Y-92500000D03*
M02*
