%TF.GenerationSoftware,KiCad,Pcbnew,6.0.9+dfsg-1~bpo11+1*%
%TF.CreationDate,2022-11-28T20:30:37+01:00*%
%TF.ProjectId,018-crystal-oscillator,3031382d-6372-4797-9374-616c2d6f7363,1*%
%TF.SameCoordinates,Original*%
%TF.FileFunction,Legend,Top*%
%TF.FilePolarity,Positive*%
%FSLAX46Y46*%
G04 Gerber Fmt 4.6, Leading zero omitted, Abs format (unit mm)*
G04 Created by KiCad (PCBNEW 6.0.9+dfsg-1~bpo11+1) date 2022-11-28 20:30:37*
%MOMM*%
%LPD*%
G01*
G04 APERTURE LIST*
%ADD10C,0.150000*%
%ADD11C,0.120000*%
G04 APERTURE END LIST*
D10*
X160750000Y-77500000D02*
X164250000Y-77500000D01*
X164250000Y-77500000D02*
X164250000Y-79500000D01*
X164250000Y-79500000D02*
X160750000Y-79500000D01*
X160750000Y-79500000D02*
X160750000Y-77500000D01*
X161500000Y-77952380D02*
X161595238Y-77952380D01*
X161690476Y-78000000D01*
X161738095Y-78047619D01*
X161785714Y-78142857D01*
X161833333Y-78333333D01*
X161833333Y-78571428D01*
X161785714Y-78761904D01*
X161738095Y-78857142D01*
X161690476Y-78904761D01*
X161595238Y-78952380D01*
X161500000Y-78952380D01*
X161404761Y-78904761D01*
X161357142Y-78857142D01*
X161309523Y-78761904D01*
X161261904Y-78571428D01*
X161261904Y-78333333D01*
X161309523Y-78142857D01*
X161357142Y-78047619D01*
X161404761Y-78000000D01*
X161500000Y-77952380D01*
X162785714Y-78952380D02*
X162214285Y-78952380D01*
X162500000Y-78952380D02*
X162500000Y-77952380D01*
X162404761Y-78095238D01*
X162309523Y-78190476D01*
X162214285Y-78238095D01*
X163357142Y-78380952D02*
X163261904Y-78333333D01*
X163214285Y-78285714D01*
X163166666Y-78190476D01*
X163166666Y-78142857D01*
X163214285Y-78047619D01*
X163261904Y-78000000D01*
X163357142Y-77952380D01*
X163547619Y-77952380D01*
X163642857Y-78000000D01*
X163690476Y-78047619D01*
X163738095Y-78142857D01*
X163738095Y-78190476D01*
X163690476Y-78285714D01*
X163642857Y-78333333D01*
X163547619Y-78380952D01*
X163357142Y-78380952D01*
X163261904Y-78428571D01*
X163214285Y-78476190D01*
X163166666Y-78571428D01*
X163166666Y-78761904D01*
X163214285Y-78857142D01*
X163261904Y-78904761D01*
X163357142Y-78952380D01*
X163547619Y-78952380D01*
X163642857Y-78904761D01*
X163690476Y-78857142D01*
X163738095Y-78761904D01*
X163738095Y-78571428D01*
X163690476Y-78476190D01*
X163642857Y-78428571D01*
X163547619Y-78380952D01*
D11*
%TO.C,R1*%
X159472100Y-90288342D02*
X159472100Y-90762858D01*
X160517100Y-90288342D02*
X160517100Y-90762858D01*
%TO.C,C1*%
X164857820Y-82751200D02*
X165138980Y-82751200D01*
X164857820Y-83771200D02*
X165138980Y-83771200D01*
%TO.C,X1*%
X162700000Y-88950000D02*
X157300000Y-88950000D01*
X162700000Y-83560000D02*
X162700000Y-86440000D01*
X157300000Y-81360000D02*
X157300000Y-81050000D01*
X157300000Y-88950000D02*
X157300000Y-88640000D01*
X157300000Y-83560000D02*
X156700000Y-83560000D01*
X162700000Y-88640000D02*
X162700000Y-88950000D01*
X156700000Y-81360000D02*
X157300000Y-81360000D01*
X157300000Y-86440000D02*
X157300000Y-83560000D01*
X157300000Y-81050000D02*
X162700000Y-81050000D01*
X162700000Y-81050000D02*
X162700000Y-81360000D01*
%TO.C,C2*%
X164857820Y-82247200D02*
X165138980Y-82247200D01*
X164857820Y-81227200D02*
X165138980Y-81227200D01*
%TO.C,G\u002A\u002A\u002A*%
G36*
X166299208Y-87530917D02*
G01*
X166313780Y-87538643D01*
X166319638Y-87554791D01*
X166316986Y-87582038D01*
X166306028Y-87623062D01*
X166287246Y-87679741D01*
X166270860Y-87726446D01*
X166256665Y-87765625D01*
X166246112Y-87793364D01*
X166240650Y-87805745D01*
X166240486Y-87805946D01*
X166246138Y-87813178D01*
X166265545Y-87827565D01*
X166294518Y-87846004D01*
X166294794Y-87846170D01*
X166357684Y-87889854D01*
X166405512Y-87935631D01*
X166437324Y-87981750D01*
X166452162Y-88026459D01*
X166449070Y-88068007D01*
X166432520Y-88098445D01*
X166412991Y-88122562D01*
X166469555Y-88156636D01*
X166509737Y-88182699D01*
X166551250Y-88212467D01*
X166572607Y-88229250D01*
X166598661Y-88251927D01*
X166611745Y-88268611D01*
X166615211Y-88285984D01*
X166612661Y-88309124D01*
X166607636Y-88348872D01*
X166604184Y-88389169D01*
X166604056Y-88391472D01*
X166598709Y-88422817D01*
X166584958Y-88440471D01*
X166579295Y-88443764D01*
X166556024Y-88460266D01*
X166536294Y-88480253D01*
X166526232Y-88491038D01*
X166513977Y-88498474D01*
X166495462Y-88503419D01*
X166466622Y-88506732D01*
X166423391Y-88509272D01*
X166392502Y-88510630D01*
X166332844Y-88514231D01*
X166287936Y-88519279D01*
X166260140Y-88525464D01*
X166253407Y-88528879D01*
X166241381Y-88547376D01*
X166232328Y-88575745D01*
X166231450Y-88580547D01*
X166224091Y-88606629D01*
X166209507Y-88644695D01*
X166190200Y-88688492D01*
X166178787Y-88712135D01*
X166161617Y-88747648D01*
X166148241Y-88779117D01*
X166137437Y-88810981D01*
X166127983Y-88847679D01*
X166118657Y-88893652D01*
X166108238Y-88953340D01*
X166102003Y-88991142D01*
X166090611Y-89066475D01*
X166079513Y-89149726D01*
X166069703Y-89232757D01*
X166062177Y-89307427D01*
X166059711Y-89337318D01*
X166045479Y-89486850D01*
X166026101Y-89619435D01*
X166001013Y-89738278D01*
X165970053Y-89845366D01*
X165941141Y-89923130D01*
X165908299Y-89990946D01*
X165868020Y-90054510D01*
X165816798Y-90119520D01*
X165767643Y-90174199D01*
X165669329Y-90291280D01*
X165585806Y-90417629D01*
X165523364Y-90537186D01*
X165495186Y-90593903D01*
X165469811Y-90636375D01*
X165443675Y-90670018D01*
X165420482Y-90693604D01*
X165392811Y-90718117D01*
X165370251Y-90735713D01*
X165357568Y-90742682D01*
X165357395Y-90742688D01*
X165345451Y-90749218D01*
X165333919Y-90769767D01*
X165322392Y-90805773D01*
X165310459Y-90858674D01*
X165297712Y-90929910D01*
X165289702Y-90980739D01*
X165274935Y-91073753D01*
X165260702Y-91152626D01*
X165245537Y-91223789D01*
X165227974Y-91293671D01*
X165206550Y-91368702D01*
X165186147Y-91435151D01*
X165165662Y-91504767D01*
X165151937Y-91564459D01*
X165144673Y-91619792D01*
X165143572Y-91676332D01*
X165148334Y-91739643D01*
X165158662Y-91815292D01*
X165163976Y-91848384D01*
X165173863Y-91909891D01*
X165183097Y-91970175D01*
X165190842Y-92023582D01*
X165196263Y-92064460D01*
X165197561Y-92075723D01*
X165204893Y-92120728D01*
X165218368Y-92157894D01*
X165242004Y-92197963D01*
X165244923Y-92202310D01*
X165285121Y-92261728D01*
X164983035Y-92261728D01*
X164990018Y-92228144D01*
X164998666Y-92198384D01*
X165009092Y-92175536D01*
X165013952Y-92161992D01*
X165011574Y-92143580D01*
X165000787Y-92115446D01*
X164988054Y-92088292D01*
X164968050Y-92042603D01*
X164951018Y-91992762D01*
X164935853Y-91934573D01*
X164921451Y-91863840D01*
X164907851Y-91783612D01*
X164897774Y-91731487D01*
X164882904Y-91668618D01*
X164865420Y-91603715D01*
X164851042Y-91556272D01*
X164831373Y-91493432D01*
X164816185Y-91439154D01*
X164804556Y-91388312D01*
X164795565Y-91335774D01*
X164788290Y-91276411D01*
X164781810Y-91205094D01*
X164777282Y-91145699D01*
X164772007Y-91042544D01*
X164771205Y-90943802D01*
X164774780Y-90854429D01*
X164782634Y-90779381D01*
X164784649Y-90766881D01*
X164790285Y-90734238D01*
X164605062Y-90739960D01*
X164484262Y-90741480D01*
X164379165Y-90737724D01*
X164285384Y-90728274D01*
X164198532Y-90712713D01*
X164127335Y-90694501D01*
X164020868Y-90655636D01*
X163931540Y-90605590D01*
X163858909Y-90544052D01*
X163802536Y-90470711D01*
X163796435Y-90460391D01*
X163767907Y-90410600D01*
X163760639Y-90439556D01*
X163740777Y-90496742D01*
X163710034Y-90559838D01*
X163672847Y-90620875D01*
X163633648Y-90671885D01*
X163627826Y-90678224D01*
X163593823Y-90715253D01*
X163571015Y-90744535D01*
X163555853Y-90772807D01*
X163544786Y-90806804D01*
X163534267Y-90853262D01*
X163533407Y-90857406D01*
X163514253Y-90930043D01*
X163487078Y-90996397D01*
X163449410Y-91060725D01*
X163398775Y-91127286D01*
X163336562Y-91196306D01*
X163292655Y-91243086D01*
X163261096Y-91279066D01*
X163239302Y-91307736D01*
X163224691Y-91332586D01*
X163214679Y-91357105D01*
X163212484Y-91363943D01*
X163198617Y-91426336D01*
X163190490Y-91499767D01*
X163188652Y-91575269D01*
X163193650Y-91643875D01*
X163194867Y-91652045D01*
X163213849Y-91768191D01*
X163230653Y-91865249D01*
X163245608Y-91944646D01*
X163259045Y-92007809D01*
X163271292Y-92056166D01*
X163282680Y-92091143D01*
X163293537Y-92114166D01*
X163304194Y-92126664D01*
X163304536Y-92126907D01*
X163335036Y-92152176D01*
X163362562Y-92181811D01*
X163381476Y-92209348D01*
X163385891Y-92220120D01*
X163387244Y-92229632D01*
X163382936Y-92235721D01*
X163369416Y-92239146D01*
X163343136Y-92240671D01*
X163300547Y-92241054D01*
X163288219Y-92241061D01*
X163185072Y-92241061D01*
X163187449Y-92212643D01*
X163185369Y-92194430D01*
X163174341Y-92173689D01*
X163151769Y-92146433D01*
X163128582Y-92122224D01*
X163085768Y-92073147D01*
X163046802Y-92015598D01*
X163010211Y-91946726D01*
X162974517Y-91863679D01*
X162938246Y-91763608D01*
X162929706Y-91738003D01*
X162894894Y-91626358D01*
X162869616Y-91529609D01*
X162853922Y-91444285D01*
X162847862Y-91366921D01*
X162851487Y-91294048D01*
X162864846Y-91222198D01*
X162887988Y-91147903D01*
X162920964Y-91067696D01*
X162939925Y-91026862D01*
X162955244Y-90993573D01*
X162965181Y-90966567D01*
X162970868Y-90939669D01*
X162973433Y-90906701D01*
X162974007Y-90861488D01*
X162973942Y-90840857D01*
X162966037Y-90729717D01*
X162943457Y-90605349D01*
X162906436Y-90468839D01*
X162871648Y-90365512D01*
X162853521Y-90311325D01*
X162836501Y-90253402D01*
X162823243Y-90201050D01*
X162819106Y-90181233D01*
X162806411Y-90124368D01*
X162792643Y-90081227D01*
X162778695Y-90053191D01*
X162765461Y-90041643D01*
X162753834Y-90047965D01*
X162745974Y-90068044D01*
X162741203Y-90084673D01*
X162736810Y-90086196D01*
X162729896Y-90070900D01*
X162724125Y-90055127D01*
X162713228Y-90006843D01*
X162709240Y-89946839D01*
X162711967Y-89882803D01*
X162721216Y-89822422D01*
X162730838Y-89788197D01*
X162778099Y-89685316D01*
X162843074Y-89591424D01*
X162924531Y-89507243D01*
X163021242Y-89433494D01*
X163131977Y-89370898D01*
X163255509Y-89320178D01*
X163390607Y-89282054D01*
X163536042Y-89257248D01*
X163651642Y-89247795D01*
X163739425Y-89245758D01*
X163823499Y-89248317D01*
X163908776Y-89256018D01*
X164000169Y-89269405D01*
X164102590Y-89289023D01*
X164183711Y-89306808D01*
X164279807Y-89328345D01*
X164359579Y-89345200D01*
X164426708Y-89357879D01*
X164484875Y-89366889D01*
X164537762Y-89372737D01*
X164589049Y-89375929D01*
X164642417Y-89376973D01*
X164690629Y-89376575D01*
X164746738Y-89375915D01*
X164791013Y-89376589D01*
X164829320Y-89379316D01*
X164867528Y-89384818D01*
X164911505Y-89393819D01*
X164967120Y-89407038D01*
X164995604Y-89414082D01*
X165067622Y-89431214D01*
X165123279Y-89442183D01*
X165165946Y-89446976D01*
X165198992Y-89445581D01*
X165225788Y-89437987D01*
X165249703Y-89424180D01*
X165263833Y-89413109D01*
X165284889Y-89392673D01*
X165302733Y-89368129D01*
X165318651Y-89336341D01*
X165333925Y-89294173D01*
X165349840Y-89238489D01*
X165367680Y-89166153D01*
X165371346Y-89150469D01*
X165388905Y-89078770D01*
X165410065Y-88998312D01*
X165432306Y-88918374D01*
X165453109Y-88848234D01*
X165455452Y-88840717D01*
X165470978Y-88790113D01*
X165483303Y-88746295D01*
X165493226Y-88704944D01*
X165501547Y-88661741D01*
X165509065Y-88612365D01*
X165516579Y-88552498D01*
X165524889Y-88477819D01*
X165528002Y-88448628D01*
X165539098Y-88346493D01*
X165548972Y-88262407D01*
X165558097Y-88193821D01*
X165566945Y-88138188D01*
X165575991Y-88092957D01*
X165585707Y-88055582D01*
X165596567Y-88023513D01*
X165609044Y-87994202D01*
X165614488Y-87982892D01*
X165635227Y-87943695D01*
X165656341Y-87911534D01*
X165681403Y-87882760D01*
X165713983Y-87853721D01*
X165757654Y-87820766D01*
X165806198Y-87786923D01*
X165855880Y-87750968D01*
X165907539Y-87710307D01*
X165953923Y-87670795D01*
X165978890Y-87647435D01*
X166010275Y-87618043D01*
X166037322Y-87595904D01*
X166056140Y-87584049D01*
X166061559Y-87583005D01*
X166075132Y-87597623D01*
X166076744Y-87627606D01*
X166066416Y-87671478D01*
X166060097Y-87689543D01*
X166048615Y-87721332D01*
X166040850Y-87744941D01*
X166038704Y-87753728D01*
X166045034Y-87751813D01*
X166061982Y-87737540D01*
X166086485Y-87714042D01*
X166115480Y-87684450D01*
X166145903Y-87651896D01*
X166174693Y-87619515D01*
X166198785Y-87590437D01*
X166200411Y-87588355D01*
X166227607Y-87555612D01*
X166248294Y-87537160D01*
X166266724Y-87529645D01*
X166275716Y-87528937D01*
X166299208Y-87530917D01*
G37*
%TD*%
M02*
