%TF.GenerationSoftware,KiCad,Pcbnew,6.0.9+dfsg-1~bpo11+1*%
%TF.CreationDate,2022-11-28T20:30:37+01:00*%
%TF.ProjectId,018-crystal-oscillator,3031382d-6372-4797-9374-616c2d6f7363,1*%
%TF.SameCoordinates,Original*%
%TF.FileFunction,Soldermask,Bot*%
%TF.FilePolarity,Negative*%
%FSLAX46Y46*%
G04 Gerber Fmt 4.6, Leading zero omitted, Abs format (unit mm)*
G04 Created by KiCad (PCBNEW 6.0.9+dfsg-1~bpo11+1) date 2022-11-28 20:30:37*
%MOMM*%
%LPD*%
G01*
G04 APERTURE LIST*
%ADD10C,3.400000*%
%ADD11C,1.400000*%
G04 APERTURE END LIST*
D10*
%TO.C,H1*%
X152500000Y-77500000D03*
%TD*%
%TO.C,H2*%
X152500000Y-92500000D03*
%TD*%
%TO.C,H4*%
X167500000Y-77500000D03*
%TD*%
D11*
%TO.C,J4*%
X157500000Y-77500000D03*
%TD*%
D10*
%TO.C,H3*%
X167500000Y-92500000D03*
%TD*%
G36*
X169942121Y-82766002D02*
G01*
X169988614Y-82819658D01*
X170000000Y-82872000D01*
X170000000Y-86128000D01*
X169979998Y-86196121D01*
X169926342Y-86242614D01*
X169874000Y-86254000D01*
X159503088Y-86254000D01*
X159496906Y-86253848D01*
X159481291Y-86253081D01*
X159468985Y-86251869D01*
X159456574Y-86250028D01*
X159444448Y-86247616D01*
X159432267Y-86244565D01*
X159420435Y-86240976D01*
X159408629Y-86236752D01*
X159397202Y-86232019D01*
X159385859Y-86226654D01*
X159374948Y-86220822D01*
X159364190Y-86214373D01*
X159353921Y-86207511D01*
X159343837Y-86200033D01*
X159334267Y-86192179D01*
X159324975Y-86183756D01*
X159316244Y-86175025D01*
X159307821Y-86165733D01*
X159299967Y-86156163D01*
X159292489Y-86146079D01*
X159285627Y-86135810D01*
X159279178Y-86125052D01*
X159273346Y-86114141D01*
X159267981Y-86102798D01*
X159263248Y-86091371D01*
X159259024Y-86079565D01*
X159255435Y-86067733D01*
X159252384Y-86055552D01*
X159249972Y-86043426D01*
X159248131Y-86031015D01*
X159246919Y-86018709D01*
X159246152Y-86003094D01*
X159246000Y-85996912D01*
X159246000Y-83003088D01*
X159246152Y-82996906D01*
X159246919Y-82981291D01*
X159248131Y-82968985D01*
X159249972Y-82956574D01*
X159252384Y-82944448D01*
X159255435Y-82932267D01*
X159259024Y-82920435D01*
X159263248Y-82908629D01*
X159267981Y-82897202D01*
X159273346Y-82885859D01*
X159279178Y-82874948D01*
X159285627Y-82864190D01*
X159292489Y-82853921D01*
X159299967Y-82843837D01*
X159307821Y-82834267D01*
X159316244Y-82824975D01*
X159324975Y-82816244D01*
X159334267Y-82807821D01*
X159343837Y-82799967D01*
X159353921Y-82792489D01*
X159364190Y-82785627D01*
X159374948Y-82779178D01*
X159385859Y-82773346D01*
X159397202Y-82767981D01*
X159408629Y-82763248D01*
X159420435Y-82759024D01*
X159432267Y-82755435D01*
X159444448Y-82752384D01*
X159456574Y-82749972D01*
X159468985Y-82748131D01*
X159481291Y-82746919D01*
X159496906Y-82746152D01*
X159503088Y-82746000D01*
X169874000Y-82746000D01*
X169942121Y-82766002D01*
G37*
G36*
X161997494Y-82746152D02*
G01*
X162013109Y-82746919D01*
X162025415Y-82748131D01*
X162037826Y-82749972D01*
X162049952Y-82752384D01*
X162062133Y-82755435D01*
X162073965Y-82759024D01*
X162085771Y-82763248D01*
X162097198Y-82767981D01*
X162108541Y-82773346D01*
X162119452Y-82779178D01*
X162130210Y-82785627D01*
X162140479Y-82792489D01*
X162150563Y-82799967D01*
X162160133Y-82807821D01*
X162169425Y-82816244D01*
X162178156Y-82824975D01*
X162186579Y-82834267D01*
X162194433Y-82843837D01*
X162201911Y-82853921D01*
X162208773Y-82864190D01*
X162215222Y-82874948D01*
X162221054Y-82885859D01*
X162226419Y-82897202D01*
X162231152Y-82908629D01*
X162235376Y-82920435D01*
X162238965Y-82932267D01*
X162242016Y-82944448D01*
X162244428Y-82956574D01*
X162246269Y-82968985D01*
X162247481Y-82981291D01*
X162248248Y-82996906D01*
X162248400Y-83003088D01*
X162248400Y-85996912D01*
X162248248Y-86003094D01*
X162247481Y-86018709D01*
X162246269Y-86031015D01*
X162244428Y-86043426D01*
X162242016Y-86055552D01*
X162238965Y-86067733D01*
X162235376Y-86079565D01*
X162231152Y-86091371D01*
X162226419Y-86102798D01*
X162221054Y-86114141D01*
X162215222Y-86125052D01*
X162208773Y-86135810D01*
X162201911Y-86146079D01*
X162194433Y-86156163D01*
X162186579Y-86165733D01*
X162178156Y-86175025D01*
X162169425Y-86183756D01*
X162160133Y-86192179D01*
X162150563Y-86200033D01*
X162140479Y-86207511D01*
X162130210Y-86214373D01*
X162119452Y-86220822D01*
X162108541Y-86226654D01*
X162097198Y-86232019D01*
X162085771Y-86236752D01*
X162073965Y-86240976D01*
X162062133Y-86244565D01*
X162049952Y-86247616D01*
X162037826Y-86250028D01*
X162025415Y-86251869D01*
X162013109Y-86253081D01*
X161997494Y-86253848D01*
X161991312Y-86254000D01*
X150126000Y-86254000D01*
X150057879Y-86233998D01*
X150011386Y-86180342D01*
X150000000Y-86128000D01*
X150000000Y-82872000D01*
X150020002Y-82803879D01*
X150073658Y-82757386D01*
X150126000Y-82746000D01*
X161991312Y-82746000D01*
X161997494Y-82746152D01*
G37*
G36*
X167504119Y-75000270D02*
G01*
X167818073Y-75020848D01*
X167834413Y-75022999D01*
X168138950Y-75083574D01*
X168154871Y-75087840D01*
X168448888Y-75187646D01*
X168464114Y-75193953D01*
X168742592Y-75331283D01*
X168756866Y-75339524D01*
X169015034Y-75512027D01*
X169028109Y-75522060D01*
X169261557Y-75726788D01*
X169273212Y-75738443D01*
X169477940Y-75971891D01*
X169487973Y-75984966D01*
X169660476Y-76243134D01*
X169668717Y-76257408D01*
X169806047Y-76535886D01*
X169812354Y-76551112D01*
X169912160Y-76845129D01*
X169916426Y-76861050D01*
X169977001Y-77165587D01*
X169979152Y-77181927D01*
X169999730Y-77495881D01*
X170000000Y-77504122D01*
X170000000Y-83128000D01*
X169979998Y-83196121D01*
X169926342Y-83242614D01*
X169874000Y-83254000D01*
X150126000Y-83254000D01*
X150057879Y-83233998D01*
X150011386Y-83180342D01*
X150000000Y-83128000D01*
X150000000Y-77504122D01*
X150000270Y-77495881D01*
X150020848Y-77181927D01*
X150022999Y-77165587D01*
X150083574Y-76861050D01*
X150087840Y-76845129D01*
X150187646Y-76551112D01*
X150193953Y-76535886D01*
X150331283Y-76257408D01*
X150339524Y-76243134D01*
X150512027Y-75984966D01*
X150522060Y-75971891D01*
X150726788Y-75738443D01*
X150738443Y-75726788D01*
X150971891Y-75522060D01*
X150984966Y-75512027D01*
X151243134Y-75339524D01*
X151257408Y-75331283D01*
X151535886Y-75193953D01*
X151551112Y-75187646D01*
X151845129Y-75087840D01*
X151861050Y-75083574D01*
X152165587Y-75022999D01*
X152181927Y-75020848D01*
X152495881Y-75000270D01*
X152504122Y-75000000D01*
X167495878Y-75000000D01*
X167504119Y-75000270D01*
G37*
G36*
X169942121Y-85766002D02*
G01*
X169988614Y-85819658D01*
X170000000Y-85872000D01*
X170000000Y-92495878D01*
X169999730Y-92504119D01*
X169979152Y-92818073D01*
X169977001Y-92834413D01*
X169916426Y-93138950D01*
X169912160Y-93154871D01*
X169812354Y-93448888D01*
X169806047Y-93464114D01*
X169668717Y-93742592D01*
X169660476Y-93756866D01*
X169487973Y-94015034D01*
X169477940Y-94028109D01*
X169273212Y-94261557D01*
X169261557Y-94273212D01*
X169028109Y-94477940D01*
X169015034Y-94487973D01*
X168756866Y-94660476D01*
X168742592Y-94668717D01*
X168464114Y-94806047D01*
X168448888Y-94812354D01*
X168154871Y-94912160D01*
X168138950Y-94916426D01*
X167834413Y-94977001D01*
X167818073Y-94979152D01*
X167504119Y-94999730D01*
X167495878Y-95000000D01*
X152504122Y-95000000D01*
X152495881Y-94999730D01*
X152181927Y-94979152D01*
X152165587Y-94977001D01*
X151861050Y-94916426D01*
X151845129Y-94912160D01*
X151551112Y-94812354D01*
X151535886Y-94806047D01*
X151257408Y-94668717D01*
X151243134Y-94660476D01*
X150984966Y-94487973D01*
X150971891Y-94477940D01*
X150738443Y-94273212D01*
X150726788Y-94261557D01*
X150522060Y-94028109D01*
X150512027Y-94015034D01*
X150339524Y-93756866D01*
X150331283Y-93742592D01*
X150193953Y-93464114D01*
X150187646Y-93448888D01*
X150087840Y-93154871D01*
X150083574Y-93138950D01*
X150022999Y-92834413D01*
X150020848Y-92818073D01*
X150000270Y-92504119D01*
X150000000Y-92495878D01*
X150000000Y-85872000D01*
X150020002Y-85803879D01*
X150073658Y-85757386D01*
X150126000Y-85746000D01*
X169874000Y-85746000D01*
X169942121Y-85766002D01*
G37*
M02*
