%TF.GenerationSoftware,KiCad,Pcbnew,6.0.9+dfsg-1~bpo11+1*%
%TF.CreationDate,2022-11-28T20:30:37+01:00*%
%TF.ProjectId,018-crystal-oscillator,3031382d-6372-4797-9374-616c2d6f7363,1*%
%TF.SameCoordinates,Original*%
%TF.FileFunction,Soldermask,Top*%
%TF.FilePolarity,Negative*%
%FSLAX46Y46*%
G04 Gerber Fmt 4.6, Leading zero omitted, Abs format (unit mm)*
G04 Created by KiCad (PCBNEW 6.0.9+dfsg-1~bpo11+1) date 2022-11-28 20:30:37*
%MOMM*%
%LPD*%
G01*
G04 APERTURE LIST*
G04 Aperture macros list*
%AMRoundRect*
0 Rectangle with rounded corners*
0 $1 Rounding radius*
0 $2 $3 $4 $5 $6 $7 $8 $9 X,Y pos of 4 corners*
0 Add a 4 corners polygon primitive as box body*
4,1,4,$2,$3,$4,$5,$6,$7,$8,$9,$2,$3,0*
0 Add four circle primitives for the rounded corners*
1,1,$1+$1,$2,$3*
1,1,$1+$1,$4,$5*
1,1,$1+$1,$6,$7*
1,1,$1+$1,$8,$9*
0 Add four rect primitives between the rounded corners*
20,1,$1+$1,$2,$3,$4,$5,0*
20,1,$1+$1,$4,$5,$6,$7,0*
20,1,$1+$1,$6,$7,$8,$9,0*
20,1,$1+$1,$8,$9,$2,$3,0*%
G04 Aperture macros list end*
%ADD10RoundRect,0.200000X-0.275000X0.200000X-0.275000X-0.200000X0.275000X-0.200000X0.275000X0.200000X0*%
%ADD11RoundRect,0.225000X-0.225000X-0.250000X0.225000X-0.250000X0.225000X0.250000X-0.225000X0.250000X0*%
%ADD12R,2.000000X1.800000*%
%ADD13C,3.400000*%
%ADD14C,1.400000*%
G04 APERTURE END LIST*
%TO.C,J1*%
G36*
X163000000Y-95000000D02*
G01*
X157000000Y-95000000D01*
X157000000Y-92000000D01*
X163000000Y-92000000D01*
X163000000Y-95000000D01*
G37*
%TD*%
D10*
%TO.C,R1*%
X159994600Y-89700600D03*
X159994600Y-91350600D03*
%TD*%
D11*
%TO.C,C1*%
X164223400Y-83261200D03*
X165773400Y-83261200D03*
%TD*%
D12*
%TO.C,X1*%
X157900000Y-82460000D03*
X157900000Y-87540000D03*
X162100000Y-87540000D03*
X162100000Y-82460000D03*
%TD*%
D11*
%TO.C,C2*%
X164223400Y-81737200D03*
X165773400Y-81737200D03*
%TD*%
D13*
%TO.C,H1*%
X152500000Y-77500000D03*
%TD*%
%TO.C,H2*%
X152500000Y-92500000D03*
%TD*%
%TO.C,H4*%
X167500000Y-77500000D03*
%TD*%
D14*
%TO.C,J4*%
X157500000Y-77500000D03*
%TD*%
D13*
%TO.C,H3*%
X167500000Y-92500000D03*
%TD*%
G36*
X152442121Y-92266002D02*
G01*
X152488614Y-92319658D01*
X152500000Y-92372000D01*
X152500000Y-92481885D01*
X152504475Y-92497124D01*
X152505865Y-92498329D01*
X152513548Y-92500000D01*
X167481885Y-92500000D01*
X167497124Y-92495525D01*
X167498329Y-92494135D01*
X167500000Y-92486452D01*
X167500000Y-92372000D01*
X167520002Y-92303879D01*
X167573658Y-92257386D01*
X167626000Y-92246000D01*
X169874000Y-92246000D01*
X169942121Y-92266002D01*
X169988614Y-92319658D01*
X170000000Y-92372000D01*
X170000000Y-92495878D01*
X169999730Y-92504119D01*
X169979152Y-92818073D01*
X169977001Y-92834413D01*
X169916426Y-93138950D01*
X169912160Y-93154871D01*
X169812354Y-93448888D01*
X169806047Y-93464114D01*
X169668717Y-93742592D01*
X169660476Y-93756866D01*
X169487973Y-94015034D01*
X169477940Y-94028109D01*
X169273212Y-94261557D01*
X169261557Y-94273212D01*
X169028109Y-94477940D01*
X169015034Y-94487973D01*
X168756866Y-94660476D01*
X168742592Y-94668717D01*
X168464114Y-94806047D01*
X168448888Y-94812354D01*
X168154871Y-94912160D01*
X168138950Y-94916426D01*
X167834413Y-94977001D01*
X167818073Y-94979152D01*
X167504119Y-94999730D01*
X167495878Y-95000000D01*
X152504122Y-95000000D01*
X152495881Y-94999730D01*
X152181927Y-94979152D01*
X152165587Y-94977001D01*
X151861050Y-94916426D01*
X151845129Y-94912160D01*
X151551112Y-94812354D01*
X151535886Y-94806047D01*
X151257408Y-94668717D01*
X151243134Y-94660476D01*
X150984966Y-94487973D01*
X150971891Y-94477940D01*
X150738443Y-94273212D01*
X150726788Y-94261557D01*
X150522060Y-94028109D01*
X150512027Y-94015034D01*
X150339524Y-93756866D01*
X150331283Y-93742592D01*
X150193953Y-93464114D01*
X150187646Y-93448888D01*
X150087840Y-93154871D01*
X150083574Y-93138950D01*
X150022999Y-92834413D01*
X150020848Y-92818073D01*
X150000270Y-92504119D01*
X150000000Y-92495878D01*
X150000000Y-92372000D01*
X150020002Y-92303879D01*
X150073658Y-92257386D01*
X150126000Y-92246000D01*
X152374000Y-92246000D01*
X152442121Y-92266002D01*
G37*
G36*
X167504119Y-75000270D02*
G01*
X167818073Y-75020848D01*
X167834413Y-75022999D01*
X168138950Y-75083574D01*
X168154871Y-75087840D01*
X168448888Y-75187646D01*
X168464114Y-75193953D01*
X168742592Y-75331283D01*
X168756866Y-75339524D01*
X169015034Y-75512027D01*
X169028109Y-75522060D01*
X169261557Y-75726788D01*
X169273212Y-75738443D01*
X169477940Y-75971891D01*
X169487973Y-75984966D01*
X169660476Y-76243134D01*
X169668717Y-76257408D01*
X169806047Y-76535886D01*
X169812354Y-76551112D01*
X169912160Y-76845129D01*
X169916426Y-76861050D01*
X169977001Y-77165587D01*
X169979152Y-77181927D01*
X169999730Y-77495881D01*
X170000000Y-77504122D01*
X170000000Y-77628000D01*
X169979998Y-77696121D01*
X169926342Y-77742614D01*
X169874000Y-77754000D01*
X167626000Y-77754000D01*
X167557879Y-77733998D01*
X167511386Y-77680342D01*
X167500000Y-77628000D01*
X167500000Y-77518115D01*
X167495525Y-77502876D01*
X167494135Y-77501671D01*
X167486452Y-77500000D01*
X152518115Y-77500000D01*
X152502876Y-77504475D01*
X152501671Y-77505865D01*
X152500000Y-77513548D01*
X152500000Y-77628000D01*
X152479998Y-77696121D01*
X152426342Y-77742614D01*
X152374000Y-77754000D01*
X150126000Y-77754000D01*
X150057879Y-77733998D01*
X150011386Y-77680342D01*
X150000000Y-77628000D01*
X150000000Y-77504122D01*
X150000270Y-77495881D01*
X150020848Y-77181927D01*
X150022999Y-77165587D01*
X150083574Y-76861050D01*
X150087840Y-76845129D01*
X150187646Y-76551112D01*
X150193953Y-76535886D01*
X150331283Y-76257408D01*
X150339524Y-76243134D01*
X150512027Y-75984966D01*
X150522060Y-75971891D01*
X150726788Y-75738443D01*
X150738443Y-75726788D01*
X150971891Y-75522060D01*
X150984966Y-75512027D01*
X151243134Y-75339524D01*
X151257408Y-75331283D01*
X151535886Y-75193953D01*
X151551112Y-75187646D01*
X151845129Y-75087840D01*
X151861050Y-75083574D01*
X152165587Y-75022999D01*
X152181927Y-75020848D01*
X152495881Y-75000270D01*
X152504122Y-75000000D01*
X167495878Y-75000000D01*
X167504119Y-75000270D01*
G37*
G36*
X167504119Y-75000270D02*
G01*
X167818073Y-75020848D01*
X167834413Y-75022999D01*
X168138950Y-75083574D01*
X168154871Y-75087840D01*
X168448888Y-75187646D01*
X168464114Y-75193953D01*
X168742592Y-75331283D01*
X168756866Y-75339524D01*
X169015034Y-75512027D01*
X169028109Y-75522060D01*
X169261557Y-75726788D01*
X169273212Y-75738443D01*
X169477940Y-75971891D01*
X169487973Y-75984966D01*
X169660476Y-76243134D01*
X169668717Y-76257408D01*
X169806047Y-76535886D01*
X169812354Y-76551112D01*
X169912160Y-76845129D01*
X169916426Y-76861050D01*
X169977001Y-77165587D01*
X169979152Y-77181927D01*
X169999730Y-77495881D01*
X170000000Y-77504122D01*
X170000000Y-92495878D01*
X169999730Y-92504119D01*
X169979152Y-92818073D01*
X169977001Y-92834413D01*
X169916426Y-93138950D01*
X169912160Y-93154871D01*
X169812354Y-93448888D01*
X169806047Y-93464114D01*
X169668717Y-93742592D01*
X169660476Y-93756866D01*
X169487973Y-94015034D01*
X169477940Y-94028109D01*
X169273212Y-94261557D01*
X169261557Y-94273212D01*
X169028109Y-94477940D01*
X169015034Y-94487973D01*
X168756866Y-94660476D01*
X168742592Y-94668717D01*
X168464114Y-94806047D01*
X168448888Y-94812354D01*
X168154871Y-94912160D01*
X168138950Y-94916426D01*
X167834413Y-94977001D01*
X167818073Y-94979152D01*
X167504119Y-94999730D01*
X167495878Y-95000000D01*
X167372000Y-95000000D01*
X167303879Y-94979998D01*
X167257386Y-94926342D01*
X167246000Y-94874000D01*
X167246000Y-92626000D01*
X167266002Y-92557879D01*
X167319658Y-92511386D01*
X167372000Y-92500000D01*
X167481885Y-92500000D01*
X167497124Y-92495525D01*
X167498329Y-92494135D01*
X167500000Y-92486452D01*
X167500000Y-77518115D01*
X167495525Y-77502876D01*
X167494135Y-77501671D01*
X167486452Y-77500000D01*
X167372000Y-77500000D01*
X167303879Y-77479998D01*
X167257386Y-77426342D01*
X167246000Y-77374000D01*
X167246000Y-75126000D01*
X167266002Y-75057879D01*
X167319658Y-75011386D01*
X167372000Y-75000000D01*
X167495878Y-75000000D01*
X167504119Y-75000270D01*
G37*
G36*
X152696121Y-75020002D02*
G01*
X152742614Y-75073658D01*
X152754000Y-75126000D01*
X152754000Y-77374000D01*
X152733998Y-77442121D01*
X152680342Y-77488614D01*
X152628000Y-77500000D01*
X152518115Y-77500000D01*
X152502876Y-77504475D01*
X152501671Y-77505865D01*
X152500000Y-77513548D01*
X152500000Y-92481885D01*
X152504475Y-92497124D01*
X152505865Y-92498329D01*
X152513548Y-92500000D01*
X152628000Y-92500000D01*
X152696121Y-92520002D01*
X152742614Y-92573658D01*
X152754000Y-92626000D01*
X152754000Y-94874000D01*
X152733998Y-94942121D01*
X152680342Y-94988614D01*
X152628000Y-95000000D01*
X152504122Y-95000000D01*
X152495881Y-94999730D01*
X152181927Y-94979152D01*
X152165587Y-94977001D01*
X151861050Y-94916426D01*
X151845129Y-94912160D01*
X151551112Y-94812354D01*
X151535886Y-94806047D01*
X151257408Y-94668717D01*
X151243134Y-94660476D01*
X150984966Y-94487973D01*
X150971891Y-94477940D01*
X150738443Y-94273212D01*
X150726788Y-94261557D01*
X150522060Y-94028109D01*
X150512027Y-94015034D01*
X150339524Y-93756866D01*
X150331283Y-93742592D01*
X150193953Y-93464114D01*
X150187646Y-93448888D01*
X150087840Y-93154871D01*
X150083574Y-93138950D01*
X150022999Y-92834413D01*
X150020848Y-92818073D01*
X150000270Y-92504119D01*
X150000000Y-92495878D01*
X150000000Y-77504122D01*
X150000270Y-77495881D01*
X150020848Y-77181927D01*
X150022999Y-77165587D01*
X150083574Y-76861050D01*
X150087840Y-76845129D01*
X150187646Y-76551112D01*
X150193953Y-76535886D01*
X150331283Y-76257408D01*
X150339524Y-76243134D01*
X150512027Y-75984966D01*
X150522060Y-75971891D01*
X150726788Y-75738443D01*
X150738443Y-75726788D01*
X150971891Y-75522060D01*
X150984966Y-75512027D01*
X151243134Y-75339524D01*
X151257408Y-75331283D01*
X151535886Y-75193953D01*
X151551112Y-75187646D01*
X151845129Y-75087840D01*
X151861050Y-75083574D01*
X152165587Y-75022999D01*
X152181927Y-75020848D01*
X152495881Y-75000270D01*
X152504122Y-75000000D01*
X152628000Y-75000000D01*
X152696121Y-75020002D01*
G37*
G36*
X160692121Y-90763202D02*
G01*
X160738614Y-90816858D01*
X160750000Y-90869200D01*
X160750000Y-92124000D01*
X160729998Y-92192121D01*
X160676342Y-92238614D01*
X160624000Y-92250000D01*
X159376000Y-92250000D01*
X159307879Y-92229998D01*
X159261386Y-92176342D01*
X159250000Y-92124000D01*
X159250000Y-90869200D01*
X159270002Y-90801079D01*
X159323658Y-90754586D01*
X159376000Y-90743200D01*
X160624000Y-90743200D01*
X160692121Y-90763202D01*
G37*
M02*
