%TF.GenerationSoftware,KiCad,Pcbnew,6.0.2-378541a8eb~116~ubuntu20.04.1*%
%TF.CreationDate,2022-03-06T10:26:14+01:00*%
%TF.ProjectId,amplifier,616d706c-6966-4696-9572-2e6b69636164,rev?*%
%TF.SameCoordinates,Original*%
%TF.FileFunction,Copper,L2,Bot*%
%TF.FilePolarity,Positive*%
%FSLAX46Y46*%
G04 Gerber Fmt 4.6, Leading zero omitted, Abs format (unit mm)*
G04 Created by KiCad (PCBNEW 6.0.2-378541a8eb~116~ubuntu20.04.1) date 2022-03-06 10:26:14*
%MOMM*%
%LPD*%
G01*
G04 APERTURE LIST*
%TA.AperFunction,ComponentPad*%
%ADD10C,3.400000*%
%TD*%
%TA.AperFunction,ComponentPad*%
%ADD11C,1.400000*%
%TD*%
%TA.AperFunction,ComponentPad*%
%ADD12C,0.800000*%
%TD*%
%TA.AperFunction,SMDPad,CuDef*%
%ADD13R,3.000000X5.200000*%
%TD*%
%TA.AperFunction,ViaPad*%
%ADD14C,0.800000*%
%TD*%
G04 APERTURE END LIST*
D10*
%TO.P,H1,1,1*%
%TO.N,GND*%
X125000000Y-90000000D03*
%TD*%
D11*
%TO.P,J2,1,Pin_1*%
%TO.N,Net-(C1-Pad2)*%
X130000000Y-90000000D03*
%TD*%
D12*
%TO.P,J3,2,Pin_2*%
%TO.N,GND*%
X135500000Y-84000000D03*
X137000000Y-81500000D03*
X136500000Y-84000000D03*
X136000000Y-83500000D03*
X135000000Y-81500000D03*
X136500000Y-81000000D03*
X137000000Y-83500000D03*
X136000000Y-81500000D03*
X135500000Y-81000000D03*
X135000000Y-83500000D03*
D13*
X136000000Y-82500000D03*
%TD*%
D12*
%TO.P,J1,2,Pin_2*%
%TO.N,GND*%
X123000000Y-81500000D03*
X124000000Y-83500000D03*
X124500000Y-84000000D03*
D13*
X124000000Y-82500000D03*
D12*
X123000000Y-83500000D03*
X125000000Y-83500000D03*
X124500000Y-81000000D03*
X123500000Y-81000000D03*
X123500000Y-84000000D03*
X124000000Y-81500000D03*
X125000000Y-81500000D03*
%TD*%
D10*
%TO.P,H3,1,1*%
%TO.N,GND*%
X135000000Y-75000000D03*
%TD*%
%TO.P,H4,1,1*%
%TO.N,GND*%
X135000000Y-90000000D03*
%TD*%
%TO.P,H2,1,1*%
%TO.N,GND*%
X125000000Y-75000000D03*
%TD*%
D14*
%TO.N,GND*%
X130000000Y-75000000D03*
X134500000Y-81000000D03*
X128500000Y-84000000D03*
X127500000Y-75000000D03*
X132500000Y-90000000D03*
X126500000Y-81000000D03*
X127500000Y-77500000D03*
X130000000Y-83500000D03*
X132500000Y-84000000D03*
X125000000Y-85000000D03*
X133500000Y-81000000D03*
X127500000Y-81000000D03*
X135000000Y-77500000D03*
X130000000Y-80000000D03*
X131862650Y-83496559D03*
X132500000Y-85000000D03*
X135000000Y-80000000D03*
X125500000Y-81000000D03*
X125000000Y-80000000D03*
X127500000Y-85000000D03*
X132500000Y-87500000D03*
X128500000Y-81000000D03*
X129500000Y-84000000D03*
X127500000Y-84000000D03*
X135000000Y-87500000D03*
X125000000Y-77500000D03*
X132500000Y-77500000D03*
X129500000Y-81000000D03*
X132500000Y-81000000D03*
X132500000Y-80000000D03*
X127500000Y-87500000D03*
X127500000Y-90000000D03*
X130000000Y-81500000D03*
X130000000Y-82500000D03*
X131500000Y-81000000D03*
X133500000Y-84000000D03*
X132500000Y-75000000D03*
X135000000Y-85000000D03*
X127500000Y-80000000D03*
X130500000Y-81000000D03*
X134500000Y-84000000D03*
X126500000Y-84000000D03*
X125500000Y-84000000D03*
X125000000Y-87500000D03*
%TD*%
%TA.AperFunction,Conductor*%
%TO.N,GND*%
G36*
X134988227Y-72702518D02*
G01*
X134999642Y-72705143D01*
X135010517Y-72702682D01*
X135021663Y-72702702D01*
X135021663Y-72702737D01*
X135031724Y-72701919D01*
X135271264Y-72716409D01*
X135283116Y-72717848D01*
X135544542Y-72765756D01*
X135556135Y-72768613D01*
X135761078Y-72832476D01*
X135809872Y-72847681D01*
X135821050Y-72851920D01*
X136063406Y-72960995D01*
X136073991Y-72966551D01*
X136301422Y-73104038D01*
X136311261Y-73110829D01*
X136520463Y-73274728D01*
X136529412Y-73282655D01*
X136717345Y-73470588D01*
X136725272Y-73479537D01*
X136889171Y-73688739D01*
X136895962Y-73698578D01*
X137033449Y-73926009D01*
X137039005Y-73936594D01*
X137148080Y-74178950D01*
X137152319Y-74190128D01*
X137231385Y-74443857D01*
X137234244Y-74455458D01*
X137282152Y-74716884D01*
X137283591Y-74728734D01*
X137283592Y-74728743D01*
X137298050Y-74967755D01*
X137297230Y-74977627D01*
X137297375Y-74977627D01*
X137297355Y-74988778D01*
X137294857Y-74999642D01*
X137297317Y-75010514D01*
X137297317Y-75010516D01*
X137297559Y-75011583D01*
X137300000Y-75033432D01*
X137300000Y-89966040D01*
X137297482Y-89988227D01*
X137294857Y-89999642D01*
X137297318Y-90010517D01*
X137297298Y-90021663D01*
X137297263Y-90021663D01*
X137298081Y-90031724D01*
X137288613Y-90188256D01*
X137283592Y-90271257D01*
X137282152Y-90283116D01*
X137234246Y-90544535D01*
X137231385Y-90556143D01*
X137152319Y-90809872D01*
X137148080Y-90821050D01*
X137039005Y-91063406D01*
X137033449Y-91073991D01*
X136895962Y-91301422D01*
X136889171Y-91311261D01*
X136725272Y-91520463D01*
X136717345Y-91529412D01*
X136529412Y-91717345D01*
X136520463Y-91725272D01*
X136311261Y-91889171D01*
X136301422Y-91895962D01*
X136073991Y-92033449D01*
X136063406Y-92039005D01*
X135821050Y-92148080D01*
X135809872Y-92152319D01*
X135556135Y-92231387D01*
X135544542Y-92234244D01*
X135283116Y-92282152D01*
X135271266Y-92283591D01*
X135032243Y-92298050D01*
X135022373Y-92297230D01*
X135022373Y-92297375D01*
X135011222Y-92297355D01*
X135000358Y-92294857D01*
X134989486Y-92297317D01*
X134989484Y-92297317D01*
X134988417Y-92297559D01*
X134966568Y-92300000D01*
X125033960Y-92300000D01*
X125011773Y-92297482D01*
X125000358Y-92294857D01*
X124989483Y-92297318D01*
X124978337Y-92297298D01*
X124978337Y-92297263D01*
X124968276Y-92298081D01*
X124728736Y-92283591D01*
X124716884Y-92282152D01*
X124455458Y-92234244D01*
X124443865Y-92231387D01*
X124190128Y-92152319D01*
X124178950Y-92148080D01*
X123936594Y-92039005D01*
X123926009Y-92033449D01*
X123698578Y-91895962D01*
X123688739Y-91889171D01*
X123479537Y-91725272D01*
X123470588Y-91717345D01*
X123282655Y-91529412D01*
X123274728Y-91520463D01*
X123110829Y-91311261D01*
X123104038Y-91301422D01*
X122966551Y-91073991D01*
X122960995Y-91063406D01*
X122851920Y-90821050D01*
X122847681Y-90809872D01*
X122768615Y-90556143D01*
X122765754Y-90544535D01*
X122764204Y-90536072D01*
X122717848Y-90283118D01*
X122716408Y-90271256D01*
X122711388Y-90188256D01*
X122701966Y-90032498D01*
X122703702Y-90011805D01*
X122703235Y-90011751D01*
X122703876Y-90006177D01*
X122705142Y-90000716D01*
X122705143Y-90000000D01*
X129094540Y-90000000D01*
X129114326Y-90188256D01*
X129115927Y-90193183D01*
X129115928Y-90193188D01*
X129145151Y-90283125D01*
X129172821Y-90368284D01*
X129267467Y-90532216D01*
X129270939Y-90536072D01*
X129390659Y-90669035D01*
X129390663Y-90669038D01*
X129394129Y-90672888D01*
X129547270Y-90784151D01*
X129552002Y-90786258D01*
X129552004Y-90786259D01*
X129715460Y-90859035D01*
X129720197Y-90861144D01*
X129725267Y-90862222D01*
X129725268Y-90862222D01*
X129762610Y-90870159D01*
X129905354Y-90900500D01*
X130094646Y-90900500D01*
X130237390Y-90870159D01*
X130274732Y-90862222D01*
X130274733Y-90862222D01*
X130279803Y-90861144D01*
X130284540Y-90859035D01*
X130447996Y-90786259D01*
X130447998Y-90786258D01*
X130452730Y-90784151D01*
X130605871Y-90672888D01*
X130609337Y-90669038D01*
X130609341Y-90669035D01*
X130729061Y-90536072D01*
X130732533Y-90532216D01*
X130827179Y-90368284D01*
X130854849Y-90283125D01*
X130884072Y-90193188D01*
X130884073Y-90193183D01*
X130885674Y-90188256D01*
X130905460Y-90000000D01*
X130885674Y-89811744D01*
X130884073Y-89806817D01*
X130884072Y-89806812D01*
X130828781Y-89636646D01*
X130828780Y-89636645D01*
X130827179Y-89631716D01*
X130732533Y-89467784D01*
X130724044Y-89458356D01*
X130609341Y-89330965D01*
X130609337Y-89330962D01*
X130605871Y-89327112D01*
X130452730Y-89215849D01*
X130447998Y-89213742D01*
X130447996Y-89213741D01*
X130284540Y-89140965D01*
X130284539Y-89140965D01*
X130279803Y-89138856D01*
X130274733Y-89137778D01*
X130274732Y-89137778D01*
X130237390Y-89129841D01*
X130094646Y-89099500D01*
X129905354Y-89099500D01*
X129762610Y-89129841D01*
X129725268Y-89137778D01*
X129725267Y-89137778D01*
X129720197Y-89138856D01*
X129715461Y-89140965D01*
X129715460Y-89140965D01*
X129552004Y-89213741D01*
X129552002Y-89213742D01*
X129547270Y-89215849D01*
X129394129Y-89327112D01*
X129390663Y-89330962D01*
X129390659Y-89330965D01*
X129275956Y-89458356D01*
X129267467Y-89467784D01*
X129172821Y-89631716D01*
X129171220Y-89636645D01*
X129171219Y-89636646D01*
X129115928Y-89806812D01*
X129115927Y-89806817D01*
X129114326Y-89811744D01*
X129094540Y-90000000D01*
X122705143Y-90000000D01*
X122702479Y-89988321D01*
X122700000Y-89966304D01*
X122700000Y-75034222D01*
X122702557Y-75011867D01*
X122703875Y-75006181D01*
X122705142Y-75000716D01*
X122705143Y-75000000D01*
X122703900Y-74994552D01*
X122703278Y-74988992D01*
X122703654Y-74988950D01*
X122701935Y-74968016D01*
X122716408Y-74728743D01*
X122716409Y-74728742D01*
X122716409Y-74728736D01*
X122717848Y-74716884D01*
X122765756Y-74455458D01*
X122768615Y-74443857D01*
X122847681Y-74190128D01*
X122851920Y-74178950D01*
X122960995Y-73936594D01*
X122966551Y-73926009D01*
X123104038Y-73698578D01*
X123110829Y-73688739D01*
X123274728Y-73479537D01*
X123282655Y-73470588D01*
X123470588Y-73282655D01*
X123479537Y-73274728D01*
X123688739Y-73110829D01*
X123698578Y-73104038D01*
X123926009Y-72966551D01*
X123936594Y-72960995D01*
X124178950Y-72851920D01*
X124190128Y-72847681D01*
X124238922Y-72832476D01*
X124443865Y-72768613D01*
X124455458Y-72765756D01*
X124716884Y-72717848D01*
X124728734Y-72716409D01*
X124967757Y-72701950D01*
X124977627Y-72702770D01*
X124977627Y-72702625D01*
X124988778Y-72702645D01*
X124999642Y-72705143D01*
X125010514Y-72702683D01*
X125010516Y-72702683D01*
X125011583Y-72702441D01*
X125033432Y-72700000D01*
X134966040Y-72700000D01*
X134988227Y-72702518D01*
G37*
%TD.AperFunction*%
%TD*%
M02*
