M48
; DRILL file {KiCad 6.0.2-378541a8eb~116~ubuntu20.04.1} date Sun 06 Mar 2022 10:26:15 CET
; FORMAT={-:-/ absolute / metric / decimal}
; #@! TF.CreationDate,2022-03-06T10:26:15+01:00
; #@! TF.GenerationSoftware,Kicad,Pcbnew,6.0.2-378541a8eb~116~ubuntu20.04.1
; #@! TF.FileFunction,Plated,1,2,PTH
FMAT,2
METRIC
; #@! TA.AperFunction,Plated,PTH,ViaDrill
T1C0.400
; #@! TA.AperFunction,Plated,PTH,ComponentDrill
T2C0.400
; #@! TA.AperFunction,Plated,PTH,ComponentDrill
T3C0.850
; #@! TA.AperFunction,Plated,PTH,ComponentDrill
T4C2.200
%
G90
G05
T1
X125.0Y-77.5
X125.0Y-80.0
X125.0Y-85.0
X125.0Y-87.5
X125.5Y-81.0
X125.5Y-84.0
X126.5Y-81.0
X126.5Y-84.0
X127.5Y-75.0
X127.5Y-77.5
X127.5Y-80.0
X127.5Y-81.0
X127.5Y-84.0
X127.5Y-85.0
X127.5Y-87.5
X127.5Y-90.0
X128.5Y-81.0
X128.5Y-84.0
X129.5Y-81.0
X129.5Y-84.0
X130.0Y-75.0
X130.0Y-80.0
X130.0Y-81.5
X130.0Y-82.5
X130.0Y-83.5
X130.5Y-81.0
X131.5Y-81.0
X131.863Y-83.497
X132.5Y-75.0
X132.5Y-77.5
X132.5Y-80.0
X132.5Y-81.0
X132.5Y-84.0
X132.5Y-85.0
X132.5Y-87.5
X132.5Y-90.0
X133.5Y-81.0
X133.5Y-84.0
X134.5Y-81.0
X134.5Y-84.0
X135.0Y-77.5
X135.0Y-80.0
X135.0Y-85.0
X135.0Y-87.5
T2
X123.0Y-81.5
X123.0Y-83.5
X123.5Y-81.0
X123.5Y-84.0
X124.0Y-81.5
X124.0Y-83.5
X124.5Y-81.0
X124.5Y-84.0
X125.0Y-81.5
X125.0Y-83.5
X135.0Y-81.5
X135.0Y-83.5
X135.5Y-81.0
X135.5Y-84.0
X136.0Y-81.5
X136.0Y-83.5
X136.5Y-81.0
X136.5Y-84.0
X137.0Y-81.5
X137.0Y-83.5
T3
X130.0Y-90.0
T4
X125.0Y-75.0
X125.0Y-90.0
X135.0Y-75.0
X135.0Y-90.0
T0
M30
