%TF.GenerationSoftware,KiCad,Pcbnew,6.0.1-79c1e3a40b~116~ubuntu20.04.1*%
%TF.CreationDate,2022-01-30T14:19:36+01:00*%
%TF.ProjectId,amplifier,616d706c-6966-4696-9572-2e6b69636164,rev?*%
%TF.SameCoordinates,Original*%
%TF.FileFunction,Soldermask,Top*%
%TF.FilePolarity,Negative*%
%FSLAX46Y46*%
G04 Gerber Fmt 4.6, Leading zero omitted, Abs format (unit mm)*
G04 Created by KiCad (PCBNEW 6.0.1-79c1e3a40b~116~ubuntu20.04.1) date 2022-01-30 14:19:36*
%MOMM*%
%LPD*%
G01*
G04 APERTURE LIST*
G04 Aperture macros list*
%AMRoundRect*
0 Rectangle with rounded corners*
0 $1 Rounding radius*
0 $2 $3 $4 $5 $6 $7 $8 $9 X,Y pos of 4 corners*
0 Add a 4 corners polygon primitive as box body*
4,1,4,$2,$3,$4,$5,$6,$7,$8,$9,$2,$3,0*
0 Add four circle primitives for the rounded corners*
1,1,$1+$1,$2,$3*
1,1,$1+$1,$4,$5*
1,1,$1+$1,$6,$7*
1,1,$1+$1,$8,$9*
0 Add four rect primitives between the rounded corners*
20,1,$1+$1,$2,$3,$4,$5,0*
20,1,$1+$1,$4,$5,$6,$7,0*
20,1,$1+$1,$6,$7,$8,$9,0*
20,1,$1+$1,$8,$9,$2,$3,0*%
G04 Aperture macros list end*
%ADD10R,0.650000X0.400000*%
%ADD11RoundRect,0.250000X-0.675000X-0.675000X0.675000X-0.675000X0.675000X0.675000X-0.675000X0.675000X0*%
%ADD12C,3.400000*%
%ADD13RoundRect,0.225000X-0.225000X-0.250000X0.225000X-0.250000X0.225000X0.250000X-0.225000X0.250000X0*%
G04 APERTURE END LIST*
%TO.C,J3*%
G36*
X137500000Y-85500000D02*
G01*
X134500000Y-85500000D01*
X134500000Y-79500000D01*
X137500000Y-79500000D01*
X137500000Y-85500000D01*
G37*
%TO.C,J1*%
G36*
X125500000Y-85500000D02*
G01*
X122500000Y-85500000D01*
X122500000Y-79500000D01*
X125500000Y-79500000D01*
X125500000Y-85500000D01*
G37*
%TD*%
D10*
%TO.C,U1*%
X130950000Y-83150000D03*
X130950000Y-82500000D03*
X130950000Y-81850000D03*
X129050000Y-81850000D03*
X129050000Y-82500000D03*
X129050000Y-83150000D03*
%TD*%
D11*
%TO.C,J2*%
X130000000Y-90000000D03*
%TD*%
D12*
%TO.C,H4*%
X135000000Y-90000000D03*
%TD*%
%TO.C,H3*%
X135000000Y-75000000D03*
%TD*%
%TO.C,H2*%
X125000000Y-75000000D03*
%TD*%
%TO.C,H1*%
X125000000Y-90000000D03*
%TD*%
D13*
%TO.C,C3*%
X132450000Y-82500000D03*
X134000000Y-82500000D03*
%TD*%
%TO.C,C2*%
X126000000Y-82500000D03*
X127550000Y-82500000D03*
%TD*%
%TO.C,C1*%
X129225000Y-85000000D03*
X130775000Y-85000000D03*
%TD*%
G36*
X135004119Y-72500270D02*
G01*
X135318073Y-72520848D01*
X135334413Y-72522999D01*
X135638950Y-72583574D01*
X135654871Y-72587840D01*
X135948888Y-72687646D01*
X135964114Y-72693953D01*
X136242592Y-72831283D01*
X136256866Y-72839524D01*
X136515034Y-73012027D01*
X136528107Y-73022058D01*
X136540888Y-73033266D01*
X136578917Y-73093218D01*
X136578497Y-73164214D01*
X136539760Y-73223711D01*
X136475006Y-73252822D01*
X136457813Y-73254000D01*
X131626000Y-73254000D01*
X131557879Y-73233998D01*
X131511386Y-73180342D01*
X131500000Y-73128000D01*
X131500000Y-73018115D01*
X131495525Y-73002876D01*
X131494135Y-73001671D01*
X131486452Y-73000000D01*
X128518115Y-73000000D01*
X128502876Y-73004475D01*
X128501671Y-73005865D01*
X128500000Y-73013548D01*
X128500000Y-73128000D01*
X128479998Y-73196121D01*
X128426342Y-73242614D01*
X128374000Y-73254000D01*
X123542187Y-73254000D01*
X123474066Y-73233998D01*
X123427573Y-73180342D01*
X123417469Y-73110068D01*
X123446963Y-73045488D01*
X123459112Y-73033266D01*
X123471893Y-73022058D01*
X123484966Y-73012027D01*
X123743134Y-72839524D01*
X123757408Y-72831283D01*
X124035886Y-72693953D01*
X124051112Y-72687646D01*
X124345129Y-72587840D01*
X124361050Y-72583574D01*
X124665587Y-72522999D01*
X124681927Y-72520848D01*
X124995881Y-72500270D01*
X125004122Y-72500000D01*
X134995878Y-72500000D01*
X135004119Y-72500270D01*
G37*
G36*
X128503094Y-72746152D02*
G01*
X128518709Y-72746919D01*
X128531018Y-72748131D01*
X128539329Y-72749364D01*
X128603777Y-72779146D01*
X128641892Y-72839044D01*
X128641574Y-72910040D01*
X128602923Y-72969593D01*
X128538210Y-72998797D01*
X128520838Y-73000000D01*
X128518115Y-73000000D01*
X128502876Y-73004475D01*
X128501671Y-73005865D01*
X128500000Y-73013548D01*
X128500000Y-74981885D01*
X128504475Y-74997124D01*
X128505865Y-74998329D01*
X128513548Y-75000000D01*
X131481885Y-75000000D01*
X131497124Y-74995525D01*
X131498329Y-74994135D01*
X131500000Y-74986452D01*
X131500000Y-73018115D01*
X131495525Y-73002876D01*
X131494135Y-73001671D01*
X131486452Y-73000000D01*
X131479162Y-73000000D01*
X131411041Y-72979998D01*
X131364548Y-72926342D01*
X131354444Y-72856068D01*
X131383938Y-72791488D01*
X131443664Y-72753104D01*
X131460671Y-72749364D01*
X131468982Y-72748131D01*
X131481291Y-72746919D01*
X131496906Y-72746152D01*
X131503088Y-72746000D01*
X136040276Y-72746000D01*
X136096004Y-72758994D01*
X136242592Y-72831283D01*
X136256866Y-72839524D01*
X136515034Y-73012027D01*
X136528109Y-73022060D01*
X136761557Y-73226788D01*
X136773212Y-73238443D01*
X136977940Y-73471891D01*
X136987973Y-73484966D01*
X137160476Y-73743134D01*
X137168717Y-73757408D01*
X137306047Y-74035886D01*
X137312354Y-74051112D01*
X137412160Y-74345129D01*
X137416426Y-74361050D01*
X137477001Y-74665587D01*
X137479152Y-74681927D01*
X137499730Y-74995881D01*
X137500000Y-75004122D01*
X137500000Y-79628000D01*
X137479998Y-79696121D01*
X137426342Y-79742614D01*
X137374000Y-79754000D01*
X134626000Y-79754000D01*
X134557879Y-79733998D01*
X134511386Y-79680342D01*
X134500000Y-79628000D01*
X134500000Y-79518115D01*
X134495525Y-79502876D01*
X134494135Y-79501671D01*
X134486452Y-79500000D01*
X125518115Y-79500000D01*
X125502876Y-79504475D01*
X125501671Y-79505865D01*
X125500000Y-79513548D01*
X125500000Y-90981885D01*
X125504475Y-90997124D01*
X125505865Y-90998329D01*
X125513548Y-91000000D01*
X125628000Y-91000000D01*
X125696121Y-91020002D01*
X125742614Y-91073658D01*
X125754000Y-91126000D01*
X125754000Y-92374000D01*
X125733998Y-92442121D01*
X125680342Y-92488614D01*
X125628000Y-92500000D01*
X125004122Y-92500000D01*
X124995881Y-92499730D01*
X124681927Y-92479152D01*
X124665587Y-92477001D01*
X124361050Y-92416426D01*
X124345129Y-92412160D01*
X124051112Y-92312354D01*
X124035886Y-92306047D01*
X123757408Y-92168717D01*
X123743134Y-92160476D01*
X123484966Y-91987973D01*
X123471891Y-91977940D01*
X123238443Y-91773212D01*
X123226788Y-91761557D01*
X123022060Y-91528109D01*
X123012027Y-91515034D01*
X122839524Y-91256866D01*
X122831283Y-91242592D01*
X122693953Y-90964114D01*
X122687646Y-90948888D01*
X122587840Y-90654871D01*
X122583574Y-90638950D01*
X122522999Y-90334413D01*
X122520848Y-90318073D01*
X122500270Y-90004119D01*
X122500000Y-89995878D01*
X122500000Y-75004122D01*
X122500270Y-74995881D01*
X122520848Y-74681927D01*
X122522999Y-74665587D01*
X122583574Y-74361050D01*
X122587840Y-74345129D01*
X122687646Y-74051112D01*
X122693953Y-74035886D01*
X122831283Y-73757408D01*
X122839524Y-73743134D01*
X123012027Y-73484966D01*
X123022060Y-73471891D01*
X123226788Y-73238443D01*
X123238443Y-73226788D01*
X123471891Y-73022060D01*
X123484966Y-73012027D01*
X123743134Y-72839524D01*
X123757408Y-72831283D01*
X123903996Y-72758994D01*
X123959724Y-72746000D01*
X128496912Y-72746000D01*
X128503094Y-72746152D01*
G37*
G36*
X137442121Y-81266002D02*
G01*
X137488614Y-81319658D01*
X137500000Y-81372000D01*
X137500000Y-85628000D01*
X137479998Y-85696121D01*
X137426342Y-85742614D01*
X137374000Y-85754000D01*
X131126000Y-85754000D01*
X131057879Y-85733998D01*
X131011386Y-85680342D01*
X131000000Y-85628000D01*
X131000000Y-85518115D01*
X130995525Y-85502876D01*
X130994135Y-85501671D01*
X130986452Y-85500000D01*
X129018115Y-85500000D01*
X129002876Y-85504475D01*
X129001671Y-85505865D01*
X129000000Y-85513548D01*
X129000000Y-87481885D01*
X129004475Y-87497124D01*
X129005865Y-87498329D01*
X129013548Y-87500000D01*
X130981885Y-87500000D01*
X130997124Y-87495525D01*
X130998329Y-87494135D01*
X131000000Y-87486452D01*
X131000000Y-87372000D01*
X131020002Y-87303879D01*
X131073658Y-87257386D01*
X131126000Y-87246000D01*
X137374000Y-87246000D01*
X137442121Y-87266002D01*
X137488614Y-87319658D01*
X137500000Y-87372000D01*
X137500000Y-89995878D01*
X137499730Y-90004119D01*
X137479152Y-90318073D01*
X137477001Y-90334413D01*
X137416426Y-90638950D01*
X137412160Y-90654871D01*
X137312354Y-90948888D01*
X137306047Y-90964114D01*
X137197746Y-91183728D01*
X137149678Y-91235977D01*
X137084740Y-91254000D01*
X131626000Y-91254000D01*
X131557879Y-91233998D01*
X131511386Y-91180342D01*
X131500000Y-91128000D01*
X131500000Y-91018115D01*
X131495525Y-91002876D01*
X131494135Y-91001671D01*
X131486452Y-91000000D01*
X128518115Y-91000000D01*
X128502876Y-91004475D01*
X128501671Y-91005865D01*
X128500000Y-91013548D01*
X128500000Y-91128000D01*
X128479998Y-91196121D01*
X128426342Y-91242614D01*
X128374000Y-91254000D01*
X125503088Y-91254000D01*
X125496906Y-91253848D01*
X125481291Y-91253081D01*
X125468985Y-91251869D01*
X125456574Y-91250028D01*
X125444448Y-91247616D01*
X125432267Y-91244565D01*
X125420435Y-91240976D01*
X125408629Y-91236752D01*
X125397202Y-91232019D01*
X125385859Y-91226654D01*
X125374948Y-91220822D01*
X125364190Y-91214373D01*
X125353921Y-91207511D01*
X125343837Y-91200033D01*
X125334267Y-91192179D01*
X125324975Y-91183756D01*
X125316244Y-91175025D01*
X125307821Y-91165733D01*
X125299967Y-91156163D01*
X125292489Y-91146079D01*
X125285627Y-91135810D01*
X125279178Y-91125052D01*
X125273346Y-91114141D01*
X125267981Y-91102798D01*
X125263248Y-91091371D01*
X125259024Y-91079565D01*
X125255435Y-91067733D01*
X125252384Y-91055552D01*
X125249972Y-91043426D01*
X125248131Y-91031015D01*
X125246919Y-91018709D01*
X125246152Y-91003094D01*
X125246000Y-90996912D01*
X125246000Y-81503088D01*
X125246152Y-81496906D01*
X125246919Y-81481291D01*
X125248131Y-81468982D01*
X125249364Y-81460671D01*
X125279146Y-81396223D01*
X125339044Y-81358108D01*
X125410040Y-81358426D01*
X125469593Y-81397077D01*
X125498797Y-81461790D01*
X125500000Y-81479162D01*
X125500000Y-81481885D01*
X125504475Y-81497124D01*
X125505865Y-81498329D01*
X125513548Y-81500000D01*
X134481885Y-81500000D01*
X134497124Y-81495525D01*
X134498329Y-81494135D01*
X134500000Y-81486452D01*
X134500000Y-81372000D01*
X134520002Y-81303879D01*
X134573658Y-81257386D01*
X134626000Y-81246000D01*
X137374000Y-81246000D01*
X137442121Y-81266002D01*
G37*
G36*
X137442121Y-85266002D02*
G01*
X137488614Y-85319658D01*
X137500000Y-85372000D01*
X137500000Y-87628000D01*
X137479998Y-87696121D01*
X137426342Y-87742614D01*
X137374000Y-87754000D01*
X131003088Y-87754000D01*
X130996906Y-87753848D01*
X130981291Y-87753081D01*
X130968982Y-87751869D01*
X130960671Y-87750636D01*
X130896223Y-87720854D01*
X130858108Y-87660956D01*
X130858426Y-87589960D01*
X130897077Y-87530407D01*
X130961790Y-87501203D01*
X130979162Y-87500000D01*
X130981885Y-87500000D01*
X130997124Y-87495525D01*
X130998329Y-87494135D01*
X131000000Y-87486452D01*
X131000000Y-85518115D01*
X130995525Y-85502876D01*
X130994135Y-85501671D01*
X130986452Y-85500000D01*
X130979162Y-85500000D01*
X130911041Y-85479998D01*
X130864548Y-85426342D01*
X130854444Y-85356068D01*
X130883938Y-85291488D01*
X130943664Y-85253104D01*
X130960671Y-85249364D01*
X130968982Y-85248131D01*
X130981291Y-85246919D01*
X130996906Y-85246152D01*
X131003088Y-85246000D01*
X137374000Y-85246000D01*
X137442121Y-85266002D01*
G37*
G36*
X129003094Y-79246152D02*
G01*
X129018709Y-79246919D01*
X129031018Y-79248131D01*
X129039329Y-79249364D01*
X129103777Y-79279146D01*
X129141892Y-79339044D01*
X129141574Y-79410040D01*
X129102923Y-79469593D01*
X129038210Y-79498797D01*
X129020838Y-79500000D01*
X129018115Y-79500000D01*
X129002876Y-79504475D01*
X129001671Y-79505865D01*
X129000000Y-79513548D01*
X129000000Y-81481885D01*
X129004475Y-81497124D01*
X129005865Y-81498329D01*
X129013548Y-81500000D01*
X129020838Y-81500000D01*
X129088959Y-81520002D01*
X129135452Y-81573658D01*
X129145556Y-81643932D01*
X129116062Y-81708512D01*
X129056336Y-81746896D01*
X129039329Y-81750636D01*
X129031018Y-81751869D01*
X129018709Y-81753081D01*
X129003094Y-81753848D01*
X128996912Y-81754000D01*
X128003088Y-81754000D01*
X127996906Y-81753848D01*
X127981291Y-81753081D01*
X127968982Y-81751869D01*
X127960671Y-81750636D01*
X127896223Y-81720854D01*
X127858108Y-81660956D01*
X127858426Y-81589960D01*
X127897077Y-81530407D01*
X127961790Y-81501203D01*
X127979162Y-81500000D01*
X127981885Y-81500000D01*
X127997124Y-81495525D01*
X127998329Y-81494135D01*
X128000000Y-81486452D01*
X128000000Y-79518115D01*
X127995525Y-79502876D01*
X127994135Y-79501671D01*
X127986452Y-79500000D01*
X127979162Y-79500000D01*
X127911041Y-79479998D01*
X127864548Y-79426342D01*
X127854444Y-79356068D01*
X127883938Y-79291488D01*
X127943664Y-79253104D01*
X127960671Y-79249364D01*
X127968982Y-79248131D01*
X127981291Y-79246919D01*
X127996906Y-79246152D01*
X128003088Y-79246000D01*
X128996912Y-79246000D01*
X129003094Y-79246152D01*
G37*
G36*
X132003094Y-79246152D02*
G01*
X132018709Y-79246919D01*
X132031018Y-79248131D01*
X132039329Y-79249364D01*
X132103777Y-79279146D01*
X132141892Y-79339044D01*
X132141574Y-79410040D01*
X132102923Y-79469593D01*
X132038210Y-79498797D01*
X132020838Y-79500000D01*
X132018115Y-79500000D01*
X132002876Y-79504475D01*
X132001671Y-79505865D01*
X132000000Y-79513548D01*
X132000000Y-81481885D01*
X132004475Y-81497124D01*
X132005865Y-81498329D01*
X132013548Y-81500000D01*
X132020838Y-81500000D01*
X132088959Y-81520002D01*
X132135452Y-81573658D01*
X132145556Y-81643932D01*
X132116062Y-81708512D01*
X132056336Y-81746896D01*
X132039329Y-81750636D01*
X132031018Y-81751869D01*
X132018709Y-81753081D01*
X132003094Y-81753848D01*
X131996912Y-81754000D01*
X131003088Y-81754000D01*
X130996906Y-81753848D01*
X130981291Y-81753081D01*
X130968982Y-81751869D01*
X130960671Y-81750636D01*
X130896223Y-81720854D01*
X130858108Y-81660956D01*
X130858426Y-81589960D01*
X130897077Y-81530407D01*
X130961790Y-81501203D01*
X130979162Y-81500000D01*
X130981885Y-81500000D01*
X130997124Y-81495525D01*
X130998329Y-81494135D01*
X131000000Y-81486452D01*
X131000000Y-79518115D01*
X130995525Y-79502876D01*
X130994135Y-79501671D01*
X130986452Y-79500000D01*
X130979162Y-79500000D01*
X130911041Y-79479998D01*
X130864548Y-79426342D01*
X130854444Y-79356068D01*
X130883938Y-79291488D01*
X130943664Y-79253104D01*
X130960671Y-79249364D01*
X130968982Y-79248131D01*
X130981291Y-79246919D01*
X130996906Y-79246152D01*
X131003088Y-79246000D01*
X131996912Y-79246000D01*
X132003094Y-79246152D01*
G37*
G36*
X137442121Y-79266002D02*
G01*
X137488614Y-79319658D01*
X137500000Y-79372000D01*
X137500000Y-81628000D01*
X137479998Y-81696121D01*
X137426342Y-81742614D01*
X137374000Y-81754000D01*
X134503088Y-81754000D01*
X134496906Y-81753848D01*
X134481291Y-81753081D01*
X134468982Y-81751869D01*
X134460671Y-81750636D01*
X134396223Y-81720854D01*
X134358108Y-81660956D01*
X134358426Y-81589960D01*
X134397077Y-81530407D01*
X134461790Y-81501203D01*
X134479162Y-81500000D01*
X134481885Y-81500000D01*
X134497124Y-81495525D01*
X134498329Y-81494135D01*
X134500000Y-81486452D01*
X134500000Y-79518115D01*
X134495525Y-79502876D01*
X134494135Y-79501671D01*
X134486452Y-79500000D01*
X134479162Y-79500000D01*
X134411041Y-79479998D01*
X134364548Y-79426342D01*
X134354444Y-79356068D01*
X134383938Y-79291488D01*
X134443664Y-79253104D01*
X134460671Y-79249364D01*
X134468982Y-79248131D01*
X134481291Y-79246919D01*
X134496906Y-79246152D01*
X134503088Y-79246000D01*
X137374000Y-79246000D01*
X137442121Y-79266002D01*
G37*
G36*
X128503094Y-90746152D02*
G01*
X128518709Y-90746919D01*
X128531018Y-90748131D01*
X128539329Y-90749364D01*
X128603777Y-90779146D01*
X128641892Y-90839044D01*
X128641574Y-90910040D01*
X128602923Y-90969593D01*
X128538210Y-90998797D01*
X128520838Y-91000000D01*
X128518115Y-91000000D01*
X128502876Y-91004475D01*
X128501671Y-91005865D01*
X128500000Y-91013548D01*
X128500000Y-92374000D01*
X128479998Y-92442121D01*
X128426342Y-92488614D01*
X128374000Y-92500000D01*
X125372000Y-92500000D01*
X125303879Y-92479998D01*
X125257386Y-92426342D01*
X125246000Y-92374000D01*
X125246000Y-91003088D01*
X125246152Y-90996906D01*
X125246919Y-90981291D01*
X125248131Y-90968985D01*
X125249972Y-90956574D01*
X125252384Y-90944448D01*
X125255435Y-90932267D01*
X125259024Y-90920435D01*
X125263248Y-90908629D01*
X125267981Y-90897202D01*
X125273346Y-90885859D01*
X125279178Y-90874948D01*
X125285627Y-90864190D01*
X125292489Y-90853921D01*
X125299967Y-90843837D01*
X125307821Y-90834267D01*
X125316244Y-90824975D01*
X125324975Y-90816244D01*
X125334267Y-90807821D01*
X125343837Y-90799967D01*
X125353921Y-90792489D01*
X125364190Y-90785627D01*
X125374948Y-90779178D01*
X125385859Y-90773346D01*
X125397202Y-90767981D01*
X125408629Y-90763248D01*
X125420435Y-90759024D01*
X125432267Y-90755435D01*
X125444448Y-90752384D01*
X125456574Y-90749972D01*
X125468985Y-90748131D01*
X125481291Y-90746919D01*
X125496906Y-90746152D01*
X125503088Y-90746000D01*
X128496912Y-90746000D01*
X128503094Y-90746152D01*
G37*
G36*
X137273514Y-90766002D02*
G01*
X137320007Y-90819658D01*
X137330111Y-90889932D01*
X137324706Y-90912503D01*
X137312354Y-90948889D01*
X137306047Y-90964114D01*
X137168717Y-91242592D01*
X137160476Y-91256866D01*
X136987973Y-91515034D01*
X136977940Y-91528109D01*
X136773212Y-91761557D01*
X136761557Y-91773212D01*
X136528109Y-91977940D01*
X136515034Y-91987973D01*
X136256866Y-92160476D01*
X136242592Y-92168717D01*
X135964114Y-92306047D01*
X135948888Y-92312354D01*
X135654871Y-92412160D01*
X135638950Y-92416426D01*
X135334413Y-92477001D01*
X135318073Y-92479152D01*
X135004119Y-92499730D01*
X134995878Y-92500000D01*
X131626000Y-92500000D01*
X131557879Y-92479998D01*
X131511386Y-92426342D01*
X131500000Y-92374000D01*
X131500000Y-91018115D01*
X131495525Y-91002876D01*
X131494135Y-91001671D01*
X131486452Y-91000000D01*
X131479162Y-91000000D01*
X131411041Y-90979998D01*
X131364548Y-90926342D01*
X131354444Y-90856068D01*
X131383938Y-90791488D01*
X131443664Y-90753104D01*
X131460671Y-90749364D01*
X131468982Y-90748131D01*
X131481291Y-90746919D01*
X131496906Y-90746152D01*
X131503088Y-90746000D01*
X137205393Y-90746000D01*
X137273514Y-90766002D01*
G37*
M02*
