%TF.GenerationSoftware,KiCad,Pcbnew,6.0.9+dfsg-1~bpo11+1*%
%TF.CreationDate,2022-11-06T17:12:49+01:00*%
%TF.ProjectId,amplifier,616d706c-6966-4696-9572-2e6b69636164,2*%
%TF.SameCoordinates,Original*%
%TF.FileFunction,Copper,L2,Bot*%
%TF.FilePolarity,Positive*%
%FSLAX46Y46*%
G04 Gerber Fmt 4.6, Leading zero omitted, Abs format (unit mm)*
G04 Created by KiCad (PCBNEW 6.0.9+dfsg-1~bpo11+1) date 2022-11-06 17:12:49*
%MOMM*%
%LPD*%
G01*
G04 APERTURE LIST*
G04 Aperture macros list*
%AMRoundRect*
0 Rectangle with rounded corners*
0 $1 Rounding radius*
0 $2 $3 $4 $5 $6 $7 $8 $9 X,Y pos of 4 corners*
0 Add a 4 corners polygon primitive as box body*
4,1,4,$2,$3,$4,$5,$6,$7,$8,$9,$2,$3,0*
0 Add four circle primitives for the rounded corners*
1,1,$1+$1,$2,$3*
1,1,$1+$1,$4,$5*
1,1,$1+$1,$6,$7*
1,1,$1+$1,$8,$9*
0 Add four rect primitives between the rounded corners*
20,1,$1+$1,$2,$3,$4,$5,0*
20,1,$1+$1,$4,$5,$6,$7,0*
20,1,$1+$1,$6,$7,$8,$9,0*
20,1,$1+$1,$8,$9,$2,$3,0*%
G04 Aperture macros list end*
%TA.AperFunction,ComponentPad*%
%ADD10C,3.400000*%
%TD*%
%TA.AperFunction,ComponentPad*%
%ADD11RoundRect,0.250000X-0.675000X-0.675000X0.675000X-0.675000X0.675000X0.675000X-0.675000X0.675000X0*%
%TD*%
%TA.AperFunction,ComponentPad*%
%ADD12C,0.800000*%
%TD*%
%TA.AperFunction,SMDPad,CuDef*%
%ADD13R,3.000000X5.200000*%
%TD*%
%TA.AperFunction,ViaPad*%
%ADD14C,0.800000*%
%TD*%
G04 APERTURE END LIST*
D10*
%TO.P,H1,1,1*%
%TO.N,GND*%
X125000000Y-90000000D03*
%TD*%
D11*
%TO.P,J2,1,Pin_1*%
%TO.N,Net-(C1-Pad2)*%
X130000000Y-90000000D03*
%TD*%
D12*
%TO.P,J3,2,Pin_2*%
%TO.N,GND*%
X135500000Y-84000000D03*
X136500000Y-84000000D03*
X137000000Y-81500000D03*
X135000000Y-81500000D03*
X137000000Y-83500000D03*
D13*
X136000000Y-82500000D03*
D12*
X135500000Y-81000000D03*
X136500000Y-81000000D03*
X136000000Y-81500000D03*
X135000000Y-83500000D03*
X136000000Y-83500000D03*
%TD*%
%TO.P,J1,2,Pin_2*%
%TO.N,GND*%
X124500000Y-81000000D03*
X123500000Y-81000000D03*
X123000000Y-83500000D03*
X125000000Y-83500000D03*
X123000000Y-81500000D03*
D13*
X124000000Y-82500000D03*
D12*
X124500000Y-84000000D03*
X123500000Y-84000000D03*
X124000000Y-83500000D03*
X125000000Y-81500000D03*
X124000000Y-81500000D03*
%TD*%
D10*
%TO.P,H3,1,1*%
%TO.N,GND*%
X135000000Y-75000000D03*
%TD*%
%TO.P,H4,1,1*%
%TO.N,GND*%
X135000000Y-90000000D03*
%TD*%
%TO.P,H2,1,1*%
%TO.N,GND*%
X125000000Y-75000000D03*
%TD*%
D14*
%TO.N,GND*%
X130000000Y-75000000D03*
X134500000Y-81000000D03*
X128500000Y-84000000D03*
X127500000Y-75000000D03*
X132500000Y-90000000D03*
X126500000Y-81000000D03*
X127500000Y-77500000D03*
X130000000Y-83500000D03*
X132500000Y-84000000D03*
X125000000Y-85000000D03*
X133500000Y-81000000D03*
X127500000Y-81000000D03*
X135000000Y-77500000D03*
X130000000Y-80000000D03*
X131862650Y-83496559D03*
X132500000Y-85000000D03*
X135000000Y-80000000D03*
X125500000Y-81000000D03*
X125000000Y-80000000D03*
X127500000Y-85000000D03*
X132500000Y-87500000D03*
X128500000Y-81000000D03*
X129500000Y-84000000D03*
X127500000Y-84000000D03*
X135000000Y-87500000D03*
X125000000Y-77500000D03*
X132500000Y-77500000D03*
X129500000Y-81000000D03*
X132500000Y-81000000D03*
X132500000Y-80000000D03*
X127500000Y-87500000D03*
X127500000Y-90000000D03*
X130000000Y-81500000D03*
X130000000Y-82500000D03*
X131500000Y-81000000D03*
X133500000Y-84000000D03*
X132500000Y-75000000D03*
X135000000Y-85000000D03*
X127500000Y-80000000D03*
X130500000Y-81000000D03*
X134500000Y-84000000D03*
X126500000Y-84000000D03*
X125500000Y-84000000D03*
X125000000Y-87500000D03*
%TD*%
%TA.AperFunction,Conductor*%
%TO.N,GND*%
G36*
X134988169Y-72703018D02*
G01*
X134999641Y-72705656D01*
X135010517Y-72703195D01*
X135021664Y-72703214D01*
X135021664Y-72703243D01*
X135031772Y-72702422D01*
X135161986Y-72710298D01*
X135271204Y-72716905D01*
X135283056Y-72718344D01*
X135544422Y-72766241D01*
X135556015Y-72769098D01*
X135762244Y-72833361D01*
X135809695Y-72848148D01*
X135820873Y-72852387D01*
X136063170Y-72961436D01*
X136073756Y-72966992D01*
X136301142Y-73104452D01*
X136310980Y-73111243D01*
X136520132Y-73275103D01*
X136529081Y-73283030D01*
X136716970Y-73470919D01*
X136724897Y-73479868D01*
X136888757Y-73689020D01*
X136895548Y-73698858D01*
X137033008Y-73926244D01*
X137038564Y-73936830D01*
X137147613Y-74179127D01*
X137151852Y-74190305D01*
X137230900Y-74443977D01*
X137233759Y-74455578D01*
X137281655Y-74716936D01*
X137283096Y-74728803D01*
X137297547Y-74967712D01*
X137296724Y-74977628D01*
X137296862Y-74977628D01*
X137296842Y-74988776D01*
X137294344Y-74999641D01*
X137296804Y-75010513D01*
X137297059Y-75011638D01*
X137299500Y-75033488D01*
X137299500Y-89965983D01*
X137296982Y-89988169D01*
X137294344Y-89999641D01*
X137296805Y-90010517D01*
X137296786Y-90021664D01*
X137296757Y-90021664D01*
X137297578Y-90031772D01*
X137283096Y-90271197D01*
X137281656Y-90283056D01*
X137233761Y-90544415D01*
X137230902Y-90556015D01*
X137176329Y-90731145D01*
X137151852Y-90809695D01*
X137147613Y-90820873D01*
X137038564Y-91063170D01*
X137033009Y-91073754D01*
X136972681Y-91173549D01*
X136895548Y-91301142D01*
X136888757Y-91310980D01*
X136724897Y-91520132D01*
X136716970Y-91529081D01*
X136529081Y-91716970D01*
X136520132Y-91724897D01*
X136310980Y-91888757D01*
X136301142Y-91895548D01*
X136073756Y-92033008D01*
X136063170Y-92038564D01*
X135820873Y-92147613D01*
X135809695Y-92151852D01*
X135556015Y-92230902D01*
X135544422Y-92233759D01*
X135283056Y-92281656D01*
X135271204Y-92283095D01*
X135032288Y-92297547D01*
X135022372Y-92296724D01*
X135022372Y-92296862D01*
X135011224Y-92296842D01*
X135000359Y-92294344D01*
X134988359Y-92297059D01*
X134966512Y-92299500D01*
X125034017Y-92299500D01*
X125011831Y-92296982D01*
X125011801Y-92296975D01*
X125000359Y-92294344D01*
X124989483Y-92296805D01*
X124978336Y-92296786D01*
X124978336Y-92296757D01*
X124968228Y-92297578D01*
X124838014Y-92289702D01*
X124728796Y-92283095D01*
X124716944Y-92281656D01*
X124455578Y-92233759D01*
X124443985Y-92230902D01*
X124190305Y-92151852D01*
X124179127Y-92147613D01*
X123936830Y-92038564D01*
X123926244Y-92033008D01*
X123698858Y-91895548D01*
X123689020Y-91888757D01*
X123479868Y-91724897D01*
X123470919Y-91716970D01*
X123283030Y-91529081D01*
X123275103Y-91520132D01*
X123111243Y-91310980D01*
X123104452Y-91301142D01*
X123027319Y-91173549D01*
X122966991Y-91073754D01*
X122961436Y-91063170D01*
X122852387Y-90820873D01*
X122848148Y-90809695D01*
X122823671Y-90731145D01*
X122822951Y-90728834D01*
X128874500Y-90728834D01*
X128877481Y-90760369D01*
X128922366Y-90888184D01*
X129002850Y-90997150D01*
X129111816Y-91077634D01*
X129239631Y-91122519D01*
X129245638Y-91123087D01*
X129245639Y-91123087D01*
X129268855Y-91125282D01*
X129268865Y-91125282D01*
X129271166Y-91125500D01*
X130728834Y-91125500D01*
X130731135Y-91125282D01*
X130731145Y-91125282D01*
X130754361Y-91123087D01*
X130754362Y-91123087D01*
X130760369Y-91122519D01*
X130888184Y-91077634D01*
X130997150Y-90997150D01*
X131077634Y-90888184D01*
X131122519Y-90760369D01*
X131125500Y-90728834D01*
X131125500Y-89271166D01*
X131122519Y-89239631D01*
X131077634Y-89111816D01*
X130997150Y-89002850D01*
X130888184Y-88922366D01*
X130760369Y-88877481D01*
X130754362Y-88876913D01*
X130754361Y-88876913D01*
X130731145Y-88874718D01*
X130731135Y-88874718D01*
X130728834Y-88874500D01*
X129271166Y-88874500D01*
X129268865Y-88874718D01*
X129268855Y-88874718D01*
X129245639Y-88876913D01*
X129245638Y-88876913D01*
X129239631Y-88877481D01*
X129111816Y-88922366D01*
X129002850Y-89002850D01*
X128922366Y-89111816D01*
X128877481Y-89239631D01*
X128874500Y-89271166D01*
X128874500Y-90728834D01*
X122822951Y-90728834D01*
X122769098Y-90556015D01*
X122766239Y-90544415D01*
X122718344Y-90283056D01*
X122716904Y-90271197D01*
X122702469Y-90032548D01*
X122704207Y-90011810D01*
X122703747Y-90011757D01*
X122704389Y-90006179D01*
X122705655Y-90000718D01*
X122705656Y-90000000D01*
X122704412Y-89994545D01*
X122702980Y-89988266D01*
X122700500Y-89966248D01*
X122700500Y-75034281D01*
X122703057Y-75011926D01*
X122703141Y-75011565D01*
X122705655Y-75000718D01*
X122705656Y-75000000D01*
X122704413Y-74994549D01*
X122703791Y-74988995D01*
X122704159Y-74988954D01*
X122702438Y-74967973D01*
X122716904Y-74728804D01*
X122718345Y-74716936D01*
X122766241Y-74455578D01*
X122769100Y-74443977D01*
X122848148Y-74190305D01*
X122852387Y-74179127D01*
X122961436Y-73936830D01*
X122966992Y-73926244D01*
X123104452Y-73698858D01*
X123111243Y-73689020D01*
X123275103Y-73479868D01*
X123283030Y-73470919D01*
X123470919Y-73283030D01*
X123479868Y-73275103D01*
X123689020Y-73111243D01*
X123698858Y-73104452D01*
X123926244Y-72966992D01*
X123936830Y-72961436D01*
X124179127Y-72852387D01*
X124190305Y-72848148D01*
X124237756Y-72833361D01*
X124443985Y-72769098D01*
X124455578Y-72766241D01*
X124716944Y-72718344D01*
X124728796Y-72716905D01*
X124967712Y-72702453D01*
X124977628Y-72703276D01*
X124977628Y-72703138D01*
X124988776Y-72703158D01*
X124999641Y-72705656D01*
X125011641Y-72702941D01*
X125033488Y-72700500D01*
X134965983Y-72700500D01*
X134988169Y-72703018D01*
G37*
%TD.AperFunction*%
%TD*%
M02*
