%TF.GenerationSoftware,KiCad,Pcbnew,6.0.1-79c1e3a40b~116~ubuntu20.04.1*%
%TF.CreationDate,2022-02-01T21:07:10+01:00*%
%TF.ProjectId,amplifier,616d706c-6966-4696-9572-2e6b69636164,rev?*%
%TF.SameCoordinates,Original*%
%TF.FileFunction,Legend,Top*%
%TF.FilePolarity,Positive*%
%FSLAX46Y46*%
G04 Gerber Fmt 4.6, Leading zero omitted, Abs format (unit mm)*
G04 Created by KiCad (PCBNEW 6.0.1-79c1e3a40b~116~ubuntu20.04.1) date 2022-02-01 21:07:10*
%MOMM*%
%LPD*%
G01*
G04 APERTURE LIST*
%ADD10C,0.150000*%
%ADD11C,0.120000*%
G04 APERTURE END LIST*
D10*
X129000000Y-73452380D02*
X129095238Y-73452380D01*
X129190476Y-73500000D01*
X129238095Y-73547619D01*
X129285714Y-73642857D01*
X129333333Y-73833333D01*
X129333333Y-74071428D01*
X129285714Y-74261904D01*
X129238095Y-74357142D01*
X129190476Y-74404761D01*
X129095238Y-74452380D01*
X129000000Y-74452380D01*
X128904761Y-74404761D01*
X128857142Y-74357142D01*
X128809523Y-74261904D01*
X128761904Y-74071428D01*
X128761904Y-73833333D01*
X128809523Y-73642857D01*
X128857142Y-73547619D01*
X128904761Y-73500000D01*
X129000000Y-73452380D01*
X130285714Y-74452380D02*
X129714285Y-74452380D01*
X130000000Y-74452380D02*
X130000000Y-73452380D01*
X129904761Y-73595238D01*
X129809523Y-73690476D01*
X129714285Y-73738095D01*
X130904761Y-73452380D02*
X131000000Y-73452380D01*
X131095238Y-73500000D01*
X131142857Y-73547619D01*
X131190476Y-73642857D01*
X131238095Y-73833333D01*
X131238095Y-74071428D01*
X131190476Y-74261904D01*
X131142857Y-74357142D01*
X131095238Y-74404761D01*
X131000000Y-74452380D01*
X130904761Y-74452380D01*
X130809523Y-74404761D01*
X130761904Y-74357142D01*
X130714285Y-74261904D01*
X130666666Y-74071428D01*
X130666666Y-73833333D01*
X130714285Y-73642857D01*
X130761904Y-73547619D01*
X130809523Y-73500000D01*
X130904761Y-73452380D01*
%TO.C,J2*%
X128666666Y-91202380D02*
X129000000Y-92202380D01*
X129333333Y-91202380D01*
X130238095Y-92107142D02*
X130190476Y-92154761D01*
X130047619Y-92202380D01*
X129952380Y-92202380D01*
X129809523Y-92154761D01*
X129714285Y-92059523D01*
X129666666Y-91964285D01*
X129619047Y-91773809D01*
X129619047Y-91630952D01*
X129666666Y-91440476D01*
X129714285Y-91345238D01*
X129809523Y-91250000D01*
X129952380Y-91202380D01*
X130047619Y-91202380D01*
X130190476Y-91250000D01*
X130238095Y-91297619D01*
X131238095Y-92107142D02*
X131190476Y-92154761D01*
X131047619Y-92202380D01*
X130952380Y-92202380D01*
X130809523Y-92154761D01*
X130714285Y-92059523D01*
X130666666Y-91964285D01*
X130619047Y-91773809D01*
X130619047Y-91630952D01*
X130666666Y-91440476D01*
X130714285Y-91345238D01*
X130809523Y-91250000D01*
X130952380Y-91202380D01*
X131047619Y-91202380D01*
X131190476Y-91250000D01*
X131238095Y-91297619D01*
%TO.C,C3*%
X133058333Y-80857142D02*
X133010714Y-80904761D01*
X132867857Y-80952380D01*
X132772619Y-80952380D01*
X132629761Y-80904761D01*
X132534523Y-80809523D01*
X132486904Y-80714285D01*
X132439285Y-80523809D01*
X132439285Y-80380952D01*
X132486904Y-80190476D01*
X132534523Y-80095238D01*
X132629761Y-80000000D01*
X132772619Y-79952380D01*
X132867857Y-79952380D01*
X133010714Y-80000000D01*
X133058333Y-80047619D01*
X133391666Y-79952380D02*
X134010714Y-79952380D01*
X133677380Y-80333333D01*
X133820238Y-80333333D01*
X133915476Y-80380952D01*
X133963095Y-80428571D01*
X134010714Y-80523809D01*
X134010714Y-80761904D01*
X133963095Y-80857142D01*
X133915476Y-80904761D01*
X133820238Y-80952380D01*
X133534523Y-80952380D01*
X133439285Y-80904761D01*
X133391666Y-80857142D01*
%TO.C,U1*%
X129238095Y-79952380D02*
X129238095Y-80761904D01*
X129285714Y-80857142D01*
X129333333Y-80904761D01*
X129428571Y-80952380D01*
X129619047Y-80952380D01*
X129714285Y-80904761D01*
X129761904Y-80857142D01*
X129809523Y-80761904D01*
X129809523Y-79952380D01*
X130809523Y-80952380D02*
X130238095Y-80952380D01*
X130523809Y-80952380D02*
X130523809Y-79952380D01*
X130428571Y-80095238D01*
X130333333Y-80190476D01*
X130238095Y-80238095D01*
%TO.C,C1*%
X129833333Y-86857142D02*
X129785714Y-86904761D01*
X129642857Y-86952380D01*
X129547619Y-86952380D01*
X129404761Y-86904761D01*
X129309523Y-86809523D01*
X129261904Y-86714285D01*
X129214285Y-86523809D01*
X129214285Y-86380952D01*
X129261904Y-86190476D01*
X129309523Y-86095238D01*
X129404761Y-86000000D01*
X129547619Y-85952380D01*
X129642857Y-85952380D01*
X129785714Y-86000000D01*
X129833333Y-86047619D01*
X130785714Y-86952380D02*
X130214285Y-86952380D01*
X130500000Y-86952380D02*
X130500000Y-85952380D01*
X130404761Y-86095238D01*
X130309523Y-86190476D01*
X130214285Y-86238095D01*
%TO.C,C2*%
X126608333Y-80857142D02*
X126560714Y-80904761D01*
X126417857Y-80952380D01*
X126322619Y-80952380D01*
X126179761Y-80904761D01*
X126084523Y-80809523D01*
X126036904Y-80714285D01*
X125989285Y-80523809D01*
X125989285Y-80380952D01*
X126036904Y-80190476D01*
X126084523Y-80095238D01*
X126179761Y-80000000D01*
X126322619Y-79952380D01*
X126417857Y-79952380D01*
X126560714Y-80000000D01*
X126608333Y-80047619D01*
X126989285Y-80047619D02*
X127036904Y-80000000D01*
X127132142Y-79952380D01*
X127370238Y-79952380D01*
X127465476Y-80000000D01*
X127513095Y-80047619D01*
X127560714Y-80142857D01*
X127560714Y-80238095D01*
X127513095Y-80380952D01*
X126941666Y-80952380D01*
X127560714Y-80952380D01*
D11*
%TO.C,C3*%
X133084420Y-81990000D02*
X133365580Y-81990000D01*
X133084420Y-83010000D02*
X133365580Y-83010000D01*
%TO.C,U1*%
X130700000Y-81340000D02*
X129300000Y-81340000D01*
X129300000Y-83660000D02*
X131200000Y-83660000D01*
%TO.C,C1*%
X129859420Y-84490000D02*
X130140580Y-84490000D01*
X129859420Y-85510000D02*
X130140580Y-85510000D01*
%TO.C,C2*%
X126634420Y-81990000D02*
X126915580Y-81990000D01*
X126634420Y-83010000D02*
X126915580Y-83010000D01*
%TD*%
M02*
