%TF.GenerationSoftware,KiCad,Pcbnew,6.0.1-79c1e3a40b~116~ubuntu20.04.1*%
%TF.CreationDate,2022-02-01T21:07:10+01:00*%
%TF.ProjectId,amplifier,616d706c-6966-4696-9572-2e6b69636164,rev?*%
%TF.SameCoordinates,Original*%
%TF.FileFunction,Soldermask,Bot*%
%TF.FilePolarity,Negative*%
%FSLAX46Y46*%
G04 Gerber Fmt 4.6, Leading zero omitted, Abs format (unit mm)*
G04 Created by KiCad (PCBNEW 6.0.1-79c1e3a40b~116~ubuntu20.04.1) date 2022-02-01 21:07:10*
%MOMM*%
%LPD*%
G01*
G04 APERTURE LIST*
G04 Aperture macros list*
%AMRoundRect*
0 Rectangle with rounded corners*
0 $1 Rounding radius*
0 $2 $3 $4 $5 $6 $7 $8 $9 X,Y pos of 4 corners*
0 Add a 4 corners polygon primitive as box body*
4,1,4,$2,$3,$4,$5,$6,$7,$8,$9,$2,$3,0*
0 Add four circle primitives for the rounded corners*
1,1,$1+$1,$2,$3*
1,1,$1+$1,$4,$5*
1,1,$1+$1,$6,$7*
1,1,$1+$1,$8,$9*
0 Add four rect primitives between the rounded corners*
20,1,$1+$1,$2,$3,$4,$5,0*
20,1,$1+$1,$4,$5,$6,$7,0*
20,1,$1+$1,$6,$7,$8,$9,0*
20,1,$1+$1,$8,$9,$2,$3,0*%
G04 Aperture macros list end*
%ADD10C,3.400000*%
%ADD11RoundRect,0.250000X-0.675000X-0.675000X0.675000X-0.675000X0.675000X0.675000X-0.675000X0.675000X0*%
G04 APERTURE END LIST*
D10*
%TO.C,H1*%
X125000000Y-90000000D03*
%TD*%
D11*
%TO.C,J2*%
X130000000Y-90000000D03*
%TD*%
D10*
%TO.C,H3*%
X135000000Y-75000000D03*
%TD*%
%TO.C,H4*%
X135000000Y-90000000D03*
%TD*%
%TO.C,H2*%
X125000000Y-75000000D03*
%TD*%
G36*
X135004119Y-72500270D02*
G01*
X135318073Y-72520848D01*
X135334413Y-72522999D01*
X135638950Y-72583574D01*
X135654871Y-72587840D01*
X135948888Y-72687646D01*
X135964114Y-72693953D01*
X136242592Y-72831283D01*
X136256866Y-72839524D01*
X136515034Y-73012027D01*
X136528109Y-73022060D01*
X136761557Y-73226788D01*
X136773212Y-73238443D01*
X136977940Y-73471891D01*
X136987973Y-73484966D01*
X137160476Y-73743134D01*
X137168717Y-73757408D01*
X137306047Y-74035886D01*
X137312354Y-74051112D01*
X137412160Y-74345129D01*
X137416426Y-74361050D01*
X137477001Y-74665587D01*
X137479152Y-74681927D01*
X137499730Y-74995881D01*
X137500000Y-75004122D01*
X137500000Y-89995878D01*
X137499730Y-90004119D01*
X137479152Y-90318073D01*
X137477001Y-90334413D01*
X137416426Y-90638950D01*
X137412160Y-90654871D01*
X137312354Y-90948888D01*
X137306047Y-90964114D01*
X137168717Y-91242592D01*
X137160476Y-91256866D01*
X136987973Y-91515034D01*
X136977940Y-91528109D01*
X136773212Y-91761557D01*
X136761557Y-91773212D01*
X136528109Y-91977940D01*
X136515034Y-91987973D01*
X136256866Y-92160476D01*
X136242592Y-92168717D01*
X135964114Y-92306047D01*
X135948888Y-92312354D01*
X135654871Y-92412160D01*
X135638950Y-92416426D01*
X135334413Y-92477001D01*
X135318073Y-92479152D01*
X135004119Y-92499730D01*
X134995878Y-92500000D01*
X125004122Y-92500000D01*
X124995881Y-92499730D01*
X124681927Y-92479152D01*
X124665587Y-92477001D01*
X124361050Y-92416426D01*
X124345129Y-92412160D01*
X124051112Y-92312354D01*
X124035886Y-92306047D01*
X123757408Y-92168717D01*
X123743134Y-92160476D01*
X123484966Y-91987973D01*
X123471891Y-91977940D01*
X123238443Y-91773212D01*
X123226788Y-91761557D01*
X123022060Y-91528109D01*
X123012027Y-91515034D01*
X122839524Y-91256866D01*
X122831283Y-91242592D01*
X122693953Y-90964114D01*
X122687646Y-90948888D01*
X122587840Y-90654871D01*
X122583574Y-90638950D01*
X122522999Y-90334413D01*
X122520848Y-90318073D01*
X122500270Y-90004119D01*
X122500000Y-89995878D01*
X122500000Y-75004122D01*
X122500270Y-74995881D01*
X122520848Y-74681927D01*
X122522999Y-74665587D01*
X122583574Y-74361050D01*
X122587840Y-74345129D01*
X122687646Y-74051112D01*
X122693953Y-74035886D01*
X122831283Y-73757408D01*
X122839524Y-73743134D01*
X123012027Y-73484966D01*
X123022060Y-73471891D01*
X123226788Y-73238443D01*
X123238443Y-73226788D01*
X123471891Y-73022060D01*
X123484966Y-73012027D01*
X123743134Y-72839524D01*
X123757408Y-72831283D01*
X124035886Y-72693953D01*
X124051112Y-72687646D01*
X124345129Y-72587840D01*
X124361050Y-72583574D01*
X124665587Y-72522999D01*
X124681927Y-72520848D01*
X124995881Y-72500270D01*
X125004122Y-72500000D01*
X134995878Y-72500000D01*
X135004119Y-72500270D01*
G37*
M02*
