%TF.GenerationSoftware,KiCad,Pcbnew,6.0.11+dfsg-1*%
%TF.CreationDate,2023-06-30T12:50:15+02:00*%
%TF.ProjectId,pcb-connector,7063622d-636f-46e6-9e65-63746f722e6b,2*%
%TF.SameCoordinates,Original*%
%TF.FileFunction,Soldermask,Bot*%
%TF.FilePolarity,Negative*%
%FSLAX46Y46*%
G04 Gerber Fmt 4.6, Leading zero omitted, Abs format (unit mm)*
G04 Created by KiCad (PCBNEW 6.0.11+dfsg-1) date 2023-06-30 12:50:15*
%MOMM*%
%LPD*%
G01*
G04 APERTURE LIST*
%ADD10C,3.400000*%
G04 APERTURE END LIST*
D10*
%TO.C,H4*%
X145000000Y-90000000D03*
%TD*%
%TO.C,H3*%
X150000000Y-75000000D03*
%TD*%
%TO.C,H1*%
X145000000Y-75000000D03*
%TD*%
%TO.C,H2*%
X150000000Y-90000000D03*
%TD*%
G36*
X149942121Y-79756187D02*
G01*
X149988614Y-79809843D01*
X150000000Y-79862185D01*
X150000000Y-87981885D01*
X150004475Y-87997124D01*
X150007518Y-87999761D01*
X150011442Y-88000750D01*
X150252810Y-88016570D01*
X150269150Y-88018721D01*
X150509538Y-88066537D01*
X150525459Y-88070803D01*
X150757548Y-88149587D01*
X150772774Y-88155894D01*
X150992592Y-88264296D01*
X151006866Y-88272537D01*
X151210658Y-88408706D01*
X151223733Y-88418739D01*
X151313070Y-88497085D01*
X151351098Y-88557038D01*
X151350676Y-88628034D01*
X151319088Y-88680912D01*
X148536905Y-91463095D01*
X148474593Y-91497121D01*
X148447810Y-91500000D01*
X146552190Y-91500000D01*
X146484069Y-91479998D01*
X146463095Y-91463095D01*
X143680912Y-88680912D01*
X143646886Y-88618600D01*
X143651951Y-88547785D01*
X143686930Y-88497085D01*
X143776267Y-88418739D01*
X143789342Y-88408706D01*
X143993131Y-88272539D01*
X144007404Y-88264298D01*
X144227230Y-88155891D01*
X144242458Y-88149584D01*
X144474540Y-88070803D01*
X144490460Y-88066537D01*
X144730850Y-88018721D01*
X144747190Y-88016570D01*
X144981921Y-88001185D01*
X144996838Y-87995722D01*
X144999271Y-87992513D01*
X145000000Y-87988537D01*
X145000000Y-80116185D01*
X145020002Y-80048064D01*
X145073658Y-80001571D01*
X145126000Y-79990185D01*
X148981885Y-79990185D01*
X148997124Y-79985710D01*
X148998329Y-79984320D01*
X149000000Y-79976637D01*
X149000000Y-79862185D01*
X149020002Y-79794064D01*
X149073658Y-79747571D01*
X149126000Y-79736185D01*
X149874000Y-79736185D01*
X149942121Y-79756187D01*
G37*
G36*
X150664683Y-76666002D02*
G01*
X150711176Y-76719658D01*
X150721280Y-76789932D01*
X150691786Y-76854512D01*
X150637063Y-76891313D01*
X150525460Y-76929197D01*
X150509540Y-76933463D01*
X150269150Y-76981279D01*
X150252810Y-76983430D01*
X150018079Y-76998815D01*
X150003162Y-77004278D01*
X150000729Y-77007487D01*
X150000000Y-77011463D01*
X150000000Y-80128000D01*
X149979998Y-80196121D01*
X149926342Y-80242614D01*
X149874000Y-80254000D01*
X149003088Y-80254000D01*
X148996906Y-80253848D01*
X148981291Y-80253081D01*
X148968985Y-80251869D01*
X148956574Y-80250028D01*
X148944448Y-80247616D01*
X148932267Y-80244565D01*
X148920435Y-80240976D01*
X148908629Y-80236752D01*
X148897194Y-80232015D01*
X148893110Y-80230083D01*
X148840085Y-80182872D01*
X148821002Y-80114488D01*
X148841920Y-80046643D01*
X148896197Y-80000877D01*
X148946991Y-79990185D01*
X148981885Y-79990185D01*
X148997124Y-79985710D01*
X148998329Y-79984320D01*
X149000000Y-79976637D01*
X149000000Y-76918115D01*
X148995525Y-76902876D01*
X148994135Y-76901671D01*
X148986452Y-76900000D01*
X148979162Y-76900000D01*
X148911041Y-76879998D01*
X148864548Y-76826342D01*
X148854444Y-76756068D01*
X148883938Y-76691488D01*
X148943664Y-76653104D01*
X148960671Y-76649364D01*
X148968982Y-76648131D01*
X148981291Y-76646919D01*
X148996906Y-76646152D01*
X149003088Y-76646000D01*
X150596562Y-76646000D01*
X150664683Y-76666002D01*
G37*
G36*
X148515931Y-73520002D02*
G01*
X148536905Y-73536905D01*
X151319088Y-76319088D01*
X151353114Y-76381400D01*
X151348049Y-76452215D01*
X151313070Y-76502915D01*
X151223733Y-76581261D01*
X151210658Y-76591294D01*
X151006869Y-76727461D01*
X150992596Y-76735702D01*
X150772770Y-76844109D01*
X150757542Y-76850416D01*
X150525460Y-76929197D01*
X150509540Y-76933463D01*
X150269150Y-76981279D01*
X150252810Y-76983430D01*
X150018079Y-76998815D01*
X150003162Y-77004278D01*
X150000729Y-77007487D01*
X150000000Y-77011463D01*
X150000000Y-77028000D01*
X149979998Y-77096121D01*
X149926342Y-77142614D01*
X149874000Y-77154000D01*
X149126000Y-77154000D01*
X149057879Y-77133998D01*
X149011386Y-77080342D01*
X149000000Y-77028000D01*
X149000000Y-76918115D01*
X148995525Y-76902876D01*
X148994135Y-76901671D01*
X148986452Y-76900000D01*
X146018115Y-76900000D01*
X146002876Y-76904475D01*
X146001671Y-76905865D01*
X146000000Y-76913548D01*
X146000000Y-77028000D01*
X145979998Y-77096121D01*
X145926342Y-77142614D01*
X145874000Y-77154000D01*
X145126000Y-77154000D01*
X145057879Y-77133998D01*
X145011386Y-77080342D01*
X145000000Y-77028000D01*
X145000000Y-77018115D01*
X144995525Y-77002876D01*
X144992482Y-77000239D01*
X144988558Y-76999250D01*
X144747190Y-76983430D01*
X144730850Y-76981279D01*
X144490462Y-76933463D01*
X144474541Y-76929197D01*
X144242452Y-76850413D01*
X144227226Y-76844106D01*
X144007408Y-76735704D01*
X143993134Y-76727463D01*
X143789342Y-76591294D01*
X143776267Y-76581261D01*
X143686930Y-76502915D01*
X143648902Y-76442962D01*
X143649324Y-76371966D01*
X143680912Y-76319088D01*
X146463095Y-73536905D01*
X146525407Y-73502879D01*
X146552190Y-73500000D01*
X148447810Y-73500000D01*
X148515931Y-73520002D01*
G37*
G36*
X146003094Y-76646152D02*
G01*
X146018709Y-76646919D01*
X146031018Y-76648131D01*
X146039329Y-76649364D01*
X146103777Y-76679146D01*
X146141892Y-76739044D01*
X146141574Y-76810040D01*
X146102923Y-76869593D01*
X146038210Y-76898797D01*
X146020838Y-76900000D01*
X146018115Y-76900000D01*
X146002876Y-76904475D01*
X146001671Y-76905865D01*
X146000000Y-76913548D01*
X146000000Y-79972070D01*
X146004475Y-79987309D01*
X146005865Y-79988514D01*
X146013548Y-79990185D01*
X146053009Y-79990185D01*
X146121130Y-80010187D01*
X146167623Y-80063843D01*
X146177727Y-80134117D01*
X146148233Y-80198697D01*
X146106890Y-80230083D01*
X146102806Y-80232015D01*
X146091371Y-80236752D01*
X146079565Y-80240976D01*
X146067733Y-80244565D01*
X146055552Y-80247616D01*
X146043426Y-80250028D01*
X146031015Y-80251869D01*
X146018709Y-80253081D01*
X146003094Y-80253848D01*
X145996912Y-80254000D01*
X145126000Y-80254000D01*
X145057879Y-80233998D01*
X145011386Y-80180342D01*
X145000000Y-80128000D01*
X145000000Y-77018115D01*
X144995525Y-77002876D01*
X144992482Y-77000239D01*
X144988558Y-76999250D01*
X144747190Y-76983430D01*
X144730850Y-76981279D01*
X144490462Y-76933463D01*
X144474542Y-76929197D01*
X144362939Y-76891313D01*
X144304863Y-76850476D01*
X144278084Y-76784723D01*
X144291105Y-76714931D01*
X144339792Y-76663258D01*
X144403440Y-76646000D01*
X145996912Y-76646000D01*
X146003094Y-76646152D01*
G37*
M02*
