%TF.GenerationSoftware,KiCad,Pcbnew,6.0.11+dfsg-1*%
%TF.CreationDate,2023-06-30T12:50:15+02:00*%
%TF.ProjectId,pcb-connector,7063622d-636f-46e6-9e65-63746f722e6b,2*%
%TF.SameCoordinates,Original*%
%TF.FileFunction,Legend,Bot*%
%TF.FilePolarity,Positive*%
%FSLAX46Y46*%
G04 Gerber Fmt 4.6, Leading zero omitted, Abs format (unit mm)*
G04 Created by KiCad (PCBNEW 6.0.11+dfsg-1) date 2023-06-30 12:50:15*
%MOMM*%
%LPD*%
G01*
G04 APERTURE LIST*
%ADD10C,0.150000*%
G04 APERTURE END LIST*
D10*
X148500000Y-77147380D02*
X148404761Y-77147380D01*
X148309523Y-77195000D01*
X148261904Y-77242619D01*
X148214285Y-77337857D01*
X148166666Y-77528333D01*
X148166666Y-77766428D01*
X148214285Y-77956904D01*
X148261904Y-78052142D01*
X148309523Y-78099761D01*
X148404761Y-78147380D01*
X148500000Y-78147380D01*
X148595238Y-78099761D01*
X148642857Y-78052142D01*
X148690476Y-77956904D01*
X148738095Y-77766428D01*
X148738095Y-77528333D01*
X148690476Y-77337857D01*
X148642857Y-77242619D01*
X148595238Y-77195000D01*
X148500000Y-77147380D01*
X147214285Y-78147380D02*
X147785714Y-78147380D01*
X147500000Y-78147380D02*
X147500000Y-77147380D01*
X147595238Y-77290238D01*
X147690476Y-77385476D01*
X147785714Y-77433095D01*
X146261904Y-78147380D02*
X146833333Y-78147380D01*
X146547619Y-78147380D02*
X146547619Y-77147380D01*
X146642857Y-77290238D01*
X146738095Y-77385476D01*
X146833333Y-77433095D01*
X148309523Y-78757380D02*
X147976190Y-79757380D01*
X147642857Y-78757380D01*
X147357142Y-78852619D02*
X147309523Y-78805000D01*
X147214285Y-78757380D01*
X146976190Y-78757380D01*
X146880952Y-78805000D01*
X146833333Y-78852619D01*
X146785714Y-78947857D01*
X146785714Y-79043095D01*
X146833333Y-79185952D01*
X147404761Y-79757380D01*
X146785714Y-79757380D01*
M02*
