%TF.GenerationSoftware,KiCad,Pcbnew,6.0.11+dfsg-1*%
%TF.CreationDate,2023-06-30T12:30:54+02:00*%
%TF.ProjectId,pcb-connector,7063622d-636f-46e6-9e65-63746f722e6b,2*%
%TF.SameCoordinates,Original*%
%TF.FileFunction,Drillmap*%
%TF.FilePolarity,Positive*%
%FSLAX45Y45*%
G04 Gerber Fmt 4.5, Leading zero omitted, Abs format (unit mm)*
G04 Created by KiCad (PCBNEW 6.0.11+dfsg-1) date 2023-06-30 12:30:54*
%MOMM*%
%LPD*%
G01*
G04 APERTURE LIST*
%ADD10C,0.100000*%
%ADD11C,0.200000*%
G04 APERTURE END LIST*
D10*
X15141421Y-8858579D02*
G75*
G03*
X15000000Y-8800000I-141421J-141421D01*
G01*
X15000000Y-7700000D02*
G75*
G03*
X15141421Y-7641421I0J200000D01*
G01*
X14500000Y-7950000D02*
X14500000Y-8550000D01*
X14650000Y-7350000D02*
X14358579Y-7641421D01*
X14850000Y-7350000D02*
X14650000Y-7350000D01*
X14358579Y-8858579D02*
X14650000Y-9150000D01*
X15000000Y-7700000D02*
X15000000Y-8800000D01*
X14500000Y-8550000D02*
X14500000Y-8800000D01*
X14500000Y-8800000D02*
G75*
G03*
X14358579Y-8858579I0J-200000D01*
G01*
X14850000Y-9150000D02*
X15141421Y-8858579D01*
X14500000Y-7700000D02*
X14500000Y-7950000D01*
X14650000Y-9150000D02*
X14850000Y-9150000D01*
X14358579Y-7641421D02*
G75*
G03*
X14500000Y-7700000I141421J141421D01*
G01*
X15141421Y-7641421D02*
X14850000Y-7350000D01*
D11*
X14400000Y-7400000D02*
X14600000Y-7600000D01*
X14600000Y-7400000D02*
X14400000Y-7600000D01*
X14400000Y-8900000D02*
X14600000Y-9100000D01*
X14600000Y-8900000D02*
X14400000Y-9100000D01*
X14900000Y-7400000D02*
X15100000Y-7600000D01*
X15100000Y-7400000D02*
X14900000Y-7600000D01*
X14900000Y-8900000D02*
X15100000Y-9100000D01*
X15100000Y-8900000D02*
X14900000Y-9100000D01*
X14611198Y-9465476D02*
X14611198Y-9265476D01*
X14658817Y-9265476D01*
X14687388Y-9275000D01*
X14706436Y-9294048D01*
X14715959Y-9313095D01*
X14725483Y-9351190D01*
X14725483Y-9379762D01*
X14715959Y-9417857D01*
X14706436Y-9436905D01*
X14687388Y-9455952D01*
X14658817Y-9465476D01*
X14611198Y-9465476D01*
X14811198Y-9465476D02*
X14811198Y-9332143D01*
X14811198Y-9370238D02*
X14820721Y-9351190D01*
X14830245Y-9341667D01*
X14849293Y-9332143D01*
X14868340Y-9332143D01*
X14935007Y-9465476D02*
X14935007Y-9332143D01*
X14935007Y-9265476D02*
X14925483Y-9275000D01*
X14935007Y-9284524D01*
X14944531Y-9275000D01*
X14935007Y-9265476D01*
X14935007Y-9284524D01*
X15058817Y-9465476D02*
X15039769Y-9455952D01*
X15030245Y-9436905D01*
X15030245Y-9265476D01*
X15163579Y-9465476D02*
X15144531Y-9455952D01*
X15135007Y-9436905D01*
X15135007Y-9265476D01*
X15392150Y-9465476D02*
X15392150Y-9265476D01*
X15458817Y-9408333D01*
X15525483Y-9265476D01*
X15525483Y-9465476D01*
X15706436Y-9465476D02*
X15706436Y-9360714D01*
X15696912Y-9341667D01*
X15677864Y-9332143D01*
X15639769Y-9332143D01*
X15620721Y-9341667D01*
X15706436Y-9455952D02*
X15687388Y-9465476D01*
X15639769Y-9465476D01*
X15620721Y-9455952D01*
X15611198Y-9436905D01*
X15611198Y-9417857D01*
X15620721Y-9398810D01*
X15639769Y-9389286D01*
X15687388Y-9389286D01*
X15706436Y-9379762D01*
X15801674Y-9332143D02*
X15801674Y-9532143D01*
X15801674Y-9341667D02*
X15820721Y-9332143D01*
X15858817Y-9332143D01*
X15877864Y-9341667D01*
X15887388Y-9351190D01*
X15896912Y-9370238D01*
X15896912Y-9427381D01*
X15887388Y-9446429D01*
X15877864Y-9455952D01*
X15858817Y-9465476D01*
X15820721Y-9465476D01*
X15801674Y-9455952D01*
X15982626Y-9446429D02*
X15992150Y-9455952D01*
X15982626Y-9465476D01*
X15973102Y-9455952D01*
X15982626Y-9446429D01*
X15982626Y-9465476D01*
X15982626Y-9341667D02*
X15992150Y-9351190D01*
X15982626Y-9360714D01*
X15973102Y-9351190D01*
X15982626Y-9341667D01*
X15982626Y-9360714D01*
X14153579Y-9695000D02*
X14353579Y-9895000D01*
X14353579Y-9695000D02*
X14153579Y-9895000D01*
X14601674Y-9704524D02*
X14611198Y-9695000D01*
X14630245Y-9685476D01*
X14677864Y-9685476D01*
X14696912Y-9695000D01*
X14706436Y-9704524D01*
X14715959Y-9723571D01*
X14715959Y-9742619D01*
X14706436Y-9771190D01*
X14592150Y-9885476D01*
X14715959Y-9885476D01*
X14801674Y-9866429D02*
X14811198Y-9875952D01*
X14801674Y-9885476D01*
X14792150Y-9875952D01*
X14801674Y-9866429D01*
X14801674Y-9885476D01*
X14935007Y-9685476D02*
X14954055Y-9685476D01*
X14973102Y-9695000D01*
X14982626Y-9704524D01*
X14992150Y-9723571D01*
X15001674Y-9761667D01*
X15001674Y-9809286D01*
X14992150Y-9847381D01*
X14982626Y-9866429D01*
X14973102Y-9875952D01*
X14954055Y-9885476D01*
X14935007Y-9885476D01*
X14915959Y-9875952D01*
X14906436Y-9866429D01*
X14896912Y-9847381D01*
X14887388Y-9809286D01*
X14887388Y-9761667D01*
X14896912Y-9723571D01*
X14906436Y-9704524D01*
X14915959Y-9695000D01*
X14935007Y-9685476D01*
X15125483Y-9685476D02*
X15144531Y-9685476D01*
X15163579Y-9695000D01*
X15173102Y-9704524D01*
X15182626Y-9723571D01*
X15192150Y-9761667D01*
X15192150Y-9809286D01*
X15182626Y-9847381D01*
X15173102Y-9866429D01*
X15163579Y-9875952D01*
X15144531Y-9885476D01*
X15125483Y-9885476D01*
X15106436Y-9875952D01*
X15096912Y-9866429D01*
X15087388Y-9847381D01*
X15077864Y-9809286D01*
X15077864Y-9761667D01*
X15087388Y-9723571D01*
X15096912Y-9704524D01*
X15106436Y-9695000D01*
X15125483Y-9685476D01*
X15315959Y-9685476D02*
X15335007Y-9685476D01*
X15354055Y-9695000D01*
X15363579Y-9704524D01*
X15373102Y-9723571D01*
X15382626Y-9761667D01*
X15382626Y-9809286D01*
X15373102Y-9847381D01*
X15363579Y-9866429D01*
X15354055Y-9875952D01*
X15335007Y-9885476D01*
X15315959Y-9885476D01*
X15296912Y-9875952D01*
X15287388Y-9866429D01*
X15277864Y-9847381D01*
X15268340Y-9809286D01*
X15268340Y-9761667D01*
X15277864Y-9723571D01*
X15287388Y-9704524D01*
X15296912Y-9695000D01*
X15315959Y-9685476D01*
X15468340Y-9885476D02*
X15468340Y-9752143D01*
X15468340Y-9771190D02*
X15477864Y-9761667D01*
X15496912Y-9752143D01*
X15525483Y-9752143D01*
X15544531Y-9761667D01*
X15554055Y-9780714D01*
X15554055Y-9885476D01*
X15554055Y-9780714D02*
X15563579Y-9761667D01*
X15582626Y-9752143D01*
X15611198Y-9752143D01*
X15630245Y-9761667D01*
X15639769Y-9780714D01*
X15639769Y-9885476D01*
X15735007Y-9885476D02*
X15735007Y-9752143D01*
X15735007Y-9771190D02*
X15744531Y-9761667D01*
X15763579Y-9752143D01*
X15792150Y-9752143D01*
X15811198Y-9761667D01*
X15820721Y-9780714D01*
X15820721Y-9885476D01*
X15820721Y-9780714D02*
X15830245Y-9761667D01*
X15849293Y-9752143D01*
X15877864Y-9752143D01*
X15896912Y-9761667D01*
X15906436Y-9780714D01*
X15906436Y-9885476D01*
X16296912Y-9675952D02*
X16125483Y-9933095D01*
X16554055Y-9685476D02*
X16573102Y-9685476D01*
X16592150Y-9695000D01*
X16601674Y-9704524D01*
X16611198Y-9723571D01*
X16620721Y-9761667D01*
X16620721Y-9809286D01*
X16611198Y-9847381D01*
X16601674Y-9866429D01*
X16592150Y-9875952D01*
X16573102Y-9885476D01*
X16554055Y-9885476D01*
X16535007Y-9875952D01*
X16525483Y-9866429D01*
X16515959Y-9847381D01*
X16506436Y-9809286D01*
X16506436Y-9761667D01*
X16515959Y-9723571D01*
X16525483Y-9704524D01*
X16535007Y-9695000D01*
X16554055Y-9685476D01*
X16706436Y-9866429D02*
X16715959Y-9875952D01*
X16706436Y-9885476D01*
X16696912Y-9875952D01*
X16706436Y-9866429D01*
X16706436Y-9885476D01*
X16839769Y-9685476D02*
X16858817Y-9685476D01*
X16877864Y-9695000D01*
X16887388Y-9704524D01*
X16896912Y-9723571D01*
X16906436Y-9761667D01*
X16906436Y-9809286D01*
X16896912Y-9847381D01*
X16887388Y-9866429D01*
X16877864Y-9875952D01*
X16858817Y-9885476D01*
X16839769Y-9885476D01*
X16820721Y-9875952D01*
X16811198Y-9866429D01*
X16801674Y-9847381D01*
X16792150Y-9809286D01*
X16792150Y-9761667D01*
X16801674Y-9723571D01*
X16811198Y-9704524D01*
X16820721Y-9695000D01*
X16839769Y-9685476D01*
X16973102Y-9685476D02*
X17106436Y-9685476D01*
X17020721Y-9885476D01*
X17211198Y-9771190D02*
X17192150Y-9761667D01*
X17182626Y-9752143D01*
X17173102Y-9733095D01*
X17173102Y-9723571D01*
X17182626Y-9704524D01*
X17192150Y-9695000D01*
X17211198Y-9685476D01*
X17249293Y-9685476D01*
X17268341Y-9695000D01*
X17277864Y-9704524D01*
X17287388Y-9723571D01*
X17287388Y-9733095D01*
X17277864Y-9752143D01*
X17268341Y-9761667D01*
X17249293Y-9771190D01*
X17211198Y-9771190D01*
X17192150Y-9780714D01*
X17182626Y-9790238D01*
X17173102Y-9809286D01*
X17173102Y-9847381D01*
X17182626Y-9866429D01*
X17192150Y-9875952D01*
X17211198Y-9885476D01*
X17249293Y-9885476D01*
X17268341Y-9875952D01*
X17277864Y-9866429D01*
X17287388Y-9847381D01*
X17287388Y-9809286D01*
X17277864Y-9790238D01*
X17268341Y-9780714D01*
X17249293Y-9771190D01*
X17354055Y-9685476D02*
X17487388Y-9685476D01*
X17401674Y-9885476D01*
X17554055Y-9685476D02*
X17554055Y-9723571D01*
X17630245Y-9685476D02*
X17630245Y-9723571D01*
X17925483Y-9961667D02*
X17915960Y-9952143D01*
X17896912Y-9923571D01*
X17887388Y-9904524D01*
X17877864Y-9875952D01*
X17868341Y-9828333D01*
X17868341Y-9790238D01*
X17877864Y-9742619D01*
X17887388Y-9714048D01*
X17896912Y-9695000D01*
X17915960Y-9666429D01*
X17925483Y-9656905D01*
X18087388Y-9752143D02*
X18087388Y-9885476D01*
X18039769Y-9675952D02*
X17992150Y-9818810D01*
X18115960Y-9818810D01*
X18344531Y-9885476D02*
X18344531Y-9685476D01*
X18430245Y-9885476D02*
X18430245Y-9780714D01*
X18420721Y-9761667D01*
X18401674Y-9752143D01*
X18373102Y-9752143D01*
X18354055Y-9761667D01*
X18344531Y-9771190D01*
X18554055Y-9885476D02*
X18535007Y-9875952D01*
X18525483Y-9866429D01*
X18515960Y-9847381D01*
X18515960Y-9790238D01*
X18525483Y-9771190D01*
X18535007Y-9761667D01*
X18554055Y-9752143D01*
X18582626Y-9752143D01*
X18601674Y-9761667D01*
X18611198Y-9771190D01*
X18620721Y-9790238D01*
X18620721Y-9847381D01*
X18611198Y-9866429D01*
X18601674Y-9875952D01*
X18582626Y-9885476D01*
X18554055Y-9885476D01*
X18735007Y-9885476D02*
X18715960Y-9875952D01*
X18706436Y-9856905D01*
X18706436Y-9685476D01*
X18887388Y-9875952D02*
X18868341Y-9885476D01*
X18830245Y-9885476D01*
X18811198Y-9875952D01*
X18801674Y-9856905D01*
X18801674Y-9780714D01*
X18811198Y-9761667D01*
X18830245Y-9752143D01*
X18868341Y-9752143D01*
X18887388Y-9761667D01*
X18896912Y-9780714D01*
X18896912Y-9799762D01*
X18801674Y-9818810D01*
X18973102Y-9875952D02*
X18992150Y-9885476D01*
X19030245Y-9885476D01*
X19049293Y-9875952D01*
X19058817Y-9856905D01*
X19058817Y-9847381D01*
X19049293Y-9828333D01*
X19030245Y-9818810D01*
X19001674Y-9818810D01*
X18982626Y-9809286D01*
X18973102Y-9790238D01*
X18973102Y-9780714D01*
X18982626Y-9761667D01*
X19001674Y-9752143D01*
X19030245Y-9752143D01*
X19049293Y-9761667D01*
X19125483Y-9961667D02*
X19135007Y-9952143D01*
X19154055Y-9923571D01*
X19163579Y-9904524D01*
X19173102Y-9875952D01*
X19182626Y-9828333D01*
X19182626Y-9790238D01*
X19173102Y-9742619D01*
X19163579Y-9714048D01*
X19154055Y-9695000D01*
X19135007Y-9666429D01*
X19125483Y-9656905D01*
X19487388Y-9961667D02*
X19477864Y-9952143D01*
X19458817Y-9923571D01*
X19449293Y-9904524D01*
X19439769Y-9875952D01*
X19430245Y-9828333D01*
X19430245Y-9790238D01*
X19439769Y-9742619D01*
X19449293Y-9714048D01*
X19458817Y-9695000D01*
X19477864Y-9666429D01*
X19487388Y-9656905D01*
X19563579Y-9752143D02*
X19563579Y-9885476D01*
X19563579Y-9771190D02*
X19573102Y-9761667D01*
X19592150Y-9752143D01*
X19620721Y-9752143D01*
X19639769Y-9761667D01*
X19649293Y-9780714D01*
X19649293Y-9885476D01*
X19773102Y-9885476D02*
X19754055Y-9875952D01*
X19744531Y-9866429D01*
X19735007Y-9847381D01*
X19735007Y-9790238D01*
X19744531Y-9771190D01*
X19754055Y-9761667D01*
X19773102Y-9752143D01*
X19801674Y-9752143D01*
X19820721Y-9761667D01*
X19830245Y-9771190D01*
X19839769Y-9790238D01*
X19839769Y-9847381D01*
X19830245Y-9866429D01*
X19820721Y-9875952D01*
X19801674Y-9885476D01*
X19773102Y-9885476D01*
X19896912Y-9752143D02*
X19973102Y-9752143D01*
X19925483Y-9685476D02*
X19925483Y-9856905D01*
X19935007Y-9875952D01*
X19954055Y-9885476D01*
X19973102Y-9885476D01*
X20192150Y-9752143D02*
X20192150Y-9952143D01*
X20192150Y-9761667D02*
X20211198Y-9752143D01*
X20249293Y-9752143D01*
X20268341Y-9761667D01*
X20277864Y-9771190D01*
X20287388Y-9790238D01*
X20287388Y-9847381D01*
X20277864Y-9866429D01*
X20268341Y-9875952D01*
X20249293Y-9885476D01*
X20211198Y-9885476D01*
X20192150Y-9875952D01*
X20401674Y-9885476D02*
X20382626Y-9875952D01*
X20373102Y-9856905D01*
X20373102Y-9685476D01*
X20563579Y-9885476D02*
X20563579Y-9780714D01*
X20554055Y-9761667D01*
X20535007Y-9752143D01*
X20496912Y-9752143D01*
X20477864Y-9761667D01*
X20563579Y-9875952D02*
X20544531Y-9885476D01*
X20496912Y-9885476D01*
X20477864Y-9875952D01*
X20468341Y-9856905D01*
X20468341Y-9837857D01*
X20477864Y-9818810D01*
X20496912Y-9809286D01*
X20544531Y-9809286D01*
X20563579Y-9799762D01*
X20630245Y-9752143D02*
X20706436Y-9752143D01*
X20658817Y-9685476D02*
X20658817Y-9856905D01*
X20668341Y-9875952D01*
X20687388Y-9885476D01*
X20706436Y-9885476D01*
X20849293Y-9875952D02*
X20830245Y-9885476D01*
X20792150Y-9885476D01*
X20773102Y-9875952D01*
X20763579Y-9856905D01*
X20763579Y-9780714D01*
X20773102Y-9761667D01*
X20792150Y-9752143D01*
X20830245Y-9752143D01*
X20849293Y-9761667D01*
X20858817Y-9780714D01*
X20858817Y-9799762D01*
X20763579Y-9818810D01*
X21030245Y-9885476D02*
X21030245Y-9685476D01*
X21030245Y-9875952D02*
X21011198Y-9885476D01*
X20973102Y-9885476D01*
X20954055Y-9875952D01*
X20944531Y-9866429D01*
X20935007Y-9847381D01*
X20935007Y-9790238D01*
X20944531Y-9771190D01*
X20954055Y-9761667D01*
X20973102Y-9752143D01*
X21011198Y-9752143D01*
X21030245Y-9761667D01*
X21106436Y-9961667D02*
X21115960Y-9952143D01*
X21135007Y-9923571D01*
X21144531Y-9904524D01*
X21154055Y-9875952D01*
X21163579Y-9828333D01*
X21163579Y-9790238D01*
X21154055Y-9742619D01*
X21144531Y-9714048D01*
X21135007Y-9695000D01*
X21115960Y-9666429D01*
X21106436Y-9656905D01*
M02*
